<svg xmlns="http://www.w3.org/2000/svg" xmlns:xlink="http://www.w3.org/1999/xlink" width="502" height="405.375" viewBox="0 0 502 405.375">
  <defs>
    <clipPath id="clip-path">
      <rect id="rect3283" width="357.924" height="405.375" rx="0.862" fill="none"/>
    </clipPath>
    <filter id="circle3285" x="79.371" y="8.925" width="323.334" height="306.736" filterUnits="userSpaceOnUse">
      <feOffset dy="3" input="SourceAlpha"/>
      <feGaussianBlur stdDeviation="3" result="blur"/>
      <feFlood flood-opacity="0.161"/>
      <feComposite operator="in" in2="blur"/>
      <feComposite in="SourceGraphic"/>
    </filter>
  </defs>
  <g id="Grupo_174292" data-name="Grupo 174292" transform="translate(-180 -8212)">
    <path id="Rectángulo_44971" data-name="Rectángulo 44971" d="M48,0H454a48,48,0,0,1,48,48V150a0,0,0,0,1,0,0H0a0,0,0,0,1,0,0V48A48,48,0,0,1,48,0Z" transform="translate(180 8467)" fill="#3c3fa7"/>
    <g id="Grupo_174291" data-name="Grupo 174291" transform="translate(242.076 8212)">
      <g id="Grupo_81218" data-name="Grupo 81218" transform="translate(0 0)">
        <g id="Grupo_81217" data-name="Grupo 81217" clip-path="url(#clip-path)">
          <g id="layer1" transform="translate(2.226 3.376)">
            <g transform="matrix(1, 0, 0, 1, -64.3, -3.38)" filter="url(#circle3285)">
              <ellipse id="circle3285-2" data-name="circle3285" cx="152.667" cy="144.368" rx="152.667" ry="144.368" transform="translate(88.37 14.93)" fill="#ffdfe0"/>
            </g>
            <g id="g3292" transform="translate(236.443 304.948)">
              <path id="path3288" d="M125.254,456.322a64.1,64.1,0,0,1-17.421,22.207l-8.843-9.739,3.778,13.515a62.738,62.738,0,0,1-17.636,8.2,73.652,73.652,0,0,1-11.457,2.385l-8.014-13.545,1.876,13.98c-14.753.263-23.777-5.48-29.254-8.765l10.9-11.774-16.117,8.758c-5.837-4.194-11.951-13.214-11.951-13.214a114.448,114.448,0,0,1,23.605-21.052l6.957,8.623-2.866-11.154c7.337-4.255,15.668-7.563,24.4-8.206a52.941,52.941,0,0,1,8.269.052l4.592,14.232-.087-13.682a72.65,72.65,0,0,1,20.027,6.559l1.259,11.245,2.662-9.207a87.209,87.209,0,0,1,15.322,10.582Z" transform="translate(-21.112 -436.402)" fill="#ffb998"/>
              <path id="path3290" d="M125.08,456.321l-.014.028c-2.6.243-76.2,7.158-103.954,11.774a113.33,113.33,0,0,1,23.43-20.848L51.5,455.9l-2.866-11.154c7.338-4.256,15.668-7.563,24.4-8.206a52.94,52.94,0,0,1,8.269.052L85.9,450.823l-.087-13.682a72.625,72.625,0,0,1,20.027,6.56l1.259,11.244,2.662-9.207a87.252,87.252,0,0,1,15.322,10.583Z" transform="translate(-20.937 -436.402)" fill="#ec9982"/>
            </g>
            <g id="g3298" transform="translate(9.739 304.948)">
              <path id="path3294" d="M337.8,456.322a64.085,64.085,0,0,0,17.421,22.207l8.843-9.739L360.291,482.3a62.739,62.739,0,0,0,17.636,8.2,73.635,73.635,0,0,0,11.457,2.385l8.014-13.545-1.876,13.98c14.752.263,23.776-5.48,29.253-8.765l-10.9-11.774L430,481.542c5.837-4.194,11.952-13.214,11.952-13.214a114.471,114.471,0,0,0-23.605-21.052l-6.957,8.623,2.866-11.154c-7.338-4.255-15.669-7.563-24.4-8.206a52.932,52.932,0,0,0-8.269.052l-4.593,14.232.088-13.682a72.643,72.643,0,0,0-20.027,6.559l-1.259,11.245-2.662-9.207A87.174,87.174,0,0,0,337.8,456.322Z" transform="translate(-337.805 -436.402)" fill="#ffb998"/>
              <path id="path3296" d="M338.05,456.321l.013.028c2.6.243,76.2,7.158,103.954,11.774a113.29,113.29,0,0,0-23.429-20.848l-6.957,8.623,2.866-11.154c-7.338-4.256-15.669-7.563-24.4-8.206a52.932,52.932,0,0,0-8.269.052l-4.593,14.232.087-13.682a72.62,72.62,0,0,0-20.026,6.56l-1.259,11.244-2.662-9.207a87.245,87.245,0,0,0-15.323,10.583Z" transform="translate(-338.05 -436.402)" fill="#ec9982"/>
            </g>
            <g id="g3304" transform="translate(232.543 216.725)">
              <path id="path3300" d="M145.639,306.074s4.485,9.757,3.621,26.986l-11.1,5.87,10.505.978a111.456,111.456,0,0,1-5.131,22c-1.645,4.862-3.374,9.241-5.146,13.194l-12.97,3.561,9.695,3.194a91.2,91.2,0,0,1-22.287,28.155l-.961-16.09-3.91,20.574c-5.953,4.707-15.038,7.913-15.038,7.913a147.052,147.052,0,0,1,.66-33.2l9.328-4.259-8.525-1.078a110.155,110.155,0,0,1,9.033-29.267c1.492-3.09,3.108-6.044,4.805-8.863l11.418.37-8.478-5a131.773,131.773,0,0,1,15.6-19.066l7.652,2.837-4.134-6.289a117.362,117.362,0,0,1,15.364-12.514Z" transform="translate(-92.281 -306.074)" fill="#ffb998"/>
              <path id="path3302" d="M150.848,306.074l.009.025c-1.349,2.881-39.584,84.517-52.76,116.042a146,146,0,0,1,.684-32.933l9.328-4.259-8.525-1.078a110.178,110.178,0,0,1,9.033-29.268c1.493-3.089,3.108-6.044,4.805-8.862l11.418.37-8.478-5a131.773,131.773,0,0,1,15.6-19.066l7.652,2.837-4.134-6.29a117.43,117.43,0,0,1,15.364-12.514Z" transform="translate(-97.489 -306.074)" fill="#ec9982"/>
            </g>
            <g id="g3310" transform="translate(60.691 216.725)">
              <path id="path3306" d="M336.1,306.074s-4.486,9.757-3.621,26.986l11.1,5.87-10.505.978a111.458,111.458,0,0,0,5.131,22c1.645,4.862,3.374,9.241,5.146,13.194l12.969,3.561-9.694,3.194a91.205,91.205,0,0,0,22.286,28.155l.962-16.09,3.91,20.574c5.952,4.707,15.039,7.913,15.039,7.913a147.1,147.1,0,0,0-.66-33.2l-9.327-4.259,8.524-1.078a110.149,110.149,0,0,0-9.033-29.267c-1.493-3.09-3.108-6.044-4.806-8.863l-11.418.37,8.479-5a131.825,131.825,0,0,0-15.6-19.066l-7.653,2.837,4.134-6.289A117.388,117.388,0,0,0,336.1,306.075Z" transform="translate(-332.369 -306.074)" fill="#ffb998"/>
              <path id="path3308" d="M332.367,306.074l-.01.025c1.35,2.881,39.584,84.517,52.761,116.042a146.049,146.049,0,0,0-.684-32.933l-9.328-4.259,8.525-1.078A110.149,110.149,0,0,0,374.6,354.6c-1.493-3.089-3.108-6.044-4.806-8.862l-11.418.37,8.478-5a131.773,131.773,0,0,0-15.6-19.066l-7.653,2.837,4.134-6.29a117.463,117.463,0,0,0-15.363-12.514Z" transform="translate(-328.635 -306.074)" fill="#ec9982"/>
            </g>
            <g id="g3321" transform="translate(234.138 239.325)">
              <path id="path3313" d="M111.539,344.53c13.527,9.714,14.321,27.875-.787,39.38l-10.58-9.378,5.513,12.642c-.83.452-1.689.89-2.585,1.308-10.627,4.952-22.053,9.25-32.687,13.643L63.593,393.7l2.792,10.114c-11.232,4.783-21.3,9.787-28.17,15.962C24.173,432.4,19.6,436.136,12.382,435.143s-5.491-7.24-.831-17.529a135.563,135.563,0,0,1,8.108-17.44l9.816,1.531-7.959-4.858A156.876,156.876,0,0,1,42.825,367.73a114.875,114.875,0,0,1,14.111-12.8l10.781,12.356-4.931-16.506c17.167-11.244,34.991-14.951,47.2-7.3q.8.5,1.553,1.041Z" transform="translate(-5.698 -339.46)" fill="#ffb998"/>
              <path id="path3315" d="M19.814,448.153s18.467-31.778,38.72-49.268,41.695-28.847,50.5-33.421a99.767,99.767,0,0,1,17.321-6.922S102.1,363.95,72.174,385.919s-55.3,59.664-55.3,59.664Z" transform="translate(-16.875 -345.625)" fill="#c5654a"/>
              <path id="path3317" d="M23.977,423.879a21.445,21.445,0,0,1,6.969-1.48c3.181.05,6.4,2.429,6.4,2.429a31.8,31.8,0,0,0-5.53-3.221,22.053,22.053,0,0,0-4.22-1.049l5.15-6.8a13.315,13.315,0,0,1,6.1-.191,12.757,12.757,0,0,1,6.083,3.634s-2.13-3.087-4.347-4.189a20.938,20.938,0,0,0-5.629-1.507l6.494-7.822a13.891,13.891,0,0,1,6.934,1.855,15.635,15.635,0,0,1,5.571,5.118s-2.325-3.95-4.878-5.724a21.208,21.208,0,0,0-6.567-2.6l7.245-7.02a20.912,20.912,0,0,1,7.511,2.806,22.688,22.688,0,0,1,6.856,7,24.344,24.344,0,0,0-5.176-7.416,23.1,23.1,0,0,0-7.3-4.217s8.7-7.307,12.252-9.683a55.493,55.493,0,0,0,6.133-4.768s3.49,2.211,8.917,6.342a27.085,27.085,0,0,1,7.865,10.1s-2.178-5.92-5.109-9.135-10.475-8.184-10.475-8.184,7.281-5,9.507-6.534a53.515,53.515,0,0,1,5.05-2.981,26.619,26.619,0,0,1,9.186,6.122c4.632,4.594,8.225,14.89,8.225,14.89s-2.7-9.536-6.178-14.264a34.491,34.491,0,0,0-9.067-8s6.814-4.234,9.045-5.429a40.864,40.864,0,0,1,4.726-2.092,116.662,116.662,0,0,1,9.533,8.037c4.588,4.365,7.747,12.826,7.747,12.826s-2.889-8.052-6.232-12.546-9.5-8.946-9.5-8.946a57.722,57.722,0,0,0-2.316-10.9A27.766,27.766,0,0,0,96.5,339.82s5.608,11.34,5.551,15.64-.706,4.25-.706,4.25L87.624,366.9a56.836,56.836,0,0,0-3.835-11.672c-2.753-5.989-6.34-8.182-6.34-8.182s4.918,6.693,6.468,13.059,1.311,8.183,1.311,8.183l-14.3,9.218s-.564-2.767-3.884-8.6-9.716-9.382-9.716-9.382a38.19,38.19,0,0,1,8.246,9.047c3.548,5.54,3.934,9.567,3.934,9.567l-17.691,14.6a49.271,49.271,0,0,0-6.02-8.011c-3.726-4.012-6.954-4.423-6.954-4.423a18.158,18.158,0,0,1,6.406,5.294,27.026,27.026,0,0,1,4.584,9.047l-7.2,7.431a43.546,43.546,0,0,0-6.423-7.148c-3.376-2.818-5.277-2.76-5.277-2.76s2.034.359,6.233,4.929,4.5,6.105,4.5,6.105l-7.021,7.819a16.228,16.228,0,0,0-4.42-4.7,11.15,11.15,0,0,0-6.226-2.1s2.622-.114,5.63,2.555a10.349,10.349,0,0,1,3.39,5.964l-5.779,6.9a22.817,22.817,0,0,0-3.939-4.133,7.422,7.422,0,0,0-3.793-1.783,24.545,24.545,0,0,1,4.587,4.005,8.529,8.529,0,0,1,2.048,3.865Z" transform="translate(-11.404 -339.576)" fill="#c5654a"/>
              <path id="path3319" d="M117.934,344.53a26.489,26.489,0,0,1,5.756,5.6c-12.647,5.079-38.992,16.838-59.382,33.9-17.734,14.838-36.193,36.74-47.27,50.7-5.109-1.768-3.324-7.763.908-17.108a135.563,135.563,0,0,1,8.108-17.44l9.816,1.531-7.959-4.858A156.876,156.876,0,0,1,49.22,367.73a114.874,114.874,0,0,1,14.111-12.8l10.781,12.357-4.931-16.507c17.167-11.244,34.991-14.951,47.2-7.3q.8.5,1.553,1.041Z" transform="translate(-12.093 -339.46)" fill="#d66154" opacity="0.589" style="isolation: isolate"/>
            </g>
            <g id="g3331" transform="translate(0 239.325)">
              <path id="path3323" d="M347.458,344.53c-13.527,9.714-14.321,27.875.787,39.38l10.581-9.378-5.513,12.642c.83.452,1.688.89,2.585,1.308,10.627,4.952,22.052,9.25,32.686,13.643L395.4,393.7l-2.791,10.114c11.232,4.783,21.3,9.787,28.17,15.962,14.041,12.623,18.618,16.361,25.832,15.368s5.491-7.24.83-17.529a135.562,135.562,0,0,0-8.108-17.44l-9.816,1.531,7.959-4.858a156.837,156.837,0,0,0-21.308-29.117,114.875,114.875,0,0,0-14.111-12.8l-10.781,12.356,4.93-16.506c-17.167-11.244-34.99-14.951-47.2-7.3q-.8.5-1.553,1.041Z" transform="translate(-337.114 -339.46)" fill="#ffb998"/>
              <path id="path3325" d="M441.128,448.153s-18.467-31.778-38.72-49.268-41.7-28.847-50.5-33.421a99.787,99.787,0,0,0-17.322-6.922s24.259,5.409,54.182,27.378,55.3,59.664,55.3,59.664Z" transform="translate(-327.88 -345.625)" fill="#c5654a"/>
              <path id="path3327" d="M440.933,423.879a21.438,21.438,0,0,0-6.968-1.48c-3.182.05-6.4,2.429-6.4,2.429a31.815,31.815,0,0,1,5.529-3.221,22.066,22.066,0,0,1,4.221-1.049l-5.151-6.8a13.313,13.313,0,0,0-6.095-.191,12.757,12.757,0,0,0-6.083,3.634s2.129-3.087,4.347-4.189a20.931,20.931,0,0,1,5.629-1.507l-6.494-7.822a13.89,13.89,0,0,0-6.934,1.855,15.627,15.627,0,0,0-5.571,5.118s2.325-3.95,4.877-5.724a21.217,21.217,0,0,1,6.568-2.6l-7.245-7.02a20.908,20.908,0,0,0-7.511,2.806,22.687,22.687,0,0,0-6.856,7,24.351,24.351,0,0,1,5.175-7.416,23.1,23.1,0,0,1,7.3-4.217s-8.7-7.307-12.252-9.683a55.526,55.526,0,0,1-6.133-4.768s-3.49,2.211-8.917,6.342a27.079,27.079,0,0,0-7.864,10.1s2.178-5.92,5.109-9.135,10.475-8.184,10.475-8.184-7.282-5-9.507-6.534a53.514,53.514,0,0,0-5.05-2.981,26.612,26.612,0,0,0-9.186,6.122c-4.632,4.594-8.226,14.89-8.226,14.89s2.7-9.536,6.178-14.264a34.489,34.489,0,0,1,9.068-8s-6.815-4.234-9.046-5.429a40.806,40.806,0,0,0-4.726-2.092,116.661,116.661,0,0,0-9.533,8.037c-4.587,4.365-7.746,12.826-7.746,12.826s2.888-8.052,6.232-12.546,9.5-8.946,9.5-8.946a57.692,57.692,0,0,1,2.316-10.9,27.766,27.766,0,0,1,4.443-8.521s-5.607,11.34-5.551,15.64.706,4.25.706,4.25l13.723,7.192a56.839,56.839,0,0,1,3.835-11.672c2.754-5.989,6.34-8.182,6.34-8.182s-4.917,6.693-6.469,13.059-1.311,8.183-1.311,8.183l14.3,9.218s.564-2.767,3.883-8.6,9.716-9.382,9.716-9.382a38.2,38.2,0,0,0-8.245,9.047c-3.548,5.54-3.934,9.567-3.934,9.567l17.691,14.6a49.29,49.29,0,0,1,6.02-8.011c3.726-4.012,6.954-4.423,6.954-4.423a18.157,18.157,0,0,0-6.406,5.294,27.037,27.037,0,0,0-4.585,9.047l7.2,7.431a43.525,43.525,0,0,1,6.423-7.148c3.377-2.818,5.277-2.76,5.277-2.76s-2.033.359-6.232,4.929-4.5,6.105-4.5,6.105l7.02,7.819a16.225,16.225,0,0,1,4.42-4.7,11.15,11.15,0,0,1,6.226-2.1s-2.622-.114-5.63,2.555a10.353,10.353,0,0,0-3.391,5.964l5.78,6.9a22.787,22.787,0,0,1,3.939-4.133,7.419,7.419,0,0,1,3.793-1.783,24.57,24.57,0,0,0-4.587,4.005,8.531,8.531,0,0,0-2.047,3.865Z" transform="translate(-337.32 -339.576)" fill="#c5654a"/>
              <path id="path3329" d="M342.89,344.53a26.485,26.485,0,0,0-5.755,5.6c12.647,5.079,38.991,16.838,59.382,33.9,17.734,14.838,36.193,36.74,47.27,50.7,5.109-1.768,3.324-7.763-.909-17.108a135.568,135.568,0,0,0-8.108-17.44l-9.816,1.531,7.959-4.858A156.833,156.833,0,0,0,411.6,367.73a114.871,114.871,0,0,0-14.111-12.8l-10.781,12.357,4.93-16.507c-17.167-11.244-34.99-14.951-47.2-7.3q-.8.5-1.553,1.041Z" transform="translate(-332.545 -339.46)" fill="#d66154" opacity="0.589" style="isolation: isolate"/>
            </g>
            <path id="path3333" d="M434.247,77.07c6.924.942,9.551,5.979,5.554,11.714C402.553,142.235,401.957,71.044,434.247,77.07Z" transform="translate(-380.12 -41.4)" fill="#ffdfe0" opacity="0.589" style="isolation: isolate"/>
            <path id="path3335" d="M119.727,39.7c7.907,2.465,26.671,8.481,22.4,20.039-7.306,19.784-34.462-9.535-41.6-13.394-6.8-3.677-23.337-4.713-25.8-13.237C69.265,14.147,114.01,31.428,119.727,39.7Z" transform="translate(159.776 -24.551)" fill="#ffdfe0" opacity="0.589" style="isolation: isolate"/>
            <path id="path3337" d="M21.815,225.132a143.169,143.169,0,0,1-.044,28.032,130.849,130.849,0,0,1-2.967,15.98c-1.324,5.5-9.494,19.722-4.211,24.811.848.816,2.808.374,3.84.223,10.038-1.473,11.746-17.236,13.2-24.5,2.946-14.712,4.5-31.609,1.419-46.4-.737-3.537-7.791-16.666-12.22-8.376-1.772,3.318,2.178,6.869.982,10.233Z" transform="translate(311.778 -59.022)" fill="#ffdfe0" opacity="0.589" style="isolation: isolate"/>
            <path id="path3339" d="M481.369,261.632c-1.333,5.4-.477,10.948.48,16.342,1.168,6.587,5.735,13.423,4.887,20.28-.228,1.841-2.587,2.981-4.058,3.676-9.487,4.486-10.38-12.152-11-17.214C469.237,264.666,481.369,239.9,481.369,261.632Z" transform="translate(-468.562 -72.263)" fill="#ffdfe0" opacity="0.589" style="isolation: isolate"/>
          </g>
          <g id="Grupo_87697" data-name="Grupo 87697" transform="translate(31.255 3.377)">
            <g id="Grupo_87708" data-name="Grupo 87708" transform="translate(160.054 0)">
              <path id="Trazado_123216" data-name="Trazado 123216" d="M102.807,141.393s4.006,24.909,12.979,38.9a5.8,5.8,0,0,1-1.811,7.883c-10.132,6.548-38.64,18.964-75.05,4.747a5.812,5.812,0,0,1-3.59-6.085c.745-6.734,6.59-19.955,15.18-31.814Z" transform="translate(-14.779 -29.103)" fill="#f76b2c"/>
              <path id="Trazado_123217" data-name="Trazado 123217" d="M119.173,165.156a8.417,8.417,0,1,1-5.614-10.5,8.417,8.417,0,0,1,5.614,10.5" transform="translate(-81.633 -29.761)" fill="#f4ab7a"/>
              <path id="Trazado_123218" data-name="Trazado 123218" d="M63.9,182.735l.811,34.079,26.551-3.1-5.033-50.1Z" transform="translate(-16.533 -30.237)" fill="#ffb98a"/>
              <path id="Trazado_123219" data-name="Trazado 123219" d="M79.332,196.318s12.075-.609,12.595-14.338l-12.8,6.771Z" transform="translate(-31.659 -31.175)" fill="#2f1a2a"/>
              <path id="Trazado_123220" data-name="Trazado 123220" d="M70.911,131.143a12.3,12.3,0,0,0-4.019,7.03c-1.61,8.053-4.772,24.8-1.922,33.348,3.706,11.116,12.733,18.145,27.32,15.371,0,0,16.906-.77,21.076-25.612,5.917-35.245-24.274-45.5-42.455-30.137" transform="translate(-39.328 -28.226)" fill="#ffb98a"/>
              <path id="Trazado_123221" data-name="Trazado 123221" d="M114.073,158.559a1.926,1.926,0,1,1-1.373-2.352,1.926,1.926,0,0,1,1.373,2.352" transform="translate(-83.432 -29.856)" fill="#2f1a2a"/>
              <path id="Trazado_123222" data-name="Trazado 123222" d="M96.921,158.9a1.926,1.926,0,1,1-1.373-2.352,1.926,1.926,0,0,1,1.373,2.352" transform="translate(-50.003 -29.873)" fill="#2f1a2a"/>
              <path id="Trazado_123223" data-name="Trazado 123223" d="M107.571,163.21l-1.9,4.585,3.086.831" transform="translate(-73.665 -30.216)" fill="none" stroke="#2f1a2a" stroke-linecap="round" stroke-linejoin="round" stroke-width="0.873"/>
              <path id="Trazado_123224" data-name="Trazado 123224" d="M92.29,146.676s-5.972-1.057-6.29,1.688c0,0-.169,1.863,5.052,2.671S98.361,151.71,99,150s-3.891-3.072-6.714-3.324" transform="translate(-45.316 -29.362)" fill="#f76b2c"/>
              <path id="Trazado_123225" data-name="Trazado 123225" d="M111.46,146.775s5.2-1.134,5.948,1.494c0,0,.47,1.8-4.1,2.664-3.329.631-4.57.058-4.909-1.147-.4-1.427,1.1-2.745,3.063-3.01" transform="translate(-84.864 -29.365)" fill="#f76b2c"/>
              <path id="Trazado_123226" data-name="Trazado 123226" d="M95.834,172.639l10.724.177s.024,4.32-5.441,4.264-5.283-4.441-5.283-4.441" transform="translate(-62.139 -30.697)" fill="#fff"/>
              <path id="Trazado_123227" data-name="Trazado 123227" d="M89.475,158.341s-8.828-7.81-7.071-23.006a147.166,147.166,0,0,1-32.789,1.338s3.97-23.491,37.813-17.857c35.166,5.853,22.194,46.521,9.127,58.43Z" transform="translate(-21.832 -27.906)" fill="#f76b2c"/>
              <path id="Trazado_123228" data-name="Trazado 123228" d="M72.962,167.01a10.214,10.214,0,1,1-6.813-12.738,10.215,10.215,0,0,1,6.813,12.738" transform="translate(11.691 -29.738)" fill="#ffb98a"/>
              <path id="Trazado_123229" data-name="Trazado 123229" d="M68.361,161.439s-7.488-2.151-9.48,6.09" transform="translate(11.123 -30.113)" fill="none" stroke="#2f1a2a" stroke-linecap="round" stroke-linejoin="round" stroke-width="0.873"/>
              <path id="Trazado_123230" data-name="Trazado 123230" d="M102.932,118.042c.047-.044-29.413.5-33.1,23.907l46.616,1.045,2.792-15.582Z" transform="translate(-50.151 -27.911)" fill="#f76b2c"/>
              <path id="Trazado_123231" data-name="Trazado 123231" d="M103.138,280.027l3.244,44.1-18.2,55.485h20.192L139.861,349.2l-3.382-66.338Z" transform="translate(-88.183 -36.179)" fill="#ffb98a"/>
              <path id="Trazado_123232" data-name="Trazado 123232" d="M113.353,224.182s-23.015,16.626-16.239,69.961h37.662Z" transform="translate(-90.39 -33.328)" fill="#fff"/>
              <path id="Trazado_123234" data-name="Trazado 123234" d="M96.842,213.584l-46.259.773s-10.133,3.4-17.283,9.283l1.45,39.009,7.938,57.513,59.675-.381L114.1,230.413Z" transform="translate(-10.335 -32.787)" fill="#fff"/>
              <path id="Trazado_123235" data-name="Trazado 123235" d="M72.575,206.49A96.507,96.507,0,0,1,97.8,213.222s-3.86,15.011-26.055,15.078a28.734,28.734,0,0,1-10.879-1.944C56.254,224.49,50.86,220.827,51.54,214Z" transform="translate(-11.294 -32.425)" fill="#ffb98a"/>
              <line id="Línea_188" data-name="Línea 188" x1="4.303" y1="31.479" transform="translate(23.482 228.387)" fill="none" stroke="#dbdbdb" stroke-linecap="round" stroke-linejoin="round" stroke-width="1.748"/>
              <path id="Trazado_123236" data-name="Trazado 123236" d="M45.313,325.108c.1-1.18-2.11-55.369-2.11-55.369H17.61l-.4,40.38Z" transform="translate(73.712 -35.653)" fill="#ffb98a"/>
              <path id="Trazado_123237" data-name="Trazado 123237" d="M0,213.584s31.768,8.815,35.637,28.551,13.217,52.673,13.217,52.673L0,294.95l3.673-66.288Z" transform="translate(86.506 -32.787)" fill="#fff"/>
              <line id="Línea_189" data-name="Línea 189" x1="4.132" y1="29.313" transform="translate(84.145 236.286)" fill="none" stroke="#dbdbdb" stroke-linecap="round" stroke-linejoin="round" stroke-width="1.748"/>
              <path id="Trazado_123238" data-name="Trazado 123238" d="M23.176,269.782,17.087,281.6l51.9,52.109a13.514,13.514,0,1,0,15.264-22.17l-7.279-4.976-12.784-8.739Z" transform="translate(28.001 -35.655)" fill="#ffb98a"/>
              <path id="Trazado_123239" data-name="Trazado 123239" d="M126.371,270.9l-.027-7.837A26.1,26.1,0,0,0,123.5,251.3l-3.27-6.416a2.766,2.766,0,0,0-4.113-.965,3.541,3.541,0,0,0-1.316,3.739l1.933,7.4-18.708-20.3a2.833,2.833,0,0,0-3.783.215,2.574,2.574,0,0,0-.249,2.992l10.037,12.209L90.3,238.067a2.563,2.563,0,0,0-3.544.4,2.756,2.756,0,0,0,.264,3.26L102.89,255.7l-14.92-8.934a2.142,2.142,0,0,0-3.158,1.084l-.093.26a2.14,2.14,0,0,0,.722,2.435l14.551,11.013-9.647-5.512a2.142,2.142,0,0,0-2.293,3.614l31.338,22.46Z" transform="translate(-71.285 -33.836)" fill="#ffb98a"/>
              <line id="Línea_190" data-name="Línea 190" x2="14.787" y2="10.108" transform="translate(93.152 262.82)" fill="none" stroke="#f2a36d" stroke-linecap="round" stroke-linejoin="round" stroke-width="1.6"/>
              <path id="Trazado_123240" data-name="Trazado 123240" d="M38.938,86.666H91.282A24.47,24.47,0,0,0,115.752,62.2V47.943a24.469,24.469,0,0,0-24.47-24.469H38.938A24.469,24.469,0,0,0,14.469,47.943V62.2A24.469,24.469,0,0,0,38.938,86.666" transform="translate(6.124 -23.474)" fill="#3c3fa7"/>
              <path id="Trazado_123241" data-name="Trazado 123241" d="M91.982,83.337l-12.744,16.1a2.067,2.067,0,0,1-3.618-1.813l4.472-16.837Z" transform="translate(-28.309 -26.01)" fill="#3c3fa7"/>
              <path id="Trazado_599182" data-name="Trazado 599182" d="M11.823-14.7v5.8H5.145v-5.8h-3.4V0h3.4V-6.027h6.678V0h3.4V-14.7Zm18.06,9.093A5.593,5.593,0,0,0,24-11.466a5.752,5.752,0,0,0-6.027,5.817c0,3.36,2.541,5.817,6.447,5.817a5.917,5.917,0,0,0,4.662-1.827l-1.743-1.89a3.83,3.83,0,0,1-2.835,1.092,3.013,3.013,0,0,1-3.234-2.268H29.82C29.841-5,29.883-5.355,29.883-5.607ZM24.024-8.988A2.685,2.685,0,0,1,26.8-6.636H21.231A2.675,2.675,0,0,1,24.024-8.988ZM32.4,0h3.276V-15.582H32.4ZM39.06,0h3.276V-15.582H39.06ZM51.093.168c3.591,0,6.195-2.415,6.195-5.817s-2.6-5.817-6.195-5.817-6.216,2.415-6.216,5.817S47.5.168,51.093.168Zm0-2.688a2.867,2.867,0,0,1-2.9-3.129,2.867,2.867,0,0,1,2.9-3.129A2.851,2.851,0,0,1,53.97-5.649,2.851,2.851,0,0,1,51.093-2.52ZM60.039-5.1h2.6l.651-9.6H59.388Zm1.3,5.271a1.93,1.93,0,0,0,2.016-1.911,1.885,1.885,0,0,0-2.016-1.869,1.885,1.885,0,0,0-2.016,1.869A1.93,1.93,0,0,0,61.341.168Z" transform="translate(37.904 38.791)" fill="#fafbfd"/>
            </g>
            <g id="Grupo_87709" data-name="Grupo 87709" transform="translate(0 2.272)">
              <path id="Trazado_123242" data-name="Trazado 123242" d="M266.407,59.587H219.735a23.074,23.074,0,0,1-23.074-23.073V23.074A23.073,23.073,0,0,1,219.735,0h46.672A23.072,23.072,0,0,1,289.48,23.074V36.515a23.073,23.073,0,0,1-23.073,23.073" transform="translate(-178.469 -0.001)" fill="#fc5f65"/>
              <path id="Trazado_123243" data-name="Trazado 123243" d="M219.9,59.717,231.917,74.9a1.949,1.949,0,0,0,3.412-1.71l-4.217-15.877Z" transform="translate(-145.186 -6.03)" fill="#fc5f65"/>
              <path id="Trazado_599183" data-name="Trazado 599183" d="M3.045-11.466A1.93,1.93,0,0,0,1.029-9.555a1.9,1.9,0,0,0,2.016,1.89,1.9,1.9,0,0,0,2.016-1.89A1.93,1.93,0,0,0,3.045-11.466ZM4.347-6.2h-2.6L1.092,3.234H5ZM18.228-14.7v5.8H11.55v-5.8h-3.4V0h3.4V-6.027h6.678V0h3.4V-14.7ZM30.6.168c3.591,0,6.195-2.415,6.195-5.817s-2.6-5.817-6.195-5.817-6.216,2.415-6.216,5.817S27.006.168,30.6.168Zm0-2.688a2.867,2.867,0,0,1-2.9-3.129,2.867,2.867,0,0,1,2.9-3.129,2.851,2.851,0,0,1,2.877,3.129A2.851,2.851,0,0,1,30.6-2.52ZM39.312,0h3.276V-15.582H39.312ZM50.526-11.466A8.685,8.685,0,0,0,45.654-10.1L46.83-7.812a5.432,5.432,0,0,1,3.255-1.05c1.764,0,2.6.819,2.6,2.226h-2.6c-3.444,0-4.851,1.386-4.851,3.381,0,1.953,1.575,3.423,4.221,3.423A3.708,3.708,0,0,0,52.9-1.407V0h3.066V-6.447C55.965-9.87,53.97-11.466,50.526-11.466Zm-.252,9.429c-1.155,0-1.848-.546-1.848-1.365,0-.756.483-1.323,2.016-1.323h2.247V-3.57A2.414,2.414,0,0,1,50.274-2.037ZM59.493-5.1h2.6l.651-9.6H58.842ZM60.8.168a1.93,1.93,0,0,0,2.016-1.911A1.885,1.885,0,0,0,60.8-3.612a1.885,1.885,0,0,0-2.016,1.869A1.93,1.93,0,0,0,60.8.168Z" transform="translate(28.686 35.534)" fill="#fff"/>
              <path id="Trazado_123244" data-name="Trazado 123244" d="M161.192,153.746a9.115,9.115,0,1,0,6.883-10.9,9.115,9.115,0,0,0-6.883,10.9" transform="translate(-36.25 -28.425)" fill="#8c4d41"/>
              <path id="Trazado_123245" data-name="Trazado 123245" d="M224.967,174.56l-.821,35.841L191.5,208.064l6.631-58.248Z" transform="translate(-109.343 -29.182)" fill="#9b5e4e"/>
              <path id="Trazado_123246" data-name="Trazado 123246" d="M210.1,191.584s-17.743-1.473-18.6-22.69l18.933,8.692Z" transform="translate(-94.814 -31.189)" fill="#221914"/>
              <path id="Trazado_123247" data-name="Trazado 123247" d="M204.712,108.814a23.726,23.726,0,0,1,14.607,19.743c1.05,10.082,1.984,25.707-1.151,33.361-4.844,11.833-15.132,18.77-30.69,14.551,0,0-18.215-2.22-20.848-29.683-3.117-32.5,19.695-45.233,38.082-37.973" transform="translate(-82.173 -24.661)" fill="#9b5e4e"/>
              <path id="Trazado_123248" data-name="Trazado 123248" d="M168.86,146.314a2.086,2.086,0,1,0,1.667-2.433,2.086,2.086,0,0,0-1.667,2.433" transform="translate(-37.076 -28.554)" fill="#221914"/>
              <path id="Trazado_123249" data-name="Trazado 123249" d="M188.536,145.288a2.086,2.086,0,1,0,1.667-2.433,2.086,2.086,0,0,0-1.667,2.433" transform="translate(-74.358 -28.446)" fill="#221914"/>
              <path id="Trazado_123250" data-name="Trazado 123250" d="M177.706,148.164l1.478,6.01a1.156,1.156,0,0,1-.9,1.41l-2.2.426" transform="translate(-49.788 -29.008)" fill="none" stroke="#2f1a2a" stroke-linecap="round" stroke-linejoin="round" stroke-width="1.012"/>
              <path id="Trazado_123251" data-name="Trazado 123251" d="M194.951,130.418s6.529-1.355,6.876,2.164c0,0,.184,2.387-5.523,3.424s-7.989.864-8.692-1.327,4.253-3.936,7.339-4.26" transform="translate(-82.659 -27.115)" fill="#221914"/>
              <path id="Trazado_123252" data-name="Trazado 123252" d="M170.8,130.76s-5.981-1.692-6.744,1.718c0,0-.476,2.335,4.777,3.651,3.824.959,5.223.258,5.568-1.306.409-1.853-1.346-3.639-3.6-4.063" transform="translate(-34.265 -27.133)" fill="#221914"/>
              <path id="Trazado_123253" data-name="Trazado 123253" d="M189.288,161.626l-12.7.481s.279,5.5,6.52,5.5c6.2,0,6.181-5.979,6.181-5.979" transform="translate(-60.315 -30.424)" fill="#221914"/>
              <path id="Trazado_123254" data-name="Trazado 123254" d="M181.485,171.392a4.75,4.75,0,1,0,2.335-6.3,4.75,4.75,0,0,0-2.335,6.3" transform="translate(-65.576 -30.743)" fill="#e275c2"/>
              <path id="Trazado_123255" data-name="Trazado 123255" d="M183.106,167.605c-6.24,0-6.52-5.5-6.52-5.5l12.7-.481s.022,5.979-6.183,5.979" transform="translate(-60.315 -30.424)" fill="none"/>
              <path id="Trazado_123256" data-name="Trazado 123256" d="M194.076,148.842s7.818-14.722,4.984-30.734c0,0,23.871,4,37.674-.392,0,0-3.243-19.689-35.348-17.144-43.965,3.486-31.117,50.339-10.15,58.355Z" transform="translate(-104.495 -29.279)" fill="#221914"/>
              <path id="Trazado_123257" data-name="Trazado 123257" d="M215.458,155.732a11.731,11.731,0,1,0,8.859-14.027,11.731,11.731,0,0,0-8.859,14.027" transform="translate(-147.406 -31.374)" fill="#9b5e4e"/>
              <path id="Trazado_123258" data-name="Trazado 123258" d="M221.921,149.768s8.756-1.844,10.355,7.761" transform="translate(-147.457 -31.794)" fill="none" stroke="#2f1a2a" stroke-linecap="round" stroke-linejoin="round" stroke-width="1.012"/>
              <path id="Trazado_123259" data-name="Trazado 123259" d="M145.2,280.027v56.347l46.428,86.3-25.971-3.065L114.172,349.2l3.382-66.338Z" transform="translate(15.44 -38.45)" fill="#9b5e4e"/>
              <path id="Trazado_123260" data-name="Trazado 123260" d="M145.571,221.747s20.5,11.965,23.785,41.55v42.069L135.9,304.222Z" transform="translate(-2.908 -35.475)" fill="#8497d3"/>
              <path id="Trazado_123261" data-name="Trazado 123261" d="M246.208,211.63s16.79,3.2,25.222,9.6l2.493,221.093c-53.928,32.525-115.585.949-115.585.949l16.725-221.262s2.184-8.526,25.618-10.351Z" transform="translate(-128.767 -34.958)" fill="#8497d3"/>
              <path id="Trazado_123262" data-name="Trazado 123262" d="M187.449,211.558s19.341-4.27,45.526-.029c0,0,2.486,15.566-18.542,16.222-22.775.711-26.984-16.192-26.984-16.192" transform="translate(-115.534 -34.858)" fill="#9b5e4e"/>
              <line id="Línea_191" data-name="Línea 191" y1="52.997" x2="0.198" transform="translate(144.009 216.894)" fill="none" stroke="#3c3fa7" stroke-linecap="round" stroke-linejoin="round" stroke-width="1.7"/>
              <path id="Trazado_123263" data-name="Trazado 123263" d="M152.028,303.7s3.738-10.789,17.071-13.561l9.379-9.21a4.091,4.091,0,0,1,6.187,5.309l-4.619,6.415,2.533-1.091A19.44,19.44,0,0,0,192,282.939l5.919-10.969a3.887,3.887,0,0,1,7.047,3.245l-5.927,15.361A22.15,22.15,0,0,1,186,303.4l-29.956,13.326Z" transform="translate(-54.086 -37.933)" fill="#9b5e4e"/>
              <path id="Trazado_123264" data-name="Trazado 123264" d="M295.845,305.518l-83.3,31.875c-7.205,3.115-10.694,15.378-7.474,22.538a14.071,14.071,0,0,0,20.708,5.891l74.085-47.281Z" transform="translate(-197.903 -39.75)" fill="#9b5e4e"/>
              <path id="Trazado_123265" data-name="Trazado 123265" d="M253.155,350.344l8.712-67.329,40.4-2.987-14.158,59.993Z" transform="translate(-247.091 -38.45)" fill="#9b5e4e"/>
              <path id="Trazado_123266" data-name="Trazado 123266" d="M298.017,214.719s-50.491,8.319-56.449,90.289h62.091l4.084-53.043Z" transform="translate(-241.568 -35.116)" fill="#8497d3"/>
              <path id="Trazado_123267" data-name="Trazado 123267" d="M240.218,307.587h11.7l7.262-42.324" transform="translate(-191.72 -37.695)" fill="none" stroke="#3c3fa7" stroke-linecap="round" stroke-linejoin="round" stroke-width="1.7"/>
              <path id="Trazado_204307" data-name="Trazado 204307" d="M38.421,325.874,25.752,439.608c47.282,13.358,91.239,0,91.239,0s-2.463-79.4-18.9-114.114Z" transform="translate(153.986 -40.771)" fill="#2f1a2a"/>
            </g>
          </g>
        </g>
      </g>
    </g>
  </g>
</svg>
