<svg xmlns="http://www.w3.org/2000/svg" xmlns:xlink="http://www.w3.org/1999/xlink" width="1328" height="799.923" viewBox="0 0 1328 799.923">
  <defs>
    <clipPath id="clip-path">
      <rect id="Rectángulo_45896" data-name="Rectángulo 45896" width="1328" height="795.84" transform="translate(0 -419.84)" fill="#6b8dfc"/>
    </clipPath>
  </defs>
  <g id="Grupo_982692" data-name="Grupo 982692" transform="translate(-136 -4708.503)">
    <path id="Trazado_187697" data-name="Trazado 187697" d="M1328,0H0V799.541H1328Z" transform="translate(136 4708.503)" fill="#e1e8ff"/>
    <g id="Enmascarar_grupo_353" data-name="Enmascarar grupo 353" transform="translate(136 5132.426)" clip-path="url(#clip-path)">
      <g id="Grupo_180083" data-name="Grupo 180083" transform="translate(-170.903 174)">
        <g id="Grupo_180082" data-name="Grupo 180082" transform="matrix(-0.259, -0.966, 0.966, -0.259, 100.337, 501.787)">
          <g id="Grupo_982341" data-name="Grupo 982341" transform="translate(107.312 73.281)">
            <g id="Grupo_180078" data-name="Grupo 180078" transform="translate(2.374 0)" style="mix-blend-mode: overlay;isolation: isolate">
              <path id="Trazado_187705" data-name="Trazado 187705" d="M231.074,106.207c-16.945-16.046-34.431-31.528-52.238-46.751,7.92,15.946,16.421,31.652,23.963,47.755,8.548,18.255,18.571,43.1,8.774,61.844-22.326,42.717-82.326-.977-104.551-23.206-2.367-2.37-4.632-4.839-6.925-7.28,8.171,17.738,15.58,35.943,14.182,54.886C112.356,219.5,86.629,225.2,64.069,212.587,39.844,199.048,20.1,176.1,3.581,155.29c-14.033-17.675,16.754-33.543,30.675-16.118a247.927,247.927,0,0,0,24.9,26.8q-2.012-3.321-4.066-6.63c-9.053-14.587-18-29.228-25.459-44.538C15.357,85.494-5.7,44.887,10.693,14.739,18.954-.454,39.135-1.577,54.5,5.012c20.659,8.857,35.267,27.737,49.3,43.752,14.647,16.721,27.618,34.421,41.222,51.832,5.683,7.275,11.366,14.653,17.837,21.37.148.156.3.3.451.452l-.169-.465a319.627,319.627,0,0,0-13.271-29.724C140.958,74,129.556,54.77,125.985,35.071c-3.157-17.419,3.987-36.711,26.594-34.96,21.253,1.645,38.708,20.92,53.194,33.854,17.542,15.665,34.784,31.625,52.03,47.57C275.811,98.182,248.874,123.057,231.074,106.207Z" transform="translate(3.481 3.181)" fill="#3c384f"/>
              <path id="Trazado_187706" data-name="Trazado 187706" d="M153.964.009c-8.33-.181-15.337,2.37-20.359,7.438-6.981,7.045-9.795,18.706-7.531,31.193,2.951,16.28,10.968,31.986,18.719,47.171,1.856,3.637,3.695,7.239,5.436,10.8,1.651,3.378,3.388,6.927,5.115,10.6q-1.553-1.975-3.074-3.927l-1.007-1.291c-3.535-4.523-7.025-9.063-10.512-13.6-9.794-12.742-19.922-25.922-30.834-38.377-1.594-1.819-3.2-3.676-4.814-5.552C92.584,29.943,78.4,13.5,59.312,5.315,42.3-1.971,20.271-.513,11.087,16.387-5.418,46.745,14.111,86.7,28.373,115.865l1.618,3.317c4.195,8.617,8.87,17.041,13.817,25.433q-1.7-2.026-3.335-4.079c-8.606-10.77-23.239-10.929-32.419-4.857C.462,140.7-3.64,150.253,4.319,160.278c17.637,22.215,37.3,44.642,61.551,58.195,13.458,7.521,28.029,9.011,38.988,3.986,9.649-4.424,15.451-13.466,16.335-25.465,1.038-14.072-2.572-27.64-7.646-40.621,18.043,16.347,51.25,39.695,77.384,36.834,12.005-1.32,21.167-7.875,27.232-19.481,9.978-19.087,1.184-43.31-8.736-64.486-4.721-10.082-9.889-20.148-14.887-29.886l-1.769-3.444c14.489,12.622,27.461,24.368,39.377,35.649v0c5.891,5.582,13.26,7.745,20.728,6.1,8.2-1.806,15.1-8.122,17.162-15.722,1.893-6.971-.371-13.87-6.378-19.423L261.7,80.7c-16.328-15.1-33.212-30.71-50.114-45.8-2.083-1.861-4.224-3.851-6.432-5.9C192.018,16.809,175.674,1.629,156.191.121,155.44.06,154.7.025,153.964.009Zm12.888,128.633a3.352,3.352,0,0,0,1.656-.374,2.884,2.884,0,0,0,1.539-3.576l-.173-.468c-3.923-10.65-8.955-20.939-13.395-30.016-1.759-3.6-3.616-7.231-5.486-10.9-7.541-14.78-15.342-30.061-18.131-45.447-1.893-10.446.373-20.412,5.913-26,4.108-4.147,9.871-5.939,17.15-5.4,16.868,1.308,31.527,14.919,44.461,26.931,2.243,2.081,4.419,4.1,6.534,5.993,16.857,15.049,33.719,30.638,50.027,45.717l1.958,1.811c5.315,4.911,5.353,9.9,4.454,13.212-1.465,5.4-6.549,10.056-12.358,11.336-3.541.782-8.843.673-14.034-4.245v0c-15.394-14.572-32.526-29.9-52.378-46.868a3.68,3.68,0,0,0-4.337-.336,2.95,2.95,0,0,0-1.051,3.847c2.992,6.028,6.07,12.019,9.148,18.011,4.97,9.687,10.112,19.7,14.783,29.677,9.294,19.836,17.605,42.382,8.812,59.2-5.111,9.786-12.349,15.063-22.129,16.136-24.364,2.67-59.3-22.423-76.832-39.958-1.87-1.866-3.673-3.8-5.479-5.735l-1.365-1.464a3.7,3.7,0,0,0-4.419-.729,2.957,2.957,0,0,0-1.295,3.883c7.78,16.9,15.264,34.938,13.9,53.4-.731,9.89-5.138,16.963-12.746,20.451-8.873,4.069-20.966,2.7-32.35-3.663-23.145-12.94-42.241-34.754-59.428-56.4-5.429-6.841-2.312-12.624,2.419-15.753,6.407-4.233,16.565-4.528,22.78,3.255a252.779,252.779,0,0,0,25.254,27.179,3.681,3.681,0,0,0,4.5.4,2.964,2.964,0,0,0,.868-4.055q-2.023-3.335-4.087-6.659c-9.164-14.77-18-29.27-25.294-44.245l-1.622-3.323C20.94,85.48,2.205,47.15,17.263,19.45,24.578,5.995,42.617,5.057,56.655,11.071,74.174,18.578,87.2,33.68,99.8,48.287c1.63,1.886,3.245,3.759,4.853,5.591,10.763,12.29,20.82,25.378,30.551,38.037q5.247,6.83,10.544,13.646l1.007,1.288A256.3,256.3,0,0,0,163.819,127.2l.313.315A4.089,4.089,0,0,0,166.851,128.642Zm67.707-19.254h0Z" transform="translate(0 0)" fill="#3c384f"/>
              <path id="Trazado_187707" data-name="Trazado 187707" d="M15.4,78.727C2.169,54.894-5.633,27.121,4.91,2.042,6.466-1.667,13.162.116,11.583,3.879c-9.894,23.547-2.761,49.35,9.681,71.767C23.318,79.341,17.459,82.442,15.4,78.727Z" transform="translate(17.232 23.193)" fill="#3c384f"/>
              <path id="Trazado_187708" data-name="Trazado 187708" d="M10.242,6.22c-.058.005-.113.02-.168.028-.092.17-.174.356-.2.406l-.017.019c-.006.025,0,.006-.006.044-.41,1.413-.693,2.844-1,4.284q-1.048,5.01-2.1,10.02a3.35,3.35,0,0,1-4.18,2.129,3.394,3.394,0,0,1-2.5-3.966Q1.262,13.518,2.453,7.85C3.112,4.707,4.188.586,8.267.042c1.762-.235,3.8.512,4.284,2.316A3.048,3.048,0,0,1,10.242,6.22Z" transform="translate(31.259 28.77)" fill="#3c384f"/>
              <path id="Trazado_187709" data-name="Trazado 187709" d="M11.807,76.31c-3.86,1.843-7.467-3.724-3.6-5.57,5.339-2.549,6.86-7.941,6.948-13.269A86.353,86.353,0,0,0,13.174,39.2,119.728,119.728,0,0,0,.429,4.758c-2.05-3.7,3.805-6.8,5.867-3.081A125.471,125.471,0,0,1,20.6,42.22C22.488,53.722,24.812,70.1,11.807,76.31Z" transform="translate(184.364 97.697)" fill="#3c384f"/>
            </g>
            <g id="Grupo_180079" data-name="Grupo 180079" transform="translate(0 8.872)">
              <path id="Trazado_187710" data-name="Trazado 187710" d="M231.077,106.207c-16.946-16.046-34.431-31.528-52.241-46.747,7.919,15.942,16.425,31.652,23.966,47.752,8.548,18.255,18.568,43.1,8.774,61.844-3.661,7.006-8.336,11.687-13.815,14.586-27.175,14.378-72.156-19.206-90.736-37.791-2.37-2.367-4.632-4.836-6.925-7.28,8.168,17.738,15.577,35.943,14.182,54.886C112.359,219.5,86.632,225.2,64.073,212.59c-24.229-13.543-43.967-36.49-60.492-57.3-14.033-17.675,16.757-33.543,30.678-16.118a248.237,248.237,0,0,0,24.9,26.8q-2.012-3.321-4.062-6.633c-9.053-14.587-18-29.229-25.459-44.534C15.357,85.493-5.694,44.89,10.7,14.739,18.957-.454,39.134-1.577,54.506,5.012c20.659,8.857,35.267,27.737,49.3,43.751,14.647,16.721,27.615,34.421,41.219,51.832,5.687,7.276,11.369,14.653,17.838,21.373.148.153.306.3.454.452l-.169-.468c-3.743-10.156-8.481-19.926-13.271-29.724C140.957,74,129.56,54.774,125.988,35.071c-3.16-17.42,3.986-36.711,26.594-34.96,21.25,1.645,38.7,20.92,53.19,33.854,17.545,15.665,34.788,31.628,52.034,47.573C275.811,98.182,248.874,123.057,231.077,106.207Z" transform="translate(3.478 3.178)" fill="#a6bbff"/>
              <path id="Trazado_187711" data-name="Trazado 187711" d="M153.96.009c-8.33-.181-15.334,2.367-20.356,7.435-6.981,7.045-9.795,18.706-7.531,31.2,2.948,16.276,10.965,31.982,18.719,47.171,1.853,3.637,3.691,7.235,5.436,10.8,1.651,3.378,3.388,6.927,5.115,10.6-1.035-1.314-2.06-2.627-3.074-3.927l-1.007-1.288c-3.535-4.523-7.025-9.067-10.516-13.6-9.791-12.746-19.918-25.925-30.83-38.377q-2.391-2.733-4.814-5.555C92.585,29.943,78.4,13.5,59.312,5.312,42.294-1.975,20.271-.513,11.087,16.387-5.418,46.742,14.111,86.692,28.37,115.865l1.622,3.314c4.2,8.617,8.87,17.041,13.813,25.433q-1.693-2.026-3.335-4.076c-8.6-10.773-23.235-10.932-32.416-4.86C.462,140.7-3.64,150.25,4.319,160.275c17.637,22.215,37.3,44.642,61.548,58.2,13.461,7.518,28.029,9.008,38.991,3.983,9.649-4.424,15.448-13.463,16.335-25.462,1.038-14.072-2.572-27.644-7.65-40.621,18.046,16.344,51.25,39.692,77.384,36.831,12.005-1.32,21.171-7.875,27.236-19.481,9.975-19.087,1.18-43.307-8.736-64.486-4.721-10.079-9.889-20.148-14.887-29.883L192.77,75.91c14.489,12.619,27.461,24.365,39.377,35.646h0c5.891,5.582,13.26,7.742,20.729,6.1,8.2-1.806,15.1-8.122,17.159-15.722,1.9-6.971-.367-13.867-6.375-19.42L261.7,80.7c-16.328-15.1-33.212-30.707-50.114-45.8-2.083-1.861-4.224-3.851-6.435-5.9C192.018,16.806,175.674,1.625,156.191.118,155.437.06,154.7.025,153.96.009Zm12.888,128.633a3.345,3.345,0,0,0,1.656-.377,2.881,2.881,0,0,0,1.543-3.576l-.173-.468c-3.923-10.646-8.955-20.938-13.395-30.016-1.759-3.594-3.616-7.227-5.486-10.9-7.545-14.78-15.346-30.061-18.135-45.444-1.893-10.447.373-20.412,5.916-26.006,4.105-4.144,9.871-5.939,17.15-5.4,16.868,1.308,31.528,14.919,44.458,26.931,2.243,2.084,4.423,4.106,6.537,5.993,16.857,15.049,33.719,30.638,50.026,45.717l1.958,1.814c5.311,4.908,5.353,9.892,4.451,13.212-1.465,5.394-6.545,10.057-12.358,11.333-3.537.782-8.839.673-14.031-4.245h0c-15.394-14.572-32.526-29.9-52.378-46.871a3.681,3.681,0,0,0-4.337-.336,2.947,2.947,0,0,0-1.051,3.847c2.992,6.028,6.07,12.019,9.144,18.014,4.973,9.683,10.112,19.7,14.786,29.674,9.29,19.836,17.605,42.382,8.812,59.205-5.114,9.782-12.353,15.06-22.129,16.136-24.364,2.667-59.308-22.427-76.835-39.958-1.867-1.869-3.669-3.8-5.475-5.735l-1.369-1.467a3.69,3.69,0,0,0-4.415-.729,2.96,2.96,0,0,0-1.3,3.887c7.784,16.893,15.267,34.938,13.906,53.394-.73,9.893-5.138,16.966-12.746,20.454-8.877,4.065-20.966,2.693-32.35-3.667C46.082,200.126,26.989,178.309,9.8,156.66c-5.432-6.841-2.312-12.621,2.419-15.75,6.407-4.237,16.565-4.531,22.78,3.252a252.151,252.151,0,0,0,25.254,27.179,3.677,3.677,0,0,0,4.5.4,2.958,2.958,0,0,0,.868-4.052q-2.023-3.34-4.084-6.662c-9.168-14.77-18-29.27-25.3-44.245l-1.622-3.323C20.94,85.476,2.205,47.146,17.263,19.45c7.315-13.459,25.354-14.4,39.392-8.383C74.174,18.575,87.2,33.68,99.8,48.284q2.445,2.834,4.85,5.594C115.413,66.165,125.47,79.253,135.2,91.911c3.5,4.554,7,9.11,10.544,13.649l1.007,1.284A256.427,256.427,0,0,0,163.815,127.2l.317.315A4.084,4.084,0,0,0,166.848,128.642Zm67.707-19.258h0Z" transform="translate(0 0)" fill="#3c3fa7"/>
            </g>
            <path id="Trazado_187712" data-name="Trazado 187712" d="M15.4,78.726C2.167,54.892-5.631,27.123,4.908,2.041c1.56-3.706,8.256-1.926,6.677,1.837-9.9,23.55-2.765,49.35,9.681,71.767C23.316,79.343,17.46,82.44,15.4,78.726Z" transform="translate(17.23 32.064)"/>
            <path id="Trazado_187713" data-name="Trazado 187713" d="M10.242,6.219c-.058.005-.113.02-.168.028-.092.173-.177.356-.207.406l-.013.019c-.006.025,0,.01-.006.048-.41,1.409-.7,2.844-1,4.281q-1.053,5.01-2.1,10.02a3.352,3.352,0,0,1-4.183,2.129A3.393,3.393,0,0,1,.075,19.183L2.45,7.852C3.112,4.706,4.188.585,8.267.041c1.762-.232,3.8.512,4.284,2.316A3.05,3.05,0,0,1,10.242,6.219Z" transform="translate(31.259 37.641)"/>
            <path id="Trazado_187714" data-name="Trazado 187714" d="M11.808,76.31c-3.86,1.843-7.471-3.724-3.6-5.57,5.339-2.549,6.856-7.941,6.948-13.266A86.378,86.378,0,0,0,13.175,39.2,119.726,119.726,0,0,0,.43,4.758c-2.054-3.7,3.805-6.8,5.867-3.081A125.6,125.6,0,0,1,20.6,42.219C22.489,53.725,24.813,70.105,11.808,76.31Z" transform="translate(184.362 106.567)" fill="#323489"/>
          </g>
        </g>
      </g>
      <g id="Grupo_180088" data-name="Grupo 180088" transform="matrix(-0.259, -0.966, 0.966, -0.259, -68.506, 1206.64)">
        <g id="Grupo_180084" data-name="Grupo 180084" transform="translate(11.33 0)" style="mix-blend-mode: overlay;isolation: isolate">
          <path id="Trazado_187715" data-name="Trazado 187715" d="M328.06,150.784C304,128,279.177,106.023,253.9,84.412c11.244,22.638,23.314,44.938,34.021,67.8,12.136,25.917,26.366,61.194,12.457,87.8-31.7,60.647-116.88-1.387-148.433-32.946-3.36-3.364-6.577-6.87-9.832-10.336,11.6,25.183,22.119,51.029,20.134,77.922-2.73,36.977-39.254,45.068-71.283,27.162-34.393-19.222-62.421-51.8-85.876-81.346-19.923-25.093,23.786-47.621,43.55-22.884a351.985,351.985,0,0,0,35.358,38.048q-2.857-4.715-5.772-9.413c-12.853-20.709-25.557-41.5-36.144-63.231C21.8,121.377-8.088,63.727,15.181,20.925,26.909-.645,55.56-2.239,77.379,7.115c29.33,12.574,50.07,39.379,69.992,62.115,20.795,23.739,39.21,48.868,58.524,73.586,8.069,10.329,16.136,20.8,25.324,30.339.21.221.43.425.64.641l-.24-.66c-5.314-14.419-12.035-28.29-18.841-42.2-12.657-25.879-28.844-53.18-33.914-81.147-4.482-24.731,5.66-52.119,37.756-49.634,30.174,2.335,54.954,29.7,75.52,48.063,24.9,22.239,49.384,44.9,73.868,67.536C391.575,139.391,353.331,174.707,328.06,150.784Z" transform="translate(4.942 4.516)" fill="#3c384f"/>
          <path id="Trazado_187716" data-name="Trazado 187716" d="M218.586.013c-11.826-.257-21.774,3.365-28.9,10.56-9.91,10-13.906,26.557-10.692,44.285,4.19,23.113,15.572,45.411,26.575,66.969,2.636,5.164,5.246,10.277,7.718,15.333,2.344,4.8,4.811,9.834,7.262,15.043q-2.2-2.8-4.364-5.576l-1.43-1.833c-5.018-6.421-9.974-12.867-14.925-19.314-13.9-18.091-28.283-36.8-43.775-54.484-2.263-2.582-4.536-5.218-6.835-7.882C131.444,42.51,111.3,19.16,84.207,7.546,60.051-2.8,28.779-.728,15.741,23.265c-23.433,43.1,4.293,99.818,24.541,141.231l2.3,4.709C48.535,181.439,55.173,193.4,62.2,205.313q-2.411-2.876-4.735-5.792C45.242,184.23,24.467,184,11.434,192.625c-10.779,7.13-16.6,20.692-5.3,34.925,25.04,31.539,52.958,63.379,87.385,82.62,19.106,10.677,39.793,12.793,55.351,5.658,13.7-6.281,21.936-19.118,23.191-36.153,1.474-19.978-3.651-39.242-10.856-57.67,25.616,23.208,72.761,56.355,109.864,52.294,17.044-1.874,30.051-11.181,38.662-27.658,14.167-27.1,1.68-61.488-12.4-91.552-6.7-14.313-14.04-28.6-21.136-42.43l-2.512-4.89c20.57,17.92,38.987,34.6,55.9,50.612v0c8.364,7.925,18.826,11,29.429,8.667,11.643-2.564,21.436-11.53,24.366-22.321,2.687-9.9-.526-19.692-9.055-27.575l-2.785-2.571c-23.182-21.435-47.152-43.6-71.148-65.021-2.957-2.642-6-5.467-9.131-8.379C272.612,23.865,249.408,2.312,221.748.172,220.682.085,219.626.035,218.586.013Zm18.3,182.624a4.759,4.759,0,0,0,2.35-.531,4.1,4.1,0,0,0,2.185-5.077l-.245-.665c-5.569-15.119-12.714-29.727-19.017-42.614-2.5-5.106-5.133-10.265-7.789-15.47C203.661,97.3,192.586,75.6,188.626,53.758c-2.687-14.831.53-28.979,8.395-36.917,5.833-5.887,14.014-8.432,24.348-7.666,23.947,1.857,44.76,21.181,63.123,38.235,3.184,2.954,6.274,5.825,9.276,8.509,23.932,21.365,47.872,43.5,71.024,64.9l2.78,2.571c7.546,6.972,7.6,14.048,6.324,18.757-2.08,7.662-9.3,14.277-17.545,16.094-5.027,1.11-12.554.955-19.924-6.027v0c-21.855-20.688-46.178-42.454-74.363-66.539A5.225,5.225,0,0,0,255.9,85.2a4.189,4.189,0,0,0-1.493,5.462c4.248,8.558,8.618,17.064,12.987,25.57,7.056,13.752,14.356,27.97,20.987,42.133,13.194,28.162,24.995,60.171,12.51,84.05-7.256,13.893-17.533,21.386-31.416,22.908-34.59,3.791-84.2-31.835-109.079-56.729-2.655-2.649-5.214-5.4-7.778-8.142l-1.938-2.078a5.247,5.247,0,0,0-6.274-1.035,4.2,4.2,0,0,0-1.838,5.513c11.046,23.988,21.671,49.6,19.738,75.81-1.037,14.041-7.295,24.082-18.1,29.035-12.6,5.776-29.765,3.828-45.928-5.2-32.86-18.371-59.971-49.341-84.372-80.076-7.708-9.712-3.282-17.923,3.434-22.364,9.1-6.01,23.518-6.429,32.341,4.621a358.872,358.872,0,0,0,35.854,38.587,5.226,5.226,0,0,0,6.395.572,4.208,4.208,0,0,0,1.232-5.757q-2.872-4.735-5.8-9.454c-13.011-20.97-25.553-41.555-35.91-62.815l-2.3-4.718C29.728,121.357,3.131,66.939,24.509,27.614c10.385-19.1,36-20.434,55.925-11.9,24.872,10.658,43.366,32.1,61.249,52.836,2.314,2.678,4.607,5.337,6.89,7.938,15.281,17.448,29.559,36.03,43.373,54q7.449,9.7,14.97,19.373l1.43,1.828c7.576,9.7,15.408,19.735,24.231,28.9l.445.448A5.805,5.805,0,0,0,236.882,182.636ZM333.007,155.3h0Z" transform="translate(0)" fill="#3c384f"/>
          <path id="Trazado_187717" data-name="Trazado 187717" d="M21.86,111.77C3.079,77.934-8,38.5,6.97,2.9,9.18-2.367,18.687.165,16.445,5.507,2.4,38.937,12.524,75.57,30.189,107.4,33.1,112.642,24.786,117.044,21.86,111.77Z" transform="translate(24.465 32.928)" fill="#3c384f"/>
          <path id="Trazado_187718" data-name="Trazado 187718" d="M14.541,8.83c-.083.007-.16.028-.238.04-.131.241-.247.5-.289.576l-.024.027c-.009.036.005.009-.008.063-.583,2.006-.984,4.037-1.415,6.082Q11.078,22.73,9.585,29.843c-.483,2.3-3.509,3.8-5.934,3.022a4.819,4.819,0,0,1-3.545-5.63q1.686-8.043,3.377-16.09C4.418,6.682,5.945.833,11.737.06c2.5-.334,5.4.727,6.082,3.288C18.408,5.541,17.227,8.473,14.541,8.83Z" transform="translate(44.38 40.846)" fill="#3c384f"/>
          <path id="Trazado_187719" data-name="Trazado 187719" d="M16.763,108.339c-5.48,2.617-10.6-5.287-5.112-7.908,7.58-3.619,9.739-11.274,9.864-18.839A122.6,122.6,0,0,0,18.7,55.648,169.981,169.981,0,0,0,.609,6.755C-2.3,1.5,6.012-2.893,8.938,2.381a178.134,178.134,0,0,1,20.3,57.559C31.926,76.27,35.226,99.526,16.763,108.339Z" transform="translate(261.745 138.703)" fill="#3c384f"/>
        </g>
        <g id="Grupo_180087" data-name="Grupo 180087" transform="translate(0 10.463)">
          <g id="Grupo_180086" data-name="Grupo 180086">
            <g id="Grupo_180085" data-name="Grupo 180085">
              <path id="Trazado_187720" data-name="Trazado 187720" d="M328.065,150.784C304.007,128,279.182,106.023,253.9,84.416c11.243,22.634,23.319,44.938,34.025,67.794,12.136,25.917,26.361,61.194,12.457,87.8-31.7,60.646-116.88-1.383-148.433-32.946-3.365-3.36-6.577-6.866-9.832-10.336,11.6,25.183,22.114,51.029,20.134,77.922-2.73,36.977-39.254,45.068-71.283,27.166-34.4-19.227-62.421-51.805-85.881-81.35-19.923-25.093,23.791-47.621,43.554-22.884a352.429,352.429,0,0,0,35.353,38.052q-2.857-4.715-5.767-9.417c-12.853-20.709-25.557-41.5-36.144-63.226C21.8,121.377-8.084,63.732,15.186,20.926,26.914-.645,55.56-2.239,77.384,7.115c29.33,12.574,50.07,39.379,69.991,62.115,20.795,23.74,39.205,48.868,58.519,73.587,8.074,10.329,16.141,20.8,25.324,30.344.21.217.435.42.645.642l-.24-.664c-5.314-14.419-12.04-28.29-18.841-42.2-12.662-25.875-28.844-53.175-33.914-81.147-4.487-24.731,5.66-52.119,37.756-49.634,30.169,2.335,54.949,29.7,75.515,48.063,24.909,22.24,49.389,44.9,73.873,67.54C391.574,139.391,353.331,174.707,328.065,150.784Z" transform="translate(4.937 4.512)" fill="#3c3fa7"/>
              <path id="Trazado_187721" data-name="Trazado 187721" d="M218.581.013c-11.826-.257-21.769,3.36-28.9,10.556-9.91,10-13.906,26.557-10.692,44.289,4.185,23.108,15.567,45.406,26.575,66.969,2.631,5.163,5.241,10.272,7.718,15.328,2.344,4.8,4.81,9.834,7.262,15.044-1.469-1.865-2.924-3.73-4.364-5.576l-1.429-1.828c-5.018-6.421-9.974-12.872-14.93-19.314-13.9-18.1-28.279-36.806-43.77-54.484q-3.394-3.88-6.835-7.887C131.444,42.51,111.3,19.16,84.207,7.541,60.046-2.8,28.78-.728,15.741,23.265c-23.433,43.1,4.293,99.814,24.536,141.231l2.3,4.7c5.956,12.234,12.593,24.194,19.611,36.107q-2.4-2.876-4.735-5.787c-12.213-15.3-32.988-15.521-46.021-6.9-10.779,7.13-16.6,20.692-5.3,34.925,25.04,31.539,52.958,63.379,87.381,82.624,19.111,10.673,39.793,12.788,55.356,5.654,13.7-6.281,21.931-19.114,23.191-36.148,1.474-19.978-3.651-39.246-10.86-57.67,25.62,23.2,72.761,56.351,109.864,52.29,17.044-1.874,30.056-11.181,38.667-27.658,14.162-27.1,1.676-61.484-12.4-91.552-6.7-14.309-14.04-28.6-21.136-42.425l-2.512-4.89c20.57,17.915,38.987,34.591,55.9,50.607h0c8.364,7.925,18.826,10.992,29.429,8.662,11.643-2.564,21.436-11.531,24.361-22.321,2.692-9.9-.521-19.687-9.05-27.57l-2.785-2.575c-23.182-21.435-47.152-43.6-71.148-65.021-2.957-2.642-6-5.467-9.136-8.379C272.612,23.86,249.408,2.308,221.748.167,220.677.085,219.626.036,218.581.013Zm18.3,182.623a4.749,4.749,0,0,0,2.35-.536,4.091,4.091,0,0,0,2.19-5.077l-.245-.665c-5.569-15.115-12.714-29.727-19.017-42.614-2.5-5.1-5.133-10.261-7.789-15.47C203.656,97.292,192.581,75.6,188.621,53.758c-2.687-14.831.53-28.979,8.4-36.921,5.828-5.883,14.014-8.432,24.349-7.665,23.947,1.856,44.76,21.181,63.118,38.235,3.184,2.959,6.279,5.83,9.281,8.509,23.932,21.365,47.872,43.5,71.024,64.9l2.78,2.575c7.541,6.968,7.6,14.044,6.319,18.757-2.081,7.657-9.293,14.277-17.545,16.089-5.022,1.11-12.549.956-19.92-6.027h0c-21.855-20.688-46.178-42.454-74.363-66.544a5.226,5.226,0,0,0-6.158-.477,4.184,4.184,0,0,0-1.493,5.462c4.248,8.558,8.618,17.064,12.982,25.575,7.061,13.748,14.356,27.966,20.992,42.128,13.189,28.161,24.995,60.171,12.51,84.055-7.261,13.888-17.538,21.381-31.416,22.908-34.59,3.786-84.2-31.84-109.084-56.729-2.65-2.654-5.209-5.4-7.773-8.142l-1.943-2.083a5.239,5.239,0,0,0-6.269-1.035,4.2,4.2,0,0,0-1.843,5.518c11.05,23.984,21.675,49.6,19.742,75.805-1.037,14.046-7.295,24.087-18.1,29.04-12.6,5.772-29.765,3.823-45.928-5.206-32.864-18.367-59.971-49.341-84.372-80.076C6.2,212.7,10.634,204.5,17.35,200.054c9.1-6.015,23.518-6.433,32.341,4.617a357.983,357.983,0,0,0,35.854,38.587,5.22,5.22,0,0,0,6.39.572,4.2,4.2,0,0,0,1.232-5.752q-2.872-4.742-5.8-9.458c-13.016-20.97-25.553-41.555-35.915-62.815l-2.3-4.718C29.728,121.353,3.131,66.935,24.509,27.614c10.385-19.107,36-20.438,55.925-11.9,24.872,10.658,43.367,32.1,61.249,52.836q3.471,4.024,6.885,7.942c15.286,17.444,29.564,36.026,43.378,54,4.966,6.465,9.937,12.934,14.97,19.378l1.429,1.824c7.576,9.7,15.408,19.74,24.226,28.9l.45.448A5.8,5.8,0,0,0,236.878,182.636ZM333,155.3h0Z"/>
            </g>
            <path id="Trazado_187722" data-name="Trazado 187722" d="M21.863,111.768C3.077,77.932-7.995,38.506,6.968,2.9,9.183-2.364,18.689.163,16.447,5.505,2.4,38.94,12.522,75.568,30.192,107.394,33.1,112.644,24.789,117.042,21.863,111.768Z" transform="translate(24.462 32.926)"/>
            <path id="Trazado_187723" data-name="Trazado 187723" d="M14.541,8.829c-.083.007-.16.028-.238.04-.131.246-.252.5-.294.576l-.019.027c-.009.036.005.014-.008.067-.583,2-.989,4.038-1.415,6.078q-1.5,7.112-2.981,14.225c-.483,2.3-3.509,3.8-5.939,3.022a4.818,4.818,0,0,1-3.54-5.63L3.478,11.148C4.418,6.681,5.945.831,11.737.059c2.5-.33,5.4.727,6.082,3.288C18.408,5.54,17.222,8.472,14.541,8.829Z" transform="translate(44.38 40.843)"/>
            <path id="Trazado_187724" data-name="Trazado 187724" d="M16.765,108.339c-5.48,2.617-10.606-5.287-5.112-7.908,7.58-3.619,9.734-11.275,9.864-18.834a122.633,122.633,0,0,0-2.811-25.949A169.977,169.977,0,0,0,.61,6.755C-2.305,1.5,6.013-2.893,8.939,2.381a178.321,178.321,0,0,1,20.3,57.559C31.928,76.274,35.228,99.53,16.765,108.339Z" transform="translate(261.743 138.699)"/>
          </g>
        </g>
      </g>
      <g id="Grupo_180093" data-name="Grupo 180093" transform="matrix(-0.259, -0.966, 0.966, -0.259, -68.506, 1206.64)">
        <g id="Grupo_180089" data-name="Grupo 180089" transform="translate(11.33 0)" style="mix-blend-mode: overlay;isolation: isolate">
          <path id="Trazado_187725" data-name="Trazado 187725" d="M328.06,150.784C304,128,279.177,106.023,253.9,84.412c11.244,22.638,23.314,44.938,34.021,67.8,12.136,25.917,26.366,61.194,12.457,87.8-31.7,60.647-116.88-1.387-148.433-32.946-3.36-3.364-6.577-6.87-9.832-10.336,11.6,25.183,22.119,51.029,20.134,77.922-2.73,36.977-39.254,45.068-71.283,27.162-34.393-19.222-62.421-51.8-85.876-81.346-19.923-25.093,23.786-47.621,43.55-22.884a351.985,351.985,0,0,0,35.358,38.048q-2.857-4.715-5.772-9.413c-12.853-20.709-25.557-41.5-36.144-63.231C21.8,121.377-8.088,63.727,15.181,20.925,26.909-.645,55.56-2.239,77.379,7.115c29.33,12.574,50.07,39.379,69.992,62.115,20.795,23.739,39.21,48.868,58.524,73.586,8.069,10.329,16.136,20.8,25.324,30.339.21.221.43.425.64.641l-.24-.66c-5.314-14.419-12.035-28.29-18.841-42.2-12.657-25.879-28.844-53.18-33.914-81.147-4.482-24.731,5.66-52.119,37.756-49.634,30.174,2.335,54.954,29.7,75.52,48.063,24.9,22.239,49.384,44.9,73.868,67.536C391.575,139.391,353.331,174.707,328.06,150.784Z" transform="translate(4.942 4.516)" fill="#3c384f"/>
          <path id="Trazado_187726" data-name="Trazado 187726" d="M218.586.013c-11.826-.257-21.774,3.365-28.9,10.56-9.91,10-13.906,26.557-10.692,44.285,4.19,23.113,15.572,45.411,26.575,66.969,2.636,5.164,5.246,10.277,7.718,15.333,2.344,4.8,4.811,9.834,7.262,15.043q-2.2-2.8-4.364-5.576l-1.43-1.833c-5.018-6.421-9.974-12.867-14.925-19.314-13.9-18.091-28.283-36.8-43.775-54.484-2.263-2.582-4.536-5.218-6.835-7.882C131.444,42.51,111.3,19.16,84.207,7.546,60.051-2.8,28.779-.728,15.741,23.265c-23.433,43.1,4.293,99.818,24.541,141.231l2.3,4.709C48.535,181.439,55.173,193.4,62.2,205.313q-2.411-2.876-4.735-5.792C45.242,184.23,24.467,184,11.434,192.625c-10.779,7.13-16.6,20.692-5.3,34.925,25.04,31.539,52.958,63.379,87.385,82.62,19.106,10.677,39.793,12.793,55.351,5.658,13.7-6.281,21.936-19.118,23.191-36.153,1.474-19.978-3.651-39.242-10.856-57.67,25.616,23.208,72.761,56.355,109.864,52.294,17.044-1.874,30.051-11.181,38.662-27.658,14.167-27.1,1.68-61.488-12.4-91.552-6.7-14.313-14.04-28.6-21.136-42.43l-2.512-4.89c20.57,17.92,38.987,34.6,55.9,50.612v0c8.364,7.925,18.826,11,29.429,8.667,11.643-2.564,21.436-11.53,24.366-22.321,2.687-9.9-.526-19.692-9.055-27.575l-2.785-2.571c-23.182-21.435-47.152-43.6-71.148-65.021-2.957-2.642-6-5.467-9.131-8.379C272.612,23.865,249.408,2.312,221.748.172,220.682.085,219.626.035,218.586.013Zm18.3,182.624a4.759,4.759,0,0,0,2.35-.531,4.1,4.1,0,0,0,2.185-5.077l-.245-.665c-5.569-15.119-12.714-29.727-19.017-42.614-2.5-5.106-5.133-10.265-7.789-15.47C203.661,97.3,192.586,75.6,188.626,53.758c-2.687-14.831.53-28.979,8.395-36.917,5.833-5.887,14.014-8.432,24.348-7.666,23.947,1.857,44.76,21.181,63.123,38.235,3.184,2.954,6.274,5.825,9.276,8.509,23.932,21.365,47.872,43.5,71.024,64.9l2.78,2.571c7.546,6.972,7.6,14.048,6.324,18.757-2.08,7.662-9.3,14.277-17.545,16.094-5.027,1.11-12.554.955-19.924-6.027v0c-21.855-20.688-46.178-42.454-74.363-66.539A5.225,5.225,0,0,0,255.9,85.2a4.189,4.189,0,0,0-1.493,5.462c4.248,8.558,8.618,17.064,12.987,25.57,7.056,13.752,14.356,27.97,20.987,42.133,13.194,28.162,24.995,60.171,12.51,84.05-7.256,13.893-17.533,21.386-31.416,22.908-34.59,3.791-84.2-31.835-109.079-56.729-2.655-2.649-5.214-5.4-7.778-8.142l-1.938-2.078a5.247,5.247,0,0,0-6.274-1.035,4.2,4.2,0,0,0-1.838,5.513c11.046,23.988,21.671,49.6,19.738,75.81-1.037,14.041-7.295,24.082-18.1,29.035-12.6,5.776-29.765,3.828-45.928-5.2-32.86-18.371-59.971-49.341-84.372-80.076-7.708-9.712-3.282-17.923,3.434-22.364,9.1-6.01,23.518-6.429,32.341,4.621a358.872,358.872,0,0,0,35.854,38.587,5.226,5.226,0,0,0,6.395.572,4.208,4.208,0,0,0,1.232-5.757q-2.872-4.735-5.8-9.454c-13.011-20.97-25.553-41.555-35.91-62.815l-2.3-4.718C29.728,121.357,3.131,66.939,24.509,27.614c10.385-19.1,36-20.434,55.925-11.9,24.872,10.658,43.366,32.1,61.249,52.836,2.314,2.678,4.607,5.337,6.89,7.938,15.281,17.448,29.559,36.03,43.373,54q7.449,9.7,14.97,19.373l1.43,1.828c7.576,9.7,15.408,19.735,24.231,28.9l.445.448A5.805,5.805,0,0,0,236.882,182.636ZM333.007,155.3h0Z" transform="translate(0)" fill="#3c384f"/>
          <path id="Trazado_187727" data-name="Trazado 187727" d="M21.86,111.77C3.079,77.934-8,38.5,6.97,2.9,9.18-2.367,18.687.165,16.445,5.507,2.4,38.937,12.524,75.57,30.189,107.4,33.1,112.642,24.786,117.044,21.86,111.77Z" transform="translate(24.465 32.928)" fill="#3c384f"/>
          <path id="Trazado_187728" data-name="Trazado 187728" d="M14.541,8.83c-.083.007-.16.028-.238.04-.131.241-.247.5-.289.576l-.024.027c-.009.036.005.009-.008.063-.583,2.006-.984,4.037-1.415,6.082Q11.078,22.73,9.585,29.843c-.483,2.3-3.509,3.8-5.934,3.022a4.819,4.819,0,0,1-3.545-5.63q1.686-8.043,3.377-16.09C4.418,6.682,5.945.833,11.737.06c2.5-.334,5.4.727,6.082,3.288C18.408,5.541,17.227,8.473,14.541,8.83Z" transform="translate(44.38 40.846)" fill="#3c384f"/>
          <path id="Trazado_187729" data-name="Trazado 187729" d="M16.763,108.339c-5.48,2.617-10.6-5.287-5.112-7.908,7.58-3.619,9.739-11.274,9.864-18.839A122.6,122.6,0,0,0,18.7,55.648,169.981,169.981,0,0,0,.609,6.755C-2.3,1.5,6.012-2.893,8.938,2.381a178.134,178.134,0,0,1,20.3,57.559C31.926,76.27,35.226,99.526,16.763,108.339Z" transform="translate(261.745 138.703)" fill="#3c384f"/>
        </g>
        <g id="Grupo_180092" data-name="Grupo 180092" transform="translate(0 10.463)">
          <g id="Grupo_180091" data-name="Grupo 180091">
            <g id="Grupo_180090" data-name="Grupo 180090">
              <path id="Trazado_187730" data-name="Trazado 187730" d="M328.065,150.784C304.007,128,279.182,106.023,253.9,84.416c11.243,22.634,23.319,44.938,34.025,67.794,12.136,25.917,26.361,61.194,12.457,87.8-31.7,60.646-116.88-1.383-148.433-32.946-3.365-3.36-6.577-6.866-9.832-10.336,11.6,25.183,22.114,51.029,20.134,77.922-2.73,36.977-39.254,45.068-71.283,27.166-34.4-19.227-62.421-51.805-85.881-81.35-19.923-25.093,23.791-47.621,43.554-22.884a352.429,352.429,0,0,0,35.353,38.052q-2.857-4.715-5.767-9.417c-12.853-20.709-25.557-41.5-36.144-63.226C21.8,121.377-8.084,63.732,15.186,20.926,26.914-.645,55.56-2.239,77.384,7.115c29.33,12.574,50.07,39.379,69.991,62.115,20.795,23.74,39.205,48.868,58.519,73.587,8.074,10.329,16.141,20.8,25.324,30.344.21.217.435.42.645.642l-.24-.664c-5.314-14.419-12.04-28.29-18.841-42.2-12.662-25.875-28.844-53.175-33.914-81.147-4.487-24.731,5.66-52.119,37.756-49.634,30.169,2.335,54.949,29.7,75.515,48.063,24.909,22.24,49.389,44.9,73.873,67.54C391.574,139.391,353.331,174.707,328.065,150.784Z" transform="translate(4.937 4.512)" fill="#3c3fa7"/>
              <path id="Trazado_187731" data-name="Trazado 187731" d="M218.581.013c-11.826-.257-21.769,3.36-28.9,10.556-9.91,10-13.906,26.557-10.692,44.289,4.185,23.108,15.567,45.406,26.575,66.969,2.631,5.163,5.241,10.272,7.718,15.328,2.344,4.8,4.81,9.834,7.262,15.044-1.469-1.865-2.924-3.73-4.364-5.576l-1.429-1.828c-5.018-6.421-9.974-12.872-14.93-19.314-13.9-18.1-28.279-36.806-43.77-54.484q-3.394-3.88-6.835-7.887C131.444,42.51,111.3,19.16,84.207,7.541,60.046-2.8,28.78-.728,15.741,23.265c-23.433,43.1,4.293,99.814,24.536,141.231l2.3,4.7c5.956,12.234,12.593,24.194,19.611,36.107q-2.4-2.876-4.735-5.787c-12.213-15.3-32.988-15.521-46.021-6.9-10.779,7.13-16.6,20.692-5.3,34.925,25.04,31.539,52.958,63.379,87.381,82.624,19.111,10.673,39.793,12.788,55.356,5.654,13.7-6.281,21.931-19.114,23.191-36.148,1.474-19.978-3.651-39.246-10.86-57.67,25.62,23.2,72.761,56.351,109.864,52.29,17.044-1.874,30.056-11.181,38.667-27.658,14.162-27.1,1.676-61.484-12.4-91.552-6.7-14.309-14.04-28.6-21.136-42.425l-2.512-4.89c20.57,17.915,38.987,34.591,55.9,50.607h0c8.364,7.925,18.826,10.992,29.429,8.662,11.643-2.564,21.436-11.531,24.361-22.321,2.692-9.9-.521-19.687-9.05-27.57l-2.785-2.575c-23.182-21.435-47.152-43.6-71.148-65.021-2.957-2.642-6-5.467-9.136-8.379C272.612,23.86,249.408,2.308,221.748.167,220.677.085,219.626.036,218.581.013Zm18.3,182.623a4.749,4.749,0,0,0,2.35-.536,4.091,4.091,0,0,0,2.19-5.077l-.245-.665c-5.569-15.115-12.714-29.727-19.017-42.614-2.5-5.1-5.133-10.261-7.789-15.47C203.656,97.292,192.581,75.6,188.621,53.758c-2.687-14.831.53-28.979,8.4-36.921,5.828-5.883,14.014-8.432,24.349-7.665,23.947,1.856,44.76,21.181,63.118,38.235,3.184,2.959,6.279,5.83,9.281,8.509,23.932,21.365,47.872,43.5,71.024,64.9l2.78,2.575c7.541,6.968,7.6,14.044,6.319,18.757-2.081,7.657-9.293,14.277-17.545,16.089-5.022,1.11-12.549.956-19.92-6.027h0c-21.855-20.688-46.178-42.454-74.363-66.544a5.226,5.226,0,0,0-6.158-.477,4.184,4.184,0,0,0-1.493,5.462c4.248,8.558,8.618,17.064,12.982,25.575,7.061,13.748,14.356,27.966,20.992,42.128,13.189,28.161,24.995,60.171,12.51,84.055-7.261,13.888-17.538,21.381-31.416,22.908-34.59,3.786-84.2-31.84-109.084-56.729-2.65-2.654-5.209-5.4-7.773-8.142l-1.943-2.083a5.239,5.239,0,0,0-6.269-1.035,4.2,4.2,0,0,0-1.843,5.518c11.05,23.984,21.675,49.6,19.742,75.805-1.037,14.046-7.295,24.087-18.1,29.04-12.6,5.772-29.765,3.823-45.928-5.206-32.864-18.367-59.971-49.341-84.372-80.076C6.2,212.7,10.634,204.5,17.35,200.054c9.1-6.015,23.518-6.433,32.341,4.617a357.983,357.983,0,0,0,35.854,38.587,5.22,5.22,0,0,0,6.39.572,4.2,4.2,0,0,0,1.232-5.752q-2.872-4.742-5.8-9.458c-13.016-20.97-25.553-41.555-35.915-62.815l-2.3-4.718C29.728,121.353,3.131,66.935,24.509,27.614c10.385-19.107,36-20.438,55.925-11.9,24.872,10.658,43.367,32.1,61.249,52.836q3.471,4.024,6.885,7.942c15.286,17.444,29.564,36.026,43.378,54,4.966,6.465,9.937,12.934,14.97,19.378l1.429,1.824c7.576,9.7,15.408,19.74,24.226,28.9l.45.448A5.8,5.8,0,0,0,236.878,182.636ZM333,155.3h0Z"/>
            </g>
            <path id="Trazado_187732" data-name="Trazado 187732" d="M21.863,111.768C3.077,77.932-7.995,38.506,6.968,2.9,9.183-2.364,18.689.163,16.447,5.505,2.4,38.94,12.522,75.568,30.192,107.394,33.1,112.644,24.789,117.042,21.863,111.768Z" transform="translate(24.462 32.926)"/>
            <path id="Trazado_187733" data-name="Trazado 187733" d="M14.541,8.829c-.083.007-.16.028-.238.04-.131.246-.252.5-.294.576l-.019.027c-.009.036.005.014-.008.067-.583,2-.989,4.038-1.415,6.078q-1.5,7.112-2.981,14.225c-.483,2.3-3.509,3.8-5.939,3.022a4.818,4.818,0,0,1-3.54-5.63L3.478,11.148C4.418,6.681,5.945.831,11.737.059c2.5-.33,5.4.727,6.082,3.288C18.408,5.54,17.222,8.472,14.541,8.829Z" transform="translate(44.38 40.843)"/>
            <path id="Trazado_187734" data-name="Trazado 187734" d="M16.765,108.339c-5.48,2.617-10.606-5.287-5.112-7.908,7.58-3.619,9.734-11.275,9.864-18.834a122.633,122.633,0,0,0-2.811-25.949A169.977,169.977,0,0,0,.61,6.755C-2.305,1.5,6.013-2.893,8.939,2.381a178.321,178.321,0,0,1,20.3,57.559C31.928,76.274,35.228,99.53,16.765,108.339Z" transform="translate(261.743 138.699)"/>
          </g>
        </g>
      </g>
    </g>
  </g>
</svg>
