<svg id="Grupo_180459" data-name="Grupo 180459" xmlns="http://www.w3.org/2000/svg" xmlns:xlink="http://www.w3.org/1999/xlink" width="90" height="90" viewBox="0 0 90 90">
  <defs>
    <clipPath id="clip-path">
      <rect id="Rectángulo_45059" data-name="Rectángulo 45059" width="61.786" height="62.041" fill="none"/>
    </clipPath>
  </defs>
  <ellipse id="Elipse_4780" data-name="Elipse 4780" cx="45" cy="45" rx="45" ry="45" transform="translate(0 0)" fill="#c4d1ff"/>
  <g id="Grupo_174488" data-name="Grupo 174488" transform="translate(14 14)">
    <g id="Grupo_174488-2" data-name="Grupo 174488" clip-path="url(#clip-path)">
      <path id="Trazado_180640" data-name="Trazado 180640" d="M13.9,197.01c-.529,3.17-3.069,5.442-5.524,7.639-.826.739-1.68,1.5-2.444,2.29A21.109,21.109,0,0,0,.007,222.1c.011.412.034.826.064,1.24a1.353,1.353,0,0,1,.313.357c-.044-.536-.079-1.073-.093-1.6a20.825,20.825,0,0,1,5.846-14.96c.757-.779,1.608-1.54,2.43-2.276,2.492-2.23,5.069-4.536,5.615-7.8Z" transform="translate(0 -172.607)" fill="#211010"/>
      <path id="Trazado_180641" data-name="Trazado 180641" d="M9.826,253.544c.155.076.311.149.468.216,2.832,1.206,5.987,1.081,9.041.964.008-3.961-1.377-8.126.943-11.367,1.671-2.518,5.332-2.964,8.107-3.522,8.437-2.57,16.657-6.988,25.744-4.017,6.483,2.186,11.9,9.24,8.66,17.017a31.926,31.926,0,0,0-2.269,7.93,13.422,13.422,0,0,0,1.795-.391,7.594,7.594,0,0,0,1.854-.762c.306-.169.6-.359.884-.556.042-.029.083-.06.125-.09l.076-.059q.183-.15.359-.309a9.3,9.3,0,0,0,.71-.718q.157-.177.3-.362s.154-.213.183-.253a11.045,11.045,0,0,0,1.668-3.625,36.99,36.99,0,0,0,1-8.472c.022-.406.044-.816.069-1.227-.62-.868-1.249-1.716-1.787-2.6-2.447-4.031-3.082-11.372-3.082-11.372l-46.654-1.492s.8,2-4.612,8.012C7.4,243.16,8.882,248.667,9.394,253.093q.208.233.432.451" transform="translate(-7.758 -200.171)" fill="#211010"/>
      <path id="Trazado_180642" data-name="Trazado 180642" d="M90.618,299.68c.648-.025,1.291-.049,1.926-.06a21.982,21.982,0,0,1,5.982.512,50.48,50.48,0,0,1,5.624,2.206,13.878,13.878,0,0,0,2.829.88,8.322,8.322,0,0,0,2.734-.122,23.447,23.447,0,0,1,6.246-.676c3.562.31,6.681,1.979,10.082,2.9a14.111,14.111,0,0,0,5.259.46c.163-.017.331-.039.5-.064a31.932,31.932,0,0,1,2.269-7.93c3.238-7.778-2.177-14.832-8.66-17.017-9.087-2.97-17.307,1.447-25.744,4.017-2.774.558-6.436,1-8.107,3.522-2.321,3.241-.935,7.406-.943,11.367" transform="translate(-79.04 -245.129)" fill="#261313"/>
      <path id="Trazado_180643" data-name="Trazado 180643" d="M164.389,453.991s5.971-.645,8.76.924a9.842,9.842,0,0,1-9.4,4.353c-6.525-.632-7.785-5.664-7.785-5.664a27.42,27.42,0,0,1,8.429.387" transform="translate(-136.642 -397.283)" fill="#244eff"/>
      <path id="Trazado_180644" data-name="Trazado 180644" d="M179.691,408.7a20.524,20.524,0,0,1-2.661-.983l.086-4.561,11.616.9-.021,4.59a15.686,15.686,0,0,1-9.02.056" transform="translate(-155.102 -353.221)" fill="#c78743"/>
      <path id="Trazado_180645" data-name="Trazado 180645" d="M179.539,440.962a15.686,15.686,0,0,0,9.02-.056l-.013,2.843c-4.384,3.277-9.794,2.1-11.713-1.362l.045-2.407a20.515,20.515,0,0,0,2.661.983" transform="translate(-154.929 -385.481)" fill="#e6ac71"/>
      <path id="Trazado_180646" data-name="Trazado 180646" d="M350.5,309.5l2.21-6.975s6.513-2.16,6.66,4.463-6.812,6.76-8.869,2.512" transform="translate(-307.088 -264.758)" fill="#e6ac71"/>
      <path id="Trazado_180647" data-name="Trazado 180647" d="M106.464,109.236a49.6,49.6,0,0,0-4.526,15.737,15.8,15.8,0,0,0,13.074,17.2c8.461,1.634,17.758-.678,21.933-12.306s1.614-21.633-8.906-25.667-18.419-2.108-21.575,5.034" transform="translate(-89.213 -89.475)" fill="#e6ac71"/>
      <path id="Trazado_180648" data-name="Trazado 180648" d="M250.22,341.3c.058,1.283,2.053,2.235,4.456,2.126s4.3-1.237,4.246-2.52-2.053-2.235-4.456-2.126-4.3,1.237-4.246,2.52" transform="translate(-219.225 -296.805)" fill="#c78743"/>
      <path id="Trazado_180649" data-name="Trazado 180649" d="M104.6,308.136c-.459,1.2.989,2.869,3.235,3.729s4.44.585,4.9-.614-.989-2.869-3.235-3.73-4.44-.585-4.9.614" transform="translate(-91.565 -268.992)" fill="#c78743"/>
      <path id="Trazado_180650" data-name="Trazado 180650" d="M274.719,249.457s1.48-.962-1.058-2.829-3.555-1.7-4.112-1.038c-.508.6-.027,1.686,1.419,2.706,1.736,1.224,2.941,1.72,3.75,1.162" transform="translate(-235.99 -214.77)" fill="#211010"/>
      <path id="Trazado_180651" data-name="Trazado 180651" d="M138.776,225.4s-.788-1.484,2.432-2.024,4.021.051,4.16.868c.127.746-.873,1.491-2.684,1.76-2.174.323-3.5.237-3.908-.6" transform="translate(-121.512 -195.522)" fill="#211010"/>
      <path id="Trazado_180652" data-name="Trazado 180652" d="M263.358,301.373a1.366,1.366,0,1,0,1.57-1.414,1.509,1.509,0,0,0-1.57,1.414" transform="translate(-230.717 -262.793)" fill="#211010"/>
      <path id="Trazado_180653" data-name="Trazado 180653" d="M144.674,275.277a1.366,1.366,0,1,0,1.57-1.414,1.509,1.509,0,0,0-1.57,1.414" transform="translate(-126.734 -239.929)" fill="#211010"/>
      <path id="Trazado_180654" data-name="Trazado 180654" d="M364.879,324.76a.133.133,0,0,0,.126-.184c-.014-.032-1.337-3.252.924-4.668a2.938,2.938,0,0,1,2.3-.477A3.661,3.661,0,0,1,370.236,321a.133.133,0,0,0,.229-.133,3.865,3.865,0,0,0-2.169-1.688,3.192,3.192,0,0,0-2.508.509c-2.452,1.536-1.042,4.961-1.027,5a.132.132,0,0,0,.118.081" transform="translate(-319.214 -279.569)" fill="#52180d"/>
      <path id="Trazado_180655" data-name="Trazado 180655" d="M368.374,337.389a.132.132,0,0,0,.086-.237c-.022-.017-2.2-1.7-3.9-.1a.133.133,0,1,0,.182.193c1.532-1.449,3.53.1,3.55.114a.133.133,0,0,0,.079.028" transform="translate(-319.37 -294.697)" fill="#52180d"/>
      <path id="Trazado_180656" data-name="Trazado 180656" d="M186.024,233.5a.133.133,0,0,0,.107-.236,3.584,3.584,0,0,1-1.2-1.737,2.259,2.259,0,0,1,.729-2.246.935.935,0,0,1,1.156.176l.06.053c1.4,1.27,2.205,1.008,2.639.565.795-.814,1.88-8.353,2-9.21a.134.134,0,0,0-.113-.15.132.132,0,0,0-.15.113c-.326,2.3-1.307,8.426-1.928,9.061-.511.523-1.275.33-2.271-.576l-.068-.061a1.194,1.194,0,0,0-1.467-.2,2.514,2.514,0,0,0-.845,2.536,3.786,3.786,0,0,0,1.3,1.885.129.129,0,0,0,.051.023" transform="translate(-161.737 -193.378)" fill="#52180d"/>
      <path id="Trazado_180657" data-name="Trazado 180657" d="M191.9,350.121a1.821,1.821,0,0,1-1.807-1.135,11.372,11.372,0,0,1,3.986-.7,2.96,2.96,0,0,1-2.178,1.83" transform="translate(-166.548 -305.15)" fill="#d14f8e"/>
      <path id="Trazado_180658" data-name="Trazado 180658" d="M190.924,339.033a5.461,5.461,0,0,1-.359.927,11.37,11.37,0,0,0-3.986.7,5.168,5.168,0,0,1-.5-1.476c1.809-.8,4.841-.146,4.841-.146" transform="translate(-163.034 -296.819)" fill="#211010"/>
      <path id="Trazado_180659" data-name="Trazado 180659" d="M122.312,96.435s-15.96-7.054-17.958-21.079c0,0-16.685,15.889-21.5,9.935,0,0,.05-15.646,11.705-19.28a18.484,18.484,0,0,1,11.058-.272c8.4-.444,12.91.352,20.966,8.832,8.295,8.73,4.522,26.849-4.276,21.864" transform="translate(-72.596 -56.991)" fill="#211010"/>
      <path id="Trazado_180660" data-name="Trazado 180660" d="M271.4,147.148l0-.284a28.715,28.715,0,0,1-28.712-25.5l-.283.032a29,29,0,0,0,29,25.756" transform="translate(-212.376 -106.328)" fill="#211010"/>
      <path id="Trazado_180661" data-name="Trazado 180661" d="M91.978,111.288a31.944,31.944,0,0,0,24.672-18.9l-.262-.11A31.655,31.655,0,0,1,91.94,111.007Z" transform="translate(-80.552 -80.844)" fill="#211010"/>
      <path id="Trazado_180662" data-name="Trazado 180662" d="M139.8,83.929s2.456-17.67-10.564-22.942c-17.394-7.044-24.97,7.4-26.456,12.374a.343.343,0,0,1-.67-.072c-.163-1.671.41-4.726,2.561-9.393,2.792-6.057,6.981-9.841,17.084-9.386,8.1.365,18.84,6,20.625,15.46,1.529,8.1-1.38,16.2-2.58,13.96" transform="translate(-89.438 -47.725)" fill="#244eff"/>
      <path id="Trazado_180663" data-name="Trazado 180663" d="M370.1,123.381a.146.146,0,0,0,.126-.219A21.457,21.457,0,0,0,367.082,119a.146.146,0,1,0-.209.2,21.147,21.147,0,0,1,3.1,4.109.146.146,0,0,0,.126.073" transform="translate(-321.394 -104.218)" fill="#1b3abf"/>
      <path id="Trazado_180664" data-name="Trazado 180664" d="M379.348,123.126a.148.148,0,0,0,.065-.015.146.146,0,0,0,.066-.2,11.03,11.03,0,0,0-4.163-4.5.146.146,0,1,0-.15.25,10.734,10.734,0,0,1,4.052,4.381.146.146,0,0,0,.131.081" transform="translate(-328.633 -103.728)" fill="#1b3abf"/>
      <path id="Trazado_180665" data-name="Trazado 180665" d="M306.9,83.987a.146.146,0,0,0,.066-.276,21.454,21.454,0,0,0-4.909-1.765.146.146,0,0,0-.065.284,21.145,21.145,0,0,1,4.842,1.741.147.147,0,0,0,.065.015" transform="translate(-264.483 -71.793)" fill="#1b3abf"/>
      <path id="Trazado_180666" data-name="Trazado 180666" d="M300.851,69.889a.146.146,0,0,0,.1-.254,11.031,11.031,0,0,0-5.533-2.642.146.146,0,1,0-.047.288,10.74,10.74,0,0,1,5.386,2.572.145.145,0,0,0,.1.037" transform="translate(-258.675 -58.693)" fill="#1b3abf"/>
      <path id="Trazado_180667" data-name="Trazado 180667" d="M340.1,13.951S335.343,6.92,340.852,0c0,0,5.931,4.884-.756,13.95" transform="translate(-296.301 -0.001)" fill="#244eff"/>
      <path id="Trazado_180668" data-name="Trazado 180668" d="M354.267,87.9s5.947-6.056,13.822-2.033c0,0-3.607,6.784-13.822,2.033" transform="translate(-310.385 -74.021)" fill="#244eff"/>
      <path id="Trazado_180669" data-name="Trazado 180669" d="M349.463,50.727a.14.14,0,0,0,.046-.007.146.146,0,0,0,.093-.184,10.281,10.281,0,0,1-.061-6.235.146.146,0,0,0-.278-.086,10.575,10.575,0,0,0,.063,6.413.146.146,0,0,0,.138.1" transform="translate(-305.591 -38.648)" fill="#1b3abf"/>
      <path id="Trazado_180670" data-name="Trazado 180670" d="M358.082,48.759a.146.146,0,0,0,.143-.121,52.6,52.6,0,0,0,.656-5.968.146.146,0,0,0-.138-.153.144.144,0,0,0-.153.138,52.237,52.237,0,0,1-.652,5.934.145.145,0,0,0,.119.168l.025,0" transform="translate(-313.6 -37.25)" fill="#1b3abf"/>
      <path id="Trazado_180671" data-name="Trazado 180671" d="M376.547,100.566a7.832,7.832,0,0,0,1.116-.1l3.784-.553a.146.146,0,0,0,.123-.165.147.147,0,0,0-.165-.123l-3.784.553a3.388,3.388,0,0,1-2.21-.167.146.146,0,0,0-.148.251,2.463,2.463,0,0,0,1.284.307" transform="translate(-328.718 -87.281)" fill="#1b3abf"/>
      <path id="Trazado_180672" data-name="Trazado 180672" d="M377.514,110.282a10.5,10.5,0,0,0,3.387-.557.146.146,0,1,0-.094-.276,10.246,10.246,0,0,1-5.569.283.146.146,0,1,0-.066.284,10.363,10.363,0,0,0,2.343.265" transform="translate(-328.601 -95.886)" fill="#1b3abf"/>
      <path id="Trazado_180673" data-name="Trazado 180673" d="M335.374,86.224s-3.191-2.352-1.221-4.223,5.519,1.173,6.032,2.642-2.355,3.674-4.811,1.581" transform="translate(-292.2 -71.326)" fill="#1b3abf"/>
    </g>
  </g>
</svg>
