<svg xmlns="http://www.w3.org/2000/svg" xmlns:xlink="http://www.w3.org/1999/xlink" width="674.297" height="291.746" viewBox="0 0 674.297 291.746">
  <defs>
    <clipPath id="clip-path">
      <rect id="Rectángulo_338295" data-name="Rectángulo 338295" width="674.297" height="291.746" transform="translate(0 -12)" fill="#fff" stroke="#707070" stroke-width="1" opacity="0.72"/>
    </clipPath>
    <clipPath id="clip-path-2">
      <path id="Trazado_599171" data-name="Trazado 599171" d="M0,0H431.541V307.956H0Z" transform="translate(0)" fill="#fff" stroke="#707070" stroke-width="1" opacity="0.3"/>
    </clipPath>
    <clipPath id="clip-path-3">
      <rect id="Rectángulo_338305" data-name="Rectángulo 338305" width="214" height="236" transform="translate(995 854.882)" fill="#fff" stroke="#707070" stroke-width="1" opacity="0.64"/>
    </clipPath>
    <clipPath id="clip-path-4">
      <rect id="Rectángulo_338304" data-name="Rectángulo 338304" width="203.428" height="396.346" fill="none"/>
    </clipPath>
    <clipPath id="clip-path-6">
      <rect id="Rectángulo_338296" data-name="Rectángulo 338296" width="23.78" height="119.399" fill="none"/>
    </clipPath>
    <clipPath id="clip-path-7">
      <rect id="Rectángulo_338297" data-name="Rectángulo 338297" width="53.556" height="44.063" fill="none"/>
    </clipPath>
    <clipPath id="clip-path-8">
      <rect id="Rectángulo_338298" data-name="Rectángulo 338298" width="27.882" height="6.245" fill="none"/>
    </clipPath>
    <clipPath id="clip-path-9">
      <rect id="Rectángulo_338299" data-name="Rectángulo 338299" width="8.389" height="145.894" fill="none"/>
    </clipPath>
    <clipPath id="clip-path-10">
      <rect id="Rectángulo_338300" data-name="Rectángulo 338300" width="53.484" height="70.023" fill="none"/>
    </clipPath>
    <clipPath id="clip-path-11">
      <rect id="Rectángulo_338301" data-name="Rectángulo 338301" width="28.904" height="156.445" fill="none"/>
    </clipPath>
    <clipPath id="clip-path-12">
      <rect id="Rectángulo_338302" data-name="Rectángulo 338302" width="72.426" height="118.696" fill="none"/>
    </clipPath>
    <clipPath id="clip-path-13">
      <rect id="Rectángulo_338294" data-name="Rectángulo 338294" width="197.902" height="288.338" fill="#fff" stroke="#707070" stroke-width="1" opacity="0.3"/>
    </clipPath>
  </defs>
  <g id="Enmascarar_grupo_425" data-name="Enmascarar grupo 425" transform="translate(0 12)" clip-path="url(#clip-path)">
    <path id="Trazado_598920" data-name="Trazado 598920" d="M79.464,6.654c-13.955-2.045-30.228.145-43.346,5.2a91.611,91.611,0,0,0-20.724,11.8c-3.326,2.422-6.509,4.976-9.576,7.713-.891.8-3.914,4.807-5.091,4.428-3.96-1.279,9.494-13.268,11.036-14.455,6.518-5.021,13.381-9.794,20.962-13.073C45.44,2.762,60.606-.8,74.508.153c8.1.554,16.214,1.024,24.1,3.358a55.209,55.209,0,0,1,9.625,3.854,58.55,58.55,0,0,1,6.391,3.71c1.494,1.029,2.884,3.112,4.46,3.839.17-3.073-2.448-6.389-2.51-9.583-.074-3.8,2.645-2.155,3.927.023a100.709,100.709,0,0,1,5.091,10.913c1.371,3.129,3.882,6.8.483,9.249-2.985,2.149-6.9,3.19-10.231,4.649-2.226.975-6.564,4.242-9.065,2.775-7.816-4.583,11.546-8.845,12.739-9.713-1.012-1.011-2.606-1.587-3.8-2.425-1.718-1.213-3.244-2.658-4.97-3.864a61.227,61.227,0,0,0-10.5-5.846,55.142,55.142,0,0,0-20.787-4.44C74.415,5.914,80.458,6.661,79.464,6.654Z" transform="matrix(0.985, 0.174, -0.174, 0.985, 210.536, 7.486)" fill="#263238"/>
    <g id="Enmascarar_grupo_436" data-name="Enmascarar grupo 436" transform="translate(242.756 41.958)" clip-path="url(#clip-path-2)">
      <g id="Grupo_982579" data-name="Grupo 982579" transform="translate(14.306 6.502)">
        <g id="Grupo_982557" data-name="Grupo 982557" transform="translate(55.58 212.201)">
          <path id="Trazado_598965" data-name="Trazado 598965" d="M77.9,434.853h92.011c4.615-29.87,14.726-109.06-3.12-134.694L82.173,298.95s-17.327,20.953-14.1,63.262A718.927,718.927,0,0,0,77.9,434.853Z" transform="translate(-67.669 -298.95)" fill="#003d6e"/>
          <g id="Grupo_982556" data-name="Grupo 982556" transform="translate(12.424 13.7)" opacity="0.5" style="mix-blend-mode: multiply;isolation: isolate">
            <path id="Trazado_598966" data-name="Trazado 598966" d="M78.571,385.371c.43,8.882.9,17.767,1.764,26.624.521,5.326,1.109,10.652,1.886,15.948h.5c-.1-.92-.191-1.84-.294-2.759-.276-2.2-.422-4.421-.633-6.629s-.39-4.422-.527-6.639q-1-13.28-1.484-26.6c-.435-8.872-.656-17.753-.895-26.633l-.3-13.325-.266-13.33c-.336,8.885-.393,17.777-.357,26.669S78.236,376.484,78.571,385.371Z" transform="translate(-77.947 -305.741)" fill="#003d6e"/>
            <path id="Trazado_598967" data-name="Trazado 598967" d="M105.082,372.549c2.72-2.111,5.384-4.265,7.931-6.547s5-4.655,7.328-7.151c2.348-2.478,4.555-5.084,6.685-7.757l1.572-2.028,1.516-2.073,1.5-2.091q.713-1.072,1.461-2.125c-.751,1.551-1.608,3.045-2.466,4.543q-1.36,2.2-2.836,4.331a73.8,73.8,0,0,1-14.161,15.06A64.881,64.881,0,0,1,105.082,372.549Z" transform="translate(-72.281 -303.498)" fill="#003d6e"/>
            <path id="Trazado_598968" data-name="Trazado 598968" d="M115.183,380.769c2.653-3.769,5.245-7.507,7.6-11.41,2.379-3.886,4.5-7.908,6.626-12a53.715,53.715,0,0,1-14.221,23.409Z" transform="translate(-70.171 -300.452)" fill="#003d6e"/>
            <path id="Trazado_598969" data-name="Trazado 598969" d="M119,310.887a118.341,118.341,0,0,1,12.694-.6,116.764,116.764,0,0,1,12.693.6,116.772,116.772,0,0,1-12.693.6A118.643,118.643,0,0,1,119,310.887Z" transform="translate(-69.374 -310.283)" fill="#003d6e"/>
          </g>
        </g>
        <g id="Grupo_982567" data-name="Grupo 982567" transform="translate(0 51.398)">
          <g id="Grupo_982559" data-name="Grupo 982559" transform="translate(2.42)">
            <path id="Trazado_598970" data-name="Trazado 598970" d="M223.5,198.622c2.526-3.37,8.185-11.356,8.335-15.486.012-.336-.43-.58-.8-.442-.775.293-2.1,1.271-3.844,4.365,0,0,1.306-7.351.215-8.59s-4.585,7.619-4.585,7.619.355-8.538-1.065-9.36-3.517,8.43-3.517,8.43-.23-8.9-1.167-8.911c-2.338-.024-2.537,12.523-4.294,12.128-1.556-.351-3.08-3.486-3.514-5.133a.836.836,0,0,0-.934-.527,1.8,1.8,0,0,0-1.673,2.335,29.187,29.187,0,0,0,4.87,12.027l0,.008c-.5,1.414-7.8,22.206-17.214,48.111-1.426-2.8-2.72-5.4-3.856-7.761-3.2-6.636-6.107-11.911-9.489-15.34a40.305,40.305,0,0,0-10.6-8.116c-9.816-5.88-15.844-7.133-19.747-15.226-.07-.369-.139-.741-.206-1.121a39.48,39.48,0,0,1-.7-9.912v-.012a8.584,8.584,0,0,1,.979-3.566l-32.4-18.217c.024.109.036.206.06.314.43,2.525,3.253,19.571,1.777,32.383-3.115,2.771-7.781,5.229-14.658,5.695a20.849,20.849,0,0,0-6.132.371c-6.419,1.33-13.9,4.944-22.049,12.56-8.3,7.773-20.055,18.773-32.336,32.131-4.944,5.384-9.974,11.149-14.9,17.237a28.67,28.67,0,0,0-1.921,33.35c2.842,4.491,5.841,8.922,9,13.239,10.747,14.663,23.355,27.972,38.09,37.7l.047-.035c.452,4.18,1.765,13.9,4.478,17.022a.573.573,0,0,0,.885-.221c.367-.742.666-2.36-.169-5.813,0,0,4.062,6.264,5.7,6.426s-1.847-8.7-1.847-8.7,5.565,6.483,7.166,6.115-3.183-8.562-3.183-8.562,6.242,6.35,6.934,5.718c1.725-1.578-6.692-10.887-5.139-11.8,1.377-.805,4.632.447,6.072,1.354a.834.834,0,0,0,1.042-.253,1.8,1.8,0,0,0-.37-2.848,29.167,29.167,0,0,0-11.774-5.47c-.592-1.356-11.423-26.035-23.808-55.29,10.419-10.545,20.722-20.808,29.636-29.387,5.816,21.58,12.87,40.427,11.351,54.534l66.2,1.338s2.2-11.525,4.971-25.2q1.3,2.212,2.657,4.464.372.616.748,1.235c10.351,17.024,36.155,13.44,41.344-5.8.044-.164.088-.328.132-.492,7.749-28.794,12.27-61.4,5.246-90.626Z" transform="translate(-23.693 -165.926)" fill="#d48f65"/>
            <g id="Grupo_982558" data-name="Grupo 982558" transform="translate(3.725 12.112)">
              <path id="Trazado_598971" data-name="Trazado 598971" d="M133.165,195.541c-17.613,2.224-26.534-18.809-26.86-19.6a20.773,20.773,0,0,0,12.572,9.018,34.509,34.509,0,0,0,13.478.689c.036-.012.073-.012.109-.024A39.478,39.478,0,0,0,133.165,195.541Z" transform="translate(-10.166 -175.946)" fill="#cc7d4e"/>
              <path id="Trazado_598972" data-name="Trazado 598972" d="M169.514,278.31a14.882,14.882,0,0,1,1.905-1.489,14.311,14.311,0,0,1,2.091-1.214,3.313,3.313,0,0,1-4,2.7Z" transform="translate(3.034 -155.134)" fill="#d48f65" opacity="0.5" style="mix-blend-mode: multiply;isolation: isolate"/>
              <path id="Trazado_598973" data-name="Trazado 598973" d="M27.67,262.287a9.986,9.986,0,0,1,.313,2.315,9.686,9.686,0,0,1-.175,2.329,3.282,3.282,0,0,1-.138-4.644Z" transform="translate(-26.775 -157.915)" fill="#d48f65" opacity="0.5" style="mix-blend-mode: multiply;isolation: isolate"/>
            </g>
          </g>
          <g id="Grupo_982566" data-name="Grupo 982566" transform="translate(0 29.504)">
            <g id="Grupo_982562" data-name="Grupo 982562" transform="translate(91.188 6.589)">
              <g id="Grupo_982560" data-name="Grupo 982560">
                <path id="Trazado_598974" data-name="Trazado 598974" d="M101.054,219.2h-.017a.606.606,0,0,1-.587-.621c.441-15.733-3.2-21.817-3.234-21.876a.6.6,0,0,1,1.026-.639c.158.253,3.868,6.385,3.416,22.55A.605.605,0,0,1,101.054,219.2Z" transform="translate(-97.126 -195.783)" fill="#3d1525"/>
              </g>
              <g id="Grupo_982561" data-name="Grupo 982561" transform="translate(51.828 8.159)">
                <path id="Trazado_598975" data-name="Trazado 598975" d="M142.569,217.039a.613.613,0,0,1-.066,0,.605.605,0,0,1-.534-.667c.873-7.849-1.864-12.886-1.892-12.937a.6.6,0,0,1,1.055-.589c.122.216,2.956,5.4,2.038,13.659A.6.6,0,0,1,142.569,217.039Z" transform="translate(-140 -202.533)" fill="#3d1525"/>
              </g>
            </g>
            <path id="Trazado_598976" data-name="Trazado 598976" d="M202.6,299.952l-.062-.048c-2.079-1.6-4.6-2.611-6.476-4.45-2.363-2.323-3.4-5.709-3.681-9.011s.088-6.623.093-9.938c.007-4.884-.787-9.738-.862-14.622-.131-8.528,4.841-17.759,2.91-26.066-2.015-8.664-13.2-23.572-13.2-23.572-64.672,12.995-97.915-8.462-97.915-8.462s-19.862,18.733-41.25,40.4a61.529,61.529,0,0,1-16.221,12.244,7.712,7.712,0,0,0-1.3.8c-1.979,1.521-3.382,4.063-2.831,6.5.759,3.353,4.654,4.941,8.08,5.231s7.07-.133,10.13,1.437c4.123,2.115,5.765,7.041,8.568,10.732,4.584,6.032,12.054,8.525,19.7,9.943a4.887,4.887,0,0,0,5.79-4.487,24.485,24.485,0,0,1,1.458-6.754,31.284,31.284,0,0,1,3.988-7.637Q84.1,265.713,89.03,259.5c2.253,8.149,4.529,16.345,6.442,23.224a41.257,41.257,0,0,1-3.7,30.877,62.791,62.791,0,0,0-3.487,7.342,1.827,1.827,0,0,0,2.141,2.414,12.671,12.671,0,0,1,8.839,1.7c3.749,2.221,6.539,5.7,9.653,8.752s6.927,5.822,11.28,5.969c6.711.227,11.827-5.592,17.611-9a26.717,26.717,0,0,1,21.939-2.217c3.116,1.071,6.022,2.724,9.2,3.594s6.865.829,9.437-1.229c2.187-1.749,3.589-6.455,2.345-9.046a24.523,24.523,0,0,1-2.242-5.957c-1.182-6.232-5.186-14.449-4.516-23.294.033-.44.087-.885.131-1.328a19.5,19.5,0,0,0,5.914,5.761c8.8,5.088,15.38,7.48,19.64,8.6C203.076,306.569,205.385,302.131,202.6,299.952Z" transform="translate(-21.691 -187.524)" fill="#3c3fa7"/>
            <g id="Grupo_982564" data-name="Grupo 982564" transform="translate(96.476)">
              <g id="Grupo_982563" data-name="Grupo 982563">
                <path id="Trazado_598977" data-name="Trazado 598977" d="M138.043,222.693c-1.777,14.313-6.624,36.1-9.9,36.325a.109.109,0,0,1-.06.012c-4.594,0-20.478-43.179-25.144-57.419-.157-.471-.3-.919-.435-1.318-.471-1.511-.774-2.539-.846-2.962-.689-3.844,1.028-5.935,2.5-7-.036.58-.085,1.148-.121,1.7a5.628,5.628,0,0,0-1.185,5.077c.048.29.133.653.242,1.064.218.895.544,2.055.979,3.433,4.714,15.074,20.78,55.715,24,56.211,2.321-.858,10.118-30.849,9.828-51.46-.121-7.761-1.426-12.669-3.808-14.313-.1-.484-.169-.991-.242-1.487C140.618,193.283,139.4,211.8,138.043,222.693Z" transform="translate(-101.5 -190.333)" fill="#b34944"/>
              </g>
              <ellipse id="Elipse_4986" data-name="Elipse 4986" cx="1.41" cy="6.548" rx="1.41" ry="6.548" transform="translate(25.184 65.947)" fill="#b34944"/>
            </g>
            <g id="Grupo_982565" data-name="Grupo 982565" transform="translate(29.116 20.387)" opacity="0.5" style="mix-blend-mode: multiply;isolation: isolate">
              <path id="Trazado_598978" data-name="Trazado 598978" d="M77.333,254.578c.7-1.058,1.41-2.094,2.072-3.165.7-1.048,1.378-2.1,2.024-3.177,1.3-2.147,2.609-4.278,3.761-6.493a66.463,66.463,0,0,0,3.191-6.756c.265-.568.43-1.167.647-1.752a15.008,15.008,0,0,0,.554-1.785c.156-.6.386-1.2.485-1.812s.23-1.233.364-1.856a23.306,23.306,0,0,1-1.173,7.514,40.508,40.508,0,0,1-3,7.017,54.585,54.585,0,0,1-4.057,6.437A49.624,49.624,0,0,1,77.333,254.578Z" transform="translate(-39.187 -202.899)" fill="#ffe9c7"/>
              <path id="Trazado_598979" data-name="Trazado 598979" d="M45.777,246.736a43.223,43.223,0,0,1,7.236-6.138,48.828,48.828,0,0,1,17.446-7.445l2.343-.427,2.356-.326,2.371-.173c.791-.029,1.582-.044,2.371-.046-.78.133-1.558.256-2.335.364l-2.315.441-2.3.488-2.271.583a68.607,68.607,0,0,0-17.165,7.321A76.4,76.4,0,0,0,45.777,246.736Z" transform="translate(-45.777 -201.981)" fill="#ffe9c7"/>
              <path id="Trazado_598980" data-name="Trazado 598980" d="M54.649,262.487a27.052,27.052,0,0,1,2.076-5.7,26.734,26.734,0,0,1,3.164-5.177,26.829,26.829,0,0,1-2.076,5.7A27.087,27.087,0,0,1,54.649,262.487Z" transform="translate(-43.924 -197.924)" fill="#ffe9c7"/>
              <path id="Trazado_598981" data-name="Trazado 598981" d="M82.1,243.871a73.832,73.832,0,0,1,5.715,16.707,80.778,80.778,0,0,1-.244,35.217l-1.124,4.287-1.35,4.216-1.617,4.116-1.858,4.006,1.559-4.122,1.354-4.185,1.175-4.231.953-4.283a89.359,89.359,0,0,0,1.766-17.408,89.377,89.377,0,0,0-1.52-17.431A93.593,93.593,0,0,0,82.1,243.871Z" transform="translate(-38.292 -199.54)" fill="#ffe9c7"/>
              <path id="Trazado_598982" data-name="Trazado 598982" d="M113.445,278.334a61.32,61.32,0,0,0,7.468-5,56.435,56.435,0,0,0,12.047-13.082l1.2-1.889,1.113-1.947,1.065-1.983q.475-1.021.99-2.032-.33,1.082-.7,2.159l-.827,2.118-.978,2.055-1.081,2.008a41.521,41.521,0,0,1-12.288,13.338A36.725,36.725,0,0,1,113.445,278.334Z" transform="translate(-31.646 -197.758)" fill="#ffe9c7"/>
              <path id="Trazado_598983" data-name="Trazado 598983" d="M123.183,282.564a39.672,39.672,0,0,0,7.483-19.944,22.617,22.617,0,0,1-7.483,19.944Z" transform="translate(-29.612 -195.624)" fill="#ffe9c7"/>
              <path id="Trazado_598984" data-name="Trazado 598984" d="M146.536,285.842c2-5.078,4.127-10.108,5.737-15.29a54.042,54.042,0,0,0,2.777-15.892,35.209,35.209,0,0,0-.737-8,40.026,40.026,0,0,0-2.609-7.624c-1.075-2.493-2.268-4.962-3.209-7.546a21.806,21.806,0,0,1-1.44-8.059,22.072,22.072,0,0,0,.646,4.017,29.341,29.341,0,0,0,1.347,3.828c1.038,2.5,2.315,4.9,3.5,7.374a35.334,35.334,0,0,1,2.836,7.77,36.109,36.109,0,0,1,.872,8.25,52.011,52.011,0,0,1-3.105,16.168A125.657,125.657,0,0,1,146.536,285.842Z" transform="translate(-24.735 -203.807)" fill="#ffe9c7"/>
              <path id="Trazado_598985" data-name="Trazado 598985" d="M72.613,207.2c2.882,1.594,5.787,3.108,8.765,4.452s6.009,2.555,9.1,3.589c3.084,1.06,6.229,1.929,9.407,2.69l2.392.533,2.412.459,2.422.433c.812.114,1.623.242,2.437.38-1.649.007-3.293-.106-4.94-.225l-2.459-.294-2.45-.376a64.5,64.5,0,0,1-18.728-6.357A56.857,56.857,0,0,1,72.613,207.2Z" transform="translate(-40.173 -207.198)" fill="#ffe9c7"/>
              <path id="Trazado_598986" data-name="Trazado 598986" d="M136,218.135c3.532-1.079,7.06-1.973,10.572-2.956,3.521-.948,7.011-1.978,10.6-2.847a52.879,52.879,0,0,1-21.174,5.8Z" transform="translate(-26.935 -206.126)" fill="#ffe9c7"/>
            </g>
          </g>
        </g>
        <g id="Grupo_982578" data-name="Grupo 982578" transform="translate(47.733)">
          <g id="Grupo_982575" data-name="Grupo 982575" transform="translate(39.995 5.483)">
            <path id="Trazado_598987" data-name="Trazado 598987" d="M152.371,178.084c0,.4-.012.8-.012,1.2a15.808,15.808,0,0,1-.641,5.113c-2.212,6.238-11.121,10.106-17.141,11.351a25.4,25.4,0,0,1-21.59-5.464,28.064,28.064,0,0,1-9.272-15.763,12.256,12.256,0,0,1-3.772-.375,9.655,9.655,0,0,1-4.376-3.663,7.66,7.66,0,0,1-.991-6.383c.846-2.659,3.687-4.787,6.516-4.086a4.232,4.232,0,0,1,.822.338c-.375-9.3.991-19.474,7.446-25.1,13.9-12.088,33.847-7.857,38.078,3.022,3.288,8.45,4.461,18.265,4.811,27.827C152.408,170.19,152.42,174.228,152.371,178.084Z" transform="translate(-94.264 -127.943)" fill="#d48f65"/>
            <g id="Grupo_982574" data-name="Grupo 982574" transform="translate(2.547 18.472)">
              <g id="Grupo_982568" data-name="Grupo 982568" transform="translate(17.041 19.509)">
                <path id="Trazado_598988" data-name="Trazado 598988" d="M143.674,171.523a6.25,6.25,0,0,1-1.584.206,6.183,6.183,0,0,1,0-12.366,5.843,5.843,0,0,1,1.463.181C143.71,163.629,143.722,167.667,143.674,171.523Z" transform="translate(-105.154 -159.362)" fill="#cc7d4e"/>
                <path id="Trazado_598989" data-name="Trazado 598989" d="M110.468,165.546a6.181,6.181,0,1,0,6.181-6.181A6.18,6.18,0,0,0,110.468,165.546Z" transform="translate(-110.468 -159.361)" fill="#cc7d4e"/>
              </g>
              <g id="Grupo_982571" data-name="Grupo 982571" transform="translate(27.206 8.58)">
                <g id="Grupo_982569" data-name="Grupo 982569" transform="translate(17.341)">
                  <path id="Trazado_598990" data-name="Trazado 598990" d="M133.222,155.188c0,2.019.8,3.654,1.784,3.654s1.785-1.636,1.785-3.654-.8-3.654-1.785-3.654S133.222,153.171,133.222,155.188Z" transform="translate(-133.222 -150.068)" fill="#3d1525"/>
                  <path id="Trazado_598991" data-name="Trazado 598991" d="M138.388,150.632a5.229,5.229,0,0,1-1.208,1.559,4.243,4.243,0,0,1-1.868.967l-.03.006a.661.661,0,1,1-.122-1.3,3.86,3.86,0,0,0,2.864-1.449l.012-.016a.213.213,0,0,1,.352.236Z" transform="translate(-132.96 -150.322)" fill="#3d1525"/>
                </g>
                <g id="Grupo_982570" data-name="Grupo 982570" transform="translate(0 0)">
                  <path id="Trazado_598992" data-name="Trazado 598992" d="M124,155.188c0,2.019-.8,3.654-1.784,3.654s-1.785-1.636-1.785-3.654.8-3.654,1.785-3.654S124,153.171,124,155.188Z" transform="translate(-118.552 -150.068)" fill="#3d1525"/>
                  <path id="Trazado_598993" data-name="Trazado 598993" d="M119.264,150.412a3.86,3.86,0,0,0,2.864,1.449.661.661,0,1,1-.118,1.3l-.034-.007a4.243,4.243,0,0,1-1.868-.967,5.229,5.229,0,0,1-1.208-1.559.213.213,0,0,1,.352-.236Z" transform="translate(-118.877 -150.322)" fill="#3d1525"/>
                </g>
              </g>
              <g id="Grupo_982572" data-name="Grupo 982572" transform="translate(32.416 24.777)">
                <path id="Trazado_598994" data-name="Trazado 598994" d="M130.508,169.062a2.938,2.938,0,0,1-1.879.637,3.07,3.07,0,0,1-1.881-.637,9.728,9.728,0,0,0,1.882.212A8.128,8.128,0,0,0,130.508,169.062Z" transform="translate(-122.443 -162.604)" fill="#3d1525"/>
                <path id="Trazado_598995" data-name="Trazado 598995" d="M123.187,164.022s3.4,4.533,7.027,4.382,4.91-4.684,4.91-4.684Z" transform="translate(-123.187 -163.72)" fill="#fff"/>
              </g>
              <g id="Grupo_982573" data-name="Grupo 982573" transform="translate(23.958)">
                <path id="Trazado_598996" data-name="Trazado 598996" d="M126.373,144.25a4.235,4.235,0,0,0-2.766-1.024,8.51,8.51,0,0,0-2.946.418,7.166,7.166,0,0,0-2.593,1.486A7.541,7.541,0,0,0,116.3,147.4a.855.855,0,0,0,1.325,1.044l.073-.066a10.544,10.544,0,0,1,1.762-1.4,6.18,6.18,0,0,1,1.946-.8,7.594,7.594,0,0,1,2.108-.2,8.1,8.1,0,0,0,2.254-.131l.225-.056a.894.894,0,0,0,.382-1.538Z" transform="translate(-116.19 -143.224)" fill="#3d1525"/>
                <path id="Trazado_598997" data-name="Trazado 598997" d="M132.046,144.25a4.235,4.235,0,0,1,2.766-1.024,8.506,8.506,0,0,1,2.946.418,7.181,7.181,0,0,1,2.594,1.486,7.556,7.556,0,0,1,1.77,2.269.855.855,0,0,1-1.325,1.044l-.071-.066a10.6,10.6,0,0,0-1.764-1.4,6.169,6.169,0,0,0-1.946-.8,7.589,7.589,0,0,0-2.108-.2,8.1,8.1,0,0,1-2.254-.131l-.225-.056a.9.9,0,0,1-.382-1.538Z" transform="translate(-112.942 -143.224)" fill="#3d1525"/>
              </g>
              <path id="Trazado_598998" data-name="Trazado 598998" d="M129.189,149.939c.317,1.377.549,2.744.8,4.1s.513,2.7.9,3.978c.088.322.189.637.3.943a3.356,3.356,0,0,1,.311,1.18,2.379,2.379,0,0,1-1.281,2.166,2.878,2.878,0,0,1-2.329.125,5.669,5.669,0,0,1-1.846-1.1c1.281.481,2.778.857,3.68.176a1.407,1.407,0,0,0,.633-1.3,2.634,2.634,0,0,0-.267-.811q-.207-.513-.361-1.032a19.382,19.382,0,0,1-.671-4.2A22.312,22.312,0,0,1,129.189,149.939Z" transform="translate(-90.174 -141.821)" fill="#3d1525"/>
              <path id="Trazado_598999" data-name="Trazado 598999" d="M96.372,159.993a3.042,3.042,0,0,1,.951-2.419,2.831,2.831,0,0,1,2.757-.265,5.188,5.188,0,0,1,2.225,1.623,8.31,8.31,0,0,1,1.384,2.333.61.61,0,0,1-1,.656l-.04-.041a5.377,5.377,0,0,0-2.045-1.447.946.946,0,0,0-.859.094,2.267,2.267,0,0,0-.614.948c-.312.8-.5,1.738.184,2.111a4.58,4.58,0,0,0,2.7.184,4.245,4.245,0,0,1-2.971.4,1.676,1.676,0,0,1-1.049-1.4,4.339,4.339,0,0,1,.174-1.617,3.03,3.03,0,0,1,.864-1.493,2.045,2.045,0,0,1,1.87-.386,5.882,5.882,0,0,1,2.663,1.791l-1.04.615a6.529,6.529,0,0,0-2.806-3.512,2.289,2.289,0,0,0-2.077-.125A3.045,3.045,0,0,0,96.372,159.993Z" transform="translate(-96.371 -140.331)" fill="#3d1525"/>
            </g>
          </g>
          <g id="Grupo_982577" data-name="Grupo 982577">
            <path id="Trazado_599000" data-name="Trazado 599000" d="M166.506,155.9c-1.245-2.635-3.759-4.473-5.077-7.072-1.922-3.747-1.04-8.4-2.647-12.306-1.717-4.134-5.984-6.721-10.311-7.869s-8.873-1.173-13.309-1.8c-5.561-.786-11.037-2.551-16.658-2.381a17.715,17.715,0,0,0-2.587.294c-.04-.024-.076-.056-.117-.079a11.613,11.613,0,0,0-9.239-.6,23.257,23.257,0,0,0-8.038,5c-2.374,2.112-4.533,4.458-6.927,6.548a25.345,25.345,0,0,1-9.818,5.661,13.908,13.908,0,0,1-11.023-1.326c.325,3.172,1.856,5.881,4.875,6.9a11.465,11.465,0,0,1-6.964,3.414A11.088,11.088,0,0,1,61.3,148.3,16.27,16.27,0,0,0,65.56,161.57a17.238,17.238,0,0,0,13.353,5.3,8.542,8.542,0,0,0,1.061,8.114c1.753-5.313,6.17-9.164,10.385-12.843,3.5-3.055,6.534-7.159,10.436-9.684.3-.2.612-.389.919-.583a32.266,32.266,0,0,1,.3,4.2c-.181,2.841-2.019,5.258-3.022,7.93a13.774,13.774,0,0,0,12.62,18.592c-.423-3.4-.834-5.972-1.027-7.132a11.99,11.99,0,0,1-3.735-.375,9.655,9.655,0,0,1-4.376-3.663,7.66,7.66,0,0,1-.991-6.383,5.907,5.907,0,0,1,5.818-4.175,25.247,25.247,0,0,1,3.982,5.055.838.838,0,0,0,1.418.129,36.9,36.9,0,0,0,5.125-9.2,31.117,31.117,0,0,1-4.555,14.419.532.532,0,0,0,.7.742,24.783,24.783,0,0,0,10.3-10.593c2.664-4.919,4.12-10.384,5.553-15.791,7.8,5.011,17.766,7.22,27.037,7.376.447.873.91,1.674,1.377,2.465.493,3.831.78,7.724.921,11.579.109,2.95.157,5.875.145,8.728a30.5,30.5,0,0,0,2.623-3.324,33.821,33.821,0,0,0,4.569-7.773A11.472,11.472,0,0,0,166.506,155.9Z" transform="translate(-61.178 -123.407)" fill="#450d20"/>
            <g id="Grupo_982576" data-name="Grupo 982576" transform="translate(7.042 1.506)" opacity="0.5" style="mix-blend-mode: screen;isolation: isolate">
              <path id="Trazado_599001" data-name="Trazado 599001" d="M94.94,149.9a17.818,17.818,0,0,1-1.008-3.824,20.9,20.9,0,0,1-.144-3.987A19.239,19.239,0,0,1,101,128.2a21.111,21.111,0,0,1,3.345-2.175,17.92,17.92,0,0,1,3.707-1.373,23.464,23.464,0,0,0-3.411,1.886,20.921,20.921,0,0,0-3.034,2.367,21.916,21.916,0,0,0-6.9,13.274,21.136,21.136,0,0,0-.19,3.844A23.431,23.431,0,0,0,94.94,149.9Z" transform="translate(-61.418 -124.653)" fill="#874535"/>
              <path id="Trazado_599002" data-name="Trazado 599002" d="M116.613,135.669a54.372,54.372,0,0,0,6.615,5.174,50.343,50.343,0,0,0,15.188,6.7l2.037.479,2.062.375,2.08.319c.7.064,1.4.144,2.1.233q-1.057.062-2.12.087l-2.128-.051-2.12-.21-2.111-.323a36.96,36.96,0,0,1-15.524-6.856A32.481,32.481,0,0,1,116.613,135.669Z" transform="translate(-56.644 -122.353)" fill="#874535"/>
              <path id="Trazado_599003" data-name="Trazado 599003" d="M116.292,139.03a23.842,23.842,0,0,1-6.946,20.221,43.851,43.851,0,0,0,6.946-20.221Z" transform="translate(-58.162 -121.651)" fill="#874535"/>
              <path id="Trazado_599004" data-name="Trazado 599004" d="M111.039,139.806a20.847,20.847,0,0,1-9.451,16.843,40.641,40.641,0,0,0,9.451-16.843Z" transform="translate(-59.782 -121.489)" fill="#874535"/>
              <path id="Trazado_599005" data-name="Trazado 599005" d="M134.452,130.139a10.2,10.2,0,0,1,6.854,10.76,20.232,20.232,0,0,0-6.854-10.76Z" transform="translate(-52.919 -123.507)" fill="#874535"/>
              <path id="Trazado_599006" data-name="Trazado 599006" d="M94.81,133.188a17.271,17.271,0,0,1-18.183,8.85,25.828,25.828,0,0,0,18.183-8.85Z" transform="translate(-64.994 -122.871)" fill="#874535"/>
              <path id="Trazado_599007" data-name="Trazado 599007" d="M95.2,138.824a20.8,20.8,0,0,1-1.967,3.707,24.237,24.237,0,0,1-2.693,3.26,22.327,22.327,0,0,1-15.268,6.629,24.363,24.363,0,0,1-4.221-.259,20.7,20.7,0,0,1-4.051-1.1,27.712,27.712,0,0,0,4.114.509,24.543,24.543,0,0,0,4.1-.08,25.827,25.827,0,0,0,14.692-6.375A28.354,28.354,0,0,0,95.2,138.824Z" transform="translate(-67.004 -121.694)" fill="#874535"/>
            </g>
          </g>
        </g>
      </g>
      <g id="Enmascarar_grupo_426" data-name="Enmascarar grupo 426" transform="translate(-772.756 -852.543)" clip-path="url(#clip-path-3)">
        <g id="Grupo_982654" data-name="Grupo 982654" transform="translate(999.874 854.552)">
          <g id="Grupo_982653" data-name="Grupo 982653" clip-path="url(#clip-path-4)">
            <g id="Grupo_982652" data-name="Grupo 982652">
              <g id="Grupo_982651" data-name="Grupo 982651" clip-path="url(#clip-path-4)">
                <path id="Trazado_599058" data-name="Trazado 599058" d="M130.4,336.141H37.437c-3.885-39.95-8.575-91.117-8.3-102.768.46-19.727,7.57-44.158,7.57-44.158l5.161-29.248,80.517.688s18.925,45.764,17.2,68.13c-1.031,13.41-5.65,66.77-9.183,107.356" transform="translate(23.648 60.205)" fill="#a5b1c7"/>
                <g id="Grupo_982632" data-name="Grupo 982632" transform="translate(76.9 276.947)" opacity="0.5" style="mix-blend-mode: multiply;isolation: isolate">
                  <g id="Grupo_982631" data-name="Grupo 982631" transform="translate(0)">
                    <g id="Grupo_982630" data-name="Grupo 982630" clip-path="url(#clip-path-6)">
                      <path id="Trazado_599059" data-name="Trazado 599059" d="M91.518,320.617q-.7-13.4-1.347-26.809c-.644-12.384-1.127-24.776-1.678-37.163-.573-12.356-.974-24.719-1.453-37.079L74.652,201.218l13.016,18.037a.323.323,0,0,1,.061.176v.007c.669,12.383,1.412,24.763,1.987,37.149.595,12.387,1.258,24.77,1.76,37.16q.572,13.434,1.137,26.869Z" transform="translate(-68.833 -201.218)" fill="#a5b1c7"/>
                      <path id="Trazado_599060" data-name="Trazado 599060" d="M93.78,285.116a58.489,58.489,0,0,0-3.174-5.34,56.836,56.836,0,0,0-3.594-5.069,17.687,17.687,0,0,0,6.768,10.409" transform="translate(-87.011 -173.56)" fill="#a5b1c7"/>
                    </g>
                  </g>
                </g>
                <path id="Trazado_599061" data-name="Trazado 599061" d="M58.473,20.4C63.29,8.011,86,3.194,101.828,16.958c7.352,6.393,8.911,17.982,8.476,28.561a5.352,5.352,0,0,1,.94-.377c3.222-.8,6.459,1.624,7.425,4.653a8.734,8.734,0,0,1-1.13,7.264,10.985,10.985,0,0,1-4.992,4.17,14.109,14.109,0,0,1-4.3.424A31.966,31.966,0,0,1,97.708,79.6a28.92,28.92,0,0,1-24.587,6.222c-6.853-1.422-17-5.814-19.513-12.927a18.034,18.034,0,0,1-.739-5.815c-.183-14.991.1-32.521,5.6-46.682" transform="translate(11.688 3.249)" fill="#fab278"/>
                <path id="Trazado_599062" data-name="Trazado 599062" d="M96.593,36.38c0,2.3-.91,4.162-2.033,4.162s-2.032-1.865-2.032-4.162.91-4.161,2.032-4.161,2.033,1.862,2.033,4.161" transform="translate(-20.518 12.126)" fill="#3d1525"/>
                <path id="Trazado_599063" data-name="Trazado 599063" d="M79.741,36.38c0,2.3.91,4.162,2.033,4.162s2.031-1.865,2.031-4.162-.91-4.161-2.031-4.161-2.033,1.862-2.033,4.161" transform="translate(9.871 12.126)" fill="#3d1525"/>
                <path id="Trazado_599064" data-name="Trazado 599064" d="M86.057,49.747a3.345,3.345,0,0,0,2.139.725,3.5,3.5,0,0,0,2.142-.725,10.965,10.965,0,0,1-2.142.239,9.183,9.183,0,0,1-2.139-.239" transform="translate(-5.354 20.672)" fill="#3d1525"/>
                <path id="Trazado_599065" data-name="Trazado 599065" d="M75.839,25.078a4.828,4.828,0,0,1,3.15-1.166,9.689,9.689,0,0,1,3.354.476A8.16,8.16,0,0,1,85.3,26.08a8.587,8.587,0,0,1,2.016,2.583A.973.973,0,0,1,85.8,29.852l-.084-.076a11.949,11.949,0,0,0-2.007-1.594,7.01,7.01,0,0,0-2.216-.91,8.635,8.635,0,0,0-2.4-.233,9.224,9.224,0,0,1-2.567-.149l-.256-.063a1.019,1.019,0,0,1-.436-1.751" transform="translate(12.082 8.998)" fill="#3d1525"/>
                <path id="Trazado_599066" data-name="Trazado 599066" d="M102.647,25.078A4.821,4.821,0,0,0,99.5,23.912a9.69,9.69,0,0,0-3.354.476,8.159,8.159,0,0,0-2.952,1.692,8.586,8.586,0,0,0-2.016,2.583.973.973,0,0,0,1.508,1.189l.083-.076a12.059,12.059,0,0,1,2.007-1.594,7.037,7.037,0,0,1,2.216-.91,8.65,8.65,0,0,1,2.4-.233,9.224,9.224,0,0,0,2.567-.149l.257-.063a1.018,1.018,0,0,0,.434-1.751" transform="translate(-24.883 8.998)" fill="#3d1525"/>
                <path id="Trazado_599067" data-name="Trazado 599067" d="M90.628,30.342c-.359,1.568-.623,3.124-.914,4.667s-.584,3.072-1.021,4.53c-.1.366-.215.725-.345,1.074A3.846,3.846,0,0,0,88,41.956a2.7,2.7,0,0,0,1.459,2.466,3.277,3.277,0,0,0,2.652.142,6.472,6.472,0,0,0,2.1-1.257c-1.459.548-3.163.976-4.19.2a1.6,1.6,0,0,1-.721-1.484A2.97,2.97,0,0,1,89.6,41.1q.235-.584.412-1.175a22.152,22.152,0,0,0,.763-4.787,25.4,25.4,0,0,0-.147-4.8" transform="translate(-11.887 11.419)" fill="#3d1525"/>
                <path id="Trazado_599068" data-name="Trazado 599068" d="M63.2,40.8a3.465,3.465,0,0,0-1.083-2.754,3.227,3.227,0,0,0-3.139-.3,5.907,5.907,0,0,0-2.534,1.848,9.462,9.462,0,0,0-1.576,2.656A.694.694,0,0,0,56.006,43l.045-.047A6.123,6.123,0,0,1,58.38,41.3a1.077,1.077,0,0,1,.979.107,2.582,2.582,0,0,1,.7,1.079c.355.913.568,1.979-.209,2.4a5.226,5.226,0,0,1-3.079.211,4.84,4.84,0,0,0,3.383.453,1.906,1.906,0,0,0,1.195-1.6,4.94,4.94,0,0,0-.2-1.842,3.456,3.456,0,0,0-.984-1.7,2.329,2.329,0,0,0-2.129-.439A6.7,6.7,0,0,0,55,42.019l1.184.7a7.424,7.424,0,0,1,3.195-4,2.6,2.6,0,0,1,2.365-.143A3.465,3.465,0,0,1,63.2,40.8" transform="translate(64.779 14.106)" fill="#3d1525"/>
                <path id="Trazado_599069" data-name="Trazado 599069" d="M54.008,16.169C55.852,9.177,60.71,2.53,67.675.616c4.308-1.184,8.905-.468,13.254.523a110.768,110.768,0,0,1,13.1,3.84c3.207,1.17,6.469,2.56,8.754,5.079s3.345,6.469,1.61,9.414a10.675,10.675,0,0,1,9.1,5.079,19.828,19.828,0,0,1,2.422,10.3,47.9,47.9,0,0,1-2.615,14.92,5.864,5.864,0,0,0-5.185-1.378,54.818,54.818,0,0,1-7.164,4.832,2.216,2.216,0,0,1-3.346-1.992c.317-7.314-.615-15.246-4.249-20.477-4.3-6.194-11.527-3.957-11.527-3.957s-16.516,7.4-24.946-1.2l-3.923,5.595a47.756,47.756,0,0,1,1.046-15.016" transform="translate(14.824 0)" fill="#3d1525"/>
                <g id="Grupo_982635" data-name="Grupo 982635" transform="translate(74.592 1.189)" opacity="0.5" style="mix-blend-mode: screen;isolation: isolate">
                  <g id="Grupo_982634" data-name="Grupo 982634" transform="translate(0)">
                    <g id="Grupo_982633" data-name="Grupo 982633" clip-path="url(#clip-path-7)">
                      <path id="Trazado_599070" data-name="Trazado 599070" d="M68.98,25.047A29.157,29.157,0,0,1,89.931,6.118a21.476,21.476,0,0,0-13.839,5.741A21.506,21.506,0,0,0,68.98,25.047" transform="translate(-56.036 1.113)" fill="#3d1525"/>
                      <path id="Trazado_599071" data-name="Trazado 599071" d="M79.741,25.336a83.287,83.287,0,0,1,4-12.667A32.6,32.6,0,0,1,86.7,6.843a12.418,12.418,0,0,1,4.773-4.377A10.126,10.126,0,0,0,85.843,6.2a23.8,23.8,0,0,0-3.373,5.942,34.7,34.7,0,0,0-2.728,13.192" transform="translate(-72.393 -0.261)" fill="#3d1525"/>
                      <path id="Trazado_599072" data-name="Trazado 599072" d="M87.726,24.748A53.988,53.988,0,0,1,90.341,12.3,54.271,54.271,0,0,1,95.922.864a27.423,27.423,0,0,0-6.882,10.987,27.49,27.49,0,0,0-1.314,12.9" transform="translate(-87.453 -0.864)" fill="#3d1525"/>
                      <path id="Trazado_599073" data-name="Trazado 599073" d="M57.746,17.279a22.352,22.352,0,0,1,7.307,9.133,22.423,22.423,0,0,1,1.441,11.607,16.175,16.175,0,0,0-8.748-20.74" transform="translate(-18.257 5.314)" fill="#3d1525"/>
                      <path id="Trazado_599074" data-name="Trazado 599074" d="M62.249,19.408A40.692,40.692,0,0,1,65.6,28.4a41.022,41.022,0,0,1,1.014,9.545,18.039,18.039,0,0,0,.323-9.86,18.082,18.082,0,0,0-4.691-8.679" transform="translate(-24.31 6.115)" fill="#3d1525"/>
                      <path id="Trazado_599075" data-name="Trazado 599075" d="M54.694,15.694a48.243,48.243,0,0,1,4.827,6.338,49.116,49.116,0,0,1,3.59,7.112,15.192,15.192,0,0,0-2.424-7.84,15.237,15.237,0,0,0-5.993-5.61" transform="translate(-9.553 4.717)" fill="#3d1525"/>
                    </g>
                  </g>
                </g>
                <path id="Trazado_599076" data-name="Trazado 599076" d="M34.954,110c12.251-7.366,19.993-8.69,24.4-20.04.473-1.887,1.068-4.468,1.557-7.252a44.951,44.951,0,0,0,.8-11.286v-.012A9.775,9.775,0,0,0,60.6,67.353L97.483,46.611c-.028.124-.041.234-.069.358-.534,3.131-4.3,25.856-1.453,40.625,3.917,4.944,11.051,10.376,23.614,10.818,5.982.211,11.659,2.254,15.6,6.128,5.394,5.3,9.239,14.9,3.813,31.736-9.668,29.978-17.287,53.634-16.659,67.991l-75.8-.761s-3.58-23.715-8.48-43.456C33.1,140.13,21.032,118.376,34.954,110" transform="translate(22.641 17.542)" fill="#fab278"/>
                <path id="Trazado_599077" data-name="Trazado 599077" d="M64.876,78.942c20.053,2.532,30.211-21.416,30.583-22.311A23.652,23.652,0,0,1,81.145,66.9a39.291,39.291,0,0,1-15.346.785c-.041-.014-.083-.014-.124-.028a44.951,44.951,0,0,1-.8,11.286" transform="translate(18.677 21.313)" fill="#ee9a56"/>
                <path id="Trazado_599078" data-name="Trazado 599078" d="M95.69,76.343S90.529,95.1,73.153,93.547s-14.8-13.592-14.8-13.592S30.314,98.537,27.389,101.634s6.194,74.667,12.9,99.442c0,0,8.946,6.366,29.248.172,0,0,16.344,13.075,40.774,3.957,0,0,12.387,5.85,21.506-2.065l-5.161-35.613,16.688-70.194S132.68,84.945,95.69,76.343" transform="translate(23.158 28.732)" fill="#ffe9c7"/>
                <g id="Grupo_982638" data-name="Grupo 982638" transform="translate(83.027 122.595)" opacity="0.5" style="mix-blend-mode: multiply;isolation: isolate">
                  <g id="Grupo_982637" data-name="Grupo 982637" transform="translate(0)">
                    <g id="Grupo_982636" data-name="Grupo 982636" clip-path="url(#clip-path-8)">
                      <path id="Trazado_599079" data-name="Trazado 599079" d="M95.1,89.072a27.1,27.1,0,0,1-27.882,1.9,21.2,21.2,0,0,0,27.882-1.9" transform="translate(-67.22 -89.072)" fill="#ffe9c7"/>
                    </g>
                  </g>
                </g>
                <path id="Trazado_599080" data-name="Trazado 599080" d="M114.31,190.385s.458,7.112-.688,8.258c-1.043,1.043-17.348,3.318-24.181,1.654a2.764,2.764,0,0,1-2.069-2.389,9.579,9.579,0,0,1,.787-5.229Z" transform="translate(-31.133 71.652)" fill="#6f6087"/>
                <path id="Trazado_599081" data-name="Trazado 599081" d="M115.59,78.968S87.719,96.775,83.934,99.613c-3.585,2.689,5.72,120.17,6.346,135.175a1.825,1.825,0,0,0,1.61,1.74c3.953.475,14.664,1.239,25.143-2.579a1.829,1.829,0,0,0,1.184-1.5c.672-5.584,3.7-30.731,4.77-38.894,1.2-9.2-7.039-90.582-7.226-94.969-.344-8.086.085-9.634-.172-19.613" transform="translate(-34.076 29.72)" fill="#3b3348"/>
                <g id="Grupo_982641" data-name="Grupo 982641" transform="translate(77.098 116.028)" opacity="0.5" style="mix-blend-mode: multiply;isolation: isolate">
                  <g id="Grupo_982640" data-name="Grupo 982640" transform="translate(0)">
                    <g id="Grupo_982639" data-name="Grupo 982639" clip-path="url(#clip-path-9)">
                      <path id="Trazado_599082" data-name="Trazado 599082" d="M88.674,230.195l1.416-10.987,1.368-10.993,2.618-22a.482.482,0,0,0,0-.1v-.011l-1.864-25.468L90.2,135.179c-.655-8.487-1.411-16.966-2.147-25.447S86.524,92.775,85.691,84.3c.468,8.5.959,17,1.537,25.494.562,8.495,1.105,16.99,1.751,25.478l1.888,25.468L92.9,186.2l0-.109-2.2,22.044L89.666,219.16Z" transform="translate(-85.691 -84.301)" fill="#3b3348"/>
                    </g>
                  </g>
                </g>
                <path id="Trazado_599083" data-name="Trazado 599083" d="M107.289,153.134l2.363,2.153,4.267,3.881-6.4,11.7-.1.193c-2.11-.655-4.2-1.361-6.28-2.089,2.009-4.982,4.143-10.38,6.147-15.836" transform="translate(-49.698 57.633)" fill="#d88567"/>
                <path id="Trazado_599084" data-name="Trazado 599084" d="M111.654,161.609a1.273,1.273,0,0,0-.216.233.351.351,0,0,0-.043.255c-2.866,5.631-4.966,11.711-7.688,17.4a166.608,166.608,0,0,1-10.972-15.33l3.229-9.033a41.9,41.9,0,0,1,18.838,1.2,49.826,49.826,0,0,0-3.148,5.27" transform="translate(-39.01 58.172)" fill="#fab278"/>
                <path id="Trazado_599085" data-name="Trazado 599085" d="M109.319,153.655s3.011.6,3.011,1.032c0,.394-3.457,13.173-5.593,16.761a1.486,1.486,0,0,1-1.364.732,6.585,6.585,0,0,1-3.452-1.02Z" transform="translate(-49.182 57.829)" fill="#6f6087"/>
                <path id="Trazado_599086" data-name="Trazado 599086" d="M170.091,78.968s-83.1,47.714-81.491,78.911,54.136,42.9,54.136,42.9,3.9-11.011,6.423-19.269L131.037,164.99l16.975-21.1Z" transform="translate(-88.577 29.72)" fill="#3b3348"/>
                <path id="Trazado_599087" data-name="Trazado 599087" d="M104.118,152.421s-3.5,18.754-12.627,33.289a8.842,8.842,0,0,0,6.551,2.106s9.7-18.567,10.923-33.233c0,0-1-1.767-4.848-2.161" transform="translate(-31.461 57.364)" fill="#6f6087"/>
                <g id="Grupo_982644" data-name="Grupo 982644" transform="translate(7.062 124.941)" opacity="0.5" style="mix-blend-mode: multiply;isolation: isolate">
                  <g id="Grupo_982643" data-name="Grupo 982643" transform="translate(0)">
                    <g id="Grupo_982642" data-name="Grupo 982642" clip-path="url(#clip-path-10)">
                      <path id="Trazado_599088" data-name="Trazado 599088" d="M129.438,143.258a14.135,14.135,0,0,0-12.182-7.844,48.6,48.6,0,0,1,6.428,3.4,47.925,47.925,0,0,1,5.755,4.444" transform="translate(-94.458 -73.978)" fill="#3b3348"/>
                      <path id="Trazado_599089" data-name="Trazado 599089" d="M109.054,90.777a13.964,13.964,0,0,0-4.464,15.386,28.474,28.474,0,0,1,4.464-15.386" transform="translate(-55.57 -90.777)" fill="#3b3348"/>
                      <path id="Trazado_599090" data-name="Trazado 599090" d="M110.708,138.214a45.466,45.466,0,0,0,.661-8.375,45,45,0,0,0-.716-8.371,45.011,45.011,0,0,0-.661,8.375,45.585,45.585,0,0,0,.716,8.371" transform="translate(-66.39 -79.226)" fill="#3b3348"/>
                      <path id="Trazado_599091" data-name="Trazado 599091" d="M125.4,144.581a30.033,30.033,0,0,0-7.681-16.937c1.291,2.882,2.677,5.614,3.932,8.427,1.292,2.8,2.435,5.639,3.749,8.51" transform="translate(-91.058 -76.902)" fill="#3b3348"/>
                      <path id="Trazado_599092" data-name="Trazado 599092" d="M143.332,144.417a17.9,17.9,0,0,0-.563-5.216,17.7,17.7,0,0,0-1.9-4.892,20.038,20.038,0,0,0,2.464,10.108" transform="translate(-140.841 -74.393)" fill="#3b3348"/>
                    </g>
                  </g>
                </g>
                <path id="Trazado_599093" data-name="Trazado 599093" d="M101.444,195.618a34.641,34.641,0,0,1,.509,5.527,4.25,4.25,0,0,1-3.664,4.224c-11.071,1.524-48.466,5.83-66.587-2.577A4.261,4.261,0,0,1,29.38,200.1c-.637-2.25-1.382-6.158-.08-9.3,0,0,40.144,5.505,72.144,4.817" transform="translate(62.135 71.809)" fill="#6f6087"/>
                <path id="Trazado_599094" data-name="Trazado 599094" d="M54.561,75.343s-7.141,22.194-8.861,31.14S27.12,214.183,26.087,232.592c-.951,16.982,63.391,8.928,73.373,7.578a1.528,1.528,0,0,0,1.321-1.491l2.9-141.315S86.906,79.988,54.561,75.343" transform="translate(63.856 28.356)" fill="#3b3348"/>
                <g id="Grupo_982647" data-name="Grupo 982647" transform="translate(94.073 106.165)" opacity="0.5" style="mix-blend-mode: multiply;isolation: isolate">
                  <g id="Grupo_982646" data-name="Grupo 982646">
                    <g id="Grupo_982645" data-name="Grupo 982645" clip-path="url(#clip-path-11)">
                      <path id="Trazado_599095" data-name="Trazado 599095" d="M87.355,77.135c-2.688,12.986-5.227,26-7.745,39.016l-7.383,39.083-7.07,39.139-3.424,19.591-3.281,19.617L62.4,214.086l3.8-19.521,7.381-39.083,7.068-39.141c2.3-13.057,4.579-26.118,6.708-39.207" transform="translate(-58.451 -77.135)" fill="#3b3348"/>
                    </g>
                  </g>
                </g>
                <path id="Trazado_599096" data-name="Trazado 599096" d="M64.148,171.608c.1.323.205.656.307.984-6.476.952-13.018,1.621-19.6,1.937l-3.3-13.144s6.433-3.369,16.724-8.8c1.926,6.349,3.836,12.708,5.874,19.023" transform="translate(81.785 57.426)" fill="#d88567"/>
                <path id="Trazado_599097" data-name="Trazado 599097" d="M54.535,159.625a15.781,15.781,0,0,0-.153-2.1,41,41,0,0,1,14.54,3.521l.849,9.555a163.094,163.094,0,0,1-15.236,12.6Z" transform="translate(58.808 59.286)" fill="#fab278"/>
                <path id="Trazado_599098" data-name="Trazado 599098" d="M56.908,157.718s-2.581.516-3.011,1.376c-.4.794.966,10.1,2.736,14.227a1.529,1.529,0,0,0,1.444.914,11.346,11.346,0,0,0,2.789-.345Z" transform="translate(68.478 59.358)" fill="#6f6087"/>
                <path id="Trazado_599099" data-name="Trazado 599099" d="M42.725,92.944s38.71,54.538,35.727,79.083S2.524,201.39,2.524,201.39.688,192.214,0,183.956l36.7-22.022s-29.362-46.566-31.656-56.2S20.3,77.632,42.725,92.944" transform="translate(124.812 32.776)" fill="#3b3348"/>
                <path id="Trazado_599100" data-name="Trazado 599100" d="M67.983,155.537s-2.409,18.925,1.835,35.555a8.842,8.842,0,0,1-6.882,0s-3.555-20.645-.228-34.981c0,0,1.491-1.376,5.276-.574" transform="translate(49.259 58.443)" fill="#6f6087"/>
                <g id="Grupo_982650" data-name="Grupo 982650" transform="translate(125.271 114.656)" opacity="0.5" style="mix-blend-mode: multiply;isolation: isolate">
                  <g id="Grupo_982649" data-name="Grupo 982649" transform="translate(0)">
                    <g id="Grupo_982648" data-name="Grupo 982648" clip-path="url(#clip-path-12)">
                      <path id="Trazado_599101" data-name="Trazado 599101" d="M51.029,124.135c1.158,2.054,2.365,4.077,3.552,6.111s2.422,4.041,3.635,6.06c2.417,4.044,4.911,8.038,7.413,12.028l.209-.889c-3.011,1.8-6.039,3.572-9.017,5.427l-8.966,5.512c-5.94,3.734-11.871,7.483-17.7,11.4,6.174-3.349,12.248-6.863,18.312-10.393l9.043-5.384c3.025-1.776,6-3.638,8.99-5.47a.635.635,0,0,0,.219-.871l-.01-.017c-2.545-3.964-5.1-7.921-7.727-11.83-1.312-1.956-2.592-3.932-3.935-5.869s-2.652-3.9-4.018-5.816" transform="translate(-30.155 -67.937)" fill="#3b3348"/>
                      <path id="Trazado_599102" data-name="Trazado 599102" d="M34.328,141.107a17.6,17.6,0,0,0-10.9-.308l-.012,0a.675.675,0,0,0-.468.831.683.683,0,0,0,.438.458,15.013,15.013,0,0,1,6.927,4.985,10.657,10.657,0,0,0-6.488-6.265l-.043,1.292a36.072,36.072,0,0,1,10.546-1" transform="translate(12.279 -61.935)" fill="#3b3348"/>
                      <path id="Trazado_599103" data-name="Trazado 599103" d="M7.884,146.982c-.79,1.006-1.327,1.919-1.937,2.83-.582.929-1.193,1.792-1.784,2.929A4.849,4.849,0,0,0,7.1,150.558a4.878,4.878,0,0,0,.782-3.576" transform="translate(64.457 -59.338)" fill="#3b3348"/>
                      <path id="Trazado_599104" data-name="Trazado 599104" d="M63.742,166.02c-2.984.519-5.943,1.076-8.912,1.551-2.972.458-5.936.918-8.917,1.274-2.976.388-5.962.673-8.956.959-1.5.14-3,.255-4.5.355l-4.52.34c1.506.178,3.017.244,4.531.334,1.514.036,3.029.041,4.545.028A86.135,86.135,0,0,0,55.034,168.6a70.58,70.58,0,0,0,8.708-2.585" transform="translate(-24.038 -52.173)" fill="#3b3348"/>
                      <path id="Trazado_599105" data-name="Trazado 599105" d="M53.606,83.3a14.564,14.564,0,0,0-4.115,1.939,18.8,18.8,0,0,0-3.412,3.086,21.7,21.7,0,0,0-4.337,8.1,30.047,30.047,0,0,0-1.089,9.084c.045,1.521.162,3.032.341,4.532.224,1.5.453,2.985.8,4.455-.039-1.508-.134-3.006-.128-4.5-.041-1.495-.039-2.987.044-4.469a37.957,37.957,0,0,1,1.352-8.715A24.688,24.688,0,0,1,46.9,88.99,18.875,18.875,0,0,1,53.606,83.3" transform="translate(-31.382 -83.304)" fill="#3b3348"/>
                    </g>
                  </g>
                </g>
                <path id="Trazado_599106" data-name="Trazado 599106" d="M557.539,165.311c0,2.068-.9,3.744-2,3.744s-2-1.676-2-3.744.894-3.743,2-3.743S557.539,163.244,557.539,165.311Z" transform="translate(-472.698 -100.481)" fill="#3d1525"/>
              </g>
            </g>
          </g>
        </g>
      </g>
    </g>
    <g id="Enmascarar_grupo_424" data-name="Enmascarar grupo 424" transform="translate(39.113 41.958)" clip-path="url(#clip-path-13)">
      <g id="Grupo_982617" data-name="Grupo 982617" transform="translate(3.495 3.75)">
        <g id="Grupo_982616" data-name="Grupo 982616" transform="translate(0)">
          <g id="Grupo_982586" data-name="Grupo 982586" transform="translate(0 36.274)">
            <g id="Grupo_982585" data-name="Grupo 982585">
              <path id="Trazado_599008" data-name="Trazado 599008" d="M468.85,189.573c14.654-30.62,35.48-64.229,64.41-89.471l10.686,8.437S531.1,137.2,516.26,171.092c7.866-3.185,14.527-5.993,19.431-8.227a69.031,69.031,0,0,1,15.2-5.155c13.942-2.724,23.4,11.329,15.436,23.3-3.115,4.708-8.478,9.639-17.461,14.04a571.859,571.859,0,0,1-53.011,23.272q-5.431,2.02-11.167,3.988A16.624,16.624,0,0,1,464.117,199.8Q466.369,194.759,468.85,189.573Z" transform="translate(-459.874 -78.895)" fill="#fab278"/>
              <g id="Grupo_982580" data-name="Grupo 982580" transform="translate(69.475)">
                <path id="Trazado_599009" data-name="Trazado 599009" d="M464.212,110l12.673,13.072a.831.831,0,0,0,1.152-.1l23.412-22.387a.817.817,0,0,0,.143-1.14L488.921,86.374a.833.833,0,0,0-1.153.1l-23.412,22.387A.817.817,0,0,0,464.212,110Z" transform="translate(-464.038 -86.184)" fill="#003d6e"/>
                <path id="Trazado_599010" data-name="Trazado 599010" d="M465.829,108.008l10,10.316a1.3,1.3,0,0,0,1.807-.154l18.888-18.059a1.284,1.284,0,0,0,.224-1.789l-10-10.316a1.3,1.3,0,0,0-1.807.154l-18.888,18.059A1.284,1.284,0,0,0,465.829,108.008Z" transform="translate(-461.609 -85.386)" fill="#ccc"/>
                <path id="Trazado_599011" data-name="Trazado 599011" d="M483.37,104.934a.9.9,0,1,0,1.39-.1A.994.994,0,0,0,483.37,104.934Z" transform="translate(-476.085 -76.54)" fill="#ccc"/>
              </g>
              <g id="Grupo_982584" data-name="Grupo 982584" transform="translate(0 39.8)">
                <path id="Trazado_599012" data-name="Trazado 599012" d="M461.952,200.2a17.865,17.865,0,0,0,22.518,17.266c25.214-6.831,59.256-24.026,75.389-32.59,9.207-4.888,14.319-15.352,11.859-25.479-.111-.5-.251-1.006-.4-1.524-2.11-6.97-8.675-8.367-13.913-8.283a28.061,28.061,0,0,0-9.945,2.1l-28.441,11.483,17.153-34.88.629-1.257,2.514-5.127-26.135-9.6c-1.089,1.1-2.249,2.4-3.451,3.87-.306.363-.614.739-.936,1.131-14.235,17.839-35.718,57.427-44.771,74.566A17.718,17.718,0,0,0,461.952,200.2Z" transform="translate(-461.952 -112.304)" fill="#f7931e"/>
                <g id="Grupo_982581" data-name="Grupo 982581" transform="translate(61.057 42.217)" opacity="0.46">
                  <path id="Trazado_599013" data-name="Trazado 599013" d="M500.314,140.01s-16.423,14.5-10.936,45.485l-6.468,2.955S481.441,154.172,500.314,140.01Z" transform="translate(-482.883 -140.01)" fill="#450d20"/>
                </g>
                <g id="Grupo_982582" data-name="Grupo 982582" transform="translate(46.837 3.87)">
                  <path id="Trazado_599014" data-name="Trazado 599014" d="M485.274,115.975l27.379,10.98.629-1.257L486.21,114.844C485.9,115.207,485.6,115.583,485.274,115.975Z" transform="translate(-485.274 -114.844)" fill="#450d20"/>
                </g>
                <g id="Grupo_982583" data-name="Grupo 982583" transform="translate(40.556 48.801)" opacity="0.46">
                  <path id="Trazado_599015" data-name="Trazado 599015" d="M510.094,146.394l-16.5,26.627,21.615-28.691Z" transform="translate(-493.592 -144.331)" fill="#450d20"/>
                </g>
              </g>
            </g>
            <path id="Trazado_599016" data-name="Trazado 599016" d="M504.05,132.528S477.883,139.737,468.8,154.6c-5.875,9.616.553,45.865,5.821,70.251a89.615,89.615,0,0,1-1.966,45.423c-9.164,29.62-23.079,81.642-18.521,111.864h70.155Z" transform="translate(-400.641 -61.912)" fill="#f7931e"/>
          </g>
          <g id="Grupo_982598" data-name="Grupo 982598" transform="translate(10.532 216.173)">
            <g id="Grupo_982591" data-name="Grupo 982591" transform="translate(70.306)">
              <path id="Trazado_599017" data-name="Trazado 599017" d="M417.258,554.441a2.526,2.526,0,0,1,2.394-.942c16.342,2.115,36.718-11.948,36.718-11.948l2.606-.753h-1.9l-1.862-315.464,32.38-21.087s26.513,23.882,25.814,71.375c-.68,46.2-23.83,253.452-25.088,264.691a40.758,40.758,0,0,1,1.039,15.436,4.9,4.9,0,0,1-4.856,4.193h-64.98a2.456,2.456,0,0,1-1.932-.9C416.007,557.045,416.534,555.439,417.258,554.441Z" transform="translate(-414.707 -204.248)" fill="#b37866"/>
              <g id="Grupo_982588" data-name="Grupo 982588" transform="translate(0 333.817)">
                <path id="Trazado_599018" data-name="Trazado 599018" d="M430.936,440.876a5.116,5.116,0,0,0,.154,1.271.18.18,0,0,0,.014.084c0,.014.014.028.014.041a3.373,3.373,0,0,0,.643,1.313,4.135,4.135,0,0,0,3.268,1.621H503.28a4.075,4.075,0,0,0,3.268-1.621,3.5,3.5,0,0,0,.614-1.2.394.394,0,0,0,.029-.113c.014-.041.014-.084.027-.125a12.656,12.656,0,0,0,.279-1.271c.992-5.56-1.326-12.028-2.109-14.794a.539.539,0,0,0-1.006-.1c-1.55,3.422-5.1,12.013-9.9,8.955-5.95-3.773-5.085-9.682-10.267-10.253-5.182-.6-10.322-3.13-15.966.768-5.3,3.66-23.524,12.041-33.05,11.035a3.531,3.531,0,0,0-3.465,1.635A5.836,5.836,0,0,0,430.936,440.876Z" transform="translate(-430.936 -423.324)" fill="#d13f40"/>
                <g id="Grupo_982587" data-name="Grupo 982587" transform="translate(0 17.551)">
                  <path id="Trazado_599019" data-name="Trazado 599019" d="M431.095,434.843a5.123,5.123,0,0,0,.154,1.271.18.18,0,0,0,.014.084c0,.014.014.027.014.041h76.075c.014-.041.014-.084.027-.125a12.629,12.629,0,0,0,.279-1.271Z" transform="translate(-431.095 -434.843)" fill="#450d20"/>
                </g>
              </g>
              <g id="Grupo_982590" data-name="Grupo 982590" transform="translate(35.173 6.113)">
                <path id="Trazado_599020" data-name="Trazado 599020" d="M414,208.26,415.522,360v.014l1.62,162.543.014,1.4.07,6.509h38.414l.713-6.509.154-1.4,23.956-220.443a158.191,158.191,0,0,0-5.406-62.329c-3.617-12.153-14.96-31.528-14.96-31.528Z" transform="translate(-413.998 -208.26)" fill="#003d6e"/>
                <g id="Grupo_982589" data-name="Grupo 982589" transform="translate(3.143 314.299)">
                  <path id="Trazado_599021" data-name="Trazado 599021" d="M430.361,414.527l.014,1.4h39.2l.154-1.4Z" transform="translate(-430.361 -414.527)" fill="#450d20"/>
                </g>
              </g>
            </g>
            <g id="Grupo_982597" data-name="Grupo 982597" transform="translate(0 6.113)">
              <path id="Trazado_599022" data-name="Trazado 599022" d="M446.315,549.97a2.526,2.526,0,0,1,2.394-.942c16.342,2.115,36.718-11.948,36.718-11.948l3.6-1.039c.521-26.141,4.724-222.071,14.294-265.333,12.55-56.718,39.826-57.922,39.826-57.922L568.512,229.9l-51.03,306.337a40.971,40.971,0,0,1,.934,15.042,4.9,4.9,0,0,1-4.856,4.193h-64.98a2.456,2.456,0,0,1-1.932-.9C445.065,552.574,445.591,550.968,446.315,549.97Z" transform="translate(-443.769 -205.89)" fill="#b37866"/>
              <g id="Grupo_982593" data-name="Grupo 982593" transform="translate(0 327.703)">
                <path id="Trazado_599023" data-name="Trazado 599023" d="M477.076,440.876a5.119,5.119,0,0,0,.154,1.271.179.179,0,0,0,.014.084c0,.014.014.028.014.041a3.373,3.373,0,0,0,.643,1.313,4.135,4.135,0,0,0,3.269,1.621H549.42a4.075,4.075,0,0,0,3.268-1.621,3.5,3.5,0,0,0,.614-1.2.4.4,0,0,0,.029-.113c.014-.041.014-.084.027-.125a12.639,12.639,0,0,0,.279-1.271c.992-5.56-1.326-12.028-2.109-14.794a.539.539,0,0,0-1.006-.1c-1.55,3.422-5.1,12.013-9.9,8.955-5.95-3.773-5.085-9.682-10.267-10.253-5.182-.6-10.322-3.13-15.966.768-5.293,3.66-23.524,12.041-33.05,11.035a3.531,3.531,0,0,0-3.465,1.635A5.837,5.837,0,0,0,477.076,440.876Z" transform="translate(-477.076 -423.324)" fill="#d13f40"/>
                <g id="Grupo_982592" data-name="Grupo 982592" transform="translate(0 17.551)">
                  <path id="Trazado_599024" data-name="Trazado 599024" d="M477.235,434.843a5.119,5.119,0,0,0,.154,1.271.18.18,0,0,0,.014.084c0,.014.014.027.014.041h76.075c.014-.041.014-.084.027-.125a12.637,12.637,0,0,0,.279-1.271Z" transform="translate(-477.235 -434.843)" fill="#450d20"/>
                </g>
              </g>
              <g id="Grupo_982596" data-name="Grupo 982596" transform="translate(42.968)">
                <path id="Trazado_599025" data-name="Trazado 599025" d="M441.069,530.465h36.318l1.062-6.509.224-1.4L505.1,360.017V360L529.771,208.26H473.8C459.4,232.579,449.45,319.074,448.4,343.171c-.908,20.9-5.755,146.464-7.026,179.389-.029.488-.043.949-.056,1.4C441.153,528.119,441.069,530.465,441.069,530.465Z" transform="translate(-441.069 -208.26)" fill="#003d6e"/>
                <g id="Grupo_982594" data-name="Grupo 982594" transform="translate(0.251 314.3)">
                  <path id="Trazado_599026" data-name="Trazado 599026" d="M474.6,415.924h37.129l.224-1.4h-37.3C474.63,415.016,474.617,415.477,474.6,415.924Z" transform="translate(-474.603 -414.528)" fill="#450d20"/>
                </g>
                <g id="Grupo_982595" data-name="Grupo 982595" transform="translate(61.224 87.991)">
                  <path id="Trazado_599027" data-name="Trazado 599027" d="M460.067,329.737V266.007l-2.807,8.433Z" transform="translate(-457.26 -266.007)" fill="#450d20"/>
                </g>
              </g>
            </g>
          </g>
          <g id="Grupo_982606" data-name="Grupo 982606" transform="translate(85.481)">
            <path id="Trazado_599028" data-name="Trazado 599028" d="M433.694,110.877c.419-11.035,1.76-22.391,5.56-32.156,4.89-12.572,27.938-17.461,44-3.492,7.463,6.485,9.048,18.245,8.606,28.986a5.53,5.53,0,0,1,.952-.382c3.272-.815,6.557,1.649,7.535,4.724a8.852,8.852,0,0,1-1.146,7.372,11.147,11.147,0,0,1-5.065,4.233,14.363,14.363,0,0,1-4.356.431,32.44,32.44,0,0,1-10.7,18.209,29.34,29.34,0,0,1-24.962,6.314c-6.942-1.438-17.237-5.9-19.794-13.118a18.17,18.17,0,0,1-.754-5.894c-.014-.462-.014-.922-.014-1.4C433.512,120.251,433.512,115.6,433.694,110.877Z" transform="translate(-432.504 -60.073)" fill="#fab278"/>
            <g id="Grupo_982605" data-name="Grupo 982605" transform="translate(1.027 28.045)">
              <g id="Grupo_982599" data-name="Grupo 982599" transform="translate(0 22.548)">
                <path id="Trazado_599029" data-name="Trazado 599029" d="M471.742,109.621a7.207,7.207,0,0,0,1.83.238,7.138,7.138,0,0,0,0-14.276,6.812,6.812,0,0,0-1.691.209C471.7,100.514,471.7,105.166,471.742,109.621Z" transform="translate(-471.719 -95.581)" fill="#ee9a56"/>
                <path id="Trazado_599030" data-name="Trazado 599030" d="M462.673,102.724a7.142,7.142,0,1,1-7.142-7.142A7.141,7.141,0,0,1,462.673,102.724Z" transform="translate(-418.133 -95.582)" fill="#ee9a56"/>
              </g>
              <g id="Grupo_982602" data-name="Grupo 982602" transform="translate(6.456 9.915)">
                <g id="Grupo_982600" data-name="Grupo 982600" transform="translate(0 0)">
                  <path id="Trazado_599031" data-name="Trazado 599031" d="M473.374,92.625c0,2.333-.923,4.222-2.063,4.222s-2.063-1.889-2.063-4.222.923-4.222,2.063-4.222S473.374,90.294,473.374,92.625Z" transform="translate(-467.074 -86.709)" fill="#450d20"/>
                  <path id="Trazado_599032" data-name="Trazado 599032" d="M470.423,87.649a6.044,6.044,0,0,0,1.4,1.8,4.906,4.906,0,0,0,2.158,1.117l.035.008a.763.763,0,1,0,.343-1.487.833.833,0,0,0-.2-.02,4.457,4.457,0,0,1-3.31-1.675l-.014-.017a.246.246,0,0,0-.407.271Z" transform="translate(-470.396 -87.291)" fill="#450d20"/>
                </g>
                <g id="Grupo_982601" data-name="Grupo 982601" transform="translate(20.038)">
                  <path id="Trazado_599033" data-name="Trazado 599033" d="M457.525,92.625c0,2.333.923,4.222,2.063,4.222s2.062-1.889,2.062-4.222-.923-4.222-2.062-4.222S457.525,90.294,457.525,92.625Z" transform="translate(-457.525 -86.709)" fill="#450d20"/>
                  <path id="Trazado_599034" data-name="Trazado 599034" d="M460.2,87.395a4.454,4.454,0,0,1-3.308,1.675.763.763,0,1,0,.137,1.509l.038-.009a4.912,4.912,0,0,0,2.159-1.117,6.045,6.045,0,0,0,1.4-1.8.247.247,0,0,0-.407-.273Z" transform="translate(-454.347 -87.291)" fill="#450d20"/>
                </g>
              </g>
              <g id="Grupo_982603" data-name="Grupo 982603" transform="translate(11.881 28.607)">
                <path id="Trazado_599035" data-name="Trazado 599035" d="M459.658,99.558a10.1,10.1,0,0,0,3.108,3.535,7.882,7.882,0,0,0,4.617,1.533,7.993,7.993,0,0,0,4.6-1.586,14.97,14.97,0,0,0,1.78-1.585c.486-.625.96-1.249,1.385-1.9-.637.466-1.217.963-1.8,1.445-.649.395-1.228.879-1.886,1.21a8.519,8.519,0,0,1-4.078,1.16,8.331,8.331,0,0,1-4.1-1.106A17.8,17.8,0,0,1,459.658,99.558Z" transform="translate(-459.658 -99.558)" fill="#450d20"/>
                <path id="Trazado_599036" data-name="Trazado 599036" d="M463.315,104.471a3.389,3.389,0,0,0,2.171.736,3.542,3.542,0,0,0,2.173-.736,11.128,11.128,0,0,1-2.173.244A9.284,9.284,0,0,1,463.315,104.471Z" transform="translate(-457.744 -96.985)" fill="#450d20"/>
              </g>
              <g id="Grupo_982604" data-name="Grupo 982604" transform="translate(2.702)">
                <path id="Trazado_599037" data-name="Trazado 599037" d="M453.983,81.971a4.891,4.891,0,0,1,3.2-1.184,9.859,9.859,0,0,1,3.4.483,8.306,8.306,0,0,1,3,1.717,8.739,8.739,0,0,1,2.046,2.622.988.988,0,0,1-1.531,1.207l-.084-.076a12.124,12.124,0,0,0-2.036-1.618,7.162,7.162,0,0,0-2.249-.923,8.706,8.706,0,0,0-2.438-.236,9.368,9.368,0,0,1-2.6-.151l-.261-.064a1.033,1.033,0,0,1-.44-1.777Z" transform="translate(-431.906 -80.784)" fill="#450d20"/>
                <path id="Trazado_599038" data-name="Trazado 599038" d="M479.662,81.971a4.892,4.892,0,0,0-3.2-1.184,9.855,9.855,0,0,0-3.4.483,8.292,8.292,0,0,0-3,1.717,8.736,8.736,0,0,0-2.046,2.622.988.988,0,0,0,1.531,1.207l.082-.076a12.191,12.191,0,0,1,2.037-1.618,7.161,7.161,0,0,1,2.249-.923,8.7,8.7,0,0,1,2.436-.236,9.376,9.376,0,0,0,2.606-.151l.261-.064a1.033,1.033,0,0,0,.44-1.777Z" transform="translate(-467.894 -80.784)" fill="#450d20"/>
              </g>
              <path id="Trazado_599039" data-name="Trazado 599039" d="M465.346,86.94c-.364,1.591-.634,3.172-.928,4.737s-.593,3.118-1.036,4.6c-.1.372-.218.738-.35,1.089a3.913,3.913,0,0,0-.358,1.364,2.748,2.748,0,0,0,1.481,2.5,3.329,3.329,0,0,0,2.692.143,6.563,6.563,0,0,0,2.132-1.275c-1.481.556-3.21.99-4.253.2a1.626,1.626,0,0,1-.731-1.505,3.012,3.012,0,0,1,.309-.937c.158-.4.3-.794.418-1.193a22.345,22.345,0,0,0,.774-4.859A25.621,25.621,0,0,0,465.346,86.94Z" transform="translate(-446.199 -77.56)" fill="#450d20"/>
              <path id="Trazado_599040" data-name="Trazado 599040" d="M443.974,96.853a3.519,3.519,0,0,0-1.1-2.795,3.274,3.274,0,0,0-3.186-.306,6.005,6.005,0,0,0-2.572,1.876,9.618,9.618,0,0,0-1.6,2.7.7.7,0,0,0,1.153.757l.047-.047a6.208,6.208,0,0,1,2.363-1.672,1.1,1.1,0,0,1,.994.108,2.641,2.641,0,0,1,.71,1.1c.36.926.576,2.01-.213,2.438a5.272,5.272,0,0,1-3.125.213,4.912,4.912,0,0,0,3.435.462,1.934,1.934,0,0,0,1.211-1.62,5,5,0,0,0-.2-1.87,3.525,3.525,0,0,0-1-1.725,2.365,2.365,0,0,0-2.161-.445,6.79,6.79,0,0,0-3.078,2.071l1.2.71a7.548,7.548,0,0,1,3.241-4.058,2.652,2.652,0,0,1,2.4-.145A3.525,3.525,0,0,1,443.974,96.853Z" transform="translate(-379.743 -74.133)" fill="#450d20"/>
            </g>
            <path id="Trazado_599041" data-name="Trazado 599041" d="M489.717,106.519s-2.862,8.038-10.153,6.453-9.312-16.863-6.576-26.2c0,0-4.919-.655-6.285,6.592,0,0-18.291,4.213-32.223-4.484,0,0-1.722,9.77-1.786,10.247a19.077,19.077,0,0,1-1.868-13.185c1.725-7.245,9.5-18.989,23.246-22.262s28.354-.1,34.67,6.733S496,78.3,498.564,90.086s8.16,22.107,2.155,31.744-14.409,10.119-14.409,10.119l1.356-9.139s7.241,1.134,10.058-7.056C500.519,107.634,492.281,105.015,489.717,106.519Z" transform="translate(-430.357 -62.378)" fill="#450d20"/>
            <path id="Trazado_599042" data-name="Trazado 599042" d="M419.826,69.429s2.132-8.271,16.793-3.669,20.243,29.038,15.943,42.41-12.31,30.638,1.411,43.093c0,0-9.359,8.879-22.5-.507s-12.091-13.112-12.091-13.112l.75-6.736s16.246-6.54,15.2-18S419.826,69.429,419.826,69.429Z" transform="translate(-364.182 -61.337)" fill="#450d20"/>
          </g>
          <g id="Grupo_982615" data-name="Grupo 982615" transform="translate(71.319 59.759)">
            <g id="Grupo_982607" data-name="Grupo 982607" transform="translate(3.544)">
              <path id="Trazado_599043" data-name="Trazado 599043" d="M432.528,159.31c8-4.81,13.525-6.561,17.442-11.288.424-1.531,1.449-5.406,2.217-9.785A45.618,45.618,0,0,0,453,126.783v-.015a9.918,9.918,0,0,0-1.131-4.12L489.3,101.6c-.029.125-.043.236-.07.363-.593,3.477-5.111,30.771-.472,45.234a27.388,27.388,0,0,0,10.567,2.347,19.223,19.223,0,0,1,12.53,4.98c4.71,4.426,8.755,12.729,6.1,28.24-5.312,31.022-18.514,58.346-16.478,77.249l-62.935.821s-10.06-31.423-14.777-52.265S420.311,166.652,432.528,159.31Z" transform="translate(-421.224 -101.597)" fill="#fab278"/>
              <path id="Trazado_599044" data-name="Trazado 599044" d="M444.572,133.426c20.353,2.571,30.661-21.736,31.039-22.644A24,24,0,0,1,461.083,121.2a39.857,39.857,0,0,1-15.576.8c-.043-.014-.084-.014-.126-.027A45.618,45.618,0,0,1,444.572,133.426Z" transform="translate(-413.609 -96.786)" fill="#ee9a56"/>
            </g>
            <g id="Grupo_982610" data-name="Grupo 982610" transform="translate(2.997 45.601)">
              <path id="Trazado_599045" data-name="Trazado 599045" d="M488.468,131.524s-13.354,29.033-27.789,24.378-11-23.554-11-23.554-3.028,1.8-6.391,3.812a64.819,64.819,0,0,1-9.121,4.413c-6.573,2.651-20.088,13.455-10.389,57.119,5.8,26.117,10.95,50.757,10.95,50.757h70.719s-5.133-10.137.157-29.225C509.85,203.9,522.438,172,519.288,151.157a21.158,21.158,0,0,0-19.269-18.087c-.087-.006-.174-.012-.261-.017C491.142,132.551,488.468,131.524,488.468,131.524Z" transform="translate(-420.386 -131.524)" fill="#e6e6e6"/>
              <g id="Grupo_982608" data-name="Grupo 982608" transform="translate(16.487 61.845)" opacity="0.58">
                <rect id="Rectángulo_338292" data-name="Rectángulo 338292" width="26.231" height="1.397" transform="translate(18.548 19.536) rotate(-135)" fill="#450d20"/>
              </g>
              <g id="Grupo_982609" data-name="Grupo 982609" transform="translate(10.479 63.314)" opacity="0.58">
                <rect id="Rectángulo_338293" data-name="Rectángulo 338293" width="34.041" height="1.397" transform="translate(24.07 25.058) rotate(-135)" fill="#450d20"/>
              </g>
            </g>
            <g id="Grupo_982614" data-name="Grupo 982614" transform="translate(0 45.587)">
              <path id="Trazado_599046" data-name="Trazado 599046" d="M431.007,133.059s-20.65,29.949-23.792,45.664c-2.686,13.429,8.653,152.823,12.009,193.1a11.827,11.827,0,0,0,11.788,10.843h50.937s4.745-68.451-14.317-113.094a100.457,100.457,0,0,1-6.066-60.224c4.212-19.985,7.149-44,2-59.949a25.584,25.584,0,0,0-22.235-17.825,22.723,22.723,0,0,0-2.458-.047C431.43,131.8,431.007,133.059,431.007,133.059Z" transform="translate(-359.385 -131.515)" fill="#f7931e"/>
              <g id="Grupo_982613" data-name="Grupo 982613" transform="translate(0 3.518)">
                <path id="Trazado_599047" data-name="Trazado 599047" d="M422.039,338.128a44.793,44.793,0,0,1,13.825-11.1c1.28-3.9,42.779-130.33,51.852-167.679a69.228,69.228,0,0,1,5.333-15.137c6.465-12.652,23.361-11.414,27.865,2.238,1.768,5.361,2.345,12.626.259,22.413C514.559,199.9,497.214,280.78,447.342,334.4l-.059-.038c-.428,6.209-1.751,20.9-4.92,26.452a.577.577,0,0,1-1.061-.067c-.448-1.019-.826-3.383.12-8.827,0,0-4.784,10.709-6.762,11.465s2.173-13.72,2.173-13.72-6.662,11.465-8.6,11.392S432.1,347.19,432.1,347.19s-7.544,11.417-8.373,10.663c-2.063-1.877,8.1-18.2,6.27-19.083-1.618-.783-5.487,1.966-7.215,3.71a.8.8,0,0,1-1.24-.072C420.923,341.588,420.341,340.081,422.039,338.128Z" transform="translate(-420.922 -132.986)" fill="#b37866"/>
                <path id="Trazado_599048" data-name="Trazado 599048" d="M420.455,313.71c-.949,5.936,35.5,12.265,35.5,12.265s.643-1.733,1.787-4.847c.14-.419.308-.867.475-1.327,9.261-25.383,44.044-121.432,48.458-145.78,0,0,6.244-31.612-9.821-38.595s-21.651,10.838-23.4,15.728c-1.579,4.414-42.648,128.29-51.391,156.885-.14.474-.267.922-.392,1.341C420.958,311.712,420.539,313.221,420.455,313.71Z" transform="translate(-405.545 -133.824)" fill="#f7931e"/>
                <g id="Grupo_982611" data-name="Grupo 982611" transform="translate(73.148 44.701)" opacity="0.53">
                  <path id="Trazado_599049" data-name="Trazado 599049" d="M448.867,163.16l-27.011,84.027S447.467,199.175,448.867,163.16Z" transform="translate(-421.856 -163.16)" fill="#450d20"/>
                </g>
                <g id="Grupo_982612" data-name="Grupo 982612" transform="translate(16.126 174.215)">
                  <path id="Trazado_599050" data-name="Trazado 599050" d="M453.023,249.5l36.067,11.748c.14-.419.308-.867.475-1.327l-36.151-11.762C453.274,248.631,453.148,249.079,453.023,249.5Z" transform="translate(-453.023 -248.157)" fill="#450d20"/>
                </g>
              </g>
            </g>
          </g>
        </g>
      </g>
    </g>
    <g id="Grupo_982618" data-name="Grupo 982618" transform="translate(389.304 -4.857)">
      <path id="Trazado_599051" data-name="Trazado 599051" d="M230.447,47.824H298.79c18.66,0,33.787-8.291,33.787-18.518V18.519C332.577,8.292,317.45,0,298.79,0H230.447c-18.66,0-33.786,8.291-33.786,18.518V29.306c0,10.227,15.126,18.518,33.786,18.518" transform="translate(-196.661 0.87)" fill="#fed947"/>
      <path id="Trazado_599052" data-name="Trazado 599052" d="M230.776,59l-8.43,10.652a1.367,1.367,0,0,1-2.394-1.2l2.959-11.138Z" transform="translate(-205.312 -14.444)" fill="#fed947"/>
      <path id="Trazado_599186" data-name="Trazado 599186" d="M-27.289-3.229q.174-.988-.971-1.511l-1.6-.639q-2.789-1.245-2.648-3.428a3.149,3.149,0,0,1,.664-1.793,3.993,3.993,0,0,1,1.7-1.224,6.025,6.025,0,0,1,2.366-.427,4.1,4.1,0,0,1,2.831,1.042,3.472,3.472,0,0,1,1.063,2.7h-2.424a1.729,1.729,0,0,0-.361-1.278,1.627,1.627,0,0,0-1.249-.473,2.518,2.518,0,0,0-1.444.378,1.549,1.549,0,0,0-.73,1.083q-.158.9,1.212,1.436l1.1.415.631.291q2.449,1.212,2.291,3.4a3.284,3.284,0,0,1-.685,1.847A3.86,3.86,0,0,1-27.21-.216a5.913,5.913,0,0,1-2.312.39,5.178,5.178,0,0,1-2.291-.54A3.558,3.558,0,0,1-33.34-1.818,3.762,3.762,0,0,1-33.8-3.81l2.432.008q-.116,1.967,1.934,2a2.541,2.541,0,0,0,1.461-.39A1.519,1.519,0,0,0-27.289-3.229ZM-20.3-7.985a3.13,3.13,0,0,1,2.432-1.162,2.277,2.277,0,0,1,1.963.959,3.769,3.769,0,0,1,.469,2.528L-16.382,0h-2.341l.955-5.693a2.759,2.759,0,0,0,.017-.6A.941.941,0,0,0-18.8-7.213a2.022,2.022,0,0,0-1.66.814L-21.586,0h-2.341l2.208-12.75h2.349ZM-10.289.166a3.907,3.907,0,0,1-2.088-.577,3.5,3.5,0,0,1-1.357-1.561,4.349,4.349,0,0,1-.349-2.187l.025-.332A5.806,5.806,0,0,1-13.294-6.9,4.613,4.613,0,0,1-11.65-8.587a4.066,4.066,0,0,1,2.225-.56A3.107,3.107,0,0,1-6.8-7.871a4.374,4.374,0,0,1,.677,3.147L-6.255-3.7h-5.5a1.927,1.927,0,0,0,.423,1.395,1.616,1.616,0,0,0,1.245.54,2.872,2.872,0,0,0,2.241-1l1.071,1.328A3.331,3.331,0,0,1-8.239-.245,4.778,4.778,0,0,1-10.289.166Zm.747-7.379a1.663,1.663,0,0,0-1.15.407,3.573,3.573,0,0,0-.9,1.469h3.221l.05-.216a2.2,2.2,0,0,0,.008-.631,1.2,1.2,0,0,0-.407-.751A1.275,1.275,0,0,0-9.542-7.213ZM3.839-2.532q.133-.664-.921-.963l-.755-.191Q-.519-4.424-.444-6.292A2.579,2.579,0,0,1,.681-8.363a4.188,4.188,0,0,1,2.611-.784,3.757,3.757,0,0,1,2.457.805,2.653,2.653,0,0,1,.955,2.1L4.379-6.25a1.024,1.024,0,0,0-1.146-1.17,1.648,1.648,0,0,0-.95.274,1.128,1.128,0,0,0-.494.739q-.125.664,1,.938l.332.075a6.678,6.678,0,0,1,1.751.627,2.643,2.643,0,0,1,.934.876,2.167,2.167,0,0,1,.3,1.253,2.392,2.392,0,0,1-.552,1.494,3.379,3.379,0,0,1-1.444.988,5.032,5.032,0,0,1-1.93.324A3.791,3.791,0,0,1-.3-.693,2.77,2.77,0,0,1-1.316-2.872l2.208.017a1.214,1.214,0,0,0,1.378,1.3,1.96,1.96,0,0,0,1.067-.266A1.049,1.049,0,0,0,3.839-2.532ZM12.389,0A2.423,2.423,0,0,1,12.3-.813a3.042,3.042,0,0,1-2.291.979A2.756,2.756,0,0,1,8.052-.6a2.323,2.323,0,0,1-.726-1.855A2.685,2.685,0,0,1,8.558-4.711a5.6,5.6,0,0,1,3.15-.784l1.1.017.116-.54a1.874,1.874,0,0,0,.025-.523.9.9,0,0,0-.295-.61,1.015,1.015,0,0,0-.668-.228,1.43,1.43,0,0,0-.93.27,1.308,1.308,0,0,0-.49.826l-2.349.008A2.611,2.611,0,0,1,9.4-8.363a4.581,4.581,0,0,1,2.777-.784,3.312,3.312,0,0,1,2.391.909,2.659,2.659,0,0,1,.722,2.254l-.689,4.3-.042.531a2.563,2.563,0,0,0,.141,1L14.688,0Zm-1.8-1.652a2.144,2.144,0,0,0,1.768-.88l.291-1.552-.813-.008A2.273,2.273,0,0,0,9.965-3.3a1.373,1.373,0,0,0-.257.672.8.8,0,0,0,.187.71A.946.946,0,0,0,10.588-1.652ZM18.59,0H16.232l1.561-8.981H20.15Zm-.523-11.264a1.169,1.169,0,0,1,.365-.921,1.285,1.285,0,0,1,.921-.365,1.291,1.291,0,0,1,.921.324,1.164,1.164,0,0,1,.407.88,1.2,1.2,0,0,1-.344.9,1.291,1.291,0,0,1-.942.4,1.313,1.313,0,0,1-.917-.315A1.159,1.159,0,0,1,18.067-11.264Zm6.964,2.108a2.556,2.556,0,0,1,2.025,1l.88-4.6h2.349L28.077,0H25.986l.133-.963A2.907,2.907,0,0,1,23.778.174a2.585,2.585,0,0,1-1.469-.44,2.77,2.77,0,0,1-.975-1.241,5,5,0,0,1-.378-1.805,6.8,6.8,0,0,1,.025-1.013l.05-.374A7.19,7.19,0,0,1,21.8-7.122a4,4,0,0,1,1.395-1.552A3.288,3.288,0,0,1,25.031-9.156Zm-1.7,4.831a6.722,6.722,0,0,0-.042,1.063q.083,1.461,1.179,1.486a2,2,0,0,0,1.718-.93l.639-3.569a1.326,1.326,0,0,0-1.295-.93,1.706,1.706,0,0,0-1.424.66A4.437,4.437,0,0,0,23.329-4.325ZM-39.337,16.468q.133-.664-.921-.963l-.755-.191q-2.681-.739-2.606-2.606A2.579,2.579,0,0,1-42.5,10.637a4.188,4.188,0,0,1,2.611-.784,3.757,3.757,0,0,1,2.457.805,2.653,2.653,0,0,1,.955,2.1L-38.8,12.75a1.024,1.024,0,0,0-1.146-1.17,1.648,1.648,0,0,0-.95.274,1.128,1.128,0,0,0-.494.739q-.125.664,1,.938l.332.075a6.678,6.678,0,0,1,1.751.627,2.643,2.643,0,0,1,.934.876,2.167,2.167,0,0,1,.3,1.253,2.392,2.392,0,0,1-.552,1.494,3.379,3.379,0,0,1-1.444.988,5.032,5.032,0,0,1-1.93.324,3.791,3.791,0,0,1-2.49-.859,2.77,2.77,0,0,1-1.013-2.179l2.208.017a1.214,1.214,0,0,0,1.378,1.3,1.96,1.96,0,0,0,1.067-.266A1.049,1.049,0,0,0-39.337,16.468Zm6.923-5.454a3.13,3.13,0,0,1,2.432-1.162,2.277,2.277,0,0,1,1.963.959,3.769,3.769,0,0,1,.469,2.528L-28.5,19h-2.341l.955-5.693a2.759,2.759,0,0,0,.017-.6.941.941,0,0,0-1.046-.922,2.022,2.022,0,0,0-1.66.814L-33.7,19h-2.341l2.208-12.75h2.349ZM-22.4,19.166a3.907,3.907,0,0,1-2.088-.577,3.5,3.5,0,0,1-1.357-1.561,4.349,4.349,0,0,1-.349-2.187l.025-.332a5.806,5.806,0,0,1,.764-2.407,4.613,4.613,0,0,1,1.644-1.689,4.066,4.066,0,0,1,2.225-.56,3.107,3.107,0,0,1,2.627,1.276,4.374,4.374,0,0,1,.677,3.147L-18.37,15.3h-5.5a1.927,1.927,0,0,0,.423,1.395,1.616,1.616,0,0,0,1.245.54,2.872,2.872,0,0,0,2.241-1l1.071,1.328a3.331,3.331,0,0,1-1.461,1.191A4.777,4.777,0,0,1-22.4,19.166Zm.747-7.379a1.663,1.663,0,0,0-1.15.407,3.573,3.573,0,0,0-.9,1.469h3.221l.05-.216a2.2,2.2,0,0,0,.008-.631,1.2,1.2,0,0,0-.407-.751A1.275,1.275,0,0,0-21.657,11.787ZM-11.007,19h-2.357l2.216-12.75H-8.8Zm4.458,0H-8.907l1.561-8.981h2.357ZM-7.072,7.736a1.169,1.169,0,0,1,.365-.921,1.285,1.285,0,0,1,.921-.365,1.291,1.291,0,0,1,.921.324,1.164,1.164,0,0,1,.407.88,1.2,1.2,0,0,1-.344.9,1.291,1.291,0,0,1-.942.4,1.313,1.313,0,0,1-.917-.315A1.159,1.159,0,0,1-7.072,7.736Zm6.392,7.687-1.087.946L-2.225,19H-4.565L-2.357,6.25H-.008L-1.22,13.173l.457-.49L1.9,10.019h3L.979,13.878,3.478,19H.913Zm9.272,3.744A3.907,3.907,0,0,1,6.5,18.589a3.5,3.5,0,0,1-1.357-1.561A4.349,4.349,0,0,1,4.8,14.841l.025-.332A5.806,5.806,0,0,1,5.586,12.1,4.613,4.613,0,0,1,7.23,10.413a4.066,4.066,0,0,1,2.225-.56,3.107,3.107,0,0,1,2.627,1.276,4.374,4.374,0,0,1,.677,3.147L12.625,15.3h-5.5a1.927,1.927,0,0,0,.423,1.395,1.616,1.616,0,0,0,1.245.54,2.872,2.872,0,0,0,2.241-1L12.1,17.564a3.331,3.331,0,0,1-1.461,1.191A4.777,4.777,0,0,1,8.591,19.166Zm.747-7.379a1.663,1.663,0,0,0-1.15.407,3.573,3.573,0,0,0-.9,1.469h3.221l.05-.216a2.2,2.2,0,0,0,.008-.631,1.2,1.2,0,0,0-.407-.751A1.275,1.275,0,0,0,9.338,11.787ZM21.325,15.58l2.565-5.562H26.5L21.242,20.353A4.5,4.5,0,0,1,19.918,22.1a2.893,2.893,0,0,1-1.756.556,5.35,5.35,0,0,1-1.129-.174l.174-1.826.324.017a1.755,1.755,0,0,0,1.677-.838l.515-.955-1.469-8.857h2.424Zm9.687-5.728a3.6,3.6,0,0,1,2.046.61A3.436,3.436,0,0,1,34.32,12.1a5.059,5.059,0,0,1,.286,2.312,5.465,5.465,0,0,1-1.49,3.466,4.207,4.207,0,0,1-3.208,1.291,3.592,3.592,0,0,1-2.025-.6,3.423,3.423,0,0,1-1.262-1.623,4.948,4.948,0,0,1-.291-2.291,5.626,5.626,0,0,1,1.511-3.536A4.12,4.12,0,0,1,31.012,9.853ZM28.646,15.5a2.072,2.072,0,0,0,.374,1.256,1.241,1.241,0,0,0,1,.477,1.819,1.819,0,0,0,1.693-.99,4.937,4.937,0,0,0,.573-2.69A2.254,2.254,0,0,0,31.9,12.28a1.221,1.221,0,0,0-1.009-.493,1.822,1.822,0,0,0-1.673.982A4.886,4.886,0,0,0,28.646,15.5ZM40.84,18.07a3.1,3.1,0,0,1-2.474,1.1,2.308,2.308,0,0,1-1.959-.93,3.4,3.4,0,0,1-.515-2.407l.971-5.811H39.2l-.988,5.842a2.31,2.31,0,0,0-.008.515.854.854,0,0,0,.921.856,2.14,2.14,0,0,0,1.8-.839l1.121-6.374h2.357L42.849,19H40.666Z" transform="translate(71.026 21.871)" fill="#12263f"/>
    </g>
    <g id="Grupo_982620" data-name="Grupo 982620" transform="translate(7.265 21.01)">
      <path id="Trazado_599053" data-name="Trazado 599053" d="M271.6,41.8h-50.15c-13.693,0-24.793-7.247-24.793-16.187v-9.43c0-8.94,11.1-16.187,24.793-16.187H271.6C285.3,0,296.4,7.248,296.4,16.188v9.43c0,8.939-11.1,16.187-24.792,16.187" transform="translate(-196.661 30.722)" fill="#3c3fa7"/>
      <path id="Trazado_599054" data-name="Trazado 599054" d="M219.9,59l8.43,10.652a1.367,1.367,0,0,0,2.394-1.2l-2.959-11.138Z" transform="translate(-145.63 9.387)" fill="#3c3fa7"/>
      <path id="Trazado_599185" data-name="Trazado 599185" d="M-37.507,0h-2.432l2.092-12.086h2.432Zm8.815,0h-2.357l2.216-12.75h2.349Zm4.458,0h-2.357l1.561-8.981h2.357Zm-.523-11.264a1.169,1.169,0,0,1,.365-.921,1.285,1.285,0,0,1,.921-.365,1.291,1.291,0,0,1,.921.324,1.164,1.164,0,0,1,.407.88,1.2,1.2,0,0,1-.344.9,1.291,1.291,0,0,1-.942.4,1.313,1.313,0,0,1-.917-.315A1.159,1.159,0,0,1-24.757-11.264Zm6.392,7.687-1.087.946L-19.909,0H-22.25l2.208-12.75h2.349l-1.212,6.923.457-.49,2.665-2.665h3l-3.926,3.86L-14.207,0h-2.565ZM-9.094.166a3.907,3.907,0,0,1-2.088-.577,3.5,3.5,0,0,1-1.357-1.561,4.349,4.349,0,0,1-.349-2.187l.025-.332A5.806,5.806,0,0,1-12.1-6.9a4.613,4.613,0,0,1,1.644-1.689,4.066,4.066,0,0,1,2.225-.56A3.107,3.107,0,0,1-5.6-7.871a4.374,4.374,0,0,1,.677,3.147L-5.059-3.7h-5.5a1.927,1.927,0,0,0,.423,1.395,1.616,1.616,0,0,0,1.245.54,2.872,2.872,0,0,0,2.241-1l1.071,1.328A3.331,3.331,0,0,1-7.043-.245,4.778,4.778,0,0,1-9.094.166Zm.747-7.379a1.663,1.663,0,0,0-1.15.407,3.573,3.573,0,0,0-.9,1.469h3.221l.05-.216a2.2,2.2,0,0,0,.008-.631,1.2,1.2,0,0,0-.407-.751A1.275,1.275,0,0,0-8.346-7.213Zm11.5,2.955L2.411,0H-.021l2.1-12.086,4.233.008a4.235,4.235,0,0,1,3.08,1.087,3.372,3.372,0,0,1,.979,2.839A3.816,3.816,0,0,1,8.89-5.312,5.392,5.392,0,0,1,5.449-4.25ZM3.5-6.275l2.025.017a2.561,2.561,0,0,0,1.627-.506,2.038,2.038,0,0,0,.772-1.37,1.749,1.749,0,0,0-.278-1.378,1.506,1.506,0,0,0-1.191-.548l-2.291-.008ZM14.813.166a3.907,3.907,0,0,1-2.088-.577,3.5,3.5,0,0,1-1.357-1.561,4.349,4.349,0,0,1-.349-2.187l.025-.332A5.806,5.806,0,0,1,11.808-6.9a4.613,4.613,0,0,1,1.644-1.689,4.066,4.066,0,0,1,2.225-.56A3.107,3.107,0,0,1,18.3-7.871a4.374,4.374,0,0,1,.677,3.147L18.847-3.7h-5.5a1.927,1.927,0,0,0,.423,1.395,1.616,1.616,0,0,0,1.245.54,2.872,2.872,0,0,0,2.241-1l1.071,1.328A3.331,3.331,0,0,1,16.863-.245,4.778,4.778,0,0,1,14.813.166Zm.747-7.379a1.663,1.663,0,0,0-1.15.407,3.573,3.573,0,0,0-.9,1.469H16.73l.05-.216a2.2,2.2,0,0,0,.008-.631,1.2,1.2,0,0,0-.407-.751A1.275,1.275,0,0,0,15.56-7.213Zm8.732-3.976L23.9-8.981H25.4l-.307,1.76H23.595l-.764,4.5a1.144,1.144,0,0,0,.066.647q.116.224.564.241.133.008.714-.042L24.01-.042a3.937,3.937,0,0,1-1.345.191,2.11,2.11,0,0,1-1.718-.722,2.609,2.609,0,0,1-.465-1.909l.772-4.74h-1.27l.307-1.76h1.27l.382-2.208ZM29.464.166a3.907,3.907,0,0,1-2.088-.577,3.5,3.5,0,0,1-1.357-1.561,4.349,4.349,0,0,1-.349-2.187l.025-.332A5.806,5.806,0,0,1,26.459-6.9,4.613,4.613,0,0,1,28.1-8.587a4.066,4.066,0,0,1,2.225-.56,3.107,3.107,0,0,1,2.627,1.276,4.374,4.374,0,0,1,.677,3.147L33.5-3.7h-5.5a1.927,1.927,0,0,0,.423,1.395,1.616,1.616,0,0,0,1.245.54,2.872,2.872,0,0,0,2.241-1l1.071,1.328A3.331,3.331,0,0,1,31.514-.245,4.778,4.778,0,0,1,29.464.166Zm.747-7.379a1.663,1.663,0,0,0-1.15.407,3.573,3.573,0,0,0-.9,1.469h3.221l.05-.216a2.2,2.2,0,0,0,.008-.631,1.2,1.2,0,0,0-.407-.751A1.275,1.275,0,0,0,30.211-7.213Zm10.135.481a4.833,4.833,0,0,0-.789-.083,2.269,2.269,0,0,0-1.984.938L36.536,0H34.2l1.561-8.981,2.2-.008-.216,1.1a2.47,2.47,0,0,1,2.092-1.27,3.414,3.414,0,0,1,.813.116Z" transform="translate(49.656 56.601)" fill="#fff"/>
      <g id="Grupo_982619" data-name="Grupo 982619" transform="translate(96.928 0)">
        <path id="Trazado_599055" data-name="Trazado 599055" d="M372.179,84a5.391,5.391,0,0,0-4.138-.287,5.321,5.321,0,0,0-2.945,2.413,5.412,5.412,0,0,0-4.814,9.666c.107.063.215.125.333.184l7.532,3.737a2.042,2.042,0,0,0,2.738-.922l3.737-7.531c.059-.119.107-.234.155-.349A5.424,5.424,0,0,0,372.179,84Z" transform="translate(-357.604 -69.2)" fill="#fc6262"/>
        <path id="Trazado_599056" data-name="Trazado 599056" d="M386.243,84.369a3.163,3.163,0,0,0-1.546-1.877,3.12,3.12,0,0,0-2.215-.281,3.174,3.174,0,0,0-6.058,1.849c.017.072.033.143.056.217l1.446,4.714a1.2,1.2,0,0,0,1.5.795l4.715-1.447c.074-.023.142-.049.211-.074A3.181,3.181,0,0,0,386.243,84.369Z" transform="translate(-352.405 -70.105)" fill="#fc6262"/>
        <path id="Trazado_599057" data-name="Trazado 599057" d="M375.1,72.447a2.192,2.192,0,0,0-1.69.026,2.163,2.163,0,0,0-1.114,1.08,2.205,2.205,0,0,0-1.625,4.089c.046.023.092.045.142.064L374,78.966a.834.834,0,0,0,1.081-.468l1.261-3.186c.019-.051.036-.1.051-.147A2.213,2.213,0,0,0,375.1,72.447Z" transform="translate(-354.327 -72.29)" fill="#fc6262"/>
      </g>
    </g>
  </g>
</svg>
