<svg xmlns="http://www.w3.org/2000/svg" xmlns:xlink="http://www.w3.org/1999/xlink" width="190" height="114" viewBox="0 0 190 114">
  <defs>
    <clipPath id="clip-path">
      <rect id="Rect치ngulo_45435" data-name="Rect치ngulo 45435" width="98.046" height="108.135" fill="none"/>
    </clipPath>
  </defs>
  <g id="Grupo_179148" data-name="Grupo 179148" transform="translate(-180 -3034)">
    <rect id="Rect치ngulo_45412" data-name="Rect치ngulo 45412" width="190" height="114" rx="10" transform="translate(180 3034)" fill="#6b8dfc"/>
    <g id="Grupo_175401" data-name="Grupo 175401" transform="translate(226 3037)">
      <g id="Grupo_175400" data-name="Grupo 175400" clip-path="url(#clip-path)">
        <path id="Trazado_184295" data-name="Trazado 184295" d="M42.472,0a8.338,8.338,0,0,1,2.643,1.437,5.447,5.447,0,0,1,1.757,4.042q.02,14.307,0,28.615a3.014,3.014,0,0,1-2.359,3.093,2.97,2.97,0,0,1-3.588-1.48c-1.337-2.145-2.677-4.291-3.96-6.47a1.587,1.587,0,0,0-1.584-.886q-14.783.043-29.566.015c-2.966,0-5.05-1.55-5.674-4.2a7.524,7.524,0,0,1-.136-1.674Q-.008,14.518,0,6.545C0,2.734.959,1.327,4.456,0Z" transform="translate(0)"/>
        <path id="Trazado_184296" data-name="Trazado 184296" d="M49.388,142.638c-3.484,0-6.968-.012-10.452,0A30.264,30.264,0,0,1,22,137.667q-9.239-5.989-18.479-11.978c-1.142-.74-1.42-1.338-.912-2.443C8.019,111.478,15.419,101.29,26.274,93.94a19.309,19.309,0,0,1,11.361-3.65,19.78,19.78,0,0,1,11.152,3.619c.438.307.73.469,1.275.1,7.373-4.947,14.84-4.936,22.332-.285,6.167,3.827,10.984,9.073,15.3,14.813a68.674,68.674,0,0,1,8.524,14.367c.626,1.474.478,1.979-.827,2.817-6.382,4.1-12.758,8.211-19.161,12.277a29.584,29.584,0,0,1-16.075,4.635c-3.59.012-7.179,0-10.769,0" transform="translate(-0.905 -34.507)"/>
        <path id="Trazado_184297" data-name="Trazado 184297" d="M112.363,28.243c1.388-.111,2.8.246,4.17-.211.52.652.92,1.45,1.89,1.56,1.478.106,2.955.01,4.43.049,1.227.032,1.605.34,1.906,1.533a6.451,6.451,0,0,1,.166,1.569q.006,8.068,0,16.136A3.777,3.777,0,0,1,124,51.8a4,4,0,0,1-1.866.214c-8.264.006-16.529.02-24.793-.01-1.848-.007-3.677-.12-4.977,1.555a2.857,2.857,0,0,1-1.038.141,2.379,2.379,0,0,0-2.071,1.049,4.19,4.19,0,0,1-.537.648c-.509.459-.774.376-.913-.282a3.026,3.026,0,0,1-.037-.63c.006-7.692-.025-15.383.012-23.075a2.4,2.4,0,0,1,2.193-1.962,7.871,7.871,0,0,1,1.473-.057c5.87,0,11.741-.024,17.612.019a3.786,3.786,0,0,0,3.31-1.171" transform="translate(-33.547 -10.716)" fill="#e9f8f9"/>
        <path id="Trazado_184298" data-name="Trazado 184298" d="M90.447,52.486c.676-1.389,1.811-1.662,3.285-1.652,9.027.061,18.054.031,27.081.027.419,0,.838-.042,1.257-.064a2.733,2.733,0,0,1,1.819-.35c1.612-.038,2.213-.608,2.278-2.224.04-.982.012-1.965.012-2.948q0-6.685,0-13.37c0-2.069-.649-2.585-2.677-2.8-2.447-.263-4.9-.07-7.339-.26a1.693,1.693,0,0,1-1.519-1.725,1.74,1.74,0,0,1,1.977-1.478c2.533.025,5.067-.011,7.6.013a5.37,5.37,0,0,1,5.466,5.489q.037,8.656,0,17.312a5.333,5.333,0,0,1-5.487,5.565c-2.6.057-5.207.014-7.811.014-7.389,0-14.779.009-22.169-.015a1.414,1.414,0,0,0-1.428.779c-1.263,2.148-2.59,4.26-3.9,6.379-.975,1.575-2.137,2.09-3.7,1.664a3.1,3.1,0,0,1-2.375-3.4q0-13.987,0-27.974a5.456,5.456,0,0,1,5.8-5.817q9.871-.01,19.741,0c1.381,0,1.77.318,2.112,1.68-.28,1.151-1.04,1.507-2.18,1.5-6.564-.03-13.129-.017-19.693-.012a2.164,2.164,0,0,0-2.447,1.657,2.384,2.384,0,0,0-.09,1.14c-.007,5.735.031,11.47-.019,17.2-.028,3.233.153,6.455.276,9.779,1.006-1.425,1.79-2.908,2.711-4.3a5.336,5.336,0,0,1,1.415-1.812" transform="translate(-31.656 -9.801)"/>
        <path id="Trazado_184299" data-name="Trazado 184299" d="M41.462,29.21a5.19,5.19,0,0,1-.471-.683,2.406,2.406,0,0,0-2.479-1.383c-10.03.03-20.06.017-30.09.016-.387,0-.776.011-1.161-.02a2.129,2.129,0,0,1-2.117-2.182q-.033-8.816,0-17.631a2.183,2.183,0,0,1,2.441-2.2q5.965-.02,11.931,0,10.768.013,21.536.034a1.979,1.979,0,0,1,.954,1.972c.046,1.441.016,2.882.017,4.323,0,5.413.012,10.826-.015,16.239,0,.533.238,1.232-.547,1.515" transform="translate(-1.96 -1.958)" fill="#e9f8f9"/>
        <path id="Trazado_184300" data-name="Trazado 184300" d="M63.695,29.213c.384-.339.218-.791.219-1.192.01-6.788,0-13.575.021-20.362a4.251,4.251,0,0,0-.647-2.5c.7-.011,1.4-.04,2.105-.031A2.3,2.3,0,0,1,67.9,7.613c.027,1.686.007,3.373.007,5.059,0,7.692,0,15.385-.2,23.188l-4.01-6.646" transform="translate(-24.193 -1.962)" fill="#c8eef1"/>
        <path id="Trazado_184301" data-name="Trazado 184301" d="M62.525,159.935c-7.245,0-14.491.093-21.734-.032a22.316,22.316,0,0,1-11.332-3.24c-5.748-3.514-11.372-7.231-17.34-11.049,1.818-.219,3.317-.426,4.821-.576a174.118,174.118,0,0,1,22-1.1c4.639.124,9.276.378,13.676,2.105a1.634,1.634,0,0,0,1.234-.015c4.435-1.741,9.108-1.978,13.783-2.09a149.694,149.694,0,0,1,19.165.874c.054.571-.39.786-.763,1.027-6.141,3.952-12.27,7.922-18.45,11.812a16.414,16.414,0,0,1-5.064,2.286" transform="translate(-4.633 -55.007)" fill="#e659a9"/>
        <path id="Trazado_184302" data-name="Trazado 184302" d="M13.7,119.032c4.99-8.174,10.832-15.589,19.078-20.742,6.9-4.309,13.48-3.826,19.89,1.249.87.689,1.49.661,2.438-.129a15.493,15.493,0,0,1,7.6-3.6,16.141,16.141,0,0,1,4.524,2.609,59.194,59.194,0,0,1,8.641,8.135,82.384,82.384,0,0,1,7.572,10.091c.268.408.754.8.369,1.4-5.114-2.035-10.275-3.965-15.325-6.15a9.9,9.9,0,0,0-7.41-.461c-5.665,1.757-11.393,1.113-16.994-.7-1.428-.463-2.018-.2-2.542,1.132-.272.571-.812.482-1.286.486-2,.02-4,.053-6-.006a10.806,10.806,0,0,0-4.508.879c-4.737,1.958-9.5,3.853-14.26,5.752a5.517,5.517,0,0,1-1.088.39c-.285.049-.652.171-.7-.33" transform="translate(-5.238 -36.455)" fill="#e659a9"/>
        <path id="Trazado_184303" data-name="Trazado 184303" d="M45.778,123.4a2.626,2.626,0,0,0,1.5,1.067,31.993,31.993,0,0,0,20.8.214,1.452,1.452,0,0,1,1.1-.007q10.585,4.265,21.183,8.5a6.231,6.231,0,0,1,.575.345,48.618,48.618,0,0,1-6.081-.292c-7.315-.408-14.625-.649-21.9.538a25.943,25.943,0,0,0-3.787.89,3.751,3.751,0,0,1-2.412-.015,48.1,48.1,0,0,0-12.818-1.7c-6.444-.18-12.868.2-19.33.654q3.483-1.4,6.966-2.8,4.441-1.785,8.881-3.575c1.364-.553,1.544-.855,1.464-2.3a8.084,8.084,0,0,1,3.858-1.531" transform="translate(-9.408 -47.171)" fill="#fefefe"/>
        <path id="Trazado_184304" data-name="Trazado 184304" d="M114.137,118.059a2.03,2.03,0,0,0-.5-1.132,82.289,82.289,0,0,0-7.746-10.293,53.7,53.7,0,0,0-9.758-8.873c-1.015-.678-2.071-1.295-3.108-1.94a13.769,13.769,0,0,1,9.246.956,33.756,33.756,0,0,1,9.732,6.781,74.747,74.747,0,0,1,14.077,18.6c.116.213.218.433.477.951l-12.425-5.053" transform="translate(-35.562 -36.471)" fill="#df3d9b"/>
        <path id="Trazado_184305" data-name="Trazado 184305" d="M93.717,160.5c1.892-1.056,3.934-1.808,5.758-3.018,3.558-2.359,7.186-4.612,10.785-6.909q3.452-2.2,6.906-4.4a2.79,2.79,0,0,0,.827-.8l7.147.712c-.155.494-.526.581-.8.757q-7.3,4.7-14.617,9.389A26.821,26.821,0,0,1,93.717,160.5" transform="translate(-35.825 -55.573)" fill="#df3d9b"/>
        <path id="Trazado_184306" data-name="Trazado 184306" d="M40.206,122.889l-3.858,1.531c-.892-1.073-1.342-1.176-2.748-.612l-22.627,9.081c-.253.1-.508.2-.94.372A27.793,27.793,0,0,1,12.3,129.24c.279.355.557.119.842,0q7.684-3.1,15.373-6.2a9.592,9.592,0,0,1,3.874-.793c2.174.06,4.351.017,6.528.015a2.016,2.016,0,0,0,1.223-.2l.067.82" transform="translate(-3.836 -46.663)" fill="#df3d9b"/>
        <path id="Trazado_184307" data-name="Trazado 184307" d="M136.8,30.809c2.674-.009,5.347-.04,8.021-.018a2.187,2.187,0,0,1,2.333,2.313q.028,8.709,0,17.418a2.13,2.13,0,0,1-2.133,2.274c-.767.051-1.541-.018-2.312-.033a7.905,7.905,0,0,0,.649-3.375c-.035-5.172-.015-10.345-.015-15.517,0-.211,0-.423,0-.633-.055-1.917-.4-2.215-2.259-2.269a17.341,17.341,0,0,1-4.281-.161" transform="translate(-52.294 -11.768)" fill="#c8eef1"/>
        <path id="Trazado_184308" data-name="Trazado 184308" d="M92.392,55.479l-4.251,7.058-.222-.076v-4.69q0-11.541,0-23.082c0-.409-.117-.847.174-1.219v24.1c1.033-1.615,2.345-2.5,4.294-2.093" transform="translate(-33.602 -12.794)" fill="#c8eef1"/>
        <path id="Trazado_184309" data-name="Trazado 184309" d="M119.942,49.615A1.624,1.624,0,0,1,118.333,48a1.582,1.582,0,0,1,3.161-.054,1.63,1.63,0,0,1-1.552,1.671" transform="translate(-45.235 -17.76)" fill="#030303"/>
        <path id="Trazado_184310" data-name="Trazado 184310" d="M107.523,46.465a1.583,1.583,0,0,1,1.609,1.595,1.661,1.661,0,0,1-1.572,1.557,1.589,1.589,0,0,1-1.577-1.626,1.524,1.524,0,0,1,1.54-1.526" transform="translate(-40.514 -17.762)" fill="#020202"/>
        <path id="Trazado_184311" data-name="Trazado 184311" d="M133.858,48a1.593,1.593,0,0,1-1.593,1.612,1.657,1.657,0,0,1-1.555-1.572,1.585,1.585,0,0,1,1.62-1.581A1.526,1.526,0,0,1,133.858,48" transform="translate(-49.966 -17.762)" fill="#020202"/>
        <path id="Trazado_184312" data-name="Trazado 184312" d="M24.484,20.859a1.582,1.582,0,1,1,.015,3.164,1.582,1.582,0,0,1-.015-3.164" transform="translate(-8.763 -7.974)" fill="#020202"/>
        <path id="Trazado_184313" data-name="Trazado 184313" d="M36.862,20.858a1.582,1.582,0,0,1,.007,3.164,1.582,1.582,0,1,1-.007-3.164" transform="translate(-13.486 -7.973)" fill="#020202"/>
        <path id="Trazado_184314" data-name="Trazado 184314" d="M49.245,24.024a1.581,1.581,0,1,1,.024-3.161,1.581,1.581,0,0,1-.024,3.161" transform="translate(-18.224 -7.975)" fill="#010101"/>
      </g>
    </g>
  </g>
</svg>
