<svg xmlns="http://www.w3.org/2000/svg" xmlns:xlink="http://www.w3.org/1999/xlink" width="1328" height="537.064" viewBox="0 0 1328 537.064">
  <defs>
    <clipPath id="clip-path">
      <rect id="Rect치ngulo_41289" data-name="Rect치ngulo 41289" width="1328" height="537" transform="translate(0 0.161)" fill="#6b8dfc"/>
    </clipPath>
  </defs>
  <g id="Grupo_982655" data-name="Grupo 982655" transform="translate(0 -0.097)">
    <path id="Trazado_170518" data-name="Trazado 170518" d="M0,0H1328V537.064H0Z" transform="translate(0 0.097)" fill="#3c3fa7"/>
    <g id="Enmascarar_grupo_167" data-name="Enmascarar grupo 167" transform="translate(0 0)" clip-path="url(#clip-path)">
      <g id="Grupo_166176" data-name="Grupo 166176" transform="translate(424.622 -88.095)">
        <path id="Uni칩n_28" data-name="Uni칩n 28" d="M401.368,773.119c-69.552-3.7-126.731-54.257-172.681-94.871-7.724-6.833-15.214-13.459-22.508-19.651C146.995,608.395,87.921,556.4,30.791,506.127l-6.863-6.03C2.909,481.606-4.605,458.246,2.749,434.333c8.019-26.071,33.219-48.119,62.7-54.886,26.849-6.149,53.021.683,73.622,19.282v-.01c41.67,37.588,87.079,76.685,137.838,118.655l-6.039-11.616c-17.059-32.838-34.7-66.783-50.735-100.815-16.108-34.167-31.239-70.727-38.53-106.564-8.053-39.579-6.764-78.336,12.7-112.7,22.667-40.029,55.986-63.063,99.034-68.454,93.707-11.691,210.513,65.471,273.67,119.88-17.059-43.889-28.829-89.894-23.934-137.959,4.169-40.983,25.68-72.249,60.561-88.05,39.615-17.948,91.6-13.947,139.1,10.7,85.59,44.422,154.035,119.447,215.248,193.9,27.624,33.6,12.152,66.479-15.423,84.167C909.228,321.253,856.907,321.8,827.032,285.7q-5.682-6.882-11.586-13.664c16.986,28.251,33,56.632,47.278,85.708l5.511,11.192C916.792,467.356,983.282,602.148,921.7,706.9c-34.266,58.312-113.167,64.918-173.408,41.33-67.572-26.484-116.929-81.521-160.48-130.086-5.633-6.279-11.2-12.493-16.752-18.577-37.979-41.667-73.094-85.86-107.052-128.589-12.09-15.226-24.193-30.453-36.455-45.614l-3.494-4.327q-5.275-6.54-10.663-13.166c5.866,12.385,11.783,24.357,17.4,35.755,5.928,12.016,12.2,24.163,18.535,36.428,26.442,51.21,53.8,104.176,62.984,159.475,7.047,42.415-4,82.389-29.555,106.931-18.388,17.656-43.663,26.874-73.439,26.874C406.705,773.336,404.049,773.272,401.368,773.119Z" transform="translate(0 25.714)" fill="#7b9aff" stroke="rgba(0,0,0,0)" stroke-miterlimit="10" stroke-width="1"/>
        <path id="Trazado_115699" data-name="Trazado 115699" d="M249.545,578.9c59.258,53.466,120.5,104.968,182.915,155.549-26.985-53.78-56.085-106.725-81.7-161.069-29.039-61.621-62.788-145.615-26.185-210.251,83.438-147.329,294.358-2.776,371.979,71.393,8.277,7.895,16.161,16.148,24.156,24.314-27.723-59.886-52.69-121.42-46.11-186.121,9.064-88.961,101.555-110.3,181.18-68.974,85.517,44.389,154.184,121.182,211.535,190.926,48.7,59.235-62.751,115.629-111.075,57.24a806.938,806.938,0,0,0-86.808-89.558q6.918,11.176,13.972,22.319c31.154,49.073,61.927,98.342,87.312,149.986,48.619,98.906,120.5,235.813,59.344,339.849-30.822,52.425-103.08,57.75-157.5,36.418-73.143-28.674-123.8-91.976-172.645-145.55-50.98-55.938-95.873-115.336-143.065-173.7-19.728-24.39-39.432-49.128-62-71.566-.517-.51-1.07-.987-1.587-1.508l.566,1.583c12.533,34.357,28.657,67.325,44.966,100.381C569.153,682.046,608.3,746.78,619.421,813.7c9.839,59.17-17.342,125.487-98.05,121.192C445.509,930.862,384.7,866.421,333.98,823.389c-61.435-52.121-121.763-105.283-182.1-158.38C88.88,609.58,187.311,522.756,249.545,578.9Z" transform="translate(-90.103 -172.6)" fill="#a6bbff"/>
        <path id="Trazado_115700" data-name="Trazado 115700" d="M539.941,955.8c29.776,0,55.039-9.208,73.426-26.863,25.558-24.542,36.6-64.517,29.555-106.942-9.175-55.288-36.529-108.255-62.985-159.476-6.322-12.266-12.594-24.4-18.535-36.417-5.62-11.4-11.537-23.371-17.4-35.756,3.592,4.4,7.146,8.806,10.664,13.166l3.493,4.316c12.262,15.162,24.365,30.4,36.467,45.614,33.946,42.74,69.06,86.933,107.04,128.589q8.32,9.142,16.751,18.588C761.967,849.168,811.324,904.206,878.9,930.7c60.254,23.588,139.142,16.972,173.407-41.341,61.583-104.741-4.907-239.533-53.452-337.962l-5.522-11.181c-14.279-29.075-30.293-57.457-47.266-85.708q5.885,6.783,11.586,13.654c29.862,36.1,82.183,35.561,115.527,14.174,27.575-17.688,43.047-50.57,15.424-84.168-61.214-74.451-129.659-149.476-215.237-193.908-47.512-24.64-99.489-28.641-139.117-10.693-34.881,15.8-56.38,47.057-60.561,88.04-4.9,48.065,6.875,94.08,23.946,137.959-63.169-54.4-179.962-131.56-273.671-119.869-43.047,5.39-76.378,28.424-99.046,68.453-37.279,65.829-7.859,147.774,25.828,219.264,16.038,34.02,33.675,67.976,50.734,100.8l6.039,11.615c-50.759-41.959-96.168-81.055-137.838-118.644h0c-20.6-18.6-46.774-25.421-73.623-19.271-29.482,6.767-54.682,28.815-62.69,54.886-7.367,23.913.148,47.262,21.167,65.753L161.4,688.6c57.13,50.277,116.2,102.257,175.387,152.469,7.293,6.192,14.784,12.819,22.52,19.651,45.938,40.615,103.117,91.174,172.669,94.872C534.665,955.731,537.309,955.8,539.941,955.8ZM504.655,518.082a12.807,12.807,0,0,0-5.953,1.41c-4.957,2.581-7.589,7.483-5.818,12.309l.578,1.583c13.135,36.016,30.268,70.742,45.384,101.368,5.99,12.125,12.324,24.379,18.708,36.754,25.742,49.844,52.357,101.379,61.041,153.63,5.891,35.485-3.05,69.636-23.344,89.124-15.03,14.434-35.8,20.985-61.791,19.683-60.218-3.21-111.505-48.542-156.742-88.549-7.847-6.941-15.472-13.676-22.876-19.955-59.024-50.071-118.024-101.986-175.08-152.2l-6.851-6.041c-18.584-16.343-18.314-33.338-14.808-44.725,5.695-18.5,24.254-34.78,45.151-39.563,12.718-2.928,31.671-2.95,49.824,13.437h0c53.834,48.553,113.817,99.568,183.394,155.962a13.571,13.571,0,0,0,15.485.824c4.747-2.993,6.445-8.5,4.083-13.2-10.2-20.334-20.7-40.539-31.191-60.753-16.973-32.654-34.512-66.426-50.39-100.1-31.56-66.957-59.405-143.229-26.542-201.25,19.113-33.739,45.446-52.272,80.5-56.665,87.362-10.9,210.231,72.086,271.445,130.573,6.519,6.236,12.8,12.7,19.1,19.152l4.772,4.9a13.431,13.431,0,0,0,15.731,2.158c5.141-2.776,7.244-8.427,4.969-13.35-26.419-57.034-51.669-118.015-45.249-181.057,3.444-33.793,19.8-58.237,47.3-70.7,32.089-14.521,75.21-10.736,115.392,10.108,81.7,42.4,148.156,115.39,207.808,187.943,18.855,22.926,7.207,42.87-9.975,53.888-23.27,14.923-59.626,16.68-81.2-9.4a819.669,819.669,0,0,0-88.038-90.816,13.522,13.522,0,0,0-16.063-1.041c-4.907,3.232-6.383,9.154-3.444,13.882q6.955,11.241,14.046,22.417c31.548,49.691,61.914,98.483,86.759,149.01l5.522,11.214c46.577,94.427,110.361,223.754,54.178,319.32-27.292,46.438-91.887,50.971-141.589,31.5-62.025-24.3-107.348-74.852-151.17-123.72q-8.5-9.484-16.875-18.718c-37.476-41.1-72.344-84.992-106.081-127.439-12.127-15.27-24.266-30.55-36.565-45.766l-3.493-4.306c-18.51-22.915-37.648-46.611-59.319-68.149l-1.107-1.052A14.33,14.33,0,0,0,504.655,518.082ZM260.884,588.77h0Z" transform="translate(-101.442 -182.469)" fill="#3c3fa7"/>
        <path id="Trazado_115701" data-name="Trazado 115701" d="M158.937,225.912c45.323,80.3,70.881,174.42,31.08,260.735-5.892,12.754-29.691,7.179-23.725-5.77,37.378-81.044,14.033-168.5-28.6-244.023C130.673,224.394,151.877,213.4,158.937,225.912Z" transform="translate(722.065 190.897)" fill="#3c3fa7"/>
        <path id="Trazado_115702" data-name="Trazado 115702" d="M149.278,295.324c.209-.022.406-.076.6-.108.344-.6.664-1.226.775-1.4l.049-.065c.024-.087-.012-.033.024-.163,1.587-4.837,2.731-9.75,3.923-14.673q4.188-17.162,8.351-34.324c1.353-5.552,9.065-9.305,15.14-7.57,6.629,1.887,10.036,7.385,8.585,13.339l-9.446,38.814c-2.632,10.78-6.826,24.911-21.462,27.069-6.322.922-13.554-1.464-15.128-7.58C139.34,303.426,142.5,296.322,149.278,295.324Z" transform="translate(694.371 350.389)" fill="#3c3fa7"/>
        <path id="Trazado_115703" data-name="Trazado 115703" d="M222.994,200.6c13.96-6.572,26.406,12.146,12.41,18.729-19.31,9.088-25.189,27.59-25.964,45.755-.886,20.638,1.746,41.862,5.547,62.185a379.16,379.16,0,0,0,42.691,116.5c7.035,12.461-14.181,23.458-21.241,10.943-24.353-43.217-40.649-89.33-47.746-137.2C182.9,278.415,175.961,222.727,222.994,200.6Z" transform="translate(79.156 -17.514)" fill="#3c3fa7"/>
      </g>
    </g>
  </g>
</svg>
