<svg xmlns="http://www.w3.org/2000/svg" xmlns:xlink="http://www.w3.org/1999/xlink" width="412" height="1450.859" viewBox="0 0 412 1450.859">
  <defs>
    <clipPath id="clip-path">
      <rect id="young-male-performer-dancing-in-building-next-to-stairs" width="412" height="1450.859" transform="translate(-507 3173.141)" fill="#fed947" opacity="0.62"/>
    </clipPath>
  </defs>
  <g id="Grupo_982688" data-name="Grupo 982688" transform="translate(6088 8740.859)">
    <rect id="Rectángulo_338254" data-name="Rectángulo 338254" width="412" height="1450" transform="translate(-6088 -8740)" fill="#e1e8ff"/>
    <g id="Enmascarar_grupo_434" data-name="Enmascarar grupo 434" transform="translate(-5581 -11914)" clip-path="url(#clip-path)">
      <g id="Grupo_982414" data-name="Grupo 982414" transform="translate(-251.727 3052.218)">
        <g id="Grupo_982413" data-name="Grupo 982413" transform="matrix(0.259, 0.966, -0.966, 0.259, 233.461, 0)">
          <g id="Grupo_982409" data-name="Grupo 982409" transform="translate(2.45 0)" style="mix-blend-mode: overlay;isolation: isolate">
            <path id="Trazado_204237" data-name="Trazado 204237" d="M238.407,109.578c-17.483-16.555-35.524-32.529-53.9-48.234,8.171,16.452,16.943,32.657,24.723,49.271,8.819,18.835,19.161,44.471,9.052,63.806-23.035,44.073-84.938-1.008-107.869-23.942-2.442-2.445-4.779-4.993-7.145-7.511,8.431,18.3,16.074,37.084,14.632,56.627-1.984,26.871-28.527,32.752-51.8,19.739C41.108,205.364,20.74,181.689,3.7,160.218c-14.478-18.236,17.286-34.607,31.648-16.63a255.8,255.8,0,0,0,25.695,27.65q-2.076-3.426-4.195-6.84c-9.341-15.05-18.573-30.156-26.267-45.951C15.844,88.207-5.878,46.311,11.032,15.207,19.556-.469,40.377-1.627,56.233,5.171c21.315,9.138,36.387,28.617,50.864,45.14,15.112,17.252,28.495,35.513,42.53,53.476,5.864,7.506,11.726,15.118,18.4,22.048.153.161.312.309.465.466l-.174-.48c-3.862-10.478-8.746-20.559-13.692-30.667-9.2-18.807-20.961-38.647-24.646-58.971C126.726,18.212,134.1-1.691,157.421.114c21.928,1.7,39.936,21.584,54.882,34.928C230.4,51.2,248.19,67.671,265.983,84.122,284.564,101.3,256.771,126.962,238.407,109.578Z" transform="translate(3.591 3.282)" fill="#3c384f"/>
            <path id="Trazado_204238" data-name="Trazado 204238" d="M158.85.009c-8.594-.187-15.824,2.445-21,7.674-7.2,7.269-10.106,19.3-7.77,32.182,3.045,16.8,11.316,33,19.313,48.667C151.3,92.286,153.2,96,155,99.676c1.7,3.485,3.5,7.147,5.277,10.932q-1.6-2.038-3.171-4.052l-1.039-1.332c-3.647-4.666-7.248-9.351-10.846-14.036-10.1-13.147-20.554-26.744-31.812-39.594-1.644-1.876-3.3-3.792-4.967-5.728C95.522,30.893,80.886,13.924,61.195,5.484,43.64-2.034,20.915-.529,11.439,16.907c-17.029,31.322,3.12,72.54,17.834,102.635l1.67,3.422c4.328,8.891,9.152,17.582,14.255,26.24q-1.752-2.09-3.441-4.209c-8.879-11.112-23.976-11.276-33.448-5.012-7.833,5.181-12.065,15.038-3.853,25.381,18.2,22.92,38.485,46.059,63.5,60.041,13.885,7.759,28.918,9.3,40.225,4.112,9.955-4.564,15.941-13.893,16.853-26.273,1.071-14.518-2.653-28.518-7.889-41.91,18.615,16.865,52.877,40.954,79.84,38,12.386-1.362,21.839-8.125,28.1-20.1,10.3-19.692,1.221-44.684-9.014-66.532-4.871-10.4-10.2-20.787-15.36-30.834l-1.826-3.554c14.949,13.022,28.333,25.141,40.627,36.78v0c6.078,5.759,13.681,7.991,21.386,6.3,8.461-1.864,15.578-8.379,17.707-16.221,1.953-7.192-.382-14.31-6.58-20.039L270,83.266c-16.846-15.577-34.266-31.685-51.7-47.251-2.149-1.92-4.358-3.973-6.636-6.089C198.111,17.343,181.248,1.68,161.148.125,160.373.062,159.606.026,158.85.009Zm13.3,132.716a3.458,3.458,0,0,0,1.708-.386,2.976,2.976,0,0,0,1.588-3.689l-.178-.483c-4.047-10.988-9.239-21.6-13.82-30.968-1.815-3.711-3.73-7.46-5.661-11.242C148,70.707,139.955,54.94,137.077,39.066c-1.953-10.778.385-21.059,6.1-26.828,4.239-4.278,10.184-6.128,17.694-5.571,17.4,1.349,32.528,15.392,45.872,27.786,2.314,2.147,4.559,4.233,6.741,6.184,17.392,15.526,34.789,31.611,51.614,47.167l2.02,1.868c5.484,5.067,5.523,10.209,4.6,13.631-1.512,5.568-6.756,10.375-12.75,11.7-3.653.807-9.123.694-14.479-4.38v0c-15.883-15.034-33.558-30.852-54.04-48.355a3.8,3.8,0,0,0-4.475-.347,3.044,3.044,0,0,0-1.085,3.969c3.087,6.219,6.263,12.4,9.438,18.582,5.127,9.994,10.433,20.326,15.252,30.619,9.588,20.465,18.164,43.727,9.091,61.081-5.273,10.1-12.741,15.541-22.831,16.648-25.137,2.755-61.186-23.135-79.27-41.226-1.929-1.925-3.789-3.921-5.653-5.917l-1.409-1.51a3.813,3.813,0,0,0-4.559-.752,3.05,3.05,0,0,0-1.336,4.007c8.027,17.433,15.748,36.047,14.344,55.092-.754,10.2-5.3,17.5-13.15,21.1-9.155,4.2-21.631,2.782-33.376-3.78-23.88-13.351-43.582-35.857-61.314-58.193-5.6-7.058-2.385-13.025,2.5-16.253,6.61-4.368,17.091-4.672,23.5,3.358a260.8,260.8,0,0,0,26.055,28.042,3.8,3.8,0,0,0,4.647.416,3.058,3.058,0,0,0,.9-4.184q-2.087-3.441-4.217-6.87c-9.455-15.239-18.57-30.2-26.1-45.649l-1.674-3.429C21.6,88.192,2.275,48.646,17.811,20.067,25.358,6.185,43.97,5.218,58.453,11.422c18.075,7.745,31.515,23.327,44.511,38.4,1.681,1.946,3.348,3.879,5.007,5.769,11.105,12.68,21.481,26.183,31.52,39.244q5.413,7.047,10.879,14.079l1.039,1.328a264.436,264.436,0,0,0,17.609,21l.323.325A4.219,4.219,0,0,0,172.146,132.725ZM242,112.859h0Z" transform="translate(0)" fill="#3c384f"/>
            <path id="Trazado_204239" data-name="Trazado 204239" d="M15.886,81.225C2.238,56.636-5.812,27.981,5.065,2.107,6.672-1.72,13.58.12,11.951,4,1.742,28.3,9.1,54.918,21.939,78.046,24.058,81.859,18.013,85.058,15.886,81.225Z" transform="translate(17.779 23.93)" fill="#3c384f"/>
            <path id="Trazado_204240" data-name="Trazado 204240" d="M10.567,6.417c-.06.005-.117.02-.173.029-.1.175-.179.367-.21.419l-.017.019c-.006.026,0,.007-.006.046-.423,1.457-.715,2.934-1.028,4.42Q8.051,16.519,6.966,21.687c-.351,1.672-2.55,2.76-4.312,2.2A3.5,3.5,0,0,1,.077,19.792Q1.3,13.947,2.531,8.1C3.211,4.856,4.321.6,8.53.043c1.818-.243,3.922.528,4.42,2.389A3.145,3.145,0,0,1,10.567,6.417Z" transform="translate(32.251 29.684)" fill="#3c384f"/>
            <path id="Trazado_204241" data-name="Trazado 204241" d="M12.182,78.732c-3.982,1.9-7.7-3.842-3.715-5.747,5.509-2.63,7.077-8.193,7.168-13.69A89.094,89.094,0,0,0,13.592,40.44,123.528,123.528,0,0,0,.443,4.909C-1.673,1.093,4.369-2.1,6.5,1.73A129.453,129.453,0,0,1,21.251,43.559C23.2,55.427,25.6,72.327,12.182,78.732Z" transform="translate(190.214 100.798)" fill="#3c384f"/>
          </g>
          <g id="Grupo_982412" data-name="Grupo 982412" transform="translate(0 9.154)">
            <g id="Grupo_982411" data-name="Grupo 982411" transform="translate(0 0)">
              <g id="Grupo_982410" data-name="Grupo 982410">
                <path id="Trazado_204242" data-name="Trazado 204242" d="M238.41,109.578c-17.483-16.555-35.524-32.529-53.9-48.231,8.171,16.448,16.946,32.657,24.727,49.267,8.819,18.835,19.157,44.471,9.053,63.806-3.778,7.228-8.6,12.058-14.254,15.048C176,204.3,129.591,169.654,110.421,150.478c-2.445-2.442-4.779-4.989-7.145-7.511,8.427,18.3,16.071,37.084,14.632,56.627-1.984,26.871-28.527,32.752-51.8,19.742-25-13.972-45.362-37.648-62.411-59.119-14.478-18.236,17.289-34.607,31.652-16.63a256.116,256.116,0,0,0,25.691,27.653q-2.076-3.426-4.191-6.843c-9.341-15.05-18.573-30.156-26.267-45.948C15.844,88.207-5.874,46.315,11.036,15.207,19.559-.468,40.376-1.627,56.236,5.171c21.315,9.138,36.387,28.617,50.864,45.14,15.112,17.252,28.491,35.513,42.527,53.477,5.867,7.506,11.73,15.118,18.4,22.051.153.158.316.305.469.466l-.175-.483c-3.862-10.478-8.75-20.559-13.692-30.667-9.2-18.8-20.961-38.643-24.646-58.971C126.726,18.212,134.1-1.691,157.424.114c21.924,1.7,39.933,21.584,54.878,34.928,18.1,16.162,35.892,32.632,53.685,49.083C284.563,101.3,256.771,126.962,238.41,109.578Z" transform="translate(3.588 3.279)" fill="#859eec"/>
                <path id="Trazado_204243" data-name="Trazado 204243" d="M158.846.009c-8.594-.187-15.82,2.442-21,7.671-7.2,7.269-10.106,19.3-7.77,32.186,3.041,16.793,11.313,33,19.313,48.667C151.3,92.286,153.2,96,155,99.673c1.7,3.486,3.5,7.147,5.277,10.932-1.068-1.355-2.125-2.71-3.171-4.052l-1.039-1.328c-3.647-4.666-7.248-9.354-10.85-14.036-10.1-13.15-20.55-26.747-31.808-39.594q-2.467-2.819-4.967-5.732C95.523,30.893,80.886,13.924,61.195,5.481,43.636-2.037,20.915-.529,11.439,16.907-5.59,48.226,14.559,89.444,29.27,119.542l1.673,3.419c4.328,8.891,9.152,17.582,14.251,26.24q-1.747-2.09-3.441-4.206c-8.876-11.115-23.973-11.279-33.444-5.015-7.833,5.181-12.065,15.038-3.853,25.381,18.2,22.92,38.485,46.059,63.5,60.045,13.888,7.756,28.918,9.293,40.228,4.109,9.955-4.564,15.938-13.89,16.853-26.27,1.071-14.518-2.653-28.521-7.892-41.91,18.619,16.862,52.877,40.951,79.84,38,12.386-1.362,21.842-8.125,28.1-20.1,10.292-19.692,1.218-44.681-9.013-66.532-4.871-10.4-10.2-20.787-15.36-30.831l-1.826-3.554c14.948,13.019,28.333,25.138,40.626,36.777h0c6.078,5.759,13.681,7.988,21.386,6.295,8.461-1.864,15.578-8.379,17.7-16.221,1.956-7.192-.379-14.307-6.577-20.036L270,83.262c-16.846-15.577-34.266-31.681-51.7-47.252-2.149-1.92-4.358-3.973-6.64-6.089C198.111,17.34,181.248,1.677,161.148.122,160.369.062,159.606.026,158.846.009Zm13.3,132.715a3.451,3.451,0,0,0,1.708-.389,2.973,2.973,0,0,0,1.592-3.689l-.178-.483c-4.047-10.984-9.239-21.6-13.82-30.968-1.815-3.708-3.73-7.457-5.661-11.242C148,70.7,139.951,54.937,137.074,39.067c-1.953-10.778.385-21.059,6.1-26.831,4.235-4.275,10.184-6.128,17.695-5.571,17.4,1.349,32.528,15.392,45.869,27.786,2.314,2.15,4.563,4.237,6.745,6.184C230.877,56.161,248.275,72.245,265.1,87.8l2.02,1.871c5.48,5.064,5.523,10.206,4.592,13.631-1.512,5.565-6.753,10.376-12.75,11.692-3.65.807-9.12.694-14.476-4.38h0c-15.883-15.034-33.558-30.852-54.04-48.359a3.8,3.8,0,0,0-4.475-.347,3.041,3.041,0,0,0-1.085,3.97c3.087,6.219,6.263,12.4,9.434,18.585,5.131,9.991,10.433,20.323,15.255,30.615,9.585,20.465,18.164,43.727,9.091,61.084-5.277,10.093-12.745,15.538-22.831,16.648-25.137,2.751-61.19-23.138-79.273-41.226-1.926-1.928-3.786-3.924-5.649-5.917l-1.412-1.514a3.807,3.807,0,0,0-4.556-.752,3.054,3.054,0,0,0-1.339,4.01c8.031,17.429,15.752,36.047,14.347,55.089-.754,10.207-5.3,17.5-13.15,21.1-9.158,4.194-21.631,2.778-33.376-3.783-23.883-13.348-43.582-35.857-61.314-58.193-5.6-7.058-2.385-13.022,2.5-16.249,6.61-4.371,17.091-4.675,23.5,3.355a260.151,260.151,0,0,0,26.055,28.041,3.793,3.793,0,0,0,4.644.416,3.052,3.052,0,0,0,.9-4.18q-2.087-3.446-4.213-6.873c-9.459-15.239-18.57-30.2-26.1-45.649l-1.674-3.429C21.6,88.189,2.275,48.643,17.811,20.068,25.358,6.182,43.97,5.215,58.453,11.419c18.075,7.745,31.515,23.33,44.511,38.4q2.522,2.924,5,5.772c11.109,12.677,21.484,26.18,31.523,39.24,3.609,4.7,7.221,9.4,10.879,14.082l1.039,1.325a264.58,264.58,0,0,0,17.605,21l.327.325A4.213,4.213,0,0,0,172.143,132.725ZM242,112.856h0Z" fill="#3c3fa7"/>
              </g>
              <path id="Trazado_204244" data-name="Trazado 204244" d="M15.888,81.224C2.236,56.634-5.81,27.983,5.064,2.106,6.673-1.718,13.582.119,11.952,4,1.741,28.3,9.1,54.916,21.941,78.045,24.056,81.861,18.014,85.056,15.888,81.224Z" transform="translate(17.777 23.928)" fill="#3c3fa7"/>
              <path id="Trazado_204245" data-name="Trazado 204245" d="M10.567,6.416c-.06.005-.117.02-.173.029-.1.178-.183.367-.214.419l-.014.019c-.006.026,0,.01-.006.049-.423,1.454-.719,2.934-1.028,4.417Q8.046,16.518,6.966,21.687c-.351,1.672-2.55,2.76-4.316,2.2A3.5,3.5,0,0,1,.077,19.791L2.528,8.1C3.211,4.855,4.321.6,8.53.043c1.818-.239,3.922.528,4.42,2.389A3.147,3.147,0,0,1,10.567,6.416Z" transform="translate(32.251 29.681)" fill="#3c3fa7"/>
              <path id="Trazado_204246" data-name="Trazado 204246" d="M12.183,78.732c-3.982,1.9-7.708-3.842-3.715-5.747,5.509-2.63,7.074-8.193,7.168-13.687A89.12,89.12,0,0,0,13.593,40.44,123.525,123.525,0,0,0,.444,4.909C-1.675,1.093,4.37-2.1,6.5,1.73A129.589,129.589,0,0,1,21.252,43.559C23.2,55.43,25.6,72.33,12.183,78.732Z" transform="translate(190.213 100.795)" fill="#323489"/>
            </g>
          </g>
        </g>
      </g>
      <g id="Grupo_982415" data-name="Grupo 982415" transform="translate(-552.215 4488.04)">
        <g id="Grupo_982413-2" data-name="Grupo 982413" transform="matrix(0.259, 0.966, -0.966, 0.259, 120.162, 51.762)">
          <g id="Grupo_982409-2" data-name="Grupo 982409" transform="translate(1.291 0)" style="mix-blend-mode: overlay;isolation: isolate">
            <path id="Trazado_204237-2" data-name="Trazado 204237" d="M125.653,57.753c-9.215-8.726-18.723-17.144-28.406-25.422,4.306,8.671,8.93,17.212,13.03,25.968,4.648,9.927,10.1,23.439,4.771,33.629C102.908,115.157,70.282,91.4,58.2,79.31c-1.287-1.289-2.519-2.631-3.766-3.959C58.874,85,62.9,94.9,62.142,105.2c-1.046,14.163-15.035,17.262-27.3,10.4C21.666,108.238,10.931,95.759,1.947,84.443c-7.631-9.611,9.11-18.24,16.68-8.765A134.818,134.818,0,0,0,32.17,90.251q-1.094-1.806-2.211-3.605A273.707,273.707,0,0,1,16.115,62.428C8.351,46.49-3.1,24.409,5.815,8.015,10.307-.247,21.281-.858,29.638,2.725,40.872,7.542,48.815,17.808,56.446,26.516,64.41,35.609,71.464,45.234,78.861,54.7a145.949,145.949,0,0,0,9.7,11.621c.081.085.165.163.245.246l-.092-.253A173.806,173.806,0,0,0,81.5,50.152C76.65,40.24,70.45,29.783,68.508,19.071,66.791,9.6,70.676-.891,82.969.06c11.557.894,21.048,11.376,28.926,18.409,9.539,8.518,18.915,17.2,28.293,25.867C149.98,53.389,135.332,66.916,125.653,57.753Z" transform="translate(1.893 1.73)" fill="#3c384f"/>
            <path id="Trazado_204238-2" data-name="Trazado 204238" d="M83.722,0c-4.53-.1-8.34,1.289-11.071,4.045-3.8,3.831-5.326,10.172-4.1,16.962,1.6,8.853,5.964,17.393,10.179,25.65,1.01,1.978,2.009,3.936,2.956,5.873.9,1.837,1.843,3.767,2.781,5.762q-.844-1.074-1.671-2.136l-.548-.7c-1.922-2.459-3.82-4.928-5.716-7.4C71.211,41.132,65.7,33.966,59.77,27.193c-.867-.989-1.737-2-2.618-3.019C50.345,16.282,42.631,7.339,32.253,2.89,23-1.072,11.023-.279,6.029,8.911-2.946,25.419,7.673,47.143,15.429,63l.88,1.8c2.281,4.686,4.823,9.267,7.513,13.83q-.924-1.1-1.814-2.218c-4.68-5.857-12.637-5.943-17.629-2.641C.251,76.51-1.979,81.7,2.349,87.156c9.591,12.08,20.284,24.275,33.47,31.645,7.318,4.09,15.242,4.9,21.2,2.167,5.247-2.406,8.4-7.323,8.883-13.847.565-7.652-1.4-15.03-4.158-22.089,9.811,8.889,27.869,21.585,42.08,20.03,6.528-.718,11.51-4.282,14.808-10.594,5.426-10.379.644-23.551-4.751-35.066-2.567-5.482-5.377-10.956-8.1-16.251l-.962-1.873c7.879,6.863,14.933,13.251,21.412,19.385v0a12.226,12.226,0,0,0,11.272,3.319,12.519,12.519,0,0,0,9.333-8.549c1.029-3.791-.2-7.542-3.468-10.562l-1.067-.985c-8.879-8.21-18.06-16.7-27.251-24.9-1.133-1.012-2.3-2.094-3.5-3.209C104.415,9.141,95.528.886,84.933.066,84.525.033,84.121.014,83.722,0ZM90.73,69.953a1.823,1.823,0,0,0,.9-.2,1.568,1.568,0,0,0,.837-1.945l-.094-.255A175.951,175.951,0,0,0,85.09,51.228c-.957-1.956-1.966-3.932-2.983-5.925-4.1-8.037-8.343-16.347-9.859-24.713-1.029-5.681.2-11.1,3.215-14.14C77.7,4.2,80.83,3.221,84.788,3.514c9.172.711,17.144,8.113,24.177,14.645,1.22,1.132,2.4,2.231,3.553,3.259,9.166,8.183,18.336,16.66,27.2,24.86l1.065.985c2.89,2.671,2.911,5.381,2.422,7.184a9.144,9.144,0,0,1-6.72,6.164,8.149,8.149,0,0,1-7.631-2.308v0c-8.371-7.924-17.687-16.261-28.482-25.486a2,2,0,0,0-2.359-.183,1.6,1.6,0,0,0-.572,2.092c1.627,3.278,3.3,6.536,4.974,9.794,2.7,5.267,5.5,10.713,8.039,16.138,5.054,10.786,9.573,23.047,4.792,32.193-2.779,5.321-6.715,8.191-12.033,8.774C89.967,103.075,70.967,89.43,61.436,79.895c-1.017-1.015-2-2.067-2.979-3.119l-.742-.8a2.01,2.01,0,0,0-2.4-.4,1.608,1.608,0,0,0-.7,2.112c4.231,9.188,8.3,19,7.56,29.036-.4,5.378-2.794,9.224-6.931,11.121-4.825,2.212-11.4,1.466-17.591-1.992C25.06,108.824,14.676,96.962,5.33,85.19c-2.952-3.72-1.257-6.865,1.315-8.566a9.251,9.251,0,0,1,12.387,1.77A137.453,137.453,0,0,0,32.765,93.174a2,2,0,0,0,2.449.219,1.612,1.612,0,0,0,.472-2.2q-1.1-1.814-2.222-3.621A273.176,273.176,0,0,1,19.71,63.508L18.828,61.7C11.387,46.482,1.2,25.639,9.387,10.577,13.365,3.26,23.174,2.75,30.808,6.02c9.526,4.082,16.61,12.295,23.459,20.237.886,1.026,1.765,2.044,2.639,3.04,5.853,6.683,11.322,13.8,16.613,20.683q2.853,3.714,5.734,7.42l.548.7A139.375,139.375,0,0,0,89.081,69.17l.17.171A2.223,2.223,0,0,0,90.73,69.953Zm36.817-10.47h0Z" transform="translate(0 0)" fill="#3c384f"/>
            <path id="Trazado_204239-2" data-name="Trazado 204239" d="M8.373,42.81C1.179,29.85-3.063,14.748,2.67,1.111,3.516-.906,7.157.063,6.3,2.109c-5.38,12.8-1.5,26.835,5.264,39.025C12.68,43.144,9.494,44.83,8.373,42.81Z" transform="translate(9.37 12.612)" fill="#3c384f"/>
            <path id="Trazado_204240-2" data-name="Trazado 204240" d="M5.569,3.382c-.032,0-.061.011-.091.015-.05.092-.095.193-.111.221l-.009.01c0,.014,0,0,0,.024-.223.768-.377,1.546-.542,2.33q-.57,2.724-1.142,5.448A1.822,1.822,0,0,1,1.4,12.588,1.846,1.846,0,0,1,.041,10.432Q.686,7.351,1.334,4.269C1.692,2.559,2.277.319,4.5.023a2.034,2.034,0,0,1,2.33,1.259A1.657,1.657,0,0,1,5.569,3.382Z" transform="translate(16.998 15.645)" fill="#3c384f"/>
            <path id="Trazado_204241-2" data-name="Trazado 204241" d="M6.421,41.5c-2.1,1-4.061-2.025-1.958-3.029,2.9-1.386,3.73-4.318,3.778-7.216a46.957,46.957,0,0,0-1.077-9.937A65.106,65.106,0,0,0,.233,2.587C-.882.576,2.3-1.108,3.423.912A68.229,68.229,0,0,1,11.2,22.958C12.228,29.213,13.492,38.12,6.421,41.5Z" transform="translate(100.253 53.126)" fill="#3c384f"/>
          </g>
          <g id="Grupo_982412-2" data-name="Grupo 982412" transform="translate(0 4.824)">
            <g id="Grupo_982411-2" data-name="Grupo 982411" transform="translate(0 0)">
              <g id="Grupo_982410-2" data-name="Grupo 982410">
                <path id="Trazado_204242-2" data-name="Trazado 204242" d="M125.655,57.753c-9.215-8.726-18.723-17.144-28.408-25.42C101.553,41,106.178,49.545,110.279,58.3c4.648,9.927,10.1,23.438,4.771,33.629a18.006,18.006,0,0,1-7.512,7.931C92.761,107.679,68.3,89.416,58.2,79.31c-1.289-1.287-2.519-2.63-3.766-3.959C58.874,85,62.9,94.9,62.144,105.2c-1.046,14.163-15.035,17.262-27.3,10.405C21.666,108.238,10.933,95.76,1.947,84.443c-7.631-9.611,9.112-18.24,16.682-8.765A134.987,134.987,0,0,0,32.17,90.253q-1.094-1.806-2.209-3.607A273.926,273.926,0,0,1,16.117,62.429C8.351,46.49-3.1,24.41,5.816,8.015,10.308-.247,21.28-.858,29.639,2.725,40.873,7.542,48.817,17.808,56.447,26.516,64.412,35.609,71.463,45.234,78.861,54.7a147.1,147.1,0,0,0,9.7,11.622c.08.083.166.161.247.246l-.092-.254A174.312,174.312,0,0,0,81.5,50.152c-4.85-9.91-11.048-20.367-12.99-31.081C66.791,9.6,70.677-.892,82.971.06c11.555.894,21.047,11.376,28.924,18.409,9.541,8.518,18.917,17.2,28.295,25.869C149.98,53.389,135.332,66.916,125.655,57.753Z" transform="translate(1.891 1.728)" fill="#859eec"/>
                <path id="Trazado_204243-2" data-name="Trazado 204243" d="M83.72,0c-4.53-.1-8.338,1.287-11.069,4.043-3.8,3.831-5.326,10.172-4.1,16.964,1.6,8.851,5.962,17.391,10.179,25.65,1.008,1.978,2.007,3.934,2.956,5.871.9,1.837,1.842,3.767,2.781,5.762-.563-.714-1.12-1.429-1.672-2.136l-.548-.7c-1.922-2.459-3.82-4.93-5.718-7.4C71.211,41.131,65.7,33.964,59.77,27.193q-1.3-1.486-2.618-3.021c-6.807-7.89-14.521-16.834-24.9-21.284C23-1.074,11.023-.279,6.029,8.911-2.946,25.417,7.673,47.142,15.427,63l.882,1.8c2.281,4.686,4.823,9.267,7.511,13.83q-.921-1.1-1.814-2.217c-4.678-5.858-12.635-5.945-17.627-2.643C.251,76.508-1.979,81.7,2.349,87.154c9.591,12.08,20.284,24.275,33.468,31.647,7.32,4.088,15.241,4.9,21.2,2.166,5.247-2.406,8.4-7.321,8.883-13.845.565-7.652-1.4-15.032-4.16-22.089,9.813,8.887,27.869,21.583,42.08,20.028,6.528-.718,11.512-4.282,14.81-10.594,5.424-10.379.642-23.549-4.751-35.066-2.567-5.481-5.377-10.956-8.1-16.25l-.962-1.873c7.879,6.862,14.933,13.249,21.412,19.384h0a12.225,12.225,0,0,0,11.272,3.318,12.514,12.514,0,0,0,9.331-8.549c1.031-3.791-.2-7.541-3.466-10.56l-1.067-.986c-8.879-8.21-18.06-16.7-27.251-24.9-1.133-1.012-2.3-2.094-3.5-3.209C104.415,9.139,95.527.884,84.933.064,84.523.033,84.121.014,83.72,0Zm7.008,69.948a1.819,1.819,0,0,0,.9-.205,1.567,1.567,0,0,0,.839-1.945l-.094-.255A176.162,176.162,0,0,0,85.09,51.227c-.957-1.954-1.966-3.93-2.983-5.925C78,37.265,73.762,28.955,72.245,20.59c-1.029-5.681.2-11.1,3.217-14.141,2.232-2.253,5.368-3.23,9.326-2.936,9.172.711,17.144,8.113,24.175,14.645,1.22,1.133,2.4,2.233,3.555,3.259,9.166,8.183,18.336,16.661,27.2,24.86l1.065.986c2.888,2.669,2.911,5.379,2.42,7.184a9.139,9.139,0,0,1-6.72,6.162,8.146,8.146,0,0,1-7.63-2.308h0c-8.371-7.924-17.687-16.261-28.482-25.488a2,2,0,0,0-2.359-.183,1.6,1.6,0,0,0-.572,2.092c1.627,3.278,3.3,6.536,4.972,9.8,2.7,5.266,5.5,10.711,8.04,16.136,5.052,10.786,9.573,23.047,4.792,32.194-2.781,5.319-6.717,8.189-12.033,8.774-13.249,1.45-32.25-12.2-41.781-21.728-1.015-1.016-2-2.068-2.977-3.119l-.744-.8a2.007,2.007,0,0,0-2.4-.4,1.61,1.61,0,0,0-.706,2.113c4.233,9.186,8.3,19,7.562,29.035-.4,5.38-2.794,9.226-6.931,11.123-4.827,2.211-11.4,1.464-17.591-1.994-12.588-7.035-22.97-18.9-32.316-30.671-2.954-3.72-1.257-6.863,1.315-8.564a9.249,9.249,0,0,1,12.387,1.768A137.114,137.114,0,0,0,32.765,93.172a2,2,0,0,0,2.447.219,1.608,1.608,0,0,0,.472-2.2q-1.1-1.816-2.221-3.623A273.2,273.2,0,0,1,19.708,63.506L18.826,61.7C11.386,46.48,1.2,25.637,9.388,10.577c3.978-7.318,13.787-7.828,21.42-4.558,9.526,4.082,16.61,12.3,23.459,20.237Q55.6,27.8,56.9,29.3c5.855,6.681,11.323,13.8,16.614,20.682,1.9,2.476,3.806,4.954,5.734,7.422l.547.7a139.442,139.442,0,0,0,9.279,11.068l.172.172A2.221,2.221,0,0,0,90.728,69.953Zm36.817-10.472h0Z" fill="#3c3fa7"/>
              </g>
              <path id="Trazado_204244-2" data-name="Trazado 204244" d="M8.374,42.809c-7.2-12.96-11.436-28.061-5.7-41.7.848-2.015,4.49-1.047,3.631,1C.917,14.915,4.8,28.944,11.564,41.134,12.679,43.145,9.495,44.829,8.374,42.809Z" transform="translate(9.369 12.611)" fill="#3c3fa7"/>
              <path id="Trazado_204245-2" data-name="Trazado 204245" d="M5.569,3.382c-.032,0-.061.011-.091.015-.05.094-.1.193-.113.221l-.007.01c0,.014,0,.005,0,.026-.223.766-.379,1.546-.542,2.328Q4.24,8.706,3.671,11.43A1.823,1.823,0,0,1,1.4,12.588,1.845,1.845,0,0,1,.041,10.431L1.332,4.27C1.692,2.559,2.277.318,4.5.022a2.035,2.035,0,0,1,2.33,1.259A1.659,1.659,0,0,1,5.569,3.382Z" transform="translate(16.998 15.644)" fill="#3c3fa7"/>
              <path id="Trazado_204246-2" data-name="Trazado 204246" d="M6.421,41.5c-2.1,1-4.062-2.025-1.958-3.029,2.9-1.386,3.728-4.318,3.778-7.214a46.971,46.971,0,0,0-1.077-9.939A65.1,65.1,0,0,0,.234,2.587C-.883.576,2.3-1.108,3.424.912A68.3,68.3,0,0,1,11.2,22.958C12.229,29.214,13.493,38.122,6.421,41.5Z" transform="translate(100.252 53.124)" fill="#323489"/>
            </g>
          </g>
        </g>
      </g>
    </g>
  </g>
</svg>
