<svg id="Grupo_174163" data-name="Grupo 174163" xmlns="http://www.w3.org/2000/svg" width="71.165" height="69.079" viewBox="0 0 71.165 69.079">
  <path id="Trazado_117335" data-name="Trazado 117335" d="M190.228,918.251a.213.213,0,0,1-.108-.031c-.017-.019-.208-.154-.227-.172q-4.253-4.319-8.524-8.617a3.535,3.535,0,0,0-2.584-1.089,9.2,9.2,0,0,0-3.13.78,16.644,16.644,0,0,1-2,.651c-1.062.247-2.152.522-3.258.8-3.839.973-7.81,1.98-11.575,1.98h0q-.355,0-.706-.012c-10.321-.363-12.224-7.682-14.633-16.947l-.208-.8c-.429-1.648-1.023-3.5-1.652-5.466-2.453-7.666-5.508-17.205-1.747-23.355,1.872-3.063,6.091-4.566,9.557-5.533,2.823-.788,5.63-1.629,8.438-2.471,2.99-.9,6.083-1.823,9.139-2.665.9-.246,1.883-.534,2.936-.842,4.985-1.454,11.811-3.446,17.665-3.446,3.631,0,6.521.774,8.587,2.3,5.212,3.855,6.732,11.2,8.073,17.677.25,1.205.493,2.383.753,3.506.157.68.322,1.369.488,2.063,1.737,7.272,3.534,14.791-.574,21.093-1.773,2.72-5.19,4.882-10.155,6.427a7.055,7.055,0,0,1-1.609.311c-1.631.15-1.693.9-1.858,2.9l-.029.347c-.265,3.168-.471,6.477-.629,10.115-.012.04-.021.078-.029.116a.314.314,0,0,1-.134.249A.481.481,0,0,1,190.228,918.251Z" transform="translate(-137.186 -850.097)" fill="#fff"/>
  <path id="Trazado_117336" data-name="Trazado 117336" d="M202.806,871.173c-1.691-7.307-2.689-16.92-9.177-21.718-7.549-5.583-22.166-.315-29.984,1.837-5.887,1.62-11.7,3.5-17.58,5.136-3.561.993-8.046,2.585-10.1,5.941-4.981,8.146,1.184,21.451,3.294,29.536,2.535,9.715,4.382,18.039,15.7,18.436,5.2.183,10.782-1.634,15.782-2.793,2.646-.614,4.986-2.464,6.853-.591q4.275,4.292,8.521,8.613a1.139,1.139,0,0,0,.449.339,1.181,1.181,0,0,0,1.305-.132,1.21,1.21,0,0,0,.543-.852,1.166,1.166,0,0,0,.033-.135c0-.012.007-.019.008-.031.147-3.394.348-6.778.631-10.163.278-3.322.055-1.881,2.849-2.75,3.917-1.218,8.328-3.234,10.655-6.8C207.331,887.776,204.61,878.97,202.806,871.173Zm-.762,19.227c-1.651,6.341-8.842,8.372-14.316,10a1.351,1.351,0,0,0-.958,1.258c-.367,3.263-.594,6.54-.765,9.819-3.173-3.867-6.76-8.726-11.466-7.534-7.241,1.834-20.825,7.163-27.37,1.4-3.5-3.084-4.258-9.887-5.39-14.124-1.364-5.109-2.612-10.251-3.865-15.388-.886-3.633-1.851-7.586-.285-11.168,2.111-4.827,9.351-5.745,13.808-7.054,8.555-2.513,17.059-5.249,25.845-6.856,4.3-.787,9.011-1.177,13.25.074,4.167,1.229,5.9,6.019,6.953,9.768,1.768,6.316,3.259,12.754,4.535,19.187A23.41,23.41,0,0,1,202.044,890.4Zm-18.7-28.872a8.67,8.67,0,0,1,1.814-2.615,9.761,9.761,0,0,1,2.534-2.418.237.237,0,0,1,.345.265,5.687,5.687,0,0,1-1.8,2.745,14.234,14.234,0,0,1-2.543,2.288A.236.236,0,0,1,183.346,861.529Zm4.569-.427c-.053.687-.529.979-1.068,1.334a4.054,4.054,0,0,1-1.576.706.258.258,0,0,1-.287-.375,4.229,4.229,0,0,1,1.33-1.4,1.663,1.663,0,0,1,1.407-.525A.261.261,0,0,1,187.914,861.1Zm-30.32,32.489a8.957,8.957,0,0,1-1.482,3.075c-.5.709-.949,1.7-1.9,1.8a.17.17,0,0,1-.167-.127c-.139-.948.709-1.611,1.246-2.3.683-.874,1.368-1.724,2.1-2.563C157.474,893.374,157.622,893.478,157.594,893.59Zm-3.336.38a2.8,2.8,0,0,1,1.68-1.484.269.269,0,0,1,.326.326,3.015,3.015,0,0,1-1.326,1.838A.5.5,0,0,1,154.258,893.971Zm5.48.157a2.025,2.025,0,0,1,.1,1.445,4.782,4.782,0,0,1-.435,1.57c-.2.32-.813.322-.878-.115a3.621,3.621,0,0,1,.3-1.735,2.519,2.519,0,0,1,.656-1.2A.166.166,0,0,1,159.738,894.128Zm31.394-5.406a.408.408,0,0,1-.384.5c-.88.1-1.644-.907-2.214-1.459a24.84,24.84,0,0,1-1.943-1.958.113.113,0,0,1,.079-.191,4.442,4.442,0,0,1,2.614,1.177C189.911,887.274,191.01,887.884,191.132,888.722Zm-3.228-4.175c-.124-.053-.069-.225.034-.26.863-.3,2.3-.035,2.642.91a.163.163,0,0,1-.114.2,1.716,1.716,0,0,1-1.141-.263C188.854,884.93,188.374,884.75,187.9,884.548Zm-1.146,4.342a.467.467,0,0,1-.071.557c-.031.025-.061.049-.093.072a.465.465,0,0,1-.557-.072,4.143,4.143,0,0,1-1.144-1.883.153.153,0,0,1,.188-.188A3.051,3.051,0,0,1,186.757,888.89Zm-34.447-21.077a3.071,3.071,0,0,1,.45.905.184.184,0,0,1-.177.233,2.138,2.138,0,0,1-1.175-.329,11.956,11.956,0,0,1-1.054-.826c-.649-.552-1.418-1.009-1.614-1.894a.267.267,0,0,1,.185-.326c.952-.2,1.605.461,2.248,1.064A11.456,11.456,0,0,1,152.311,867.813Zm1.8-.13a1.528,1.528,0,0,1-.694-.321,2.792,2.792,0,0,1-.594-.8,3.293,3.293,0,0,1-.616-1.707.648.648,0,0,1,.963-.553,3.247,3.247,0,0,1,1.166,1.616,4.133,4.133,0,0,1,.318.919,1.493,1.493,0,0,1-.04.459A.4.4,0,0,1,154.109,867.683Zm-4.618,12.276c-.93.547-2.627.751-3.419-.112a.219.219,0,0,1,0-.3,3.124,3.124,0,0,1,3.419-.434A.5.5,0,0,1,149.491,879.958Zm17.726-19.876a3.678,3.678,0,0,1,.178-2.03.227.227,0,0,1,.307-.08c1.274.575,1.358,2.925.491,3.9a.162.162,0,0,1-.2.026A2.461,2.461,0,0,1,167.217,860.082Zm26.139,11.363c-.38,1.105-2.424,1.38-3.373.941a.226.226,0,0,1-.045-.352,4.43,4.43,0,0,1,1.45-.821,2.435,2.435,0,0,1,1.613-.394A.514.514,0,0,1,193.356,871.445Zm-14.474,25.33a.239.239,0,0,1-.321.084c-.645-.325-.724-.875-1.025-1.482a7.132,7.132,0,0,1-.629-1.573.319.319,0,0,1,.464-.357C178.365,893.961,179.516,895.687,178.882,896.775Zm4.112-29.952c-5.306-5.474-12.8-.2-15.365,5.657-2.145-2.417-4.834-4.138-8.293-3.622-3.54.528-5.227,4.276-5.625,7.4-1.241,9.728,10.517,16.075,18.5,16.992a.84.84,0,0,0,.851-.376C179.515,887.713,191.281,875.37,182.993,866.823Zm-27.037,12.93c-.393-.742-.677-2.306.322-2.711.117-.048.224.052.263.15a3.693,3.693,0,0,1,.152,1.2c.018.385.087.756.08,1.142A.441.441,0,0,1,155.957,879.753Zm13.263,10.135c-2.78.113-5.257-1.565-7.4-3.171-1.845-1.384-3.965-3.292-4.73-5.538a.062.062,0,0,1,.09-.069c2.137,1.443,3.739,3.6,5.907,5.046,1.989,1.328,4.181,2.122,6.255,3.276A.247.247,0,0,1,169.22,889.888Zm8.766-22.192a.082.082,0,0,1,.02-.149c3.011-.944,7.572,4.3,5.414,6.938a.247.247,0,0,1-.385-.05c-.776-1.257-.752-2.781-1.665-4A12.818,12.818,0,0,0,177.985,867.7Zm5.358,10.208a.2.2,0,0,1-.264-.069c-.251-.373-.1-.7-.008-1.1.08-.357.073-.679.371-.917a.19.19,0,0,1,.26,0A1.575,1.575,0,0,1,183.343,877.9Z" transform="translate(-134.072 -846.971)"/>
</svg>
