<svg xmlns="http://www.w3.org/2000/svg" xmlns:xlink="http://www.w3.org/1999/xlink" width="1328" height="380" viewBox="0 0 1328 380">
  <defs>
    <clipPath id="clip-path">
      <rect id="Rect치ngulo_46184" data-name="Rect치ngulo 46184" width="1328" height="380" transform="translate(-32 273)" fill="#6b8dfc"/>
    </clipPath>
  </defs>
  <g id="Enmascarar_grupo_367" data-name="Enmascarar grupo 367" transform="translate(32 -273)" clip-path="url(#clip-path)">
    <g id="Grupo_180869" data-name="Grupo 180869" transform="translate(-190 273)">
      <path id="Uni칩n_109" data-name="Uni칩n 109" d="M239.738.166c-41.544,2.827-75.7,41.484-103.143,72.537-4.613,5.224-9.087,10.291-13.444,15.025C87.8,126.112,52.515,165.864,18.392,204.3l-4.1,4.61c-12.555,14.138-17.043,32-12.65,50.282,4.79,19.934,19.842,36.791,37.452,41.965,16.037,4.7,31.67-.522,43.975-14.743v.008c24.89-28.74,52.012-58.632,82.331-90.722l-3.607,8.881c-10.189,25.108-20.724,51.061-30.3,77.082-9.622,26.123-18.659,54.077-23.014,81.478-4.81,30.261-4.04,59.894,7.587,86.167,13.539,30.606,33.44,48.217,59.153,52.339,55.972,8.938,125.74-50.058,163.464-91.659-10.189,33.557-17.22,68.732-14.3,105.482,2.49,31.335,15.339,55.24,36.173,67.322,23.662,13.723,54.716,10.663,83.087-8.184,51.123-33.964,92.005-91.328,128.568-148.252,16.5-25.688,7.259-50.829-9.212-64.353-19.916-16.352-51.168-16.766-69.012,10.829q-3.394,5.262-6.92,10.448c10.146-21.6,19.711-43.3,28.239-65.531L518.6,309.2c29-75.249,68.718-178.309,31.935-258.4C530.066,6.211,482.939,1.161,446.956,19.2,406.6,39.445,377.114,81.526,351.1,118.658c-3.365,4.8-6.693,9.552-10.006,14.2-22.685,31.858-43.659,65.648-63.942,98.317q-10.832,17.463-21.775,34.876l-2.087,3.309q-3.151,5-6.369,10.066c3.5-9.469,7.038-18.623,10.4-27.338,3.541-9.187,7.287-18.475,11.071-27.853,15.794-39.154,32.133-79.652,37.62-121.933,4.209-32.43-2.387-62.994-17.653-81.758C277.373,7.048,262.276,0,244.491,0,242.926,0,241.339.05,239.738.166Z" transform="translate(598.311 610.944) rotate(180)" fill="#7b9aff" stroke="rgba(0,0,0,0)" stroke-miterlimit="10" stroke-width="1"/>
      <path id="Trazado_189688" data-name="Trazado 189688" d="M627.271,485.811C591.876,526.69,555.3,566.068,518.016,604.742c16.118-41.12,33.5-81.6,48.8-123.151,17.345-47.115,37.5-111.335,15.641-160.755-49.838-112.646-175.821-2.123-222.184,54.586-4.944,6.036-9.653,12.347-14.428,18.59,16.559-45.788,31.472-92.836,27.542-142.306-5.414-68.019-60.659-84.337-108.219-52.737-51.079,33.939-92.094,92.654-126.35,145.979-29.091,45.291,37.481,88.408,66.345,43.765a576.97,576.97,0,0,1,51.851-68.474q-4.132,8.545-8.345,17.065c-18.608,37.521-36.989,75.191-52.152,114.677-29.04,75.622-71.972,180.3-35.446,259.844,18.41,40.083,61.57,44.155,94.078,27.844,43.689-21.924,73.948-70.324,103.121-111.286,30.45-42.77,57.265-88.184,85.453-132.812,11.783-18.649,23.553-37.562,37.033-54.718.309-.39.639-.755.948-1.153l-.338,1.211c-7.486,26.269-17.117,51.476-26.858,76.75-18.138,47.015-41.522,96.51-48.163,147.679C400.466,710.58,416.7,761.285,464.909,758c45.312-3.085,81.633-52.355,111.929-85.258,36.7-39.851,72.729-80.5,108.77-121.1C723.236,509.269,664.443,442.884,627.271,485.811Z" transform="translate(-124.195 -175.16)" fill="#a6bbff"/>
      <path id="Trazado_189689" data-name="Trazado 189689" d="M467,773.744c-17.786,0-32.875-7.04-43.858-20.539-15.266-18.765-21.863-49.329-17.653-81.767,5.48-42.272,21.819-82.77,37.621-121.933,3.776-9.378,7.523-18.657,11.071-27.844,3.357-8.715,6.891-17.869,10.4-27.338-2.145,3.367-4.268,6.733-6.369,10.066l-2.086,3.3c-7.324,11.592-14.553,23.242-21.782,34.876-20.276,32.679-41.25,66.468-63.935,98.317-3.313,4.66-6.641,9.411-10.006,14.212-26.013,37.123-55.495,79.2-95.855,99.462-35.99,18.035-83.109,12.977-103.576-31.609C124.185,642.865,163.9,539.8,192.9,464.547l3.3-8.549c8.529-22.231,18.094-43.931,28.232-65.531q-3.515,5.186-6.92,10.439c-17.837,27.6-49.088,27.189-69,10.838-16.47-13.524-25.712-38.665-9.213-64.354C175.852,290.466,216.734,233.1,267.85,199.131c28.379-18.839,59.425-21.9,83.095-8.176,20.834,12.081,33.676,35.979,36.173,67.314,2.924,36.75-4.106,71.932-14.3,105.482,37.731-41.593,107.492-100.589,163.464-91.651,25.712,4.121,45.621,21.733,59.16,52.338,22.267,50.332,4.694,112.986-15.427,167.646-9.58,26.011-20.114,51.973-30.3,77.073l-3.607,8.881c30.318-32.081,57.441-61.974,82.331-90.714h0c12.305-14.221,27.938-19.436,43.975-14.735,17.609,5.174,32.662,22.032,37.445,41.965,4.4,18.283-.088,36.136-12.643,50.274l-4.1,4.619C658.985,607.889,623.7,647.633,588.35,686.024c-4.356,4.735-8.83,9.8-13.451,15.025-27.439,31.053-61.592,69.71-103.136,72.538C470.154,773.695,468.575,773.744,467,773.744Zm21.077-334.67a6.33,6.33,0,0,1,3.555,1.078,8.5,8.5,0,0,1,3.475,9.411l-.346,1.211c-7.846,27.537-18.079,54.088-27.108,77.5-3.578,9.27-7.361,18.64-11.174,28.1-15.376,38.11-31.273,77.513-36.46,117.463-3.519,27.131,1.822,53.242,13.943,68.143,8.977,11.036,21.385,16.045,36.908,15.05,35.968-2.454,66.6-37.115,93.622-67.7,4.687-5.307,9.242-10.456,13.664-15.257,35.255-38.284,70.5-77.977,104.576-116.369l4.092-4.619c11.1-12.5,10.939-25.49,8.845-34.2-3.4-14.146-14.487-26.592-26.969-30.249-7.6-2.239-18.917-2.255-29.76,10.274h0C606.789,536.04,570.961,575.045,529.4,618.163a6.71,6.71,0,0,1-9.249.63,8.933,8.933,0,0,1-2.439-10.091c6.09-15.547,12.364-31,18.63-46.451,10.138-24.967,20.614-50.788,30.1-76.534,18.851-51.194,35.483-109.511,15.853-153.873-11.416-25.8-27.145-39.967-48.082-43.325-52.181-8.333-125.571,55.116-162.134,99.835-3.894,4.768-7.648,9.71-11.409,14.644l-2.85,3.748a6.749,6.749,0,0,1-9.4,1.65,8.873,8.873,0,0,1-2.968-10.207c15.78-43.607,30.862-90.233,27.027-138.434-2.057-25.838-11.828-44.528-28.254-54.055-19.167-11.1-44.923-8.209-68.924,7.728-48.8,32.421-88.494,88.226-124.124,143.7-11.262,17.529-4.3,32.778,5.958,41.2,13.9,11.41,35.615,12.753,48.5-7.189A586.093,586.093,0,0,1,258.226,321.7a6.727,6.727,0,0,1,9.594-.8,8.987,8.987,0,0,1,2.057,10.614q-4.154,8.595-8.389,17.139c-18.844,37.993-36.982,75.3-51.821,113.931l-3.3,8.574c-27.821,72.2-65.919,171.079-32.361,244.147,16.3,35.506,54.884,38.972,84.571,24.088,37.048-18.582,64.119-57.231,90.294-94.594,3.387-4.834,6.744-9.619,10.079-14.312,22.384-31.427,43.211-64.984,63.362-97.439q10.866-17.512,21.841-34.992l2.087-3.292c11.056-17.521,22.487-35.638,35.431-52.106l.661-.8A7.6,7.6,0,0,1,488.08,439.074Zm145.6,54.047h0Z" transform="translate(-130.608 -182.469)" fill="#3c3fa7"/>
      <path id="Trazado_189690" data-name="Trazado 189690" d="M166.638,224.613c-27.071,61.394-42.337,133.359-18.564,199.355,3.519,9.751,17.734,5.489,14.171-4.411-22.326-61.965-8.382-128.831,17.08-186.576C183.52,223.452,170.855,215.044,166.638,224.613Z" transform="translate(-94.551 94.074)" fill="#3c3fa7"/>
      <path id="Trazado_189691" data-name="Trazado 189691" d="M162.953,281.5c-.125-.017-.242-.058-.36-.083-.206-.456-.4-.937-.463-1.07l-.029-.05c-.015-.066.007-.025-.015-.124-.948-3.7-1.631-7.454-2.344-11.219q-2.5-13.122-4.988-26.244c-.808-4.245-5.414-7.115-9.043-5.788-3.96,1.443-5.995,5.647-5.128,10.2l5.642,29.677c1.572,8.242,4.077,19.047,12.819,20.7,3.776.705,8.1-1.119,9.036-5.8C168.889,287.693,167,282.261,162.953,281.5Z" transform="translate(-68.556 212.205)" fill="#3c3fa7"/>
      <path id="Trazado_189692" data-name="Trazado 189692" d="M206.109,200.278c-8.338-5.025-15.773,9.287-7.413,14.32,11.534,6.949,15.045,21.095,15.508,34.984.529,15.78-1.043,32.007-3.313,47.546a344.946,344.946,0,0,1-25.5,89.072c-4.2,9.527,8.47,17.935,12.687,8.367a364.113,364.113,0,0,0,28.519-104.9C230.058,259.773,234.2,217.194,206.109,200.278Z" transform="translate(211.727 -60.291)" fill="#3c3fa7"/>
      <g id="Grupo_180868" data-name="Grupo 180868" transform="matrix(0.259, -0.966, 0.966, 0.259, 1235.311, 586.946)">
        <g id="Grupo_180864" data-name="Grupo 180864" transform="translate(11.33 10.459)" style="mix-blend-mode: overlay;isolation: isolate">
          <path id="Trazado_189693" data-name="Trazado 189693" d="M328.06,160.165C304,182.946,279.177,204.926,253.9,226.538c11.244-22.638,23.314-44.937,34.021-67.8,12.136-25.917,26.366-61.194,12.457-87.8-31.7-60.647-116.88,1.387-148.433,32.946-3.36,3.364-6.577,6.87-9.832,10.336,11.6-25.183,22.119-51.029,20.134-77.922C159.514-.679,122.989-8.771,90.961,9.135,56.568,28.357,28.54,60.936,5.085,90.481c-19.923,25.093,23.786,47.621,43.55,22.884A351.985,351.985,0,0,1,83.992,75.317q-2.857,4.715-5.772,9.413c-12.853,20.709-25.557,41.5-36.144,63.231C21.8,189.572-8.088,247.222,15.181,290.024c11.728,21.57,40.379,23.165,62.2,13.81,29.33-12.574,50.07-39.379,69.992-62.115,20.795-23.739,39.21-48.868,58.524-73.586,8.069-10.329,16.136-20.8,25.324-30.339.21-.221.43-.425.64-.641l-.24.66c-5.314,14.419-12.035,28.29-18.841,42.2-12.657,25.879-28.844,53.18-33.914,81.147-4.482,24.731,5.66,52.119,37.756,49.634,30.174-2.335,54.954-29.7,75.52-48.063,24.9-22.239,49.384-44.9,73.868-67.536C391.575,171.558,353.331,136.242,328.06,160.165Z" transform="translate(4.942 4.531)" fill="#3c384f"/>
          <path id="Trazado_189694" data-name="Trazado 189694" d="M218.586,319.983c-11.826.257-21.774-3.365-28.9-10.56-9.91-10-13.906-26.557-10.692-44.285,4.19-23.113,15.572-45.411,26.575-66.969,2.636-5.164,5.246-10.277,7.718-15.333,2.344-4.8,4.811-9.834,7.262-15.043q-2.2,2.8-4.364,5.576l-1.43,1.833c-5.018,6.421-9.974,12.867-14.925,19.314-13.9,18.091-28.283,36.8-43.775,54.484-2.263,2.582-4.536,5.218-6.835,7.882-17.772,20.6-37.913,43.954-65.009,55.568-24.156,10.345-55.428,8.274-68.466-15.719-23.433-43.1,4.293-99.818,24.541-141.231l2.3-4.709C48.535,138.557,55.173,126.6,62.2,114.683q-2.411,2.876-4.735,5.792c-12.218,15.291-32.993,15.516-46.026,6.9-10.779-7.13-16.6-20.692-5.3-34.925C31.172,60.907,59.09,29.067,93.517,9.826,112.623-.852,133.31-2.967,148.869,4.167c13.7,6.281,21.936,19.118,23.191,36.153,1.474,19.978-3.651,39.242-10.856,57.67C186.82,74.782,233.965,41.635,271.068,45.7c17.044,1.874,30.051,11.181,38.662,27.658,14.167,27.1,1.68,61.488-12.4,91.552-6.7,14.313-14.04,28.6-21.136,42.43l-2.512,4.89c20.57-17.92,38.987-34.6,55.9-50.612v0c8.364-7.925,18.826-11,29.429-8.667,11.643,2.564,21.436,11.53,24.366,22.321,2.687,9.9-.526,19.692-9.055,27.575l-2.785,2.571c-23.182,21.435-47.152,43.6-71.148,65.021-2.957,2.642-6,5.467-9.131,8.379-18.647,17.314-41.851,38.866-69.51,41.006C220.682,319.91,219.626,319.96,218.586,319.983Zm18.3-182.624a4.759,4.759,0,0,1,2.35.531,4.1,4.1,0,0,1,2.185,5.077l-.245.665c-5.569,15.119-12.714,29.727-19.017,42.614-2.5,5.106-5.133,10.265-7.789,15.47-10.707,20.983-21.781,42.678-25.741,64.522-2.687,14.831.53,28.979,8.395,36.917,5.833,5.887,14.014,8.432,24.348,7.666,23.947-1.857,44.76-21.181,63.123-38.235,3.184-2.954,6.274-5.825,9.276-8.509,23.932-21.365,47.872-43.5,71.024-64.9l2.78-2.571c7.546-6.972,7.6-14.048,6.324-18.757-2.08-7.662-9.3-14.277-17.545-16.094-5.027-1.11-12.554-.955-19.924,6.027v0c-21.855,20.688-46.178,42.454-74.363,66.539a5.225,5.225,0,0,1-6.158.477,4.189,4.189,0,0,1-1.493-5.462c4.248-8.558,8.618-17.064,12.987-25.57,7.056-13.752,14.356-27.97,20.987-42.133,13.194-28.162,24.995-60.171,12.51-84.05C293.641,63.69,283.364,56.2,269.48,54.674c-34.59-3.791-84.2,31.835-109.079,56.729-2.655,2.649-5.214,5.4-7.778,8.142l-1.938,2.078a5.247,5.247,0,0,1-6.274,1.035,4.2,4.2,0,0,1-1.838-5.513c11.046-23.988,21.671-49.6,19.738-75.81-1.037-14.041-7.295-24.082-18.1-29.035-12.6-5.776-29.765-3.828-45.928,5.2C65.428,35.873,38.317,66.843,13.916,97.577c-7.708,9.712-3.282,17.923,3.434,22.364,9.1,6.01,23.518,6.429,32.341-4.621A358.874,358.874,0,0,1,85.545,76.734a5.226,5.226,0,0,1,6.395-.572,4.208,4.208,0,0,1,1.232,5.757q-2.872,4.735-5.8,9.454c-13.011,20.97-25.553,41.555-35.91,62.815l-2.3,4.718C29.728,198.639,3.131,253.057,24.509,292.382c10.385,19.1,36,20.434,55.925,11.9,24.872-10.658,43.366-32.1,61.249-52.836,2.314-2.678,4.607-5.337,6.89-7.938,15.281-17.448,29.559-36.03,43.373-54q7.449-9.7,14.97-19.373l1.43-1.828c7.576-9.7,15.408-19.735,24.231-28.9l.445-.448A5.805,5.805,0,0,1,236.882,137.359ZM333.007,164.7h0Z" transform="translate(0 0)" fill="#3c384f"/>
          <path id="Trazado_189695" data-name="Trazado 189695" d="M21.86,2.38C3.079,36.216-8,75.646,6.97,111.251c2.21,5.266,11.717,2.734,9.474-2.608C2.4,75.213,12.524,38.58,30.189,6.754,33.1,1.508,24.786-2.894,21.86,2.38Z" transform="translate(24.465 172.917)" fill="#3c384f"/>
          <path id="Trazado_189696" data-name="Trazado 189696" d="M14.541,24.242c-.083-.007-.16-.028-.238-.04-.131-.241-.247-.5-.289-.576l-.024-.027c-.009-.036.005-.009-.008-.063C13.4,21.531,13,19.5,12.566,17.454Q11.078,10.341,9.585,3.229C9.1.928,6.076-.569,3.651.206A4.819,4.819,0,0,0,.106,5.837q1.686,8.043,3.377,16.09c.935,4.463,2.463,10.313,8.254,11.085,2.5.334,5.4-.727,6.082-3.288C18.408,27.531,17.227,24.6,14.541,24.242Z" transform="translate(44.38 246.078)" fill="#3c384f"/>
          <path id="Trazado_189697" data-name="Trazado 189697" d="M16.763.524c-5.48-2.617-10.6,5.287-5.112,7.908,7.58,3.619,9.739,11.274,9.864,18.839A122.6,122.6,0,0,1,18.7,53.216,169.981,169.981,0,0,1,.609,102.108c-2.911,5.251,5.4,9.648,8.329,4.375a178.134,178.134,0,0,0,20.3-57.559C31.926,32.593,35.226,9.338,16.763.524Z" transform="translate(261.745 72.429)" fill="#3c384f"/>
        </g>
        <g id="Grupo_180867" data-name="Grupo 180867" transform="translate(7.959 -2.133)">
          <g id="Grupo_180866" data-name="Grupo 180866">
            <g id="Grupo_180865" data-name="Grupo 180865">
              <path id="Trazado_189698" data-name="Trazado 189698" d="M328.065,160.166c-24.058,22.781-48.883,44.762-74.168,66.368C265.14,203.9,277.215,181.6,287.922,158.74c12.136-25.917,26.361-61.194,12.457-87.8-5.2-9.946-11.835-16.593-19.614-20.707C242.184,29.819,178.324,77.5,151.945,103.885c-3.365,3.36-6.577,6.866-9.832,10.336,11.6-25.183,22.114-51.029,20.134-77.922C159.518-.678,122.994-8.77,90.965,9.132c-34.4,19.227-62.421,51.805-85.881,81.35-19.923,25.093,23.791,47.621,43.554,22.884A352.429,352.429,0,0,1,83.991,75.314q-2.857,4.715-5.767,9.417c-12.853,20.709-25.557,41.5-36.144,63.226C21.8,189.574-8.084,247.219,15.186,290.025c11.728,21.57,40.374,23.165,62.2,13.81,29.33-12.574,50.07-39.379,69.991-62.115,20.795-23.74,39.205-48.868,58.519-73.587,8.074-10.329,16.141-20.8,25.324-30.344.21-.217.435-.42.645-.642l-.24.664c-5.314,14.419-12.04,28.29-18.841,42.2-12.662,25.875-28.844,53.175-33.914,81.147-4.487,24.731,5.66,52.119,37.756,49.634,30.169-2.335,54.949-29.7,75.515-48.063,24.909-22.24,49.389-44.9,73.873-67.54C391.574,171.559,353.331,136.244,328.065,160.166Z" transform="translate(4.937 4.529)" fill="#a6bbff"/>
              <path id="Trazado_189699" data-name="Trazado 189699" d="M218.581,319.979c-11.826.257-21.769-3.36-28.9-10.556-9.91-10-13.906-26.557-10.692-44.289,4.185-23.108,15.567-45.406,26.575-66.969,2.631-5.163,5.241-10.272,7.718-15.328,2.344-4.8,4.81-9.834,7.262-15.044-1.469,1.865-2.924,3.73-4.364,5.576l-1.429,1.828c-5.018,6.421-9.974,12.872-14.93,19.314-13.9,18.1-28.279,36.806-43.77,54.484q-3.394,3.88-6.835,7.887c-17.772,20.6-37.913,43.95-65.009,55.568-24.161,10.345-55.427,8.27-68.466-15.724-23.433-43.1,4.293-99.814,24.536-141.231l2.3-4.7c5.956-12.234,12.593-24.194,19.611-36.107q-2.4,2.876-4.735,5.787c-12.213,15.3-32.988,15.521-46.021,6.9-10.779-7.13-16.6-20.692-5.3-34.925C31.172,60.907,59.09,29.067,93.512,9.822,112.623-.851,133.305-2.967,148.869,4.167c13.7,6.281,21.931,19.114,23.191,36.148,1.474,19.978-3.651,39.246-10.86,57.67,25.62-23.2,72.761-56.351,109.864-52.29,17.044,1.874,30.056,11.181,38.667,27.658,14.162,27.1,1.676,61.484-12.4,91.552-6.7,14.309-14.04,28.6-21.136,42.425l-2.512,4.89c20.57-17.915,38.987-34.591,55.9-50.607h0c8.364-7.925,18.826-10.992,29.429-8.662,11.643,2.564,21.436,11.531,24.361,22.321,2.692,9.9-.521,19.687-9.05,27.57l-2.785,2.575c-23.182,21.435-47.152,43.6-71.148,65.021-2.957,2.642-6,5.467-9.136,8.379-18.642,17.313-41.846,38.866-69.505,41.006C220.677,319.906,219.626,319.956,218.581,319.979Zm18.3-182.623a4.749,4.749,0,0,1,2.35.536,4.091,4.091,0,0,1,2.19,5.077l-.245.665c-5.569,15.115-12.714,29.727-19.017,42.614-2.5,5.1-5.133,10.261-7.789,15.47-10.712,20.983-21.786,42.679-25.746,64.517-2.687,14.831.53,28.979,8.4,36.921,5.828,5.883,14.014,8.432,24.349,7.665,23.947-1.856,44.76-21.181,63.118-38.235,3.184-2.959,6.279-5.83,9.281-8.509,23.932-21.365,47.872-43.5,71.024-64.9l2.78-2.575c7.541-6.968,7.6-14.044,6.319-18.757-2.081-7.657-9.293-14.277-17.545-16.089-5.022-1.11-12.549-.956-19.92,6.027h0c-21.855,20.688-46.178,42.454-74.363,66.544a5.226,5.226,0,0,1-6.158.477,4.184,4.184,0,0,1-1.493-5.462c4.248-8.558,8.618-17.064,12.982-25.575,7.061-13.748,14.356-27.966,20.992-42.128,13.189-28.161,24.995-60.171,12.51-84.055C293.636,63.69,283.359,56.2,269.48,54.67c-34.59-3.786-84.2,31.84-109.084,56.729-2.65,2.654-5.209,5.4-7.773,8.142l-1.943,2.083a5.239,5.239,0,0,1-6.269,1.035,4.2,4.2,0,0,1-1.843-5.518c11.05-23.984,21.675-49.6,19.742-75.805-1.037-14.046-7.295-24.087-18.1-29.04-12.6-5.772-29.765-3.823-45.928,5.206C65.423,35.869,38.317,66.843,13.916,97.578,6.2,107.29,10.634,115.5,17.35,119.938c9.1,6.015,23.518,6.433,32.341-4.617A357.983,357.983,0,0,1,85.545,76.734a5.22,5.22,0,0,1,6.39-.572,4.2,4.2,0,0,1,1.232,5.752q-2.872,4.742-5.8,9.458c-13.016,20.97-25.553,41.555-35.915,62.815l-2.3,4.718c-19.423,39.733-46.02,94.151-24.642,133.472,10.385,19.107,36,20.438,55.925,11.9,24.872-10.658,43.367-32.1,61.249-52.836q3.471-4.024,6.885-7.942c15.286-17.444,29.564-36.026,43.378-54,4.966-6.465,9.937-12.934,14.97-19.378l1.429-1.824c7.576-9.7,15.408-19.74,24.226-28.9l.45-.448A5.8,5.8,0,0,1,236.878,137.355ZM333,164.7h0Z" transform="translate(0 0)" fill="#3c3fa7"/>
            </g>
            <path id="Trazado_189700" data-name="Trazado 189700" d="M21.863,2.381C3.077,36.217-7.995,75.642,6.968,111.252c2.215,5.261,11.722,2.734,9.479-2.608C2.4,75.209,12.522,38.581,30.192,6.755,33.1,1.5,24.789-2.893,21.863,2.381Z" transform="translate(24.462 172.917)"/>
            <path id="Trazado_189701" data-name="Trazado 189701" d="M14.541,24.242c-.083-.007-.16-.028-.238-.04-.131-.246-.252-.5-.294-.576l-.019-.027c-.009-.036.005-.014-.008-.067-.583-2-.989-4.038-1.415-6.078q-1.5-7.112-2.981-14.225C9.1.928,6.076-.569,3.646.206a4.818,4.818,0,0,0-3.54,5.63L3.478,21.922c.94,4.467,2.467,10.317,8.259,11.09,2.5.33,5.4-.727,6.082-3.288C18.408,27.531,17.222,24.6,14.541,24.242Z" transform="translate(44.38 246.078)"/>
            <path id="Trazado_189702" data-name="Trazado 189702" d="M16.765.524c-5.48-2.617-10.606,5.287-5.112,7.908,7.58,3.619,9.734,11.275,9.864,18.834a122.633,122.633,0,0,1-2.811,25.949A169.977,169.977,0,0,1,.61,102.108c-2.916,5.251,5.4,9.648,8.329,4.375a178.321,178.321,0,0,0,20.3-57.559C31.928,32.589,35.228,9.333,16.765.524Z" transform="translate(261.743 72.43)" fill="#323489"/>
          </g>
        </g>
      </g>
    </g>
    <g id="Grupo_180874" data-name="Grupo 180874" transform="matrix(0.259, -0.966, 0.966, 0.259, 1045.311, 1394.112)">
      <g id="Grupo_180870" data-name="Grupo 180870" transform="translate(11.33 10.459)" style="mix-blend-mode: overlay;isolation: isolate">
        <path id="Trazado_189703" data-name="Trazado 189703" d="M328.06,160.165C304,182.946,279.177,204.926,253.9,226.538c11.244-22.638,23.314-44.937,34.021-67.8,12.136-25.917,26.366-61.194,12.457-87.8-31.7-60.647-116.88,1.387-148.433,32.946-3.36,3.364-6.577,6.87-9.832,10.336,11.6-25.183,22.119-51.029,20.134-77.922C159.514-.679,122.989-8.771,90.961,9.135,56.568,28.357,28.54,60.936,5.085,90.481c-19.923,25.093,23.786,47.621,43.55,22.884A351.985,351.985,0,0,1,83.992,75.317q-2.857,4.715-5.772,9.413c-12.853,20.709-25.557,41.5-36.144,63.231C21.8,189.572-8.088,247.222,15.181,290.024c11.728,21.57,40.379,23.165,62.2,13.81,29.33-12.574,50.07-39.379,69.992-62.115,20.795-23.739,39.21-48.868,58.524-73.586,8.069-10.329,16.136-20.8,25.324-30.339.21-.221.43-.425.64-.641l-.24.66c-5.314,14.419-12.035,28.29-18.841,42.2-12.657,25.879-28.844,53.18-33.914,81.147-4.482,24.731,5.66,52.119,37.756,49.634,30.174-2.335,54.954-29.7,75.52-48.063,24.9-22.239,49.384-44.9,73.868-67.536C391.575,171.558,353.331,136.242,328.06,160.165Z" transform="translate(4.942 4.531)" fill="#3c384f"/>
        <path id="Trazado_189704" data-name="Trazado 189704" d="M218.586,319.983c-11.826.257-21.774-3.365-28.9-10.56-9.91-10-13.906-26.557-10.692-44.285,4.19-23.113,15.572-45.411,26.575-66.969,2.636-5.164,5.246-10.277,7.718-15.333,2.344-4.8,4.811-9.834,7.262-15.043q-2.2,2.8-4.364,5.576l-1.43,1.833c-5.018,6.421-9.974,12.867-14.925,19.314-13.9,18.091-28.283,36.8-43.775,54.484-2.263,2.582-4.536,5.218-6.835,7.882-17.772,20.6-37.913,43.954-65.009,55.568-24.156,10.345-55.428,8.274-68.466-15.719-23.433-43.1,4.293-99.818,24.541-141.231l2.3-4.709C48.535,138.557,55.173,126.6,62.2,114.683q-2.411,2.876-4.735,5.792c-12.218,15.291-32.993,15.516-46.026,6.9-10.779-7.13-16.6-20.692-5.3-34.925C31.172,60.907,59.09,29.067,93.517,9.826,112.623-.852,133.31-2.967,148.869,4.167c13.7,6.281,21.936,19.118,23.191,36.153,1.474,19.978-3.651,39.242-10.856,57.67C186.82,74.782,233.965,41.635,271.068,45.7c17.044,1.874,30.051,11.181,38.662,27.658,14.167,27.1,1.68,61.488-12.4,91.552-6.7,14.313-14.04,28.6-21.136,42.43l-2.512,4.89c20.57-17.92,38.987-34.6,55.9-50.612v0c8.364-7.925,18.826-11,29.429-8.667,11.643,2.564,21.436,11.53,24.366,22.321,2.687,9.9-.526,19.692-9.055,27.575l-2.785,2.571c-23.182,21.435-47.152,43.6-71.148,65.021-2.957,2.642-6,5.467-9.131,8.379-18.647,17.314-41.851,38.866-69.51,41.006C220.682,319.91,219.626,319.96,218.586,319.983Zm18.3-182.624a4.759,4.759,0,0,1,2.35.531,4.1,4.1,0,0,1,2.185,5.077l-.245.665c-5.569,15.119-12.714,29.727-19.017,42.614-2.5,5.106-5.133,10.265-7.789,15.47-10.707,20.983-21.781,42.678-25.741,64.522-2.687,14.831.53,28.979,8.395,36.917,5.833,5.887,14.014,8.432,24.348,7.666,23.947-1.857,44.76-21.181,63.123-38.235,3.184-2.954,6.274-5.825,9.276-8.509,23.932-21.365,47.872-43.5,71.024-64.9l2.78-2.571c7.546-6.972,7.6-14.048,6.324-18.757-2.08-7.662-9.3-14.277-17.545-16.094-5.027-1.11-12.554-.955-19.924,6.027v0c-21.855,20.688-46.178,42.454-74.363,66.539a5.225,5.225,0,0,1-6.158.477,4.189,4.189,0,0,1-1.493-5.462c4.248-8.558,8.618-17.064,12.987-25.57,7.056-13.752,14.356-27.97,20.987-42.133,13.194-28.162,24.995-60.171,12.51-84.05C293.641,63.69,283.364,56.2,269.48,54.674c-34.59-3.791-84.2,31.835-109.079,56.729-2.655,2.649-5.214,5.4-7.778,8.142l-1.938,2.078a5.247,5.247,0,0,1-6.274,1.035,4.2,4.2,0,0,1-1.838-5.513c11.046-23.988,21.671-49.6,19.738-75.81-1.037-14.041-7.295-24.082-18.1-29.035-12.6-5.776-29.765-3.828-45.928,5.2C65.428,35.873,38.317,66.843,13.916,97.577c-7.708,9.712-3.282,17.923,3.434,22.364,9.1,6.01,23.518,6.429,32.341-4.621A358.874,358.874,0,0,1,85.545,76.734a5.226,5.226,0,0,1,6.395-.572,4.208,4.208,0,0,1,1.232,5.757q-2.872,4.735-5.8,9.454c-13.011,20.97-25.553,41.555-35.91,62.815l-2.3,4.718C29.728,198.639,3.131,253.057,24.509,292.382c10.385,19.1,36,20.434,55.925,11.9,24.872-10.658,43.366-32.1,61.249-52.836,2.314-2.678,4.607-5.337,6.89-7.938,15.281-17.448,29.559-36.03,43.373-54q7.449-9.7,14.97-19.373l1.43-1.828c7.576-9.7,15.408-19.735,24.231-28.9l.445-.448A5.805,5.805,0,0,1,236.882,137.359ZM333.007,164.7h0Z" transform="translate(0 0)" fill="#3c384f"/>
        <path id="Trazado_189705" data-name="Trazado 189705" d="M21.86,2.38C3.079,36.216-8,75.646,6.97,111.251c2.21,5.266,11.717,2.734,9.474-2.608C2.4,75.213,12.524,38.58,30.189,6.754,33.1,1.508,24.786-2.894,21.86,2.38Z" transform="translate(24.465 172.917)" fill="#3c384f"/>
        <path id="Trazado_189706" data-name="Trazado 189706" d="M14.541,24.242c-.083-.007-.16-.028-.238-.04-.131-.241-.247-.5-.289-.576l-.024-.027c-.009-.036.005-.009-.008-.063C13.4,21.531,13,19.5,12.566,17.454Q11.078,10.341,9.585,3.229C9.1.928,6.076-.569,3.651.206A4.819,4.819,0,0,0,.106,5.837q1.686,8.043,3.377,16.09c.935,4.463,2.463,10.313,8.254,11.085,2.5.334,5.4-.727,6.082-3.288C18.408,27.531,17.227,24.6,14.541,24.242Z" transform="translate(44.38 246.078)" fill="#3c384f"/>
        <path id="Trazado_189707" data-name="Trazado 189707" d="M16.763.524c-5.48-2.617-10.6,5.287-5.112,7.908,7.58,3.619,9.739,11.274,9.864,18.839A122.6,122.6,0,0,1,18.7,53.216,169.981,169.981,0,0,1,.609,102.108c-2.911,5.251,5.4,9.648,8.329,4.375a178.134,178.134,0,0,0,20.3-57.559C31.926,32.593,35.226,9.338,16.763.524Z" transform="translate(261.745 72.429)" fill="#3c384f"/>
      </g>
      <g id="Grupo_180873" data-name="Grupo 180873" transform="translate(0 0)">
        <g id="Grupo_180872" data-name="Grupo 180872">
          <g id="Grupo_180871" data-name="Grupo 180871">
            <path id="Trazado_189708" data-name="Trazado 189708" d="M328.065,160.166c-24.058,22.781-48.883,44.762-74.168,66.368C265.14,203.9,277.215,181.6,287.922,158.74c12.136-25.917,26.361-61.194,12.457-87.8-31.7-60.646-116.88,1.383-148.433,32.946-3.365,3.36-6.577,6.866-9.832,10.336,11.6-25.183,22.114-51.029,20.134-77.922C159.518-.678,122.994-8.77,90.965,9.132c-34.4,19.227-62.421,51.805-85.881,81.35-19.923,25.093,23.791,47.621,43.554,22.884A352.429,352.429,0,0,1,83.991,75.314q-2.857,4.715-5.767,9.417c-12.853,20.709-25.557,41.5-36.144,63.226C21.8,189.574-8.084,247.219,15.186,290.025c11.728,21.57,40.374,23.165,62.2,13.81,29.33-12.574,50.07-39.379,69.991-62.115,20.795-23.74,39.205-48.868,58.519-73.587,8.074-10.329,16.141-20.8,25.324-30.344.21-.217.435-.42.645-.642l-.24.664c-5.314,14.419-12.04,28.29-18.841,42.2-12.662,25.875-28.844,53.175-33.914,81.147-4.487,24.731,5.66,52.119,37.756,49.634,30.169-2.335,54.949-29.7,75.515-48.063,24.909-22.24,49.389-44.9,73.873-67.54C391.574,171.559,353.331,136.244,328.065,160.166Z" transform="translate(4.937 4.529)" fill="#3c3fa7"/>
            <path id="Trazado_189709" data-name="Trazado 189709" d="M218.581,319.979c-11.826.257-21.769-3.36-28.9-10.556-9.91-10-13.906-26.557-10.692-44.289,4.185-23.108,15.567-45.406,26.575-66.969,2.631-5.163,5.241-10.272,7.718-15.328,2.344-4.8,4.81-9.834,7.262-15.044-1.469,1.865-2.924,3.73-4.364,5.576l-1.429,1.828c-5.018,6.421-9.974,12.872-14.93,19.314-13.9,18.1-28.279,36.806-43.77,54.484q-3.394,3.88-6.835,7.887c-17.772,20.6-37.913,43.95-65.009,55.568-24.161,10.345-55.427,8.27-68.466-15.724-23.433-43.1,4.293-99.814,24.536-141.231l2.3-4.7c5.956-12.234,12.593-24.194,19.611-36.107q-2.4,2.876-4.735,5.787c-12.213,15.3-32.988,15.521-46.021,6.9-10.779-7.13-16.6-20.692-5.3-34.925C31.172,60.907,59.09,29.067,93.512,9.822,112.623-.851,133.305-2.967,148.869,4.167c13.7,6.281,21.931,19.114,23.191,36.148,1.474,19.978-3.651,39.246-10.86,57.67,25.62-23.2,72.761-56.351,109.864-52.29,17.044,1.874,30.056,11.181,38.667,27.658,14.162,27.1,1.676,61.484-12.4,91.552-6.7,14.309-14.04,28.6-21.136,42.425l-2.512,4.89c20.57-17.915,38.987-34.591,55.9-50.607h0c8.364-7.925,18.826-10.992,29.429-8.662,11.643,2.564,21.436,11.531,24.361,22.321,2.692,9.9-.521,19.687-9.05,27.57l-2.785,2.575c-23.182,21.435-47.152,43.6-71.148,65.021-2.957,2.642-6,5.467-9.136,8.379-18.642,17.313-41.846,38.866-69.505,41.006C220.677,319.906,219.626,319.956,218.581,319.979Zm18.3-182.623a4.749,4.749,0,0,1,2.35.536,4.091,4.091,0,0,1,2.19,5.077l-.245.665c-5.569,15.115-12.714,29.727-19.017,42.614-2.5,5.1-5.133,10.261-7.789,15.47-10.712,20.983-21.786,42.679-25.746,64.517-2.687,14.831.53,28.979,8.4,36.921,5.828,5.883,14.014,8.432,24.349,7.665,23.947-1.856,44.76-21.181,63.118-38.235,3.184-2.959,6.279-5.83,9.281-8.509,23.932-21.365,47.872-43.5,71.024-64.9l2.78-2.575c7.541-6.968,7.6-14.044,6.319-18.757-2.081-7.657-9.293-14.277-17.545-16.089-5.022-1.11-12.549-.956-19.92,6.027h0c-21.855,20.688-46.178,42.454-74.363,66.544a5.226,5.226,0,0,1-6.158.477,4.184,4.184,0,0,1-1.493-5.462c4.248-8.558,8.618-17.064,12.982-25.575,7.061-13.748,14.356-27.966,20.992-42.128,13.189-28.161,24.995-60.171,12.51-84.055C293.636,63.69,283.359,56.2,269.48,54.67c-34.59-3.786-84.2,31.84-109.084,56.729-2.65,2.654-5.209,5.4-7.773,8.142l-1.943,2.083a5.239,5.239,0,0,1-6.269,1.035,4.2,4.2,0,0,1-1.843-5.518c11.05-23.984,21.675-49.6,19.742-75.805-1.037-14.046-7.295-24.087-18.1-29.04-12.6-5.772-29.765-3.823-45.928,5.206C65.423,35.869,38.317,66.843,13.916,97.578,6.2,107.29,10.634,115.5,17.35,119.938c9.1,6.015,23.518,6.433,32.341-4.617A357.983,357.983,0,0,1,85.545,76.734a5.22,5.22,0,0,1,6.39-.572,4.2,4.2,0,0,1,1.232,5.752q-2.872,4.742-5.8,9.458c-13.016,20.97-25.553,41.555-35.915,62.815l-2.3,4.718c-19.423,39.733-46.02,94.151-24.642,133.472,10.385,19.107,36,20.438,55.925,11.9,24.872-10.658,43.367-32.1,61.249-52.836q3.471-4.024,6.885-7.942c15.286-17.444,29.564-36.026,43.378-54,4.966-6.465,9.937-12.934,14.97-19.378l1.429-1.824c7.576-9.7,15.408-19.74,24.226-28.9l.45-.448A5.8,5.8,0,0,1,236.878,137.355ZM333,164.7h0Z" transform="translate(0 0)"/>
          </g>
          <path id="Trazado_189710" data-name="Trazado 189710" d="M21.863,2.381C3.077,36.217-7.995,75.642,6.968,111.252c2.215,5.261,11.722,2.734,9.479-2.608C2.4,75.209,12.522,38.581,30.192,6.755,33.1,1.5,24.789-2.893,21.863,2.381Z" transform="translate(24.462 172.917)"/>
          <path id="Trazado_189711" data-name="Trazado 189711" d="M14.541,24.242c-.083-.007-.16-.028-.238-.04-.131-.246-.252-.5-.294-.576l-.019-.027c-.009-.036.005-.014-.008-.067-.583-2-.989-4.038-1.415-6.078q-1.5-7.112-2.981-14.225C9.1.928,6.076-.569,3.646.206a4.818,4.818,0,0,0-3.54,5.63L3.478,21.922c.94,4.467,2.467,10.317,8.259,11.09,2.5.33,5.4-.727,6.082-3.288C18.408,27.531,17.222,24.6,14.541,24.242Z" transform="translate(44.38 246.078)"/>
          <path id="Trazado_189712" data-name="Trazado 189712" d="M16.765.524c-5.48-2.617-10.606,5.287-5.112,7.908,7.58,3.619,9.734,11.275,9.864,18.834a122.633,122.633,0,0,1-2.811,25.949A169.977,169.977,0,0,1,.61,102.108c-2.916,5.251,5.4,9.648,8.329,4.375a178.321,178.321,0,0,0,20.3-57.559C31.928,32.589,35.228,9.333,16.765.524Z" transform="translate(261.743 72.43)"/>
        </g>
      </g>
    </g>
    <g id="Grupo_180879" data-name="Grupo 180879" transform="matrix(0.259, -0.966, 0.966, 0.259, 1045.311, 1394.112)">
      <g id="Grupo_180875" data-name="Grupo 180875" transform="translate(11.33 10.459)" style="mix-blend-mode: overlay;isolation: isolate">
        <path id="Trazado_189713" data-name="Trazado 189713" d="M328.06,160.165C304,182.946,279.177,204.926,253.9,226.538c11.244-22.638,23.314-44.937,34.021-67.8,12.136-25.917,26.366-61.194,12.457-87.8-31.7-60.647-116.88,1.387-148.433,32.946-3.36,3.364-6.577,6.87-9.832,10.336,11.6-25.183,22.119-51.029,20.134-77.922C159.514-.679,122.989-8.771,90.961,9.135,56.568,28.357,28.54,60.936,5.085,90.481c-19.923,25.093,23.786,47.621,43.55,22.884A351.985,351.985,0,0,1,83.992,75.317q-2.857,4.715-5.772,9.413c-12.853,20.709-25.557,41.5-36.144,63.231C21.8,189.572-8.088,247.222,15.181,290.024c11.728,21.57,40.379,23.165,62.2,13.81,29.33-12.574,50.07-39.379,69.992-62.115,20.795-23.739,39.21-48.868,58.524-73.586,8.069-10.329,16.136-20.8,25.324-30.339.21-.221.43-.425.64-.641l-.24.66c-5.314,14.419-12.035,28.29-18.841,42.2-12.657,25.879-28.844,53.18-33.914,81.147-4.482,24.731,5.66,52.119,37.756,49.634,30.174-2.335,54.954-29.7,75.52-48.063,24.9-22.239,49.384-44.9,73.868-67.536C391.575,171.558,353.331,136.242,328.06,160.165Z" transform="translate(4.942 4.531)" fill="#3c384f"/>
        <path id="Trazado_189714" data-name="Trazado 189714" d="M218.586,319.983c-11.826.257-21.774-3.365-28.9-10.56-9.91-10-13.906-26.557-10.692-44.285,4.19-23.113,15.572-45.411,26.575-66.969,2.636-5.164,5.246-10.277,7.718-15.333,2.344-4.8,4.811-9.834,7.262-15.043q-2.2,2.8-4.364,5.576l-1.43,1.833c-5.018,6.421-9.974,12.867-14.925,19.314-13.9,18.091-28.283,36.8-43.775,54.484-2.263,2.582-4.536,5.218-6.835,7.882-17.772,20.6-37.913,43.954-65.009,55.568-24.156,10.345-55.428,8.274-68.466-15.719-23.433-43.1,4.293-99.818,24.541-141.231l2.3-4.709C48.535,138.557,55.173,126.6,62.2,114.683q-2.411,2.876-4.735,5.792c-12.218,15.291-32.993,15.516-46.026,6.9-10.779-7.13-16.6-20.692-5.3-34.925C31.172,60.907,59.09,29.067,93.517,9.826,112.623-.852,133.31-2.967,148.869,4.167c13.7,6.281,21.936,19.118,23.191,36.153,1.474,19.978-3.651,39.242-10.856,57.67C186.82,74.782,233.965,41.635,271.068,45.7c17.044,1.874,30.051,11.181,38.662,27.658,14.167,27.1,1.68,61.488-12.4,91.552-6.7,14.313-14.04,28.6-21.136,42.43l-2.512,4.89c20.57-17.92,38.987-34.6,55.9-50.612v0c8.364-7.925,18.826-11,29.429-8.667,11.643,2.564,21.436,11.53,24.366,22.321,2.687,9.9-.526,19.692-9.055,27.575l-2.785,2.571c-23.182,21.435-47.152,43.6-71.148,65.021-2.957,2.642-6,5.467-9.131,8.379-18.647,17.314-41.851,38.866-69.51,41.006C220.682,319.91,219.626,319.96,218.586,319.983Zm18.3-182.624a4.759,4.759,0,0,1,2.35.531,4.1,4.1,0,0,1,2.185,5.077l-.245.665c-5.569,15.119-12.714,29.727-19.017,42.614-2.5,5.106-5.133,10.265-7.789,15.47-10.707,20.983-21.781,42.678-25.741,64.522-2.687,14.831.53,28.979,8.395,36.917,5.833,5.887,14.014,8.432,24.348,7.666,23.947-1.857,44.76-21.181,63.123-38.235,3.184-2.954,6.274-5.825,9.276-8.509,23.932-21.365,47.872-43.5,71.024-64.9l2.78-2.571c7.546-6.972,7.6-14.048,6.324-18.757-2.08-7.662-9.3-14.277-17.545-16.094-5.027-1.11-12.554-.955-19.924,6.027v0c-21.855,20.688-46.178,42.454-74.363,66.539a5.225,5.225,0,0,1-6.158.477,4.189,4.189,0,0,1-1.493-5.462c4.248-8.558,8.618-17.064,12.987-25.57,7.056-13.752,14.356-27.97,20.987-42.133,13.194-28.162,24.995-60.171,12.51-84.05C293.641,63.69,283.364,56.2,269.48,54.674c-34.59-3.791-84.2,31.835-109.079,56.729-2.655,2.649-5.214,5.4-7.778,8.142l-1.938,2.078a5.247,5.247,0,0,1-6.274,1.035,4.2,4.2,0,0,1-1.838-5.513c11.046-23.988,21.671-49.6,19.738-75.81-1.037-14.041-7.295-24.082-18.1-29.035-12.6-5.776-29.765-3.828-45.928,5.2C65.428,35.873,38.317,66.843,13.916,97.577c-7.708,9.712-3.282,17.923,3.434,22.364,9.1,6.01,23.518,6.429,32.341-4.621A358.874,358.874,0,0,1,85.545,76.734a5.226,5.226,0,0,1,6.395-.572,4.208,4.208,0,0,1,1.232,5.757q-2.872,4.735-5.8,9.454c-13.011,20.97-25.553,41.555-35.91,62.815l-2.3,4.718C29.728,198.639,3.131,253.057,24.509,292.382c10.385,19.1,36,20.434,55.925,11.9,24.872-10.658,43.366-32.1,61.249-52.836,2.314-2.678,4.607-5.337,6.89-7.938,15.281-17.448,29.559-36.03,43.373-54q7.449-9.7,14.97-19.373l1.43-1.828c7.576-9.7,15.408-19.735,24.231-28.9l.445-.448A5.805,5.805,0,0,1,236.882,137.359ZM333.007,164.7h0Z" transform="translate(0 0)" fill="#3c384f"/>
        <path id="Trazado_189715" data-name="Trazado 189715" d="M21.86,2.38C3.079,36.216-8,75.646,6.97,111.251c2.21,5.266,11.717,2.734,9.474-2.608C2.4,75.213,12.524,38.58,30.189,6.754,33.1,1.508,24.786-2.894,21.86,2.38Z" transform="translate(24.465 172.917)" fill="#3c384f"/>
        <path id="Trazado_189716" data-name="Trazado 189716" d="M14.541,24.242c-.083-.007-.16-.028-.238-.04-.131-.241-.247-.5-.289-.576l-.024-.027c-.009-.036.005-.009-.008-.063C13.4,21.531,13,19.5,12.566,17.454Q11.078,10.341,9.585,3.229C9.1.928,6.076-.569,3.651.206A4.819,4.819,0,0,0,.106,5.837q1.686,8.043,3.377,16.09c.935,4.463,2.463,10.313,8.254,11.085,2.5.334,5.4-.727,6.082-3.288C18.408,27.531,17.227,24.6,14.541,24.242Z" transform="translate(44.38 246.078)" fill="#3c384f"/>
        <path id="Trazado_189717" data-name="Trazado 189717" d="M16.763.524c-5.48-2.617-10.6,5.287-5.112,7.908,7.58,3.619,9.739,11.274,9.864,18.839A122.6,122.6,0,0,1,18.7,53.216,169.981,169.981,0,0,1,.609,102.108c-2.911,5.251,5.4,9.648,8.329,4.375a178.134,178.134,0,0,0,20.3-57.559C31.926,32.593,35.226,9.338,16.763.524Z" transform="translate(261.745 72.429)" fill="#3c384f"/>
      </g>
      <g id="Grupo_180878" data-name="Grupo 180878" transform="translate(0 0)">
        <g id="Grupo_180877" data-name="Grupo 180877">
          <g id="Grupo_180876" data-name="Grupo 180876">
            <path id="Trazado_189718" data-name="Trazado 189718" d="M328.065,160.166c-24.058,22.781-48.883,44.762-74.168,66.368C265.14,203.9,277.215,181.6,287.922,158.74c12.136-25.917,26.361-61.194,12.457-87.8-31.7-60.646-116.88,1.383-148.433,32.946-3.365,3.36-6.577,6.866-9.832,10.336,11.6-25.183,22.114-51.029,20.134-77.922C159.518-.678,122.994-8.77,90.965,9.132c-34.4,19.227-62.421,51.805-85.881,81.35-19.923,25.093,23.791,47.621,43.554,22.884A352.429,352.429,0,0,1,83.991,75.314q-2.857,4.715-5.767,9.417c-12.853,20.709-25.557,41.5-36.144,63.226C21.8,189.574-8.084,247.219,15.186,290.025c11.728,21.57,40.374,23.165,62.2,13.81,29.33-12.574,50.07-39.379,69.991-62.115,20.795-23.74,39.205-48.868,58.519-73.587,8.074-10.329,16.141-20.8,25.324-30.344.21-.217.435-.42.645-.642l-.24.664c-5.314,14.419-12.04,28.29-18.841,42.2-12.662,25.875-28.844,53.175-33.914,81.147-4.487,24.731,5.66,52.119,37.756,49.634,30.169-2.335,54.949-29.7,75.515-48.063,24.909-22.24,49.389-44.9,73.873-67.54C391.574,171.559,353.331,136.244,328.065,160.166Z" transform="translate(4.937 4.529)" fill="#3c3fa7"/>
            <path id="Trazado_189719" data-name="Trazado 189719" d="M218.581,319.979c-11.826.257-21.769-3.36-28.9-10.556-9.91-10-13.906-26.557-10.692-44.289,4.185-23.108,15.567-45.406,26.575-66.969,2.631-5.163,5.241-10.272,7.718-15.328,2.344-4.8,4.81-9.834,7.262-15.044-1.469,1.865-2.924,3.73-4.364,5.576l-1.429,1.828c-5.018,6.421-9.974,12.872-14.93,19.314-13.9,18.1-28.279,36.806-43.77,54.484q-3.394,3.88-6.835,7.887c-17.772,20.6-37.913,43.95-65.009,55.568-24.161,10.345-55.427,8.27-68.466-15.724-23.433-43.1,4.293-99.814,24.536-141.231l2.3-4.7c5.956-12.234,12.593-24.194,19.611-36.107q-2.4,2.876-4.735,5.787c-12.213,15.3-32.988,15.521-46.021,6.9-10.779-7.13-16.6-20.692-5.3-34.925C31.172,60.907,59.09,29.067,93.512,9.822,112.623-.851,133.305-2.967,148.869,4.167c13.7,6.281,21.931,19.114,23.191,36.148,1.474,19.978-3.651,39.246-10.86,57.67,25.62-23.2,72.761-56.351,109.864-52.29,17.044,1.874,30.056,11.181,38.667,27.658,14.162,27.1,1.676,61.484-12.4,91.552-6.7,14.309-14.04,28.6-21.136,42.425l-2.512,4.89c20.57-17.915,38.987-34.591,55.9-50.607h0c8.364-7.925,18.826-10.992,29.429-8.662,11.643,2.564,21.436,11.531,24.361,22.321,2.692,9.9-.521,19.687-9.05,27.57l-2.785,2.575c-23.182,21.435-47.152,43.6-71.148,65.021-2.957,2.642-6,5.467-9.136,8.379-18.642,17.313-41.846,38.866-69.505,41.006C220.677,319.906,219.626,319.956,218.581,319.979Zm18.3-182.623a4.749,4.749,0,0,1,2.35.536,4.091,4.091,0,0,1,2.19,5.077l-.245.665c-5.569,15.115-12.714,29.727-19.017,42.614-2.5,5.1-5.133,10.261-7.789,15.47-10.712,20.983-21.786,42.679-25.746,64.517-2.687,14.831.53,28.979,8.4,36.921,5.828,5.883,14.014,8.432,24.349,7.665,23.947-1.856,44.76-21.181,63.118-38.235,3.184-2.959,6.279-5.83,9.281-8.509,23.932-21.365,47.872-43.5,71.024-64.9l2.78-2.575c7.541-6.968,7.6-14.044,6.319-18.757-2.081-7.657-9.293-14.277-17.545-16.089-5.022-1.11-12.549-.956-19.92,6.027h0c-21.855,20.688-46.178,42.454-74.363,66.544a5.226,5.226,0,0,1-6.158.477,4.184,4.184,0,0,1-1.493-5.462c4.248-8.558,8.618-17.064,12.982-25.575,7.061-13.748,14.356-27.966,20.992-42.128,13.189-28.161,24.995-60.171,12.51-84.055C293.636,63.69,283.359,56.2,269.48,54.67c-34.59-3.786-84.2,31.84-109.084,56.729-2.65,2.654-5.209,5.4-7.773,8.142l-1.943,2.083a5.239,5.239,0,0,1-6.269,1.035,4.2,4.2,0,0,1-1.843-5.518c11.05-23.984,21.675-49.6,19.742-75.805-1.037-14.046-7.295-24.087-18.1-29.04-12.6-5.772-29.765-3.823-45.928,5.206C65.423,35.869,38.317,66.843,13.916,97.578,6.2,107.29,10.634,115.5,17.35,119.938c9.1,6.015,23.518,6.433,32.341-4.617A357.983,357.983,0,0,1,85.545,76.734a5.22,5.22,0,0,1,6.39-.572,4.2,4.2,0,0,1,1.232,5.752q-2.872,4.742-5.8,9.458c-13.016,20.97-25.553,41.555-35.915,62.815l-2.3,4.718c-19.423,39.733-46.02,94.151-24.642,133.472,10.385,19.107,36,20.438,55.925,11.9,24.872-10.658,43.367-32.1,61.249-52.836q3.471-4.024,6.885-7.942c15.286-17.444,29.564-36.026,43.378-54,4.966-6.465,9.937-12.934,14.97-19.378l1.429-1.824c7.576-9.7,15.408-19.74,24.226-28.9l.45-.448A5.8,5.8,0,0,1,236.878,137.355ZM333,164.7h0Z" transform="translate(0 0)"/>
          </g>
          <path id="Trazado_189720" data-name="Trazado 189720" d="M21.863,2.381C3.077,36.217-7.995,75.642,6.968,111.252c2.215,5.261,11.722,2.734,9.479-2.608C2.4,75.209,12.522,38.581,30.192,6.755,33.1,1.5,24.789-2.893,21.863,2.381Z" transform="translate(24.462 172.917)"/>
          <path id="Trazado_189721" data-name="Trazado 189721" d="M14.541,24.242c-.083-.007-.16-.028-.238-.04-.131-.246-.252-.5-.294-.576l-.019-.027c-.009-.036.005-.014-.008-.067-.583-2-.989-4.038-1.415-6.078q-1.5-7.112-2.981-14.225C9.1.928,6.076-.569,3.646.206a4.818,4.818,0,0,0-3.54,5.63L3.478,21.922c.94,4.467,2.467,10.317,8.259,11.09,2.5.33,5.4-.727,6.082-3.288C18.408,27.531,17.222,24.6,14.541,24.242Z" transform="translate(44.38 246.078)"/>
          <path id="Trazado_189722" data-name="Trazado 189722" d="M16.765.524c-5.48-2.617-10.606,5.287-5.112,7.908,7.58,3.619,9.734,11.275,9.864,18.834a122.633,122.633,0,0,1-2.811,25.949A169.977,169.977,0,0,1,.61,102.108c-2.916,5.251,5.4,9.648,8.329,4.375a178.321,178.321,0,0,0,20.3-57.559C31.928,32.589,35.228,9.333,16.765.524Z" transform="translate(261.743 72.43)"/>
        </g>
      </g>
    </g>
  </g>
</svg>
