<svg xmlns="http://www.w3.org/2000/svg" xmlns:xlink="http://www.w3.org/1999/xlink" width="412.465" height="1397" viewBox="0 0 412.465 1397">
  <defs>
    <clipPath id="clip-path">
      <rect id="young-male-performer-dancing-in-building-next-to-stairs" width="412" height="1397" transform="translate(-494.465 2424)" fill="#fed947" opacity="0.62"/>
    </clipPath>
  </defs>
  <g id="Grupo_982690" data-name="Grupo 982690" transform="translate(2506.465 9277)">
    <g id="Grupo_982689" data-name="Grupo 982689">
      <rect id="Rectángulo_338263" data-name="Rectángulo 338263" width="412" height="1397" transform="translate(-2506 -9277)" fill="#e1e8ff"/>
      <g id="Enmascarar_grupo_420" data-name="Enmascarar grupo 420" transform="translate(-2012 -11701)" clip-path="url(#clip-path)">
        <g id="Grupo_982465" data-name="Grupo 982465" transform="translate(-239.192 2303.077)">
          <g id="Grupo_982464" data-name="Grupo 982464" transform="matrix(0.259, 0.966, -0.966, 0.259, 238.461, 2)">
            <g id="Grupo_982460" data-name="Grupo 982460" transform="translate(2.344 0)" style="mix-blend-mode: overlay;isolation: isolate">
              <path id="Trazado_204267" data-name="Trazado 204267" d="M228.06,104.822C211.336,88.985,194.078,73.7,176.5,58.681c7.816,15.738,16.207,31.24,23.65,47.132,8.437,18.017,18.329,42.541,8.66,61.037-22.035,42.16-81.252-.964-103.187-22.9-2.336-2.339-4.572-4.776-6.835-7.185,8.065,17.507,15.377,35.474,14,54.17-1.9,25.705-27.289,31.331-49.554,18.882-23.909-13.363-43.394-36.011-59.7-56.55-13.85-17.444,16.535-33.105,30.275-15.908a244.694,244.694,0,0,0,24.58,26.45q-1.986-3.278-4.013-6.543c-8.935-14.4-17.767-28.847-25.127-43.957-14.093-28.927-34.872-69-18.7-98.759,8.153-15,28.071-16.1,43.239-9.6,20.39,8.741,34.807,27.375,48.656,43.181,14.456,16.5,27.258,33.972,40.685,51.156,5.609,7.181,11.217,14.462,17.6,21.091.146.154.3.3.445.446l-.167-.459a315.458,315.458,0,0,0-13.1-29.336c-8.8-17.99-20.051-36.97-23.576-56.412-3.116-17.192,3.935-36.232,26.247-34.5,20.976,1.623,38.2,20.647,52.5,33.412,17.313,15.46,34.331,31.213,51.351,46.949C272.214,96.9,245.628,121.452,228.06,104.822Z" transform="translate(3.435 3.139)" fill="#3c384f"/>
              <path id="Trazado_204268" data-name="Trazado 204268" d="M151.956.009c-8.221-.179-15.137,2.339-20.093,7.341-6.89,6.953-9.667,18.462-7.433,30.786C127.342,54.2,135.255,69.7,142.9,84.691c1.832,3.59,3.647,7.144,5.365,10.659,1.629,3.334,3.344,6.836,5.048,10.458q-1.533-1.95-3.034-3.876l-.994-1.274c-3.489-4.464-6.934-8.945-10.375-13.427-9.666-12.576-19.662-25.583-30.431-37.876-1.573-1.795-3.153-3.628-4.751-5.48C91.377,29.552,77.375,13.319,58.539,5.246,41.746-1.946,20.007-.506,10.943,16.173-5.347,46.136,13.927,85.565,28,114.354l1.6,3.274c4.14,8.5,8.755,16.819,13.636,25.1q-1.676-2-3.292-4.026c-8.494-10.63-22.936-10.787-32-4.794-7.493,4.956-11.541,14.385-3.686,24.279,17.407,21.925,36.815,44.06,60.748,57.436,13.282,7.423,27.663,8.893,38.479,3.934,9.523-4.366,15.25-13.291,16.122-25.133,1.025-13.888-2.538-27.28-7.546-40.091,17.807,16.133,50.582,39.177,76.375,36.354,11.848-1.3,20.891-7.773,26.877-19.227,9.848-18.838,1.168-42.745-8.622-63.645-4.66-9.95-9.76-19.885-14.693-29.5l-1.746-3.4c14.3,12.457,27.1,24.05,38.864,35.184v0c5.814,5.509,13.087,7.644,20.458,6.025,8.094-1.783,14.9-8.016,16.939-15.517,1.868-6.88-.366-13.689-6.295-19.17l-1.936-1.787c-16.115-14.9-32.779-30.31-49.461-45.2-2.056-1.837-4.169-3.8-6.348-5.825C189.513,16.59,173.382,1.607,154.154.119,153.413.059,152.679.025,151.956.009Zm12.72,126.956a3.308,3.308,0,0,0,1.634-.369,2.847,2.847,0,0,0,1.519-3.529l-.17-.462c-3.872-10.511-8.838-20.666-13.22-29.624-1.736-3.55-3.568-7.136-5.415-10.755-7.443-14.587-15.142-29.669-17.895-44.854-1.868-10.31.369-20.145,5.836-25.664,4.055-4.093,9.742-5.862,16.926-5.329,16.648,1.291,31.116,14.724,43.881,26.58,2.214,2.054,4.361,4.05,6.448,5.915,16.637,14.853,33.279,30.239,49.374,45.12l1.932,1.787c5.246,4.847,5.283,9.766,4.4,13.039-1.446,5.326-6.463,9.925-12.2,11.188-3.495.772-8.727.664-13.851-4.19v0c-15.193-14.382-32.1-29.513-51.7-46.257a3.633,3.633,0,0,0-4.281-.332,2.912,2.912,0,0,0-1.038,3.8c2.953,5.949,5.991,11.863,9.028,17.776,4.9,9.56,9.98,19.444,14.59,29.29,9.172,19.577,17.376,41.83,8.7,58.43-5.044,9.658-12.188,14.867-21.84,15.925-24.046,2.635-58.531-22.131-75.829-39.437-1.846-1.842-3.625-3.751-5.407-5.66l-1.347-1.445a3.647,3.647,0,0,0-4.361-.719,2.918,2.918,0,0,0-1.278,3.833c7.679,16.676,15.065,34.482,13.721,52.7-.721,9.761-5.071,16.741-12.579,20.185-8.757,4.016-20.692,2.661-31.928-3.616-22.843-12.771-41.69-34.3-58.653-55.667-5.358-6.752-2.282-12.46,2.387-15.547,6.323-4.178,16.349-4.469,22.483,3.213A249.479,249.479,0,0,0,59.469,169.11a3.633,3.633,0,0,0,4.445.4,2.925,2.925,0,0,0,.856-4q-2-3.292-4.034-6.572c-9.045-14.578-17.764-28.888-24.964-43.668l-1.6-3.28c-13.505-27.622-32-65.452-17.134-92.79,7.219-13.28,25.023-14.2,38.878-8.27C73.206,18.335,86.064,33.241,98.5,47.657c1.608,1.862,3.2,3.71,4.79,5.518,10.623,12.129,20.549,25.047,30.152,37.541q5.178,6.741,10.407,13.468l.994,1.271a252.962,252.962,0,0,0,16.845,20.089l.309.311A4.036,4.036,0,0,0,164.675,126.965Zm66.824-19h0Z" transform="translate(0 0)" fill="#3c384f"/>
              <path id="Trazado_204269" data-name="Trazado 204269" d="M15.2,77.7C2.14,54.178-5.56,26.767,4.846,2.016c1.536-3.661,8.145-1.9,6.586,1.813-9.765,23.24-2.725,48.706,9.555,70.831C23.014,78.306,17.231,81.366,15.2,77.7Z" transform="translate(17.007 22.891)" fill="#3c384f"/>
              <path id="Trazado_204270" data-name="Trazado 204270" d="M10.108,6.138c-.058,0-.112.019-.166.028-.091.168-.172.351-.2.4l-.017.018c-.006.025,0,.006-.006.044-.405,1.394-.684,2.807-.983,4.228Q7.7,15.8,6.664,20.746a3.306,3.306,0,0,1-4.125,2.1A3.35,3.35,0,0,1,.074,18.933Q1.246,13.342,2.421,7.748C3.071,4.645,4.133.579,8.159.042,9.9-.191,11.912.547,12.388,2.327A3.008,3.008,0,0,1,10.108,6.138Z" transform="translate(30.852 28.395)" fill="#3c384f"/>
              <path id="Trazado_204271" data-name="Trazado 204271" d="M11.653,75.315c-3.81,1.819-7.37-3.675-3.554-5.5,5.27-2.516,6.77-7.838,6.857-13.1A85.228,85.228,0,0,0,13,38.685,118.167,118.167,0,0,0,.423,4.7C-1.6,1.046,4.179-2.011,6.213,1.655A123.835,123.835,0,0,1,20.329,41.669C22.194,53.021,24.488,69.188,11.653,75.315Z" transform="translate(181.959 96.423)" fill="#3c384f"/>
            </g>
            <g id="Grupo_982463" data-name="Grupo 982463" transform="translate(0 8.756)">
              <g id="Grupo_982462" data-name="Grupo 982462" transform="translate(0 0)">
                <g id="Grupo_982461" data-name="Grupo 982461">
                  <path id="Trazado_204272" data-name="Trazado 204272" d="M228.063,104.822C211.339,88.985,194.081,73.7,176.5,58.684c7.816,15.734,16.211,31.24,23.654,47.129,8.437,18.017,18.326,42.541,8.66,61.037-3.614,6.914-8.227,11.535-13.635,14.4-26.821,14.191-71.215-18.955-89.552-37.3-2.339-2.336-4.572-4.773-6.835-7.185,8.061,17.507,15.373,35.474,14,54.17-1.9,25.705-27.289,31.331-49.554,18.885-23.913-13.366-43.394-36.014-59.7-56.553-13.85-17.444,16.539-33.105,30.278-15.908a245,245,0,0,0,24.576,26.453q-1.986-3.278-4.009-6.546c-8.935-14.4-17.767-28.847-25.127-43.954-14.1-28.931-34.872-69-18.7-98.762,8.153-15,28.067-16.1,43.239-9.6,20.39,8.741,34.807,27.375,48.656,43.181,14.456,16.5,27.255,33.972,40.681,51.156,5.613,7.181,11.221,14.462,17.6,21.094.146.151.3.292.448.446l-.167-.462a316.385,316.385,0,0,0-13.1-29.336c-8.8-17.987-20.051-36.966-23.576-56.412-3.119-17.192,3.935-36.232,26.247-34.5,20.973,1.623,38.2,20.647,52.5,33.412,17.316,15.46,34.334,31.216,51.355,46.952C272.214,96.9,245.628,121.452,228.063,104.822Z" transform="translate(3.432 3.136)" fill="#859eec"/>
                  <path id="Trazado_204273" data-name="Trazado 204273" d="M151.952.009c-8.221-.179-15.134,2.336-20.09,7.338-6.89,6.953-9.667,18.462-7.433,30.789C127.339,54.2,135.251,69.7,142.9,84.691c1.829,3.59,3.643,7.141,5.365,10.656,1.629,3.334,3.344,6.837,5.048,10.458-1.022-1.3-2.033-2.593-3.034-3.876l-.994-1.271c-3.489-4.464-6.934-8.948-10.379-13.427-9.663-12.579-19.659-25.586-30.428-37.876q-2.359-2.7-4.752-5.483C91.377,29.552,77.375,13.32,58.539,5.243c-16.8-7.191-38.532-5.749-47.6,10.931C-5.347,46.133,13.927,85.562,28,114.354l1.6,3.271c4.14,8.5,8.755,16.819,13.633,25.1q-1.671-2-3.292-4.023c-8.49-10.633-22.932-10.79-31.993-4.8C.456,138.862-3.593,148.29,4.263,158.185c17.407,21.925,36.815,44.06,60.745,57.439,13.286,7.42,27.663,8.89,38.482,3.931,9.523-4.366,15.246-13.287,16.122-25.129,1.025-13.888-2.538-27.283-7.55-40.091,17.811,16.13,50.582,39.174,76.375,36.351,11.849-1.3,20.895-7.773,26.881-19.227,9.845-18.838,1.165-42.742-8.622-63.645-4.66-9.947-9.76-19.885-14.693-29.493l-1.746-3.4c14.3,12.454,27.1,24.047,38.863,35.181h0c5.815,5.509,13.087,7.641,20.458,6.022,8.094-1.783,14.9-8.016,16.935-15.517,1.871-6.88-.362-13.686-6.291-19.166l-1.936-1.79c-16.115-14.9-32.779-30.306-49.461-45.2-2.056-1.837-4.169-3.8-6.351-5.825C189.513,16.587,173.382,1.6,154.154.116,153.41.059,152.679.025,151.952.009Zm12.719,126.956a3.3,3.3,0,0,0,1.634-.373,2.844,2.844,0,0,0,1.522-3.529l-.17-.462c-3.872-10.508-8.838-20.665-13.22-29.624-1.736-3.547-3.568-7.133-5.415-10.755-7.446-14.587-15.145-29.669-17.9-44.851-1.868-10.31.369-20.145,5.839-25.667,4.051-4.089,9.742-5.862,16.927-5.329,16.648,1.291,31.116,14.724,43.878,26.58,2.214,2.057,4.365,4.053,6.452,5.915,16.637,14.853,33.279,30.239,49.374,45.12l1.933,1.79c5.242,4.844,5.283,9.763,4.393,13.039-1.446,5.323-6.46,9.925-12.2,11.185-3.491.772-8.724.664-13.848-4.19h0c-15.193-14.382-32.1-29.513-51.7-46.26a3.633,3.633,0,0,0-4.281-.332,2.909,2.909,0,0,0-1.038,3.8c2.953,5.949,5.991,11.862,9.025,17.779,4.908,9.557,9.98,19.441,14.593,29.287,9.169,19.577,17.376,41.83,8.7,58.433-5.048,9.655-12.192,14.864-21.84,15.925-24.046,2.632-58.534-22.134-75.833-39.437-1.842-1.845-3.621-3.754-5.4-5.66l-1.351-1.448a3.642,3.642,0,0,0-4.358-.719,2.922,2.922,0,0,0-1.281,3.836c7.682,16.673,15.068,34.482,13.724,52.7-.721,9.764-5.071,16.744-12.579,20.188-8.761,4.012-20.692,2.658-31.928-3.619-22.847-12.768-41.69-34.3-58.653-55.667-5.362-6.752-2.281-12.457,2.387-15.544,6.323-4.181,16.349-4.472,22.483,3.21a248.86,248.86,0,0,0,24.925,26.824,3.629,3.629,0,0,0,4.442.4,2.919,2.919,0,0,0,.856-4q-2-3.3-4.03-6.575c-9.048-14.578-17.764-28.888-24.967-43.668l-1.6-3.28C20.666,84.362,2.176,46.532,17.038,19.2,24.258,5.914,42.062,4.988,55.916,10.923,73.206,18.332,86.064,33.241,98.5,47.654q2.413,2.8,4.786,5.521c10.626,12.126,20.552,25.044,30.155,37.537,3.452,4.494,6.908,8.992,10.407,13.471l.994,1.268a253.1,253.1,0,0,0,16.841,20.089l.313.311A4.031,4.031,0,0,0,164.672,126.965ZM231.5,107.958h0Z" fill="#3c3fa7"/>
                </g>
                <path id="Trazado_204274" data-name="Trazado 204274" d="M15.2,77.7C2.139,54.176-5.558,26.769,4.844,2.014c1.54-3.658,8.149-1.9,6.59,1.813C1.665,27.07,8.705,52.533,20.988,74.658,23.012,78.308,17.233,81.365,15.2,77.7Z" transform="translate(17.005 22.889)" fill="#3c3fa7"/>
                <path id="Trazado_204275" data-name="Trazado 204275" d="M10.108,6.137c-.058,0-.112.019-.166.028-.091.171-.175.351-.2.4l-.013.019c-.006.025,0,.009-.006.047-.405,1.391-.688,2.807-.983,4.225Q7.7,15.8,6.664,20.745a3.309,3.309,0,0,1-4.129,2.1A3.349,3.349,0,0,1,.074,18.932L2.418,7.75C3.071,4.644,4.133.578,8.159.041,9.9-.188,11.911.546,12.388,2.326A3.011,3.011,0,0,1,10.108,6.137Z" transform="translate(30.852 28.393)" fill="#3c3fa7"/>
                <path id="Trazado_204276" data-name="Trazado 204276" d="M11.654,75.315c-3.81,1.819-7.373-3.675-3.554-5.5,5.27-2.516,6.767-7.838,6.857-13.093A85.252,85.252,0,0,0,13,38.685,118.164,118.164,0,0,0,.424,4.7C-1.6,1.046,4.18-2.011,6.215,1.655A123.965,123.965,0,0,1,20.33,41.669C22.2,53.024,24.489,69.191,11.654,75.315Z" transform="translate(181.958 96.42)" fill="#323489"/>
              </g>
            </g>
          </g>
        </g>
        <g id="Grupo_982471" data-name="Grupo 982471" transform="translate(-539.68 3680.998)">
          <g id="Grupo_982470" data-name="Grupo 982470" transform="matrix(0.259, 0.966, -0.966, 0.259, 120.162, 51.762)">
            <g id="Grupo_982466" data-name="Grupo 982466" transform="translate(1.291 0)" style="mix-blend-mode: overlay;isolation: isolate">
              <path id="Trazado_204277" data-name="Trazado 204277" d="M125.653,57.753c-9.215-8.726-18.723-17.144-28.406-25.422,4.306,8.671,8.93,17.212,13.03,25.968,4.648,9.927,10.1,23.439,4.771,33.629C102.908,115.157,70.282,91.4,58.2,79.31c-1.287-1.289-2.519-2.631-3.766-3.959C58.874,85,62.9,94.9,62.142,105.2c-1.046,14.163-15.035,17.262-27.3,10.4C21.666,108.238,10.931,95.759,1.947,84.443c-7.631-9.611,9.11-18.24,16.68-8.765A134.818,134.818,0,0,0,32.17,90.251q-1.094-1.806-2.211-3.605A273.707,273.707,0,0,1,16.115,62.428C8.351,46.49-3.1,24.409,5.815,8.015,10.307-.247,21.281-.858,29.638,2.725,40.872,7.542,48.815,17.808,56.446,26.516,64.41,35.609,71.464,45.234,78.861,54.7a145.949,145.949,0,0,0,9.7,11.621c.081.085.165.163.245.246l-.092-.253A173.806,173.806,0,0,0,81.5,50.152C76.65,40.24,70.45,29.783,68.508,19.071,66.791,9.6,70.676-.891,82.969.06c11.557.894,21.048,11.376,28.926,18.409,9.539,8.518,18.915,17.2,28.293,25.867C149.98,53.389,135.332,66.916,125.653,57.753Z" transform="translate(1.893 1.73)" fill="#3c384f"/>
              <path id="Trazado_204278" data-name="Trazado 204278" d="M83.722,0c-4.53-.1-8.34,1.289-11.071,4.045-3.8,3.831-5.326,10.172-4.1,16.962,1.6,8.853,5.964,17.393,10.179,25.65,1.01,1.978,2.009,3.936,2.956,5.873.9,1.837,1.843,3.767,2.781,5.762q-.844-1.074-1.671-2.136l-.548-.7c-1.922-2.459-3.82-4.928-5.716-7.4C71.211,41.132,65.7,33.966,59.77,27.193c-.867-.989-1.737-2-2.618-3.019C50.345,16.282,42.631,7.339,32.253,2.89,23-1.072,11.023-.279,6.029,8.911-2.946,25.419,7.673,47.143,15.429,63l.88,1.8c2.281,4.686,4.823,9.267,7.513,13.83q-.924-1.1-1.814-2.218c-4.68-5.857-12.637-5.943-17.629-2.641C.251,76.51-1.979,81.7,2.349,87.156c9.591,12.08,20.284,24.275,33.47,31.645,7.318,4.09,15.242,4.9,21.2,2.167,5.247-2.406,8.4-7.323,8.883-13.847.565-7.652-1.4-15.03-4.158-22.089,9.811,8.889,27.869,21.585,42.08,20.03,6.528-.718,11.51-4.282,14.808-10.594,5.426-10.379.644-23.551-4.751-35.066-2.567-5.482-5.377-10.956-8.1-16.251l-.962-1.873c7.879,6.863,14.933,13.251,21.412,19.385v0a12.226,12.226,0,0,0,11.272,3.319,12.519,12.519,0,0,0,9.333-8.549c1.029-3.791-.2-7.542-3.468-10.562l-1.067-.985c-8.879-8.21-18.06-16.7-27.251-24.9-1.133-1.012-2.3-2.094-3.5-3.209C104.415,9.141,95.528.886,84.933.066,84.525.033,84.121.014,83.722,0ZM90.73,69.953a1.823,1.823,0,0,0,.9-.2,1.568,1.568,0,0,0,.837-1.945l-.094-.255A175.951,175.951,0,0,0,85.09,51.228c-.957-1.956-1.966-3.932-2.983-5.925-4.1-8.037-8.343-16.347-9.859-24.713-1.029-5.681.2-11.1,3.215-14.14C77.7,4.2,80.83,3.221,84.788,3.514c9.172.711,17.144,8.113,24.177,14.645,1.22,1.132,2.4,2.231,3.553,3.259,9.166,8.183,18.336,16.66,27.2,24.86l1.065.985c2.89,2.671,2.911,5.381,2.422,7.184a9.144,9.144,0,0,1-6.72,6.164,8.149,8.149,0,0,1-7.631-2.308v0c-8.371-7.924-17.687-16.261-28.482-25.486a2,2,0,0,0-2.359-.183,1.6,1.6,0,0,0-.572,2.092c1.627,3.278,3.3,6.536,4.974,9.794,2.7,5.267,5.5,10.713,8.039,16.138,5.054,10.786,9.573,23.047,4.792,32.193-2.779,5.321-6.715,8.191-12.033,8.774C89.967,103.075,70.967,89.43,61.436,79.895c-1.017-1.015-2-2.067-2.979-3.119l-.742-.8a2.01,2.01,0,0,0-2.4-.4,1.608,1.608,0,0,0-.7,2.112c4.231,9.188,8.3,19,7.56,29.036-.4,5.378-2.794,9.224-6.931,11.121-4.825,2.212-11.4,1.466-17.591-1.992C25.06,108.824,14.676,96.962,5.33,85.19c-2.952-3.72-1.257-6.865,1.315-8.566a9.251,9.251,0,0,1,12.387,1.77A137.453,137.453,0,0,0,32.765,93.174a2,2,0,0,0,2.449.219,1.612,1.612,0,0,0,.472-2.2q-1.1-1.814-2.222-3.621A273.176,273.176,0,0,1,19.71,63.508L18.828,61.7C11.387,46.482,1.2,25.639,9.387,10.577,13.365,3.26,23.174,2.75,30.808,6.02c9.526,4.082,16.61,12.295,23.459,20.237.886,1.026,1.765,2.044,2.639,3.04,5.853,6.683,11.322,13.8,16.613,20.683q2.853,3.714,5.734,7.42l.548.7A139.375,139.375,0,0,0,89.081,69.17l.17.171A2.223,2.223,0,0,0,90.73,69.953Zm36.817-10.47h0Z" transform="translate(0 0)" fill="#3c384f"/>
              <path id="Trazado_204279" data-name="Trazado 204279" d="M8.373,42.81C1.179,29.85-3.063,14.748,2.67,1.111,3.516-.906,7.157.063,6.3,2.109c-5.38,12.8-1.5,26.835,5.264,39.025C12.68,43.144,9.494,44.83,8.373,42.81Z" transform="translate(9.37 12.612)" fill="#3c384f"/>
              <path id="Trazado_204280" data-name="Trazado 204280" d="M5.569,3.382c-.032,0-.061.011-.091.015-.05.092-.095.193-.111.221l-.009.01c0,.014,0,0,0,.024-.223.768-.377,1.546-.542,2.33q-.57,2.724-1.142,5.448A1.822,1.822,0,0,1,1.4,12.588,1.846,1.846,0,0,1,.041,10.432Q.686,7.351,1.334,4.269C1.692,2.559,2.277.319,4.5.023a2.034,2.034,0,0,1,2.33,1.259A1.657,1.657,0,0,1,5.569,3.382Z" transform="translate(16.998 15.645)" fill="#3c384f"/>
              <path id="Trazado_204281" data-name="Trazado 204281" d="M6.421,41.5c-2.1,1-4.061-2.025-1.958-3.029,2.9-1.386,3.73-4.318,3.778-7.216a46.957,46.957,0,0,0-1.077-9.937A65.106,65.106,0,0,0,.233,2.587C-.882.576,2.3-1.108,3.423.912A68.229,68.229,0,0,1,11.2,22.958C12.228,29.213,13.492,38.12,6.421,41.5Z" transform="translate(100.253 53.126)" fill="#3c384f"/>
            </g>
            <g id="Grupo_982469" data-name="Grupo 982469" transform="translate(0 4.824)">
              <g id="Grupo_982468" data-name="Grupo 982468" transform="translate(0 0)">
                <g id="Grupo_982467" data-name="Grupo 982467">
                  <path id="Trazado_204282" data-name="Trazado 204282" d="M125.655,57.753c-9.215-8.726-18.723-17.144-28.408-25.42C101.553,41,106.178,49.545,110.279,58.3c4.648,9.927,10.1,23.438,4.771,33.629a18.006,18.006,0,0,1-7.512,7.931C92.761,107.679,68.3,89.416,58.2,79.31c-1.289-1.287-2.519-2.63-3.766-3.959C58.874,85,62.9,94.9,62.144,105.2c-1.046,14.163-15.035,17.262-27.3,10.405C21.666,108.238,10.933,95.76,1.947,84.443c-7.631-9.611,9.112-18.24,16.682-8.765A134.987,134.987,0,0,0,32.17,90.253q-1.094-1.806-2.209-3.607A273.926,273.926,0,0,1,16.117,62.429C8.351,46.49-3.1,24.41,5.816,8.015,10.308-.247,21.28-.858,29.639,2.725,40.873,7.542,48.817,17.808,56.447,26.516,64.412,35.609,71.463,45.234,78.861,54.7a147.1,147.1,0,0,0,9.7,11.622c.08.083.166.161.247.246l-.092-.254A174.312,174.312,0,0,0,81.5,50.152c-4.85-9.91-11.048-20.367-12.99-31.081C66.791,9.6,70.677-.892,82.971.06c11.555.894,21.047,11.376,28.924,18.409,9.541,8.518,18.917,17.2,28.295,25.869C149.98,53.389,135.332,66.916,125.655,57.753Z" transform="translate(1.891 1.728)" fill="#859eec"/>
                  <path id="Trazado_204283" data-name="Trazado 204283" d="M83.72,0c-4.53-.1-8.338,1.287-11.069,4.043-3.8,3.831-5.326,10.172-4.1,16.964,1.6,8.851,5.962,17.391,10.179,25.65,1.008,1.978,2.007,3.934,2.956,5.871.9,1.837,1.842,3.767,2.781,5.762-.563-.714-1.12-1.429-1.672-2.136l-.548-.7c-1.922-2.459-3.82-4.93-5.718-7.4C71.211,41.131,65.7,33.964,59.77,27.193q-1.3-1.486-2.618-3.021c-6.807-7.89-14.521-16.834-24.9-21.284C23-1.074,11.023-.279,6.029,8.911-2.946,25.417,7.673,47.142,15.427,63l.882,1.8c2.281,4.686,4.823,9.267,7.511,13.83q-.921-1.1-1.814-2.217c-4.678-5.858-12.635-5.945-17.627-2.643C.251,76.508-1.979,81.7,2.349,87.154c9.591,12.08,20.284,24.275,33.468,31.647,7.32,4.088,15.241,4.9,21.2,2.166,5.247-2.406,8.4-7.321,8.883-13.845.565-7.652-1.4-15.032-4.16-22.089,9.813,8.887,27.869,21.583,42.08,20.028,6.528-.718,11.512-4.282,14.81-10.594,5.424-10.379.642-23.549-4.751-35.066-2.567-5.481-5.377-10.956-8.1-16.25l-.962-1.873c7.879,6.862,14.933,13.249,21.412,19.384h0a12.225,12.225,0,0,0,11.272,3.318,12.514,12.514,0,0,0,9.331-8.549c1.031-3.791-.2-7.541-3.466-10.56l-1.067-.986c-8.879-8.21-18.06-16.7-27.251-24.9-1.133-1.012-2.3-2.094-3.5-3.209C104.415,9.139,95.527.884,84.933.064,84.523.033,84.121.014,83.72,0Zm7.008,69.948a1.819,1.819,0,0,0,.9-.205,1.567,1.567,0,0,0,.839-1.945l-.094-.255A176.162,176.162,0,0,0,85.09,51.227c-.957-1.954-1.966-3.93-2.983-5.925C78,37.265,73.762,28.955,72.245,20.59c-1.029-5.681.2-11.1,3.217-14.141,2.232-2.253,5.368-3.23,9.326-2.936,9.172.711,17.144,8.113,24.175,14.645,1.22,1.133,2.4,2.233,3.555,3.259,9.166,8.183,18.336,16.661,27.2,24.86l1.065.986c2.888,2.669,2.911,5.379,2.42,7.184a9.139,9.139,0,0,1-6.72,6.162,8.146,8.146,0,0,1-7.63-2.308h0c-8.371-7.924-17.687-16.261-28.482-25.488a2,2,0,0,0-2.359-.183,1.6,1.6,0,0,0-.572,2.092c1.627,3.278,3.3,6.536,4.972,9.8,2.7,5.266,5.5,10.711,8.04,16.136,5.052,10.786,9.573,23.047,4.792,32.194-2.781,5.319-6.717,8.189-12.033,8.774-13.249,1.45-32.25-12.2-41.781-21.728-1.015-1.016-2-2.068-2.977-3.119l-.744-.8a2.007,2.007,0,0,0-2.4-.4,1.61,1.61,0,0,0-.706,2.113c4.233,9.186,8.3,19,7.562,29.035-.4,5.38-2.794,9.226-6.931,11.123-4.827,2.211-11.4,1.464-17.591-1.994-12.588-7.035-22.97-18.9-32.316-30.671-2.954-3.72-1.257-6.863,1.315-8.564a9.249,9.249,0,0,1,12.387,1.768A137.114,137.114,0,0,0,32.765,93.172a2,2,0,0,0,2.447.219,1.608,1.608,0,0,0,.472-2.2q-1.1-1.816-2.221-3.623A273.2,273.2,0,0,1,19.708,63.506L18.826,61.7C11.386,46.48,1.2,25.637,9.388,10.577c3.978-7.318,13.787-7.828,21.42-4.558,9.526,4.082,16.61,12.3,23.459,20.237Q55.6,27.8,56.9,29.3c5.855,6.681,11.323,13.8,16.614,20.682,1.9,2.476,3.806,4.954,5.734,7.422l.547.7a139.442,139.442,0,0,0,9.279,11.068l.172.172A2.221,2.221,0,0,0,90.728,69.953Zm36.817-10.472h0Z" fill="#3c3fa7"/>
                </g>
                <path id="Trazado_204284" data-name="Trazado 204284" d="M8.374,42.809c-7.2-12.96-11.436-28.061-5.7-41.7.848-2.015,4.49-1.047,3.631,1C.917,14.915,4.8,28.944,11.564,41.134,12.679,43.145,9.495,44.829,8.374,42.809Z" transform="translate(9.369 12.611)" fill="#3c3fa7"/>
                <path id="Trazado_204285" data-name="Trazado 204285" d="M5.569,3.382c-.032,0-.061.011-.091.015-.05.094-.1.193-.113.221l-.007.01c0,.014,0,.005,0,.026-.223.766-.379,1.546-.542,2.328Q4.24,8.706,3.671,11.43A1.823,1.823,0,0,1,1.4,12.588,1.845,1.845,0,0,1,.041,10.431L1.332,4.27C1.692,2.559,2.277.318,4.5.022a2.035,2.035,0,0,1,2.33,1.259A1.659,1.659,0,0,1,5.569,3.382Z" transform="translate(16.998 15.644)" fill="#3c3fa7"/>
                <path id="Trazado_204286" data-name="Trazado 204286" d="M6.421,41.5c-2.1,1-4.062-2.025-1.958-3.029,2.9-1.386,3.728-4.318,3.778-7.214a46.971,46.971,0,0,0-1.077-9.939A65.1,65.1,0,0,0,.234,2.587C-.883.576,2.3-1.108,3.424.912A68.3,68.3,0,0,1,11.2,22.958C12.229,29.214,13.493,38.122,6.421,41.5Z" transform="translate(100.252 53.124)" fill="#323489"/>
              </g>
            </g>
          </g>
        </g>
      </g>
    </g>
  </g>
</svg>
