<svg id="Grupo_982283" data-name="Grupo 982283" xmlns="http://www.w3.org/2000/svg" width="147.655" height="106.803" viewBox="0 0 147.655 106.803">
  <path id="Trazado_181480" data-name="Trazado 181480" d="M3443.04,2043.068a18.074,18.074,0,0,0-9.124-13.733,37.519,37.519,0,0,0-7.895-3.449,89.459,89.459,0,0,0-15.792-3.291c-6.036-.7-12.086-1.279-18.126-1.948a128.623,128.623,0,0,1-14.284-2.222,103.021,103.021,0,0,1-29.61-11.542c-4.377-2.569-8.592-5.395-12.806-8.219q-3.667-2.458-7.4-4.815a26.333,26.333,0,0,0-5.552-2.725c-7.414-2.537-13.937-1.079-19.5,4.462a21.869,21.869,0,0,0-4.4,6.507,32.857,32.857,0,0,0-2.883,14.249,38,38,0,0,0,4.2,16.993,53.425,53.425,0,0,0,8.3,11.8,89.824,89.824,0,0,0,19.743,16.106,110.071,110.071,0,0,0,36.253,13.957c4.241.836,8.5,1.526,12.8,2.018a137.888,137.888,0,0,0,14.055,1.059c1.815-.063,3.637-.06,5.447-.2a100.918,100.918,0,0,0,13.915-2.138,71.324,71.324,0,0,0,16.949-5.983,32.886,32.886,0,0,0,9.1-6.566A23.371,23.371,0,0,0,3443.04,2043.068Z" transform="translate(-3295.665 -1989.919)" fill="#fff" fill-rule="evenodd"/>
  <path id="Trazado_181481" data-name="Trazado 181481" d="M3408.781,2339.225c-1.235.271-2.087.434-2.928.646-5.464,1.382-10.917,2.812-16.393,4.145-1.882.458-3.813.719-5.731,1.006a8.4,8.4,0,0,1-2.062-.01,4.49,4.49,0,0,1-4.236-5.334,10.22,10.22,0,0,1,.558-1.98c.16-.465.4-.9.691-1.53a4.6,4.6,0,0,0-.979.009c-3.693.976-7.38,1.976-11.07,2.957-2.42.644-4.838,1.3-7.273,1.881a16.3,16.3,0,0,1-3.164.415,9.443,9.443,0,0,1-2.6-.269,4.306,4.306,0,0,1-3.281-4.1,7.436,7.436,0,0,1,.646-3.482c.6-1.375,1.287-2.716,1.939-4.07.324-.67.657-1.337,1.044-2.125a4.947,4.947,0,0,0-1.134-.37,10.233,10.233,0,0,0-4.392.875c-2.486,1.035-4.937,2.151-7.4,3.236a9.128,9.128,0,0,1-1.375.595,1.128,1.128,0,0,1-.828-.24c-.257-.2-.121-.743.19-.991a3.288,3.288,0,0,1,.471-.308c2.529-1.381,5.044-2.789,7.595-4.128a22.808,22.808,0,0,1,5.275-1.95,8.85,8.85,0,0,1,3.353-.275,3.343,3.343,0,0,1,2.958,2.954,6.065,6.065,0,0,1-.278,2.969c-.545,1.467-1.129,2.92-1.69,4.381-.225.584-.44,1.172-.64,1.763-.035.1.023.239.057.5a7.483,7.483,0,0,0,1.161.245,30.3,30.3,0,0,0,6.364-.482,70.582,70.582,0,0,0,15.2-4.137c1.049-.411,2.108-.8,3.184-1.139a3.25,3.25,0,0,1,4.212,4.109,23.645,23.645,0,0,1-1.1,2.585,9.01,9.01,0,0,0-.966,1.978c.361.573.909.458,1.386.481a45.455,45.455,0,0,0,7.872-.518,88.592,88.592,0,0,0,15.012-3.382c.9-.277,1.819-.469,2.728-.7a2.5,2.5,0,0,1,3.086,3.09,9.034,9.034,0,0,1-.661,1.949c-.369.864-.809,1.7-1.2,2.55a4.832,4.832,0,0,0-.62,1.9,2.489,2.489,0,0,0,1.719.79,21.911,21.911,0,0,0,3.356.386c4.887-.041,9.774-.157,14.662-.249.688-.012,1.378-.074,2.063-.041a.78.78,0,0,1,.553.421c.133.346-.135.577-.437.708a3.34,3.34,0,0,1-.716.219c-3.816.708-7.578,1.7-11.44,2.183a46.972,46.972,0,0,1-8.43.568,13.146,13.146,0,0,1-2.958-.465,4.511,4.511,0,0,1-3.373-4.821,8.046,8.046,0,0,1,.915-3.23C3407.967,2340.779,3408.293,2340.177,3408.781,2339.225Z" transform="translate(-3328.288 -2243.145)" fill="#151210" fill-rule="evenodd"/>
  <path id="Trazado_181482" data-name="Trazado 181482" d="M3391.015,2078.276a137.888,137.888,0,0,1-14.055-1.059c-4.3-.492-8.558-1.182-12.8-2.018a110.071,110.071,0,0,1-36.253-13.957,89.824,89.824,0,0,1-19.743-16.106,53.425,53.425,0,0,1-8.3-11.8,38,38,0,0,1-4.2-16.993,32.857,32.857,0,0,1,2.883-14.249,21.869,21.869,0,0,1,4.4-6.507c5.563-5.541,12.086-7,19.5-4.462a26.333,26.333,0,0,1,5.552,2.725q3.731,2.361,7.4,4.815c4.214,2.824,8.428,5.65,12.806,8.219a103.021,103.021,0,0,0,29.61,11.542,128.623,128.623,0,0,0,14.284,2.222c6.041.669,12.091,1.246,18.126,1.948a89.459,89.459,0,0,1,15.792,3.291,37.519,37.519,0,0,1,7.895,3.449,18.071,18.071,0,0,1,9.123,13.733,23.368,23.368,0,0,1-6.609,20.319,32.921,32.921,0,0,1-9.1,6.568,71.385,71.385,0,0,1-16.949,5.981,100.918,100.918,0,0,1-13.915,2.138C3394.652,2078.216,3392.83,2078.213,3391.015,2078.276Zm.066-3.326c2.067-.083,4.14-.094,6.2-.265a86.779,86.779,0,0,0,12.962-2.185,62.428,62.428,0,0,0,16.253-6.254,29.544,29.544,0,0,0,8.043-6.419,20.135,20.135,0,0,0,5.065-14.361c-.243-5.925-2.767-10.582-8.057-13.56a34.65,34.65,0,0,0-5.616-2.6,70.922,70.922,0,0,0-12.2-3.028c-5.39-.854-10.83-1.257-16.253-1.8-5.611-.563-11.2-1.232-16.762-2.223a103.514,103.514,0,0,1-32.952-12.235c-4.742-2.685-9.328-5.641-13.858-8.677q-3.513-2.355-7.1-4.6a28.766,28.766,0,0,0-5.2-2.6,15.2,15.2,0,0,0-8.681-.705,14.674,14.674,0,0,0-7.894,4.805,19.625,19.625,0,0,0-3.811,6.432,32.928,32.928,0,0,0-.559,20.692,39.11,39.11,0,0,0,6.436,12.665,66.771,66.771,0,0,0,11.138,11.676,103.152,103.152,0,0,0,39.088,20.224,136.709,136.709,0,0,0,19.522,3.866A131.31,131.31,0,0,0,3391.081,2074.951Z" transform="translate(-3295.665 -1989.919)" fill="#151210" fill-rule="evenodd"/>
  <path id="Trazado_181483" data-name="Trazado 181483" d="M3723.963,2196.845q.579-5.507,1.16-11.013a11.627,11.627,0,0,1,.26-1.853,1.966,1.966,0,0,1,3.889.487,18.266,18.266,0,0,1-.116,2.25c-.406,4.365-.855,8.725-1.227,13.093-.154,1.808-.142,3.63-.225,5.444a8.433,8.433,0,0,1-.191,1.671,1.945,1.945,0,0,1-1.708,1.533,1.983,1.983,0,0,1-2.058-1.021,11.07,11.07,0,0,1-.567-1.184c-1.954-4.136-3.585-8.406-5.229-12.672-.193-.5-.439-.985-.645-1.442-.508.072-.409.391-.423.6q-.55,7.5-1.078,14.994a9.946,9.946,0,0,1-.095,1.123,1.984,1.984,0,0,1-3.944-.1,6.4,6.4,0,0,1,0-1.308c.333-4.938.627-9.879,1.03-14.811.209-2.555.6-5.1.945-7.642a4.6,4.6,0,0,1,.5-1.6,2.164,2.164,0,0,1,3.508-.454,4.962,4.962,0,0,1,.925,1.4c.564,1.255,1.079,2.533,1.579,3.816,1,2.566,1.977,5.143,2.969,7.713.129.339.3.663.448.994Z" transform="translate(-3611.257 -2135.8)" fill="#151210" fill-rule="evenodd"/>
  <path id="Trazado_181484" data-name="Trazado 181484" d="M3623.978,2179.488a18.553,18.553,0,0,1-6.408,13.688,13.687,13.687,0,0,1-8.063,3.2,2.183,2.183,0,0,1-2.451-1.591,4.416,4.416,0,0,1-.317-2.56c.669-4.138,1.354-8.271,1.965-12.417.5-3.4.909-6.819,1.358-10.229.074-.558.106-1.125.227-1.671a2.559,2.559,0,0,1,3.213-2.094,11.824,11.824,0,0,1,5.117,2.223,13.759,13.759,0,0,1,5.355,10.141C3624,2178.611,3623.978,2179.051,3623.978,2179.488Zm-9.584-9.2c-.167.278-.322.427-.347.594q-1.488,10.222-2.947,20.447a1.823,1.823,0,0,0,.139.568,6.809,6.809,0,0,0,3.38-1.581,14.091,14.091,0,0,0,5.168-12.85,9.2,9.2,0,0,0-3.623-6.158A12.216,12.216,0,0,0,3614.394,2170.286Z" transform="translate(-3531.571 -2123.277)" fill="#151210" fill-rule="evenodd"/>
  <path id="Trazado_181485" data-name="Trazado 181485" d="M3432.013,2122.911c-.41-.065-.516.3-.67.53-.735,1.093-1.43,2.211-2.158,3.307a6.792,6.792,0,0,1-.911,1.187,1.964,1.964,0,0,1-3.158-2.219,9.14,9.14,0,0,1,.841-1.462q4.915-7.116,9.851-14.217c.931-1.337,1.9-2.652,2.872-3.957a3.431,3.431,0,0,1,4.637-1.051,8.826,8.826,0,0,1,4.709,9.412,8.727,8.727,0,0,1-7.871,7.211,12.521,12.521,0,0,1-1.871-.042c-.547-.031-1.093-.1-1.729-.157a18.544,18.544,0,0,0-.375,3.227c-.152,2.125-.3,4.25-.482,6.373a7.537,7.537,0,0,1-.316,1.656,1.984,1.984,0,0,1-2.146,1.443,1.942,1.942,0,0,1-1.684-1.957c-.012-.811.114-1.623.174-2.435.159-2.187.318-4.374.465-6.561C3432.2,2123.112,3432.078,2123.013,3432.013,2122.911Zm4.134-6.073a6.976,6.976,0,0,0,.656.26c.481.139.964.278,1.454.379a4.646,4.646,0,0,0,5.609-3.214,4.242,4.242,0,0,0-2.105-5.194A59.432,59.432,0,0,0,3436.146,2116.837Z" transform="translate(-3393.719 -2076.866)" fill="#151210" fill-rule="evenodd"/>
  <path id="Trazado_181486" data-name="Trazado 181486" d="M3541.614,2184.477c-2.022-.558-3.913-.907-5.867-1.253-.693.912-1.335,1.751-1.969,2.6-.676.9-1.326,1.825-2.025,2.71a4.477,4.477,0,0,1-1.069,1.032,1.79,1.79,0,0,1-2.112-.105,1.83,1.83,0,0,1-.72-2.149,6.865,6.865,0,0,1,.843-1.45c1.506-2.08,3.07-4.12,4.55-6.219,2.779-3.942,5.515-7.914,8.269-11.874.465-.668.89-1.369,1.4-2a4.685,4.685,0,0,1,1.236-1.123,2.054,2.054,0,0,1,3.048,1.157,4.745,4.745,0,0,1,.224,1.84c-.235,3.062-.521,6.117-.8,9.175q-.489,5.333-1,10.663c-.1,1.061-.207,2.121-.358,3.174a7.1,7.1,0,0,1-.418,1.633,1.974,1.974,0,0,1-2.106,1.235,1.912,1.912,0,0,1-1.657-1.968,14.564,14.564,0,0,1,.213-2.052A31.345,31.345,0,0,0,3541.614,2184.477Zm-3.167-4.919c1.141.234,1.991.416,2.843.58a6.5,6.5,0,0,0,.7.056,16.144,16.144,0,0,0,.439-6.345C3541.039,2175.691,3539.782,2177.5,3538.448,2179.558Z" transform="translate(-3471.693 -2122.22)" fill="#151210" fill-rule="evenodd"/>
  <path id="Trazado_181487" data-name="Trazado 181487" d="M3498.834,2135.243c-1.149,1.427-2.106,3.259-4.77,9.114a9.875,9.875,0,0,0,.816.634c.793.5,1.652.91,2.391,1.479a1.949,1.949,0,0,1,.416,2.552,1.983,1.983,0,0,1-2.3.806,8.592,8.592,0,0,1-1.187-.552c-.661-.331-1.315-.673-1.951-1a39.738,39.738,0,0,0-3.792,7.615,5.311,5.311,0,0,0,2.162,1.018,19.476,19.476,0,0,1,1.961.641,1.933,1.933,0,0,1,1.2,2.434,1.959,1.959,0,0,1-2.37,1.358,15.15,15.15,0,0,1-5.563-2.174,5.324,5.324,0,0,1-1.113-1,2.771,2.771,0,0,1-.6-2.807,27.964,27.964,0,0,1,1.159-2.766c1.782-3.59,3.6-7.161,5.4-10.745,1.122-2.24,2.2-4.5,3.346-6.73a17.927,17.927,0,0,1,1.667-2.716,3.17,3.17,0,0,1,4.3-1.152c1.835.8,3.61,1.736,5.4,2.638a2.918,2.918,0,0,1,.881.684,1.806,1.806,0,0,1,.317,2.093,1.767,1.767,0,0,1-1.8,1.106,4.931,4.931,0,0,1-1.6-.476c-1.079-.5-2.127-1.065-3.2-1.587C3499.626,2135.529,3499.214,2135.394,3498.834,2135.243Z" transform="translate(-3438.5 -2096.822)" fill="#151210" fill-rule="evenodd"/>
  <path id="Trazado_181488" data-name="Trazado 181488" d="M3800.451,2200.4a2.981,2.981,0,0,0-2.043-.477c-.562-.029-1.133.007-1.686-.078a1.524,1.524,0,0,1-1.267-1.433,1.542,1.542,0,0,1,1.027-1.615,2,2,0,0,1,.727-.169,26.134,26.134,0,0,1,3.551.19,3.529,3.529,0,0,1,3.133,3.639,15.13,15.13,0,0,1-.846,5.726,8.342,8.342,0,0,1-2.354,3.567,5.539,5.539,0,0,1-7.667.007,9.759,9.759,0,0,1-2.354-3.359,21.266,21.266,0,0,1-1.691-6.327,22.889,22.889,0,0,1,.555-9.31,12.6,12.6,0,0,1,1.76-3.715c2.419-3.438,7.934-4,10.864-1.405a4.7,4.7,0,0,1,.786.8,1.667,1.667,0,0,1-.106,1.933,1.6,1.6,0,0,1-1.872.444,9.224,9.224,0,0,1-1.106-.7,4.334,4.334,0,0,0-6.186,1.423,10.62,10.62,0,0,0-1.4,4.448,22.391,22.391,0,0,0,1.042,10,8.1,8.1,0,0,0,1.621,2.939,2.366,2.366,0,0,0,3.877-.045,4.338,4.338,0,0,0,.645-.918A9.659,9.659,0,0,0,3800.451,2200.4Z" transform="translate(-3669.679 -2137.152)" fill="#151210" fill-rule="evenodd"/>
  <path id="Trazado_181489" data-name="Trazado 181489" d="M3386.963,2084.393c.813-.31,1.448-.542,2.076-.795a5.767,5.767,0,0,1,2.947-.342,2.957,2.957,0,0,1,2.492,3.992,4.949,4.949,0,0,1-1.707,2.417,12.449,12.449,0,0,1-9.661,2.637,2.43,2.43,0,0,1-2.035-1.444,16.366,16.366,0,0,1-1.794-8.143,13.727,13.727,0,0,1,.377-2.208,4.319,4.319,0,0,1,1.237-2.066,3.235,3.235,0,0,1,4.933.354,4.8,4.8,0,0,1,.991,2.592C3386.894,2082.317,3386.91,2083.252,3386.963,2084.393Z" transform="translate(-3359.06 -2056.323)" fill="#151210" fill-rule="evenodd"/>
  <path id="Trazado_181490" data-name="Trazado 181490" d="M3334.3,2024.083l-9.751,10.357c.09.444.191.8.231,1.156a1.745,1.745,0,0,1-.971,1.872,1.854,1.854,0,0,1-2.111-.243,2.659,2.659,0,0,1-.411-.383c-.793-.969-1.619-1.916-2.354-2.927a1.9,1.9,0,0,1-.1-2.431c.556-.722,1.232-.867,2.357-.5.231.076.455.169.731.272,3.206-3.389,6.385-6.752,9.636-10.189-.259-.368-.521-.7-.734-1.057a1.818,1.818,0,0,1,.25-2.391,1.965,1.965,0,0,1,2.274-.209,1.478,1.478,0,0,1,.307.216c1.09,1.033,2.189,2.058,3.255,3.116a2.783,2.783,0,0,1,.6.946,1.765,1.765,0,0,1-1.418,2.382A16.376,16.376,0,0,1,3334.3,2024.083Z" transform="translate(-3312.94 -2010.573)" fill="#151210" fill-rule="evenodd"/>
  <path id="Trazado_181491" data-name="Trazado 181491" d="M3688.4,2192.614c-.157,3.316-.294,6.632-.481,9.947a13.434,13.434,0,0,1-.413,2.777,6.214,6.214,0,0,1-.982,2,1.894,1.894,0,0,1-2.377.485,1.861,1.861,0,0,1-1.016-2.21c1.071-2.771.821-5.678.979-8.536.241-4.376.366-8.759.552-13.139a17.907,17.907,0,0,1,.2-2.243,2.018,2.018,0,0,1,2.066-1.792,2.038,2.038,0,0,1,1.855,2.017,11.793,11.793,0,0,1-.02,1.313q-.164,4.693-.332,9.387Z" transform="translate(-3589.493 -2134.018)" fill="#151210" fill-rule="evenodd"/>
</svg>
