<svg xmlns="http://www.w3.org/2000/svg" width="110.424" height="157.181" viewBox="0 0 110.424 157.181">
  <g id="Grupo_982284" data-name="Grupo 982284" transform="translate(74.772 -4.114) rotate(77)">
    <g id="Grupo_81059" data-name="Grupo 81059" transform="translate(0 18.29)">
      <g id="Grupo_81053" data-name="Grupo 81053" transform="translate(1.964 1.964)" style="mix-blend-mode: overlay;isolation: isolate">
        <path id="Trazado_114995" data-name="Trazado 114995" d="M42.427,0l6.79,27.692L0,44.553Z" transform="translate(0.828 11.557)" fill="#3c384f"/>
        <path id="Trazado_114996" data-name="Trazado 114996" d="M.828,46.209a.828.828,0,0,1-.6-1.4L42.655.257a.828.828,0,0,1,1.4.373l6.79,27.693a.828.828,0,0,1-.536.98L1.1,46.164A.818.818,0,0,1,.828,46.209ZM42.811,2.5,3.762,43.5l45.3-15.519Z" transform="translate(0 10.729)" fill="#3c384f"/>
        <path id="Trazado_114997" data-name="Trazado 114997" d="M47.523,0,0,40.391l65.845-26.97Z" transform="translate(0.828 15.719)" fill="#3c384f"/>
        <path id="Trazado_114998" data-name="Trazado 114998" d="M.828,42.047a.828.828,0,0,1-.537-1.459L47.815.2A.829.829,0,0,1,48.841.16L67.162,13.581a.828.828,0,0,1-.176,1.434L1.142,41.985A.822.822,0,0,1,.828,42.047ZM48.389,1.882,5.328,38.481,64.99,14.043Z" transform="translate(0 14.891)" fill="#3c384f"/>
        <path id="Trazado_114999" data-name="Trazado 114999" d="M42.427,10.729,0,55.282,27.926,0Z" transform="translate(0.828 0.828)" fill="#3c384f"/>
        <path id="Trazado_115000" data-name="Trazado 115000" d="M.827,56.938a.828.828,0,0,1-.739-1.2L28.014.455A.829.829,0,0,1,29.246.162l14.5,10.729a.828.828,0,0,1,.107,1.236L1.428,56.681A.826.826,0,0,1,.827,56.938ZM29.05,2.078,4.1,51.478,42.008,11.665Z" transform="translate(0 0)" fill="#3c384f"/>
        <path id="Trazado_115001" data-name="Trazado 115001" d="M7.464.424Q3.977,7.64.11,14.661c-.514.934.915,1.77,1.43.836Q5.407,8.478,8.894,1.26C9.356.3,7.928-.536,7.464.424Z" transform="translate(17.972 11.41)" fill="#3c384f"/>
        <path id="Trazado_115002" data-name="Trazado 115002" d="M2.469.61a.843.843,0,0,0-.381-.5A.834.834,0,0,0,1.45.032a.817.817,0,0,0-.5.381L.111,2.177a.886.886,0,0,0-.084.638.843.843,0,0,0,.381.5.834.834,0,0,0,.638.084.814.814,0,0,0,.5-.381l.844-1.765A.886.886,0,0,0,2.469.61Z" transform="translate(21.474 22.695)" fill="#3c384f"/>
        <path id="Trazado_115003" data-name="Trazado 115003" d="M16.5.076Q8.427,3.564.429,7.216c-.968.442-.128,1.87.836,1.43q8-3.653,16.069-7.14C18.31,1.085,17.467-.343,16.5.076Z" transform="translate(37.62 29.355)" fill="#3c384f"/>
      </g>
      <g id="Grupo_81058" data-name="Grupo 81058" transform="translate(0 0)">
        <g id="Grupo_81057" data-name="Grupo 81057">
          <g id="Grupo_81054" data-name="Grupo 81054" transform="translate(0 10.729)">
            <path id="Trazado_115004" data-name="Trazado 115004" d="M42.427,0l6.79,27.692L0,44.553Z" transform="translate(0.828 0.828)" fill="#fff"/>
            <path id="Trazado_115005" data-name="Trazado 115005" d="M.828,46.209a.829.829,0,0,1-.6-1.4L42.655.257a.828.828,0,0,1,1.4.373l6.79,27.692a.828.828,0,0,1-.536.98L1.1,46.164A.841.841,0,0,1,.828,46.209ZM42.811,2.494,3.762,43.5l45.3-15.519Z" transform="translate(0 0)"/>
          </g>
          <g id="Grupo_81055" data-name="Grupo 81055" transform="translate(0 14.891)">
            <path id="Trazado_115006" data-name="Trazado 115006" d="M47.523,0,0,40.391l65.845-26.97Z" transform="translate(0.828 0.828)" fill="#fff"/>
            <path id="Trazado_115007" data-name="Trazado 115007" d="M.828,42.047a.828.828,0,0,1-.537-1.459L47.815.2A.829.829,0,0,1,48.84.16L67.162,13.58a.828.828,0,0,1-.176,1.434L1.141,41.985A.818.818,0,0,1,.828,42.047ZM48.389,1.882,5.328,38.481,64.99,14.042Z" transform="translate(0 0)"/>
          </g>
          <g id="Grupo_81056" data-name="Grupo 81056" transform="translate(0 0)">
            <path id="Trazado_115008" data-name="Trazado 115008" d="M42.427,10.729,0,55.282,27.926,0Z" transform="translate(0.828 0.828)" fill="#fff"/>
            <path id="Trazado_115009" data-name="Trazado 115009" d="M.828,56.938a.828.828,0,0,1-.739-1.2L28.015.455A.827.827,0,0,1,29.246.163l14.5,10.728a.829.829,0,0,1,.107,1.237L1.428,56.681A.827.827,0,0,1,.828,56.938ZM29.05,2.077,4.1,51.478,42.009,11.665Z" transform="translate(0 0)"/>
          </g>
          <path id="Trazado_115010" data-name="Trazado 115010" d="M7.464.424Q3.978,7.639.11,14.662c-.515.934.915,1.77,1.43.836Q5.407,8.478,8.894,1.26C9.355.3,7.928-.536,7.464.424Z" transform="translate(17.972 11.41)"/>
          <path id="Trazado_115011" data-name="Trazado 115011" d="M2.469.61A.845.845,0,0,0,2.088.115.836.836,0,0,0,1.45.032a.814.814,0,0,0-.494.38Q.533,1.295.111,2.177a.886.886,0,0,0-.084.638.845.845,0,0,0,.38.5.836.836,0,0,0,.638.084.818.818,0,0,0,.494-.381l.845-1.765A.892.892,0,0,0,2.469.61Z" transform="translate(21.474 22.695)"/>
          <path id="Trazado_115012" data-name="Trazado 115012" d="M16.5.076Q8.428,3.563.429,7.217c-.969.442-.128,1.87.836,1.429q8-3.652,16.069-7.14C18.31,1.084,17.468-.343,16.5.076Z" transform="translate(37.62 29.355)"/>
        </g>
      </g>
    </g>
    <g id="Grupo_81063" data-name="Grupo 81063" transform="translate(48.278 0)">
      <g id="Grupo_81060" data-name="Grupo 81060" transform="translate(0 0)">
        <path id="Trazado_115013" data-name="Trazado 115013" d="M.827,30.523A.829.829,0,0,1,.2,29.15,83.746,83.746,0,0,1,7.25,22.011a.828.828,0,0,1,1.107,1.231,82.023,82.023,0,0,0-6.905,7A.828.828,0,0,1,.827,30.523Zm13.4-12.294a.828.828,0,0,1-.491-1.495c1.788-1.317,3.649-2.579,5.534-3.753a.828.828,0,1,1,.876,1.406c-1.848,1.151-3.675,2.389-5.429,3.68A.826.826,0,0,1,14.223,18.229Zm95.162-3.654a.821.821,0,0,1-.439-.127q-.753-.471-1.514-.927a.828.828,0,0,1,.85-1.422q.776.465,1.544.946a.828.828,0,0,1-.441,1.529ZM28.422,9.755a.828.828,0,0,1-.354-1.576c2.514-1.19,5.111-2.269,7.718-3.206a.828.828,0,1,1,.561,1.558c-2.558.921-5.1,1.979-7.57,3.145A.818.818,0,0,1,28.422,9.755Zm72.127,0a.83.83,0,0,1-.351-.079,84.342,84.342,0,0,0-9.133-3.648.828.828,0,0,1,.524-1.572,86,86,0,0,1,9.312,3.72.829.829,0,0,1-.353,1.578ZM42.38,4.583a.828.828,0,0,1-.218-1.626A83.513,83.513,0,0,1,51.978.893a.828.828,0,0,1,.242,1.639A81.992,81.992,0,0,0,42.6,4.553.8.8,0,0,1,42.38,4.583Zm42.589-.365a.8.8,0,0,1-.2-.025c-2.644-.66-5.349-1.2-8.04-1.6A.828.828,0,0,1,76.973.954c2.743.411,5.5.96,8.2,1.633a.828.828,0,0,1-.2,1.631ZM60.337,1.745A.828.828,0,0,1,60.3.09c2.214-.1,4.463-.118,6.687-.045A.828.828,0,1,1,66.933,1.7c-2.182-.071-4.386-.056-6.557.044Z" transform="translate(0 0)"/>
      </g>
    </g>
  </g>
</svg>
