<svg xmlns="http://www.w3.org/2000/svg" xmlns:xlink="http://www.w3.org/1999/xlink" width="1320" height="506.835" viewBox="0 0 1320 506.835">
  <defs>
    <clipPath id="clip-path">
      <path id="Rectangle_652" data-name="Rectangle 652" d="M1299.213,0H20.787C9.307,0,0,8.4,0,18.772V488.063c0,10.367,9.307,18.772,20.787,18.772H1299.213c11.48,0,20.787-8.4,20.787-18.772V18.772C1320,8.4,1310.693,0,1299.213,0Z" transform="translate(144.333 70)" fill="#ffd947"/>
    </clipPath>
  </defs>
  <g id="Grupo_982275" data-name="Grupo 982275" transform="translate(-510 -3608)">
    <path id="Rectangle_652-2" data-name="Rectangle 652" d="M1299.213,0H20.787C9.307,0,0,8.4,0,18.772V488.063c0,10.367,9.307,18.772,20.787,18.772H1299.213c11.48,0,20.787-8.4,20.787-18.772V18.772C1320,8.4,1310.693,0,1299.213,0Z" transform="translate(510 3608)" fill="#3c3fa7"/>
    <g id="Enmascarar_grupo_108" data-name="Enmascarar grupo 108" transform="translate(365.667 3538)" clip-path="url(#clip-path)">
      <g id="Grupo_165646" data-name="Grupo 165646" transform="translate(97.728 -1397.084)">
        <path id="Trazado_150526" data-name="Trazado 150526" d="M73.524,1697.663a61.009,61.009,0,0,0,35.713-48.433c1.952-18.021-4.153-37.323,3.366-53.816,8.961-19.659,33.661-26.761,55.251-25.96s43.044,7.137,64.5,4.645c28.9-3.356,55.118-24.007,65.148-51.322,6.547-17.828,6-37.952-.7-55.693H43.6v234.965A59.839,59.839,0,0,0,73.524,1697.663Z" fill="#3c3fa7" opacity="0.787"/>
        <path id="Trazado_150527" data-name="Trazado 150527" d="M97.583,1726.888c22.746-16.924,35.872-45.981,33.534-74.236-1.251-15.123-6.39-31.356.753-44.745,5.848-10.961,18.692-16.624,31.076-17.62s24.706,1.845,36.977,3.792c28.9,4.584,59.019,4.152,86.813-5s53.109-27.58,67.251-53.2c11.456-20.753,14.768-46.315,7.925-68.8h-65.1c6.693,17.741,7.243,37.865.7,55.693-10.03,27.315-36.244,47.966-65.148,51.322-21.46,2.492-42.914-3.843-64.5-4.645s-46.29,6.3-55.251,25.96c-7.519,16.493-1.414,35.8-3.366,53.816a61.009,61.009,0,0,1-35.713,48.433,59.839,59.839,0,0,1-29.919,4.386v41.158A85.365,85.365,0,0,0,97.583,1726.888Z" fill="#616ac5"/>
        <path id="Trazado_150528" data-name="Trazado 150528" d="M1041.51,1936.14c-22.788,17.621-41.469,40.489-65.961,55.654-33.64,20.83-74.727,25.061-114.252,26.864s-80.074,1.879-117.076,15.892c-29.572,11.2-56.827,33.771-67.941,62.534h75.914c16.916-26.329,42.463-47.2,72.244-56.951,59.454-19.462,128.594,2.72,184.606-25.142,39.678-19.737,66.491-62.067,108.972-74.688,30.736-9.131,64.558-.5,92.076,15.959a222.085,222.085,0,0,1,33.513,25.055v-61.773C1180.479,1886.971,1098.059,1892.411,1041.51,1936.14Z" transform="translate(123.992 -120)" fill="#494ef4"/>
        <path id="Trazado_150529" data-name="Trazado 150529" d="M1118.016,1940.3c-42.481,12.621-69.294,54.951-108.972,74.688-56.012,27.862-125.152,5.68-184.606,25.142-29.781,9.749-55.328,30.622-72.244,56.951H1243.6V1981.317a222.085,222.085,0,0,0-33.513-25.055C1182.574,1939.805,1148.752,1931.172,1118.016,1940.3Z" transform="translate(123.992 -120)" fill="#3c3fa7" opacity="0.614"/>
        <g id="Grupo_165640" data-name="Grupo 165640" transform="translate(-400.968 1557.994) rotate(-60)">
          <g id="Grupo_165636" data-name="Grupo 165636" transform="translate(113.683 179.011)" style="mix-blend-mode: overlay;isolation: isolate">
            <path id="Trazado_150530" data-name="Trazado 150530" d="M444.355,353.572c-22.164,22.679-45.068,44.525-68.409,65.985,10.093-22.817,20.972-45.27,30.554-68.326,10.861-26.138,23.488-61.766,9.794-89.183-31.207-62.493-110.1-1.173-139.127,30.283-3.091,3.353-6.045,6.854-9.035,10.314,10.373-25.4,19.712-51.5,17.246-78.948-3.39-37.735-37.983-46.788-67.765-29.252-31.98,18.824-57.668,51.4-79.114,80.981-18.217,25.126,23.465,49.047,41.539,24.28a326.742,326.742,0,0,1,32.472-37.983q-2.588,4.74-5.23,9.463C195.629,292,184.119,312.9,174.625,334.808c-18.18,41.949-45.068,100.026-22.2,144.15,11.528,22.237,38.559,24.5,58.91,15.447,27.357-12.163,46.305-39.014,64.572-61.739,19.068-23.728,35.863-48.923,53.514-73.681,7.374-10.346,14.743-20.839,23.189-30.352.193-.221.4-.423.589-.639l-.212.667c-4.688,14.573-10.714,28.558-16.818,42.579-11.353,26.087-26,53.546-30.159,81.929-3.675,25.1,6.486,53.228,36.672,51.407,28.378-1.711,51.121-29.045,70.093-47.3,22.973-22.108,45.537-44.654,68.105-67.176C504.451,366.586,467.636,329.757,444.355,353.572Z" transform="translate(-129.338 -181.231)" fill="#3c384f"/>
            <path id="Trazado_150531" data-name="Trazado 150531" d="M343.628,512.87c-11.137,0-20.59-3.91-27.468-11.4-9.559-10.41-13.69-27.366-11.054-45.358,3.436-23.456,13.667-45.923,23.557-67.645,2.369-5.2,4.715-10.355,6.932-15.452,2.1-4.835,4.315-9.913,6.509-15.167q-2.015,2.808-3.988,5.585l-1.306,1.836c-4.586,6.431-9.113,12.89-13.635,19.348-12.7,18.125-25.834,36.87-40.04,54.544-2.075,2.581-4.159,5.216-6.265,7.88-16.289,20.6-34.75,43.945-60.023,55.179-22.532,10.005-52.042,7.2-64.858-17.531-23.033-44.433,1.835-101.608,20-143.355l2.061-4.747c5.341-12.333,11.33-24.372,17.683-36.355q-2.208,2.877-4.333,5.8c-11.174,15.309-30.743,15.079-43.214,6.008-10.314-7.5-16.1-21.451-5.769-35.7,22.9-31.58,48.495-63.4,80.507-82.246,17.766-10.456,37.211-12.154,52.028-4.54C284,196.25,292.042,209.513,293.6,226.9c1.831,20.388-2.571,39.9-8.952,58.519,23.622-23.079,67.309-55.809,102.358-50.85,16.1,2.286,28.562,12.057,37.04,29.036,13.948,27.923,2.944,62.686-9.66,93.006-6,14.435-12.6,28.834-18.976,42.763l-2.259,4.927c18.985-17.8,35.969-34.386,51.554-50.33v0c7.705-7.889,17.494-10.787,27.536-8.179A33.9,33.9,0,0,1,495.7,369.074c2.751,10.143-.06,20.052-7.921,27.9l-2.567,2.558c-21.368,21.326-43.462,43.379-65.6,64.674-2.728,2.627-5.529,5.437-8.418,8.335C394,489.763,372.618,511.209,346.6,512.778,345.6,512.842,344.608,512.87,343.628,512.87Zm13.2-185.667a4.343,4.343,0,0,1,2.226.594,4.475,4.475,0,0,1,2.171,5.221l-.216.672c-4.913,15.282-11.321,30.007-16.975,43-2.24,5.148-4.609,10.346-7,15.59-9.624,21.142-19.578,43-22.826,65.17-2.2,15.052,1.141,29.538,8.726,37.8,5.626,6.127,13.391,8.9,23.111,8.349,22.522-1.362,41.705-20.59,58.629-37.56,2.935-2.94,5.782-5.8,8.552-8.464,22.076-21.239,44.143-43.26,65.483-64.559l2.562-2.558c6.955-6.937,6.85-14.145,5.543-18.971A24.763,24.763,0,0,0,469.93,354.7c-4.761-1.242-11.85-1.251-18.64,5.7v0C431.155,381,408.72,402.636,382.7,426.553a4.6,4.6,0,0,1-7.319-5.249c3.814-8.625,7.742-17.2,11.671-25.765,6.344-13.856,12.908-28.181,18.842-42.464,11.809-28.4,22.219-60.754,9.927-85.36-7.144-14.316-16.993-22.177-30.108-24.036-32.675-4.628-78.626,30.573-101.521,55.386-2.443,2.64-4.793,5.382-7.149,8.124l-1.78,2.075a4.6,4.6,0,0,1-7.742-4.743c9.877-24.2,19.321-50.059,16.919-76.8-1.288-14.329-7.406-24.7-17.692-29.984-12-6.164-28.13-4.559-43.159,4.283-30.554,17.991-55.413,48.946-77.724,79.721-7.047,9.725-2.7,18.189,3.731,22.863,8.7,6.325,22.3,7.07,30.37-3.993a333.136,333.136,0,0,1,32.928-38.522,4.6,4.6,0,0,1,7.3,5.451q-2.6,4.761-5.258,9.5c-11.795,21.078-23.157,41.774-32.445,63.206L180.424,345c-17.425,40.053-41.282,94.91-20.268,135.452,10.208,19.693,34.368,21.616,52.957,13.359,23.2-10.309,40.15-31.746,56.54-52.479,2.121-2.677,4.223-5.336,6.316-7.935,14.012-17.439,27.054-36.056,39.672-54.061q6.8-9.716,13.676-19.408l1.306-1.831c6.923-9.72,14.081-19.767,22.191-28.907l.409-.446A5.022,5.022,0,0,1,356.826,327.2ZM448,357.182h0Z" transform="translate(-132.979 -184.841)" fill="#3c384f"/>
            <path id="Trazado_150532" data-name="Trazado 150532" d="M157.662,225.1c-16.947,34.06-26.511,73.989-11.62,110.6,2.2,5.414,11.1,3.045,8.869-2.447-13.975-34.372-5.244-71.473,10.7-103.508C168.238,224.465,160.3,219.8,157.662,225.1Z" transform="translate(-112.523 -48.306)" fill="#3c384f"/>
            <path id="Trazado_150533" data-name="Trazado 150533" d="M156.888,263.877c-.078-.009-.152-.032-.225-.046-.129-.248-.244-.52-.285-.593l-.023-.028c-.009-.037,0-.009-.009-.064-.593-2.056-1.017-4.135-1.467-6.229q-1.559-7.28-3.124-14.559a4.632,4.632,0,0,0-5.658-3.211,4.708,4.708,0,0,0-3.216,5.658q1.766,8.232,3.538,16.469c.98,4.568,2.548,10.562,8.023,11.477,2.365.4,5.069-.621,5.658-3.216C160.605,267.314,159.428,264.3,156.888,263.877Z" transform="translate(-97.778 10.017)" fill="#3c384f"/>
            <path id="Trazado_150534" data-name="Trazado 150534" d="M200.42,202.18c-5.221-2.788-9.872,5.152-4.642,7.944,7.222,3.855,9.426,11.7,9.711,19.413a133.043,133.043,0,0,1-2.075,26.373,175.03,175.03,0,0,1-15.967,49.415c-2.627,5.286,5.3,9.95,7.944,4.642a184.1,184.1,0,0,0,17.858-58.2C215.417,235.191,218.011,211.569,200.42,202.18Z" transform="translate(61.221 -124.519)" fill="#3c384f"/>
          </g>
          <g id="Grupo_165639" data-name="Grupo 165639" transform="translate(130.608 182.47)">
            <g id="Grupo_165638" data-name="Grupo 165638">
              <g id="Grupo_165637" data-name="Grupo 165637">
                <path id="Trazado_150535" data-name="Trazado 150535" d="M441.987,351.2c-22.164,22.679-45.068,44.525-68.413,65.98,10.093-22.812,20.977-45.27,30.559-68.321,10.861-26.138,23.484-61.766,9.794-89.183C382.718,197.185,303.83,258.5,274.8,289.96c-3.1,3.349-6.045,6.85-9.035,10.314,10.369-25.4,19.707-51.5,17.246-78.948-3.39-37.735-37.984-46.788-67.765-29.257-31.985,18.828-57.668,51.4-79.118,80.986-18.217,25.126,23.47,49.047,41.544,24.28a327.16,327.16,0,0,1,32.468-37.988q-2.588,4.74-5.226,9.467c-11.652,20.816-23.162,41.714-32.656,63.62-18.184,41.953-45.068,100.026-22.2,144.155,11.528,22.237,38.554,24.5,58.91,15.447,27.357-12.163,46.305-39.014,64.572-61.739,19.068-23.728,35.858-48.923,53.509-73.681,7.379-10.346,14.748-20.839,23.189-30.356.193-.216.4-.419.593-.639l-.212.672c-4.688,14.573-10.718,28.558-16.818,42.579-11.358,26.083-26,53.541-30.159,81.929-3.68,25.1,6.486,53.228,36.672,51.407,28.374-1.711,51.117-29.045,70.088-47.3,22.978-22.108,45.541-44.658,68.11-67.181C502.079,364.216,465.264,327.387,441.987,351.2Z" transform="translate(-126.97 -178.86)" fill="#fec7c9"/>
                <path id="Trazado_150536" data-name="Trazado 150536" d="M341.252,510.494c-11.137,0-20.586-3.905-27.463-11.395-9.559-10.41-13.69-27.366-11.054-45.362,3.432-23.452,13.663-45.919,23.557-67.645,2.364-5.2,4.711-10.35,6.932-15.447,2.1-4.835,4.315-9.913,6.509-15.167-1.343,1.868-2.673,3.735-3.988,5.585l-1.306,1.831c-4.586,6.431-9.113,12.894-13.639,19.348-12.7,18.129-25.83,36.875-40.035,54.544q-3.112,3.878-6.265,7.885c-16.289,20.595-34.75,43.941-60.023,55.179-22.536,10.005-52.042,7.2-64.858-17.536-23.033-44.428,1.836-101.6,19.992-143.355l2.065-4.743c5.341-12.333,11.33-24.372,17.678-36.355q-2.2,2.877-4.333,5.792c-11.169,15.314-30.738,15.084-43.209,6.012-10.314-7.5-16.1-21.451-5.769-35.7,22.895-31.58,48.495-63.4,80.5-82.251,17.77-10.452,37.211-12.149,52.032-4.536,13.046,6.7,21.087,19.96,22.651,37.344,1.831,20.388-2.571,39.906-8.956,58.519,23.626-23.074,67.309-55.8,102.358-50.846,16.1,2.286,28.567,12.057,37.045,29.036,13.943,27.923,2.939,62.682-9.66,93.006-6,14.431-12.6,28.834-18.976,42.758l-2.259,4.927c18.985-17.8,35.969-34.382,51.554-50.326h0c7.705-7.889,17.494-10.783,27.537-8.174A33.88,33.88,0,0,1,493.32,366.7c2.755,10.143-.055,20.047-7.917,27.891l-2.567,2.562c-21.368,21.326-43.462,43.375-65.6,64.674-2.728,2.627-5.529,5.437-8.423,8.335-17.182,17.228-38.568,38.674-64.582,40.242C343.226,510.467,342.237,510.494,341.252,510.494Zm13.2-185.667a4.335,4.335,0,0,1,2.226.6,4.47,4.47,0,0,1,2.176,5.221l-.216.672c-4.913,15.277-11.321,30.007-16.974,43-2.24,5.143-4.609,10.341-7,15.59-9.628,21.142-19.583,43-22.831,65.166-2.2,15.052,1.141,29.538,8.731,37.8,5.621,6.123,13.391,8.9,23.111,8.349,22.522-1.362,41.705-20.59,58.624-37.56,2.935-2.944,5.787-5.8,8.556-8.464,22.076-21.239,44.143-43.26,65.483-64.558l2.562-2.562c6.951-6.932,6.85-14.141,5.539-18.971a24.748,24.748,0,0,0-16.887-16.781c-4.756-1.242-11.845-1.251-18.635,5.7h0c-20.135,20.595-42.57,42.234-68.593,66.155a4.6,4.6,0,0,1-7.319-5.249c3.813-8.625,7.742-17.2,11.666-25.77,6.348-13.851,12.908-28.176,18.847-42.459,11.8-28.4,22.219-60.754,9.927-85.365-7.149-14.311-17-22.173-30.108-24.036-32.675-4.623-78.63,30.577-101.525,55.386-2.438,2.645-4.789,5.387-7.144,8.124l-1.785,2.079a4.6,4.6,0,0,1-7.742-4.747c9.881-24.192,19.325-50.059,16.924-76.8-1.288-14.334-7.406-24.7-17.692-29.988-12-6.16-28.13-4.554-43.159,4.287-30.559,17.987-55.413,48.946-77.724,79.721-7.052,9.725-2.7,18.184,3.731,22.858,8.7,6.33,22.3,7.075,30.37-3.988a332.313,332.313,0,0,1,32.928-38.522,4.6,4.6,0,0,1,7.3,5.447q-2.6,4.768-5.253,9.508c-11.8,21.078-23.157,41.774-32.449,63.206l-2.065,4.756c-17.421,40.054-41.277,94.91-20.264,135.447,10.208,19.7,34.368,21.621,52.957,13.364,23.2-10.309,40.15-31.75,56.541-52.479q3.181-4.023,6.311-7.94c14.017-17.435,27.058-36.051,39.676-54.056q6.8-9.716,13.676-19.413l1.306-1.826c6.923-9.72,14.081-19.771,22.187-28.907l.414-.446A5.017,5.017,0,0,1,354.45,324.828Zm91.175,29.984h0Z" transform="translate(-130.608 -182.47)"/>
              </g>
              <path id="Trazado_150537" data-name="Trazado 150537" d="M155.293,222.735c-16.952,34.06-26.511,73.984-11.625,110.6,2.2,5.41,11.1,3.045,8.874-2.447-13.98-34.377-5.249-71.473,10.7-103.508C165.864,222.091,157.934,217.426,155.293,222.735Z" transform="translate(-110.154 -45.935)"/>
              <path id="Trazado_150538" data-name="Trazado 150538" d="M154.517,261.506c-.078-.009-.152-.032-.225-.046-.129-.253-.248-.52-.29-.593l-.018-.028c-.009-.037,0-.014-.009-.069-.593-2.052-1.021-4.136-1.467-6.224q-1.566-7.28-3.123-14.559a4.635,4.635,0,0,0-5.663-3.211,4.707,4.707,0,0,0-3.211,5.658l3.533,16.464c.984,4.573,2.553,10.567,8.027,11.482,2.365.391,5.069-.621,5.658-3.215C158.234,264.943,157.052,261.93,154.517,261.506Z" transform="translate(-95.407 12.389)"/>
              <path id="Trazado_150539" data-name="Trazado 150539" d="M198.05,199.809c-5.221-2.788-9.877,5.152-4.642,7.944,7.222,3.855,9.421,11.7,9.711,19.408a133.089,133.089,0,0,1-2.075,26.377,175.031,175.031,0,0,1-15.967,49.415c-2.631,5.286,5.3,9.95,7.945,4.642a184.293,184.293,0,0,0,17.858-58.2C213.047,232.815,215.641,209.194,198.05,199.809Z" transform="translate(63.591 -122.148)"/>
            </g>
          </g>
        </g>
        <g id="Grupo_165645" data-name="Grupo 165645" transform="matrix(0.988, 0.156, -0.156, 0.988, -73.658, 1699.953)">
          <g id="Grupo_165641" data-name="Grupo 165641" transform="translate(135.092 186.953)" style="mix-blend-mode: overlay;isolation: isolate">
            <path id="Trazado_150540" data-name="Trazado 150540" d="M261.563,254.787c-9.11,9.322-18.525,18.3-28.119,27.122,4.149-9.379,8.62-18.608,12.559-28.085,4.464-10.744,9.655-25.389,4.026-36.658-12.828-25.687-45.254-.482-57.187,12.448-1.271,1.378-2.485,2.817-3.714,4.239,4.264-10.441,8.1-21.17,7.089-32.451-1.394-15.511-15.613-19.232-27.854-12.024-13.145,7.737-23.7,21.127-32.519,33.287-7.488,10.328,9.645,20.16,17.074,9.98a134.3,134.3,0,0,1,13.348-15.613q-1.064,1.949-2.15,3.889a289.835,289.835,0,0,0-13.423,26.152c-7.473,17.243-18.525,41.115-9.123,59.252,4.738,9.14,15.849,10.069,24.214,6.35,11.245-5,19.033-16.036,26.542-25.377,7.838-9.753,14.741-20.109,22-30.286a147.383,147.383,0,0,1,9.532-12.476c.079-.091.163-.174.242-.263l-.087.274c-1.927,5.99-4.4,11.738-6.913,17.5-4.667,10.723-10.687,22.01-12.4,33.676-1.511,10.317,2.666,21.879,15.074,21.13,11.665-.7,21.013-11.939,28.811-19.442,9.443-9.087,18.718-18.355,27.994-27.612C286.266,260.136,271.133,245,261.563,254.787Z" transform="translate(-132.078 -183.947)" fill="#3c384f"/>
            <path id="Trazado_150541" data-name="Trazado 150541" d="M219.565,319.674a14.823,14.823,0,0,1-11.29-4.685c-3.929-4.279-5.627-11.249-4.544-18.644,1.412-9.642,5.618-18.876,9.683-27.805.974-2.139,1.938-4.256,2.849-6.351.864-1.987,1.774-4.075,2.676-6.234q-.828,1.154-1.639,2.3l-.537.754q-2.828,3.965-5.6,7.953c-5.221,7.45-10.619,15.155-16.458,22.42-.853,1.061-1.709,2.144-2.575,3.239-6.7,8.467-14.284,18.063-24.672,22.681-9.261,4.113-21.391,2.961-26.659-7.206-9.468-18.264.754-41.765,8.22-58.925l.847-1.951c2.2-5.069,4.657-10.018,7.268-14.943q-.908,1.183-1.781,2.382c-4.593,6.293-12.637,6.2-17.763,2.469-4.239-3.084-6.618-8.817-2.371-14.675,9.411-12.981,19.933-26.062,33.092-33.807,7.3-4.3,15.3-5,21.386-1.866,5.362,2.755,8.67,8.206,9.311,15.352.753,8.38-1.057,16.4-3.68,24.054,9.71-9.486,27.667-22.94,42.073-20.9,6.618.94,11.74,4.956,15.225,11.935,5.733,11.477,1.21,25.767-3.971,38.229-2.466,5.934-5.177,11.852-7.8,17.577l-.928,2.025c7.8-7.318,14.785-14.134,21.191-20.688v0A11.361,11.361,0,0,1,272.431,251a13.932,13.932,0,0,1,9.64,9.57,11.464,11.464,0,0,1-3.256,11.466l-1.055,1.051c-8.783,8.766-17.865,17.831-26.964,26.584-1.121,1.08-2.273,2.235-3.46,3.426-7.064,7.081-15.855,15.9-26.548,16.541C220.376,319.663,219.967,319.674,219.565,319.674Zm5.425-76.317a1.785,1.785,0,0,1,.915.244,1.839,1.839,0,0,1,.892,2.146l-.089.276c-2.019,6.281-4.653,12.334-6.977,17.674-.921,2.116-1.895,4.253-2.876,6.408-3.956,8.69-8.047,17.676-9.382,26.788-.906,6.187.469,12.141,3.587,15.537,2.313,2.519,5.5,3.659,9.5,3.432,9.258-.56,17.143-8.463,24.1-15.439,1.206-1.208,2.377-2.383,3.515-3.479,9.074-8.73,18.145-17.782,26.916-26.536l1.053-1.051a7.69,7.69,0,0,0,2.279-7.8,10.179,10.179,0,0,0-6.941-6.9A7.576,7.576,0,0,0,263.818,257v0c-8.276,8.465-17.5,17.36-28.195,27.19a1.891,1.891,0,0,1-3.008-2.157c1.568-3.545,3.182-7.068,4.8-10.591,2.607-5.7,5.306-11.583,7.745-17.455,4.854-11.674,9.133-24.973,4.08-35.087-2.937-5.884-6.985-9.116-12.376-9.88-13.431-1.9-32.319,12.567-41.729,22.766-1,1.085-1.97,2.212-2.938,3.339l-.732.853a1.891,1.891,0,0,1-3.182-1.949c4.06-9.946,7.942-20.576,6.955-31.57-.529-5.89-3.044-10.152-7.272-12.325-4.931-2.534-11.563-1.874-17.74,1.76-12.559,7.4-22.777,20.119-31.948,32.769-2.9,4-1.108,7.476,1.534,9.4,3.577,2.6,9.167,2.906,12.483-1.641a136.935,136.935,0,0,1,13.535-15.834,1.892,1.892,0,0,1,3,2.241q-1.069,1.957-2.161,3.906a289.275,289.275,0,0,0-13.336,25.98l-.849,1.955c-7.163,16.464-16.969,39.012-8.331,55.676,4.2,8.095,14.127,8.885,21.768,5.491,9.536-4.237,16.5-13.049,23.241-21.571.872-1.1,1.736-2.193,2.6-3.262,5.76-7.168,11.12-14.82,16.307-22.221q2.8-3.993,5.622-7.977l.537-.753a140.678,140.678,0,0,1,9.121-11.882l.168-.183A2.064,2.064,0,0,1,224.99,243.358Zm37.477,12.323h0Z" transform="translate(-132.979 -184.841)" fill="#3c384f"/>
            <path id="Trazado_150542" data-name="Trazado 150542" d="M146.472,223.727c-6.966,14-10.9,30.413-4.776,45.46.9,2.226,4.563,1.252,3.646-1.006-5.744-14.128-2.156-29.378,4.4-42.546C150.819,223.464,147.557,221.545,146.472,223.727Z" transform="translate(-127.917 -151.055)" fill="#3c384f"/>
            <path id="Trazado_150543" data-name="Trazado 150543" d="M148.566,249.205c-.032,0-.062-.013-.093-.019-.053-.1-.1-.214-.117-.244l-.009-.011c0-.015,0,0,0-.026-.244-.845-.418-1.7-.6-2.56q-.641-2.992-1.284-5.985a1.9,1.9,0,0,0-2.326-1.32,1.935,1.935,0,0,0-1.322,2.326q.726,3.384,1.454,6.769c.4,1.878,1.048,4.341,3.3,4.718a1.937,1.937,0,0,0,2.326-1.322A1.912,1.912,0,0,0,148.566,249.205Z" transform="translate(-124.269 -136.623)" fill="#3c384f"/>
            <path id="Trazado_150544" data-name="Trazado 150544" d="M192.47,201.836c-2.146-1.146-4.058,2.118-1.908,3.265,2.969,1.585,3.874,4.81,3.992,7.979a54.689,54.689,0,0,1-.853,10.84,71.946,71.946,0,0,1-6.563,20.312c-1.08,2.173,2.18,4.09,3.266,1.908a75.673,75.673,0,0,0,7.34-23.921C198.634,215.4,199.7,205.7,192.47,201.836Z" transform="translate(-84.925 -169.914)" fill="#3c384f"/>
          </g>
          <g id="Grupo_165644" data-name="Grupo 165644" transform="translate(130.608 182.47)">
            <g id="Grupo_165643" data-name="Grupo 165643">
              <g id="Grupo_165642" data-name="Grupo 165642">
                <path id="Trazado_150545" data-name="Trazado 150545" d="M259.193,252.416c-9.11,9.322-18.525,18.3-28.121,27.121,4.149-9.377,8.622-18.608,12.561-28.083,4.464-10.744,9.653-25.389,4.026-36.658-12.828-25.687-45.254-.484-57.187,12.447-1.273,1.377-2.485,2.815-3.714,4.239,4.262-10.441,8.1-21.17,7.089-32.451-1.394-15.511-15.613-19.232-27.854-12.026-13.147,7.739-23.7,21.128-32.521,33.288-7.488,10.328,9.647,20.16,17.076,9.98a134.473,134.473,0,0,1,13.346-15.615q-1.064,1.949-2.148,3.891A290.055,290.055,0,0,0,148.323,244.7c-7.475,17.245-18.525,41.115-9.123,59.254,4.738,9.14,15.847,10.069,24.214,6.35,11.245-5,19.033-16.036,26.542-25.377,7.838-9.753,14.739-20.109,21.994-30.286a148.529,148.529,0,0,1,9.532-12.478c.079-.089.165-.172.244-.263l-.087.276c-1.927,5.99-4.406,11.738-6.913,17.5-4.668,10.721-10.687,22.008-12.4,33.676-1.513,10.317,2.666,21.879,15.074,21.13,11.663-.7,21.011-11.939,28.809-19.442,9.445-9.087,18.719-18.356,28-27.614C283.893,257.766,268.761,242.627,259.193,252.416Z" transform="translate(-129.708 -181.577)" fill="#6b8dfc"/>
                <path id="Trazado_150546" data-name="Trazado 150546" d="M217.192,317.3a14.817,14.817,0,0,1-11.288-4.684c-3.929-4.279-5.627-11.249-4.544-18.646,1.411-9.64,5.616-18.875,9.683-27.805.972-2.139,1.936-4.254,2.85-6.349.864-1.987,1.774-4.075,2.676-6.234-.552.768-1.1,1.535-1.639,2.3l-.537.753c-1.885,2.643-3.746,5.3-5.606,7.953-5.219,7.452-10.617,15.157-16.456,22.42q-1.279,1.594-2.575,3.241c-6.7,8.465-14.284,18.061-24.672,22.681-9.263,4.113-21.391,2.959-26.659-7.208-9.468-18.262.754-41.763,8.218-58.925l.849-1.95c2.2-5.069,4.657-10.018,7.267-14.943q-.9,1.183-1.781,2.381c-4.591,6.295-12.635,6.2-17.761,2.471-4.239-3.084-6.618-8.817-2.371-14.675,9.411-12.981,19.933-26.062,33.09-33.808,7.3-4.3,15.3-4.994,21.387-1.864,5.362,2.755,8.668,8.2,9.311,15.35.753,8.38-1.057,16.4-3.681,24.054,9.711-9.485,27.667-22.938,42.073-20.9,6.618.94,11.742,4.956,15.227,11.935,5.731,11.478,1.208,25.765-3.971,38.229-2.466,5.932-5.177,11.852-7.8,17.576l-.928,2.025c7.8-7.316,14.785-14.132,21.191-20.686h0a11.361,11.361,0,0,1,11.319-3.36,13.926,13.926,0,0,1,9.638,9.57,11.456,11.456,0,0,1-3.254,11.464l-1.055,1.053c-8.783,8.766-17.865,17.829-26.964,26.584-1.121,1.08-2.273,2.235-3.462,3.426-7.062,7.081-15.853,15.9-26.546,16.541C218,317.29,217.6,317.3,217.192,317.3Zm5.425-76.317a1.782,1.782,0,0,1,.915.246,1.837,1.837,0,0,1,.894,2.146l-.089.276c-2.019,6.28-4.653,12.334-6.977,17.674-.921,2.114-1.895,4.251-2.876,6.408-3.958,8.69-8.049,17.676-9.384,26.786-.906,6.187.469,12.141,3.589,15.539,2.311,2.517,5.5,3.659,9.5,3.432,9.258-.56,17.143-8.463,24.1-15.439,1.206-1.21,2.379-2.384,3.517-3.479,9.074-8.73,18.145-17.782,26.916-26.536l1.053-1.053a7.687,7.687,0,0,0,2.277-7.8,10.173,10.173,0,0,0-6.941-6.9,7.574,7.574,0,0,0-7.66,2.343h0c-8.276,8.465-17.5,17.36-28.195,27.192a1.891,1.891,0,0,1-3.008-2.158c1.568-3.545,3.182-7.068,4.8-10.593,2.609-5.693,5.306-11.582,7.747-17.453,4.852-11.674,9.133-24.973,4.08-35.089-2.938-5.882-6.987-9.114-12.376-9.88-13.431-1.9-32.32,12.569-41.731,22.766-1,1.087-1.968,2.214-2.936,3.339l-.734.855a1.891,1.891,0,0,1-3.182-1.951c4.062-9.944,7.943-20.576,6.956-31.568-.529-5.892-3.044-10.154-7.272-12.327-4.933-2.532-11.563-1.872-17.74,1.762-12.561,7.393-22.777,20.119-31.948,32.769-2.9,4-1.108,7.475,1.534,9.4,3.577,2.6,9.167,2.908,12.483-1.639a136.59,136.59,0,0,1,13.535-15.834,1.89,1.89,0,0,1,3,2.239q-1.069,1.96-2.159,3.908a289.3,289.3,0,0,0-13.338,25.98l-.849,1.955c-7.161,16.464-16.967,39.012-8.329,55.674,4.2,8.1,14.127,8.887,21.768,5.493,9.536-4.237,16.5-13.051,23.241-21.571q1.308-1.654,2.594-3.264c5.761-7.166,11.122-14.819,16.309-22.219q2.8-3.993,5.622-7.979l.537-.751a140.74,140.74,0,0,1,9.12-11.882l.17-.183A2.062,2.062,0,0,1,222.617,240.985Zm37.477,12.325h0Z" transform="translate(-130.608 -182.47)"/>
              </g>
              <path id="Trazado_150547" data-name="Trazado 150547" d="M144.1,221.356c-6.968,14-10.9,30.411-4.778,45.46.906,2.224,4.565,1.252,3.647-1.006-5.746-14.13-2.157-29.378,4.4-42.546C148.446,221.092,145.186,219.174,144.1,221.356Z" transform="translate(-125.547 -148.684)" fill="#3c3fa7"/>
              <path id="Trazado_150548" data-name="Trazado 150548" d="M146.195,246.834c-.032,0-.062-.013-.093-.019-.053-.1-.1-.214-.119-.244l-.008-.011c0-.015,0-.006,0-.028-.244-.843-.42-1.7-.6-2.558q-.644-2.992-1.284-5.985a1.905,1.905,0,0,0-2.328-1.32,1.935,1.935,0,0,0-1.32,2.326l1.452,6.767c.4,1.879,1.049,4.343,3.3,4.72a1.939,1.939,0,0,0,2.326-1.322A1.914,1.914,0,0,0,146.195,246.834Z" transform="translate(-121.898 -134.252)" fill="#3c3fa7"/>
              <path id="Trazado_150549" data-name="Trazado 150549" d="M190.1,199.465c-2.146-1.146-4.06,2.118-1.908,3.265,2.969,1.585,3.872,4.81,3.992,7.978a54.705,54.705,0,0,1-.853,10.842,71.945,71.945,0,0,1-6.563,20.312c-1.082,2.173,2.18,4.09,3.266,1.908a75.755,75.755,0,0,0,7.34-23.921C196.264,213.032,197.33,203.322,190.1,199.465Z" transform="translate(-82.554 -167.543)"/>
            </g>
          </g>
        </g>
      </g>
    </g>
  </g>
</svg>
