<svg xmlns="http://www.w3.org/2000/svg" width="1243.333" height="470.074" viewBox="0 0 1243.333 470.074">
  <g id="Grupo_982692" data-name="Grupo 982692" transform="translate(-180 -642.176)">
    <line id="Línea_1425" data-name="Línea 1425" y2="34.25" transform="translate(799.833 821)" fill="none" stroke="#3c3fa7" stroke-width="3"/>
    <rect id="Rectángulo_34876" data-name="Rectángulo 34876" width="315" height="98" rx="15" transform="translate(642.333 726)" fill="#3c3fa7"/>
    <line id="Línea_1430" data-name="Línea 1430" y2="56" transform="translate(523.833 855.25)" fill="none" stroke="#3c3fa7" stroke-width="3"/>
    <line id="Línea_1561" data-name="Línea 1561" y2="56" transform="translate(519.19 971.437)" fill="none" stroke="#3c3fa7" stroke-width="3"/>
    <line id="Línea_1562" data-name="Línea 1562" y2="56" transform="translate(703.409 971.437)" fill="none" stroke="#3c3fa7" stroke-width="3"/>
    <line id="Línea_636" data-name="Línea 636" y2="45" transform="translate(1087.5 855.25)" fill="none" stroke="#3c3fa7" stroke-width="3"/>
    <rect id="Rectángulo_42649" data-name="Rectángulo 42649" width="202" height="47.5" rx="11" transform="translate(423.333 876.75)" fill="#a6bbff"/>
    <path id="Trazado_599187" data-name="Trazado 599187" d="M77.93,5.625H79.4L78.031,13.68a4.057,4.057,0,0,1-1.3,2.566,3.783,3.783,0,0,1-2.687.926,3.12,3.12,0,0,1-2.32-.906,3.086,3.086,0,0,1-.727-2.406h1.461a2.043,2.043,0,0,0,.352,1.5,1.6,1.6,0,0,0,1.313.574,2.159,2.159,0,0,0,1.625-.6,2.743,2.743,0,0,0,.813-1.641ZM84.4,8.391a3.047,3.047,0,0,1,1.82.578A3.285,3.285,0,0,1,87.34,10.52a4.8,4.8,0,0,1,.246,2.16l-.016.172a5.685,5.685,0,0,1-.734,2.23,4.309,4.309,0,0,1-1.516,1.551,3.7,3.7,0,0,1-2.039.523,3.052,3.052,0,0,1-1.816-.578,3.21,3.21,0,0,1-1.113-1.531,4.931,4.931,0,0,1-.25-2.133,5.76,5.76,0,0,1,.711-2.359A4.409,4.409,0,0,1,82.34,8.934,3.652,3.652,0,0,1,84.4,8.391Zm-2.875,4.531a4.8,4.8,0,0,0,0,1.023,2.507,2.507,0,0,0,.551,1.469,1.653,1.653,0,0,0,1.262.57,2.253,2.253,0,0,0,1.3-.348,2.919,2.919,0,0,0,1-1.121,4.721,4.721,0,0,0,.523-1.664,7.5,7.5,0,0,0,.023-1.211,2.6,2.6,0,0,0-.57-1.492,1.69,1.69,0,0,0-1.266-.578,2.3,2.3,0,0,0-1.859.859,4.245,4.245,0,0,0-.945,2.313ZM96.3,12.813a6.586,6.586,0,0,1-.711,2.336,3.982,3.982,0,0,1-1.344,1.539,3.058,3.058,0,0,1-1.75.477,2.61,2.61,0,0,1-2.273-1.148L89.938,17h-1.3L90.719,5h1.414l-.852,4.484A3.107,3.107,0,0,1,93.75,8.391a2.358,2.358,0,0,1,1.9.9,3.954,3.954,0,0,1,.719,2.391,7.362,7.362,0,0,1-.047.969ZM94.961,12a3.009,3.009,0,0,0-.383-1.744,1.465,1.465,0,0,0-1.242-.636A2.574,2.574,0,0,0,91.1,10.944l-.633,3.675a1.8,1.8,0,0,0,1.758,1.319,2.054,2.054,0,0,0,1.449-.492,3.212,3.212,0,0,0,.941-1.463A6.578,6.578,0,0,0,94.961,12Z" transform="translate(440.333 889.75)" fill="#12263f"/>
    <path id="Trazado_189993" data-name="Trazado 189993" d="M-11521.3-9307.5v49.16h-462.918v40.213" transform="translate(12321.129 10229.25)" fill="none" stroke="#3c3fa7" stroke-width="3"/>
    <path id="Trazado_189994" data-name="Trazado 189994" d="M-11984.212-9307.5v49.16h75.891v40.213" transform="translate(12784.045 10229.25)" fill="none" stroke="#3c3fa7" stroke-width="3"/>
    <rect id="Rectángulo_337771" data-name="Rectángulo 337771" width="149.219" height="47" rx="11" transform="translate(262.69 1000.25)" fill="#d5d6f0"/>
    <rect id="Rectángulo_337772" data-name="Rectángulo 337772" width="149.219" height="47" rx="11" transform="translate(444.581 1000.25)" fill="#d5d6f0"/>
    <rect id="Rectángulo_337773" data-name="Rectángulo 337773" width="149.219" height="47" rx="11" transform="translate(625.8 1000.25)" fill="#d5d6f0"/>
    <path id="Trazado_599190" data-name="Trazado 599190" d="M24.332,14.023H19.723L18.168,17H16.6l6.18-11.375h1.289L26.316,17H24.871ZM20.371,12.8h3.742l-.945-5.3ZM28.363,17l1.281-7.336h-1.3l.2-1.117h1.3l.141-1a3.318,3.318,0,0,1,.984-1.992,2.926,2.926,0,0,1,2.094-.734,4.884,4.884,0,0,1,1.008.134l-.172,1.187a4.636,4.636,0,0,0-.758-.094,1.614,1.614,0,0,0-1.191.456,2.073,2.073,0,0,0-.566,1.211l-.125.833H33l-.2,1.117h-1.75L29.777,17Zm5.25,0,1.273-7.336h-1.3l.2-1.117,1.3-.008.109-.781A3.2,3.2,0,0,1,38.605,4.82a4.73,4.73,0,0,1,1.074.152q.52.137,1.066.324L40.4,6.531a4.425,4.425,0,0,0-1.75-.414A1.834,1.834,0,0,0,36.6,7.867l-.1.68h1.68l-.2,1.117H36.309L35.035,17Zm5.859,0H38.051L39.52,8.547h1.422Zm7.6-7.164-.664-.07a2.42,2.42,0,0,0-2.141,1.227L43.23,17H41.816l1.469-8.453,1.367-.008-.211.984a2.527,2.527,0,0,1,2.117-1.148,2.594,2.594,0,0,1,.672.117Zm2.859-1.3-.18.945a3.305,3.305,0,0,1,2.57-1.094,2.608,2.608,0,0,1,1.363.367,1.8,1.8,0,0,1,.77.992,3.49,3.49,0,0,1,2.8-1.359,2.235,2.235,0,0,1,1.867.852,3.042,3.042,0,0,1,.445,2.2L58.645,17H57.238l.922-5.57a2.943,2.943,0,0,0,0-.742Q58.012,9.625,56.77,9.6a2.136,2.136,0,0,0-1.4.48,2.222,2.222,0,0,0-.809,1.3L53.6,17H52.176l.938-5.562a1.786,1.786,0,0,0-.262-1.336,1.377,1.377,0,0,0-1.129-.484,2.315,2.315,0,0,0-2.1,1.2L48.551,17H47.137l1.469-8.453ZM66,17a1.893,1.893,0,0,1-.055-.445l.023-.445A3.465,3.465,0,0,1,63.5,17.156a2.526,2.526,0,0,1-1.816-.707,2.14,2.14,0,0,1-.637-1.73,2.6,2.6,0,0,1,1.176-2.1,5.005,5.005,0,0,1,2.887-.754l1.477.008.094-.672a1.545,1.545,0,0,0-.293-1.2,1.414,1.414,0,0,0-1.113-.457,2.181,2.181,0,0,0-1.285.355,1.513,1.513,0,0,0-.684.98l-1.422.008a2.266,2.266,0,0,1,.578-1.316,3.363,3.363,0,0,1,1.3-.891,4.215,4.215,0,0,1,1.648-.3,2.8,2.8,0,0,1,2.055.8,2.484,2.484,0,0,1,.617,2.043l-.687,4.188-.039.6a2.949,2.949,0,0,0,.094.852L67.434,17Zm-2.219-1.094a2.466,2.466,0,0,0,1.285-.324,3.254,3.254,0,0,0,1.043-.941l.3-1.742-1.07-.008a4.054,4.054,0,0,0-2.047.422,1.554,1.554,0,0,0-.8,1.2,1.21,1.21,0,0,0,.277.988A1.321,1.321,0,0,0,63.777,15.906Zm9.3-9.406-.359,2.047h1.539l-.2,1.117H72.535l-.883,5.258a1.833,1.833,0,0,0-.008.375.6.6,0,0,0,.664.609A4.05,4.05,0,0,0,73,15.828l-.109,1.18a3.847,3.847,0,0,1-1.031.141,1.476,1.476,0,0,1-1.266-.621,2.4,2.4,0,0,1-.328-1.629l.859-5.234H69.629l.2-1.117h1.492L71.676,6.5ZM76.027,17H74.621L76.09,8.547H77.5ZM77.191,5.461a.774.774,0,0,1,.6.215.8.8,0,0,1,.238.605.834.834,0,0,1-.836.852.779.779,0,0,1-.6-.211.764.764,0,0,1-.227-.594.886.886,0,0,1,.234-.609A.826.826,0,0,1,77.191,5.461Zm4.219,9.563,3.047-6.477h1.492L81.691,17H80.613L78.957,8.547h1.391Zm8.18,2.133a3.048,3.048,0,0,1-2.469-1.164,4.006,4.006,0,0,1-.75-2.9l.039-.336a5.624,5.624,0,0,1,.746-2.3,4.339,4.339,0,0,1,1.5-1.566,3.491,3.491,0,0,1,1.906-.5,2.688,2.688,0,0,1,2.047.867,3.566,3.566,0,0,1,.813,2.266,6.62,6.62,0,0,1-.031,1.016l-.086.648H87.777a2.856,2.856,0,0,0,.379,1.953,1.8,1.8,0,0,0,1.551.836,3.007,3.007,0,0,0,2.313-1.125l.813.688a3.718,3.718,0,0,1-1.371,1.2A3.886,3.886,0,0,1,89.59,17.156Zm.9-7.586a2.066,2.066,0,0,0-1.527.594A4.22,4.22,0,0,0,87.926,12l4.109.008.031-.125a2.313,2.313,0,0,0-.316-1.637A1.488,1.488,0,0,0,90.488,9.57Z" transform="translate(281.69 1013.25)" fill="#12263f"/>
    <path id="Trazado_599191" data-name="Trazado 599191" d="M33.746,17H32.324L28.262,8.172,26.73,17H25.254L27.23,5.625h1.422l4.07,8.867,1.539-8.867h1.461Zm6.086.156a3.048,3.048,0,0,1-2.469-1.164,4.006,4.006,0,0,1-.75-2.9l.039-.336a5.624,5.624,0,0,1,.746-2.3,4.339,4.339,0,0,1,1.5-1.566,3.491,3.491,0,0,1,1.906-.5,2.688,2.688,0,0,1,2.047.867,3.566,3.566,0,0,1,.813,2.266,6.621,6.621,0,0,1-.031,1.016l-.086.648H38.02a2.856,2.856,0,0,0,.379,1.953,1.8,1.8,0,0,0,1.551.836,3.007,3.007,0,0,0,2.313-1.125l.813.688a3.718,3.718,0,0,1-1.371,1.2A3.886,3.886,0,0,1,39.832,17.156Zm.9-7.586a2.066,2.066,0,0,0-1.527.594A4.22,4.22,0,0,0,38.168,12l4.109.008.031-.125a2.313,2.313,0,0,0-.316-1.637A1.488,1.488,0,0,0,40.73,9.57Zm4.156,3.188a6.889,6.889,0,0,1,.746-2.4,3.9,3.9,0,0,1,1.359-1.508,3.151,3.151,0,0,1,1.754-.465,2.6,2.6,0,0,1,2.219,1.109l.281-.945h1.3L51.137,16.82a4.113,4.113,0,0,1-1.312,2.59,3.7,3.7,0,0,1-2.68.926A3.8,3.8,0,0,1,45.5,19.93a3.127,3.127,0,0,1-1.238-1.07l.8-.867a2.536,2.536,0,0,0,3.73.6,2.9,2.9,0,0,0,.926-1.687l.156-.75a3.2,3.2,0,0,1-2.414,1,2.486,2.486,0,0,1-1.371-.426,2.589,2.589,0,0,1-.9-1.164,4.759,4.759,0,0,1-.352-1.7A8.733,8.733,0,0,1,44.887,12.758Zm1.367.8a2.974,2.974,0,0,0,.387,1.728,1.461,1.461,0,0,0,1.238.644,2.561,2.561,0,0,0,2.18-1.241l.664-3.878a1.776,1.776,0,0,0-1.7-1.2,2.194,2.194,0,0,0-1.887.936,4.878,4.878,0,0,0-.871,2.614ZM58.434,17a1.894,1.894,0,0,1-.055-.445l.023-.445a3.465,3.465,0,0,1-2.469,1.047,2.526,2.526,0,0,1-1.816-.707,2.14,2.14,0,0,1-.637-1.73,2.6,2.6,0,0,1,1.176-2.1,5.005,5.005,0,0,1,2.887-.754l1.477.008.094-.672A1.545,1.545,0,0,0,58.82,10a1.414,1.414,0,0,0-1.113-.457,2.181,2.181,0,0,0-1.285.355,1.513,1.513,0,0,0-.684.98l-1.422.008a2.266,2.266,0,0,1,.578-1.316,3.363,3.363,0,0,1,1.3-.891,4.215,4.215,0,0,1,1.648-.3,2.8,2.8,0,0,1,2.055.8,2.484,2.484,0,0,1,.617,2.043l-.687,4.188-.039.6a2.949,2.949,0,0,0,.094.852L59.871,17Zm-2.219-1.094a2.466,2.466,0,0,0,1.285-.324,3.254,3.254,0,0,0,1.043-.941l.3-1.742-1.07-.008a4.054,4.054,0,0,0-2.047.422,1.554,1.554,0,0,0-.8,1.2,1.21,1.21,0,0,0,.277.988A1.321,1.321,0,0,0,56.215,15.906ZM65.52,6.5,65.16,8.547H66.7l-.2,1.117H64.973l-.883,5.258a1.833,1.833,0,0,0-.008.375.6.6,0,0,0,.664.609,4.05,4.05,0,0,0,.688-.078l-.109,1.18a3.847,3.847,0,0,1-1.031.141,1.476,1.476,0,0,1-1.266-.621A2.4,2.4,0,0,1,62.7,14.9l.859-5.234H62.066l.2-1.117h1.492L64.113,6.5ZM68.465,17H67.059l1.469-8.453h1.406ZM69.629,5.461a.774.774,0,0,1,.6.215.8.8,0,0,1,.238.605.834.834,0,0,1-.836.852.779.779,0,0,1-.6-.211.764.764,0,0,1-.227-.594.886.886,0,0,1,.234-.609A.826.826,0,0,1,69.629,5.461Zm4.219,9.563,3.047-6.477h1.492L74.129,17H73.051L71.395,8.547h1.391Zm8.18,2.133a3.048,3.048,0,0,1-2.469-1.164,4.006,4.006,0,0,1-.75-2.9l.039-.336a5.624,5.624,0,0,1,.746-2.3,4.339,4.339,0,0,1,1.5-1.566A3.491,3.491,0,0,1,83,8.391a2.688,2.688,0,0,1,2.047.867,3.566,3.566,0,0,1,.813,2.266,6.62,6.62,0,0,1-.031,1.016l-.086.648H80.215a2.856,2.856,0,0,0,.379,1.953,1.8,1.8,0,0,0,1.551.836,3.007,3.007,0,0,0,2.313-1.125l.813.688a3.718,3.718,0,0,1-1.371,1.2A3.886,3.886,0,0,1,82.027,17.156Zm.9-7.586a2.066,2.066,0,0,0-1.527.594A4.22,4.22,0,0,0,80.363,12l4.109.008.031-.125a2.313,2.313,0,0,0-.316-1.637A1.488,1.488,0,0,0,82.926,9.57Z" transform="translate(463.581 1013.25)" fill="#12263f"/>
    <path id="Trazado_599192" data-name="Trazado 599192" d="M13.637,17H12.176L14.152,5.625h1.461Zm5.313-8.461-.2,1.07A3.333,3.333,0,0,1,21.34,8.391a2.1,2.1,0,0,1,1.766.828,3.217,3.217,0,0,1,.422,2.242L22.605,17H21.191l.93-5.557a2.962,2.962,0,0,0,.008-.71A1.168,1.168,0,0,0,20.84,9.617a2.661,2.661,0,0,0-2.234,1.358L17.559,17H16.145l1.469-8.453ZM28.52,6.5,28.16,8.547H29.7l-.2,1.117H27.973l-.883,5.258a1.833,1.833,0,0,0-.008.375.6.6,0,0,0,.664.609,4.05,4.05,0,0,0,.688-.078l-.109,1.18a3.847,3.847,0,0,1-1.031.141,1.476,1.476,0,0,1-1.266-.621A2.4,2.4,0,0,1,25.7,14.9l.859-5.234H25.066l.2-1.117h1.492L27.113,6.5Zm5.07,10.656a3.048,3.048,0,0,1-2.469-1.164,4.006,4.006,0,0,1-.75-2.9l.039-.336a5.624,5.624,0,0,1,.746-2.3,4.339,4.339,0,0,1,1.5-1.566,3.491,3.491,0,0,1,1.906-.5,2.688,2.688,0,0,1,2.047.867,3.566,3.566,0,0,1,.813,2.266,6.621,6.621,0,0,1-.031,1.016l-.086.648H31.777a2.856,2.856,0,0,0,.379,1.953,1.8,1.8,0,0,0,1.551.836,3.007,3.007,0,0,0,2.313-1.125l.813.688a3.718,3.718,0,0,1-1.371,1.2A3.886,3.886,0,0,1,33.59,17.156Zm.9-7.586a2.066,2.066,0,0,0-1.527.594A4.22,4.22,0,0,0,31.926,12l4.109.008.031-.125a2.313,2.313,0,0,0-.316-1.637A1.488,1.488,0,0,0,34.488,9.57Zm9,.266-.664-.07a2.42,2.42,0,0,0-2.141,1.227L39.645,17H38.23L39.7,8.547l1.367-.008-.211.984a2.527,2.527,0,0,1,2.117-1.148,2.594,2.594,0,0,1,.672.117Zm5.328,0-.664-.07a2.42,2.42,0,0,0-2.141,1.227L44.973,17H43.559l1.469-8.453,1.367-.008-.211.984A2.527,2.527,0,0,1,48.3,8.375a2.594,2.594,0,0,1,.672.117Zm4.609-1.445a3.047,3.047,0,0,1,1.82.578,3.285,3.285,0,0,1,1.121,1.551,4.8,4.8,0,0,1,.246,2.16l-.016.172a5.685,5.685,0,0,1-.734,2.23,4.309,4.309,0,0,1-1.516,1.551,3.7,3.7,0,0,1-2.039.523,3.052,3.052,0,0,1-1.816-.578,3.21,3.21,0,0,1-1.113-1.531,4.931,4.931,0,0,1-.25-2.133,5.76,5.76,0,0,1,.711-2.359,4.409,4.409,0,0,1,1.527-1.621A3.652,3.652,0,0,1,53.426,8.391Zm-2.875,4.531a4.8,4.8,0,0,0,0,1.023,2.507,2.507,0,0,0,.551,1.469,1.653,1.653,0,0,0,1.262.57,2.253,2.253,0,0,0,1.3-.348,2.919,2.919,0,0,0,1-1.121,4.721,4.721,0,0,0,.523-1.664,7.494,7.494,0,0,0,.023-1.211,2.6,2.6,0,0,0-.57-1.492,1.69,1.69,0,0,0-1.266-.578,2.3,2.3,0,0,0-1.859.859,4.245,4.245,0,0,0-.945,2.313Zm7.523-.164a6.889,6.889,0,0,1,.746-2.4A3.9,3.9,0,0,1,60.18,8.848a3.151,3.151,0,0,1,1.754-.465,2.6,2.6,0,0,1,2.219,1.109l.281-.945h1.3L64.324,16.82a4.113,4.113,0,0,1-1.312,2.59,3.7,3.7,0,0,1-2.68.926,3.8,3.8,0,0,1-1.645-.406,3.127,3.127,0,0,1-1.238-1.07l.8-.867a2.536,2.536,0,0,0,3.73.6,2.9,2.9,0,0,0,.926-1.687l.156-.75a3.2,3.2,0,0,1-2.414,1,2.486,2.486,0,0,1-1.371-.426,2.589,2.589,0,0,1-.9-1.164,4.759,4.759,0,0,1-.352-1.7A8.733,8.733,0,0,1,58.074,12.758Zm1.367.8a2.974,2.974,0,0,0,.387,1.728,1.461,1.461,0,0,0,1.238.644,2.561,2.561,0,0,0,2.18-1.241l.664-3.878a1.776,1.776,0,0,0-1.7-1.2,2.194,2.194,0,0,0-1.887.936,4.878,4.878,0,0,0-.871,2.614ZM71.621,17a1.893,1.893,0,0,1-.055-.445l.023-.445a3.465,3.465,0,0,1-2.469,1.047,2.526,2.526,0,0,1-1.816-.707,2.14,2.14,0,0,1-.637-1.73,2.6,2.6,0,0,1,1.176-2.1,5.005,5.005,0,0,1,2.887-.754l1.477.008L72.3,11.2a1.545,1.545,0,0,0-.293-1.2,1.414,1.414,0,0,0-1.113-.457,2.181,2.181,0,0,0-1.285.355,1.513,1.513,0,0,0-.684.98l-1.422.008a2.266,2.266,0,0,1,.578-1.316,3.363,3.363,0,0,1,1.3-.891,4.215,4.215,0,0,1,1.648-.3,2.8,2.8,0,0,1,2.055.8,2.484,2.484,0,0,1,.617,2.043l-.687,4.188-.039.6a2.949,2.949,0,0,0,.094.852L73.059,17ZM69.4,15.906a2.466,2.466,0,0,0,1.285-.324,3.254,3.254,0,0,0,1.043-.941l.3-1.742-1.07-.008a4.054,4.054,0,0,0-2.047.422,1.554,1.554,0,0,0-.8,1.2,1.21,1.21,0,0,0,.277.988A1.321,1.321,0,0,0,69.4,15.906Zm9.3-9.406-.359,2.047h1.539l-.2,1.117H78.16l-.883,5.258a1.833,1.833,0,0,0-.008.375.6.6,0,0,0,.664.609,4.05,4.05,0,0,0,.688-.078l-.109,1.18a3.847,3.847,0,0,1-1.031.141,1.476,1.476,0,0,1-1.266-.621,2.4,2.4,0,0,1-.328-1.629l.859-5.234H75.254l.2-1.117h1.492L77.3,6.5ZM81.652,17H80.246l1.469-8.453h1.406ZM82.816,5.461a.774.774,0,0,1,.6.215.8.8,0,0,1,.238.605.834.834,0,0,1-.836.852.779.779,0,0,1-.6-.211.764.764,0,0,1-.227-.594.886.886,0,0,1,.234-.609A.826.826,0,0,1,82.816,5.461Zm4.219,9.563,3.047-6.477h1.492L87.316,17H86.238L84.582,8.547h1.391Zm8.18,2.133a3.048,3.048,0,0,1-2.469-1.164,4.006,4.006,0,0,1-.75-2.9l.039-.336a5.624,5.624,0,0,1,.746-2.3,4.339,4.339,0,0,1,1.5-1.566,3.491,3.491,0,0,1,1.906-.5,2.688,2.688,0,0,1,2.047.867,3.566,3.566,0,0,1,.813,2.266,6.62,6.62,0,0,1-.031,1.016l-.086.648H93.4a2.856,2.856,0,0,0,.379,1.953,1.8,1.8,0,0,0,1.551.836,3.007,3.007,0,0,0,2.313-1.125l.813.688a3.718,3.718,0,0,1-1.371,1.2A3.886,3.886,0,0,1,95.215,17.156Zm.9-7.586a2.066,2.066,0,0,0-1.527.594A4.22,4.22,0,0,0,93.551,12l4.109.008.031-.125a2.313,2.313,0,0,0-.316-1.637A1.488,1.488,0,0,0,96.113,9.57Z" transform="translate(644.8 1013.25)" fill="#12263f"/>
    <g id="Grupo_962114" data-name="Grupo 962114" transform="translate(0.5)">
      <line id="Línea_1563" data-name="Línea 1563" y2="56" transform="translate(799.333 855.25)" fill="none" stroke="#3c3fa7" stroke-width="3"/>
      <rect id="Rectángulo_38882" data-name="Rectángulo 38882" width="202" height="47" rx="11" transform="translate(698.833 876.75)" fill="#a6bbff"/>
      <path id="Trazado_599184" data-name="Trazado 599184" d="M54.809,14.07q.172-1.25-1.3-1.828L52.16,11.75l-.453-.2q-2.281-1.039-2.133-2.922a3.056,3.056,0,0,1,.648-1.672A3.69,3.69,0,0,1,51.734,5.84a4.849,4.849,0,0,1,2-.371,4,4,0,0,1,1.84.461,2.962,2.962,0,0,1,1.23,1.223,3.333,3.333,0,0,1,.375,1.77l-1.477-.008a2.037,2.037,0,0,0-.469-1.627A2.1,2.1,0,0,0,53.676,6.7a2.91,2.91,0,0,0-1.789.5,1.955,1.955,0,0,0-.828,1.409q-.156,1.166,1.43,1.769l1.164.415.586.25a2.941,2.941,0,0,1,2.039,3.016,3.012,3.012,0,0,1-.648,1.66A3.626,3.626,0,0,1,54.1,16.8a5.266,5.266,0,0,1-2.074.359A4.34,4.34,0,0,1,50.07,16.7a3.193,3.193,0,0,1-1.348-1.23,3.078,3.078,0,0,1-.406-1.773l1.469.008a1.935,1.935,0,0,0,.551,1.613,2.479,2.479,0,0,0,1.754.613,3.131,3.131,0,0,0,1.867-.492A1.916,1.916,0,0,0,54.809,14.07ZM61.223,6.5l-.359,2.047H62.4l-.2,1.117H60.676l-.883,5.258a1.833,1.833,0,0,0-.008.375.6.6,0,0,0,.664.609,4.05,4.05,0,0,0,.688-.078l-.109,1.18A3.847,3.847,0,0,1,60,17.148a1.476,1.476,0,0,1-1.266-.621A2.4,2.4,0,0,1,58.4,14.9l.859-5.234H57.77l.2-1.117h1.492L59.816,6.5Zm6.672,3.336-.664-.07a2.42,2.42,0,0,0-2.141,1.227L64.051,17H62.637l1.469-8.453,1.367-.008-.211.984a2.527,2.527,0,0,1,2.117-1.148,2.594,2.594,0,0,1,.672.117Zm5.438,6.328a3.265,3.265,0,0,1-2.523.992,2.107,2.107,0,0,1-1.793-.867,3.317,3.317,0,0,1-.434-2.281l.906-5.461H70.9l-.914,5.484a3.643,3.643,0,0,0-.016.672,1.4,1.4,0,0,0,.336.883,1.146,1.146,0,0,0,.828.344A2.537,2.537,0,0,0,73.48,14.7l1.063-6.156h1.414L74.488,17H73.152Zm6.836-.18a2.145,2.145,0,0,0,1.367-.441,2.1,2.1,0,0,0,.8-1.2l1.336-.008a3.014,3.014,0,0,1-.637,1.453,3.68,3.68,0,0,1-2.926,1.367,3.017,3.017,0,0,1-1.785-.551,3.084,3.084,0,0,1-1.074-1.492,4.972,4.972,0,0,1-.234-2.152l.039-.391a5.605,5.605,0,0,1,.711-2.18,4.11,4.11,0,0,1,1.469-1.5,3.648,3.648,0,0,1,2-.5,2.857,2.857,0,0,1,2.125.891,3.08,3.08,0,0,1,.8,2.18l-1.32-.008a2.029,2.029,0,0,0-.461-1.34,1.607,1.607,0,0,0-1.2-.543,2.254,2.254,0,0,0-1.832.82,4.3,4.3,0,0,0-.91,2.359l-.023.2a6.776,6.776,0,0,0-.016,1.031A2.355,2.355,0,0,0,78.9,15.43,1.656,1.656,0,0,0,80.168,15.984ZM88.535,6.5l-.359,2.047h1.539l-.2,1.117H87.988l-.883,5.258a1.833,1.833,0,0,0-.008.375.6.6,0,0,0,.664.609,4.05,4.05,0,0,0,.688-.078l-.109,1.18a3.847,3.847,0,0,1-1.031.141,1.476,1.476,0,0,1-1.266-.621,2.4,2.4,0,0,1-.328-1.629l.859-5.234H85.082l.2-1.117H86.77L87.129,6.5Zm6.781,9.664a3.265,3.265,0,0,1-2.523.992A2.107,2.107,0,0,1,91,16.289a3.317,3.317,0,0,1-.434-2.281l.906-5.461h1.414l-.914,5.484a3.643,3.643,0,0,0-.016.672,1.4,1.4,0,0,0,.336.883,1.146,1.146,0,0,0,.828.344A2.537,2.537,0,0,0,95.465,14.7l1.063-6.156h1.414L96.473,17H95.137Zm8.523-6.328-.664-.07a2.42,2.42,0,0,0-2.141,1.227L100,17H98.582l1.469-8.453,1.367-.008-.211.984a2.527,2.527,0,0,1,2.117-1.148,2.594,2.594,0,0,1,.672.117Zm3.727,7.32a3.048,3.048,0,0,1-2.469-1.164,4.006,4.006,0,0,1-.75-2.9l.039-.336a5.624,5.624,0,0,1,.746-2.3,4.339,4.339,0,0,1,1.5-1.566,3.491,3.491,0,0,1,1.906-.5,2.688,2.688,0,0,1,2.047.867,3.566,3.566,0,0,1,.813,2.266,6.62,6.62,0,0,1-.031,1.016l-.086.648h-5.523a2.856,2.856,0,0,0,.379,1.953,1.8,1.8,0,0,0,1.551.836A3.007,3.007,0,0,0,110,14.852l.813.688a3.718,3.718,0,0,1-1.371,1.2A3.886,3.886,0,0,1,107.566,17.156Zm.9-7.586a2.066,2.066,0,0,0-1.527.594A4.22,4.22,0,0,0,105.9,12l4.109.008.031-.125a2.313,2.313,0,0,0-.316-1.637A1.488,1.488,0,0,0,108.465,9.57Zm8.977,5.141q.117-.875-.961-1.234l-1.469-.43q-1.859-.641-1.8-2.125a2.341,2.341,0,0,1,1.02-1.832,3.631,3.631,0,0,1,2.27-.7,3.027,3.027,0,0,1,2.082.746,2.363,2.363,0,0,1,.77,1.9l-1.406-.008a1.319,1.319,0,0,0-.4-1.031,1.576,1.576,0,0,0-1.1-.414,2.059,2.059,0,0,0-1.266.359,1.316,1.316,0,0,0-.57.922q-.1.734.9,1.07l.711.2a4.577,4.577,0,0,1,2.063.977,1.865,1.865,0,0,1,.563,1.492,2.37,2.37,0,0,1-.516,1.375,2.948,2.948,0,0,1-1.25.895,4.18,4.18,0,0,1-1.664.285,3.3,3.3,0,0,1-2.219-.785,2.427,2.427,0,0,1-.844-1.98l1.414.008a1.5,1.5,0,0,0,.453,1.141,1.732,1.732,0,0,0,1.242.43,2.436,2.436,0,0,0,1.336-.324A1.247,1.247,0,0,0,117.441,14.711Z" transform="translate(715.333 889.75)" fill="#12263f"/>
    </g>
    <path id="Trazado_189995" data-name="Trazado 189995" d="M-11391.387-9316v174h32.054" transform="translate(12398.333 10230.75)" fill="none" stroke="#3c3fa7" stroke-width="3"/>
    <path id="Trazado_189999" data-name="Trazado 189999" d="M-11391.387-9286v83.786h32.054" transform="translate(12206.333 10290.964)" fill="none" stroke="#3c3fa7" stroke-width="3"/>
    <path id="Trazado_189997" data-name="Trazado 189997" d="M-11391.387-9306v102h32.054" transform="translate(12640.113 10227.75)" fill="none" stroke="#3c3fa7" stroke-width="3"/>
    <rect id="Rectángulo_337775" data-name="Rectángulo 337775" width="149.219" height="47" rx="11" transform="translate(1029.001 1000.25)" fill="#d5d6f0"/>
    <rect id="Rectángulo_337777" data-name="Rectángulo 337777" width="149.219" height="47" rx="11" transform="translate(1029.001 1065.25)" fill="#d5d6f0"/>
    <rect id="Rectángulo_337776" data-name="Rectángulo 337776" width="149.219" height="47" rx="11" transform="translate(1270.781 1000.25)" fill="#d5d6f0"/>
    <path id="Trazado_599194" data-name="Trazado 599194" d="M6.258,12.547,5.484,17H4.016L5.992,5.625l3.8.008a3.713,3.713,0,0,1,2.711.934,2.937,2.937,0,0,1,.82,2.48,3.541,3.541,0,0,1-1.3,2.57,4.718,4.718,0,0,1-3.059.938Zm.211-1.227L9,11.328a3.079,3.079,0,0,0,1.961-.6,2.407,2.407,0,0,0,.9-1.672,1.886,1.886,0,0,0-.4-1.559,2.005,2.005,0,0,0-1.523-.629l-2.7-.008ZM18.922,9.836l-.664-.07a2.42,2.42,0,0,0-2.141,1.227L15.078,17H13.664l1.469-8.453L16.5,8.539l-.211.984a2.527,2.527,0,0,1,2.117-1.148,2.594,2.594,0,0,1,.672.117Zm3.727,7.32a3.048,3.048,0,0,1-2.469-1.164,4.006,4.006,0,0,1-.75-2.9l.039-.336a5.624,5.624,0,0,1,.746-2.3,4.339,4.339,0,0,1,1.5-1.566,3.491,3.491,0,0,1,1.906-.5,2.688,2.688,0,0,1,2.047.867,3.566,3.566,0,0,1,.813,2.266,6.621,6.621,0,0,1-.031,1.016l-.086.648H20.836a2.856,2.856,0,0,0,.379,1.953,1.8,1.8,0,0,0,1.551.836,3.007,3.007,0,0,0,2.313-1.125l.813.688a3.718,3.718,0,0,1-1.371,1.2A3.886,3.886,0,0,1,22.648,17.156Zm.9-7.586a2.066,2.066,0,0,0-1.527.594A4.22,4.22,0,0,0,20.984,12l4.109.008.031-.125a2.313,2.313,0,0,0-.316-1.637A1.488,1.488,0,0,0,23.547,9.57Zm8.977,5.141q.117-.875-.961-1.234l-1.469-.43q-1.859-.641-1.8-2.125a2.341,2.341,0,0,1,1.02-1.832,3.631,3.631,0,0,1,2.27-.7,3.027,3.027,0,0,1,2.082.746,2.363,2.363,0,0,1,.77,1.9l-1.406-.008a1.319,1.319,0,0,0-.4-1.031,1.576,1.576,0,0,0-1.1-.414,2.059,2.059,0,0,0-1.266.359,1.316,1.316,0,0,0-.57.922q-.1.734.9,1.07l.711.2a4.577,4.577,0,0,1,2.063.977A1.865,1.865,0,0,1,33.93,14.6a2.37,2.37,0,0,1-.516,1.375,2.948,2.948,0,0,1-1.25.895,4.18,4.18,0,0,1-1.664.285,3.3,3.3,0,0,1-2.219-.785,2.427,2.427,0,0,1-.844-1.98l1.414.008a1.5,1.5,0,0,0,.453,1.141,1.732,1.732,0,0,0,1.242.43,2.436,2.436,0,0,0,1.336-.324A1.247,1.247,0,0,0,32.523,14.711Zm6.5,2.445a3.048,3.048,0,0,1-2.469-1.164,4.006,4.006,0,0,1-.75-2.9l.039-.336a5.624,5.624,0,0,1,.746-2.3,4.339,4.339,0,0,1,1.5-1.566,3.491,3.491,0,0,1,1.906-.5,2.688,2.688,0,0,1,2.047.867,3.566,3.566,0,0,1,.813,2.266,6.621,6.621,0,0,1-.031,1.016l-.086.648H37.211a2.856,2.856,0,0,0,.379,1.953,1.8,1.8,0,0,0,1.551.836,3.007,3.007,0,0,0,2.313-1.125l.813.688a3.718,3.718,0,0,1-1.371,1.2A3.886,3.886,0,0,1,39.023,17.156Zm.9-7.586a2.066,2.066,0,0,0-1.527.594A4.22,4.22,0,0,0,37.359,12l4.109.008.031-.125a2.313,2.313,0,0,0-.316-1.637A1.488,1.488,0,0,0,39.922,9.57Zm6.547-1.031-.2,1.07a3.333,3.333,0,0,1,2.594-1.219,2.1,2.1,0,0,1,1.766.828,3.217,3.217,0,0,1,.422,2.242L50.125,17H48.711l.93-5.557a2.962,2.962,0,0,0,.008-.71,1.168,1.168,0,0,0-1.289-1.116,2.661,2.661,0,0,0-2.234,1.358L45.078,17H43.664l1.469-8.453ZM56.039,6.5,55.68,8.547h1.539l-.2,1.117H55.492l-.883,5.258a1.833,1.833,0,0,0-.008.375.6.6,0,0,0,.664.609,4.05,4.05,0,0,0,.688-.078l-.109,1.18a3.847,3.847,0,0,1-1.031.141,1.476,1.476,0,0,1-1.266-.621,2.4,2.4,0,0,1-.328-1.629l.859-5.234H52.586l.2-1.117h1.492L54.633,6.5Zm10.57,8.211q.117-.875-.961-1.234l-1.469-.43q-1.859-.641-1.8-2.125A2.341,2.341,0,0,1,63.4,9.09a3.631,3.631,0,0,1,2.27-.7,3.027,3.027,0,0,1,2.082.746,2.363,2.363,0,0,1,.77,1.9l-1.406-.008a1.319,1.319,0,0,0-.4-1.031,1.576,1.576,0,0,0-1.1-.414,2.059,2.059,0,0,0-1.266.359,1.316,1.316,0,0,0-.57.922q-.1.734.9,1.07l.711.2a4.577,4.577,0,0,1,2.063.977,1.865,1.865,0,0,1,.563,1.492,2.37,2.37,0,0,1-.516,1.375,2.948,2.948,0,0,1-1.25.895,4.18,4.18,0,0,1-1.664.285,3.3,3.3,0,0,1-2.219-.785,2.427,2.427,0,0,1-.844-1.98l1.414.008a1.5,1.5,0,0,0,.453,1.141,1.732,1.732,0,0,0,1.242.43,2.436,2.436,0,0,0,1.336-.324A1.247,1.247,0,0,0,66.609,14.711ZM70.984,17H69.578l1.469-8.453h1.406ZM72.148,5.461a.774.774,0,0,1,.6.215.8.8,0,0,1,.238.605.834.834,0,0,1-.836.852.779.779,0,0,1-.6-.211.764.764,0,0,1-.227-.594.886.886,0,0,1,.234-.609A.826.826,0,0,1,72.148,5.461Zm3.938,3.078-.18.945a3.305,3.305,0,0,1,2.57-1.094,2.608,2.608,0,0,1,1.363.367,1.8,1.8,0,0,1,.77.992,3.49,3.49,0,0,1,2.8-1.359,2.235,2.235,0,0,1,1.867.852,3.042,3.042,0,0,1,.445,2.2L84.8,17H83.391l.922-5.57a2.943,2.943,0,0,0,0-.742Q84.164,9.625,82.922,9.6a2.136,2.136,0,0,0-1.4.48,2.222,2.222,0,0,0-.809,1.3L79.75,17H78.328l.938-5.562A1.786,1.786,0,0,0,79,10.1a1.377,1.377,0,0,0-1.129-.484,2.315,2.315,0,0,0-2.1,1.2L74.7,17H73.289l1.469-8.453Zm18.547,4.273a6.706,6.706,0,0,1-.7,2.32A3.949,3.949,0,0,1,92.6,16.676a3.058,3.058,0,0,1-1.766.488,2.815,2.815,0,0,1-2.25-.992l-.758,4.078H86.414l2.031-11.7,1.281-.008-.156.945a3.207,3.207,0,0,1,2.508-1.094,2.358,2.358,0,0,1,1.9.9A3.954,3.954,0,0,1,94.7,11.68a8.412,8.412,0,0,1-.039.969Zm-1.391-.16L93.281,12a2.969,2.969,0,0,0-.434-1.744,1.525,1.525,0,0,0-1.254-.636,2.508,2.508,0,0,0-2.117,1.163l-.711,4.05a1.769,1.769,0,0,0,1.711,1.155,2.224,2.224,0,0,0,1.793-.823A4.777,4.777,0,0,0,93.242,12.652ZM97.3,17H95.891L97.969,5h1.414Zm5.969.156a3.048,3.048,0,0,1-2.469-1.164,4.006,4.006,0,0,1-.75-2.9l.039-.336a5.624,5.624,0,0,1,.746-2.3,4.339,4.339,0,0,1,1.5-1.566,3.491,3.491,0,0,1,1.906-.5,2.688,2.688,0,0,1,2.047.867,3.566,3.566,0,0,1,.813,2.266,6.62,6.62,0,0,1-.031,1.016l-.086.648h-5.523a2.856,2.856,0,0,0,.379,1.953,1.8,1.8,0,0,0,1.551.836,3.007,3.007,0,0,0,2.313-1.125l.813.688a3.718,3.718,0,0,1-1.371,1.2A3.886,3.886,0,0,1,103.266,17.156Zm.9-7.586a2.066,2.066,0,0,0-1.527.594A4.22,4.22,0,0,0,101.6,12l4.109.008.031-.125a2.313,2.313,0,0,0-.316-1.637A1.488,1.488,0,0,0,104.164,9.57Z" transform="translate(1048.001 1013.25)" fill="#12263f"/>
    <path id="Trazado_599197" data-name="Trazado 599197" d="M17.32,12.547,16.547,17H15.078L17.055,5.625l3.8.008a3.713,3.713,0,0,1,2.711.934,2.937,2.937,0,0,1,.82,2.48,3.541,3.541,0,0,1-1.3,2.57,4.718,4.718,0,0,1-3.059.938Zm.211-1.227,2.531.008a3.079,3.079,0,0,0,1.961-.6,2.407,2.407,0,0,0,.9-1.672,1.886,1.886,0,0,0-.4-1.559A2.005,2.005,0,0,0,21,6.867l-2.7-.008ZM29.813,17a1.893,1.893,0,0,1-.055-.445l.023-.445a3.465,3.465,0,0,1-2.469,1.047,2.526,2.526,0,0,1-1.816-.707,2.14,2.14,0,0,1-.637-1.73,2.6,2.6,0,0,1,1.176-2.1,5.005,5.005,0,0,1,2.887-.754l1.477.008.094-.672A1.545,1.545,0,0,0,30.2,10a1.414,1.414,0,0,0-1.113-.457A2.181,2.181,0,0,0,27.8,9.9a1.513,1.513,0,0,0-.684.98l-1.422.008a2.266,2.266,0,0,1,.578-1.316,3.363,3.363,0,0,1,1.3-.891,4.215,4.215,0,0,1,1.648-.3,2.8,2.8,0,0,1,2.055.8,2.484,2.484,0,0,1,.617,2.043l-.687,4.188-.039.6a2.949,2.949,0,0,0,.094.852L31.25,17Zm-2.219-1.094a2.466,2.466,0,0,0,1.285-.324,3.254,3.254,0,0,0,1.043-.941l.3-1.742-1.07-.008a4.054,4.054,0,0,0-2.047.422,1.554,1.554,0,0,0-.8,1.2,1.21,1.21,0,0,0,.277.988A1.321,1.321,0,0,0,27.594,15.906Zm10.8-1.2q.117-.875-.961-1.234l-1.469-.43q-1.859-.641-1.8-2.125a2.341,2.341,0,0,1,1.02-1.832,3.631,3.631,0,0,1,2.27-.7,3.027,3.027,0,0,1,2.082.746,2.363,2.363,0,0,1,.77,1.9l-1.406-.008a1.319,1.319,0,0,0-.4-1.031,1.576,1.576,0,0,0-1.1-.414,2.059,2.059,0,0,0-1.266.359,1.316,1.316,0,0,0-.57.922q-.1.734.9,1.07l.711.2a4.577,4.577,0,0,1,2.063.977A1.865,1.865,0,0,1,39.8,14.6a2.37,2.37,0,0,1-.516,1.375,2.948,2.948,0,0,1-1.25.895,4.18,4.18,0,0,1-1.664.285,3.3,3.3,0,0,1-2.219-.785,2.427,2.427,0,0,1-.844-1.98l1.414.008a1.5,1.5,0,0,0,.453,1.141,1.732,1.732,0,0,0,1.242.43,2.436,2.436,0,0,0,1.336-.324A1.247,1.247,0,0,0,38.4,14.711ZM44.977,6.5l-.359,2.047h1.539l-.2,1.117H44.43l-.883,5.258a1.833,1.833,0,0,0-.008.375.6.6,0,0,0,.664.609,4.05,4.05,0,0,0,.688-.078l-.109,1.18a3.847,3.847,0,0,1-1.031.141,1.476,1.476,0,0,1-1.266-.621,2.4,2.4,0,0,1-.328-1.629l.859-5.234H41.523l.2-1.117h1.492L43.57,6.5Zm10.57,8.211q.117-.875-.961-1.234l-1.469-.43q-1.859-.641-1.8-2.125A2.341,2.341,0,0,1,52.34,9.09a3.631,3.631,0,0,1,2.27-.7,3.027,3.027,0,0,1,2.082.746,2.363,2.363,0,0,1,.77,1.9l-1.406-.008a1.319,1.319,0,0,0-.4-1.031,1.576,1.576,0,0,0-1.1-.414,2.059,2.059,0,0,0-1.266.359,1.316,1.316,0,0,0-.57.922q-.1.734.9,1.07l.711.2a4.577,4.577,0,0,1,2.063.977,1.865,1.865,0,0,1,.563,1.492,2.37,2.37,0,0,1-.516,1.375,2.948,2.948,0,0,1-1.25.895,4.18,4.18,0,0,1-1.664.285,3.3,3.3,0,0,1-2.219-.785,2.427,2.427,0,0,1-.844-1.98l1.414.008a1.5,1.5,0,0,0,.453,1.141,1.732,1.732,0,0,0,1.242.43,2.436,2.436,0,0,0,1.336-.324A1.247,1.247,0,0,0,55.547,14.711ZM59.922,17H58.516l1.469-8.453h1.406ZM61.086,5.461a.774.774,0,0,1,.6.215.8.8,0,0,1,.238.605.834.834,0,0,1-.836.852.779.779,0,0,1-.6-.211.764.764,0,0,1-.227-.594.886.886,0,0,1,.234-.609A.826.826,0,0,1,61.086,5.461Zm3.938,3.078-.18.945a3.305,3.305,0,0,1,2.57-1.094,2.608,2.608,0,0,1,1.363.367,1.8,1.8,0,0,1,.77.992,3.49,3.49,0,0,1,2.8-1.359,2.235,2.235,0,0,1,1.867.852,3.042,3.042,0,0,1,.445,2.2L73.734,17H72.328l.922-5.57a2.943,2.943,0,0,0,0-.742Q73.1,9.625,71.859,9.6a2.136,2.136,0,0,0-1.4.48,2.222,2.222,0,0,0-.809,1.3L68.688,17H67.266l.938-5.562a1.786,1.786,0,0,0-.262-1.336,1.377,1.377,0,0,0-1.129-.484,2.315,2.315,0,0,0-2.1,1.2L63.641,17H62.227L63.7,8.547ZM83.57,12.813a6.706,6.706,0,0,1-.7,2.32,3.949,3.949,0,0,1-1.336,1.543,3.058,3.058,0,0,1-1.766.488,2.815,2.815,0,0,1-2.25-.992l-.758,4.078H75.352l2.031-11.7,1.281-.008-.156.945a3.207,3.207,0,0,1,2.508-1.094,2.358,2.358,0,0,1,1.9.9,3.954,3.954,0,0,1,.719,2.391,8.412,8.412,0,0,1-.039.969Zm-1.391-.16L82.219,12a2.969,2.969,0,0,0-.434-1.744,1.525,1.525,0,0,0-1.254-.636,2.508,2.508,0,0,0-2.117,1.163L77.7,14.83a1.769,1.769,0,0,0,1.711,1.155,2.224,2.224,0,0,0,1.793-.823A4.777,4.777,0,0,0,82.18,12.652ZM86.234,17H84.828L86.906,5H88.32Zm5.969.156a3.048,3.048,0,0,1-2.469-1.164,4.006,4.006,0,0,1-.75-2.9l.039-.336a5.624,5.624,0,0,1,.746-2.3,4.339,4.339,0,0,1,1.5-1.566,3.491,3.491,0,0,1,1.906-.5,2.688,2.688,0,0,1,2.047.867,3.566,3.566,0,0,1,.813,2.266A6.62,6.62,0,0,1,96,12.539l-.086.648H90.391a2.856,2.856,0,0,0,.379,1.953,1.8,1.8,0,0,0,1.551.836,3.007,3.007,0,0,0,2.313-1.125l.813.688a3.718,3.718,0,0,1-1.371,1.2A3.886,3.886,0,0,1,92.2,17.156Zm.9-7.586a2.066,2.066,0,0,0-1.527.594A4.22,4.22,0,0,0,90.539,12l4.109.008.031-.125a2.313,2.313,0,0,0-.316-1.637A1.488,1.488,0,0,0,93.1,9.57Z" transform="translate(1048.001 1078.25)" fill="#12263f"/>
    <path id="Trazado_599195" data-name="Trazado 599195" d="M30.359,12.406H27.734L26.938,17H25.461L27.438,5.625l3.422.008a3.814,3.814,0,0,1,2.727.907,2.83,2.83,0,0,1,.789,2.448,3.241,3.241,0,0,1-.777,1.885,4.247,4.247,0,0,1-1.84,1.228l1.766,4.8-.008.1H31.953Zm-2.414-1.234,2.156.008a3.012,3.012,0,0,0,1.9-.6,2.326,2.326,0,0,0,.906-1.6,1.837,1.837,0,0,0-.391-1.531,2.087,2.087,0,0,0-1.547-.586L28.7,6.859ZM39.578,8.391a3.047,3.047,0,0,1,1.82.578A3.285,3.285,0,0,1,42.52,10.52a4.8,4.8,0,0,1,.246,2.16l-.016.172a5.685,5.685,0,0,1-.734,2.23A4.309,4.309,0,0,1,40.5,16.633a3.7,3.7,0,0,1-2.039.523,3.052,3.052,0,0,1-1.816-.578,3.21,3.21,0,0,1-1.113-1.531,4.931,4.931,0,0,1-.25-2.133,5.76,5.76,0,0,1,.711-2.359A4.409,4.409,0,0,1,37.52,8.934,3.652,3.652,0,0,1,39.578,8.391ZM36.7,12.922a4.8,4.8,0,0,0,0,1.023,2.507,2.507,0,0,0,.551,1.469,1.653,1.653,0,0,0,1.262.57,2.253,2.253,0,0,0,1.3-.348,2.919,2.919,0,0,0,1-1.121,4.721,4.721,0,0,0,.523-1.664,7.494,7.494,0,0,0,.023-1.211,2.6,2.6,0,0,0-.57-1.492,1.69,1.69,0,0,0-1.266-.578,2.3,2.3,0,0,0-1.859.859,4.245,4.245,0,0,0-.945,2.313ZM49.18,16.164a3.265,3.265,0,0,1-2.523.992,2.107,2.107,0,0,1-1.793-.867,3.317,3.317,0,0,1-.434-2.281l.906-5.461H46.75l-.914,5.484a3.642,3.642,0,0,0-.016.672,1.4,1.4,0,0,0,.336.883,1.146,1.146,0,0,0,.828.344A2.537,2.537,0,0,0,49.328,14.7l1.063-6.156H51.8L50.336,17H49Zm7-9.664L55.82,8.547h1.539l-.2,1.117H55.633l-.883,5.258a1.833,1.833,0,0,0-.008.375.6.6,0,0,0,.664.609,4.05,4.05,0,0,0,.688-.078l-.109,1.18a3.847,3.847,0,0,1-1.031.141,1.476,1.476,0,0,1-1.266-.621,2.4,2.4,0,0,1-.328-1.629l.859-5.234H52.727l.2-1.117h1.492L54.773,6.5ZM59.125,17H57.719l1.469-8.453h1.406ZM60.289,5.461a.774.774,0,0,1,.6.215.8.8,0,0,1,.238.605.834.834,0,0,1-.836.852.779.779,0,0,1-.6-.211.764.764,0,0,1-.227-.594.886.886,0,0,1,.234-.609A.826.826,0,0,1,60.289,5.461Zm3.953,3.078-.2,1.07a3.333,3.333,0,0,1,2.594-1.219,2.1,2.1,0,0,1,1.766.828,3.217,3.217,0,0,1,.422,2.242L67.9,17H66.484l.93-5.557a2.962,2.962,0,0,0,.008-.71,1.168,1.168,0,0,0-1.289-1.116A2.661,2.661,0,0,0,63.9,10.975L62.852,17H61.438l1.469-8.453Zm9.492,8.617a3.048,3.048,0,0,1-2.469-1.164,4.006,4.006,0,0,1-.75-2.9l.039-.336a5.624,5.624,0,0,1,.746-2.3,4.339,4.339,0,0,1,1.5-1.566,3.491,3.491,0,0,1,1.906-.5,2.688,2.688,0,0,1,2.047.867,3.566,3.566,0,0,1,.813,2.266,6.62,6.62,0,0,1-.031,1.016l-.086.648H71.922a2.856,2.856,0,0,0,.379,1.953,1.8,1.8,0,0,0,1.551.836,3.007,3.007,0,0,0,2.313-1.125l.813.688a3.718,3.718,0,0,1-1.371,1.2A3.886,3.886,0,0,1,73.734,17.156Zm.9-7.586a2.066,2.066,0,0,0-1.527.594A4.22,4.22,0,0,0,72.07,12l4.109.008.031-.125a2.313,2.313,0,0,0-.316-1.637A1.488,1.488,0,0,0,74.633,9.57Zm8.977,5.141q.117-.875-.961-1.234l-1.469-.43q-1.859-.641-1.8-2.125A2.341,2.341,0,0,1,80.4,9.09a3.631,3.631,0,0,1,2.27-.7,3.027,3.027,0,0,1,2.082.746,2.363,2.363,0,0,1,.77,1.9l-1.406-.008a1.319,1.319,0,0,0-.4-1.031,1.576,1.576,0,0,0-1.1-.414,2.059,2.059,0,0,0-1.266.359,1.316,1.316,0,0,0-.57.922q-.1.734.9,1.07l.711.2a4.577,4.577,0,0,1,2.063.977,1.865,1.865,0,0,1,.563,1.492,2.37,2.37,0,0,1-.516,1.375,2.948,2.948,0,0,1-1.25.895,4.18,4.18,0,0,1-1.664.285,3.3,3.3,0,0,1-2.219-.785,2.427,2.427,0,0,1-.844-1.98l1.414.008a1.5,1.5,0,0,0,.453,1.141,1.732,1.732,0,0,0,1.242.43,2.436,2.436,0,0,0,1.336-.324A1.247,1.247,0,0,0,83.609,14.711Z" transform="translate(1289.781 1013.25)" fill="#12263f"/>
    <path id="Trazado_189996" data-name="Trazado 189996" d="M-12105.959-9435.341v-39.011h1041.334v42.668" transform="translate(12386.958 10329.602)" fill="none" stroke="#3c3fa7" stroke-width="3"/>
    <rect id="Rectángulo_38460" data-name="Rectángulo 38460" width="202" height="47" rx="11" transform="translate(1221.333 876.75)" fill="#a6bbff"/>
    <path id="Trazado_599189" data-name="Trazado 599189" d="M51.082,17H49.621L51.6,5.625h1.461Zm11.8-.836a3.265,3.265,0,0,1-2.523.992,2.107,2.107,0,0,1-1.793-.867,3.317,3.317,0,0,1-.434-2.281l.906-5.461h1.414l-.914,5.484a3.642,3.642,0,0,0-.016.672,1.4,1.4,0,0,0,.336.883,1.146,1.146,0,0,0,.828.344A2.537,2.537,0,0,0,63.027,14.7L64.09,8.547H65.5L64.035,17H62.7Zm8.5-1.453q.117-.875-.961-1.234l-1.469-.43q-1.859-.641-1.8-2.125a2.341,2.341,0,0,1,1.02-1.832,3.631,3.631,0,0,1,2.27-.7,3.027,3.027,0,0,1,2.082.746,2.363,2.363,0,0,1,.77,1.9l-1.406-.008a1.319,1.319,0,0,0-.4-1.031,1.576,1.576,0,0,0-1.1-.414,2.059,2.059,0,0,0-1.266.359,1.316,1.316,0,0,0-.57.922q-.1.734.9,1.07l.711.2a4.577,4.577,0,0,1,2.063.977,1.865,1.865,0,0,1,.563,1.492,2.37,2.37,0,0,1-.516,1.375,2.948,2.948,0,0,1-1.25.895,4.18,4.18,0,0,1-1.664.285,3.3,3.3,0,0,1-2.219-.785,2.427,2.427,0,0,1-.844-1.98l1.414.008a1.5,1.5,0,0,0,.453,1.141,1.732,1.732,0,0,0,1.242.43,2.436,2.436,0,0,0,1.336-.324A1.247,1.247,0,0,0,71.379,14.711Zm6.5,2.445a3.048,3.048,0,0,1-2.469-1.164,4.006,4.006,0,0,1-.75-2.9l.039-.336a5.624,5.624,0,0,1,.746-2.3,4.339,4.339,0,0,1,1.5-1.566,3.491,3.491,0,0,1,1.906-.5,2.688,2.688,0,0,1,2.047.867,3.566,3.566,0,0,1,.813,2.266,6.62,6.62,0,0,1-.031,1.016l-.086.648H76.066a2.856,2.856,0,0,0,.379,1.953A1.8,1.8,0,0,0,78,15.977a3.007,3.007,0,0,0,2.313-1.125l.813.688a3.718,3.718,0,0,1-1.371,1.2A3.886,3.886,0,0,1,77.879,17.156Zm.9-7.586a2.066,2.066,0,0,0-1.527.594A4.22,4.22,0,0,0,76.215,12l4.109.008.031-.125a2.313,2.313,0,0,0-.316-1.637A1.488,1.488,0,0,0,78.777,9.57Zm4.148,3.188a6.578,6.578,0,0,1,.711-2.328A4.03,4.03,0,0,1,85,8.875a3.127,3.127,0,0,1,1.789-.492,2.64,2.64,0,0,1,2.172,1.031L89.777,5h1.414L89.113,17H87.824l.148-.906A3.116,3.116,0,0,1,85.5,17.156a2.335,2.335,0,0,1-1.867-.918,4,4,0,0,1-.75-2.379A7.6,7.6,0,0,1,82.926,12.758Zm1.359.808a2.929,2.929,0,0,0,.4,1.732,1.437,1.437,0,0,0,1.234.632A2.554,2.554,0,0,0,88.1,14.7l.672-3.9a1.754,1.754,0,0,0-1.7-1.186,2.143,2.143,0,0,0-1.473.5,3.256,3.256,0,0,0-.969,1.475A6.082,6.082,0,0,0,84.285,13.565ZM99,6.5l-.359,2.047h1.539l-.2,1.117H98.457l-.883,5.258a1.833,1.833,0,0,0-.008.375.6.6,0,0,0,.664.609,4.05,4.05,0,0,0,.688-.078l-.109,1.18a3.847,3.847,0,0,1-1.031.141,1.476,1.476,0,0,1-1.266-.621,2.4,2.4,0,0,1-.328-1.629l.859-5.234H95.551l.2-1.117h1.492L97.6,6.5Zm5.953,1.891a3.047,3.047,0,0,1,1.82.578A3.285,3.285,0,0,1,107.9,10.52a4.8,4.8,0,0,1,.246,2.16l-.016.172a5.685,5.685,0,0,1-.734,2.23,4.309,4.309,0,0,1-1.516,1.551,3.7,3.7,0,0,1-2.039.523,3.052,3.052,0,0,1-1.816-.578,3.21,3.21,0,0,1-1.113-1.531,4.931,4.931,0,0,1-.25-2.133,5.76,5.76,0,0,1,.711-2.359A4.409,4.409,0,0,1,102.9,8.934,3.652,3.652,0,0,1,104.957,8.391Zm-2.875,4.531a4.8,4.8,0,0,0,0,1.023,2.507,2.507,0,0,0,.551,1.469,1.653,1.653,0,0,0,1.262.57,2.253,2.253,0,0,0,1.3-.348,2.919,2.919,0,0,0,1-1.121,4.721,4.721,0,0,0,.523-1.664,7.5,7.5,0,0,0,.023-1.211,2.6,2.6,0,0,0-.57-1.492A1.69,1.69,0,0,0,104.9,9.57a2.3,2.3,0,0,0-1.859.859,4.245,4.245,0,0,0-.945,2.313Z" transform="translate(1245.333 889.75)" fill="#12263f"/>
    <rect id="Rectángulo_44740" data-name="Rectángulo 44740" width="202.84" height="47" rx="11" transform="translate(180 876.75)" fill="#a6bbff"/>
    <path id="Trazado_599186" data-name="Trazado 599186" d="M30.426,12.406H27.8L27,17H25.527L27.5,5.625l3.422.008a3.814,3.814,0,0,1,2.727.907,2.83,2.83,0,0,1,.789,2.448,3.241,3.241,0,0,1-.777,1.885,4.247,4.247,0,0,1-1.84,1.228l1.766,4.8-.008.1H32.02Zm-2.414-1.234,2.156.008a3.012,3.012,0,0,0,1.9-.6,2.326,2.326,0,0,0,.906-1.6,1.837,1.837,0,0,0-.391-1.531,2.087,2.087,0,0,0-1.547-.586l-2.273-.008Zm10.594,5.984a3.048,3.048,0,0,1-2.469-1.164,4.006,4.006,0,0,1-.75-2.9l.039-.336a5.624,5.624,0,0,1,.746-2.3,4.339,4.339,0,0,1,1.5-1.566,3.491,3.491,0,0,1,1.906-.5,2.688,2.688,0,0,1,2.047.867,3.566,3.566,0,0,1,.813,2.266,6.621,6.621,0,0,1-.031,1.016l-.086.648H36.793a2.856,2.856,0,0,0,.379,1.953,1.8,1.8,0,0,0,1.551.836,3.007,3.007,0,0,0,2.313-1.125l.813.688a3.718,3.718,0,0,1-1.371,1.2A3.886,3.886,0,0,1,38.605,17.156Zm.9-7.586a2.066,2.066,0,0,0-1.527.594A4.22,4.22,0,0,0,36.941,12l4.109.008.031-.125a2.313,2.313,0,0,0-.316-1.637A1.488,1.488,0,0,0,39.5,9.57Zm11.4,3.242a6.707,6.707,0,0,1-.7,2.32,3.949,3.949,0,0,1-1.336,1.543,3.058,3.058,0,0,1-1.766.488,2.815,2.815,0,0,1-2.25-.992L44.1,20.25H42.684l2.031-11.7L46,8.539l-.156.945a3.207,3.207,0,0,1,2.508-1.094,2.358,2.358,0,0,1,1.9.9,3.954,3.954,0,0,1,.719,2.391,8.413,8.413,0,0,1-.039.969Zm-1.391-.16L49.551,12a2.969,2.969,0,0,0-.434-1.744,1.525,1.525,0,0,0-1.254-.636,2.508,2.508,0,0,0-2.117,1.163l-.711,4.05a1.769,1.769,0,0,0,1.711,1.155,2.224,2.224,0,0,0,1.793-.823A4.777,4.777,0,0,0,49.512,12.652ZM56.73,8.391a3.047,3.047,0,0,1,1.82.578,3.285,3.285,0,0,1,1.121,1.551,4.8,4.8,0,0,1,.246,2.16l-.016.172a5.685,5.685,0,0,1-.734,2.23,4.309,4.309,0,0,1-1.516,1.551,3.7,3.7,0,0,1-2.039.523,3.052,3.052,0,0,1-1.816-.578,3.21,3.21,0,0,1-1.113-1.531,4.931,4.931,0,0,1-.25-2.133,5.76,5.76,0,0,1,.711-2.359,4.409,4.409,0,0,1,1.527-1.621A3.652,3.652,0,0,1,56.73,8.391Zm-2.875,4.531a4.8,4.8,0,0,0,0,1.023,2.507,2.507,0,0,0,.551,1.469,1.653,1.653,0,0,0,1.262.57,2.253,2.253,0,0,0,1.3-.348,2.919,2.919,0,0,0,1-1.121,4.721,4.721,0,0,0,.523-1.664,7.494,7.494,0,0,0,.023-1.211,2.6,2.6,0,0,0-.57-1.492,1.69,1.69,0,0,0-1.266-.578,2.3,2.3,0,0,0-1.859.859,4.245,4.245,0,0,0-.945,2.313ZM66.223,9.836l-.664-.07a2.42,2.42,0,0,0-2.141,1.227L62.379,17H60.965l1.469-8.453L63.8,8.539l-.211.984a2.527,2.527,0,0,1,2.117-1.148,2.594,2.594,0,0,1,.672.117Zm4.2-3.336-.359,2.047H71.6l-.2,1.117H69.871l-.883,5.258a1.833,1.833,0,0,0-.008.375.6.6,0,0,0,.664.609,4.05,4.05,0,0,0,.688-.078l-.109,1.18a3.847,3.847,0,0,1-1.031.141,1.476,1.476,0,0,1-1.266-.621A2.4,2.4,0,0,1,67.6,14.9l.859-5.234H66.965l.2-1.117h1.492L69.012,6.5Zm5.07,10.656a3.048,3.048,0,0,1-2.469-1.164,4.006,4.006,0,0,1-.75-2.9l.039-.336a5.624,5.624,0,0,1,.746-2.3,4.339,4.339,0,0,1,1.5-1.566,3.491,3.491,0,0,1,1.906-.5,2.688,2.688,0,0,1,2.047.867,3.566,3.566,0,0,1,.813,2.266,6.62,6.62,0,0,1-.031,1.016l-.086.648H73.676a2.856,2.856,0,0,0,.379,1.953,1.8,1.8,0,0,0,1.551.836,3.007,3.007,0,0,0,2.313-1.125l.813.688a3.718,3.718,0,0,1-1.371,1.2A3.886,3.886,0,0,1,75.488,17.156Zm.9-7.586a2.066,2.066,0,0,0-1.527.594A4.22,4.22,0,0,0,73.824,12l4.109.008.031-.125a2.313,2.313,0,0,0-.316-1.637A1.488,1.488,0,0,0,76.387,9.57Zm4.148,3.188a6.578,6.578,0,0,1,.711-2.328,4.03,4.03,0,0,1,1.367-1.555A3.127,3.127,0,0,1,84.4,8.383a2.64,2.64,0,0,1,2.172,1.031L87.387,5H88.8L86.723,17H85.434l.148-.906a3.116,3.116,0,0,1-2.469,1.063,2.335,2.335,0,0,1-1.867-.918,4,4,0,0,1-.75-2.379A7.6,7.6,0,0,1,80.535,12.758Zm1.359.808a2.929,2.929,0,0,0,.4,1.732,1.437,1.437,0,0,0,1.234.632,2.554,2.554,0,0,0,2.18-1.233l.672-3.9a1.754,1.754,0,0,0-1.7-1.186,2.143,2.143,0,0,0-1.473.5,3.256,3.256,0,0,0-.969,1.475A6.082,6.082,0,0,0,81.895,13.565Zm16.219,1.146q.117-.875-.961-1.234l-1.469-.43q-1.859-.641-1.8-2.125a2.341,2.341,0,0,1,1.02-1.832,3.631,3.631,0,0,1,2.27-.7,3.027,3.027,0,0,1,2.082.746,2.363,2.363,0,0,1,.77,1.9l-1.406-.008a1.319,1.319,0,0,0-.4-1.031,1.576,1.576,0,0,0-1.1-.414,2.059,2.059,0,0,0-1.266.359,1.316,1.316,0,0,0-.57.922q-.1.734.9,1.07l.711.2a4.577,4.577,0,0,1,2.063.977A1.865,1.865,0,0,1,99.52,14.6,2.37,2.37,0,0,1,99,15.977a2.948,2.948,0,0,1-1.25.895,4.18,4.18,0,0,1-1.664.285,3.3,3.3,0,0,1-2.219-.785,2.427,2.427,0,0,1-.844-1.98l1.414.008a1.5,1.5,0,0,0,.453,1.141,1.732,1.732,0,0,0,1.242.43,2.436,2.436,0,0,0,1.336-.324A1.247,1.247,0,0,0,98.113,14.711Zm10.5-1.9a6.706,6.706,0,0,1-.7,2.32,3.949,3.949,0,0,1-1.336,1.543,3.058,3.058,0,0,1-1.766.488,2.815,2.815,0,0,1-2.25-.992l-.758,4.078h-1.414l2.031-11.7,1.281-.008-.156.945a3.207,3.207,0,0,1,2.508-1.094,2.358,2.358,0,0,1,1.9.9,3.954,3.954,0,0,1,.719,2.391,8.412,8.412,0,0,1-.039.969Zm-1.391-.16.039-.655a2.969,2.969,0,0,0-.434-1.744,1.525,1.525,0,0,0-1.254-.636,2.508,2.508,0,0,0-2.117,1.163l-.711,4.05a1.769,1.769,0,0,0,1.711,1.155,2.224,2.224,0,0,0,1.793-.823A4.777,4.777,0,0,0,107.223,12.652Zm6.18,4.5a3.048,3.048,0,0,1-2.469-1.164,4.006,4.006,0,0,1-.75-2.9l.039-.336a5.624,5.624,0,0,1,.746-2.3,4.339,4.339,0,0,1,1.5-1.566,3.491,3.491,0,0,1,1.906-.5,2.688,2.688,0,0,1,2.047.867,3.566,3.566,0,0,1,.813,2.266,6.62,6.62,0,0,1-.031,1.016l-.086.648H111.59a2.856,2.856,0,0,0,.379,1.953,1.8,1.8,0,0,0,1.551.836,3.007,3.007,0,0,0,2.313-1.125l.813.688a3.718,3.718,0,0,1-1.371,1.2A3.886,3.886,0,0,1,113.4,17.156Zm.9-7.586a2.066,2.066,0,0,0-1.527.594A4.22,4.22,0,0,0,111.738,12l4.109.008.031-.125a2.313,2.313,0,0,0-.316-1.637A1.488,1.488,0,0,0,114.3,9.57Zm7.4,7.586a3.048,3.048,0,0,1-2.469-1.164,4.006,4.006,0,0,1-.75-2.9l.039-.336a5.624,5.624,0,0,1,.746-2.3,4.339,4.339,0,0,1,1.5-1.566,3.491,3.491,0,0,1,1.906-.5,2.688,2.688,0,0,1,2.047.867,3.566,3.566,0,0,1,.813,2.266,6.62,6.62,0,0,1-.031,1.016l-.086.648h-5.523a2.856,2.856,0,0,0,.379,1.953,1.8,1.8,0,0,0,1.551.836,3.007,3.007,0,0,0,2.313-1.125l.813.688a3.718,3.718,0,0,1-1.371,1.2A3.886,3.886,0,0,1,121.7,17.156Zm.9-7.586a2.066,2.066,0,0,0-1.527.594A4.22,4.22,0,0,0,120.035,12l4.109.008.031-.125a2.313,2.313,0,0,0-.316-1.637A1.488,1.488,0,0,0,122.6,9.57Zm7.313,6.414a2.145,2.145,0,0,0,1.367-.441,2.1,2.1,0,0,0,.8-1.2l1.336-.008a3.014,3.014,0,0,1-.637,1.453,3.68,3.68,0,0,1-2.926,1.367,3.017,3.017,0,0,1-1.785-.551,3.084,3.084,0,0,1-1.074-1.492,4.972,4.972,0,0,1-.234-2.152l.039-.391a5.605,5.605,0,0,1,.711-2.18,4.11,4.11,0,0,1,1.469-1.5,3.648,3.648,0,0,1,2-.5,2.857,2.857,0,0,1,2.125.891,3.08,3.08,0,0,1,.8,2.18l-1.32-.008a2.029,2.029,0,0,0-.461-1.34,1.607,1.607,0,0,0-1.2-.543,2.254,2.254,0,0,0-1.832.82,4.3,4.3,0,0,0-.91,2.359l-.023.2a6.777,6.777,0,0,0-.016,1.031,2.355,2.355,0,0,0,.516,1.445A1.656,1.656,0,0,0,129.91,15.984Zm7.273-6.406a3.275,3.275,0,0,1,2.555-1.18,2.058,2.058,0,0,1,1.762.816,3.217,3.217,0,0,1,.426,2.246L141,17H139.59l.93-5.562a2.968,2.968,0,0,0,.008-.711,1.168,1.168,0,0,0-1.289-1.117A2.6,2.6,0,0,0,137,10.969L135.957,17h-1.414l2.086-12h1.414Z" transform="translate(197 889.75)" fill="#12263f"/>
    <path id="Trazado_599185" data-name="Trazado 599185" d="M-79.211-10.661h-3.8L-84.854,0h-2.575l1.846-10.661h-3.753l.378-2.136h10.125Zm3.3,2.206a3.314,3.314,0,0,1,2.575-1.23A2.411,2.411,0,0,1-71.253-8.67a3.991,3.991,0,0,1,.5,2.676l-1,5.994h-2.479l1.011-6.028a2.921,2.921,0,0,0,.018-.633,1,1,0,0,0-1.107-.977,2.141,2.141,0,0,0-1.758.862L-77.269,0h-2.479l2.338-13.5h2.487ZM-67.206,0h-2.5l1.652-9.51h2.5Zm-.554-11.927a1.238,1.238,0,0,1,.387-.976,1.36,1.36,0,0,1,.976-.387,1.367,1.367,0,0,1,.976.343,1.233,1.233,0,0,1,.431.932,1.273,1.273,0,0,1-.365.949,1.367,1.367,0,0,1-1,.422,1.39,1.39,0,0,1-.971-.334A1.227,1.227,0,0,1-67.759-11.927Zm6.574,2.408L-61.4-8.394a3.422,3.422,0,0,1,2.769-1.292,2.281,2.281,0,0,1,1.986.984,3.966,3.966,0,0,1,.466,2.654l-1,6.047h-2.479l1.02-6.073a2.844,2.844,0,0,0,.018-.624,1.007,1.007,0,0,0-1.125-.923,2.133,2.133,0,0,0-1.749.905L-62.679,0h-2.479l1.652-9.51Zm6.425,4.755a6.58,6.58,0,0,1,1.437-3.582,3.647,3.647,0,0,1,2.958-1.349A2.667,2.667,0,0,1-48.1-8.6l.325-.923,2.276.009L-47.052-.325a4.481,4.481,0,0,1-1.617,3.006,5.03,5.03,0,0,1-3.375,1.072,4.689,4.689,0,0,1-1.881-.426A4.022,4.022,0,0,1-55.4,2.206l1.23-1.512A2.642,2.642,0,0,0-52.1,1.775a2.436,2.436,0,0,0,1.652-.505,2.7,2.7,0,0,0,.932-1.525l.141-.571a3.092,3.092,0,0,1-2.329,1A2.732,2.732,0,0,1-53.908-.857,4.44,4.44,0,0,1-54.8-3.5,8.876,8.876,0,0,1-54.76-4.764Zm2.435,1.043A2.273,2.273,0,0,0-51.979-2.4a1.215,1.215,0,0,0,1.006.524,2.219,2.219,0,0,0,1.793-.863l.738-4.031a1.458,1.458,0,0,0-1.4-.863,1.944,1.944,0,0,0-1.608.766,4.006,4.006,0,0,0-.826,2.1A9.241,9.241,0,0,0-52.326-3.721Zm12.656,1.04q.141-.7-.976-1.02l-.8-.2q-2.839-.782-2.76-2.76a2.731,2.731,0,0,1,1.191-2.193,4.434,4.434,0,0,1,2.764-.831,3.978,3.978,0,0,1,2.6.853,2.809,2.809,0,0,1,1.011,2.224L-39.1-6.618a1.084,1.084,0,0,0-1.213-1.239,1.745,1.745,0,0,0-1.006.29,1.194,1.194,0,0,0-.523.782q-.132.7,1.063.993l.352.079a7.071,7.071,0,0,1,1.854.664,2.8,2.8,0,0,1,.989.927,2.3,2.3,0,0,1,.321,1.327,2.533,2.533,0,0,1-.584,1.582A3.577,3.577,0,0,1-39.375-.167a5.328,5.328,0,0,1-2.043.343,4.015,4.015,0,0,1-2.637-.91,2.933,2.933,0,0,1-1.072-2.307l2.338.018a1.285,1.285,0,0,0,1.459,1.38A2.076,2.076,0,0,0-40.2-1.925,1.111,1.111,0,0,0-39.669-2.681Zm13.017-9.167-.413,2.338h1.582l-.325,1.863h-1.582L-28.2-2.883a1.211,1.211,0,0,0,.07.686q.123.237.6.255.141.009.756-.044l-.176,1.942a4.169,4.169,0,0,1-1.424.2,2.234,2.234,0,0,1-1.819-.765,2.763,2.763,0,0,1-.492-2.021l.817-5.019h-1.345l.325-1.863h1.345l.4-2.338Zm4.737,3.393a3.314,3.314,0,0,1,2.575-1.23A2.411,2.411,0,0,1-17.262-8.67a3.991,3.991,0,0,1,.5,2.676l-1,5.994h-2.479l1.011-6.028a2.921,2.921,0,0,0,.018-.633,1,1,0,0,0-1.107-.977,2.141,2.141,0,0,0-1.758.862L-23.278,0h-2.479l2.338-13.5h2.487ZM-10.332,0a2.566,2.566,0,0,1-.1-.861A3.221,3.221,0,0,1-12.854.176a2.919,2.919,0,0,1-2.07-.813A2.46,2.46,0,0,1-15.693-2.6a2.843,2.843,0,0,1,1.305-2.386,5.924,5.924,0,0,1,3.335-.831l1.16.018.123-.571a1.984,1.984,0,0,0,.026-.554.952.952,0,0,0-.312-.646,1.075,1.075,0,0,0-.708-.242,1.514,1.514,0,0,0-.984.286,1.384,1.384,0,0,0-.519.875l-2.487.009A2.764,2.764,0,0,1-13.5-8.855a4.851,4.851,0,0,1,2.94-.831,3.507,3.507,0,0,1,2.531.962,2.816,2.816,0,0,1,.765,2.386l-.729,4.553-.044.563A2.714,2.714,0,0,0-7.888-.167L-7.9,0Zm-1.907-1.749a2.27,2.27,0,0,0,1.872-.932l.308-1.644-.861-.009A2.406,2.406,0,0,0-12.9-3.5a1.454,1.454,0,0,0-.272.712.844.844,0,0,0,.2.751A1,1,0,0,0-12.239-1.749Zm10.881-10.1L-1.771-9.51H-.189L-.514-7.646H-2.1L-2.9-2.883a1.211,1.211,0,0,0,.07.686q.123.237.6.255.141.009.756-.044L-1.657-.044a4.169,4.169,0,0,1-1.424.2A2.234,2.234,0,0,1-4.9-.606a2.763,2.763,0,0,1-.492-2.021l.817-5.019H-5.919l.325-1.863H-4.25l.4-2.338ZM12.625-3.463,14.884-9.51h2.47l-4,9.51H11.281l-.7-5.95L7.8,0H5.726l-.7-9.51h2.32l.149,5.985L10.208-9.51H12ZM21.476.176a4.137,4.137,0,0,1-2.21-.611,3.7,3.7,0,0,1-1.437-1.652A4.605,4.605,0,0,1,17.459-4.4l.026-.352A6.148,6.148,0,0,1,18.294-7.3a4.884,4.884,0,0,1,1.74-1.789,4.306,4.306,0,0,1,2.355-.593,3.29,3.29,0,0,1,2.782,1.351A4.631,4.631,0,0,1,25.888-5L25.748-3.92H19.92a2.041,2.041,0,0,0,.448,1.477,1.711,1.711,0,0,0,1.318.571A3.041,3.041,0,0,0,24.06-2.927l1.134,1.406A3.527,3.527,0,0,1,23.647-.259,5.059,5.059,0,0,1,21.476.176Zm.791-7.813a1.761,1.761,0,0,0-1.217.431A3.784,3.784,0,0,0,20.1-5.651h3.41l.053-.229a2.33,2.33,0,0,0,.009-.668,1.276,1.276,0,0,0-.431-.8A1.35,1.35,0,0,0,22.267-7.638ZM33-7.128a5.117,5.117,0,0,0-.835-.088,2.4,2.4,0,0,0-2.1.993L28.964,0H26.486l1.652-9.51,2.329-.009-.229,1.16A2.615,2.615,0,0,1,32.454-9.7a3.615,3.615,0,0,1,.861.123Zm4.465,7.3a4.137,4.137,0,0,1-2.21-.611,3.7,3.7,0,0,1-1.437-1.652A4.605,4.605,0,0,1,33.447-4.4l.026-.352A6.148,6.148,0,0,1,34.282-7.3a4.884,4.884,0,0,1,1.74-1.789,4.306,4.306,0,0,1,2.355-.593,3.29,3.29,0,0,1,2.782,1.351A4.631,4.631,0,0,1,41.875-5L41.735-3.92H35.908a2.041,2.041,0,0,0,.448,1.477,1.711,1.711,0,0,0,1.318.571,3.041,3.041,0,0,0,2.373-1.055l1.134,1.406A3.527,3.527,0,0,1,39.634-.259,5.059,5.059,0,0,1,37.463.176Zm.791-7.813a1.761,1.761,0,0,0-1.217.431,3.784,3.784,0,0,0-.954,1.556h3.41l.053-.229a2.33,2.33,0,0,0,.009-.668,1.276,1.276,0,0,0-.431-.8A1.35,1.35,0,0,0,38.254-7.638ZM51.631-9.694a2.706,2.706,0,0,1,2.145,1.063l.932-4.869h2.487L54.857,0H52.642l.141-1.02A3.078,3.078,0,0,1,50.3.185a2.738,2.738,0,0,1-1.556-.466A2.933,2.933,0,0,1,47.716-1.6a5.292,5.292,0,0,1-.4-1.912,7.2,7.2,0,0,1,.026-1.072l.053-.4a7.613,7.613,0,0,1,.813-2.566,4.237,4.237,0,0,1,1.477-1.644A3.481,3.481,0,0,1,51.631-9.694Zm-1.8,5.115a7.118,7.118,0,0,0-.044,1.125q.088,1.547,1.248,1.573a2.121,2.121,0,0,0,1.819-.984l.677-3.779a1.4,1.4,0,0,0-1.371-.984,1.806,1.806,0,0,0-1.507.7A4.7,4.7,0,0,0,49.83-4.579ZM62.275-9.686a3.814,3.814,0,0,1,2.167.646,3.638,3.638,0,0,1,1.336,1.731,5.357,5.357,0,0,1,.3,2.448A5.786,5.786,0,0,1,64.5-1.191a4.455,4.455,0,0,1-3.4,1.367,3.8,3.8,0,0,1-2.145-.637A3.624,3.624,0,0,1,57.625-2.18a5.239,5.239,0,0,1-.308-2.426,5.957,5.957,0,0,1,1.6-3.744A4.363,4.363,0,0,1,62.275-9.686Zm-2.5,5.979a2.194,2.194,0,0,0,.4,1.33,1.314,1.314,0,0,0,1.063.5,1.926,1.926,0,0,0,1.793-1.049,5.227,5.227,0,0,0,.606-2.848,2.387,2.387,0,0,0-.409-1.347,1.293,1.293,0,0,0-1.068-.522A1.929,1.929,0,0,0,60.381-6.6,5.173,5.173,0,0,0,59.77-3.706ZM70.712-9.519,70.5-8.394A3.422,3.422,0,0,1,73.27-9.686a2.281,2.281,0,0,1,1.986.984,3.966,3.966,0,0,1,.466,2.654L74.72,0H72.242l1.02-6.073a2.844,2.844,0,0,0,.018-.624,1.007,1.007,0,0,0-1.125-.923,2.133,2.133,0,0,0-1.749.905L69.218,0H66.74l1.652-9.51ZM81.18.176a4.137,4.137,0,0,1-2.21-.611,3.7,3.7,0,0,1-1.437-1.652A4.605,4.605,0,0,1,77.164-4.4l.026-.352A6.148,6.148,0,0,1,78-7.3a4.884,4.884,0,0,1,1.74-1.789,4.306,4.306,0,0,1,2.355-.593,3.29,3.29,0,0,1,2.782,1.351A4.631,4.631,0,0,1,85.592-5L85.452-3.92H79.625a2.041,2.041,0,0,0,.448,1.477,1.711,1.711,0,0,0,1.318.571,3.041,3.041,0,0,0,2.373-1.055L84.9-1.521A3.527,3.527,0,0,1,83.351-.259,5.059,5.059,0,0,1,81.18.176Zm.791-7.813a1.761,1.761,0,0,0-1.217.431A3.784,3.784,0,0,0,79.8-5.651h3.41l.053-.229a2.33,2.33,0,0,0,.009-.668,1.276,1.276,0,0,0-.431-.8A1.35,1.35,0,0,0,81.971-7.638Z" transform="translate(800.333 802)" fill="#fff"/>
    <path id="Trazado_189998" data-name="Trazado 189998" d="M-11371.332-9302.25h-22.221" transform="translate(12400.333 10326)" fill="none" stroke="#3c3fa7" stroke-width="3"/>
    <rect id="Rectángulo_337778" data-name="Rectángulo 337778" width="149.219" height="47" rx="11" transform="translate(826.724 1065.25)" fill="#6b8dfc"/>
    <path id="Trazado_599196" data-name="Trazado 599196" d="M9.336,17H7.914L9.586,7.406,6.563,8.469,6.8,7.094,11.023,5.57h.25Zm11.5,0H13.594l.172-1.1,4.2-4.078.766-.758a4.483,4.483,0,0,0,1.461-2.437,1.807,1.807,0,0,0-.336-1.4,1.58,1.58,0,0,0-1.234-.574,2.328,2.328,0,0,0-1.711.6,2.745,2.745,0,0,0-.836,1.723l-1.4.008a3.956,3.956,0,0,1,.645-1.855,3.59,3.59,0,0,1,1.43-1.242,4.108,4.108,0,0,1,1.926-.41,3.156,3.156,0,0,1,2.246.855,2.535,2.535,0,0,1,.715,2.137,5.445,5.445,0,0,1-1.727,3.156l-.719.727L15.531,15.82h5.492Zm8.609-1.977,3.047-6.477h1.492L29.727,17H28.648L26.992,8.547h1.391Zm8.18,2.133a3.048,3.048,0,0,1-2.469-1.164,4.006,4.006,0,0,1-.75-2.9l.039-.336a5.624,5.624,0,0,1,.746-2.3,4.339,4.339,0,0,1,1.5-1.566,3.491,3.491,0,0,1,1.906-.5,2.688,2.688,0,0,1,2.047.867,3.566,3.566,0,0,1,.813,2.266,6.621,6.621,0,0,1-.031,1.016l-.086.648H35.813a2.856,2.856,0,0,0,.379,1.953,1.8,1.8,0,0,0,1.551.836,3.007,3.007,0,0,0,2.313-1.125l.813.688a3.718,3.718,0,0,1-1.371,1.2A3.886,3.886,0,0,1,37.625,17.156Zm.9-7.586A2.066,2.066,0,0,0,37,10.164,4.22,4.22,0,0,0,35.961,12l4.109.008.031-.125a2.313,2.313,0,0,0-.316-1.637A1.488,1.488,0,0,0,38.523,9.57Zm9,.266-.664-.07a2.42,2.42,0,0,0-2.141,1.227L43.68,17H42.266l1.469-8.453L45.1,8.539l-.211.984a2.527,2.527,0,0,1,2.117-1.148,2.594,2.594,0,0,1,.672.117Zm7.742,2.977a6.586,6.586,0,0,1-.711,2.336,3.982,3.982,0,0,1-1.344,1.539,3.058,3.058,0,0,1-1.75.477,2.61,2.61,0,0,1-2.273-1.148L48.9,17h-1.3L49.68,5h1.414l-.852,4.484a3.107,3.107,0,0,1,2.469-1.094,2.358,2.358,0,0,1,1.9.9,3.954,3.954,0,0,1,.719,2.391,7.363,7.363,0,0,1-.047.969ZM53.922,12a3.009,3.009,0,0,0-.383-1.744A1.465,1.465,0,0,0,52.3,9.617a2.574,2.574,0,0,0-2.234,1.327l-.633,3.675a1.8,1.8,0,0,0,1.758,1.319,2.054,2.054,0,0,0,1.449-.492,3.212,3.212,0,0,0,.941-1.463A6.578,6.578,0,0,0,53.922,12ZM64.039,6.5,63.68,8.547h1.539l-.2,1.117H63.492l-.883,5.258a1.833,1.833,0,0,0-.008.375.6.6,0,0,0,.664.609,4.05,4.05,0,0,0,.688-.078l-.109,1.18a3.847,3.847,0,0,1-1.031.141,1.476,1.476,0,0,1-1.266-.621,2.4,2.4,0,0,1-.328-1.629l.859-5.234H60.586l.2-1.117h1.492L62.633,6.5Zm5.07,10.656a3.048,3.048,0,0,1-2.469-1.164,4.006,4.006,0,0,1-.75-2.9l.039-.336a5.624,5.624,0,0,1,.746-2.3,4.339,4.339,0,0,1,1.5-1.566,3.491,3.491,0,0,1,1.906-.5,2.688,2.688,0,0,1,2.047.867,3.566,3.566,0,0,1,.813,2.266,6.62,6.62,0,0,1-.031,1.016l-.086.648H67.3a2.856,2.856,0,0,0,.379,1.953,1.8,1.8,0,0,0,1.551.836,3.007,3.007,0,0,0,2.313-1.125l.813.688a3.718,3.718,0,0,1-1.371,1.2A3.886,3.886,0,0,1,69.109,17.156Zm.9-7.586a2.066,2.066,0,0,0-1.527.594A4.22,4.22,0,0,0,67.445,12l4.109.008.031-.125a2.313,2.313,0,0,0-.316-1.637A1.488,1.488,0,0,0,70.008,9.57Zm6.547-1.031-.2,1.07a3.333,3.333,0,0,1,2.594-1.219,2.1,2.1,0,0,1,1.766.828,3.217,3.217,0,0,1,.422,2.242L80.211,17H78.8l.93-5.557a2.962,2.962,0,0,0,.008-.71,1.168,1.168,0,0,0-1.289-1.116,2.661,2.661,0,0,0-2.234,1.358L75.164,17H73.75l1.469-8.453Zm11.07,6.172q.117-.875-.961-1.234l-1.469-.43q-1.859-.641-1.8-2.125a2.341,2.341,0,0,1,1.02-1.832,3.631,3.631,0,0,1,2.27-.7,3.027,3.027,0,0,1,2.082.746,2.363,2.363,0,0,1,.77,1.9l-1.406-.008a1.319,1.319,0,0,0-.4-1.031,1.576,1.576,0,0,0-1.1-.414,2.059,2.059,0,0,0-1.266.359,1.316,1.316,0,0,0-.57.922q-.1.734.9,1.07l.711.2a4.577,4.577,0,0,1,2.063.977,1.865,1.865,0,0,1,.563,1.492,2.37,2.37,0,0,1-.516,1.375,2.948,2.948,0,0,1-1.25.895,4.18,4.18,0,0,1-1.664.285,3.3,3.3,0,0,1-2.219-.785,2.427,2.427,0,0,1-.844-1.98l1.414.008a1.5,1.5,0,0,0,.453,1.141,1.732,1.732,0,0,0,1.242.43,2.436,2.436,0,0,0,1.336-.324A1.247,1.247,0,0,0,87.625,14.711Zm6.5,2.445a3.048,3.048,0,0,1-2.469-1.164,4.006,4.006,0,0,1-.75-2.9l.039-.336a5.624,5.624,0,0,1,.746-2.3,4.339,4.339,0,0,1,1.5-1.566,3.491,3.491,0,0,1,1.906-.5,2.688,2.688,0,0,1,2.047.867,3.566,3.566,0,0,1,.813,2.266,6.62,6.62,0,0,1-.031,1.016l-.086.648H92.313a2.856,2.856,0,0,0,.379,1.953,1.8,1.8,0,0,0,1.551.836,3.007,3.007,0,0,0,2.313-1.125l.813.688A3.718,3.718,0,0,1,96,16.738,3.886,3.886,0,0,1,94.125,17.156Zm.9-7.586a2.066,2.066,0,0,0-1.527.594A4.22,4.22,0,0,0,92.461,12l4.109.008.031-.125a2.313,2.313,0,0,0-.316-1.637A1.488,1.488,0,0,0,95.023,9.57ZM104,14.711q.117-.875-.961-1.234l-1.469-.43q-1.859-.641-1.8-2.125a2.341,2.341,0,0,1,1.02-1.832,3.631,3.631,0,0,1,2.27-.7,3.027,3.027,0,0,1,2.082.746,2.363,2.363,0,0,1,.77,1.9l-1.406-.008a1.319,1.319,0,0,0-.4-1.031,1.576,1.576,0,0,0-1.1-.414,2.059,2.059,0,0,0-1.266.359,1.316,1.316,0,0,0-.57.922q-.1.734.9,1.07l.711.2a4.577,4.577,0,0,1,2.063.977,1.865,1.865,0,0,1,.563,1.492,2.37,2.37,0,0,1-.516,1.375,2.948,2.948,0,0,1-1.25.895,4.18,4.18,0,0,1-1.664.285,3.3,3.3,0,0,1-2.219-.785,2.427,2.427,0,0,1-.844-1.98l1.414.008a1.5,1.5,0,0,0,.453,1.141,1.732,1.732,0,0,0,1.242.43,2.436,2.436,0,0,0,1.336-.324A1.247,1.247,0,0,0,104,14.711Z" transform="translate(845.724 1078.25)" fill="#12263f"/>
    <rect id="Rectángulo_337774" data-name="Rectángulo 337774" width="149.219" height="47" rx="11" transform="translate(801.114 1000.25)" fill="#d5d6f0"/>
    <path id="Trazado_599193" data-name="Trazado 599193" d="M18.68,14.992,23.3,5.625h1.656L19.078,17h-1.3l-2.3-11.375h1.539Zm9.367,2.164a3.048,3.048,0,0,1-2.469-1.164,4.006,4.006,0,0,1-.75-2.9l.039-.336a5.624,5.624,0,0,1,.746-2.3,4.339,4.339,0,0,1,1.5-1.566,3.491,3.491,0,0,1,1.906-.5,2.688,2.688,0,0,1,2.047.867,3.566,3.566,0,0,1,.813,2.266,6.621,6.621,0,0,1-.031,1.016l-.086.648H26.234a2.856,2.856,0,0,0,.379,1.953,1.8,1.8,0,0,0,1.551.836,3.007,3.007,0,0,0,2.313-1.125l.813.688a3.718,3.718,0,0,1-1.371,1.2A3.886,3.886,0,0,1,28.047,17.156Zm.9-7.586a2.066,2.066,0,0,0-1.527.594A4.22,4.22,0,0,0,26.383,12l4.109.008.031-.125a2.313,2.313,0,0,0-.316-1.637A1.488,1.488,0,0,0,28.945,9.57Zm9,.266-.664-.07a2.42,2.42,0,0,0-2.141,1.227L34.1,17H32.688l1.469-8.453,1.367-.008-.211.984A2.527,2.527,0,0,1,37.43,8.375a2.594,2.594,0,0,1,.672.117Zm7.742,2.977a6.586,6.586,0,0,1-.711,2.336,3.982,3.982,0,0,1-1.344,1.539,3.058,3.058,0,0,1-1.75.477,2.61,2.61,0,0,1-2.273-1.148L39.32,17h-1.3L40.1,5h1.414l-.852,4.484a3.107,3.107,0,0,1,2.469-1.094,2.358,2.358,0,0,1,1.9.9,3.954,3.954,0,0,1,.719,2.391,7.363,7.363,0,0,1-.047.969ZM44.344,12a3.009,3.009,0,0,0-.383-1.744,1.465,1.465,0,0,0-1.242-.636,2.574,2.574,0,0,0-2.234,1.327l-.633,3.675a1.8,1.8,0,0,0,1.758,1.319,2.054,2.054,0,0,0,1.449-.492A3.212,3.212,0,0,0,44,13.983,6.578,6.578,0,0,0,44.344,12ZM54.461,6.5,54.1,8.547h1.539l-.2,1.117H53.914l-.883,5.258a1.833,1.833,0,0,0-.008.375.6.6,0,0,0,.664.609,4.05,4.05,0,0,0,.688-.078l-.109,1.18a3.847,3.847,0,0,1-1.031.141,1.476,1.476,0,0,1-1.266-.621,2.4,2.4,0,0,1-.328-1.629L52.5,9.664H51.008l.2-1.117H52.7L53.055,6.5Zm5.07,10.656a3.048,3.048,0,0,1-2.469-1.164,4.006,4.006,0,0,1-.75-2.9l.039-.336a5.624,5.624,0,0,1,.746-2.3,4.339,4.339,0,0,1,1.5-1.566,3.491,3.491,0,0,1,1.906-.5,2.688,2.688,0,0,1,2.047.867,3.566,3.566,0,0,1,.813,2.266,6.621,6.621,0,0,1-.031,1.016l-.086.648H57.719a2.856,2.856,0,0,0,.379,1.953,1.8,1.8,0,0,0,1.551.836,3.007,3.007,0,0,0,2.313-1.125l.813.688a3.718,3.718,0,0,1-1.371,1.2A3.886,3.886,0,0,1,59.531,17.156Zm.9-7.586a2.066,2.066,0,0,0-1.527.594A4.22,4.22,0,0,0,57.867,12l4.109.008.031-.125a2.313,2.313,0,0,0-.316-1.637A1.488,1.488,0,0,0,60.43,9.57Zm6.547-1.031-.2,1.07a3.333,3.333,0,0,1,2.594-1.219,2.1,2.1,0,0,1,1.766.828,3.217,3.217,0,0,1,.422,2.242L70.633,17H69.219l.93-5.557a2.962,2.962,0,0,0,.008-.71,1.168,1.168,0,0,0-1.289-1.116,2.661,2.661,0,0,0-2.234,1.358L65.586,17H64.172l1.469-8.453Zm11.07,6.172q.117-.875-.961-1.234l-1.469-.43q-1.859-.641-1.8-2.125A2.341,2.341,0,0,1,74.84,9.09a3.631,3.631,0,0,1,2.27-.7,3.027,3.027,0,0,1,2.082.746,2.363,2.363,0,0,1,.77,1.9l-1.406-.008a1.319,1.319,0,0,0-.4-1.031,1.576,1.576,0,0,0-1.1-.414,2.059,2.059,0,0,0-1.266.359,1.316,1.316,0,0,0-.57.922q-.1.734.9,1.07l.711.2a4.577,4.577,0,0,1,2.063.977,1.865,1.865,0,0,1,.563,1.492,2.37,2.37,0,0,1-.516,1.375,2.948,2.948,0,0,1-1.25.895,4.18,4.18,0,0,1-1.664.285,3.3,3.3,0,0,1-2.219-.785,2.427,2.427,0,0,1-.844-1.98l1.414.008a1.5,1.5,0,0,0,.453,1.141,1.732,1.732,0,0,0,1.242.43,2.436,2.436,0,0,0,1.336-.324A1.247,1.247,0,0,0,78.047,14.711Zm6.5,2.445a3.048,3.048,0,0,1-2.469-1.164,4.006,4.006,0,0,1-.75-2.9l.039-.336a5.624,5.624,0,0,1,.746-2.3,4.339,4.339,0,0,1,1.5-1.566,3.491,3.491,0,0,1,1.906-.5,2.688,2.688,0,0,1,2.047.867,3.566,3.566,0,0,1,.813,2.266,6.62,6.62,0,0,1-.031,1.016l-.086.648H82.734a2.856,2.856,0,0,0,.379,1.953,1.8,1.8,0,0,0,1.551.836,3.007,3.007,0,0,0,2.313-1.125l.813.688a3.718,3.718,0,0,1-1.371,1.2A3.886,3.886,0,0,1,84.547,17.156Zm.9-7.586a2.066,2.066,0,0,0-1.527.594A4.22,4.22,0,0,0,82.883,12l4.109.008.031-.125a2.313,2.313,0,0,0-.316-1.637A1.488,1.488,0,0,0,85.445,9.57Zm8.977,5.141q.117-.875-.961-1.234l-1.469-.43q-1.859-.641-1.8-2.125a2.341,2.341,0,0,1,1.02-1.832,3.631,3.631,0,0,1,2.27-.7,3.027,3.027,0,0,1,2.082.746,2.363,2.363,0,0,1,.77,1.9l-1.406-.008a1.319,1.319,0,0,0-.4-1.031,1.576,1.576,0,0,0-1.1-.414,2.059,2.059,0,0,0-1.266.359,1.316,1.316,0,0,0-.57.922q-.1.734.9,1.07l.711.2a4.577,4.577,0,0,1,2.063.977,1.865,1.865,0,0,1,.563,1.492,2.37,2.37,0,0,1-.516,1.375,2.948,2.948,0,0,1-1.25.895,4.18,4.18,0,0,1-1.664.285,3.3,3.3,0,0,1-2.219-.785,2.427,2.427,0,0,1-.844-1.98l1.414.008a1.5,1.5,0,0,0,.453,1.141,1.732,1.732,0,0,0,1.242.43,2.436,2.436,0,0,0,1.336-.324A1.247,1.247,0,0,0,94.422,14.711Z" transform="translate(820.114 1013.25)" fill="#12263f"/>
    <g id="Grupo_962116" data-name="Grupo 962116">
      <path id="Trazado_178695" data-name="Trazado 178695" d="M128.639,12.154a1.8,1.8,0,0,1-1.8,1.781c-1.1.048-2.2.047-3.3.008-.6-.022-.78.192-.759.771.037,1.017.035,2.037,0,3.055-.042,1.312-.786,2.075-1.924,2.035-1.089-.04-1.711-.769-1.736-2.067a20.23,20.23,0,0,1,.013-2.442c.1-1.026-.148-1.506-1.3-1.361a16.6,16.6,0,0,1-2.685.012,1.814,1.814,0,1,1-.143-3.626,29.494,29.494,0,0,1,3.3-.022c.638.023.858-.181.827-.827-.049-1.016-.032-2.037-.005-3.055a1.8,1.8,0,0,1,1.74-1.957A1.868,1.868,0,0,1,122.783,6.4a21.2,21.2,0,0,1-.005,2.687c-.073.906.142,1.326,1.161,1.217a16.866,16.866,0,0,1,2.807,0,1.88,1.88,0,0,1,1.893,1.851" transform="translate(731.788 637.72)"/>
      <path id="Trazado_178696" data-name="Trazado 178696" d="M136.678,103.151c-2.4,0-2.4,0-2.4,2.425a15.306,15.306,0,0,1-.035,1.709,1.746,1.746,0,0,1-1.857,1.709,1.711,1.711,0,0,1-1.756-1.8c-.053-1.057-.058-2.121-.009-3.178.034-.719-.243-.911-.921-.88-1.016.047-2.038.039-3.055,0a1.739,1.739,0,0,1-1.875-1.806,1.79,1.79,0,0,1,1.871-1.837,17.863,17.863,0,0,1,2.81.008c1.037.11,1.241-.335,1.172-1.242a22.751,22.751,0,0,1,0-2.688,1.82,1.82,0,1,1,3.635-.058,23.69,23.69,0,0,1,0,3.055c-.058.8.242.972.968.927.933-.059,1.875-.037,2.811-.008,1.31.042,2.1.793,2.057,1.91-.04,1.087-.77,1.709-2.069,1.752-.448.014-.9,0-1.345,0" transform="translate(722.289 629.756)"/>
      <path id="Trazado_178697" data-name="Trazado 178697" d="M9.5,45.775c0,2.258,0,2.258,2.3,2.258.611,0,1.226-.036,1.833.02a1.787,1.787,0,0,1,1.7,1.868,1.76,1.76,0,0,1-1.794,1.77c-1.058.042-2.121.055-3.178,0-.716-.039-.911.222-.878.9.048,1.016.042,2.038,0,3.055a1.82,1.82,0,1,1-3.636.047c-.06-1.1-.042-2.2-.012-3.3.014-.523-.152-.716-.69-.7-1.058.035-2.119.03-3.178,0A1.81,1.81,0,0,1,0,49.84a1.828,1.828,0,0,1,1.922-1.8c1.059-.037,2.12-.046,3.178,0,.612.028.767-.187.742-.765-.044-.977-.033-1.957-.006-2.934.035-1.329.745-2.156,1.819-2.169S9.454,43,9.5,44.308c.016.489,0,.978,0,1.467" transform="translate(725.487 622.187)"/>
      <g id="FILLED_OUTLINE" transform="translate(700.826 633.85)">
        <rect id="Rectángulo_337779" data-name="Rectángulo 337779" width="90.401" height="114.508" transform="translate(49.643 18.411)" fill="#919191"/>
        <path id="Trazado_190000" data-name="Trazado 190000" d="M112,56h73.623v98.163H112Z" transform="translate(-53.595 -29.774)" fill="#d8d7da"/>
        <g id="Grupo_962115" data-name="Grupo 962115" transform="translate(93.172 32.361)">
          <path id="Trazado_190001" data-name="Trazado 190001" d="M248,80h30.676v4.09H248Z" transform="translate(-248 -80)" fill="#f9cb58"/>
          <path id="Trazado_190002" data-name="Trazado 190002" d="M248,216h20.451v4.09H248Z" transform="translate(-248 -181.234)" fill="#f9cb58"/>
          <path id="Trazado_190003" data-name="Trazado 190003" d="M248,320h18.406v4.09H248Z" transform="translate(-248 -258.648)" fill="#f9cb58"/>
          <path id="Trazado_190004" data-name="Trazado 190004" d="M248,112h24.541v4.09H248Z" transform="translate(-248 -103.82)" fill="#f9cb58"/>
          <path id="Trazado_190005" data-name="Trazado 190005" d="M248,184h30.676v4.09H248Z" transform="translate(-248 -157.414)" fill="#f9cb58"/>
        </g>
        <rect id="Rectángulo_337780" data-name="Rectángulo 337780" width="15.67" height="16.875" transform="translate(68.928 34.08)" fill="#fed947"/>
        <path id="Trazado_190006" data-name="Trazado 190006" d="M0,0H14.461V4.09H0Z" transform="translate(73.313 43.189) rotate(-45)" fill="#f4f4f4"/>
        <rect id="Rectángulo_337781" data-name="Rectángulo 337781" width="15.67" height="16.875" transform="translate(68.928 60.598)" fill="#fed947"/>
        <path id="Trazado_190007" data-name="Trazado 190007" d="M0,0H14.461V4.09H0Z" transform="translate(73.31 69.773) rotate(-45)" fill="#f4f4f4"/>
        <rect id="Rectángulo_337782" data-name="Rectángulo 337782" width="15.67" height="16.875" transform="translate(68.928 87.115)" fill="#fed947"/>
        <path id="Trazado_190008" data-name="Trazado 190008" d="M302.194,192.3a4.338,4.338,0,0,0-6.135,0L248,240.359v6.135h6.135l48.059-48.059A4.338,4.338,0,0,0,302.194,192.3Z" transform="translate(-154.828 -130.286)" fill="#fed947"/>
        <path id="Trazado_190009" data-name="Trazado 190009" d="M416,197.413l6.135,6.135,5.113-5.113a4.338,4.338,0,1,0-6.135-6.135Z" transform="translate(-279.882 -130.286)" fill="#fed947"/>
        <path id="Trazado_190010" data-name="Trazado 190010" d="M279.306,278.5l-.724-.362a4.09,4.09,0,0,1-1.968-5.177l5.754-14.385a4.09,4.09,0,0,1,3.8-2.571h10.946a12.271,12.271,0,0,1,10.352,5.683l10.7,16.813,14.315,14.315v24.541L307.09,291.964a4.09,4.09,0,0,0-2.892-1.2h-4.441a12.27,12.27,0,0,1-7.362-2.454l-8.913-6.685a4.527,4.527,0,0,1,4.962-7.551l8.891,5.081a3.653,3.653,0,0,0,4.851-5.2l-2.429-3.644-6.135-6.135Z" transform="translate(-175.909 -178.648)" fill="#f9cea0"/>
        <path id="Trazado_190011" data-name="Trazado 190011" d="M0,0H17.353V8.676H0Z" transform="translate(115.651 87.579) rotate(-45)" fill="#fed947"/>
        <path id="Trazado_190012" data-name="Trazado 190012" d="M80.4,217.146l-.1-.078a5.054,5.054,0,0,0-6.774.645l-13.788,15.18a2.045,2.045,0,0,1-3.559-1.375V200l-4.908,3.681A8.18,8.18,0,0,0,48,210.226v65.442H66.406v-20.8a13.965,13.965,0,0,1,4.09-9.874,13.965,13.965,0,0,0,4.09-9.874V234.2a4.087,4.087,0,0,1,.948-2.618c1.3-1.565,3.723-4.466,5.765-6.913a5.218,5.218,0,0,0-.894-7.525Z" transform="translate(-5.955 -136.963)" fill="#f9cea0"/>
        <path id="Trazado_190013" data-name="Trazado 190013" d="M128.289,110.074h-4.441a10.29,10.29,0,0,1-6.135-2.045l-8.913-6.685a2.482,2.482,0,0,1,2.72-4.14l8.892,5.081a5.7,5.7,0,0,0,7.567-8.108l-1.5-2.249,5.079-5.079,9.091,14.286,14.474,14.474,2.892-2.892L143.858,98.561l-1.6-2.522V76.154l6.559-6.559a6.385,6.385,0,0,0-6.559-10.562v-36.9A6.142,6.142,0,0,0,136.118,16h-81.8a6.142,6.142,0,0,0-6.135,6.135V62.014l-4.09,3.068A10.274,10.274,0,0,0,40,73.262V138.7h4.09V73.262a6.165,6.165,0,0,1,2.454-4.908l1.636-1.227V94.555a4.09,4.09,0,0,0,7.118,2.75l5.12-5.637h.032v-.036l8.635-9.507a3,3,0,0,1,4.032-.385l.1.078a3.174,3.174,0,0,1,1.264,2.189,3.131,3.131,0,0,1-.713,2.389c-2.043,2.448-4.462,5.35-5.766,6.914a6.145,6.145,0,0,0-1.422,3.928v.915a11.841,11.841,0,0,1-3.491,8.428A15.9,15.9,0,0,0,58.405,117.9v20.8H62.5v-4.09h73.623a6.142,6.142,0,0,0,6.135-6.135v-1.2l12.869,12.869,2.892-2.892-25.388-25.388a6.1,6.1,0,0,0-4.338-1.8Zm-21.944-5.458.95.712-8.835,8.836H95.217v-3.243l9.014-9.014A6.567,6.567,0,0,0,106.345,104.616ZM102.6,95.068l5.754-14.385a2.035,2.035,0,0,1,1.9-1.286h10.7L103.07,97.283a2.058,2.058,0,0,1-.467-2.215Zm10.229-1.763,23.286-23.286,3.243,3.243L117,95.624l-3.451-1.972a6.535,6.535,0,0,0-.716-.347Zm11.743,3.141a1.608,1.608,0,0,1-2.135,2.288l-1.76-1.006,2.85-2.85Zm13.588-6.834-3.643-5.724,3.643-3.643ZM144.3,62.789A2.293,2.293,0,0,1,145.92,66.7l-3.667,3.666-3.243-3.243,3.667-3.667a2.278,2.278,0,0,1,1.621-.672ZM52.27,94.553V22.136a2.047,2.047,0,0,1,2.045-2.045h81.8a2.047,2.047,0,0,1,2.045,2.045V62.19l-4.09,4.09v-42.1H56.36V90.05Zm18.406,2.686a2.046,2.046,0,0,1,.474-1.309c1.2-1.437,3.336-4,5.26-6.308H80.9a2.047,2.047,0,0,1,2.045,2.045v8.18a2.047,2.047,0,0,1-2.045,2.045h-8.18a2.047,2.047,0,0,1-2.045-2.045Zm-4.689,12.236a16.013,16.013,0,0,0,3.218-4.6,6.1,6.1,0,0,0,3.516,1.112H80.9a6.142,6.142,0,0,0,6.135-6.135v-8.18A6.142,6.142,0,0,0,80.9,85.533H78.507a7.3,7.3,0,0,0,.042-2A7.207,7.207,0,0,0,76.627,79.4H80.9a6.142,6.142,0,0,0,6.135-6.135v-4.09h-4.09v4.09A2.047,2.047,0,0,1,80.9,75.307h-8.18a2.047,2.047,0,0,1-2.045-2.045v-8.18a2.047,2.047,0,0,1,2.045-2.045h4.09v-4.09h-4.09a6.142,6.142,0,0,0-6.135,6.135v8.18a6.116,6.116,0,0,0,1.852,4.387,7.126,7.126,0,0,0-2.38,1.726l-5.608,6.173V28.271h69.532v42.1l-5.353,5.353a14.263,14.263,0,0,0-3.428-.416H110.256a6.106,6.106,0,0,0-5.7,3.857L98.806,93.549c-.022.054-.037.109-.056.164H93.172V97.8h5.542a6.192,6.192,0,0,0,1.47,2.367l-9.056,9.056v9.027h9.027L110.6,107.807l4.658,3.493a14.4,14.4,0,0,0,8.589,2.863h4.441a2.031,2.031,0,0,1,1.446.6l.248.248v7.333H62.5V117.9a11.841,11.841,0,0,1,3.491-8.428Zm72.177,19a2.047,2.047,0,0,1-2.045,2.045H62.5v-4.09h71.577V119.1l4.09,4.09Z"/>
        <path id="Trazado_190014" data-name="Trazado 190014" d="M164.451,90.225h-4.09v4.09a2.047,2.047,0,0,1-2.045,2.045h-8.18a2.047,2.047,0,0,1-2.045-2.045v-8.18a2.047,2.047,0,0,1,2.045-2.045h4.09V80h-4.09A6.142,6.142,0,0,0,144,86.135v8.18a6.142,6.142,0,0,0,6.135,6.135h8.18a6.142,6.142,0,0,0,6.135-6.135Z" transform="translate(-77.414 -47.639)"/>
        <path id="Trazado_190015" data-name="Trazado 190015" d="M0,0H14.461V4.09H0Z" transform="translate(73.313 43.187) rotate(-45)"/>
        <path id="Trazado_190016" data-name="Trazado 190016" d="M248,80h30.676v4.09H248Z" transform="translate(-154.828 -47.639)"/>
        <path id="Trazado_190017" data-name="Trazado 190017" d="M0,0H14.461V4.09H0Z" transform="translate(73.31 69.773) rotate(-45)"/>
        <path id="Trazado_190018" data-name="Trazado 190018" d="M248,216h20.451v4.09H248Z" transform="translate(-154.828 -148.873)"/>
        <path id="Trazado_190019" data-name="Trazado 190019" d="M248,112h24.541v4.09H248Z" transform="translate(-154.828 -71.459)"/>
        <path id="Trazado_190020" data-name="Trazado 190020" d="M248,184h30.676v4.09H248Z" transform="translate(-154.828 -125.053)"/>
      </g>
    </g>
    <rect id="Rectángulo_43221" data-name="Rectángulo 43221" width="202" height="47" rx="11" transform="translate(986.5 876.75)" fill="#a6bbff"/>
    <path id="Trazado_599188" data-name="Trazado 599188" d="M-53.574-4.594H-56.2L-57,0h-1.477L-56.5-11.375l3.422.008a3.814,3.814,0,0,1,2.727.907,2.83,2.83,0,0,1,.789,2.448,3.241,3.241,0,0,1-.777,1.885A4.247,4.247,0,0,1-52.176-4.9L-50.41-.1l-.008.1H-51.98Zm-2.414-1.234,2.156.008a3.012,3.012,0,0,0,1.9-.6,2.326,2.326,0,0,0,.906-1.6,1.837,1.837,0,0,0-.391-1.531,2.087,2.087,0,0,0-1.547-.586l-2.273-.008ZM-45.395.156a3.048,3.048,0,0,1-2.469-1.164,4.006,4.006,0,0,1-.75-2.9l.039-.336a5.624,5.624,0,0,1,.746-2.3,4.339,4.339,0,0,1,1.5-1.566,3.491,3.491,0,0,1,1.906-.5,2.688,2.688,0,0,1,2.047.867,3.566,3.566,0,0,1,.813,2.266A6.621,6.621,0,0,1-41.6-4.461l-.086.648h-5.523a2.856,2.856,0,0,0,.379,1.953,1.8,1.8,0,0,0,1.551.836,3.007,3.007,0,0,0,2.313-1.125l.813.688a3.718,3.718,0,0,1-1.371,1.2A3.886,3.886,0,0,1-45.395.156Zm.9-7.586a2.066,2.066,0,0,0-1.527.594A4.22,4.22,0,0,0-47.059-5l4.109.008.031-.125a2.313,2.313,0,0,0-.316-1.637A1.488,1.488,0,0,0-44.5-7.43Zm11.4,3.242a6.707,6.707,0,0,1-.7,2.32A3.949,3.949,0,0,1-35.129-.324a3.058,3.058,0,0,1-1.766.488,2.815,2.815,0,0,1-2.25-.992L-39.9,3.25h-1.414l2.031-11.7L-38-8.461l-.156.945a3.207,3.207,0,0,1,2.508-1.094,2.358,2.358,0,0,1,1.9.9,3.954,3.954,0,0,1,.719,2.391,8.413,8.413,0,0,1-.039.969Zm-1.391-.16L-34.449-5a2.969,2.969,0,0,0-.434-1.744,1.525,1.525,0,0,0-1.254-.636A2.508,2.508,0,0,0-38.254-6.22l-.711,4.05a1.769,1.769,0,0,0,1.711,1.155,2.224,2.224,0,0,0,1.793-.823A4.777,4.777,0,0,0-34.488-4.348Zm7.219-4.262a3.047,3.047,0,0,1,1.82.578A3.285,3.285,0,0,1-24.328-6.48a4.8,4.8,0,0,1,.246,2.16l-.016.172a5.685,5.685,0,0,1-.734,2.23A4.309,4.309,0,0,1-26.348-.367a3.7,3.7,0,0,1-2.039.523A3.052,3.052,0,0,1-30.2-.422a3.21,3.21,0,0,1-1.113-1.531,4.931,4.931,0,0,1-.25-2.133,5.76,5.76,0,0,1,.711-2.359,4.409,4.409,0,0,1,1.527-1.621A3.652,3.652,0,0,1-27.27-8.609Zm-2.875,4.531a4.8,4.8,0,0,0,0,1.023,2.507,2.507,0,0,0,.551,1.469,1.653,1.653,0,0,0,1.262.57,2.253,2.253,0,0,0,1.3-.348,2.919,2.919,0,0,0,1-1.121,4.721,4.721,0,0,0,.523-1.664,7.494,7.494,0,0,0,.023-1.211,2.6,2.6,0,0,0-.57-1.492,1.69,1.69,0,0,0-1.266-.578,2.3,2.3,0,0,0-1.859.859,4.245,4.245,0,0,0-.945,2.313Zm12.367-3.086-.664-.07a2.42,2.42,0,0,0-2.141,1.227L-21.621,0h-1.414l1.469-8.453,1.367-.008-.211.984a2.527,2.527,0,0,1,2.117-1.148,2.594,2.594,0,0,1,.672.117Zm4.2-3.336-.359,2.047H-12.4l-.2,1.117h-1.531l-.883,5.258a1.833,1.833,0,0,0-.008.375.6.6,0,0,0,.664.609,4.05,4.05,0,0,0,.688-.078l-.109,1.18a3.847,3.847,0,0,1-1.031.141,1.476,1.476,0,0,1-1.266-.621A2.4,2.4,0,0,1-16.4-2.1l.859-5.234h-1.492l.2-1.117h1.492l.359-2.047ZM-8.512.156A3.048,3.048,0,0,1-10.98-1.008a4.006,4.006,0,0,1-.75-2.9l.039-.336a5.624,5.624,0,0,1,.746-2.3,4.339,4.339,0,0,1,1.5-1.566,3.491,3.491,0,0,1,1.906-.5A2.688,2.688,0,0,1-5.5-7.742a3.566,3.566,0,0,1,.813,2.266,6.621,6.621,0,0,1-.031,1.016l-.086.648h-5.523a2.856,2.856,0,0,0,.379,1.953,1.8,1.8,0,0,0,1.551.836A3.007,3.007,0,0,0-6.082-2.148l.813.688a3.718,3.718,0,0,1-1.371,1.2A3.886,3.886,0,0,1-8.512.156Zm.9-7.586a2.066,2.066,0,0,0-1.527.594A4.22,4.22,0,0,0-10.176-5l4.109.008.031-.125a2.313,2.313,0,0,0-.316-1.637A1.488,1.488,0,0,0-7.613-7.43Zm4.148,3.188A6.578,6.578,0,0,1-2.754-6.57,4.03,4.03,0,0,1-1.387-8.125,3.127,3.127,0,0,1,.4-8.617,2.64,2.64,0,0,1,2.574-7.586L3.387-12H4.8L2.723,0H1.434l.148-.906A3.116,3.116,0,0,1-.887.156,2.335,2.335,0,0,1-2.754-.762,4,4,0,0,1-3.5-3.141,7.6,7.6,0,0,1-3.465-4.242Zm1.359.808a2.929,2.929,0,0,0,.4,1.732A1.437,1.437,0,0,0-.473-1.07,2.554,2.554,0,0,0,1.707-2.3l.672-3.9a1.754,1.754,0,0,0-1.7-1.186,2.143,2.143,0,0,0-1.473.5,3.256,3.256,0,0,0-.969,1.475A6.082,6.082,0,0,0-2.105-3.435ZM14.113-2.289q.117-.875-.961-1.234l-1.469-.43q-1.859-.641-1.8-2.125a2.341,2.341,0,0,1,1.02-1.832,3.631,3.631,0,0,1,2.27-.7,3.027,3.027,0,0,1,2.082.746,2.363,2.363,0,0,1,.77,1.9l-1.406-.008A1.319,1.319,0,0,0,14.223-7a1.576,1.576,0,0,0-1.1-.414,2.059,2.059,0,0,0-1.266.359,1.316,1.316,0,0,0-.57.922q-.1.734.9,1.07l.711.2a4.577,4.577,0,0,1,2.063.977A1.865,1.865,0,0,1,15.52-2.4,2.37,2.37,0,0,1,15-1.023a2.948,2.948,0,0,1-1.25.895A4.18,4.18,0,0,1,12.09.156,3.3,3.3,0,0,1,9.871-.629a2.427,2.427,0,0,1-.844-1.98l1.414.008a1.5,1.5,0,0,0,.453,1.141,1.732,1.732,0,0,0,1.242.43,2.436,2.436,0,0,0,1.336-.324A1.247,1.247,0,0,0,14.113-2.289Zm10.5-1.9a6.707,6.707,0,0,1-.7,2.32A3.949,3.949,0,0,1,22.582-.324a3.058,3.058,0,0,1-1.766.488,2.815,2.815,0,0,1-2.25-.992L17.809,3.25H16.395l2.031-11.7,1.281-.008-.156.945a3.207,3.207,0,0,1,2.508-1.094,2.358,2.358,0,0,1,1.9.9,3.954,3.954,0,0,1,.719,2.391,8.413,8.413,0,0,1-.039.969Zm-1.391-.16L23.262-5a2.969,2.969,0,0,0-.434-1.744,1.525,1.525,0,0,0-1.254-.636A2.508,2.508,0,0,0,19.457-6.22l-.711,4.05a1.769,1.769,0,0,0,1.711,1.155,2.224,2.224,0,0,0,1.793-.823A4.777,4.777,0,0,0,23.223-4.348ZM29.4.156a3.048,3.048,0,0,1-2.469-1.164,4.006,4.006,0,0,1-.75-2.9l.039-.336a5.624,5.624,0,0,1,.746-2.3,4.339,4.339,0,0,1,1.5-1.566,3.491,3.491,0,0,1,1.906-.5,2.688,2.688,0,0,1,2.047.867,3.566,3.566,0,0,1,.813,2.266A6.621,6.621,0,0,1,33.2-4.461l-.086.648H27.59a2.856,2.856,0,0,0,.379,1.953,1.8,1.8,0,0,0,1.551.836,3.007,3.007,0,0,0,2.313-1.125l.813.688a3.718,3.718,0,0,1-1.371,1.2A3.886,3.886,0,0,1,29.4.156Zm.9-7.586a2.066,2.066,0,0,0-1.527.594A4.22,4.22,0,0,0,27.738-5l4.109.008.031-.125a2.313,2.313,0,0,0-.316-1.637A1.488,1.488,0,0,0,30.3-7.43ZM37.7.156A3.048,3.048,0,0,1,35.23-1.008a4.006,4.006,0,0,1-.75-2.9l.039-.336a5.624,5.624,0,0,1,.746-2.3,4.339,4.339,0,0,1,1.5-1.566,3.491,3.491,0,0,1,1.906-.5,2.688,2.688,0,0,1,2.047.867,3.566,3.566,0,0,1,.813,2.266A6.621,6.621,0,0,1,41.5-4.461l-.086.648H35.887a2.856,2.856,0,0,0,.379,1.953,1.8,1.8,0,0,0,1.551.836,3.007,3.007,0,0,0,2.313-1.125l.813.688a3.718,3.718,0,0,1-1.371,1.2A3.886,3.886,0,0,1,37.7.156Zm.9-7.586a2.066,2.066,0,0,0-1.527.594A4.22,4.22,0,0,0,36.035-5l4.109.008.031-.125a2.313,2.313,0,0,0-.316-1.637A1.488,1.488,0,0,0,38.6-7.43ZM45.91-1.016a2.145,2.145,0,0,0,1.367-.441,2.1,2.1,0,0,0,.8-1.2l1.336-.008a3.014,3.014,0,0,1-.637,1.453A3.553,3.553,0,0,1,47.465-.187a3.551,3.551,0,0,1-1.617.344,3.017,3.017,0,0,1-1.785-.551,3.084,3.084,0,0,1-1.074-1.492,4.972,4.972,0,0,1-.234-2.152l.039-.391a5.605,5.605,0,0,1,.711-2.18,4.11,4.11,0,0,1,1.469-1.5,3.648,3.648,0,0,1,2-.5,2.857,2.857,0,0,1,2.125.891,3.08,3.08,0,0,1,.8,2.18l-1.32-.008a2.029,2.029,0,0,0-.461-1.34,1.607,1.607,0,0,0-1.2-.543,2.254,2.254,0,0,0-1.832.82,4.3,4.3,0,0,0-.91,2.359l-.023.2a6.776,6.776,0,0,0-.016,1.031,2.355,2.355,0,0,0,.516,1.445A1.656,1.656,0,0,0,45.91-1.016Zm7.273-6.406A3.275,3.275,0,0,1,55.738-8.6a2.058,2.058,0,0,1,1.762.816,3.217,3.217,0,0,1,.426,2.246L57,0H55.59l.93-5.562a2.968,2.968,0,0,0,.008-.711,1.168,1.168,0,0,0-1.289-1.117A2.6,2.6,0,0,0,53-6.031L51.957,0H50.543l2.086-12h1.414Z" transform="translate(1086 906.75)" fill="#12263f"/>
  </g>
</svg>
