<svg xmlns="http://www.w3.org/2000/svg" xmlns:xlink="http://www.w3.org/1999/xlink" width="147" height="127" viewBox="0 0 147 127">
  <defs>
    <clipPath id="clip-path">
      <rect id="Rectángulo_45936" data-name="Rectángulo 45936" width="147" height="127" transform="translate(777 6643)" fill="#fff" opacity="0.69"/>
    </clipPath>
    <clipPath id="clip-path-2">
      <rect id="Rectángulo_45935" data-name="Rectángulo 45935" width="130.97" height="148.132" transform="translate(180.371 7235.098)" fill="#ffe891" opacity="0.27"/>
    </clipPath>
  </defs>
  <g id="Grupo_982694" data-name="Grupo 982694" transform="translate(-728 -6294.286)">
    <g id="Enmascarar_grupo_359" data-name="Enmascarar grupo 359" transform="translate(-49 -348.714)" clip-path="url(#clip-path)">
      <g id="Enmascarar_grupo_358" data-name="Enmascarar grupo 358" transform="matrix(0.454, -0.891, 0.891, 0.454, -5772.359, 3604.917)" clip-path="url(#clip-path-2)">
        <path id="Trazado_188134" data-name="Trazado 188134" d="M117.877,30.8C116.98,15.575,106.334,1.035,91.914.133,75.353-1.259,60.152,8.706,43.655,8.811c-8.412.791-16.3-2.743-24.5-3.884C.641,4.182-2.18,28.055,1.273,43.442,15.836,115.986,118.885,106.116,117.877,30.8Z" transform="matrix(-0.602, 0.799, -0.799, -0.602, 303.8, 7268.785)" fill="#e1e8ff"/>
        <path id="Trazado_188135" data-name="Trazado 188135" d="M.008,33.061C.939,16.717,11.991,1.111,26.96.143c17.193-1.494,32.974,9.2,50.1,9.314,8.733.849,16.923-2.944,25.433-4.168,19.222-.8,22.15,24.822,18.565,41.337C105.941,124.484-1.039,113.891.008,33.061Z" transform="translate(177.117 7336.653) rotate(-45)" fill="#6b8dfc" opacity="0.388" style="mix-blend-mode: multiply;isolation: isolate"/>
      </g>
    </g>
    <g id="Grupo_180218" data-name="Grupo 180218" transform="translate(-54.083 6199.282)">
      <g id="Background_Complete" data-name="Background Complete" transform="translate(797.288 108.004)">
        <g id="Grupo_180219" data-name="Grupo 180219" transform="translate(0 18.857)">
          <rect id="Rectángulo_45937" data-name="Rectángulo 45937" width="7.439" height="3.143" transform="translate(4.15 47.244)" fill="#ebebeb"/>
          <rect id="Rectángulo_45938" data-name="Rectángulo 45938" width="7.439" height="3.143" transform="translate(0 51.207)" fill="#ebebeb"/>
          <rect id="Rectángulo_45939" data-name="Rectángulo 45939" width="7.439" height="3.143" transform="translate(94.119)" fill="#ebebeb"/>
          <rect id="Rectángulo_45940" data-name="Rectángulo 45940" width="7.439" height="3.143" transform="translate(89.969 3.964)" fill="#ebebeb"/>
          <rect id="Rectángulo_45941" data-name="Rectángulo 45941" width="7.439" height="3.143" transform="translate(85.836)" fill="#ebebeb"/>
          <rect id="Rectángulo_45942" data-name="Rectángulo 45942" width="7.439" height="3.143" transform="translate(115.413 51.207)" fill="#ebebeb"/>
        </g>
        <g id="Grupo_180228" data-name="Grupo 180228" transform="translate(69.761)">
          <g id="Grupo_180222" data-name="Grupo 180222" transform="translate(0 21.345)">
            <rect id="Rectángulo_45946" data-name="Rectángulo 45946" width="48.354" height="2.871" transform="translate(48.354 2.871) rotate(180)" fill="#ebebeb"/>
            <g id="Grupo_180220" data-name="Grupo 180220" transform="translate(41.812 2.872)">
              <rect id="Rectángulo_45947" data-name="Rectángulo 45947" width="2.872" height="9.496" fill="#ebebeb"/>
              <rect id="Rectángulo_45948" data-name="Rectángulo 45948" width="2.872" height="2.935" fill="#dbdbdb"/>
            </g>
            <g id="Grupo_180221" data-name="Grupo 180221" transform="translate(3.669 2.872)">
              <rect id="Rectángulo_45949" data-name="Rectángulo 45949" width="2.872" height="9.496" fill="#ebebeb"/>
              <rect id="Rectángulo_45950" data-name="Rectángulo 45950" width="2.872" height="2.935" fill="#dbdbdb"/>
            </g>
          </g>
          <g id="Grupo_180227" data-name="Grupo 180227" transform="translate(5.393 0)">
            <rect id="Rectángulo_45951" data-name="Rectángulo 45951" width="18.299" height="4.608" transform="translate(30.741 3.047) rotate(90)" fill="#c7c7c7"/>
            <rect id="Rectángulo_45952" data-name="Rectángulo 45952" width="2.011" height="4.608" transform="translate(30.741 2.069) rotate(90)" fill="#dbdbdb"/>
            <rect id="Rectángulo_45953" data-name="Rectángulo 45953" width="0.746" height="4.608" transform="translate(30.741 6.656) rotate(90)" fill="#dbdbdb"/>
            <rect id="Rectángulo_45954" data-name="Rectángulo 45954" width="2.011" height="5.182" transform="translate(30.741 16.934) rotate(90)" fill="#dbdbdb"/>
            <g id="Grupo_180223" data-name="Grupo 180223" transform="translate(22.912)">
              <rect id="Rectángulo_45955" data-name="Rectángulo 45955" width="21.346" height="3.22" transform="translate(3.22 0) rotate(90)" fill="#dbdbdb"/>
              <rect id="Rectángulo_45956" data-name="Rectángulo 45956" width="8.21" height="1.933" transform="translate(2.591 2.007) rotate(90)" fill="#ebebeb"/>
            </g>
            <g id="Grupo_180224" data-name="Grupo 180224" transform="translate(0 4.053)">
              <rect id="Rectángulo_45957" data-name="Rectángulo 45957" width="21.345" height="3.22" transform="translate(17.445 2.29) rotate(135.334)" fill="#c7c7c7"/>
              <rect id="Rectángulo_45958" data-name="Rectángulo 45958" width="8.21" height="1.933" transform="translate(11.205 7.538) rotate(135.334)" fill="#dbdbdb"/>
            </g>
            <g id="Grupo_180225" data-name="Grupo 180225" transform="translate(17.445 5.135)">
              <rect id="Rectángulo_45959" data-name="Rectángulo 45959" width="16.214" height="5.469" transform="translate(5.469 0) rotate(90)" fill="#a6a6a6"/>
              <rect id="Rectángulo_45960" data-name="Rectángulo 45960" width="1.511" height="5.469" transform="translate(5.469 12.984) rotate(90)" fill="#c7c7c7"/>
              <rect id="Rectángulo_45961" data-name="Rectángulo 45961" width="0.586" height="5.469" transform="translate(5.469 11.406) rotate(90)" fill="#c7c7c7"/>
            </g>
            <g id="Grupo_180226" data-name="Grupo 180226" transform="translate(30.741 6.112)">
              <rect id="Rectángulo_45962" data-name="Rectángulo 45962" width="15.237" height="3.778" transform="translate(3.778 0) rotate(90)" fill="#a6a6a6"/>
              <rect id="Rectángulo_45963" data-name="Rectángulo 45963" width="1.42" height="3.778" transform="translate(3.778 12.202) rotate(90)" fill="#c7c7c7"/>
              <rect id="Rectángulo_45964" data-name="Rectángulo 45964" width="1.42" height="3.778" transform="translate(3.778 3.141) rotate(90)" fill="#c7c7c7"/>
              <rect id="Rectángulo_45965" data-name="Rectángulo 45965" width="0.551" height="3.778" transform="translate(3.778 5.534) rotate(90)" fill="#c7c7c7"/>
            </g>
          </g>
        </g>
        <g id="Grupo_180235" data-name="Grupo 180235" transform="translate(6.531 0)">
          <rect id="Rectángulo_45966" data-name="Rectángulo 45966" width="40.117" height="44.757" fill="#dbdbdb"/>
          <rect id="Rectángulo_45967" data-name="Rectángulo 45967" width="34.832" height="39.495" transform="translate(2.643 2.643)" fill="#ebebeb"/>
          <g id="Grupo_180234" data-name="Grupo 180234" transform="translate(5.791 5.627)">
            <g id="Grupo_180229" data-name="Grupo 180229" transform="translate(0 4)">
              <rect id="Rectángulo_45968" data-name="Rectángulo 45968" width="12.278" height="14.548" fill="#fff"/>
              <path id="Trazado_188136" data-name="Trazado 188136" d="M862.316,168.764a.441.441,0,1,1-.441-.441A.442.442,0,0,1,862.316,168.764Z" transform="translate(-855.735 -167.775)" fill="#455a64"/>
              <path id="Trazado_188137" data-name="Trazado 188137" d="M849.468,176.449c1.241-.1,2.483-.1,3.724-.115,1.241.014,2.482.019,3.724.115-1.242.1-2.483.1-3.724.115C851.951,176.551,850.709,176.545,849.468,176.449Z" transform="translate(-847.132 -173.536)" fill="#ebebeb"/>
              <path id="Trazado_188138" data-name="Trazado 188138" d="M849.468,180.542a16.087,16.087,0,0,1,2.025-.115,15.89,15.89,0,0,1,2.025.115,17.806,17.806,0,0,1-4.049,0Z" transform="translate(-847.132 -176.479)" fill="#ebebeb"/>
              <path id="Trazado_188139" data-name="Trazado 188139" d="M849.468,184.635c.862-.09,1.725-.111,2.587-.116a25.872,25.872,0,0,1,2.587.116c-.862.09-1.725.111-2.587.115S850.331,184.725,849.468,184.635Z" transform="translate(-847.132 -179.421)" fill="#ebebeb"/>
              <path id="Trazado_188140" data-name="Trazado 188140" d="M849.468,188.727c1.079-.09,2.158-.111,3.237-.115s2.158.025,3.237.115c-1.079.091-2.158.112-3.237.115S850.547,188.817,849.468,188.727Z" transform="translate(-847.132 -182.364)" fill="#ebebeb"/>
              <path id="Trazado_188141" data-name="Trazado 188141" d="M849.468,192.82c.937-.09,1.875-.111,2.812-.115s1.875.025,2.812.115c-.937.09-1.874.111-2.812.115S850.405,192.91,849.468,192.82Z" transform="translate(-847.132 -185.308)" fill="#ebebeb"/>
              <path id="Trazado_188142" data-name="Trazado 188142" d="M849.468,196.913c1.2-.1,2.4-.1,3.6-.115,1.2.013,2.4.019,3.6.115-1.2.1-2.4.1-3.6.115C851.867,197.015,850.668,197.009,849.468,196.913Z" transform="translate(-847.132 -188.251)" fill="#ebebeb"/>
              <path id="Trazado_188143" data-name="Trazado 188143" d="M849.468,201.005a21.257,21.257,0,0,1,2.324-.115,20.985,20.985,0,0,1,2.325.115,20.834,20.834,0,0,1-2.325.115A21.11,21.11,0,0,1,849.468,201.005Z" transform="translate(-847.132 -191.193)" fill="#ebebeb"/>
              <path id="Trazado_188144" data-name="Trazado 188144" d="M849.468,205.1c1.241-.1,2.483-.1,3.724-.115,1.241.014,2.482.019,3.724.115-1.242.1-2.483.1-3.724.115C851.951,205.2,850.709,205.194,849.468,205.1Z" transform="translate(-847.132 -194.136)" fill="#ebebeb"/>
              <path id="Trazado_188145" data-name="Trazado 188145" d="M849.468,209.191c1.241-.1,2.483-.1,3.724-.115,1.241.013,2.482.019,3.724.115-1.242.1-2.483.1-3.724.115C851.951,209.293,850.709,209.287,849.468,209.191Z" transform="translate(-847.132 -197.08)" fill="#ebebeb"/>
            </g>
            <g id="Grupo_180232" data-name="Grupo 180232" transform="translate(14.146 13.07)">
              <rect id="Rectángulo_45969" data-name="Rectángulo 45969" width="14.528" height="17.214" fill="#fff"/>
              <path id="Trazado_188146" data-name="Trazado 188146" d="M916.677,205.8a.441.441,0,1,1-.441-.441A.441.441,0,0,1,916.677,205.8Z" transform="translate(-908.972 -203.477)" fill="#455a64"/>
              <g id="Grupo_180230" data-name="Grupo 180230" transform="translate(2.033 4.18)">
                <path id="Trazado_188147" data-name="Trazado 188147" d="M898.745,213.654a10.194,10.194,0,0,1,1.611-.115,10.054,10.054,0,0,1,1.611.115,10.12,10.12,0,0,1-1.611.115A10.256,10.256,0,0,1,898.745,213.654Z" transform="translate(-898.745 -213.539)" fill="#ebebeb"/>
                <path id="Trazado_188148" data-name="Trazado 188148" d="M898.745,218.274a18.9,18.9,0,0,1,4.172,0,16.9,16.9,0,0,1-2.086.115A17.129,17.129,0,0,1,898.745,218.274Z" transform="translate(-898.745 -216.861)" fill="#ebebeb"/>
                <path id="Trazado_188149" data-name="Trazado 188149" d="M898.745,222.894a14.72,14.72,0,0,1,1.932-.115,14.532,14.532,0,0,1,1.932.115,14.476,14.476,0,0,1-1.932.116A14.668,14.668,0,0,1,898.745,222.894Z" transform="translate(-898.745 -220.183)" fill="#ebebeb"/>
                <path id="Trazado_188150" data-name="Trazado 188150" d="M898.745,227.515a14.665,14.665,0,0,1,1.932-.115,14.435,14.435,0,0,1,1.932.115,14.527,14.527,0,0,1-1.932.115A14.715,14.715,0,0,1,898.745,227.515Z" transform="translate(-898.745 -223.506)" fill="#ebebeb"/>
                <path id="Trazado_188151" data-name="Trazado 188151" d="M898.745,232.135a11.1,11.1,0,0,1,1.679-.115,10.944,10.944,0,0,1,1.678.115,10.981,10.981,0,0,1-1.678.115A11.1,11.1,0,0,1,898.745,232.135Z" transform="translate(-898.745 -226.828)" fill="#ebebeb"/>
                <path id="Trazado_188152" data-name="Trazado 188152" d="M898.745,236.755a18.172,18.172,0,0,1,2.149-.115,17.938,17.938,0,0,1,2.149.115,17.888,17.888,0,0,1-2.149.116A18.127,18.127,0,0,1,898.745,236.755Z" transform="translate(-898.745 -230.15)" fill="#ebebeb"/>
                <path id="Trazado_188153" data-name="Trazado 188153" d="M898.745,241.376a12.326,12.326,0,0,1,1.773-.115,12.173,12.173,0,0,1,1.773.115,12.244,12.244,0,0,1-1.773.115A12.4,12.4,0,0,1,898.745,241.376Z" transform="translate(-898.745 -233.473)" fill="#ebebeb"/>
                <path id="Trazado_188154" data-name="Trazado 188154" d="M898.745,246a19.442,19.442,0,0,1,2.223-.115,19.2,19.2,0,0,1,2.224.115,19.129,19.129,0,0,1-2.224.115A19.39,19.39,0,0,1,898.745,246Z" transform="translate(-898.745 -236.795)" fill="#ebebeb"/>
                <path id="Trazado_188155" data-name="Trazado 188155" d="M898.745,250.617a19.38,19.38,0,0,1,2.223-.116,19.142,19.142,0,0,1,2.224.116,19.2,19.2,0,0,1-2.224.115A19.438,19.438,0,0,1,898.745,250.617Z" transform="translate(-898.745 -240.118)" fill="#ebebeb"/>
              </g>
              <g id="Grupo_180231" data-name="Grupo 180231" transform="translate(8.381 4.18)">
                <path id="Trazado_188156" data-name="Trazado 188156" d="M921.343,213.654a17.437,17.437,0,0,1,2.111-.115,17.2,17.2,0,0,1,2.111.115,17.315,17.315,0,0,1-2.111.115A17.544,17.544,0,0,1,921.343,213.654Z" transform="translate(-921.343 -213.539)" fill="#ebebeb"/>
                <path id="Trazado_188157" data-name="Trazado 188157" d="M921.343,218.274a7.61,7.61,0,0,1,1.388-.115,7.532,7.532,0,0,1,1.388.115,7.534,7.534,0,0,1-1.388.115A7.636,7.636,0,0,1,921.343,218.274Z" transform="translate(-921.343 -216.861)" fill="#ebebeb"/>
                <path id="Trazado_188158" data-name="Trazado 188158" d="M921.343,222.894a15.545,15.545,0,0,1,1.986-.115,15.34,15.34,0,0,1,1.986.115,15.281,15.281,0,0,1-1.986.116A15.49,15.49,0,0,1,921.343,222.894Z" transform="translate(-921.343 -220.183)" fill="#ebebeb"/>
                <path id="Trazado_188159" data-name="Trazado 188159" d="M921.343,227.515a14.667,14.667,0,0,1,1.932-.115,14.437,14.437,0,0,1,1.932.115,14.528,14.528,0,0,1-1.932.115A14.717,14.717,0,0,1,921.343,227.515Z" transform="translate(-921.343 -223.506)" fill="#ebebeb"/>
                <path id="Trazado_188160" data-name="Trazado 188160" d="M921.343,232.135a17.493,17.493,0,0,1,2.111-.115,17.26,17.26,0,0,1,2.111.115,17.318,17.318,0,0,1-2.111.115A17.493,17.493,0,0,1,921.343,232.135Z" transform="translate(-921.343 -226.828)" fill="#ebebeb"/>
                <path id="Trazado_188161" data-name="Trazado 188161" d="M921.343,236.755a11.131,11.131,0,0,1,1.679-.115,10.985,10.985,0,0,1,1.679.115,10.954,10.954,0,0,1-1.679.116A11.1,11.1,0,0,1,921.343,236.755Z" transform="translate(-921.343 -230.15)" fill="#ebebeb"/>
                <path id="Trazado_188162" data-name="Trazado 188162" d="M921.343,241.376a15.437,15.437,0,0,1,1.986-.115,15.24,15.24,0,0,1,1.986.115,15.329,15.329,0,0,1-1.986.115A15.537,15.537,0,0,1,921.343,241.376Z" transform="translate(-921.343 -233.473)" fill="#ebebeb"/>
                <path id="Trazado_188163" data-name="Trazado 188163" d="M921.343,246a9.333,9.333,0,0,1,1.536-.115,9.213,9.213,0,0,1,1.536.115,9.179,9.179,0,0,1-1.536.115A9.308,9.308,0,0,1,921.343,246Z" transform="translate(-921.343 -236.795)" fill="#ebebeb"/>
                <path id="Trazado_188164" data-name="Trazado 188164" d="M921.343,250.617a8.568,8.568,0,0,1,1.474-.116,8.46,8.46,0,0,1,1.473.116,8.483,8.483,0,0,1-1.473.115A8.593,8.593,0,0,1,921.343,250.617Z" transform="translate(-921.343 -240.118)" fill="#ebebeb"/>
              </g>
            </g>
            <g id="Grupo_180233" data-name="Grupo 180233" transform="translate(11.148)">
              <rect id="Rectángulo_45970" data-name="Rectángulo 45970" width="7.387" height="7.387" fill="#ffc727"/>
              <path id="Trazado_188165" data-name="Trazado 188165" d="M893.295,153.674a.441.441,0,1,1-.441-.441A.441.441,0,0,1,893.295,153.674Z" transform="translate(-889.16 -152.924)" fill="#455a64"/>
            </g>
          </g>
          <rect id="Rectángulo_45971" data-name="Rectángulo 45971" width="0.997" height="39.539" transform="translate(36.445 2.643)" fill="#c7c7c7"/>
        </g>
        <g id="Grupo_180313" data-name="Grupo 180313" transform="translate(-311.753 1.274)">
          <path id="Trazado_188308" data-name="Trazado 188308" d="M980.269,2.371c-.016-.666-.04-1.325-.047-1.98l.1.1c-1.579.018-3.157.057-4.735.059L970.849.57l.178-.179-.019,4-.159-.159c.78.006,1.558,0,2.341.02l2.353.04,4.776.1Zm-4.643,2.122-2.382.04c-.8.017-1.6.014-2.394.02h-.158v-.16l-.019-4V.212h.179l4.735.023c1.578,0,3.157.04,4.735.059h.1v.1c-.007.679-.031,1.354-.047,2.022l-.051,1.98Z" transform="translate(-545.682 -0.212)" fill="#ebebeb"/>
          <path id="Trazado_188309" data-name="Trazado 188309" d="M995.475,16.9c-.016-.666-.04-1.325-.047-1.98l.1.1c-1.578.018-3.156.057-4.735.058l-4.735.023.179-.179-.019,4-.159-.159c.78.007,1.558,0,2.341.02l2.353.04,4.777.1Zm-4.643,2.122-2.382.04c-.8.017-1.6.014-2.394.02H985.9v-.161l-.019-4v-.18h.18l4.735.022c1.579,0,3.157.04,4.735.059h.1v.1c-.007.679-.031,1.354-.047,2.022l-.051,1.98Z" transform="translate(-555.605 -9.691)" fill="#ebebeb"/>
        </g>
      </g>
      <g id="Character" transform="translate(817.227 122.935)">
        <g id="Grupo_180293" data-name="Grupo 180293" transform="translate(0 0)">
          <g id="Grupo_180292" data-name="Grupo 180292">
            <g id="Grupo_180236" data-name="Grupo 180236" transform="translate(0 23.023)">
              <path id="Trazado_188166" data-name="Trazado 188166" d="M905.662,320.014c-.312.4-26.539,1.572-27.789,1.213a.818.818,0,0,1-.173-.074c-1.544-.723-8.694-7.289-9.231-7.84-1.324-1.359,4.154-10.911,5.9-12.491a8.147,8.147,0,0,1,3.312-1.462s6.076-17.529,9.82-21.2c.94-.921,17.2-1.281,20.11.045,1.244.567,4.271,3.659,4.354,4.214l0,.006C912.041,283.234,905.975,319.612,905.662,320.014Z" transform="translate(-868.265 -274.493)" fill="#37474f"/>
              <path id="Trazado_188167" data-name="Trazado 188167" d="M929.814,332.357c-.312.4-26.539,1.572-27.789,1.213a.827.827,0,0,1-.173-.074c2.512-6.794,14.327-38.679,14.663-38.884s15.878-.112,19.6.156C936.193,295.577,930.128,331.955,929.814,332.357Z" transform="translate(-892.416 -286.836)" fill="#263238"/>
              <path id="Trazado_188168" data-name="Trazado 188168" d="M966.44,272.172c-.262-.247-.436-3.811.046-4.519.541-.8,6.778-.4,7.146.275a12.544,12.544,0,0,1,.356,4.367c-.188.128-1.228.252-1.368.023s-.132-3.173-.242-3.328a18.838,18.838,0,0,0-4.628-.215c-.15.225.216,3.2.041,3.333S966.7,272.412,966.44,272.172Z" transform="translate(-938.675 -267.21)" fill="#37474f"/>
            </g>
            <g id="Grupo_180242" data-name="Grupo 180242" transform="translate(11.591 67.551)">
              <g id="Grupo_180239" data-name="Grupo 180239" transform="translate(10.258)">
                <g id="Grupo_180238" data-name="Grupo 180238">
                  <path id="Trazado_188169" data-name="Trazado 188169" d="M977.73,444.635H951.157c-1.619-6.174-3.1-11.632-4.053-15.077-.595-2.166-.976-3.54-1.049-3.8-.01-.032-.013-.045-.013-.045h27.632s.315,1.444.843,3.874c.334,1.565.761,3.543,1.247,5.8.041.2.086.4.127.6C976.448,438.588,977.075,441.524,977.73,444.635Z" transform="translate(-946.042 -425.715)" fill="#455a64"/>
                  <g id="Grupo_180237" data-name="Grupo 180237" transform="translate(4.553 3.323)">
                    <path id="Trazado_188170" data-name="Trazado 188170" d="M966.837,453.142h-.5q-2.037-7.514-3.979-15.055l-.108-.423a.1.1,0,0,1,.181-.054c.048.159.1.318.14.477C964.038,443.09,965.447,448.113,966.837,453.142Z" transform="translate(-962.248 -437.545)" fill="#263238"/>
                  </g>
                </g>
              </g>
              <g id="Grupo_180241" data-name="Grupo 180241" transform="translate(0 0.045)">
                <path id="Trazado_188171" data-name="Trazado 188171" d="M945.26,425.874a26.09,26.09,0,0,1-.945,3.874c-.309,1.005-.681,2.093-1.1,3.213-.089.255-.191.5-.289.757-1.339,3.413-3.1,6.89-4.9,8.541,0,0,0,0-.006,0h-.006a4.519,4.519,0,0,1-.693.544l-1.54.951a.057.057,0,0,1-.006.022v0c-.016.092-.07.426-.159.967H909.7a35.874,35.874,0,0,1,1.925-15.147,31.319,31.319,0,0,1,1.5-3.728Z" transform="translate(-909.526 -425.874)" fill="#455a64"/>
                <g id="Grupo_180240" data-name="Grupo 180240" transform="translate(2.585 0.562)">
                  <path id="Trazado_188172" data-name="Trazado 188172" d="M1000.779,478.383a49.239,49.239,0,0,1-5.029,2.4c-.458.2-.916.391-1.38.579h0c-.029.013-.057.025-.086.035-.4.165-.8.325-1.206.48s-.782.308-1.18.455h-.878c.6-.305,1.237-.563,1.851-.837q1.283-.572,2.57-1.135c.391-.169.783-.34,1.171-.515l.013,0c1.339-.595,2.675-1.189,4.053-1.692C1000.811,478.1,1000.9,478.31,1000.779,478.383Z" transform="translate(-970.71 -464.024)" fill="#263238"/>
                  <path id="Trazado_188173" data-name="Trazado 188173" d="M1002.095,489.575c0,.2-.016.537-.054.951h-.29c.089-.388.172-.706.248-.935a.09.09,0,0,1,.01-.025.041.041,0,0,1,.076-.01h0v0A.018.018,0,0,1,1002.095,489.575Z" transform="translate(-978.428 -472.212)" fill="#263238"/>
                  <path id="Trazado_188174" data-name="Trazado 188174" d="M922.254,431.294c-.35.7-.668,1.412-.964,2.141a28.805,28.805,0,0,0-1.956,13.894c.048.41.105.817.169,1.224h-.458a28.719,28.719,0,0,1-.309-3.581A27.329,27.329,0,0,1,921,433.429c.331-.757.7-1.5,1.1-2.22C922.156,431.11,922.305,431.2,922.254,431.294Z" transform="translate(-918.729 -430.24)" fill="#263238"/>
                  <path id="Trazado_188175" data-name="Trazado 188175" d="M1000.646,438.005c.025-1,.1-2,.145-2.993.117-2.354.208-4.722.426-7.069a.073.073,0,0,1,.146,0c.03,1.821-.041,3.648-.077,5.469-.019.912-.045,1.823-.07,2.734a25.789,25.789,0,0,0-.017,2.611c.049.656.193,1.933,1.05,2.012.807.074,1.447-.8,1.648-1.436a24.969,24.969,0,0,0,.859-5.058c.1-1,.214-5.063.159-6.073,0-.065.1-.062.1,0,.056,1.028.2,2.051.231,3.085s.037,2.056-.029,3.081c-.064.983-.146,1.971-.294,2.946a10.6,10.6,0,0,1-.633,2.605,2.3,2.3,0,0,1-1.582,1.477,1.613,1.613,0,0,1-.288.029c-.009.211-.038.424-.053.633-.023.33-.064.658-.108.986a7.479,7.479,0,0,1-.2.954,3.554,3.554,0,0,1-.335.912.051.051,0,0,1-.094-.028,4.451,4.451,0,0,1,.079-.94c.044-.32.088-.645.155-.962s.122-.624.187-.936c.043-.209.072-.424.112-.637a1.531,1.531,0,0,1-1.144-.9A5.582,5.582,0,0,1,1000.646,438.005Z" transform="translate(-977.63 -427.874)" fill="#263238"/>
                </g>
              </g>
            </g>
            <g id="Grupo_180291" data-name="Grupo 180291" transform="translate(12.317)">
              <g id="Grupo_180251" data-name="Grupo 180251" transform="translate(21.7 2.59)">
                <g id="Grupo_180249" data-name="Grupo 180249" transform="translate(0.308)">
                  <g id="Grupo_180243" data-name="Grupo 180243" transform="translate(0 18.161)">
                    <path id="Trazado_188176" data-name="Trazado 188176" d="M991.657,272.766c2.831,3.868,21.009,20.7,32.7,20.692,1.973,0,8.836.81,10.565-4.975,2.011-6.729,1.864-20.967-.212-27.5-1.718-5.4-14.361,2.307-14.572,5.636-.16,2.518.326,10.568-.187,10.547-3.343-.137-14.533-6.269-25.019-9.284C990.074,266.489,989.477,269.786,991.657,272.766Z" transform="translate(-990.451 -259.121)" fill="#d3766a"/>
                  </g>
                  <g id="Grupo_180248" data-name="Grupo 180248" transform="translate(16.612)">
                    <g id="Grupo_180247" data-name="Grupo 180247">
                      <path id="Trazado_188177" data-name="Trazado 188177" d="M1077.515,228.079c-1.08-5.4-3.99-11.1-5.679-12.631s-9.724-4.314-11.666-4.57-8.963,1.424-10.272,2.588c-1.048.932.565,3.358,4.525,3.22,3.7-.13,4.582-.343,5.635-.123,1.074.224,4.1,2.929,3.745,4.476-.21.911-2.433,2.387-4.08,2.015s-2.572-2.05-4.583-3.1-5.013-.258-5.02.6,1.075,1.033,3.2,3.5c1.367,1.587,2.258,4.646,5.158,7.264a45.245,45.245,0,0,0,4.858,3.4Z" transform="translate(-1049.585 -206.251)" fill="#d3766a"/>
                      <g id="Grupo_180244" data-name="Grupo 180244" transform="translate(1.326 3.309)">
                        <path id="Trazado_188178" data-name="Trazado 188178" d="M1074.777,212.322c-1.936-2-6.538-5.381-10.544-6.045-2.708-.449-10.487,5.529-9.9,7.129s2.067,1.3,4.2.6c.777-.258,4.678-2.633,5.576-1.9,1.292,1.059,3.491,5.129,3.491,5.129Z" transform="translate(-1054.304 -206.253)" fill="#d3766a"/>
                        <path id="Trazado_188179" data-name="Trazado 188179" d="M1054.706,217.391c.705-1.987,2.859-3.411,5.04-4.634.034-.019.066.032.032.051-.556.312-4,2.842-5.041,4.606C1054.726,217.434,1054.7,217.411,1054.706,217.391Z" transform="translate(-1054.592 -210.927)" fill="#263238"/>
                      </g>
                      <g id="Grupo_180245" data-name="Grupo 180245" transform="translate(3.248 3.141)">
                        <path id="Trazado_188180" data-name="Trazado 188180" d="M1079.987,212.329c-1.936-2-6.537-5.381-10.544-6.045-2.708-.449-8.441,6.336-7.851,7.936s2.738,1.3,4.914,0c.7-.419,2.877-2.727,3.776-1.991,1.292,1.058,4.452,3.7,4.452,3.7Z" transform="translate(-1061.437 -206.091)" fill="#d3766a"/>
                        <path id="Trazado_188181" data-name="Trazado 188181" d="M1072.462,229.493a7.429,7.429,0,0,0,2.5-1.636,5.989,5.989,0,0,1,2.034-1.445,1.7,1.7,0,0,1,1.078-.008,3.347,3.347,0,0,1,.942.658c.336.285.655.588.969.9s.422.42.732.735c.13.132.027.206-.117.065a11.893,11.893,0,0,0-1.72-1.358,3.89,3.89,0,0,0-.984-.586,1.458,1.458,0,0,0-1.123.155c-.719.388-1.286,1.026-1.968,1.474a6.2,6.2,0,0,1-2.329,1.118C1072.433,229.566,1072.425,229.5,1072.462,229.493Z" transform="translate(-1069.267 -220.513)" fill="#263238"/>
                        <path id="Trazado_188182" data-name="Trazado 188182" d="M1061.334,212a8.283,8.283,0,0,1,1.724-2.457,19.751,19.751,0,0,1,2.3-2.081c.418-.328.844-.646,1.279-.95a4.384,4.384,0,0,1,1.328-.772c1.356-.35,2.868.444,3.457.663.036.013.023.072-.014.058a7.059,7.059,0,0,0-2.9-.57,3.725,3.725,0,0,0-1.4.728c-.371.272-.742.544-1.105.825a15.942,15.942,0,0,0-3.963,4.089,2.616,2.616,0,0,0-.21,2.91c.022.033-.023.065-.051.042A2.222,2.222,0,0,1,1061.334,212Z" transform="translate(-1061.148 -205.653)" fill="#263238"/>
                      </g>
                      <g id="Grupo_180246" data-name="Grupo 180246" transform="translate(10.843)">
                        <path id="Trazado_188183" data-name="Trazado 188183" d="M1102.581,208.369a52.023,52.023,0,0,0-5.692-9.25c-1.154-1.205-6.111-5.176-7.926-4.589-2.28.738,1.013,4.446,2.59,5.927s1.973,4.467,1.973,4.467Z" transform="translate(-1088.183 -194.472)" fill="#d3766a"/>
                        <path id="Trazado_188184" data-name="Trazado 188184" d="M1091.814,206.772c.547.46,1.056.989,1.554,1.5a13.939,13.939,0,0,1,1.4,1.5,6.173,6.173,0,0,1,.849,1.829c.1.319.174.64.242.966.075.355.117.72.2,1.073.009.038-.048.055-.058.017a15.483,15.483,0,0,0-.649-1.883,8.436,8.436,0,0,0-.979-1.807c-.8-1.111-1.818-2.037-2.623-3.14C1091.71,206.787,1091.775,206.74,1091.814,206.772Z" transform="translate(-1090.736 -203.309)" fill="#263238"/>
                      </g>
                    </g>
                  </g>
                </g>
                <g id="Grupo_180250" data-name="Grupo 180250" transform="translate(0 26.303)">
                  <path id="Trazado_188185" data-name="Trazado 188185" d="M1018.873,290.583l19.44,4.416s-2,15.409-6.034,18.248-13.892,1.717-19.9-1.97-17.611-11.5-21.5-17.227.416-6.937,4.536-5.245,23,8.678,23.2,8.545S1018.873,290.583,1018.873,290.583Z" transform="translate(-989.356 -288.103)" fill="#ffc727"/>
                  <path id="Trazado_188186" data-name="Trazado 188186" d="M1036.179,307.1a.832.832,0,0,1-.337.163.675.675,0,0,1-.613-.188.844.844,0,0,0-.955-.166.888.888,0,0,0-.351.312c-.078.112-.166.222-.241.351a3.382,3.382,0,0,0,.362-.239,1.087,1.087,0,0,1,.326-.174.669.669,0,0,1,.621.166.871.871,0,0,0,.938.2.842.842,0,0,0,.368-.3c.079-.121.166-.233.233-.362A3.911,3.911,0,0,0,1036.179,307.1Zm-15.437,2.61a.65.65,0,0,1-.326.163.662.662,0,0,1-.621-.18.849.849,0,0,0-.947-.174.928.928,0,0,0-.354.312,3.7,3.7,0,0,0-.242.36,3.356,3.356,0,0,0,.362-.239.743.743,0,0,1,.326-.174.648.648,0,0,1,.612.166.884.884,0,0,0,.947.2.842.842,0,0,0,.362-.3c.076-.121.171-.233.241-.362C1020.976,309.55,1020.863,309.634,1020.742,309.713Zm7.731-15.232a.708.708,0,0,1-.326.166.646.646,0,0,1-.612-.191.874.874,0,0,0-.955-.163.833.833,0,0,0-.354.309c-.076.121-.171.233-.242.362.129-.079.242-.163.362-.242a.7.7,0,0,1,.329-.171.64.64,0,0,1,.618.155.847.847,0,0,0,1.309-.1c.079-.121.163-.233.233-.362C1028.706,294.318,1028.594,294.405,1028.473,294.481Zm-13.894,9.015a3.965,3.965,0,0,0-.087-.421c-.034.138-.051.275-.087.421a.873.873,0,0,1-.1.354.644.644,0,0,1-.553.317.89.89,0,0,0-.809.534.837.837,0,0,0-.042.475,3.471,3.471,0,0,0,.087.421,4.14,4.14,0,0,0,.084-.421.772.772,0,0,1,.121-.354.644.644,0,0,1,.568-.3.847.847,0,0,0,.784-.559A.8.8,0,0,0,1014.579,303.5Zm-1.77-8.86a3.429,3.429,0,0,0-.084-.424c-.034.138-.053.278-.087.424a.821.821,0,0,1-.1.351.636.636,0,0,1-.551.32.839.839,0,0,0-.851,1,3.841,3.841,0,0,0,.084.43,3.329,3.329,0,0,0,.087-.43.748.748,0,0,1,.121-.343.641.641,0,0,1,.568-.3.878.878,0,0,0,.792-.559A.825.825,0,0,0,1012.809,294.636Zm23.659,17.117a3.39,3.39,0,0,0-.084-.421c-.037.138-.053.275-.087.421a.83.83,0,0,1-.1.354.639.639,0,0,1-.55.317.887.887,0,0,0-.809.534.84.84,0,0,0-.042.466,3.9,3.9,0,0,0,.084.43,3.31,3.31,0,0,0,.087-.43.737.737,0,0,1,.121-.345.64.64,0,0,1,.567-.3.836.836,0,0,0,.817-1.025Zm-8.22-9.144a3.37,3.37,0,0,0-.084-.421c-.034.138-.053.275-.087.421a.819.819,0,0,1-.1.354.628.628,0,0,1-.551.317.84.84,0,0,0-.851,1,3.9,3.9,0,0,0,.084.43,3.311,3.311,0,0,0,.087-.43.765.765,0,0,1,.121-.346.644.644,0,0,1,.567-.3.883.883,0,0,0,.792-.559A.834.834,0,0,0,1028.249,302.608Zm8.22-2.09a.878.878,0,0,1-.345-.112.654.654,0,0,1-.3-.567.87.87,0,0,0-.559-.792.793.793,0,0,0-.466-.037c-.146.037-.284.053-.43.087.146.042.284.059.43.087a.874.874,0,0,1,.354.1.663.663,0,0,1,.317.553.881.881,0,0,0,.534.809.815.815,0,0,0,.466.042,3.352,3.352,0,0,0,.43-.087C1036.752,300.569,1036.615,300.552,1036.469,300.518Zm-7.461,11.838a.853.853,0,0,1-.351-.121.659.659,0,0,1-.3-.568.856.856,0,0,0-1.023-.829c-.149.037-.286.053-.424.087a3.905,3.905,0,0,0,.424.087.752.752,0,0,1,.351.11.657.657,0,0,1,.329.553.853.853,0,0,0,.525.8.834.834,0,0,0,.472.042,3.5,3.5,0,0,0,.421-.087C1029.283,312.4,1029.145,312.382,1029.007,312.356Zm-8.461-11.838a.863.863,0,0,1-.354-.112.7.7,0,0,1-.3-.567.849.849,0,0,0-.553-.792.815.815,0,0,0-.472-.037c-.138.028-.284.045-.422.087.138.042.284.059.422.087a.957.957,0,0,1,.362.1.683.683,0,0,1,.318.553.882.882,0,0,0,.525.809.847.847,0,0,0,.475.042,3.221,3.221,0,0,0,.421-.087C1020.83,300.569,1020.684,300.552,1020.546,300.518Zm-16.529-7.287c-.036-.146-.053-.284-.087-.43-.042.146-.059.284-.087.43a.877.877,0,0,1-.1.354.663.663,0,0,1-.554.317.868.868,0,0,0-.809.534.805.805,0,0,0-.042.463,2.909,2.909,0,0,0,.087.424c.034-.138.051-.275.084-.424a.866.866,0,0,1,.112-.343.641.641,0,0,1,.567-.3.873.873,0,0,0,.792-.562A.789.789,0,0,0,1004.016,293.231ZM996.44,289.1a.768.768,0,0,1-.354-.121.683.683,0,0,1-.3-.567.549.549,0,0,0-.008-.1c-.118.02-.23.042-.34.07a.137.137,0,0,1,0,.034.883.883,0,0,0,.525.809.85.85,0,0,0,.475.042,3.206,3.206,0,0,0,.421-.087A3.7,3.7,0,0,0,996.44,289.1Zm9.546,14.515a.727.727,0,0,1-.351-.121.673.673,0,0,1-.3-.567.868.868,0,0,0-.562-.792.825.825,0,0,0-.464-.025,3.729,3.729,0,0,0-.421.084c.138.037.284.053.421.087a.808.808,0,0,1,.351.1.664.664,0,0,1,.329.551.865.865,0,0,0,.525.809.921.921,0,0,0,.472.042,3.776,3.776,0,0,0,.424-.084A3.249,3.249,0,0,0,1005.986,303.614Z" transform="translate(-993.729 -288.255)" fill="#fff"/>
                  <path id="Trazado_188187" data-name="Trazado 188187" d="M1092.182,325.445c-.039-.5-.051-1.005-.041-1.508a16.067,16.067,0,0,1,.392-2.889c.009-.044.083-.033.078.012-.1.954-.111,1.925-.152,2.883q-.03.713-.037,1.427c-.005.485-.028.978-.005,1.463,0,.03-.048.036-.052.006C1092.3,326.373,1092.219,325.916,1092.182,325.445Z" transform="translate(-1063.264 -311.773)" fill="#263238"/>
                  <path id="Trazado_188188" data-name="Trazado 188188" d="M1114.54,318.742a170.085,170.085,0,0,0-17.068-3.783.027.027,0,0,0-.015.052c6.371,1.882,16.448,3.8,17.067,3.842C1114.591,318.858,1114.6,318.758,1114.54,318.742Z" transform="translate(-1067.075 -307.414)" fill="#263238"/>
                  <path id="Trazado_188189" data-name="Trazado 188189" d="M1032,319.41c-4.2,2.6-13.74,1.444-19.614-2.16-6.011-3.686-17.612-11.5-21.5-17.227a7.454,7.454,0,0,1-1.519-3.614Z" transform="translate(-989.369 -294.076)" opacity="0.1"/>
                </g>
              </g>
              <g id="Grupo_180253" data-name="Grupo 180253" transform="translate(0 27.414)">
                <g id="Grupo_180252" data-name="Grupo 180252">
                  <path id="Trazado_188190" data-name="Trazado 188190" d="M912.139,328.6c.027.036,38.365-1.754,38.614-1.991.462-.44-5.463-30.355-11.67-40.829-1.162-1.961-6.4-4.856-10.208-1.142C917.393,295.842,911.654,327.927,912.139,328.6Z" transform="translate(-912.111 -282.839)" fill="#ffc727"/>
                </g>
                <path id="Trazado_188191" data-name="Trazado 188191" d="M936.442,300.206a.8.8,0,0,1-.345-.121.646.646,0,0,1-.3-.57.836.836,0,0,0-1.025-.817,3.9,3.9,0,0,0-.43.087c.146.034.284.051.43.079a.874.874,0,0,1,.354.11.663.663,0,0,1,.317.553.87.87,0,0,0,.534.8.819.819,0,0,0,.466.051c.146-.034.284-.051.421-.087A3.37,3.37,0,0,0,936.442,300.206Zm7.807,27.912A.79.79,0,0,1,943.9,328a.66.66,0,0,1-.3-.57.86.86,0,0,0-.559-.792.878.878,0,0,0-.464-.025c-.138.025-.284.045-.421.079a3.734,3.734,0,0,0,.421.084.893.893,0,0,1,.351.112.656.656,0,0,1,.329.551.848.848,0,0,0,.525.8.817.817,0,0,0,.472.053c.138-.034.275-.053.424-.087C944.524,328.161,944.387,328.144,944.249,328.119Zm7.784-27.868a1.16,1.16,0,0,0-.171.039c.065.017.129.031.2.042A.4.4,0,0,0,952.033,300.251ZM944.415,287.2a.768.768,0,0,1-.354-.121.683.683,0,0,1-.3-.567.839.839,0,0,0-.551-.784.827.827,0,0,0-.475-.036c-.138.028-.284.045-.421.087.138.034.284.051.421.087a.832.832,0,0,1,.354.1.663.663,0,0,1,.326.551.882.882,0,0,0,.525.809.849.849,0,0,0,.475.042,3.2,3.2,0,0,0,.421-.087A3.7,3.7,0,0,0,944.415,287.2Zm-19.038,24.682a.861.861,0,0,1-.351-.11.7.7,0,0,1-.3-.57.847.847,0,0,0-.216-.559c-.048.152-.093.3-.14.452a.444.444,0,0,1,.011.107.88.88,0,0,0,.525.809.817.817,0,0,0,.472.045,3.815,3.815,0,0,0,.424-.087C925.663,311.932,925.514,311.915,925.377,311.878Zm8.464,11.838a.878.878,0,0,1-.354-.118.664.664,0,0,1-.3-.57.864.864,0,0,0-.559-.792.894.894,0,0,0-.466-.034c-.146.034-.284.051-.421.087a3.385,3.385,0,0,0,.421.084.753.753,0,0,1,.354.112.656.656,0,0,1,.329.551.851.851,0,0,0,.525.8.813.813,0,0,0,.472.045,4.165,4.165,0,0,0,.421-.087C934.116,323.761,933.978,323.745,933.841,323.716Zm6.984-11.5a.837.837,0,0,1-.346-.112.651.651,0,0,1-.3-.567.873.873,0,0,0-.559-.792.77.77,0,0,0-.466-.034c-.146.034-.284.051-.43.084a3.345,3.345,0,0,0,.43.087.833.833,0,0,1,.354.1.658.658,0,0,1,.317.551.881.881,0,0,0,.534.809.815.815,0,0,0,.466.042,3.87,3.87,0,0,0,.43-.084C941.108,312.266,940.971,312.249,940.824,312.216Zm11.709,7.335a.706.706,0,0,1-.346-.121.641.641,0,0,1-.3-.567.873.873,0,0,0-.559-.792.921.921,0,0,0-.475-.025c-.138.025-.275.042-.421.076a3.546,3.546,0,0,0,.421.087.835.835,0,0,1,.362.112.648.648,0,0,1,.318.551.868.868,0,0,0,.525.8.809.809,0,0,0,.475.051c.146-.034.284-.051.421-.084A2.945,2.945,0,0,0,952.533,319.55Zm-1.739-8.877a1,1,0,0,1-.329.183.671.671,0,0,1-.621-.166.871.871,0,0,0-.938-.2.788.788,0,0,0-.368.3c-.079.121-.166.233-.242.362.129-.079.242-.163.362-.242a.828.828,0,0,1,.326-.163.691.691,0,0,1,.621.188.872.872,0,0,0,.955.166.915.915,0,0,0,.354-.312c.076-.121.163-.23.23-.36C951.025,310.51,950.915,310.6,950.794,310.673Zm-14.352-21.5c-.028-.149-.045-.287-.079-.424a3.932,3.932,0,0,0-.087.424.861.861,0,0,1-.109.351.641.641,0,0,1-.553.32.874.874,0,0,0-.8.534.839.839,0,0,0-.05.472c.034.138.05.275.087.421a4.121,4.121,0,0,0,.084-.421.746.746,0,0,1,.121-.351.661.661,0,0,1,.57-.3.839.839,0,0,0,.818-1.023Zm-3.36,24.8a3.389,3.389,0,0,0-.084-.421c-.034.138-.053.275-.087.421a.832.832,0,0,1-.1.354.639.639,0,0,1-.551.317.84.84,0,0,0-.851,1,3.843,3.843,0,0,0,.084.43,3.31,3.31,0,0,0,.087-.43.738.738,0,0,1,.121-.346.641.641,0,0,1,.567-.3.882.882,0,0,0,.792-.559A.834.834,0,0,0,933.082,313.971Zm12.6-10.47c-.034-.138-.051-.275-.087-.421a4.161,4.161,0,0,0-.084.421.861.861,0,0,1-.112.362.644.644,0,0,1-.551.32.854.854,0,0,0-.8.534.7.7,0,0,0-.042.464c.025.146.042.284.076.421a3.415,3.415,0,0,0,.087-.421.84.84,0,0,1,.121-.346.641.641,0,0,1,.567-.3.873.873,0,0,0,.792-.559A1.026,1.026,0,0,0,945.679,303.5ZM927.59,328.624c-.034-.146-.05-.284-.087-.421a3.38,3.38,0,0,0-.084.421.764.764,0,0,1-.112.354.627.627,0,0,1-.551.317.876.876,0,0,0-.8.534.823.823,0,0,0-.045.475c.006.022.008.048.014.07l.143-.006c.006-.022.011-.042.017-.065a.734.734,0,0,1,.112-.354.641.641,0,0,1,.568-.3.861.861,0,0,0,.792-.559A.893.893,0,0,0,927.59,328.624ZM944.724,295.5a.769.769,0,0,1-.329.163.635.635,0,0,1-.61-.188.874.874,0,0,0-.955-.163.834.834,0,0,0-.354.309c-.079.121-.171.233-.242.362.129-.079.242-.163.362-.242a.707.707,0,0,1,.326-.171.644.644,0,0,1,.621.155.846.846,0,0,0,1.309-.1c.079-.121.163-.233.233-.362C944.957,295.34,944.844,295.428,944.724,295.5Zm-11.417,10.341a.674.674,0,0,1-.326.163.638.638,0,0,1-.612-.188.874.874,0,0,0-.955-.163.833.833,0,0,0-.354.309c-.076.121-.171.233-.242.362.129-.079.242-.166.362-.242a.7.7,0,0,1,.329-.171.64.64,0,0,1,.618.155.847.847,0,0,0,1.309-.1c.079-.121.163-.233.233-.362C933.54,305.681,933.428,305.765,933.307,305.844Zm-7.731,15.232a.669.669,0,0,1-.329.163.653.653,0,0,1-.618-.183.853.853,0,0,0-.947-.171.946.946,0,0,0-.354.309,3.374,3.374,0,0,0-.242.362,3.011,3.011,0,0,0,.362-.242.735.735,0,0,1,.326-.171.653.653,0,0,1,.612.163.838.838,0,0,0,1.309-.1c.076-.121.171-.233.242-.362C925.809,320.91,925.7,321,925.576,321.076Zm18.313-1.559a.8.8,0,0,1-.337.163.667.667,0,0,1-.61-.188.849.849,0,0,0-.958-.166.886.886,0,0,0-.351.312c-.079.112-.163.222-.242.351a3.34,3.34,0,0,0,.362-.239,1.126,1.126,0,0,1,.326-.174.67.67,0,0,1,.621.166.846.846,0,0,0,1.309-.1c.076-.121.163-.233.23-.362C944.12,319.345,944.01,319.43,943.889,319.517Zm10.3,6.3a.826.826,0,0,1-.326.163.681.681,0,0,1-.621-.188.861.861,0,0,0-.947-.163.786.786,0,0,0-.354.309,3.881,3.881,0,0,0-.242.362c.129-.079.242-.163.362-.242a.812.812,0,0,1,.329-.18.643.643,0,0,1,.61.163.878.878,0,0,0,.947.2.842.842,0,0,0,.362-.3c.079-.121.171-.233.242-.362C954.418,325.655,954.306,325.742,954.185,325.818Z" transform="translate(-920.004 -284.874)" fill="#fff"/>
              </g>
              <g id="Grupo_180260" data-name="Grupo 180260" transform="translate(23.113 38.091)">
                <g id="Grupo_180254" data-name="Grupo 180254" transform="translate(0 0.468)">
                  <rect id="Rectángulo_45972" data-name="Rectángulo 45972" width="31.511" height="6.034" transform="translate(10.233 0.815) rotate(97.759)" fill="#37474f"/>
                  <rect id="Rectángulo_45973" data-name="Rectángulo 45973" width="31.511" height="6.034" transform="translate(16.213 1.629) rotate(97.759)" fill="#263238"/>
                  <rect id="Rectángulo_45974" data-name="Rectángulo 45974" width="2.937" height="6.034" transform="matrix(-0.135, 0.991, -0.991, -0.135, 6.827, 25.817)" fill="#ffc727"/>
                  <rect id="Rectángulo_45975" data-name="Rectángulo 45975" width="1.139" height="6.034" transform="translate(7.241 22.779) rotate(97.76)" fill="#ffc727"/>
                </g>
                <g id="Grupo_180257" data-name="Grupo 180257" transform="translate(8.114 0)">
                  <rect id="Rectángulo_45976" data-name="Rectángulo 45976" width="33.859" height="5.439" transform="translate(9.961 0.734) rotate(97.759)" fill="#c7c7c7"/>
                  <g id="Grupo_180255" data-name="Grupo 180255" transform="translate(0.556 2.087)">
                    <rect id="Rectángulo_45977" data-name="Rectángulo 45977" width="3.293" height="5.439" transform="translate(9.12 0.734) rotate(97.759)" fill="#ffc727"/>
                    <rect id="Rectángulo_45978" data-name="Rectángulo 45978" width="1.374" height="5.439" transform="translate(8.511 5.206) rotate(97.759)" fill="#ffc727"/>
                    <rect id="Rectángulo_45979" data-name="Rectángulo 45979" width="3.292" height="5.439" transform="matrix(-0.135, 0.991, -0.991, -0.135, 5.834, 24.853)" fill="#ffc727"/>
                  </g>
                  <g id="Grupo_180256" data-name="Grupo 180256" transform="translate(5.385 0.734)">
                    <rect id="Rectángulo_45980" data-name="Rectángulo 45980" width="10.279" height="33.89" transform="matrix(0.991, 0.135, -0.135, 0.991, 4.576, 0)" fill="#ebebeb"/>
                  </g>
                </g>
                <g id="Grupo_180259" data-name="Grupo 180259" transform="translate(14.978 3.014)">
                  <rect id="Rectángulo_45981" data-name="Rectángulo 45981" width="31.259" height="4.519" transform="translate(8.698 0.61) rotate(97.759)" fill="#455a64"/>
                  <rect id="Rectángulo_45982" data-name="Rectángulo 45982" width="31.259" height="8.516" transform="translate(17.136 1.76) rotate(97.759)" fill="#37474f"/>
                  <rect id="Rectángulo_45983" data-name="Rectángulo 45983" width="31.259" height="3.581" transform="translate(8.233 0.547) rotate(97.759)" fill="#fff"/>
                  <g id="Grupo_180258" data-name="Grupo 180258" transform="translate(1.195 2.167)">
                    <path id="Trazado_188192" data-name="Trazado 188192" d="M1063.341,340.3l-.46,3.626-.481,3.623-.964,7.245-1.01,7.239-.506,3.619-.528,3.616.459-3.626.481-3.623.964-7.245,1.01-7.239.506-3.619Z" transform="translate(-1057.305 -340.018)" fill="#dbdbdb"/>
                    <path id="Trazado_188193" data-name="Trazado 188193" d="M1060.862,339.965l-.46,3.626-.481,3.623-.963,7.245-1.01,7.239-.505,3.619-.527,3.616.459-3.626.481-3.623.964-7.245,1.01-7.239.506-3.619Z" transform="translate(-1055.523 -339.775)" fill="#dbdbdb"/>
                    <path id="Trazado_188194" data-name="Trazado 188194" d="M1058.385,339.627l-.46,3.626-.481,3.623-.964,7.245-1.01,7.239-.505,3.619-.528,3.616.459-3.626.481-3.623.964-7.245,1.01-7.239.506-3.619Z" transform="translate(-1053.741 -339.533)" fill="#dbdbdb"/>
                    <path id="Trazado_188195" data-name="Trazado 188195" d="M1055.906,339.29l-.46,3.626-.481,3.623-.964,7.245-1.01,7.239-.505,3.619-.528,3.616.459-3.626.481-3.623.964-7.245,1.01-7.239.506-3.619Z" transform="translate(-1051.959 -339.29)" fill="#dbdbdb"/>
                  </g>
                </g>
              </g>
              <path id="Trazado_188196" data-name="Trazado 188196" d="M929.985,284.972c-.472-.57,2.573-2.251,3.366-1.614s4.794,10.521,3.494,21.245-22.639,22.272-23.423,20.669a4.222,4.222,0,0,1,.611-3.155c.732-.848,16.134-10.149,17.655-16.8C933.043,299.4,931.188,286.426,929.985,284.972Z" transform="translate(-912.971 -255.696)" fill="#455a64"/>
              <g id="Grupo_180271" data-name="Grupo 180271" transform="translate(2.881 30.153)">
                <g id="Grupo_180264" data-name="Grupo 180264">
                  <g id="Grupo_180262" data-name="Grupo 180262" transform="translate(0.098)">
                    <g id="Grupo_180261" data-name="Grupo 180261">
                      <path id="Trazado_188197" data-name="Trazado 188197" d="M931.431,299.3c-6.492,15.673-12.365,37.673-5.924,40.707,4.278,2.015,12.788-14.147,12.87-14.442.278-1.008.473-14.077.781-26.031C939.442,288.491,934.331,292.3,931.431,299.3Z" transform="translate(-922.718 -292.588)" fill="#ffc727"/>
                    </g>
                    <path id="Trazado_188198" data-name="Trazado 188198" d="M937.672,308.077a.805.805,0,0,1-.346-.121.645.645,0,0,1-.3-.57.836.836,0,0,0-1.025-.817,3.88,3.88,0,0,0-.43.087c.146.034.284.051.43.079a.875.875,0,0,1,.354.11.663.663,0,0,1,.318.553.87.87,0,0,0,.534.8.819.819,0,0,0,.466.051c.146-.034.284-.051.422-.087A3.383,3.383,0,0,0,937.672,308.077ZM926.862,319.8a.787.787,0,0,1-.02.079,1.413,1.413,0,0,0,.188-.045A1.639,1.639,0,0,0,926.862,319.8Zm8.209,11.785a.879.879,0,0,1-.354-.118.665.665,0,0,1-.3-.57.864.864,0,0,0-.559-.792.893.893,0,0,0-.466-.034c-.146.034-.284.051-.421.087a3.425,3.425,0,0,0,.421.084.752.752,0,0,1,.354.112.656.656,0,0,1,.329.551.851.851,0,0,0,.525.8.813.813,0,0,0,.472.045,4.164,4.164,0,0,0,.421-.087C935.346,331.632,935.208,331.615,935.07,331.587Zm4.882-12.922a2.8,2.8,0,0,0,.317.07c0-.042,0-.087,0-.132C940.166,318.622,940.062,318.639,939.953,318.665Zm-2.281-21.625c-.028-.149-.045-.287-.079-.424a3.92,3.92,0,0,0-.087.424.862.862,0,0,1-.109.351.641.641,0,0,1-.553.32.874.874,0,0,0-.8.534.839.839,0,0,0-.051.472c.034.138.051.275.087.421a4.158,4.158,0,0,0,.084-.421.744.744,0,0,1,.121-.351.661.661,0,0,1,.57-.3.84.84,0,0,0,.817-1.023Zm-3.36,24.8a3.392,3.392,0,0,0-.084-.421c-.034.138-.053.275-.087.421a.833.833,0,0,1-.1.354.639.639,0,0,1-.551.317.84.84,0,0,0-.851,1,3.87,3.87,0,0,0,.084.43,3.332,3.332,0,0,0,.087-.43.736.736,0,0,1,.121-.346.641.641,0,0,1,.567-.3.882.882,0,0,0,.792-.559A.833.833,0,0,0,934.312,321.842Zm-5.492,14.653c-.034-.146-.051-.284-.087-.421a3.412,3.412,0,0,0-.084.421.764.764,0,0,1-.112.354.627.627,0,0,1-.551.317.875.875,0,0,0-.8.534.822.822,0,0,0-.045.475c.028.138.045.275.087.421.034-.146.051-.284.087-.421a.731.731,0,0,1,.112-.354.641.641,0,0,1,.567-.3.861.861,0,0,0,.792-.559A.894.894,0,0,0,928.82,336.495Zm5.717-22.78a.677.677,0,0,1-.326.163.638.638,0,0,1-.612-.188.874.874,0,0,0-.955-.163.834.834,0,0,0-.354.309c-.076.121-.171.233-.242.362.129-.079.242-.166.362-.242a.7.7,0,0,1,.329-.171.64.64,0,0,1,.618.155.847.847,0,0,0,1.309-.1c.079-.121.163-.233.233-.362C934.77,313.552,934.657,313.636,934.537,313.715Zm-7.731,15.232a.669.669,0,0,1-.329.163.653.653,0,0,1-.618-.183.853.853,0,0,0-.947-.171.264.264,0,0,0-.062.034c-.02.1-.036.208-.053.312a.584.584,0,0,1,.208-.087.653.653,0,0,1,.612.163.838.838,0,0,0,1.309-.1c.076-.121.171-.233.242-.362C927.039,328.781,926.926,328.868,926.806,328.946Z" transform="translate(-924.213 -295.484)" fill="#fff"/>
                  </g>
                  <g id="Grupo_180263" data-name="Grupo 180263" transform="translate(0 10.672)">
                    <path id="Trazado_188199" data-name="Trazado 188199" d="M979.743,342.963c-.1.717-.186,1.437-.26,2.158-.007-.178-.009-.355-.017-.533-.063-1.446-.14-2.892-.217-4.337,0-.03-.05-.026-.05,0-.026,2.563-.077,5.127-.112,7.69s-.068,5.111-.226,7.669c-.09,1.45-.181,2.913-.382,4.358,0,.03.044.038.049.008.21-1.275.433-2.544.578-3.826s.262-2.547.328-3.822q.15-2.891.094-5.77a33.1,33.1,0,0,0,.3-3.6C979.831,342.921,979.749,342.917,979.743,342.963Z" transform="translate(-962.716 -337.519)" fill="#263238"/>
                    <path id="Trazado_188200" data-name="Trazado 188200" d="M929.544,330.615q-.851,2.066-1.65,4.155c.112-.641.248-1.278.384-1.913.009-.042-.057-.067-.072-.025a9.583,9.583,0,0,0-.5,2.444c-.938,2.488-1.807,5-2.568,7.55a64.525,64.525,0,0,0-2.589,12.626,35.3,35.3,0,0,0,.011,7.159.031.031,0,0,0,.062,0,61.182,61.182,0,0,1,.252-6.419,59,59,0,0,1,.971-6.308,103.7,103.7,0,0,1,3.512-12.339c.78-2.291,1.562-4.582,2.323-6.88C929.7,330.586,929.574,330.543,929.544,330.615Z" transform="translate(-922.368 -330.578)" fill="#263238"/>
                  </g>
                </g>
                <g id="Grupo_180270" data-name="Grupo 180270" transform="translate(0.937 20.886)">
                  <g id="Grupo_180267" data-name="Grupo 180267" transform="translate(0.13)">
                    <path id="Trazado_188201" data-name="Trazado 188201" d="M926.938,405.654c4.51,4.682,23.163,2.87,35.12-.285,2.276-.6-4.346-20.909-6.69-19.994C941.987,390.593,922,400.527,926.938,405.654Z" transform="translate(-926.17 -380.173)" fill="#d3766a"/>
                    <g id="Grupo_180266" data-name="Grupo 180266" transform="translate(27.135)">
                      <path id="Trazado_188202" data-name="Trazado 188202" d="M1047.987,372.009c-.1,2.252-1.47,1.942-1.47,1.942a4.161,4.161,0,0,1,1.582,2.346c.339,1.679-2.146,2.947-2.146,2.947a5.132,5.132,0,0,1,1.274,2.74c.162,1.64-2.162,3.277-2.162,3.277a4.5,4.5,0,0,1-.4,3.114c-1.444,2.5-14.88,4.757-18.507,4.947l-3.4-20.207s12.231-6.485,15.546-6.167C1041.1,367.216,1048.135,368.567,1047.987,372.009Z" transform="translate(-1022.764 -366.937)" fill="#d3766a"/>
                      <g id="Grupo_180265" data-name="Grupo 180265" transform="translate(14.216 5.392)">
                        <path id="Trazado_188203" data-name="Trazado 188203" d="M1083.828,387.687a37.68,37.68,0,0,0-9.062-1.557.053.053,0,0,0-.008.105c3.014.221,6.041,1.253,9.04,1.594A.074.074,0,0,0,1083.828,387.687Z" transform="translate(-1074.334 -386.13)" fill="#263238"/>
                        <path id="Trazado_188204" data-name="Trazado 188204" d="M1082.515,409.264a7.986,7.986,0,0,0-2.08-.217q-1.111-.039-2.223-.04c-1.484,0-2.968.028-4.45.1-.066,0-.078.1-.008.105,1.479.005,2.957.033,4.434.1q1.109.051,2.217.12a9.52,9.52,0,0,0,2.093.031A.106.106,0,0,0,1082.515,409.264Z" transform="translate(-1073.612 -402.581)" fill="#263238"/>
                        <path id="Trazado_188205" data-name="Trazado 188205" d="M1081.389,431.832a5.566,5.566,0,0,0-1.883-.1q-1.014.019-2.028.027c-1.352.01-2.7.02-4.056-.017-.067,0-.076.1-.008.105,1.373.044,2.745.107,4.119.139q1.012.024,2.023.037a5.224,5.224,0,0,0,1.835-.128A.037.037,0,0,0,1081.389,431.832Z" transform="translate(-1073.368 -418.902)" fill="#263238"/>
                      </g>
                    </g>
                  </g>
                  <g id="Grupo_180269" data-name="Grupo 180269" transform="translate(0 4.709)">
                    <path id="Trazado_188206" data-name="Trazado 188206" d="M953.649,384.968l3.7,22.611s-29.284,3.851-31.528-3.207S953.649,384.968,953.649,384.968Z" transform="translate(-925.705 -384.612)" fill="#ffc727"/>
                    <path id="Trazado_188207" data-name="Trazado 188207" d="M951.436,410.94a.79.79,0,0,1-.351-.121.661.661,0,0,1-.3-.57.86.86,0,0,0-.559-.792.878.878,0,0,0-.464-.025c-.138.025-.284.045-.421.079a3.733,3.733,0,0,0,.421.084.892.892,0,0,1,.351.112.656.656,0,0,1,.329.551.848.848,0,0,0,.525.8.817.817,0,0,0,.472.053c.138-.034.275-.053.424-.087C951.711,410.982,951.574,410.965,951.436,410.94Zm7.026,6.9a.847.847,0,0,1-.351-.11.671.671,0,0,1-.3-.57.864.864,0,0,0-.559-.792.805.805,0,0,0-.464-.034c-.138.034-.287.053-.424.087a3.754,3.754,0,0,0,.424.084.906.906,0,0,1,.351.1.667.667,0,0,1,.329.551.851.851,0,0,0,.525.809.812.812,0,0,0,.472.045,4.177,4.177,0,0,0,.421-.087C958.737,417.9,958.6,417.878,958.462,417.842Zm-17.434-11.3a.878.878,0,0,1-.354-.118.665.665,0,0,1-.3-.57.792.792,0,0,0-.022-.183l-.32.2a.854.854,0,0,0,.525.8.813.813,0,0,0,.472.045,4.155,4.155,0,0,0,.421-.087C941.3,406.582,941.166,406.566,941.028,406.537Zm18.912-4.13c-.07-.014-.143-.022-.219-.036a.7.7,0,0,1-.345-.121.641.641,0,0,1-.3-.567.873.873,0,0,0-.559-.792.92.92,0,0,0-.475-.025c-.138.025-.275.042-.421.076a3.517,3.517,0,0,0,.421.087.836.836,0,0,1,.362.112.647.647,0,0,1,.317.551.868.868,0,0,0,.525.8.808.808,0,0,0,.475.051c.079-.02.157-.031.233-.045Zm-9.9,15.2a2.932,2.932,0,0,0-.087-.421c-.034.138-.051.275-.084.421a.891.891,0,0,1-.1.351.64.64,0,0,1-.551.32.88.88,0,0,0-.809.534.783.783,0,0,0-.045.464,3.915,3.915,0,0,0,.087.43c.042-.146.059-.284.087-.43a.717.717,0,0,1,.121-.343.634.634,0,0,1,.567-.3.861.861,0,0,0,.784-.559A.806.806,0,0,0,950.043,417.6Zm-15.265-6.158c-.034-.146-.051-.284-.087-.421a3.378,3.378,0,0,0-.084.421.764.764,0,0,1-.112.354.627.627,0,0,1-.551.317.875.875,0,0,0-.8.534.823.823,0,0,0-.045.475c.028.138.045.275.087.421.034-.146.051-.284.087-.421a.731.731,0,0,1,.112-.354.641.641,0,0,1,.568-.3.861.861,0,0,0,.792-.559A.893.893,0,0,0,934.778,411.445Zm16.3-9.108a.8.8,0,0,1-.337.163.667.667,0,0,1-.61-.188.849.849,0,0,0-.958-.166.887.887,0,0,0-.351.312c-.079.112-.163.222-.242.351a3.378,3.378,0,0,0,.362-.239,1.125,1.125,0,0,1,.326-.174.67.67,0,0,1,.621.166.846.846,0,0,0,1.309-.1c.076-.121.163-.233.23-.362C951.307,402.166,951.2,402.251,951.077,402.338Zm9.911,6.472a.674.674,0,0,1-.562-.2.861.861,0,0,0-.947-.163.786.786,0,0,0-.354.309,3.857,3.857,0,0,0-.242.362c.129-.079.242-.163.362-.242a.813.813,0,0,1,.329-.18.643.643,0,0,1,.61.163.891.891,0,0,0,.851.23Zm-16.937,4.616a.838.838,0,0,1-.337.166.671.671,0,0,1-.61-.191.859.859,0,0,0-.955-.163.85.85,0,0,0-.354.309c-.079.121-.163.233-.242.354.129-.07.242-.154.362-.233a.86.86,0,0,1,.326-.18.668.668,0,0,1,.621.163.868.868,0,0,0,.938.2.919.919,0,0,0,.371-.3c.076-.121.163-.233.233-.362C944.284,413.254,944.171,413.35,944.051,413.426Z" transform="translate(-931.01 -396.03)" fill="#fff"/>
                    <g id="Grupo_180268" data-name="Grupo 180268" transform="translate(3.545)">
                      <path id="Trazado_188208" data-name="Trazado 188208" d="M1011.538,396.416a176.549,176.549,0,0,0,2.131,18.042.028.028,0,0,0,.056,0c-.334-6.9-1.9-17.44-2.073-18.062C1011.634,396.325,1011.533,396.353,1011.538,396.416Z" transform="translate(-990.97 -392.799)" fill="#263238"/>
                      <path id="Trazado_188209" data-name="Trazado 188209" d="M963.062,384.655c-.083-.261-.221-1-.347-.953-.44.17-.893.3-1.333.478q-.624.246-1.245.5c-.849.347-1.691.714-2.529,1.089q-2.5,1.116-4.93,2.368t-4.788,2.644c-1.563.921-3.115,1.883-4.6,2.92l-.281.2a10.513,10.513,0,0,0-1.85.543c-.7.282-1.366.614-2.032.96a.025.025,0,0,0,.022.044,14.923,14.923,0,0,1,2.08-.8q.636-.2,1.277-.39c-1.419,1-2.826,2.013-4.168,3.111-.026.021.007.055.033.037,1.522-1.031,3.029-2.084,4.588-3.058s3.09-1.928,4.666-2.84c3.136-1.815,6.344-3.5,9.638-5.013q1.379-.633,2.776-1.225c.476-.2.952-.4,1.431-.6.409-.169.724-.32,1.133-.489.062.188.121.357.184.545C962.859,384.944,963.137,384.89,963.062,384.655Z" transform="translate(-938.325 -383.7)" fill="#263238"/>
                    </g>
                  </g>
                </g>
              </g>
              <g id="Grupo_180290" data-name="Grupo 180290" transform="translate(15.778)">
                <g id="Grupo_180272" data-name="Grupo 180272" transform="translate(17.168 15.56)">
                  <path id="Trazado_188210" data-name="Trazado 188210" d="M1030.423,241.161c-.734,1.417-1.5,2.739-.68,4.759a8.668,8.668,0,0,0,2.5,2.828l2.382-.6a7.43,7.43,0,0,0,.743-3.885,6.329,6.329,0,0,0-2.412-3.621Z" transform="translate(-1029.389 -240.641)" fill="#263238"/>
                  <path id="Trazado_188211" data-name="Trazado 188211" d="M1038.048,266.112c-.525,1.507-1.1,2.924,0,4.807a8.663,8.663,0,0,0,2.873,2.445l2.273-.933a7.428,7.428,0,0,0,.183-3.951,6.328,6.328,0,0,0-2.9-3.242Z" transform="translate(-1035.166 -258.328)" fill="#263238"/>
                  <path id="Trazado_188212" data-name="Trazado 188212" d="M1049.562,289.062c.051,1.6.026,3.123,1.729,4.486a8.666,8.666,0,0,0,3.559,1.25l1.786-1.688a7.431,7.431,0,0,0-1.249-3.753,6.327,6.327,0,0,0-3.873-1.983Z" transform="translate(-1043.895 -274.246)" fill="#263238"/>
                  <path id="Trazado_188213" data-name="Trazado 188213" d="M1068.343,309.478a5.309,5.309,0,0,0,1.884,4.5c2.216,1.757,7.8.683,7.8.683a5.13,5.13,0,0,1-2.631-2.258c-.74-1.574-1.856-4.665-5.27-4.614Z" transform="translate(-1057.387 -288.926)" fill="#263238"/>
                  <rect id="Rectángulo_45984" data-name="Rectángulo 45984" width="4.496" height="1.439" transform="translate(9.945 21.126) rotate(-44.163)" fill="#ffc727"/>
                </g>
                <path id="Trazado_188214" data-name="Trazado 188214" d="M976.545,281.963c-3.513,1.537-1.708,6.159.137,8.416,2.079,2.544,5.584,4.1,6.676,3.566s-.087-3.892-.087-3.892,2.214,2.479,3,2.2-.1-4.893-2.24-7.238C981.7,282.462,978.579,281.072,976.545,281.963Z" transform="translate(-972.782 -254.601)" fill="#fff"/>
                <g id="Grupo_180289" data-name="Grupo 180289">
                  <g id="Grupo_180273" data-name="Grupo 180273" transform="translate(3.569 17.2)">
                    <path id="Trazado_188215" data-name="Trazado 188215" d="M981.076,258.656c.36.64,3.279,5.545,6.55,5.572,1.066.007,1.364-5.807,1.364-5.807l.12-.424,1.677-5.939-7.8-5.579S980.462,257.564,981.076,258.656Z" transform="translate(-980.98 -246.481)" fill="#d3766a"/>
                    <path id="Trazado_188216" data-name="Trazado 188216" d="M985.817,249.493a21.3,21.3,0,0,0,.549,2.159c1.487,4.811,4.259,6.241,6.145,6.634l.077-.287,1.679-5.937-7.8-5.576S986.174,247.761,985.817,249.493Z" transform="translate(-984.458 -246.485)" fill="#263238"/>
                  </g>
                  <g id="Grupo_180274" data-name="Grupo 180274" transform="translate(0.569 17.683)">
                    <path id="Trazado_188217" data-name="Trazado 188217" d="M972.284,248.2c-1.092,1.164-2.19,2.227-1.949,4.394a8.665,8.665,0,0,0,1.633,3.4l2.456.07a7.429,7.429,0,0,0,1.771-3.537,6.328,6.328,0,0,0-1.336-4.141Z" transform="translate(-970.301 -248.198)" fill="#263238"/>
                    <path id="Trazado_188218" data-name="Trazado 188218" d="M972.9,274.409c-.916,1.307-1.851,2.515-1.305,4.626a8.666,8.666,0,0,0,2.1,3.135l2.441-.28a7.429,7.429,0,0,0,1.251-3.753,6.327,6.327,0,0,0-1.911-3.909Z" transform="translate(-971.114 -266.916)" fill="#263238"/>
                    <path id="Trazado_188219" data-name="Trazado 188219" d="M978.362,298.858c-.385,1.549-.824,3.013.444,4.787a8.664,8.664,0,0,0,3.085,2.171l2.178-1.138a7.429,7.429,0,0,0-.181-3.951,6.327,6.327,0,0,0-3.187-2.962Z" transform="translate(-975.811 -283.841)" fill="#263238"/>
                    <path id="Trazado_188220" data-name="Trazado 188220" d="M991.077,323.511a5.307,5.307,0,0,0,.589,4.843c1.654,2.294,7.323,2.78,7.323,2.78a5.128,5.128,0,0,1-1.918-2.888c-.284-1.716-.517-4.994-3.816-5.874Z" transform="translate(-984.998 -301.536)" fill="#263238"/>
                    <rect id="Rectángulo_45985" data-name="Rectángulo 45985" width="4.496" height="1.439" transform="translate(4.95 22.253) rotate(-28.374)" fill="#ffc727"/>
                  </g>
                  <g id="Grupo_180288" data-name="Grupo 180288">
                    <path id="Trazado_188221" data-name="Trazado 188221" d="M998.259,200.3c1.638,11.038-4.789,13.266-7.169,13.616-2.161.318-9.56,1.127-12.329-9.683s1.845-15.061,6.749-16.05S996.621,189.258,998.259,200.3Z" transform="translate(-975.215 -187.2)" fill="#d3766a"/>
                    <g id="Grupo_180281" data-name="Grupo 180281" transform="translate(11.35 10.255)">
                      <path id="Trazado_188222" data-name="Trazado 188222" d="M1034.928,222.924a7.587,7.587,0,0,1-.79-.085,1.284,1.284,0,0,1-.79-.24.41.41,0,0,1-.05-.5,1.015,1.015,0,0,1,.972-.337,1.492,1.492,0,0,1,.985.431A.437.437,0,0,1,1034.928,222.924Z" transform="translate(-1026.337 -221.757)" fill="#263238"/>
                      <path id="Trazado_188223" data-name="Trazado 188223" d="M1010.458,225.285a7.55,7.55,0,0,0,.757-.242,1.288,1.288,0,0,0,.726-.394.41.41,0,0,0-.051-.5,1.016,1.016,0,0,0-1.02-.135,1.494,1.494,0,0,0-.878.619A.437.437,0,0,0,1010.458,225.285Z" transform="translate(-1009.572 -223.33)" fill="#263238"/>
                      <g id="Grupo_180276" data-name="Grupo 180276" transform="translate(0 3.501)">
                        <g id="Grupo_180275" data-name="Grupo 180275" transform="translate(1.116)">
                          <path id="Trazado_188224" data-name="Trazado 188224" d="M1013.506,234.22c-1.263.062-1.047,2.583.123,2.526C1014.78,236.69,1014.565,234.169,1013.506,234.22Z" transform="translate(-1012.651 -234.219)" fill="#263238"/>
                        </g>
                        <path id="Trazado_188225" data-name="Trazado 188225" d="M1010.166,234.8c-.208.162-.4.432-.665.481-.3.057-.559-.187-.782-.424-.023-.024-.043,0-.04.033.034.484.262.963.786.991.478.025.78-.431.859-.928C1010.339,234.863,1010.249,234.736,1010.166,234.8Z" transform="translate(-1008.678 -234.625)" fill="#263238"/>
                      </g>
                      <g id="Grupo_180278" data-name="Grupo 180278" transform="translate(7.194 2.612)">
                        <g id="Grupo_180277" data-name="Grupo 180277" transform="translate(0 0.174)">
                          <path id="Trazado_188226" data-name="Trazado 188226" d="M1034.932,231.687c1.249-.193,1.544,2.32.386,2.5C1034.179,234.362,1033.884,231.849,1034.932,231.687Z" transform="translate(-1034.285 -231.676)" fill="#263238"/>
                        </g>
                        <path id="Trazado_188227" data-name="Trazado 188227" d="M1038.224,231.345c.214.11.439.329.678.317.277-.014.448-.31.594-.591.015-.029.037-.01.042.023.069.479-.031,1-.481,1.144-.411.133-.769-.243-.939-.708C1038.086,231.443,1038.138,231.3,1038.224,231.345Z" transform="translate(-1037.034 -231.056)" fill="#263238"/>
                      </g>
                      <path id="Trazado_188228" data-name="Trazado 188228" d="M1021.791,258.257c.195.176.392.421.677.434a2.074,2.074,0,0,0,.834-.231.027.027,0,0,1,.036.038,1.056,1.056,0,0,1-.977.465.834.834,0,0,1-.643-.668C1021.7,258.251,1021.763,258.232,1021.791,258.257Z" transform="translate(-1018.053 -247.995)" fill="#263238"/>
                      <g id="Grupo_180279" data-name="Grupo 180279" transform="translate(4.074 2.458)">
                        <path id="Trazado_188229" data-name="Trazado 188229" d="M1025.831,235.173s.274,1.15.328,1.7c0,.051-.126.089-.311.118-.009,0-.013.008-.022,0a2.625,2.625,0,0,1-2.633-.728c-.043-.05.021-.113.074-.084a3.954,3.954,0,0,0,2.453.451c.024-.156-.537-1.974-.449-1.968.372.026,1.031.125,1.276.161-.161-.751-.725-2.859-1.017-4.227-.018-.086.112-.126.14-.05a37.023,37.023,0,0,1,1.486,4.692C1027.187,235.365,1026.06,235.245,1025.831,235.173Z" transform="translate(-1023.18 -230.507)" fill="#263238"/>
                      </g>
                      <g id="Grupo_180280" data-name="Grupo 180280" transform="translate(3.977 8.092)">
                        <path id="Trazado_188230" data-name="Trazado 188230" d="M1025.513,250.993a3.213,3.213,0,0,1-1.048,1.244,1.446,1.446,0,0,1-.846.238c-.656-.03-.794-.6-.785-1.108a3.453,3.453,0,0,1,.118-.806A4.16,4.16,0,0,0,1025.513,250.993Z" transform="translate(-1022.833 -250.562)" fill="#263238"/>
                        <path id="Trazado_188231" data-name="Trazado 188231" d="M1024.465,254.273a1.446,1.446,0,0,1-.846.238c-.656-.03-.794-.6-.785-1.108A1.493,1.493,0,0,1,1024.465,254.273Z" transform="translate(-1022.833 -252.597)" fill="#ff9bbc"/>
                      </g>
                    </g>
                    <g id="Grupo_180283" data-name="Grupo 180283" transform="translate(0.901)">
                      <g id="Grupo_180282" data-name="Grupo 180282">
                        <path id="Trazado_188232" data-name="Trazado 188232" d="M974.857,201.817c2.076.237,2.551-4.519,2.551-4.519s8.816-1.6,9.478-8.807a12.172,12.172,0,0,0,6.222,6.586s.422-8.784-6.675-9.339c0,0-8.841-2.47-13.128,3.74S973.463,201.658,974.857,201.817Z" transform="translate(-971.484 -185.253)" fill="#263238"/>
                      </g>
                      <path id="Trazado_188233" data-name="Trazado 188233" d="M1006.532,194.883a7.819,7.819,0,0,1-.354,3.288,8.147,8.147,0,0,1-1.632,2.925,6.966,6.966,0,0,1-.589.6l-.3.294c-.108.089-.221.172-.334.256-.227.165-.448.339-.68.495s-.487.275-.733.407c-.123.065-.243.136-.369.2l-.388.155-.773.308c-.532.155-1.071.282-1.605.4.5-.228,1.023-.4,1.516-.629l.727-.365.362-.181c.116-.068.227-.147.34-.219.225-.149.45-.295.678-.435.216-.158.418-.335.628-.5l.313-.25.282-.283a6.663,6.663,0,0,0,.55-.579,9.344,9.344,0,0,0,1.65-2.727,9.722,9.722,0,0,0,.476-1.544A9.458,9.458,0,0,0,1006.532,194.883Z" transform="translate(-991.106 -192.178)" fill="#263238"/>
                    </g>
                    <g id="Grupo_180284" data-name="Grupo 180284" transform="translate(8.301 15.09)" opacity="0.5">
                      <circle id="Elipse_4901" data-name="Elipse 4901" cx="0.172" cy="0.172" r="0.172" transform="translate(0 2.479)" fill="#263238"/>
                      <path id="Trazado_188234" data-name="Trazado 188234" d="M1008.523,246.277a.172.172,0,1,1-.172-.172A.172.172,0,0,1,1008.523,246.277Z" transform="translate(-1005.27 -244.101)" fill="#263238"/>
                      <path id="Trazado_188235" data-name="Trazado 188235" d="M1015.611,246.068a.172.172,0,1,1-.172-.172A.172.172,0,0,1,1015.611,246.068Z" transform="translate(-1010.367 -243.95)" fill="#263238"/>
                      <path id="Trazado_188236" data-name="Trazado 188236" d="M1018.613,251.043a.172.172,0,1,1-.172-.172A.172.172,0,0,1,1018.613,251.043Z" transform="translate(-1012.526 -247.528)" fill="#263238"/>
                      <path id="Trazado_188237" data-name="Trazado 188237" d="M1003.5,252.329a.172.172,0,1,1-.172-.172A.172.172,0,0,1,1003.5,252.329Z" transform="translate(-1001.656 -248.452)" fill="#263238"/>
                      <path id="Trazado_188238" data-name="Trazado 188238" d="M1011.456,252.941a.172.172,0,1,1-.172-.172A.172.172,0,0,1,1011.456,252.941Z" transform="translate(-1007.379 -248.893)" fill="#263238"/>
                      <path id="Trazado_188239" data-name="Trazado 188239" d="M1002.885,243.195a.172.172,0,1,1-.172-.172A.171.171,0,0,1,1002.885,243.195Z" transform="translate(-1001.216 -241.884)" fill="#263238"/>
                      <path id="Trazado_188240" data-name="Trazado 188240" d="M1038.278,245.417a.172.172,0,1,1-.172-.172A.172.172,0,0,1,1038.278,245.417Z" transform="translate(-1026.666 -243.482)" fill="#263238"/>
                      <path id="Trazado_188241" data-name="Trazado 188241" d="M1047.1,242.341a.172.172,0,1,1-.172-.172A.172.172,0,0,1,1047.1,242.341Z" transform="translate(-1033.008 -241.27)" fill="#263238"/>
                      <path id="Trazado_188242" data-name="Trazado 188242" d="M1049.436,239.142a.172.172,0,1,1-.172-.172A.172.172,0,0,1,1049.436,239.142Z" transform="translate(-1034.69 -238.97)" fill="#263238"/>
                      <path id="Trazado_188243" data-name="Trazado 188243" d="M1044.717,247.326a.172.172,0,1,1-.172-.172A.172.172,0,0,1,1044.717,247.326Z" transform="translate(-1031.296 -244.855)" fill="#263238"/>
                      <path id="Trazado_188244" data-name="Trazado 188244" d="M1049.049,246.068a.172.172,0,1,1-.172-.172A.172.172,0,0,1,1049.049,246.068Z" transform="translate(-1034.411 -243.95)" fill="#263238"/>
                      <path id="Trazado_188245" data-name="Trazado 188245" d="M1040.961,241.132a.172.172,0,1,1-.172-.172A.172.172,0,0,1,1040.961,241.132Z" transform="translate(-1028.595 -240.401)" fill="#263238"/>
                    </g>
                    <g id="Grupo_180285" data-name="Grupo 180285" transform="translate(0 10)">
                      <path id="Trazado_188246" data-name="Trazado 188246" d="M1003.183,232.836a4.015,4.015,0,1,1,3.883-5.012h0a4.017,4.017,0,0,1-3.883,5.011Zm-.012-7.494a3.478,3.478,0,1,0,3.375,2.615A3.472,3.472,0,0,0,1003.172,225.343Z" transform="translate(-990.485 -223.694)" fill="#dbdbdb"/>
                      <path id="Trazado_188247" data-name="Trazado 188247" d="M1036.547,228.855c-1.536,0-2.932-1.569-3.18-3.649a4.791,4.791,0,0,1,.511-2.887,2.5,2.5,0,0,1,4.252-.506,4.8,4.8,0,0,1,1.174,2.687c.261,2.2-.858,4.145-2.494,4.34A2.366,2.366,0,0,1,1036.547,228.855Zm-.419-7.468a1.757,1.757,0,0,0-.2.012,2.14,2.14,0,0,0-1.579,1.181,4.262,4.262,0,0,0-.446,2.562c.227,1.9,1.5,3.326,2.846,3.164s2.25-1.839,2.024-3.743a4.259,4.259,0,0,0-1.035-2.386A2.212,2.212,0,0,0,1036.128,221.387Z" transform="translate(-1015.054 -220.85)" fill="#dbdbdb"/>
                      <path id="Trazado_188248" data-name="Trazado 188248" d="M1026.315,234.467l-.33-.31a1.848,1.848,0,0,1,2.494-.424l-.292.346C1027.36,233.378,1026.357,234.422,1026.315,234.467Z" transform="translate(-1009.773 -229.865)" fill="#dbdbdb"/>
                      <path id="Trazado_188249" data-name="Trazado 188249" d="M968.7,240.035l-.423-.159c.074-.2.752-1.938,1.736-2.221.92-.261,7.011-.413,7.269-.419l.011.452c-1.746.042-6.445.2-7.155.4C969.487,238.276,968.879,239.557,968.7,240.035Z" transform="translate(-968.275 -232.633)" fill="#dbdbdb"/>
                    </g>
                    <g id="Grupo_180287" data-name="Grupo 180287" transform="translate(0.929 14.254)">
                      <g id="Grupo_180286" data-name="Grupo 180286">
                        <path id="Trazado_188250" data-name="Trazado 188250" d="M976.417,238.616s-2.726-3.434-4.3-2.441.629,6.078,2.582,6.673a1.947,1.947,0,0,0,2.54-1.2Z" transform="translate(-971.582 -235.995)" fill="#d3766a"/>
                        <path id="Trazado_188251" data-name="Trazado 188251" d="M975.8,241.769a.026.026,0,0,0-.007.052,4.92,4.92,0,0,1,2.726,2.919,1.074,1.074,0,0,0-1.623-.2c-.033.027,0,.08.04.069a1.2,1.2,0,0,1,1.341.337,5.771,5.771,0,0,1,.695,1.026c.07.116.282.039.228-.1l-.013-.03C979.118,244.139,977.645,241.829,975.8,241.769Z" transform="translate(-974.597 -240.147)" fill="#263238"/>
                      </g>
                    </g>
                  </g>
                </g>
              </g>
            </g>
          </g>
        </g>
      </g>
      <g id="Plant" transform="translate(799.452 174.599)">
        <g id="Grupo_180300" data-name="Grupo 180300" transform="translate(0)">
          <g id="Grupo_180295" data-name="Grupo 180295" transform="translate(9.859 6.061)">
            <path id="Trazado_188252" data-name="Trazado 188252" d="M844.457,402.545c-4.216,4.128-4.924,10.514-4.036,16.107.023.127.219.092.219-.027,0-1.273-.038-2.535-.035-3.793.023-.058.042-.112.065-.169a8.474,8.474,0,0,0,2.739-2.943,40.88,40.88,0,0,0,1.52-4.393c.05-.139-.1-.1-.195-.026-2.564,1.891-3.382,3.927-4.118,6.647a22.624,22.624,0,0,1,.446-4.236,14.439,14.439,0,0,1,3.5-7.055C844.638,402.583,844.531,402.472,844.457,402.545Z" transform="translate(-840.084 -399.211)" fill="#263238"/>
            <g id="Grupo_180294" data-name="Grupo 180294" transform="translate(3.667)">
              <path id="Trazado_188253" data-name="Trazado 188253" d="M854.771,394.553c.725.025,1.18,1.184,1.745,1.522a.544.544,0,0,0,.8-.126c.56-.782-.208-1.746-.931-2.286a8.033,8.033,0,0,0,1.5.692.524.524,0,0,0,.679-.406c.246-1.066-1.091-1.54-2.009-1.563.445-.309,1.719-1.15,1.042-1.563s-2.182.787-2.67,1.183a3.756,3.756,0,0,0-1.6,2.361C853.284,395.429,854.213,394.776,854.771,394.553Z" transform="translate(-853.273 -390.738)" fill="#ffc727"/>
              <path id="Trazado_188254" data-name="Trazado 188254" d="M854.771,394.553c.725.025,1.18,1.184,1.745,1.522a.544.544,0,0,0,.8-.126c.56-.782-.208-1.746-.931-2.286a8.033,8.033,0,0,0,1.5.692.524.524,0,0,0,.679-.406c.246-1.066-1.091-1.54-2.009-1.563.445-.309,1.719-1.15,1.042-1.563s-2.182.787-2.67,1.183a3.756,3.756,0,0,0-1.6,2.361C853.284,395.429,854.213,394.776,854.771,394.553Z" transform="translate(-853.273 -390.738)" opacity="0.2"/>
              <path id="Trazado_188255" data-name="Trazado 188255" d="M854.427,397.232c.927-.422,2.709.185,2.861-.166.307-.715-1.117-1.2-1.885-1.3.708-.192,2.064-.5,2.022-1.18-.051-.833-2.08-.117-3.107.671-1.294.992-1.285,1.949-1.072,2.141C853.539,397.662,854.274,397.3,854.427,397.232Z" transform="translate(-853.139 -393.238)" fill="#ffc727"/>
              <path id="Trazado_188256" data-name="Trazado 188256" d="M854.427,397.232c.927-.422,2.709.185,2.861-.166.307-.715-1.117-1.2-1.885-1.3.708-.192,2.064-.5,2.022-1.18-.051-.833-2.08-.117-3.107.671-1.294.992-1.285,1.949-1.072,2.141C853.539,397.662,854.274,397.3,854.427,397.232Z" transform="translate(-853.139 -393.238)" opacity="0.1"/>
            </g>
          </g>
          <g id="Grupo_180297" data-name="Grupo 180297" transform="translate(0 5.778)">
            <path id="Trazado_188257" data-name="Trazado 188257" d="M820.694,401.1c4.37,3.964,5.32,10.319,4.645,15.942-.018.128-.216.1-.22-.018-.048-1.272-.058-2.535-.11-3.792-.025-.057-.046-.11-.072-.167a8.472,8.472,0,0,1-2.849-2.837,40.863,40.863,0,0,1-1.686-4.332c-.055-.137.094-.1.193-.034,2.635,1.793,3.529,3.8,4.368,6.486a22.645,22.645,0,0,0-.607-4.216,14.438,14.438,0,0,0-3.771-6.917C820.515,401.141,820.619,401.025,820.694,401.1Z" transform="translate(-816.065 -397.888)" fill="#263238"/>
            <g id="Grupo_180296" data-name="Grupo 180296">
              <path id="Trazado_188258" data-name="Trazado 188258" d="M808.846,393.452c-.724.052-1.134,1.228-1.686,1.587a.544.544,0,0,1-.8-.1c-.589-.76.142-1.753.843-2.32a8.037,8.037,0,0,1-1.475.748.524.524,0,0,1-.693-.38c-.286-1.056,1.032-1.58,1.948-1.638-.456-.292-1.762-1.084-1.1-1.522s2.21.7,2.713,1.08a3.755,3.755,0,0,1,1.693,2.3C810.365,394.271,809.413,393.653,808.846,393.452Z" transform="translate(-804.99 -389.733)" fill="#ffc727"/>
              <path id="Trazado_188259" data-name="Trazado 188259" d="M808.846,393.452c-.724.052-1.134,1.228-1.686,1.587a.544.544,0,0,1-.8-.1c-.589-.76.142-1.753.843-2.32a8.037,8.037,0,0,1-1.475.748.524.524,0,0,1-.693-.38c-.286-1.056,1.032-1.58,1.948-1.638-.456-.292-1.762-1.084-1.1-1.522s2.21.7,2.713,1.08a3.755,3.755,0,0,1,1.693,2.3C810.365,394.271,809.413,393.653,808.846,393.452Z" transform="translate(-804.99 -389.733)" opacity="0.2"/>
              <path id="Trazado_188260" data-name="Trazado 188260" d="M811.562,396.1c-.943-.386-2.7.288-2.865-.057-.334-.7,1.07-1.246,1.834-1.37-.715-.165-2.081-.418-2.065-1.1.019-.835,2.074-.2,3.13.552,1.331.942,1.359,1.9,1.152,2.1C812.466,396.492,811.718,396.16,811.562,396.1Z" transform="translate(-807.49 -392.207)" fill="#ffc727"/>
              <path id="Trazado_188261" data-name="Trazado 188261" d="M811.562,396.1c-.943-.386-2.7.288-2.865-.057-.334-.7,1.07-1.246,1.834-1.37-.715-.165-2.081-.418-2.065-1.1.019-.835,2.074-.2,3.13.552,1.331.942,1.359,1.9,1.152,2.1C812.466,396.492,811.718,396.16,811.562,396.1Z" transform="translate(-807.49 -392.207)" opacity="0.1"/>
            </g>
          </g>
          <g id="Grupo_180299" data-name="Grupo 180299" transform="translate(5.187)">
            <path id="Trazado_188262" data-name="Trazado 188262" d="M827.366,400.441a42.927,42.927,0,0,0,1.357,6.269.156.156,0,0,0,.305-.062c-.287-1.932-.81-3.828-1.1-5.759a28.989,28.989,0,0,1-.336-5.913,15.891,15.891,0,0,1,3.192-9.265c.047-.06-.052-.146-.1-.09a16.319,16.319,0,0,0-3.572,11.582c-.6-2.053-1.222-4.405-3.5-6.5-.1-.09-.175-.047-.158.106.407,3.807,1.466,5.8,3.673,7.831C827.192,399.248,827.27,399.848,827.366,400.441Z" transform="translate(-823.454 -380.985)" fill="#263238"/>
            <g id="Grupo_180298" data-name="Grupo 180298" transform="translate(5.609)">
              <path id="Trazado_188263" data-name="Trazado 188263" d="M845.183,374.46c.765-.34,1.82.634,2.577.7a.627.627,0,0,0,.767-.533c.188-1.093-1.1-1.707-2.117-1.9a9.279,9.279,0,0,0,1.907-.039.6.6,0,0,0,.5-.763c-.282-1.23-1.907-1.049-2.871-.61.306-.545,1.205-2.058.295-2.146s-1.868,1.914-2.175,2.571a4.332,4.332,0,0,0-.476,3.257C844.081,376.118,844.716,374.972,845.183,374.46Z" transform="translate(-843.42 -369.164)" fill="#ffc727"/>
              <path id="Trazado_188264" data-name="Trazado 188264" d="M845.183,374.46c.765-.34,1.82.634,2.577.7a.627.627,0,0,0,.767-.533c.188-1.093-1.1-1.707-2.117-1.9a9.279,9.279,0,0,0,1.907-.039.6.6,0,0,0,.5-.763c-.282-1.23-1.907-1.049-2.871-.61.306-.545,1.205-2.058.295-2.146s-1.868,1.914-2.175,2.571a4.332,4.332,0,0,0-.476,3.257C844.081,376.118,844.716,374.972,845.183,374.46Z" transform="translate(-843.42 -369.164)" opacity="0.2"/>
              <path id="Trazado_188265" data-name="Trazado 188265" d="M845.207,377.61c.75-.9,2.9-1.171,2.884-1.612-.041-.9-1.765-.688-2.61-.4.638-.555,1.891-1.555,1.5-2.242-.472-.839-2.217.926-2.886,2.26-.843,1.681-.352,2.67-.034,2.761C844.5,378.5,845.083,377.759,845.207,377.61Z" transform="translate(-843.572 -372.022)" fill="#ffc727"/>
              <path id="Trazado_188266" data-name="Trazado 188266" d="M845.207,377.61c.75-.9,2.9-1.171,2.884-1.612-.041-.9-1.765-.688-2.61-.4.638-.555,1.891-1.555,1.5-2.242-.472-.839-2.217.926-2.886,2.26-.843,1.681-.352,2.67-.034,2.761C844.5,378.5,845.083,377.759,845.207,377.61Z" transform="translate(-843.572 -372.022)" opacity="0.1"/>
            </g>
          </g>
          <path id="Trazado_188267" data-name="Trazado 188267" d="M822.618,442.46l-1.875,14.33h11.413c-.235-1.27-2.359-14.347-2.359-14.347Z" transform="translate(-816.318 -421.857)" fill="#ffc727"/>
        </g>
      </g>
      <g id="Globe" transform="translate(891.629 156.994)">
        <g id="Grupo_180303" data-name="Grupo 180303" transform="translate(0)">
          <g id="Grupo_180302" data-name="Grupo 180302" transform="translate(1.519 1.678)">
            <path id="Trazado_188268" data-name="Trazado 188268" d="M1159.588,323a10.485,10.485,0,0,1-2.012,6.192h0a10.534,10.534,0,1,1-8.521-16.727q.434,0,.859.035a10.47,10.47,0,0,1,4.609,1.494,10.53,10.53,0,0,1,5.066,9.005Z" transform="translate(-1138.522 -312.465)" fill="#455a64"/>
            <g id="Grupo_180301" data-name="Grupo 180301" transform="translate(1.796)">
              <path id="Trazado_188269" data-name="Trazado 188269" d="M1155.926,327.97c-.133.354.089.369.1.516s0,.428-.428.856-1.136.339-1.283.516-.4.929-.752,1.18-.413.1-.915.207-.885.752-1.032,1.062.029.826-.325.841-.516-.752-.841-1.165a2.754,2.754,0,0,1-.531-1.269c-.1-.487.059-1.5,0-1.9s-1.121-1.107-1.5-1.593a4.43,4.43,0,0,1-.885-1.785,1.32,1.32,0,0,1,.443-.812c.177-.133.1-.206.133-.324s.177-.148.207-.295a.9.9,0,0,0-.236-.664c-.148-.074-.251.177-.339.133s-.354-.354-.457-.383-.074.192-.221-.088-.221-.988-.339-1.106-.207.206-.487,0-.4-.6-.516-.664-.28.015-.4-.221.106-.664,0-.62-.336.384-.395.059.295-1.416.236-2.006a2.358,2.358,0,0,1,.56-1.711s.059-.324.118-.531,1.328-1.033,1.475-1.269a1.15,1.15,0,0,0,.1-.419,10.485,10.485,0,0,1,6.236-2.044q.434,0,.859.035l.029.039a1.238,1.238,0,0,0,.639.4c.374.137.462.314.384.462a.376.376,0,0,1-.354.187c-.147.01-.285-.069-.443.029s-.315.63-.521.659-.57-.472-.649-.62.177-.462.056-.61-.331-.118-.666-.147-1.111.1-1.082.226,1.141-.02,1.17.236-.816.688-.964.649-.344-.3-.561-.325-.394.147-.53.167-.3-.148-.5-.108-.256.216-.364.285-.364.069-.393.226.324.246.413.344-.108.433-.02.5.64-.413.777-.531.255-.629.551-.62.393.511.492.561.315-.118.639-.049.551.777.61.994.2.433.079.521a.841.841,0,0,1-.718-.2c-.069-.138.354-.344.325-.393a.421.421,0,0,0-.4-.041c-.128.077-.187.237-.325.277s-.5-.374-.6-.256.1.492.2.58.462.138.492.236-.246.314-.58.295-.61-.276-.738-.167-.059.394-.148.492-.57.029-.807.285-.344.639-.58.856-.344-.059-.659.246a2.033,2.033,0,0,0-.374,1.219c-.01.236,0,.423-.079.393a.657.657,0,0,1-.217-.364c-.029-.128.069-.344.069-.423a1.4,1.4,0,0,0-.718-.521c-.266-.039-.5.177-.7.334s-.551.128-.679.256a3.328,3.328,0,0,0-.128,1.525c.1.266.226.266.541.128s.137-.4.325-.344a.439.439,0,0,1,.285.413c0,.158-.374.531-.325.639s.374-.02.531.029.236.147.187.551-.02.718.216.851.369-.192.472-.148.251.28.4.265.074-.147.354-.236.177-.148.236-.324a.324.324,0,0,1,.428-.236c.192.089.059.221.074.369s.354.162.62.251a7.716,7.716,0,0,1,.944.177c.531.177.56.708.782.8s.959-.059,1.49.324.383,1.092.649,1.3a6.12,6.12,0,0,0,1.637.561c.383.074.442-.192.752-.118a.655.655,0,0,1,.59.59C1157.212,326.827,1156.059,327.616,1155.926,327.97Z" transform="translate(-1144.914 -312.465)" fill="#c7c7c7"/>
              <path id="Trazado_188270" data-name="Trazado 188270" d="M1155.89,340.124c.01.084.255.118.551.285s.4.659.561.649.108-.236.167-.3a.191.191,0,0,0,0-.315c-.157-.128-.311-.4-.6-.443s-.337-.157-.464-.148A.222.222,0,0,0,1155.89,340.124Z" transform="translate(-1152.805 -332.163)" fill="#c7c7c7"/>
              <path id="Trazado_188271" data-name="Trazado 188271" d="M1161.635,343.133c-.044.12,0,.206.314.285s.61-.079.512-.142-.246-.035-.187-.143.039-.266-.216-.236S1161.675,343.025,1161.635,343.133Z" transform="translate(-1156.928 -334.345)" fill="#c7c7c7"/>
              <path id="Trazado_188272" data-name="Trazado 188272" d="M1165.3,343.841c-.107.016-.167.2-.059.321s.108.1.236,0,.325-.147.275-.246S1165.4,343.826,1165.3,343.841Z" transform="translate(-1159.486 -335.02)" fill="#c7c7c7"/>
              <path id="Trazado_188273" data-name="Trazado 188273" d="M1168.625,345.139c.048-.147.295,0,.4.155a.637.637,0,0,1,0,.551c-.059.167-.1.364-.236.285s.01-.315-.01-.452S1168.585,345.259,1168.625,345.139Z" transform="translate(-1161.96 -335.916)" fill="#c7c7c7"/>
              <path id="Trazado_188274" data-name="Trazado 188274" d="M1183.71,315.871c-.051.123.187.167.324.246s.246.128.324,0a.216.216,0,0,0-.138-.3C1184.113,315.782,1183.759,315.752,1183.71,315.871Z" transform="translate(-1172.806 -314.852)" fill="#c7c7c7"/>
              <path id="Trazado_188275" data-name="Trazado 188275" d="M1190.3,319.526c.091.1.246.079.354.216s.069.374.206.443.236,0,.246-.1-.2-.344-.177-.393.285.069.344.216-.059.354.079.394.108-.138.167-.177.187-.02.177-.138a.889.889,0,0,0-.3-.462,1.1,1.1,0,0,0-.443-.236.652.652,0,0,0-.531.079C1190.315,319.457,1190.24,319.467,1190.3,319.526Z" transform="translate(-1177.533 -317.357)" fill="#c7c7c7"/>
              <path id="Trazado_188276" data-name="Trazado 188276" d="M1198.124,320.4a.175.175,0,0,1-.055.1c-.207.148-.453-.364-.738-.462s-.413-.462-.472-.384-.04.187-.128.315-.216.1-.275.344.275.7.2.846-.177.1-.334.089-.128.128-.334.069-.03-.315-.354-.62-.433-.364-.363-.5-.03-.334.118-.354.265.2.364.256.226-.118.236-.276-.344-.374-.472-.5a.881.881,0,0,1-.089-.655c.049-.089.2-.059.236-.275.023-.127-.178-.34-.348-.493A10.578,10.578,0,0,1,1198.124,320.4Z" transform="translate(-1181.107 -316.377)" fill="#c7c7c7"/>
              <path id="Trazado_188277" data-name="Trazado 188277" d="M1201.243,337.634c.029-.315-.128-.335.029-.915a1.686,1.686,0,0,0-.285-1.328c-.118-.128-.374-.089-.58.039s-.059.226-.2.275-.275-.029-.4-.02-.246.334-.522.325-.452-.4-.659-.684-.63-.457-.767-.8.128-.875.069-1.278-.325-.315-.374-.541.039-.118.108-.335-.079-.334.059-.708.384-.561.325-.728a2.825,2.825,0,0,1-.256-.639c-.01-.2.187-.187.561-.463s.472-.255.758-.157a4.065,4.065,0,0,0,.629.177c.167.03.393.462.462.442s.079-.147.108-.334a.417.417,0,0,1,.123-.212,10.538,10.538,0,0,1-.416,11.769A9.265,9.265,0,0,0,1201.243,337.634Z" transform="translate(-1182.757 -324.794)" fill="#c7c7c7"/>
            </g>
          </g>
          <path id="Trazado_188278" data-name="Trazado 188278" d="M1133.114,321.924a11.949,11.949,0,0,0,.342,3.22l.091.4.128.387.262.775.336.746c.057.124.109.251.172.372l.2.356a12.15,12.15,0,0,0,1.977,2.618l.6.566c.2.193.43.343.644.516a13.013,13.013,0,0,0,1.373.921c.239.137.492.251.738.377l.371.185c.126.057.257.1.386.152l.777.293.8.215.4.106.41.067.821.132.83.05.416.024c.138,0,.277-.01.415-.014l.832-.037c.276-.028.55-.078.824-.116a13.259,13.259,0,0,0,1.625-.364c.265-.084.524-.186.785-.279l.392-.143c.127-.055.251-.118.377-.177l.751-.361.714-.431a5.638,5.638,0,0,0,.686-.472c.219-.17.45-.327.66-.509a12.853,12.853,0,0,0,1.192-1.162,11.943,11.943,0,0,0,1.887-2.731l.355-.753c.108-.255.191-.521.287-.781l.139-.392c.043-.131.07-.268.106-.4l.2-.807a13.12,13.12,0,0,0,.2-3.3,12.057,12.057,0,0,0-7.2-10.2,12.338,12.338,0,0,1,4.688,4.273,12.062,12.062,0,0,1,1.914,5.959,13.438,13.438,0,0,1-.259,3.13l-.2.759c-.036.126-.062.254-.105.378l-.138.367c-.1.243-.177.492-.283.731l-.346.7a6.146,6.146,0,0,1-.387.68c-.142.219-.26.454-.421.66a11.541,11.541,0,0,1-.986,1.216,12.179,12.179,0,0,1-1.126,1.087c-.2.17-.416.315-.623.474l-.314.234c-.106.076-.222.137-.332.206a11.946,11.946,0,0,1-11.969.446,12.889,12.889,0,0,1-2.558-1.84,11.894,11.894,0,0,1-2-2.449l-.216-.335c-.068-.114-.123-.235-.186-.352l-.366-.71-.3-.743-.146-.373-.11-.385c-.072-.257-.15-.513-.217-.773l-.143-.791c-.024-.132-.053-.264-.072-.4l-.035-.4Z" transform="translate(-1133.114 -309.713)" fill="#37474f"/>
          <path id="Trazado_188279" data-name="Trazado 188279" d="M1191.076,309.171l1.426.678,1.005-3.007-.734-.349Z" transform="translate(-1174.793 -306.493)" fill="#37474f"/>
          <rect id="Rectángulo_45986" data-name="Rectángulo 45986" width="1.531" height="3.748" transform="translate(12.655 28.076) rotate(180)" fill="#37474f"/>
          <rect id="Rectángulo_45987" data-name="Rectángulo 45987" width="11.218" height="1.391" transform="translate(17.498 28.073) rotate(180)" fill="#37474f"/>
        </g>
      </g>
      <g id="Books" transform="translate(881.315 185.07)">
        <g id="Grupo_180312" data-name="Grupo 180312" transform="translate(0 0)">
          <g id="Grupo_180305" data-name="Grupo 180305" transform="translate(4.404 20.544)">
            <rect id="Rectángulo_45988" data-name="Rectángulo 45988" width="32.278" height="3.82" fill="#37474f"/>
            <rect id="Rectángulo_45989" data-name="Rectángulo 45989" width="1.316" height="3.82" transform="translate(6.332)" fill="#455a64"/>
            <rect id="Rectángulo_45990" data-name="Rectángulo 45990" width="3.154" height="3.82" transform="translate(25.326)" fill="#455a64"/>
            <g id="Grupo_180304" data-name="Grupo 180304" transform="translate(11.883 0.691)">
              <path id="Trazado_188280" data-name="Trazado 188280" d="M1156.236,482.372l-.771,1a.081.081,0,0,1-.069.035h-.007a.079.079,0,0,1-.072-.035l-.771-1v1.857a.081.081,0,0,1-.083.077.082.082,0,0,1-.086-.077v-2.092a.072.072,0,0,1,.034-.062s0,0,.007-.007a.091.091,0,0,1,.117.019l.857,1.114.854-1.114a.09.09,0,0,1,.117-.019.148.148,0,0,1,.024.026.1.1,0,0,1,.014.042v2.092a.081.081,0,0,1-.083.077.079.079,0,0,1-.083-.077Z" transform="translate(-1154.377 -482.049)" fill="#fff"/>
              <path id="Trazado_188281" data-name="Trazado 188281" d="M1164.835,483.725h-1.1l-.214.533a.084.084,0,0,1-.079.051c-.007,0-.021,0-.031,0a.081.081,0,0,1-.048-.1l.837-2.1a.092.092,0,0,1,.082-.049.086.086,0,0,1,.083.049l.837,2.1a.079.079,0,0,1-.045.1c-.014,0-.021,0-.031,0a.088.088,0,0,1-.079-.051Zm-1.036-.158h.974l-.485-1.214Z" transform="translate(-1160.836 -482.049)" fill="#fff"/>
              <path id="Trazado_188282" data-name="Trazado 188282" d="M1170.755,482.183h-.726a.082.082,0,0,1-.083-.081.081.081,0,0,1,.083-.077h1.618a.081.081,0,0,1,.083.077.082.082,0,0,1-.083.081h-.727v2.024a.083.083,0,0,1-.165,0Z" transform="translate(-1165.572 -482.025)" fill="#fff"/>
              <path id="Trazado_188283" data-name="Trazado 188283" d="M1179.953,483.232h-1.24v.975a.082.082,0,0,1-.086.077.081.081,0,0,1-.083-.077V482.1a.081.081,0,0,1,.083-.077.082.082,0,0,1,.086.077v.975h1.24V482.1a.081.081,0,0,1,.083-.077.082.082,0,0,1,.086.077v2.105a.082.082,0,0,1-.086.077.081.081,0,0,1-.083-.077Z" transform="translate(-1171.756 -482.025)" fill="#fff"/>
            </g>
          </g>
          <g id="Grupo_180307" data-name="Grupo 180307" transform="translate(4.404 4.456)">
            <rect id="Rectángulo_45991" data-name="Rectángulo 45991" width="32.278" height="4.922" fill="#ffc727"/>
            <g id="Grupo_180306" data-name="Grupo 180306" transform="translate(15.599 1.358)">
              <path id="Trazado_188284" data-name="Trazado 188284" d="M1167.623,429a.077.077,0,0,1,.107-.01,1.373,1.373,0,0,0,.792.29.949.949,0,0,0,.53-.149.412.412,0,0,0,.206-.336.357.357,0,0,0-.2-.31,1.656,1.656,0,0,0-.558-.184h-.007a1.571,1.571,0,0,1-.568-.19.464.464,0,0,1-.248-.394.519.519,0,0,1,.251-.423,1.033,1.033,0,0,1,.582-.165,1.386,1.386,0,0,1,.743.261.069.069,0,0,1,.021.1.076.076,0,0,1-.1.019,1.242,1.242,0,0,0-.661-.239.9.9,0,0,0-.493.135.389.389,0,0,0-.189.31.324.324,0,0,0,.179.274,1.465,1.465,0,0,0,.516.171h.007a1.717,1.717,0,0,1,.613.207.5.5,0,0,1,.265.426.561.561,0,0,1-.272.452,1.108,1.108,0,0,1-.62.178,1.557,1.557,0,0,1-.888-.326A.071.071,0,0,1,1167.623,429Z" transform="translate(-1167.607 -427.133)" fill="#fff"/>
              <path id="Trazado_188285" data-name="Trazado 188285" d="M1177.1,427.133a1.332,1.332,0,0,1,.778.249.076.076,0,0,1,.014.113.084.084,0,0,1-.117.016,1.146,1.146,0,0,0-.675-.219.992.992,0,1,0,0,1.976,1.07,1.07,0,0,0,.668-.22.087.087,0,0,1,.12.019.073.073,0,0,1-.01.113,1.33,1.33,0,0,1-.778.246,1.151,1.151,0,1,1,0-2.292Z" transform="translate(-1173.531 -427.133)" fill="#fff"/>
              <path id="Trazado_188286" data-name="Trazado 188286" d="M1185.756,427.326a.081.081,0,0,1,.083-.078.082.082,0,0,1,.086.078v2.1a.082.082,0,0,1-.086.078.081.081,0,0,1-.083-.078Z" transform="translate(-1180.658 -427.216)" fill="#fff"/>
              <path id="Trazado_188287" data-name="Trazado 188287" d="M1189.406,427.326a.081.081,0,0,1,.083-.078h1.24a.079.079,0,1,1,0,.158h-1.153v.894h1.008a.082.082,0,0,1,.083.081.081.081,0,0,1-.083.077h-1.008v.891h1.153a.079.079,0,1,1,0,.158h-1.246a.08.08,0,0,1-.076-.078Z" transform="translate(-1183.282 -427.216)" fill="#fff"/>
              <path id="Trazado_188288" data-name="Trazado 188288" d="M1196.862,427.6v1.85a.083.083,0,0,1-.166,0v-2.073a.076.076,0,0,1,.031-.087.09.09,0,0,1,.117.019l1.46,1.9v-1.84a.081.081,0,0,1,.083-.078.083.083,0,0,1,.086.078v2.082a.087.087,0,0,1-.152.048.05.05,0,0,1-.014-.013Z" transform="translate(-1188.522 -427.239)" fill="#fff"/>
              <path id="Trazado_188289" data-name="Trazado 188289" d="M1206.987,427.133a1.332,1.332,0,0,1,.778.249.076.076,0,0,1,.014.113.084.084,0,0,1-.117.016,1.146,1.146,0,0,0-.675-.219.992.992,0,1,0,0,1.976,1.07,1.07,0,0,0,.668-.22.087.087,0,0,1,.12.019.073.073,0,0,1-.01.113,1.33,1.33,0,0,1-.778.246,1.151,1.151,0,1,1,0-2.292Z" transform="translate(-1195.023 -427.133)" fill="#fff"/>
              <path id="Trazado_188290" data-name="Trazado 188290" d="M1215.558,427.326a.081.081,0,0,1,.083-.078h1.24a.079.079,0,1,1,0,.158h-1.153v.894h1.009a.082.082,0,0,1,.083.081.081.081,0,0,1-.083.077h-1.009v.891h1.153a.079.079,0,1,1,0,.158h-1.247a.08.08,0,0,1-.076-.078Z" transform="translate(-1202.088 -427.216)" fill="#fff"/>
            </g>
            <rect id="Rectángulo_45992" data-name="Rectángulo 45992" width="8.112" height="4.922" transform="translate(2.717)" fill="#455a64"/>
            <rect id="Rectángulo_45993" data-name="Rectángulo 45993" width="5.061" height="0.866" transform="translate(4.243 0.687)" fill="#ffc727"/>
            <rect id="Rectángulo_45994" data-name="Rectángulo 45994" width="5.061" height="0.866" transform="translate(4.243 2.028)" fill="#ffc727"/>
            <rect id="Rectángulo_45995" data-name="Rectángulo 45995" width="5.061" height="0.866" transform="translate(4.243 3.369)" fill="#ffc727"/>
          </g>
          <g id="Grupo_180309" data-name="Grupo 180309" transform="translate(1.39 9.375)">
            <rect id="Rectángulo_45996" data-name="Rectángulo 45996" width="32.968" height="5.047" fill="#37474f"/>
            <rect id="Rectángulo_45997" data-name="Rectángulo 45997" width="7.918" height="1.772" transform="translate(19.217 1.637)" fill="#ffc727"/>
            <path id="Trazado_188291" data-name="Trazado 188291" d="M1206.725,446.284a1.047,1.047,0,1,1-1.045-.98A1.014,1.014,0,0,1,1206.725,446.284Z" transform="translate(-1175.619 -443.76)" fill="#ffc727"/>
            <g id="Grupo_180308" data-name="Grupo 180308" transform="translate(3.075 1.272)">
              <path id="Trazado_188292" data-name="Trazado 188292" d="M1112.292,444.531a.081.081,0,0,1,.083-.078h1.24a.079.079,0,1,1,0,.158h-1.153v.894h1.009a.079.079,0,1,1,0,.158h-1.009v.891h1.153a.079.079,0,1,1,0,.158h-1.246a.08.08,0,0,1-.076-.078Z" transform="translate(-1112.292 -444.421)" fill="#fff"/>
              <path id="Trazado_188293" data-name="Trazado 188293" d="M1119.748,444.809v1.85a.083.083,0,0,1-.165,0v-2.073a.075.075,0,0,1,.031-.087.089.089,0,0,1,.117.019l1.46,1.9v-1.84a.082.082,0,0,1,.083-.078.083.083,0,0,1,.086.078v2.082a.087.087,0,0,1-.152.048.053.053,0,0,1-.014-.013Z" transform="translate(-1117.532 -444.444)" fill="#fff"/>
              <path id="Trazado_188294" data-name="Trazado 188294" d="M1129.241,445.613a.08.08,0,0,1-.086-.077.083.083,0,0,1,.086-.081h.754a.083.083,0,0,1,.076.081v.788a.09.09,0,0,1-.031.058,1.3,1.3,0,0,1-.778.249,1.151,1.151,0,1,1,0-2.292,1.311,1.311,0,0,1,.782.255.076.076,0,0,1,.01.11.094.094,0,0,1-.121.013,1.1,1.1,0,0,0-.671-.219.992.992,0,1,0,0,1.976,1.131,1.131,0,0,0,.637-.194v-.665Z" transform="translate(-1123.593 -444.338)" fill="#fff"/>
              <path id="Trazado_188295" data-name="Trazado 188295" d="M1137.836,446.713h-.007a.082.082,0,0,1-.083-.078v-2.1a.085.085,0,0,1,.169,0v2.024h1.153a.079.079,0,1,1,0,.158Z" transform="translate(-1130.595 -444.421)" fill="#fff"/>
              <path id="Trazado_188296" data-name="Trazado 188296" d="M1144.789,444.531a.081.081,0,0,1,.083-.078.082.082,0,0,1,.086.078v2.1a.083.083,0,0,1-.086.078.081.081,0,0,1-.083-.078Z" transform="translate(-1135.66 -444.421)" fill="#fff"/>
              <path id="Trazado_188297" data-name="Trazado 188297" d="M1148.007,446.207a.076.076,0,0,1,.107-.009,1.373,1.373,0,0,0,.792.29.948.948,0,0,0,.53-.149.413.413,0,0,0,.206-.336.357.357,0,0,0-.2-.31,1.658,1.658,0,0,0-.558-.184h-.007a1.568,1.568,0,0,1-.568-.19.464.464,0,0,1-.248-.394.519.519,0,0,1,.251-.423,1.034,1.034,0,0,1,.582-.165,1.386,1.386,0,0,1,.744.261.069.069,0,0,1,.021.1.076.076,0,0,1-.1.02,1.244,1.244,0,0,0-.661-.239.9.9,0,0,0-.492.136.388.388,0,0,0-.189.31.325.325,0,0,0,.179.274,1.47,1.47,0,0,0,.516.171h.007a1.719,1.719,0,0,1,.613.206.5.5,0,0,1,.265.426.562.562,0,0,1-.272.452,1.11,1.11,0,0,1-.62.178,1.558,1.558,0,0,1-.888-.326A.071.071,0,0,1,1148.007,446.207Z" transform="translate(-1137.962 -444.338)" fill="#fff"/>
              <path id="Trazado_188298" data-name="Trazado 188298" d="M1158.017,445.66h-1.239v.975a.082.082,0,0,1-.086.078.081.081,0,0,1-.083-.078v-2.1a.081.081,0,0,1,.083-.078.082.082,0,0,1,.086.078v.975h1.239v-.975a.081.081,0,0,1,.083-.078.082.082,0,0,1,.086.078v2.1a.083.083,0,0,1-.086.078.081.081,0,0,1-.083-.078Z" transform="translate(-1144.159 -444.421)" fill="#fff"/>
            </g>
          </g>
          <g id="Grupo_180310" data-name="Grupo 180310" transform="translate(2.83)">
            <rect id="Rectángulo_45998" data-name="Rectángulo 45998" width="16.655" height="4.456" fill="#263238"/>
            <rect id="Rectángulo_45999" data-name="Rectángulo 45999" width="15.396" height="4.456" transform="translate(16.655)" fill="#263238"/>
            <rect id="Rectángulo_46000" data-name="Rectángulo 46000" width="16.655" height="3.531" transform="translate(0 0.462)" fill="#fff"/>
            <path id="Trazado_188299" data-name="Trazado 188299" d="M1111.632,410.5q2.618-.037,5.235-.051l2.368-.016,5.235.015c1.745.009.623.027,2.368.052-1.745.025-.622.043-2.368.052l-5.235.015-2.368-.016Q1114.249,410.534,1111.632,410.5Z" transform="translate(-1110.183 -409.307)" fill="#dbdbdb"/>
            <path id="Trazado_188300" data-name="Trazado 188300" d="M1111.632,412.962q2.618-.037,5.235-.051l2.368-.016,5.235.015c1.745.009.623.027,2.368.052-1.745.025-.622.043-2.368.052l-5.235.016-2.368-.016Q1114.249,413,1111.632,412.962Z" transform="translate(-1110.183 -411.081)" fill="#dbdbdb"/>
            <path id="Trazado_188301" data-name="Trazado 188301" d="M1111.632,415.428q2.618-.037,5.235-.051l2.368-.016,5.235.015c1.745.009.623.027,2.368.052-1.745.025-.622.043-2.368.052l-5.235.015-2.368-.016Q1114.249,415.466,1111.632,415.428Z" transform="translate(-1110.183 -412.854)" fill="#dbdbdb"/>
            <path id="Trazado_188302" data-name="Trazado 188302" d="M1111.632,417.894q2.618-.037,5.235-.051l2.368-.016,5.235.015c1.745.009.623.027,2.368.052-1.745.025-.622.043-2.368.052l-5.235.015-2.368-.016Q1114.249,417.932,1111.632,417.894Z" transform="translate(-1110.183 -414.627)" fill="#dbdbdb"/>
            <rect id="Rectángulo_46001" data-name="Rectángulo 46001" width="2.167" height="4.456" transform="translate(20.066)" fill="#455a64"/>
            <rect id="Rectángulo_46002" data-name="Rectángulo 46002" width="1.457" height="4.456" transform="translate(29.798)" fill="#455a64"/>
          </g>
          <g id="Grupo_180311" data-name="Grupo 180311" transform="translate(0 14.42)">
            <rect id="Rectángulo_46003" data-name="Rectángulo 46003" width="18.758" height="6.124" transform="translate(33.001 6.124) rotate(180)" fill="#ffc727"/>
            <rect id="Rectángulo_46004" data-name="Rectángulo 46004" width="14.243" height="6.124" transform="translate(14.243 6.124) rotate(180)" fill="#ffc727"/>
            <rect id="Rectángulo_46005" data-name="Rectángulo 46005" width="18.758" height="4.853" transform="translate(33.001 5.488) rotate(180)" fill="#fff"/>
            <path id="Trazado_188303" data-name="Trazado 188303" d="M1164.645,473.579q-2.193.037-4.386.051l-4.386.016-4.386-.015q-2.193-.014-4.386-.052,2.193-.038,4.386-.052l4.386-.015,4.386.016Q1162.452,473.541,1164.645,473.579Z" transform="translate(-1132.858 -469.089)" fill="#dbdbdb"/>
            <path id="Trazado_188304" data-name="Trazado 188304" d="M1164.645,470.19q-2.193.037-4.386.051l-4.386.016-4.386-.015q-2.193-.014-4.386-.052,2.193-.037,4.386-.052l4.386-.015,4.386.016Q1162.452,470.152,1164.645,470.19Z" transform="translate(-1132.858 -466.652)" fill="#dbdbdb"/>
            <path id="Trazado_188305" data-name="Trazado 188305" d="M1164.645,466.8q-2.193.037-4.386.052l-4.386.016-4.386-.015q-2.193-.014-4.386-.052,2.193-.037,4.386-.052l4.386-.015,4.386.016Q1162.452,466.763,1164.645,466.8Z" transform="translate(-1132.858 -464.215)" fill="#dbdbdb"/>
            <path id="Trazado_188306" data-name="Trazado 188306" d="M1164.645,463.412q-2.193.037-4.386.051l-4.386.016-4.386-.015q-2.193-.013-4.386-.052,2.193-.038,4.386-.052l4.386-.015,4.386.016Q1162.452,463.374,1164.645,463.412Z" transform="translate(-1132.858 -461.778)" fill="#dbdbdb"/>
            <rect id="Rectángulo_46006" data-name="Rectángulo 46006" width="2.666" height="6.124" transform="translate(2.269 0)" fill="#455a64"/>
          </g>
        </g>
      </g>
      <g id="Desk" transform="translate(798.042 209.378)">
        <path id="Trazado_188307" data-name="Trazado 188307" d="M921.316,493.107l-15.168.068-15.168.025-30.336.047-30.336-.047-15.168-.025-15.168-.069,15.168-.069,15.168-.025,30.336-.047,30.336.047,15.168.025Z" transform="translate(-799.972 -492.966)" fill="#263238"/>
      </g>
    </g>
  </g>
</svg>
