<svg id="Grupo_180449" data-name="Grupo 180449" xmlns="http://www.w3.org/2000/svg" xmlns:xlink="http://www.w3.org/1999/xlink" width="90" height="90" viewBox="0 0 90 90">
  <defs>
    <clipPath id="clip-path">
      <rect id="Rectángulo_45019" data-name="Rectángulo 45019" width="43.16" height="67.296" fill="none"/>
    </clipPath>
  </defs>
  <circle id="Elipse_4780" data-name="Elipse 4780" cx="45" cy="45" r="45" fill="#c4d1ff"/>
  <g id="Grupo_174384" data-name="Grupo 174384" transform="translate(26.42 11.352)">
    <g id="Grupo_174384-2" data-name="Grupo 174384" clip-path="url(#clip-path)">
      <path id="Trazado_180143" data-name="Trazado 180143" d="M90.147,220.541s-1.243,5.8-4.967,8.1-9.467,2.784-15.926-.545a14.64,14.64,0,0,1-8.339-13.2l2.271-9.543Z" transform="translate(-59.496 -163.187)" fill="#f59c73"/>
      <path id="Trazado_180144" data-name="Trazado 180144" d="M33.974,49.838h0A17.646,17.646,0,0,0,15.206,66.622l-.665,13.635A18.192,18.192,0,0,0,31.566,99.239,17.646,17.646,0,0,0,50.334,82.455L51,68.819A18.191,18.191,0,0,0,33.974,49.838" transform="translate(-10.842 -39.576)" fill="#f59c73"/>
      <path id="Trazado_180145" data-name="Trazado 180145" d="M64.091,237.622a.356.356,0,0,1,.236-.087h9.119a.362.362,0,0,1,.237.086.351.351,0,0,1,.045.034l.006.006a.325.325,0,0,1,.1.373c-1.658,4.885-8.017,4.6-9.878,0a.309.309,0,0,1,.137-.411" transform="translate(-43.822 -188.753)" fill="#b35546"/>
      <path id="Trazado_180146" data-name="Trazado 180146" d="M43.606,163.195a5.777,5.777,0,0,0,.1,2.3,1.4,1.4,0,0,0,2.7-.225,5.929,5.929,0,0,0-.036-2.22,1.4,1.4,0,0,0-2.767.141" transform="translate(-12.277 -128.681)" fill="#2f2031"/>
      <path id="Trazado_180147" data-name="Trazado 180147" d="M110.795,163.195a5.777,5.777,0,0,0,.1,2.3,1.4,1.4,0,0,0,2.7-.225,5.929,5.929,0,0,0-.036-2.22,1.4,1.4,0,0,0-2.767.141" transform="translate(-93.264 -128.681)" fill="#2f2031"/>
      <path id="Trazado_180148" data-name="Trazado 180148" d="M110.75,140.875a5.67,5.67,0,0,0-4.584.381c-.737.43-1.443-.711-.7-1.141a6.982,6.982,0,0,1,5.59-.534.665.665,0,0,1-.3,1.294" transform="translate(-89.984 -110.652)" fill="#3e2a43"/>
      <path id="Trazado_180149" data-name="Trazado 180149" d="M34.732,140.875a5.7,5.7,0,0,1,4.593.381A.663.663,0,0,0,40,140.115a7.03,7.03,0,0,0-5.6-.534.669.669,0,0,0,.336,1.294" transform="translate(-4.132 -110.652)" fill="#3e2a43"/>
      <path id="Trazado_180150" data-name="Trazado 180150" d="M35.276,18.972a5.078,5.078,0,0,1-4.2,5.851c-5.069,1.211-8.637-.161-11.807-1.937s-8.93-5.955-10.4-5.73S6.456,18.286,6.907,22,3.651,40.64,3.651,40.64.444,21.515.051,15.946s1.474-8.666,6.1-9.362c0,0-1.006-2.936.907-4.812C8.376.475,10.134-.318,17.584.122c7.854.464,18.428,5.352,22.3,9.771s3.9,13.318-.379,24.334c0,0-.641-9.344-4.227-15.255" transform="translate(0.411 0)" fill="#3e2a43"/>
      <path id="Trazado_180151" data-name="Trazado 180151" d="M154.354,149.127a5.819,5.819,0,0,0,5.8,5.73,5.643,5.643,0,0,0,5.657-5.73,5.819,5.819,0,0,0-5.8-5.73,5.643,5.643,0,0,0-5.657,5.73" transform="translate(-154.354 -113.948)" fill="#f59c73"/>
      <path id="Trazado_180152" data-name="Trazado 180152" d="M8.365,146.509a7.329,7.329,0,0,0,5.073-2.058,8.457,8.457,0,0,0,2.588-5.74c.243-4.608-3.045-8.618-7.332-8.938A7.312,7.312,0,0,0,3.07,131.81a8.452,8.452,0,0,0-2.588,5.74,8.822,8.822,0,0,0,1.964,6.08,7.655,7.655,0,0,0,5.367,2.859c.184.014.369.021.551.021m-.206-15.576c.158,0,.316.006.474.018a6.581,6.581,0,0,1,4.61,2.456,7.581,7.581,0,0,1,1.688,5.224,7.268,7.268,0,0,1-2.224,4.931,6.306,6.306,0,0,1-4.833,1.75,6.575,6.575,0,0,1-4.61-2.456,7.579,7.579,0,0,1-1.688-5.224A7.261,7.261,0,0,1,3.8,132.7a6.3,6.3,0,0,1,4.359-1.768" transform="translate(27.024 -103.105)" fill="#ffd373"/>
      <path id="Trazado_180153" data-name="Trazado 180153" d="M92.831,140.289a8.261,8.261,0,0,0,8.255-7.8,8.506,8.506,0,0,0-7.891-8.938,8.252,8.252,0,0,0-8.84,7.777,8.506,8.506,0,0,0,7.891,8.939q.294.021.585.021m-.212-15.577q.254,0,.51.018a7.309,7.309,0,0,1,6.779,7.679,7.093,7.093,0,0,1-7.595,6.682,7.31,7.31,0,0,1-6.779-7.68,7.088,7.088,0,0,1,7.085-6.7" transform="translate(-75.261 -98.162)" fill="#ffd373"/>
      <path id="Trazado_180154" data-name="Trazado 180154" d="M74.687,159.921l-2.82-.2c-.748-.052-.769-1.223-.015-1.171l2.821.2c.748.052.769,1.223.015,1.171" transform="translate(-46.725 -125.991)" fill="#ffd373"/>
      <path id="Trazado_180155" data-name="Trazado 180155" d="M164.623,142.042l-3.75-2.642c-.615-.433-.043-1.449.578-1.011l3.75,2.642c.615.433.043,1.449-.578,1.011" transform="translate(-155.289 -109.883)" fill="#ffd373"/>
      <path id="Trazado_180156" data-name="Trazado 180156" d="M68.28,177.256c.4,1.188.747,2.385,1.028,3.6a10.51,10.51,0,0,1,.545,3.023c-.139,1.437-2.331,1.948-3.476,2.188-.739.155-1.071-.982-.328-1.138a4.394,4.394,0,0,0,2.132-.748c.66-.731.291-1.637.117-2.448a38.929,38.929,0,0,0-1.153-4.167c-.242-.725.894-1.035,1.134-.314" transform="translate(-40.184 -140.527)" fill="#b35546"/>
      <path id="Trazado_180157" data-name="Trazado 180157" d="M61.84,264.675a17.4,17.4,0,0,0,11.245,5.064l.685.039a16.976,16.976,0,0,0,9.58-2.211s-.141.645-.46,1.59A18.213,18.213,0,0,1,74.88,271c-.385,0-.779-.016-1.165-.039l-.685-.039A18.6,18.6,0,0,1,61.116,265.6c-.553-.555.238-1.386.724-.929" transform="translate(-52.702 -210.214)" fill="#b35546"/>
    </g>
  </g>
</svg>
