<svg xmlns="http://www.w3.org/2000/svg" xmlns:xlink="http://www.w3.org/1999/xlink" width="610" height="213" viewBox="0 0 610 213">
  <defs>
    <clipPath id="clip-path">
      <rect id="Rectángulo_46073" data-name="Rectángulo 46073" width="610" height="213" transform="translate(182 7214)" fill="#ffe891"/>
    </clipPath>
  </defs>
  <g id="Enmascarar_grupo_362" data-name="Enmascarar grupo 362" transform="translate(-182 -7214)" clip-path="url(#clip-path)">
    <path id="Rectángulo_45411" data-name="Rectángulo 45411" d="M10,0H600a10,10,0,0,1,10,10V213a0,0,0,0,1,0,0H0a0,0,0,0,1,0,0V10A10,10,0,0,1,10,0Z" transform="translate(182 7214)" fill="#ffdd5c"/>
    <g id="Grupo_180446" data-name="Grupo 180446" transform="translate(130 7354)">
      <g id="Grupo_180444" data-name="Grupo 180444" transform="matrix(0.259, -0.966, 0.966, 0.259, 543.357, 68.637)">
        <g id="Grupo_180440" data-name="Grupo 180440" transform="translate(1.483 5.538)" style="mix-blend-mode: overlay;isolation: isolate">
          <path id="Trazado_189110" data-name="Trazado 189110" d="M144.3,70.449c-10.582,10.02-21.5,19.689-32.621,29.194,4.946-9.958,10.255-19.766,14.964-29.822,5.338-11.4,11.6-26.917,5.479-38.62-13.942-26.676-51.41.61-65.289,14.491-1.478,1.48-2.893,3.022-4.324,4.546,5.1-11.077,9.729-22.445,8.856-34.274C70.163-.3,54.1-3.858,40.009,4.018,24.881,12.473,12.553,26.8,2.236,39.8-6.527,50.836,12.7,60.745,21.392,49.864A154.822,154.822,0,0,1,36.944,33.129q-1.257,2.074-2.539,4.14a314.322,314.322,0,0,0-15.9,27.812C9.59,83.384-3.558,108.742,6.677,127.568c5.159,9.488,17.761,10.189,27.358,6.074,12.9-5.531,22.023-17.321,30.786-27.322,9.147-10.442,17.247-21.495,25.742-32.367A167.605,167.605,0,0,1,101.7,60.609c.092-.1.189-.187.282-.282l-.106.29a199.6,199.6,0,0,1-8.287,18.562C88.024,90.561,80.9,102.57,78.674,114.871,76.7,125.749,81.163,137.8,95.281,136.7c13.272-1.027,24.172-13.064,33.218-21.141,10.954-9.782,21.722-19.749,32.491-29.706C172.236,75.46,155.414,59.927,144.3,70.449Z" transform="translate(2.174 1.993)" fill="#3c384f"/>
          <path id="Trazado_189111" data-name="Trazado 189111" d="M96.146,140.746c-5.2.113-9.577-1.48-12.714-4.645-4.359-4.4-6.117-11.681-4.7-19.479,1.843-10.166,6.849-19.974,11.689-29.457,1.159-2.271,2.307-4.52,3.395-6.744,1.031-2.11,2.116-4.326,3.194-6.617q-.97,1.233-1.92,2.453l-.629.806c-2.207,2.824-4.387,5.66-6.565,8.5-6.116,7.957-12.441,16.187-19.255,23.965-1,1.136-2,2.3-3.006,3.467-7.817,9.063-16.676,19.334-28.595,24.442-10.625,4.55-24.38,3.639-30.115-6.914C-3.383,111.56,8.812,86.613,17.718,68.4l1.011-2.071c2.62-5.381,5.539-10.642,8.628-15.882q-1.061,1.265-2.083,2.547C19.9,59.717,10.762,59.816,5.029,56.025c-4.741-3.136-7.3-9.1-2.332-15.362C13.711,26.79,25.991,12.785,41.134,4.322c8.4-4.7,17.5-5.627,24.347-2.489,6.025,2.763,9.649,8.409,10.2,15.9C76.33,26.522,74.075,35,70.906,43.1c11.267-10.208,32-24.788,48.324-23,7.5.824,13.218,4.918,17.006,12.166,6.231,11.919.739,27.046-5.456,40.269-2.948,6.3-6.175,12.582-9.3,18.663l-1.1,2.151c9.048-7.882,17.149-15.217,24.59-22.262v0a14.04,14.04,0,0,1,12.944-3.812,14.377,14.377,0,0,1,10.717,9.818c1.182,4.353-.231,8.662-3.983,12.129l-1.225,1.131c-10.2,9.428-20.74,19.178-31.295,28.6-1.3,1.162-2.638,2.4-4.017,3.686-8.2,7.615-18.408,17.1-30.574,18.037C97.068,140.714,96.6,140.736,96.146,140.746Zm8.048-80.328a2.093,2.093,0,0,1,1.034.234,1.8,1.8,0,0,1,.961,2.233l-.108.292a202.066,202.066,0,0,1-8.365,18.744c-1.1,2.246-2.258,4.515-3.426,6.8-4.709,9.229-9.581,18.772-11.322,28.38-1.182,6.523.233,12.746,3.692,16.238,2.566,2.589,6.164,3.709,10.71,3.372,10.533-.817,19.688-9.316,27.765-16.818,1.4-1.3,2.76-2.562,4.08-3.743,10.527-9.4,21.057-19.133,31.24-28.549l1.223-1.131c3.319-3.067,3.343-6.179,2.782-8.25a10.5,10.5,0,0,0-7.717-7.079,9.358,9.358,0,0,0-8.764,2.651v0c-9.613,9.1-20.311,18.674-32.709,29.268a2.3,2.3,0,0,1-2.709.21,1.842,1.842,0,0,1-.657-2.4c1.869-3.764,3.791-7.506,5.712-11.247,3.1-6.049,6.315-12.3,9.231-18.532,5.8-12.387,10.994-26.467,5.5-36.97-3.192-6.111-7.712-9.407-13.819-10.076C103.318,22.381,81.5,38.051,70.553,49c-1.168,1.165-2.293,2.373-3.421,3.581l-.853.914a2.308,2.308,0,0,1-2.759.455,1.846,1.846,0,0,1-.808-2.425c4.859-10.551,9.532-21.818,8.682-33.345-.456-6.176-3.209-10.593-7.959-12.771C57.893,2.87,50.341,3.727,43.232,7.7,28.779,15.779,16.854,29.4,6.121,42.92c-3.39,4.272-1.444,7.884,1.511,9.837a10.624,10.624,0,0,0,14.225-2.033,157.851,157.851,0,0,1,15.77-16.973A2.3,2.3,0,0,1,40.44,33.5a1.851,1.851,0,0,1,.542,2.532q-1.263,2.083-2.552,4.158a313.714,313.714,0,0,0-15.8,27.629L21.621,69.9c-8.545,17.477-20.244,41.413-10.841,58.71,4.568,8.4,15.833,8.988,24.6,5.233,10.94-4.688,19.075-14.119,26.941-23.24,1.018-1.178,2.027-2.348,3.031-3.492,6.721-7.675,13-15.848,19.078-23.753q3.276-4.265,6.585-8.522l.629-.8A160.056,160.056,0,0,1,102.3,61.317l.2-.2A2.553,2.553,0,0,1,104.194,60.418Zm42.281,12.024h0Z" transform="translate(0 0)" fill="#3c384f"/>
          <path id="Trazado_189112" data-name="Trazado 189112" d="M9.615,1.047C1.354,15.93-3.518,33.273,3.066,48.934c.972,2.316,5.154,1.2,4.167-1.147C1.055,33.083,5.509,16.97,13.279,2.971,14.561.663,10.9-1.273,9.615,1.047Z" transform="translate(10.761 76.058)" fill="#3c384f"/>
          <path id="Trazado_189113" data-name="Trazado 189113" d="M6.4,10.663c-.036,0-.071-.012-.1-.018-.058-.106-.109-.222-.127-.253l-.01-.012c0-.016,0,0,0-.028-.256-.882-.433-1.776-.622-2.675Q4.873,4.549,4.216,1.42A2.092,2.092,0,0,0,1.606.091,2.12,2.12,0,0,0,.047,2.567Q.788,6.1,1.532,9.645c.411,1.963,1.083,4.536,3.631,4.876a2.335,2.335,0,0,0,2.675-1.446A1.9,1.9,0,0,0,6.4,10.663Z" transform="translate(19.521 108.238)" fill="#3c384f"/>
          <path id="Trazado_189114" data-name="Trazado 189114" d="M7.373.23C4.963-.921,2.71,2.556,5.125,3.709,8.459,5.3,9.408,8.668,9.463,12A53.925,53.925,0,0,1,8.227,23.407,74.767,74.767,0,0,1,.268,44.913c-1.28,2.31,2.376,4.244,3.663,1.924a78.353,78.353,0,0,0,8.931-25.318C14.043,14.336,15.494,4.107,7.373.23Z" transform="translate(115.13 31.858)" fill="#3c384f"/>
        </g>
        <g id="Grupo_180443" data-name="Grupo 180443" transform="translate(0 0)">
          <g id="Grupo_180442" data-name="Grupo 180442" transform="translate(0 0)">
            <g id="Grupo_180441" data-name="Grupo 180441">
              <path id="Trazado_189115" data-name="Trazado 189115" d="M144.3,70.45c-10.582,10.02-21.5,19.689-32.623,29.192,4.945-9.956,10.257-19.766,14.966-29.82,5.338-11.4,11.6-26.917,5.479-38.62a20.678,20.678,0,0,0-8.627-9.108c-16.97-8.979-45.059,11.993-56.662,23.6-1.48,1.478-2.893,3.02-4.324,4.546,5.1-11.077,9.727-22.445,8.856-34.274C70.165-.3,54.1-3.858,40.011,4.017,24.881,12.474,12.555,26.8,2.236,39.8-6.527,50.836,12.7,60.746,21.394,49.865a155.018,155.018,0,0,1,15.55-16.737q-1.257,2.074-2.537,4.142a314.573,314.573,0,0,0-15.9,27.81C9.59,83.385-3.556,108.74,6.679,127.569c5.159,9.488,17.759,10.189,27.358,6.074,12.9-5.531,22.023-17.321,30.786-27.321C73.97,95.88,82.068,84.827,90.563,73.954A168.928,168.928,0,0,1,101.7,60.607c.092-.1.191-.185.284-.282l-.106.292a200.182,200.182,0,0,1-8.287,18.562c-5.569,11.381-12.687,23.389-14.917,35.693C76.7,125.75,81.165,137.8,95.283,136.7c13.27-1.027,24.17-13.064,33.216-21.141,10.956-9.782,21.724-19.751,32.494-29.708C172.236,75.461,155.414,59.927,144.3,70.45Z" transform="translate(2.172 1.992)" fill="#a6bbff"/>
              <path id="Trazado_189116" data-name="Trazado 189116" d="M96.144,140.744c-5.2.113-9.575-1.478-12.711-4.643-4.359-4.4-6.117-11.681-4.7-19.481,1.841-10.164,6.847-19.972,11.689-29.457,1.157-2.271,2.305-4.518,3.395-6.742,1.031-2.11,2.116-4.326,3.194-6.617-.646.82-1.286,1.641-1.92,2.453l-.629.8c-2.207,2.824-4.387,5.662-6.567,8.5-6.114,7.959-12.438,16.189-19.252,23.965q-1.493,1.707-3.006,3.469c-7.817,9.061-16.676,19.331-28.595,24.442-10.627,4.55-24.38,3.638-30.115-6.916C-3.383,111.561,8.812,86.613,17.716,68.4l1.013-2.069c2.62-5.381,5.539-10.642,8.626-15.882Q26.3,51.709,25.272,52.99c-5.372,6.728-14.51,6.827-20.243,3.035-4.741-3.136-7.3-9.1-2.332-15.362C13.711,26.79,25.991,12.785,41.132,4.32,49.538-.374,58.635-1.3,65.481,1.833c6.025,2.763,9.647,8.407,10.2,15.9C76.33,26.521,74.075,35,70.9,43.1c11.269-10.206,32-24.786,48.324-23,7.5.824,13.22,4.918,17.008,12.166,6.229,11.919.737,27.044-5.456,40.269-2.948,6.294-6.175,12.582-9.3,18.661l-1.1,2.151c9.048-7.88,17.149-15.215,24.59-22.26h0a14.039,14.039,0,0,1,12.944-3.81,14.37,14.37,0,0,1,10.715,9.818c1.184,4.353-.229,8.66-3.981,12.127l-1.225,1.133c-10.2,9.428-20.74,19.176-31.295,28.6-1.3,1.162-2.638,2.4-4.019,3.686-8.2,7.615-18.406,17.1-30.572,18.037C97.066,140.712,96.6,140.734,96.144,140.744Zm8.048-80.328a2.089,2.089,0,0,1,1.034.236,1.8,1.8,0,0,1,.963,2.233l-.108.292a202.309,202.309,0,0,1-8.365,18.744c-1.1,2.244-2.258,4.513-3.426,6.8-4.712,9.23-9.583,18.772-11.325,28.378-1.182,6.524.233,12.746,3.694,16.24,2.563,2.588,6.164,3.709,10.71,3.372,10.533-.817,19.688-9.316,27.763-16.818,1.4-1.3,2.762-2.564,4.082-3.743,10.527-9.4,21.057-19.133,31.24-28.549l1.223-1.133c3.317-3.065,3.343-6.177,2.779-8.25a10.5,10.5,0,0,0-7.717-7.077,9.355,9.355,0,0,0-8.762,2.651h0c-9.613,9.1-20.311,18.674-32.709,29.27a2.3,2.3,0,0,1-2.709.21,1.84,1.84,0,0,1-.657-2.4c1.869-3.764,3.79-7.506,5.71-11.249,3.106-6.047,6.315-12.3,9.234-18.53,5.8-12.387,10.994-26.467,5.5-36.972-3.194-6.109-7.714-9.4-13.819-10.076C103.318,22.382,81.5,38.052,70.551,49c-1.166,1.167-2.291,2.375-3.419,3.581l-.855.916a2.3,2.3,0,0,1-2.757.455,1.849,1.849,0,0,1-.811-2.427c4.861-10.549,9.534-21.818,8.684-33.343C70.937,12,68.184,7.587,63.434,5.408,57.891,2.87,50.341,3.727,43.232,7.7,28.777,15.777,16.854,29.4,6.121,42.92,2.728,47.192,4.677,50.8,7.631,52.755a10.622,10.622,0,0,0,14.225-2.031,157.46,157.46,0,0,1,15.77-16.972,2.3,2.3,0,0,1,2.811-.252,1.847,1.847,0,0,1,.542,2.53q-1.263,2.086-2.55,4.16a313.743,313.743,0,0,0-15.8,27.629L21.619,69.9C13.076,87.372,1.377,111.308,10.781,128.6c4.568,8.4,15.833,8.99,24.6,5.235,10.94-4.688,19.075-14.121,26.941-23.24q1.527-1.77,3.028-3.493c6.724-7.673,13-15.846,19.08-23.751,2.184-2.844,4.371-5.689,6.585-8.524l.629-.8A160.133,160.133,0,0,1,102.3,61.317l.2-.2A2.55,2.55,0,0,1,104.192,60.416Zm42.281,12.026h0Z" fill="#3c3fa7"/>
            </g>
            <path id="Trazado_189117" data-name="Trazado 189117" d="M9.616,1.047C1.353,15.93-3.516,33.272,3.065,48.935c.974,2.314,5.156,1.2,4.169-1.147C1.054,33.081,5.508,16.97,13.28,2.971,14.56.662,10.9-1.273,9.616,1.047Z" transform="translate(10.76 76.058)"/>
            <path id="Trazado_189118" data-name="Trazado 189118" d="M6.4,10.663c-.036,0-.071-.012-.1-.018-.058-.108-.111-.222-.129-.253l-.008-.012c0-.016,0-.006,0-.03-.256-.88-.435-1.776-.622-2.673Q4.87,4.549,4.216,1.42A2.093,2.093,0,0,0,1.6.091,2.119,2.119,0,0,0,.047,2.567L1.53,9.643c.413,1.965,1.085,4.538,3.633,4.878a2.337,2.337,0,0,0,2.675-1.446A1.9,1.9,0,0,0,6.4,10.663Z" transform="translate(19.521 108.239)"/>
            <path id="Trazado_189119" data-name="Trazado 189119" d="M7.374.23C4.964-.921,2.709,2.556,5.125,3.709,8.46,5.3,9.407,8.668,9.464,11.993A53.94,53.94,0,0,1,8.228,23.407,74.765,74.765,0,0,1,.269,44.913c-1.283,2.31,2.376,4.244,3.664,1.924a78.435,78.435,0,0,0,8.931-25.318C14.044,14.334,15.5,4.105,7.374.23Z" transform="translate(115.129 31.858)" fill="#323489"/>
          </g>
        </g>
      </g>
      <g id="Grupo_180445" data-name="Grupo 180445" transform="translate(615.739 -176.467)">
        <path id="Trazado_189120" data-name="Trazado 189120" d="M149.639,222.25c-11.908,27-18.622,58.658-8.166,87.687,1.548,4.289,7.8,2.414,6.233-1.94-9.82-27.256-3.687-56.667,7.513-82.066C157.064,221.739,151.493,218.041,149.639,222.25Z" transform="translate(-136.29 -220.394)" fill="#3c3fa7"/>
        <path id="Trazado_189121" data-name="Trazado 189121" d="M150.312,256.346c-.055-.007-.107-.025-.158-.036-.09-.2-.175-.412-.2-.471l-.013-.022c-.006-.029,0-.011-.006-.055-.417-1.627-.717-3.279-1.031-4.935q-1.1-5.772-2.194-11.543a3.229,3.229,0,0,0-3.978-2.546,3.813,3.813,0,0,0-2.255,4.486l2.482,13.053c.692,3.625,1.793,8.378,5.639,9.1a3.285,3.285,0,0,0,3.975-2.549C152.923,259.07,152.093,256.681,150.312,256.346Z" transform="translate(-127.15 -177.508)" fill="#3c3fa7"/>
      </g>
      <g id="Grupo_180448" data-name="Grupo 180448" transform="translate(-125)">
        <g id="Grupo_180447" data-name="Grupo 180447">
          <path id="Unión_105" data-name="Unión 105" d="M105.45.073C87.176,1.317,72.154,18.32,60.082,31.979c-2.029,2.3-4,4.526-5.913,6.609C38.619,55.471,23.1,72.956,8.09,89.864l-1.8,2.028A24.031,24.031,0,0,0,.722,114.009c2.107,8.768,8.728,16.183,16.473,18.459,7.054,2.068,13.93-.23,19.342-6.485v0c10.948-12.641,22.878-25.79,36.214-39.9l-1.586,3.906c-4.482,11.044-9.116,22.46-13.329,33.9-4.232,11.49-8.207,23.786-10.123,35.838-2.116,13.311-1.777,26.345,3.337,37.9,5.955,13.462,14.709,21.209,26.019,23.021,24.619,3.932,55.307-22.018,71.9-40.317-4.482,14.76-7.574,30.232-6.288,46.4,1.1,13.783,6.747,24.3,15.911,29.612,10.408,6.036,24.067,4.69,36.546-3.6,22.487-14.939,40.469-40.171,56.551-65.209,7.258-11.3,3.193-22.357-4.052-28.306-8.76-7.193-22.506-7.375-30.355,4.763q-1.493,2.314-3.044,4.6c4.463-9.5,8.67-19.046,12.421-28.824L228.108,136c12.757-33.1,30.226-78.43,14.047-113.659-9-19.611-29.732-21.832-45.559-13.9-17.753,8.907-30.72,27.416-42.162,43.749-1.48,2.112-2.944,4.2-4.4,6.248-9.978,14.013-19.2,28.875-28.125,43.245q-4.765,7.681-9.578,15.34l-.918,1.455q-1.386,2.2-2.8,4.428c1.541-4.165,3.1-8.192,4.572-12.025,1.558-4.041,3.205-8.126,4.87-12.251C125,81.41,132.186,63.6,134.6,45c1.851-14.264-1.05-27.708-7.765-35.962A24.013,24.013,0,0,0,107.54,0C106.852,0,106.154.022,105.45.073Z" transform="translate(263.169 77.979) rotate(180)" fill="#7b9aff" stroke="rgba(0,0,0,0)" stroke-miterlimit="10" stroke-width="1"/>
          <path id="Trazado_189124" data-name="Trazado 189124" d="M349.634,316.457c-15.568,17.981-31.657,35.3-48.056,52.312,7.09-18.087,14.735-35.892,21.466-54.169,7.629-20.724,16.5-48.971,6.88-70.709-21.921-49.548-77.336-.934-97.728,24.01-2.175,2.655-4.246,5.431-6.346,8.177,7.283-20.14,13.843-40.835,12.114-62.594-2.381-29.918-26.681-37.1-47.6-23.2-22.467,14.928-40.508,40.754-55.576,64.21-12.8,19.921,16.486,38.887,29.182,19.25a253.784,253.784,0,0,1,22.807-30.119q-1.818,3.758-3.671,7.506c-8.185,16.5-16.27,33.073-22.939,50.441-12.773,33.263-31.657,79.306-15.591,114.293,8.1,17.631,27.082,19.422,41.38,12.248,19.217-9.643,32.527-30.932,45.358-48.95,13.394-18.812,25.188-38.788,37.587-58.418,5.183-8.2,10.36-16.522,16.289-24.068.136-.171.281-.332.417-.507l-.149.533c-3.293,11.554-7.529,22.642-11.814,33.759-7.978,20.68-18.263,42.45-21.185,64.957-2.585,19.9,4.556,42.2,25.76,40.758,19.931-1.357,35.907-23.029,49.233-37.5,16.141-17.529,31.99-35.407,47.843-53.264C391.844,326.775,365.984,297.576,349.634,316.457Z" transform="translate(-128.354 -370.563)" fill="#a6bbff"/>
          <path id="Trazado_189125" data-name="Trazado 189125" d="M278.573,442.544a24,24,0,0,1-19.291-9.034c-6.715-8.254-9.616-21.7-7.765-35.965,2.411-18.594,9.6-36.407,16.548-53.633,1.661-4.125,3.309-8.206,4.87-12.247,1.477-3.833,3.031-7.86,4.572-12.025-.944,1.481-1.877,2.962-2.8,4.428l-.918,1.452c-3.222,5.1-6.4,10.223-9.581,15.34-8.918,14.374-18.144,29.236-28.122,43.245-1.457,2.05-2.921,4.14-4.4,6.251-11.442,16.329-24.41,34.838-42.162,43.749-15.83,7.933-36.556,5.708-45.558-13.9-16.179-35.225,1.289-80.557,14.043-113.659l1.451-3.76c3.752-9.778,7.959-19.323,12.418-28.824q-1.546,2.281-3.044,4.592c-7.846,12.142-21.592,11.959-30.352,4.767-7.245-5.949-11.31-17.007-4.052-28.306,16.082-25.038,34.065-50.27,56.548-65.213,12.483-8.287,26.138-9.632,36.55-3.6,9.164,5.314,14.812,15.825,15.911,29.608,1.286,16.165-1.806,31.64-6.291,46.4,16.6-18.295,47.281-44.245,71.9-40.313,11.31,1.813,20.067,9.559,26.022,23.021,9.794,22.139,2.065,49.7-6.786,73.74-4.214,11.441-8.847,22.861-13.329,33.9l-1.587,3.906c13.336-14.111,25.266-27.26,36.213-39.9h0c5.412-6.255,12.289-8.549,19.343-6.481,7.746,2.276,14.366,9.691,16.47,18.459a24.013,24.013,0,0,1-5.561,22.113l-1.8,2.032c-15.01,16.908-30.53,34.39-46.079,51.276-1.916,2.083-3.884,4.311-5.917,6.609-12.069,13.659-27.091,30.662-45.365,31.906C279.959,442.522,279.264,442.544,278.573,442.544Zm9.271-147.206a2.784,2.784,0,0,1,1.564.474,3.74,3.74,0,0,1,1.528,4.14l-.152.532c-3.451,12.112-7.952,23.791-11.923,34.091-1.574,4.078-3.238,8.2-4.915,12.36C267.182,363.7,260.19,381.03,257.909,398.6c-1.548,11.934.8,23.419,6.133,29.973,3.949,4.854,9.406,7.057,16.234,6.62,15.821-1.08,29.3-16.325,41.18-29.78,2.062-2.334,4.065-4.6,6.01-6.711,15.507-16.839,31.008-34.3,46-51.185l1.8-2.031a16.147,16.147,0,0,0,3.891-15.041c-1.5-6.222-6.372-11.7-11.862-13.305-3.341-.985-8.321-.992-13.09,4.519h0c-14.143,16.329-29.9,33.485-48.182,52.451a2.951,2.951,0,0,1-4.068.277,3.929,3.929,0,0,1-1.073-4.439c2.679-6.839,5.438-13.633,8.195-20.432,4.459-10.982,9.067-22.339,13.239-33.664,8.292-22.518,15.607-48.169,6.973-67.682-5.021-11.347-11.94-17.58-21.149-19.057-22.952-3.665-55.233,24.243-71.315,43.913-1.713,2.1-3.364,4.271-5.018,6.441l-1.254,1.648a2.968,2.968,0,0,1-4.133.726,3.9,3.9,0,0,1-1.305-4.49c6.941-19.181,13.575-39.689,11.888-60.891-.9-11.365-5.2-19.586-12.428-23.776-8.431-4.884-19.76-3.611-30.316,3.4-21.466,14.261-38.925,38.807-54.6,63.207-4.954,7.71-1.894,14.417,2.621,18.123,6.114,5.019,15.665,5.609,21.333-3.162a257.794,257.794,0,0,1,23.13-30.542,2.959,2.959,0,0,1,4.22-.35,3.953,3.953,0,0,1,.9,4.669q-1.827,3.78-3.69,7.539c-8.288,16.712-16.267,33.121-22.794,50.113l-1.451,3.771c-12.237,31.757-28.995,75.25-14.234,107.389,7.17,15.617,24.141,17.142,37.2,10.6,16.3-8.173,28.2-25.173,39.716-41.608,1.49-2.126,2.966-4.231,4.433-6.3,9.846-13.823,19.007-28.583,27.87-42.859q4.779-7.7,9.607-15.391l.918-1.448a270.49,270.49,0,0,1,15.585-22.919l.291-.354A3.345,3.345,0,0,1,287.844,295.338Zm64.045,23.773h0Z" transform="translate(-130.608 -373.217)" fill="#3c3fa7"/>
        </g>
        <path id="Trazado_189126" data-name="Trazado 189126" d="M149.639,222.25c-11.908,27-18.622,58.659-8.166,87.687,1.548,4.289,7.8,2.414,6.233-1.94-9.82-27.256-3.687-56.667,7.513-82.066C157.064,221.739,151.493,218.041,149.639,222.25Z" transform="translate(-117.931 -272.822)" fill="#3c3fa7"/>
        <path id="Trazado_189127" data-name="Trazado 189127" d="M150.312,256.346c-.055-.007-.107-.025-.158-.036-.09-.2-.175-.412-.2-.471l-.013-.022c-.006-.029,0-.011-.006-.055-.417-1.627-.717-3.279-1.031-4.935q-1.1-5.772-2.194-11.543a3.229,3.229,0,0,0-3.978-2.546,3.814,3.814,0,0,0-2.255,4.486l2.482,13.053c.692,3.625,1.793,8.378,5.639,9.1a3.285,3.285,0,0,0,3.975-2.549C152.923,259.07,152.093,256.681,150.312,256.346Z" transform="translate(-108.791 -229.936)" fill="#3c3fa7"/>
        <path id="Trazado_189128" data-name="Trazado 189128" d="M194.033,199.688c-3.668-2.21-6.938,4.085-3.26,6.3,5.073,3.056,6.618,9.279,6.821,15.388a118.8,118.8,0,0,1-1.457,20.913,151.726,151.726,0,0,1-11.216,39.179c-1.848,4.191,3.726,7.889,5.58,3.68a160.157,160.157,0,0,0,12.544-46.141C204.567,225.857,206.39,207.129,194.033,199.688Z" transform="translate(-10.246 -328.862)" fill="#3c3fa7"/>
      </g>
    </g>
  </g>
</svg>
