<svg xmlns="http://www.w3.org/2000/svg" xmlns:xlink="http://www.w3.org/1999/xlink" width="618" height="394" viewBox="0 0 618 394">
  <defs>
    <clipPath id="clip-path">
      <rect id="Rect치ngulo_41289" data-name="Rect치ngulo 41289" width="618" height="394" fill="#6b8dfc"/>
    </clipPath>
  </defs>
  <g id="Grupo_964892" data-name="Grupo 964892" transform="translate(0 0)">
    <g id="Enmascarar_grupo_167" data-name="Enmascarar grupo 167" transform="translate(0 0)" clip-path="url(#clip-path)">
      <g id="Grupo_166176" data-name="Grupo 166176" transform="translate(-150.672 -253.374)">
        <path id="Uni칩n_28" data-name="Uni칩n 28" d="M267.22,567.367c-46.306-2.714-84.374-39.817-114.967-69.623-5.142-5.014-10.129-9.877-14.985-14.421-39.4-36.841-78.733-75-116.768-111.892l-4.569-4.425c-13.994-13.57-19-30.713-14.1-48.262,5.339-19.133,22.117-35.313,41.745-40.279,17.875-4.513,35.3.5,49.016,14.15v-.008c27.743,27.585,57.975,56.276,91.769,87.077l-4.02-8.524c-11.357-24.1-23.1-49.01-33.778-73.985-10.725-25.074-20.8-51.9-25.653-78.2-5.361-29.045-4.5-57.488,8.457-82.706,15.091-29.376,37.274-46.28,65.934-50.236,62.388-8.579,140.154,48.047,182.2,87.976C366.146,141.8,358.31,108.035,361.569,72.761c2.776-30.076,17.1-53.021,40.32-64.617C428.264-5.027,462.877-2.091,494.5,16c56.984,32.6,102.553,87.658,143.307,142.3,18.391,24.656,8.091,48.787-10.268,61.768-22.2,15.7-57.033,16.093-76.923-10.394q-3.783-5.05-7.714-10.028c11.309,20.733,21.97,41.561,31.476,62.9l3.669,8.213c32.328,72.226,76.6,171.145,35.6,248.02C590.831,561.565,538.3,566.413,498.194,549.1c-44.988-19.436-77.848-59.826-106.844-95.466-3.75-4.608-7.46-9.168-11.153-13.633-25.286-30.578-48.664-63.01-71.272-94.367-8.049-11.174-16.107-22.348-24.271-33.475l-2.326-3.176q-3.512-4.8-7.1-9.662c3.906,9.089,7.845,17.875,11.587,26.24,3.947,8.818,8.123,17.733,12.34,26.734,17.6,37.581,35.816,76.452,41.933,117.034,4.692,31.127-2.661,60.463-19.677,78.474-12.242,12.957-29.07,19.722-48.894,19.722C270.774,567.527,269.006,567.48,267.22,567.367Z" transform="translate(666.899 567.527) rotate(180)" fill="#5355a7" stroke="rgba(0,0,0,0)" stroke-miterlimit="10" stroke-width="1" opacity="0.412"/>
        <path id="Trazado_115699" data-name="Trazado 115699" d="M684.025,444.873C644.572,405.636,603.8,367.84,562.245,330.72c17.966,39.468,37.34,78.322,54.4,118.2,19.333,45.222,41.8,106.862,17.434,154.3-55.551,108.12-195.976,2.037-247.654-52.393-5.511-5.794-10.76-11.851-16.082-17.844,18.457,43.949,35.08,89.107,30.7,136.589-6.035,65.286-67.613,80.949-120.625,50.618-56.935-32.575-102.652-88.932-140.835-140.114-32.426-43.471,41.778-84.856,73.951-42.007a570.642,570.642,0,0,0,57.794,65.724q-4.606-8.2-9.3-16.379c-20.742-36.013-41.229-72.17-58.13-110.07-32.369-72.584-80.223-173.056-39.51-249.4,20.521-38.473,68.628-42.381,104.862-26.726,48.7,21.043,82.426,67.5,114.942,106.815,33.941,41.051,63.829,84.642,95.249,127.476,13.134,17.9,26.253,36.053,41.278,52.52.344.374.712.724,1.056,1.106l-.377-1.162c-8.344-25.213-19.079-49.408-29.937-73.666-20.217-45.126-46.282-92.632-53.684-141.746-6.551-43.423,11.546-92.091,65.279-88.939,50.507,2.961,90.991,50.252,124.76,81.832,40.9,38.25,81.066,77.264,121.239,116.23a46.608,46.608,0,0,1,9.752,13.306C777.747,434.37,721.191,481.831,684.025,444.873Z" transform="translate(-123.278 -156.645)" fill="#6b8dfc"/>
        <path id="Trazado_115700" data-name="Trazado 115700" d="M505.566,182.469c-19.824,0-36.644,6.757-48.885,19.714C439.665,220.194,432.311,249.53,437,280.665c6.109,40.574,24.32,79.445,41.934,117.034,4.209,9,8.385,17.907,12.34,26.726,3.742,8.365,7.681,17.151,11.587,26.24-2.391-3.231-4.758-6.463-7.1-9.662l-2.326-3.167c-8.164-11.127-16.222-22.309-24.279-33.475-22.6-31.366-45.979-63.8-71.265-94.367q-5.539-6.709-11.153-13.641c-29-35.631-61.856-76.022-106.844-95.466-40.116-17.31-92.637-12.456-115.45,30.339-41,76.866,3.267,175.785,35.587,248.02l3.677,8.206c9.507,21.337,20.168,42.166,31.468,62.9q-3.918-4.978-7.714-10.02c-19.882-26.495-54.716-26.1-76.915-10.4-18.359,12.981-28.66,37.112-10.269,61.768,40.755,54.637,86.324,109.7,143.3,142.3,31.632,18.082,66.237,21.019,92.621,7.847,23.223-11.6,37.536-34.533,40.32-64.609,3.259-35.273-4.577-69.043-15.943-101.244,42.056,39.922,119.814,96.548,182.2,87.968,28.66-3.955,50.851-20.86,65.942-50.236,24.819-48.31,5.232-108.446-17.2-160.911-10.678-24.966-22.42-49.885-33.778-73.977l-4.021-8.524C627.526,401.1,657.758,429.8,685.5,457.382h0c13.716,13.65,31.141,18.655,49.016,14.143,19.628-4.966,36.406-21.147,41.737-40.279,4.9-17.549-.1-34.684-14.092-48.254l-4.569-4.433c-38.036-36.9-77.365-75.043-116.768-111.892-4.856-4.544-9.843-9.407-14.993-14.421-30.584-29.806-68.653-66.909-114.959-69.623C509.079,182.517,507.318,182.469,505.566,182.469Zm23.493,321.224a7.89,7.89,0,0,0,3.963-1.035c3.3-1.894,5.052-5.491,3.873-9.033l-.385-1.162c-8.745-26.431-20.152-51.915-30.215-74.391-3.988-8.9-8.205-17.891-12.455-26.972-17.139-36.579-34.858-74.4-40.64-112.744-3.922-26.041,2.031-51.1,15.542-65.405,10.006-10.593,23.837-15.4,41.139-14.445,40.091,2.356,74.237,35.623,104.355,64.983,5.224,5.094,10.3,10.036,15.23,14.644,39.3,36.746,78.577,74.844,116.564,111.694l4.561,4.433c12.372,11.994,12.193,24.466,9.859,32.822-3.791,13.578-16.148,25.524-30.06,29.034-8.467,2.149-21.085,2.165-33.172-9.861h0c-35.841-35.631-75.777-73.07-122.1-114.455a8.361,8.361,0,0,0-10.309-.6,7.81,7.81,0,0,0-2.719,9.686c6.788,14.923,13.781,29.75,20.766,44.585,11.3,23.964,22.977,48.748,33.548,73.46,21.012,49.137,39.55,105.112,17.671,147.691-12.725,24.76-30.257,38.361-53.594,41.584-58.163,8-139.967-52.9-180.721-95.824-4.34-4.576-8.524-9.32-12.717-14.055l-3.177-3.6a8.324,8.324,0,0,0-10.473-1.584,7.849,7.849,0,0,0-3.308,9.8c17.589,41.855,34.4,86.607,30.126,132.872-2.293,24.8-13.184,42.739-31.493,51.883-21.364,10.657-50.073,7.879-76.825-7.418-54.4-31.119-98.639-84.681-138.353-137.926-12.553-16.825-4.8-31.461,6.641-39.547,15.493-10.951,39.7-12.241,54.061,6.9a579.646,579.646,0,0,0,58.613,66.647,8.349,8.349,0,0,0,10.694.764,7.81,7.81,0,0,0,2.293-10.187q-4.631-8.249-9.351-16.451c-21-36.467-41.221-72.274-57.762-109.353l-3.677-8.229c-31.01-69.3-73.476-164.206-36.07-234.339,18.17-34.079,61.176-37.406,94.266-23.12,41.295,17.836,71.469,54.932,100.645,90.794q5.662,6.96,11.235,13.737c24.95,30.164,48.165,62.373,70.626,93.524,8.074,11.206,16.156,22.42,24.344,33.586l2.326,3.16c12.324,16.817,25.065,34.207,39.493,50.013l.737.772A9.055,9.055,0,0,0,529.059,503.694Zm162.3-51.875h0Z" transform="translate(-130.608 -163.591)"/>
        <path id="Trazado_115701" data-name="Trazado 115701" d="M170.117,417.03c-30.175-58.927-47.19-128-20.693-191.345,3.922-9.36,19.767-5.268,15.8,4.234C140.335,289.4,155.877,353.575,184.258,409,188.934,418.144,174.817,426.214,170.117,417.03Z" transform="translate(-89.766 -136.515)" fill="#3c3fa7"/>
        <path id="Trazado_115702" data-name="Trazado 115702" d="M165.54,252.088c-.139.016-.27.056-.4.079-.229.438-.442.9-.516,1.027l-.033.048c-.016.064.008.024-.016.119-1.056,3.55-1.818,7.155-2.612,10.768q-2.788,12.594-5.56,25.189c-.9,4.075-6.035,6.829-10.08,5.555a8.117,8.117,0,0,1-5.716-9.789L146.9,256.6c1.752-7.911,4.545-18.281,14.289-19.865,4.209-.677,9.024,1.074,10.072,5.563C172.157,246.142,170.052,251.355,165.54,252.088Z" transform="translate(-60.321 -139.558)" fill="#3c3fa7"/>
        <path id="Trazado_115703" data-name="Trazado 115703" d="M208.581,389.756c-9.294,4.823-17.581-8.914-8.262-13.745,12.856-6.67,16.77-20.247,17.286-33.578.59-15.146-1.163-30.721-3.693-45.636A296.852,296.852,0,0,0,185.489,211.3c-4.684-9.144,9.441-17.215,14.141-8.03a312.347,312.347,0,0,1,31.788,100.687C235.275,332.652,239.894,373.52,208.581,389.756Z" transform="translate(257.155 62.279)" fill="#3c3fa7"/>
      </g>
    </g>
  </g>
</svg>
