<svg xmlns="http://www.w3.org/2000/svg" xmlns:xlink="http://www.w3.org/1999/xlink" width="505" height="231" viewBox="0 0 505 231">
  <defs>
    <clipPath id="clip-path">
      <rect id="Rectángulo_45656" data-name="Rectángulo 45656" width="505" height="161" rx="14" fill="#fff"/>
    </clipPath>
    <clipPath id="clip-path-2">
      <rect id="Rectángulo_45884" data-name="Rectángulo 45884" width="505" height="231" transform="translate(180 4035)" fill="#fff" stroke="#707070" stroke-width="1" opacity="0.3"/>
    </clipPath>
    <clipPath id="clip-path-3">
      <rect id="Rectángulo_45882" data-name="Rectángulo 45882" width="505" height="337" transform="translate(0 -0.418)" fill="none"/>
    </clipPath>
  </defs>
  <g id="Grupo_982515" data-name="Grupo 982515" transform="translate(-180 -4080.189)">
    <g id="Grupo_180069" data-name="Grupo 180069" transform="translate(23 -98.811)" opacity="0.47">
      <rect id="Rectángulo_45336" data-name="Rectángulo 45336" width="505" height="161" rx="14" transform="translate(157 4179)" fill="#fff"/>
      <g id="Enmascarar_grupo_312" data-name="Enmascarar grupo 312" transform="translate(157 4179)" clip-path="url(#clip-path)">
        <g id="Grupo_175569" data-name="Grupo 175569" transform="translate(-240.404 -67.154)">
          <path id="Trazado_185816" data-name="Trazado 185816" d="M514.28,244.443c11.669,30.373-14.785,49.657-69.261,37.2C382.8,268.062,314.538,232.519,251.084,215.93c-33.089-9.973-59.876-10.547-90.224-16.341C90.5,182.744,55.972,130.936,53.961,102.773,37.889-31.7,443.408,90.835,514.28,244.443Z" transform="matrix(-0.914, 0.407, -0.407, -0.914, 1054.914, 204.75)" fill="#fff"/>
          <path id="Trazado_185819" data-name="Trazado 185819" d="M202.977,286.95c1.374,64.844-13.214,124.938-36.464,126.108-26.637,2.864-53.177-42.5-79.988-46.017-13.809-4.941-25.964,8.679-39.065,12.027-29.931-.258-38.95-102.7-36.2-167.743C21.425-95.656,190.617-34.368,202.977,286.95Z" transform="matrix(0.07, -0.998, 0.998, 0.07, 0, 271.557)" fill="#fff"/>
          <path id="Trazado_185818" data-name="Trazado 185818" d="M21.228,125.186c9.734,31,68.535,63.835,141.758,70.414,84.223,8.274,157.692-6.8,241.078-1.565,42.269,1.182,83.368,10.912,125.213,15.92,93.884,7.616,100-39.587,77.286-71.754C508.16-12.878-9.577-27,21.228,125.186Z" transform="matrix(0.995, -0.105, 0.105, 0.995, 189.178, 23.605)" fill="#fff" opacity="0.388" style="mix-blend-mode: multiply;isolation: isolate"/>
        </g>
      </g>
    </g>
    <g id="Enmascarar_grupo_352" data-name="Enmascarar grupo 352" transform="translate(0 45.189)" clip-path="url(#clip-path-2)">
      <g id="Grupo_180066" data-name="Grupo 180066" transform="translate(180 3946.418)">
        <g id="Grupo_180065" data-name="Grupo 180065" transform="translate(0 0)" clip-path="url(#clip-path-3)">
          <path id="Trazado_187454" data-name="Trazado 187454" d="M1304.351,615.853H1286.16V533.206h-15.14v30.32L1258.6,575.773l-24.5-24.159V506.4h-50.626v33.51h-28.69V495.233h-45.527v36.484H1088V503.424h-27.8v61.8H1028.7V534.7h-16.61V595.75H955.465V536.185H928.406v32.761H903.1V522.782H861.964v51.375H826.256V531.626H784.833l-25.716,25.361V577.88H745.572v-61.8h-22.65V758.2h581.429Z" transform="translate(-762.214 -360.844)" fill="#a6bbff"/>
          <path id="Trazado_187455" data-name="Trazado 187455" d="M722.922,747.466h18.192V664.819h15.139v30.32l12.419,12.247,24.5-24.159V638.011H843.8v33.51h28.69V626.846h45.527V663.33h21.256V635.037h27.8v61.8h31.506V666.308h16.61v61.055h56.626V667.8h27.059v32.761h25.308V654.4h41.134v51.375h35.708V663.239h41.423l25.716,25.361v20.893H1281.7v-61.8h22.65V889.817H722.922Z" transform="translate(-762.214 -403.838)" fill="#8284d2"/>
          <g id="Grupo_180064" data-name="Grupo 180064" transform="translate(26.496 88.953)">
            <g id="Grupo_180042" data-name="Grupo 180042" transform="translate(0 56.928)">
              <path id="Trazado_187456" data-name="Trazado 187456" d="M840.8,555.15c-.378,7.341,6.512,8.475,6.512,8.475L846.1,554.03Z" transform="translate(-827.212 -525.933)" fill="#fd6d36"/>
              <path id="Trazado_187457" data-name="Trazado 187457" d="M893.708,540.505c6.135,3.514,3.206,22.036-4,27.26s-5.589-26.968-5.589-26.968Z" transform="translate(-841.316 -521.515)" fill="#fd6d36"/>
              <g id="Grupo_180040" data-name="Grupo 180040" transform="translate(0 46.52)">
                <path id="Trazado_187458" data-name="Trazado 187458" d="M890.725,767.678H860.853l-5.035-30.528h-2.852l-1.87,30.528H827.137c-2.138-5-1.6-32.412.045-50.234.291-3.142.618-6,.968-8.363.09-.6.179-1.184.275-1.72.038-.253.082-.492.127-.73,0,0,46.5-13.778,52.409-2.54a22.077,22.077,0,0,1,1.423,3.589c.149.44.29.909.424,1.4a147.984,147.984,0,0,1,3.427,17.211C889.057,745,890.725,767.678,890.725,767.678Z" transform="translate(-822.295 -620.032)" fill="#313656"/>
                <path id="Trazado_187459" data-name="Trazado 187459" d="M895.437,715.828c.658,7.154,7.443,8.589,7.443,8.589" transform="translate(-845.065 -625.307)" fill="none" stroke="#021a2d" stroke-miterlimit="10" stroke-width="1.106" opacity="0.32"/>
                <line id="Línea_1497" data-name="Línea 1497" x2="6.25" y2="58.597" transform="translate(57.815 89.05)" fill="none" stroke="#021a2d" stroke-miterlimit="10" stroke-width="1.106" opacity="0.32"/>
                <path id="Trazado_187460" data-name="Trazado 187460" d="M862.723,755.33h-3.955L855.6,785.858" transform="translate(-832.052 -638.211)" fill="none" stroke="#021a2d" stroke-miterlimit="10" stroke-width="1.106" opacity="0.32"/>
                <path id="Trazado_187461" data-name="Trazado 187461" d="M886.938,730s-45.259-9.555-58.844-8.84c0,0-.075,0-.209-.007.291-3.142.618-6,.968-8.364.089-.6.179-1.184.275-1.72,14.739-.134,42.206.171,53.958.32.149.44.29.909.424,1.4A147.907,147.907,0,0,1,886.938,730Z" transform="translate(-822.998 -623.742)" fill="#313656" opacity="0.18" style="mix-blend-mode: multiply;isolation: isolate"/>
                <path id="Trazado_187462" data-name="Trazado 187462" d="M864.1,718.046V737.04l2.514,1.336h1.223v-20.33" transform="translate(-834.827 -626.032)" fill="none" stroke="#021a2d" stroke-miterlimit="10" stroke-width="1.106" opacity="0.32"/>
                <path id="Trazado_187463" data-name="Trazado 187463" d="M895.5,618v.007c-.559,2.718-1.236,5.571-1.937,8.534-.811,5.772-5.071,20.071-7.574,30.387-1.251,5.169-2.063,9.339-1.78,10.925.372,1.072-.365,1.862-1.467,1.847-9.213.826-44.373.283-52.826,1.117.425-6.435,1.326-12.825,2.175-19.207.693-5.2,1.348-10.4,1.691-15.633A83.868,83.868,0,0,1,834.27,623c1.236-10.293,4.625-18.686,10.21-29.574,0,0,21.68-3.552,28.137-3.359C898.044,589.791,898.93,601.387,895.5,618Z" transform="translate(-823.663 -584.223)" fill="#313656"/>
                <path id="Trazado_187464" data-name="Trazado 187464" d="M863.7,599.313l3.239,5.879s-9.831,51.1-10.593,51.859,7.354,12.006,7.354,12.006l9.835-11.754-2.079-50.175,4.787-7.815-5.29-4.169Z" transform="translate(-832.278 -585.884)" fill="#ff6174"/>
                <path id="Trazado_187465" data-name="Trazado 187465" d="M896.559,625.237v.008c-.559,2.718-1.236,5.57-1.937,8.534-.811,5.772-5.071,20.071-7.574,30.387,0,0-19.4-.887-26.394-3.955-6.762-2.971-17.033,1.155-27.5-1.363.693-5.2,1.348-10.4,1.691-15.633a83.87,83.87,0,0,1,.484-12.981,4.462,4.462,0,0,1,2.592-1.348c3.277.075,19.7.574,27.921-6.383s22.85-10.3,22.85-10.3l-2.592,16.1S896.358,624.707,896.559,625.237Z" transform="translate(-824.718 -591.456)" fill="#313656" opacity="0.18" style="mix-blend-mode: multiply;isolation: isolate"/>
                <path id="Trazado_187466" data-name="Trazado 187466" d="M895.8,593.987c-9.1-.079-14.937,24.179-16.386,29.977a23.322,23.322,0,0,1-5.436,9.784s-18.662,1.812-18.843,2.718-1.087,8.516-1.087,8.516,18.118,9.6,28.627,6.16,19.206-26.815,21.742-36.237S907.11,594.087,895.8,593.987Z" transform="translate(-831.543 -585.506)" fill="#313656"/>
                <path id="Trazado_187467" data-name="Trazado 187467" d="M888.124,654.726a13.054,13.054,0,0,1,4.924,7.214" transform="translate(-842.676 -605.347)" fill="none" stroke="#021a2d" stroke-miterlimit="10" stroke-width="1.106" opacity="0.32"/>
                <path id="Trazado_187468" data-name="Trazado 187468" d="M862.742,591.739c-.654,5.929,3.328,12.962,3.328,12.962l5.345-6.481,5.657,6.481s7.594-7.8,8.849-14.713c0,0-8.873-.327-10.072-.021S862.742,591.739,862.742,591.739Z" transform="translate(-834.361 -584.15)" fill="#ededed"/>
                <path id="Trazado_187469" data-name="Trazado 187469" d="M868.96,591.209c-2.85,8.449,11.173,10.551,16.516-1.184C885.476,590.025,874.037,589.438,868.96,591.209Z" transform="translate(-836.292 -584.181)" fill="#ffc68f"/>
                <path id="Trazado_187470" data-name="Trazado 187470" d="M849.051,625.478s-.95,6.51-.075,7.748a10.564,10.564,0,0,0,3.291,2.38s2.793-1.267,3.386-3.657a37.789,37.789,0,0,0,.594-6.813s-1.929,2.345-2.819,1.306a4.984,4.984,0,0,1-1.011-2.522S850.386,627.926,849.051,625.478Z" transform="translate(-829.767 -595.284)" fill="#fd6d36"/>
                <g id="Grupo_180038" data-name="Grupo 180038" transform="translate(38.367 0)">
                  <rect id="Rectángulo_45861" data-name="Rectángulo 45861" width="3.058" height="48.848" rx="1.529" transform="translate(17.183 0) rotate(20.595)" fill="#09406d"/>
                  <path id="Trazado_187471" data-name="Trazado 187471" d="M893.424,640.393a1.525,1.525,0,0,1-1.966.893l-9.845-3.7a1.531,1.531,0,0,1,1.076-2.866l9.845,3.7A1.531,1.531,0,0,1,893.424,640.393Z" transform="translate(-878.593 -598.781)" fill="#09406d"/>
                </g>
                <path id="Trazado_187472" data-name="Trazado 187472" d="M865.75,644.894c2.557-3.224,6.448-5.9,8.115-6.121s8.338,2,9.672,3.06.778,3.171,0,3.95-.667,1.667-1.335,2.445a10.448,10.448,0,0,0-1.5,3.224c-.169.667-4.6,1.77-6.268,2.215l.9-.364s-2.655,1.639-7.342-.217S865.75,644.894,865.75,644.894Z" transform="translate(-835.158 -600.131)" fill="#ffc68f"/>
                <path id="Trazado_187473" data-name="Trazado 187473" d="M842.161,595.1c-6.279.7-10.29,3.155-14.65,12.042s-8.2,24.932-6.453,34.35,2.965,9.243,8.023,8.546,25.812-8.2,25.812-8.2l-1.918-13.43L833.092,631.9s.523-12.209,3.139-21.976S842.161,595.1,842.161,595.1Z" transform="translate(-820.627 -585.87)" fill="#313656"/>
                <path id="Trazado_187474" data-name="Trazado 187474" d="M833.171,654.951a32.042,32.042,0,0,0-4.979,7.271" transform="translate(-823.098 -605.421)" fill="none" stroke="#021a2d" stroke-miterlimit="10" stroke-width="1.106" opacity="0.32"/>
                <path id="Trazado_187475" data-name="Trazado 187475" d="M890.238,648.69a6.176,6.176,0,0,0-3.737-1.1" transform="translate(-842.146 -603.016)" fill="none" stroke="#e55d3e" stroke-linecap="round" stroke-miterlimit="10" stroke-width="0.831" opacity="0.37"/>
                <path id="Trazado_187476" data-name="Trazado 187476" d="M888.831,652.237a7.279,7.279,0,0,0-2.747-1.215" transform="translate(-842.01 -604.137)" fill="none" stroke="#e55d3e" stroke-linecap="round" stroke-miterlimit="10" stroke-width="0.831" opacity="0.37"/>
                <path id="Trazado_187477" data-name="Trazado 187477" d="M886.713,656.694a3.691,3.691,0,0,0-2.275-1.968" transform="translate(-841.472 -605.347)" fill="none" stroke="#e55d3e" stroke-linecap="round" stroke-miterlimit="10" stroke-width="0.831" opacity="0.37"/>
                <path id="Trazado_187478" data-name="Trazado 187478" d="M849.171,644.234c-2.682-.061-8.181-3.91-11.59-4.35s-5.609.941-6.6,2.175-2.2,5.963-1.209,7.943,2.419.33,2.529,0a17.613,17.613,0,0,0,0-2.419s-.245,3.441,1.142,3.755,1.937-2.655,1.937-2.655-.33,1.98,1.1,2.089,2.806-2.749,2.806-2.749-.15,1.1.721.88,2.4-3.481,2.4-3.481Z" transform="translate(-823.494 -600.472)" fill="#ffc68f"/>
                <path id="Trazado_187479" data-name="Trazado 187479" d="M833.706,653.559c-.008-1.432,0-2.868,0-2.868" transform="translate(-824.898 -604.029)" fill="none" stroke="#e55d3e" stroke-linecap="round" stroke-miterlimit="10" stroke-width="0.831" opacity="0.37"/>
                <path id="Trazado_187480" data-name="Trazado 187480" d="M838.234,652.642c0-1.066,0-1.951,0-1.951" transform="translate(-826.379 -604.029)" fill="none" stroke="#e55d3e" stroke-linecap="round" stroke-miterlimit="10" stroke-width="0.831" opacity="0.37"/>
                <path id="Trazado_187481" data-name="Trazado 187481" d="M844.083,651.462c.163-.667.3-1.13.3-1.13" transform="translate(-828.289 -603.912)" fill="none" stroke="#e55d3e" stroke-linecap="round" stroke-miterlimit="10" stroke-width="0.831" opacity="0.37"/>
                <path id="Trazado_187482" data-name="Trazado 187482" d="M841.509,614.655c-2.2,6.3-2.132,16.826-2.132,16.826" transform="translate(-826.752 -592.257)" fill="none" stroke="#021a2d" stroke-miterlimit="10" stroke-width="1.106" opacity="0.32"/>
                <rect id="Rectángulo_45862" data-name="Rectángulo 45862" width="55.825" height="5.972" rx="1.869" transform="translate(5.094 84.549)" fill="#fd6d36"/>
                <line id="Línea_1498" data-name="Línea 1498" x1="55.825" transform="translate(5.094 89.05)" fill="none" stroke="#e56700" stroke-miterlimit="10" stroke-width="1.106"/>
                <line id="Línea_1499" data-name="Línea 1499" x2="55.825" transform="translate(5.094 86.02)" fill="none" stroke="#e56700" stroke-miterlimit="10" stroke-width="1.106"/>
                <g id="Grupo_180039" data-name="Grupo 180039" transform="translate(23.551 83.174)">
                  <path id="Trazado_187483" data-name="Trazado 187483" d="M867.213,704.917h-8.954a2.657,2.657,0,0,0-2.656,2.656v3.787a2.657,2.657,0,0,0,2.656,2.656h8.954a2.657,2.657,0,0,0,2.656-2.656v-3.787A2.657,2.657,0,0,0,867.213,704.917Zm.25,5.667a1.669,1.669,0,0,1-1.762,1.558h-5.929a1.669,1.669,0,0,1-1.762-1.558v-2.236a1.669,1.669,0,0,1,1.762-1.558H865.7a1.669,1.669,0,0,1,1.762,1.558Z" transform="translate(-855.603 -704.917)" fill="#efefef"/>
                  <rect id="Rectángulo_45863" data-name="Rectángulo 45863" width="5.656" height="1.636" rx="0.818" transform="translate(10.141 3.556)" fill="#fff"/>
                </g>
                <rect id="Rectángulo_45864" data-name="Rectángulo 45864" width="2.983" height="5.972" transform="translate(42.78 84.549)" fill="#fff"/>
                <rect id="Rectángulo_45865" data-name="Rectángulo 45865" width="2.983" height="5.972" transform="translate(53.544 84.549)" fill="#fff"/>
                <rect id="Rectángulo_45866" data-name="Rectángulo 45866" width="2.983" height="5.972" transform="translate(15.641 84.549)" fill="#fff"/>
                <rect id="Rectángulo_45867" data-name="Rectángulo 45867" width="2.983" height="5.972" transform="translate(8.432 84.549)" fill="#fff"/>
              </g>
              <g id="Grupo_180041" data-name="Grupo 180041" transform="translate(16.601 18.154)">
                <rect id="Rectángulo_45868" data-name="Rectángulo 45868" width="10.618" height="8.512" transform="translate(18.078 29.978)" fill="#ffc68f"/>
                <path id="Trazado_187484" data-name="Trazado 187484" d="M882.749,583.789v3.985a5.764,5.764,0,0,1-.891.494,30.2,30.2,0,0,1-9.731,2.668v-7.146Z" transform="translate(-854.051 -553.808)" fill="#ee7e5f"/>
                <path id="Trazado_187485" data-name="Trazado 187485" d="M845.32,554.152c-.736,15.727,9.285,27.028,27.768,18.838,4.416-1.956,6.384-9.678,6.384-9.678s2.367-17.11-2.4-18.666-29.629,4.052-30.3,3.755S845.32,554.152,845.32,554.152Z" transform="translate(-845.282 -540.932)" fill="#ffc68f"/>
                <path id="Trazado_187486" data-name="Trazado 187486" d="M882.4,542.964c.31,9.128,5.091,13.518,6.793,12.867s4.948-6.626,4.948-6.626l-4.154-9.943-5.4.836Z" transform="translate(-857.408 -539.263)" fill="#fd6d36"/>
                <path id="Trazado_187487" data-name="Trazado 187487" d="M892.074,562.271c1.038-4.616,3.509-6.8,5.4-5.671,2.223,1.328,2.473,11.2-2.994,10.61S892.074,562.271,892.074,562.271Z" transform="translate(-860.288 -544.831)" fill="#ffc68f"/>
                <path id="Trazado_187488" data-name="Trazado 187488" d="M860.381,564.571c0,.921-.342,1.667-.764,1.667s-.764-.747-.764-1.667.342-1.667.764-1.667S860.381,563.651,860.381,564.571Z" transform="translate(-849.715 -546.986)" fill="#313656"/>
                <ellipse id="Elipse_4897" data-name="Elipse 4897" cx="0.764" cy="1.667" rx="0.764" ry="1.667" transform="translate(20.034 14.546)" fill="#313656"/>
                <path id="Trazado_187489" data-name="Trazado 187489" d="M865.99,567.856c-.1,1.774-1.05,3.936,0,4.427s2.44-.786,2.44-.786" transform="translate(-851.887 -548.603)" fill="none" stroke="#e55d3e" stroke-linecap="round" stroke-miterlimit="10" stroke-width="0.832"/>
                <path id="Trazado_187490" data-name="Trazado 187490" d="M869.2,578.056c1.719.295,6.015-2.751,6.015-2.751" transform="translate(-853.096 -551.037)" fill="none" stroke="#e55d3e" stroke-linecap="round" stroke-miterlimit="10" stroke-width="0.832"/>
                <path id="Trazado_187491" data-name="Trazado 187491" d="M872.13,554.475a3.791,3.791,0,0,1,4.045-1.6C877.1,553.255,872.13,554.475,872.13,554.475Z" transform="translate(-854.052 -543.667)" fill="#313656"/>
                <path id="Trazado_187492" data-name="Trazado 187492" d="M859.054,557.673c-2.373-1.6-3.782-1.373-4.227-.687s3.463.687,3.463.687" transform="translate(-848.388 -544.882)" fill="#313656"/>
                <path id="Trazado_187493" data-name="Trazado 187493" d="M894.824,561.779c.464-1.994,2.26-2.889,3.246-1.935a1.8,1.8,0,0,0-1.333.562,2.567,2.567,0,0,1,.521,3.647c-1.506,2.172-2.84,1.059-2.84,1.059Z" transform="translate(-861.333 -545.861)" fill="#ee7e5f"/>
              </g>
              <path id="Trazado_187494" data-name="Trazado 187494" d="M879.147,531.293s-7.433,3.709-9.592,5.57-16.2,1.974-16.2,1.974l-4.365-2.264-8.029-4.163a.023.023,0,0,0-.015-.007l-1.572-8.423L851.6,512.3s.216.03.6.1c3.724.6,23.624,3.925,26.945,6.621C882.812,521.991,879.147,531.293,879.147,531.293Z" transform="translate(-826.752 -512.302)" fill="#313656"/>
              <path id="Trazado_187495" data-name="Trazado 187495" d="M866.773,546.616c-8.3,7.731-16.944,9.295-23.549,7.984a1.534,1.534,0,0,1-.179-.03,34.578,34.578,0,0,1-12.184-5.593l7.306-6.822a.023.023,0,0,1,.015.007c.224.067,3.7,1.087,8.207,2.182C853.539,546.095,863.287,548.024,866.773,546.616Z" transform="translate(-823.97 -522.054)" fill="#063359"/>
              <path id="Trazado_187496" data-name="Trazado 187496" d="M850.677,528.248c-1.439,6.039,5.427,4.643,4.545,1.587S852.073,522.39,850.677,528.248Z" transform="translate(-830.378 -516.57)" fill="#fd6d36"/>
              <path id="Trazado_187497" data-name="Trazado 187497" d="M864.281,549.5c-6.119,4.923-22.554,5.208-30.435,0" transform="translate(-824.945 -524.452)" fill="none" stroke="#022547" stroke-miterlimit="10" stroke-width="1.106"/>
              <path id="Trazado_187498" data-name="Trazado 187498" d="M849.42,512.4c-2.815,7.574-3,21.5-3,21.5s0,.253-.03.693c-.022.469-.074,1.161-.178,1.981-.313,2.4-1.08,5.9-2.986,8.275a1.5,1.5,0,0,1-.179-.03,34.578,34.578,0,0,1-12.184-5.593l7.306-6.822L836.6,523.98,848.817,512.3S849.033,512.332,849.42,512.4Z" transform="translate(-823.97 -512.302)" fill="#313656" opacity="0.18" style="mix-blend-mode: multiply;isolation: isolate"/>
            </g>
            <g id="Grupo_180049" data-name="Grupo 180049" transform="translate(61.432 29.945)">
              <g id="Grupo_180047" data-name="Grupo 180047" transform="translate(0 58.876)">
                <path id="Trazado_187499" data-name="Trazado 187499" d="M911.862,751.241c-.007,6.772,2.752,12.714,4.859,14.7s5.048-3.17,5.048-3.17V750.1l-4.059-1.861Z" transform="translate(-911.862 -621.268)" fill="#ffc68f"/>
                <path id="Trazado_187500" data-name="Trazado 187500" d="M995.463,763.452H961.77l-2.643-16-3.039-18.433h-3.225L951.8,746.375l-1.043,17.077h-27.02c-1-2.324-1.475-8.952-1.571-17.338-.037-3.672-.008-7.686.089-11.827.358-14.9,1.541-31.436,3.076-39.7,0,0,52.453-15.543,59.127-2.867,3.232,6.137,5.913,23.124,7.82,39.04.693,5.795,1.289,11.447,1.765,16.385C994.964,756.638,995.463,763.452,995.463,763.452Z" transform="translate(-915.222 -601.178)" fill="#02bcc9"/>
                <path id="Trazado_187501" data-name="Trazado 187501" d="M994.04,766.184c-5.936.246-15.543.618-23.3.768a89.521,89.521,0,0,1-11.611-.462l-3.039-18.433h-3.225L951.8,765.417c-3.635.275-17.443,1.154-29.634-.261-.037-3.672-.008-7.686.089-11.827l.991-.745,13.152-7.551,41.423,1.556,14.456,3.21C992.968,755.594,993.564,761.246,994.04,766.184Z" transform="translate(-915.222 -620.22)" fill="#006a72" opacity="0.44" style="mix-blend-mode: multiply;isolation: isolate"/>
                <line id="Línea_1500" data-name="Línea 1500" x2="3.281" y2="29.616" transform="translate(73.672 134.203)" fill="none" stroke="#aaa" stroke-miterlimit="10" stroke-width="1.106"/>
                <line id="Línea_1501" data-name="Línea 1501" x1="1.213" y2="24.514" transform="translate(31.617 137.76)" fill="none" stroke="#008293" stroke-miterlimit="10" stroke-width="1.106"/>
                <path id="Trazado_187502" data-name="Trazado 187502" d="M996.028,598.1c-.663,2.011-1.423,4.074-2.257,6.159-16.757,42.094-1.3,84.158-.32,89.52.417,1.207-67.193,6.107-76.733,7.046.09-1.437.268-3.433.514-5.854.127-1.289.276-2.7.44-4.208h-5.81s2.056-48.924,6.927-74.275c3.8-19.751,9.116-36.389,15.037-44.708a13.873,13.873,0,0,1,9.205-5.616c7.455-1.147,21.807-3.217,27.1-3.061C1000.444,562.773,1002.634,578.286,996.028,598.1Z" transform="translate(-911.862 -560.786)" fill="#02bcc9"/>
                <path id="Trazado_187503" data-name="Trazado 187503" d="M996.127,609.354c-16.757,42.094-1.3,84.158-.32,89.52.417,1.207-67.193,6.107-76.733,7.046.09-1.438.268-3.433.514-5.854a84.8,84.8,0,0,0,17.42-2.778c8.87-2.517,23.027-8.393,27.638-17.665s4.394-25.009,4.394-25.009,10.531-1.467,9.623-16.571-2.316-38.721,10.352-59.343l9.37,24.5C997.721,605.206,996.961,607.269,996.127,609.354Z" transform="translate(-914.218 -565.885)" fill="#006a72" opacity="0.23" style="mix-blend-mode: multiply;isolation: isolate"/>
                <path id="Trazado_187504" data-name="Trazado 187504" d="M988.539,563.109c-10.872,15.281-14.482,13.6-17.419,13.389s-10.568-10.59-10.568-10.59S982.421,562.731,988.539,563.109Z" transform="translate(-927.768 -560.782)" fill="#ffc68f"/>
                <path id="Trazado_187505" data-name="Trazado 187505" d="M921.624,691.865a61.933,61.933,0,0,1,14.408,0l-1.909,39.119-13.576-1.3Z" transform="translate(-914.699 -602.714)" fill="#00c9c9"/>
                <path id="Trazado_187506" data-name="Trazado 187506" d="M921.379,691.865a37.115,37.115,0,0,1,11.139,0l-1.475,39.119-10.5-1.3Z" transform="translate(-914.699 -602.714)" fill="none" stroke="#00b2b6" stroke-miterlimit="10" stroke-width="1.106"/>
                <path id="Trazado_187507" data-name="Trazado 187507" d="M986.755,690.5a259.376,259.376,0,0,1,29.442-2.276l-.885,39.3-27.841.848Z" transform="translate(-936.327 -601.664)" fill="#00c9c9"/>
                <path id="Trazado_187508" data-name="Trazado 187508" d="M992.034,694.351a183.925,183.925,0,0,1,22.97-1.776l-.453,33.741-21.729.56Z" transform="translate(-938.051 -603.084)" fill="none" stroke="#00b2b6" stroke-miterlimit="10" stroke-width="1.106"/>
                <rect id="Rectángulo_45869" data-name="Rectángulo 45869" width="15.352" height="3.882" transform="translate(46.779 33.434)" fill="#ededed"/>
                <path id="Trazado_187509" data-name="Trazado 187509" d="M928.11,630.489c-2.982,13.66-5.964,43.042-5.964,43.042" transform="translate(-915.221 -582.803)" fill="none" stroke="#008293" stroke-miterlimit="10" stroke-width="1.106"/>
                <g id="Grupo_180046" data-name="Grupo 180046" transform="translate(20.841)">
                  <path id="Trazado_187510" data-name="Trazado 187510" d="M950.523,590.449c1.5-13.927,8.31-27.105,15.972-28.248" transform="translate(-945.332 -560.495)" fill="none" stroke="#008293" stroke-miterlimit="10" stroke-width="2.212"/>
                  <path id="Trazado_187511" data-name="Trazado 187511" d="M993.277,559.675c7.713-.333,10.168,10.336,7.277,25.63" transform="translate(-959.299 -559.668)" fill="none" stroke="#008293" stroke-miterlimit="10" stroke-width="2.212"/>
                  <g id="Grupo_180045" data-name="Grupo 180045" transform="translate(31.459 25.637)">
                    <g id="Grupo_180043" data-name="Grupo 180043" transform="translate(9.242 5.538)">
                      <path id="Trazado_187512" data-name="Trazado 187512" d="M1003.327,605.968c3.368,2.227,6.5,3.532,6.379,7.84s-1.445,10.033-6.443,9.955" transform="translate(-1003.262 -605.968)" fill="none" stroke="#008293" stroke-linecap="round" stroke-miterlimit="10" stroke-width="2.212"/>
                    </g>
                    <g id="Grupo_180044" data-name="Grupo 180044">
                      <path id="Trazado_187513" data-name="Trazado 187513" d="M993.6,620.518c-4.869-1.129-4.39-6.584-3.466-10.794s4.678-5.037,8.483-6.386l.716-5.6" transform="translate(-989.536 -597.743)" fill="none" stroke="#008293" stroke-linecap="round" stroke-miterlimit="10" stroke-width="2.212"/>
                    </g>
                    <path id="Rectángulo_45870" data-name="Rectángulo 45870" d="M1.142,0h0A1.142,1.142,0,0,1,2.285,1.142v.606A1.142,1.142,0,0,1,1.143,2.89h0A1.142,1.142,0,0,1,0,1.748V1.142A1.142,1.142,0,0,1,1.142,0Z" transform="translate(7.911 21.607) rotate(9.141)" fill="#01656d"/>
                    <rect id="Rectángulo_45871" data-name="Rectángulo 45871" width="2.285" height="2.89" rx="1.142" transform="translate(3.165 21.167) rotate(9.141)" fill="#01656d"/>
                  </g>
                  <circle id="Elipse_4898" data-name="Elipse 4898" cx="5.19" cy="5.19" r="5.19" transform="translate(0 26.945)" fill="#0097a3"/>
                  <path id="Trazado_187514" data-name="Trazado 187514" d="M952.191,605.821a3.24,3.24,0,1,1-3.24-3.24A3.24,3.24,0,0,1,952.191,605.821Z" transform="translate(-943.761 -573.686)" fill="#008293"/>
                  <path id="Trazado_187515" data-name="Trazado 187515" d="M951.5,606.468a1.907,1.907,0,1,1-1.907-1.907A1.907,1.907,0,0,1,951.5,606.468Z" transform="translate(-944.407 -574.333)" fill="#006a72"/>
                </g>
              </g>
              <g id="Grupo_180048" data-name="Grupo 180048" transform="translate(20.477 20.606)">
                <rect id="Rectángulo_45872" data-name="Rectángulo 45872" width="12.707" height="10.187" transform="translate(21.635 32.95)" fill="#ffc68f"/>
                <path id="Trazado_187516" data-name="Trazado 187516" d="M987.113,551.77v4.769a6.9,6.9,0,0,1-1.067.591,36.143,36.143,0,0,1-11.645,3.193V551.77Z" transform="translate(-952.768 -518.817)" fill="#ee7e5f" opacity="0.26" style="mix-blend-mode: multiply;isolation: isolate"/>
                <path id="Trazado_187517" data-name="Trazado 187517" d="M942.318,515.724c-.881,18.822,11.112,32.347,33.232,22.545,5.284-2.342,7.64-11.583,7.64-11.583s2.832-20.477-2.876-22.339-34.879-1.154-35.683-1.51S942.318,515.724,942.318,515.724Z" transform="translate(-942.273 -502.83)" fill="#ffc68f"/>
                <path id="Trazado_187518" data-name="Trazado 187518" d="M998.272,526.018c1.243-5.524,4.2-8.136,6.459-6.786,2.66,1.589,2.96,13.4-3.582,12.7S998.272,526.018,998.272,526.018Z" transform="translate(-960.231 -508.074)" fill="#ffc68f"/>
                <path id="Trazado_187519" data-name="Trazado 187519" d="M960.343,528.771c0,1.1-.409,2-.914,2s-.914-.894-.914-2,.409-2,.914-2S960.343,527.669,960.343,528.771Z" transform="translate(-947.579 -510.653)" fill="#313656"/>
                <path id="Trazado_187520" data-name="Trazado 187520" d="M979.71,526.332c0,1.1-.409,1.995-.914,1.995s-.914-.894-.914-1.995.409-2,.914-2S979.71,525.23,979.71,526.332Z" transform="translate(-953.905 -509.856)" fill="#313656"/>
                <path id="Trazado_187521" data-name="Trazado 187521" d="M967.055,532.7c-.114,2.123-1.256,4.71,0,5.3s2.921-.941,2.921-.941" transform="translate(-950.177 -512.589)" fill="none" stroke="#e55d3e" stroke-linecap="round" stroke-miterlimit="10" stroke-width="0.996"/>
                <path id="Trazado_187522" data-name="Trazado 187522" d="M970.9,544.909s2.3,1.857,4.1,1.034,3.1-4.326,3.1-4.326" transform="translate(-951.625 -515.501)" fill="none" stroke="#e55d3e" stroke-linecap="round" stroke-miterlimit="10" stroke-width="0.996"/>
                <path id="Trazado_187523" data-name="Trazado 187523" d="M974.405,516.689a4.535,4.535,0,0,1,4.841-1.917C980.349,515.228,974.405,516.689,974.405,516.689Z" transform="translate(-952.769 -506.681)" fill="#313656"/>
                <path id="Trazado_187524" data-name="Trazado 187524" d="M958.755,520.515c-2.84-1.918-4.526-1.644-5.058-.822s4.144.822,4.144.822" transform="translate(-945.991 -508.134)" fill="#313656"/>
                <path id="Trazado_187525" data-name="Trazado 187525" d="M1001.564,525.43c.555-2.387,2.705-3.458,3.885-2.316a2.155,2.155,0,0,0-1.6.673,3.072,3.072,0,0,1,.625,4.365c-1.8,2.6-3.4,1.268-3.4,1.268Z" transform="translate(-961.483 -509.307)" fill="#ee7e5f" opacity="0.26" style="mix-blend-mode: multiply;isolation: isolate"/>
              </g>
              <path id="Trazado_187526" data-name="Trazado 187526" d="M992.188,507.419c-.171.842-1.586,6.591-3.038,8.393-4.447,5.519-8.088,4.938-9.526,5.512s.521-3,0-5.512-.574-4.23-3.858-5.958-1.728-5.355-3.456-7.961a8.334,8.334,0,0,0-9.146-3.679c-4.312.976-4.677-.626-10.039-2.48s-9.332-1.43-12.094,6.159l-1.728,2.264a17.206,17.206,0,0,0-2.994-4.171c-2.13-2.264.052-4.476.8-8.892a6.71,6.71,0,0,1,2.77-3.814c3.077-2.48,7.887-4.684,10.211-7.782,2.346-3.128,9.771-7.321,14.776-7.269s11.068,2.025,15.454,3.954,5.794,4.4,7.179,5.973,2.265,4.886,2.607,5.981a1.515,1.515,0,0,0,.06.156c.477,1,2.264,1.8,3.746,7.44C995.472,501.661,992.359,506.569,992.188,507.419Z" transform="translate(-919.551 -472.228)" fill="#c4d1ff"/>
              <path id="Trazado_187527" data-name="Trazado 187527" d="M992.188,514.721c-.171.842-1.586,6.591-3.038,8.393-4.447,5.519-8.088,4.938-9.526,5.512s.521-3,0-5.512-.574-4.23-3.858-5.958-1.728-5.355-3.456-7.961a8.334,8.334,0,0,0-9.146-3.679c-4.312.976-4.677-.626-10.039-2.48s-9.332-1.43-12.094,6.159l-1.728,2.264a17.2,17.2,0,0,0-2.994-4.171c-2.13-2.264.052-4.476.8-8.892a6.709,6.709,0,0,1,2.77-3.814,14.915,14.915,0,0,1,.365,2.659,3.82,3.82,0,0,0,3.732,3.039,10.1,10.1,0,0,0,2.659-.67,14.766,14.766,0,0,1,9.317.156,30.138,30.138,0,0,0,4.416,1.586c2.458.477,4.967-.291,7.463-.335s5.422,1.036,5.988,3.47c.342,1.46-.03,3.464,1.341,4.06a5.874,5.874,0,0,0,1.251.238c1.988.365,2.994,2.547,3.664,4.454s1.623,4.1,3.6,4.528c2.346.521,4.3-1.832,5.28-4.037a14.758,14.758,0,0,0,1.289-4.4c.5-4.6-1.967-9.548-.075-13.733.477,1,2.264,1.8,3.746,7.44C995.472,508.964,992.359,513.872,992.188,514.721Z" transform="translate(-919.551 -479.53)" fill="#6b8dfc" opacity="0.48"/>
              <path id="Trazado_187528" data-name="Trazado 187528" d="M985.54,518.533c-1.325-.164-1.967-1.655-2.482-2.887a20.531,20.531,0,0,0-1.423-2.784,5.363,5.363,0,0,0-2.292-2.306c-.862-.365-1.884-.331-2.662-.853-1.31-.878-1.277-2.784-1.974-4.2-1.127-2.287-4.041-3.026-6.591-3s-5.183.533-7.594-.294c-1.3-.446-2.444-1.256-3.72-1.765a12.615,12.615,0,0,0-7.713-.141,9.769,9.769,0,0,1-3.955.554c-1.324-.224-2.605-1.423-2.349-2.74" transform="translate(-921.953 -480.685)" fill="none" stroke="#3c3fa7" stroke-miterlimit="10" stroke-width="1.106"/>
              <path id="Trazado_187529" data-name="Trazado 187529" d="M959.665,494.059c.747-3.591,4.037-6.086,7.372-7.613s6.991-2.458,9.962-4.61c1.674-1.213,3.239-2.852,5.3-3.052" transform="translate(-927.478 -474.37)" fill="none" stroke="#3c3fa7" stroke-miterlimit="10" stroke-width="1.106"/>
              <path id="Trazado_187530" data-name="Trazado 187530" d="M990.177,501.174c2.025-1.815,4.184-3.877,4.5-6.578.08-.684.034-1.376.079-2.062a7.794,7.794,0,0,1,1.166-3.606" transform="translate(-937.445 -477.683)" fill="none" stroke="#3c3fa7" stroke-miterlimit="10" stroke-width="1.106"/>
              <path id="Trazado_187531" data-name="Trazado 187531" d="M1006.063,500.635a36,36,0,0,1,.977,7.046,12.085,12.085,0,0,1-1.792,6.787,5.694,5.694,0,0,0-.783,1.351c-.3.932.044,2.022-.425,2.881" transform="translate(-941.974 -481.508)" fill="none" stroke="#3c3fa7" stroke-miterlimit="10" stroke-width="1.106"/>
            </g>
            <path id="Trazado_187532" data-name="Trazado 187532" d="M1453.99,597.7c2.708-4.439,11.8-2.58,13.648-2.362,0,0-4.709,4.285-10.684,3.633,0,0,7.6-.425,10.684,2.005,0,0-1.411,5.078-8.734,3.843s-6.088-4.676-6.088-4.676Z" transform="translate(-1027.116 -482.313)" fill="#d1aa15"/>
            <path id="Trazado_187533" data-name="Trazado 187533" d="M1443.417,573.843c-13.83,6.345-27.221.953-34.46-2.234a12.672,12.672,0,0,1-3.88-2.674l-.127-.127c-4.007-4.133-4.826-10.315-1.355-11.969,4.424-2.107,3.254-17.01,16.437-23.467,0,0,12.594-4.692,18.068-4.1s11.76.849,14.977,8.968-1.766,15.133-1.766,15.133c.119.231.238.462.35.686C1457.657,565.7,1456.987,567.61,1443.417,573.843Z" transform="translate(-1010.349 -460.902)" fill="#602807"/>
            <path id="Trazado_187534" data-name="Trazado 187534" d="M1445.138,579.146c-13.83,6.345-27.221.953-34.46-2.234a12.665,12.665,0,0,1-3.88-2.674l-.119-.119c.365.1,10.441,3.188,7.41-1.683-3.083-4.96-3.195-16.616,4.216-23.08,7.947-6.926,21.442-2.643,23.244-2s5.176,9.748,5.176,9.748l6.658,2.257C1459.378,571,1458.708,572.913,1445.138,579.146Z" transform="translate(-1012.07 -466.205)" fill="#21201f" opacity="0.38" style="mix-blend-mode: multiply;isolation: isolate"/>
            <g id="Grupo_180051" data-name="Grupo 180051" transform="translate(380.584 116.863)">
              <path id="Trazado_187535" data-name="Trazado 187535" d="M1497.626,727.315c2.72,6.086,2.316,13.64,0,15.738s-3.785-12.138-3.785-12.138Z" transform="translate(-1421.127 -642.474)" fill="#ffc68f"/>
              <path id="Trazado_187536" data-name="Trazado 187536" d="M1477.217,608.533c9.645,7.684,15.071,31.82,17.625,45.765s2.872,37.816,2.872,37.816l-10.248,1.563-8.341-16.261Z" transform="translate(-1415.697 -603.672)" fill="#ffe891"/>
              <path id="Trazado_187537" data-name="Trazado 187537" d="M1489.6,650.713c1.421,9.636,5.692,44.286,5.692,44.286" transform="translate(-1419.743 -617.451)" fill="#e8c025" stroke="#e8c025" stroke-miterlimit="10" stroke-width="1.106"/>
              <path id="Trazado_187538" data-name="Trazado 187538" d="M1468.29,764.865h-60.184s1.281-20,3.485-38.81c.864-7.284,1.854-14.381,2.971-20.078a49.837,49.837,0,0,1,2.779-10.1c3.411-7.433,21.1-4.781,34.386-1.579,1.981.477,3.865.968,5.586,1.438l.022.008c5.675,1.549,9.615,2.89,9.615,2.89.648,4.006,1.221,10.031,1.668,16.861C1469.876,734.576,1470.144,759.906,1468.29,764.865Z" transform="translate(-1393.121 -630.641)" fill="#ffe891"/>
              <path id="Trazado_187541" data-name="Trazado 187541" d="M1470.308,717.052c-22.6.41-45.177,1.475-49.847,5.146-2.83,2.227-5.422,4.35-7.18,5.414.864-7.283,1.854-14.381,2.971-20.078l9.459-6.539,27.7-5.139,5.586,1.438.022.007c5.675,1.549,9.615,2.89,9.615,2.89C1469.288,704.2,1469.861,710.222,1470.308,717.052Z" transform="translate(-1394.756 -632.197)" fill="#fed947" opacity="0.63"/>
              <path id="Trazado_187542" data-name="Trazado 187542" d="M1465.824,678.864s-12.457,3.119-23.062,1.994c-2.465-4.692-3.675-13.239-3.675-13.239l-1.251,4.171-1.921,9.577c-12.758-1.408-26.941-2.018-26.769-2.5.8-4.431,8.589-7.731-4.638-41.364-.209-.537-.425-1.08-.648-1.639-7.574-19.006-8.185-34.84,19.833-34.535,4.439-.127,16.482,1.609,22.738,2.569a11.639,11.639,0,0,1,7.723,4.715C1459.122,615.589,1465.824,678.864,1465.824,678.864Z" transform="translate(-1390.275 -601.316)" fill="#ffe891"/>
              <path id="Trazado_187543" data-name="Trazado 187543" d="M1440.317,680.706l-1.921,9.578c-12.758-1.408-26.941-2.018-26.769-2.5.8-4.431,8.589-7.731-4.638-41.364l2.018-10.9,6.7-6.9c1.929,13.026-2.853,24.249,2.7,34.825s8.52,18.8,14.806,19.393A8.752,8.752,0,0,0,1440.317,680.706Z" transform="translate(-1392.756 -610.232)" fill="#fede61"/>
              <path id="Trazado_187544" data-name="Trazado 187544" d="M1429.028,601.352c-6.035.44-6.87,7.6-6.87,7.6l9.221,3.229-.075,3.632,12.148,3.9,8.027-4.905-.485-3.577,5.323-2.279s-3.649-4.991-13.033-5.9S1429.028,601.352,1429.028,601.352Z" transform="translate(-1397.711 -601.326)" fill="#fffeff"/>
              <path id="Trazado_187545" data-name="Trazado 187545" d="M1451.667,603.686s-.425,2.353-1.065,5.258c-1.013,4.624-2.569,10.643-3.813,10.754a1.9,1.9,0,0,1-1.005-.261l-.008-.007c-1.705-.9-4.447-4.022-8.162-9.622q-2.369-3.553-5.251-8.468C1436.577,601.02,1451.667,603.686,1451.667,603.686Z" transform="translate(-1401.045 -601.313)" fill="#ffc4cb"/>
              <path id="Trazado_187546" data-name="Trazado 187546" d="M1453.149,612.646c-1.013,4.624-2.57,10.643-3.813,10.754a3.119,3.119,0,0,1-1.005-.261l-.007-.007c-1.705-.9-4.447-4.022-8.163-9.622C1444.539,614.977,1450.139,613.614,1453.149,612.646Z" transform="translate(-1403.592 -605.015)" fill="#fede61"/>
              <rect id="Rectángulo_45873" data-name="Rectángulo 45873" width="12.881" height="3.257" transform="translate(37.757 32.981) rotate(180)" fill="#fffeff"/>
              <path id="Trazado_187547" data-name="Trazado 187547" d="M1408.8,622.059c-5.52,13.224-15.373,69.568-14.231,72.575s1.364-8.12-5.734-22.167-.605-58.086,9.905-63.052S1408.8,622.059,1408.8,622.059Z" transform="translate(-1385.851 -603.672)" fill="#ffe891"/>
              <path id="Trazado_187548" data-name="Trazado 187548" d="M1452.294,628.23c5.074,16.566,4.074,48.179,4.074,48.179" transform="translate(-1407.556 -610.106)" fill="none" stroke="#e8c025" stroke-miterlimit="10" stroke-width="1.106"/>
              <g id="Grupo_180050" data-name="Grupo 180050" transform="translate(44.588 21.617)">
                <path id="Trazado_187549" data-name="Trazado 187549" d="M1454.175,634.471a1.052,1.052,0,1,1-1.052-1.052A1.053,1.053,0,0,1,1454.175,634.471Z" transform="translate(-1452.07 -633.418)" fill="#fffeff"/>
                <path id="Trazado_187550" data-name="Trazado 187550" d="M1457.3,650.2a1.052,1.052,0,1,1-1.052-1.052A1.053,1.053,0,0,1,1457.3,650.2Z" transform="translate(-1453.091 -638.557)" fill="#fffeff"/>
                <path id="Trazado_187551" data-name="Trazado 187551" d="M1458.429,671.247a1.052,1.052,0,1,1-1.053-1.052A1.053,1.053,0,0,1,1458.429,671.247Z" transform="translate(-1453.46 -645.432)" fill="#fffeff"/>
                <circle id="Elipse_4899" data-name="Elipse 4899" cx="1.052" cy="1.052" r="1.052" transform="translate(3.624 38.934)" fill="#fffeff"/>
              </g>
              <path id="Trazado_187539" data-name="Trazado 187539" d="M1429.234,718.273c-1.07,5.178-6.449,7.839-6.449,7.839" transform="translate(-1397.916 -639.52)" fill="none" stroke="#e8c025" stroke-miterlimit="10" stroke-width="1.106"/>
              <path id="Trazado_187540" data-name="Trazado 187540" d="M1421.2,717.714c-2.166,8.421-7.923,55.852-7.923,55.852" transform="translate(-1394.811 -639.338)" fill="none" stroke="#e8c025" stroke-miterlimit="10" stroke-width="1.106"/>
            </g>
            <path id="Trazado_187552" data-name="Trazado 187552" d="M1375.872,490.516c.951-5.256,1.657-8.615-5.239-9.2s-15.714,2.1-15.714,2.1v3.958l12.571,2.678Z" transform="translate(-995.162 -445.225)" fill="#e03f00"/>
            <g id="Grupo_180055" data-name="Grupo 180055" transform="translate(223.429 0)">
              <path id="Trazado_187553" data-name="Trazado 187553" d="M1192.12,546.82a81.674,81.674,0,0,0-22.741,4.309s15.08,38.541,41.413,36.386,24.177-7.182,22.262-14.363-7.181-22.741-7.181-22.741S1200.647,546.56,1192.12,546.82Z" transform="translate(-1157.982 -466.645)" fill="#fff"/>
              <path id="Trazado_187554" data-name="Trazado 187554" d="M1210.74,560.964c7.87,9.233,11.657,35.723,11.657,35.723" transform="translate(-1171.493 -471.27)" fill="none" stroke="#c6c5c4" stroke-miterlimit="10" stroke-width="1.026"/>
              <path id="Trazado_187555" data-name="Trazado 187555" d="M1208.926,582.823l-12.236,19.059s-17.711-51.582-28.346-49.728a15.262,15.262,0,0,0-2.137.536,6.153,6.153,0,0,1,1.005-.976l8.8-1.772s5.766,7.937,12.787,18.284C1194.828,577.118,1198.663,583.166,1208.926,582.823Z" transform="translate(-1156.945 -467.669)" fill="#6b8dfc"/>
              <path id="Trazado_187556" data-name="Trazado 187556" d="M1247.756,655.7s3.433,41.207.447,64.735l-34.848,2.144v-18.4l-14.434,20.89-37.588-4.632s5.3-36.442,9.28-60.17c2.413-14.4-.261-35.965-3.5-54.718-2.1-12.132-4.432-23.095-5.78-30.192-2.606-13.779,1.088-20.042,2.987-22.239a15.268,15.268,0,0,1,2.137-.536c10.635-1.854,28.346,49.728,28.346,49.728l12.236-19.059a39.4,39.4,0,0,0,5.362-.573c.946-.164,1.832-.306,2.659-.432,10.925-1.638,12.572-.6,10.657-11.045-2.063-11.253-4.32-19.573-4.32-19.573,2.9-1.281,5.571,1.117,5.571,1.117s7.574,13.786,9.831,29.351,2.25,23.758,2.25,23.758l9.22,17.412s4.305,20.972,2.964,26.432S1247.756,655.7,1247.756,655.7Z" transform="translate(-1155.059 -468.097)" fill="#fff"/>
              <path id="Trazado_187557" data-name="Trazado 187557" d="M1176.31,612.672c13.78,26.618,9.029,69.736,7.74,84.056s-4.73,38.352-4.73,38.352h72.542s3.211-54.939-2.234-88.917-16.043-69.063-16.043-69.063l-9.024,12.989-10,18.293-17.888,6.957-16.058-14.487Z" transform="translate(-1160.246 -476.541)" fill="#6b8dfc"/>
              <path id="Trazado_187558" data-name="Trazado 187558" d="M1182.373,680.01c-3.732.548-11.341-7.213-11.341-7.213s-6.008-8.72-9.59-5.066,9.1,5.866,9.1,5.866-12.156,3.147-9.771,9.569,10.329-9.438,10.329-9.438,6.391,16.29,12.267,14.714" transform="translate(-1155.07 -505.855)" fill="none" stroke="#3c3fa7" stroke-miterlimit="10" stroke-width="1.106"/>
              <path id="Trazado_187559" data-name="Trazado 187559" d="M1227.838,670.307l25.4-1.39s1.635,21.718-3.595,26.22-21.271,4.5-25.208,2.225-8.868-20.294-7.085-23.954S1227.838,670.307,1227.838,670.307Z" transform="translate(-1173.528 -506.535)" fill="#a6bbff"/>
              <path id="Trazado_187560" data-name="Trazado 187560" d="M1194.839,639.835c5.512,26.137,4.134,81.345,0,89.865s0,18.946,0,18.946l56.493-5.512,3.134,1.722s3.586-55.31,0-90.24-15.92-67.906-15.92-67.906" transform="translate(-1165.698 -479.68)" fill="none" stroke="#3c3fa7" stroke-miterlimit="10" stroke-width="1.106"/>
              <path id="Trazado_187561" data-name="Trazado 187561" d="M1229.959,628.474c-5.252,21.5-15.693,34.534-26.925,34.912s-15.883-11.045-15.883-11.045v-9.507Z" transform="translate(-1163.787 -493.323)" fill="#ea4200" opacity="0.27" style="mix-blend-mode: multiply;isolation: isolate"/>
              <path id="Trazado_187562" data-name="Trazado 187562" d="M1207.917,547.324c2.913,8.633-13.288,12.379-18.746.388C1189.171,547.713,1202.731,545.515,1207.917,547.324Z" transform="translate(-1164.447 -466.581)" fill="#ffc68f"/>
              <g id="Grupo_180054" data-name="Grupo 180054" transform="translate(10.671)">
                <path id="Trazado_187563" data-name="Trazado 187563" d="M1168.343,492.276c.191,18.111,5.55,21.724,2.383,26.129s14.91,6.345,21.1,5.131,15.97,2.825,21.721.667,10.261-12.758,10.272-20.229-12.454-22.377-12.454-22.377l-29.789-1.021L1170,488.5Z" transform="translate(-1168.314 -445.01)" fill="#602807"/>
                <path id="Trazado_187564" data-name="Trazado 187564" d="M1178.5,489.4c-7.9,13.767-4.383,18.323,0,24.836a9.906,9.906,0,0,1,0,11.8s10.6,1.731,15.1.38a14.215,14.215,0,0,0,6.434-3.6l-6.434-26.8Z" transform="translate(-1170.099 -447.892)" fill="#21201f" opacity="0.38" style="mix-blend-mode: multiply;isolation: isolate"/>
                <path id="Trazado_187565" data-name="Trazado 187565" d="M1189.077,487.675l7.329,19.081s-17.822,3.969-25.024-7.56-.529-25.173,7.2-26.208c1.564-.209,3.709-.477,6.137-.76-.671,4.446,1.862,8.952,1.862,8.952l2.487,6.487Z" transform="translate(-1168.3 -442.283)" fill="#602807"/>
                <g id="Grupo_180053" data-name="Grupo 180053" transform="translate(5.44 35.566)">
                  <path id="Trazado_187566" data-name="Trazado 187566" d="M1251.595,494.7c3.171,6.584.672,14.84-2.7,14.622s-4.888-11.664-4.888-11.664l2.064-5.325Z" transform="translate(-1198.472 -484.418)" fill="#21201f" opacity="0.38" style="mix-blend-mode: multiply;isolation: isolate"/>
                  <g id="Grupo_180052" data-name="Grupo 180052" transform="translate(0.406 2.568)">
                    <rect id="Rectángulo_45874" data-name="Rectángulo 45874" width="14.108" height="11.309" transform="translate(13.245 35.261)" fill="#ffc68f"/>
                    <path id="Trazado_187567" data-name="Trazado 187567" d="M1196.648,536.761v5.3a7.675,7.675,0,0,0,1.184.655,40.147,40.147,0,0,0,12.929,3.545v-9.5Z" transform="translate(-1183.406 -501.498)" fill="#ee7e5f"/>
                    <path id="Trazado_187568" data-name="Trazado 187568" d="M1230.811,497.383c.978,20.9-12.337,35.912-36.9,25.03-5.867-2.6-8.482-12.859-8.482-12.859s-3.145-22.734,3.193-24.8,39.368,5.385,40.261,4.989S1230.811,497.383,1230.811,497.383Z" transform="translate(-1179.487 -484.39)" fill="#ffc68f"/>
                    <path id="Trazado_187569" data-name="Trazado 187569" d="M1186.12,508.171c-1.38-6.133-4.662-9.034-7.17-7.535-2.954,1.764-3.287,14.878,3.977,14.1S1186.12,508.171,1186.12,508.171Z" transform="translate(-1176.981 -489.57)" fill="#ffc68f"/>
                    <path id="Trazado_187570" data-name="Trazado 187570" d="M1232.231,511.227c0,1.223.455,2.215,1.016,2.215s1.015-.991,1.015-2.215-.455-2.215-1.015-2.215S1232.231,510,1232.231,511.227Z" transform="translate(-1195.029 -492.433)" fill="#313656"/>
                    <path id="Trazado_187571" data-name="Trazado 187571" d="M1210.73,508.519c0,1.223.454,2.215,1.015,2.215s1.015-.991,1.015-2.215-.454-2.215-1.015-2.215S1210.73,507.3,1210.73,508.519Z" transform="translate(-1188.006 -491.549)" fill="#313656"/>
                    <path id="Trazado_187574" data-name="Trazado 187574" d="M1223.875,515.591c.127,2.358,1.4,5.229,0,5.882s-3.244-1.044-3.244-1.044" transform="translate(-1191.24 -494.582)" fill="none" stroke="#e55d3e" stroke-linecap="round" stroke-miterlimit="10" stroke-width="1.106"/>
                    <path id="Trazado_187575" data-name="Trazado 187575" d="M1219.992,527.912s-2.92,2.193-5.512,1.587-4.857-4.009-4.857-4.009" transform="translate(-1185.644 -495.816)" fill="none" stroke="#e55d3e" stroke-linecap="round" stroke-miterlimit="10" stroke-width="1.106"/>
                    <path id="Trazado_187576" data-name="Trazado 187576" d="M1214.924,497.813a5.035,5.035,0,0,0-5.375-2.128C1208.324,496.191,1214.924,497.813,1214.924,497.813Z" transform="translate(-1187.57 -488.024)" fill="#313656"/>
                    <path id="Trazado_187577" data-name="Trazado 187577" d="M1232.231,502.061c3.154-2.128,5.025-1.824,5.616-.912s-4.6.912-4.6.912" transform="translate(-1195.029 -489.637)" fill="#313656"/>
                    <path id="Trazado_187578" data-name="Trazado 187578" d="M1185.1,507.518c-.616-2.65-3-3.838-4.313-2.571a2.391,2.391,0,0,1,1.772.747,3.411,3.411,0,0,0-.694,4.846c2,2.886,3.774,1.407,3.774,1.407Z" transform="translate(-1178.223 -490.939)" fill="#ee7e5f"/>
                  </g>
                  <path id="Trazado_187579" data-name="Trazado 187579" d="M1178,483.144c-3.689,6.473.065,11.066.065,11.066a3.543,3.543,0,0,1,4.548,1.358c1.681,2.721,1.68,6.1,4,5.513s6.288-14.632,3.055-18.843S1178,483.144,1178,483.144Z" transform="translate(-1176.379 -480.576)" fill="#602807"/>
                  <path id="Trazado_187580" data-name="Trazado 187580" d="M1260.069,498.928" transform="translate(-1203.718 -486.571)" fill="none" stroke="#141413" stroke-miterlimit="10" stroke-width="1.106"/>
                </g>
                <path id="Trazado_187581" data-name="Trazado 187581" d="M1240.845,463.48c-.059.461-.633.752-.708.782C1240.182,464.209,1240.428,463.926,1240.845,463.48Z" transform="translate(-1191.767 -439.425)" fill="#fd6d36"/>
                <path id="Trazado_187582" data-name="Trazado 187582" d="M1225.29,458.847c2.778-2.965,12.937-13.049,18.716-8.3,6.74,5.533-3.262,13.5-3.262,13.5,15.066,1.1,10.039,15.729,3.262,18.441-6.628,2.644-12.81-3.843-13.078-4.119.1.216,1.364,3.031-5.8,2.212-7.336-.834-18.731-6.1-19.088-6.263,5.444,6.665-7.678,7.663-11.544-.633,0,0-2.532-4.506-1.862-8.952,9.6-1.147,22-.158,22-.158s2.49-9.635,7.576-7.9c2.6.886,3.158,1.638,3.083,2.168" transform="translate(-1176.212 -434.792)" fill="#602807"/>
                <g id="Grupo_180068" data-name="Grupo 180068" transform="translate(0.183)">
                  <path id="Trazado_187583" data-name="Trazado 187583" d="M1192.865,433.693l.574,5.909.1,1.052-12.9,4.08-4.3,1.362-1.081-1.289-2.082-2.476c-4.356,4.638-13.153-.135-12.652-5.386.483-5.071,7.311-4.317,7.783-4.26-2.954-1.07-4.8-8.279-.213-12.421a10.285,10.285,0,0,1,3.686-2.082c9-3,12.382,6.129,12.382,6.129.5-2.251,6.259-7,11.346-4.75S1197.125,432.319,1192.865,433.693Z" transform="translate(-1160.505 -417.577)" fill="#a6bbff"/>
                  <path id="Trazado_187584" data-name="Trazado 187584" d="M1208.847,464.659s-1.087.439-2.938,1h-.011c0,.005,0,.005-.006.005a.272.272,0,0,1-.068.017c-.1.034-.2.062-.3.1-4.306,1.272-12.241,3.073-20.4,2.071v-7.975l.236-.067,11.993-3.439c.1-.028.186-.051.253-.073l.062-.011.016-.011a.2.2,0,0,0,.028-.006h.006a.158.158,0,0,0,.034-.011l5.785-1.654,1.66-.479Z" transform="translate(-1170.612 -432.576)" fill="#a6bbff"/>
                  <path id="Trazado_187585" data-name="Trazado 187585" d="M1195.8,452.513a.046.046,0,0,0-.017.005.267.267,0,0,1-.068.017c-.062.022-.162.056-.3.1-4.306,1.272-12.241,3.073-20.4,2.071v-7.975l.237-.067-2.082-2.476c-4.356,4.638-13.153-.135-12.652-5.386.483-5.071,7.311-4.317,7.783-4.26-2.954-1.069-4.8-8.279-.213-12.421l.045-.028c-2.7,9.534,1.779,13.367,4.086,14.149-.422-.107-7.851-1.936-7.537,2.96.327,5.031,11.994,1.835,11.994,1.835s-.625,3.416,1.688,3.743c1.981.281,7.367-1.137,8.881-1.554.1-.028.186-.051.253-.073a.306.306,0,0,0,.078-.022.2.2,0,0,0,.028-.006.306.306,0,0,1-.045.017c-.665.214-5.229,1.728-6.928,3.45a2.025,2.025,0,0,0-.63,1.069c-.327,2.263.438,5.69,4.491,5.567,3.946-.124,10.942-.682,11.291-.709Z" transform="translate(-1160.505 -419.428)" fill="#6b8dfc" opacity="0.48"/>
                </g>
                <path id="Trazado_187586" data-name="Trazado 187586" d="M1175.138,489.4" transform="translate(-1170.534 -447.892)" fill="#602807"/>
              </g>
              <path id="Trazado_187587" data-name="Trazado 187587" d="M1233.068,593.4c1.414-8.55-.674-10.937-1.905-13.84s.042-10.367-1.232-12.369,4.882-1.357,5.354,3.054a33.354,33.354,0,0,0,1.018,6.049s8.83-8.718,12.7-10.184,3.939.084,2.811,1.311,3.925-2.635,4.22-1.908a3.634,3.634,0,0,1,0,1.861s1.935-1.456,3.027-1.093-2.69,3.964-2.69,3.964,1.629-2.507,2.888-1.6-6.934,8.557-9.664,14.928a54.8,54.8,0,0,1-6.19,10.839Z" transform="translate(-1177.705 -472.724)" fill="#ffc68f"/>
              <path id="Trazado_187588" data-name="Trazado 187588" d="M1225.3,588.8s-8.662,29.053-17.822,37.528-18.686,6.993-25.181,5.139c-4.64-1.326-11.693-13.51-17.792-25.3-2.458-4.736-4.752-9.413-6.681-13.3-6.39-12.9-9.22-34.714,3.888-39.13a15.265,15.265,0,0,1,2.137-.536c10.635-1.854,28.346,49.728,28.346,49.728l12.237-19.059,2.33-3.634,5.69,2.629Z" transform="translate(-1152.452 -468.719)" fill="#fff"/>
              <path id="Trazado_187589" data-name="Trazado 187589" d="M1211.478,627.08a34.387,34.387,0,0,1,2.747,13.775" transform="translate(-1171.734 -492.868)" fill="none" stroke="#c6c5c4" stroke-miterlimit="10" stroke-width="1.026"/>
              <rect id="Rectángulo_45875" data-name="Rectángulo 45875" width="49.092" height="3.765" transform="translate(45.076 88.927)" fill="#313656"/>
              <path id="Trazado_187590" data-name="Trazado 187590" d="M1221.386,548.772s-1.188-22.81,23.2-22.783c23.791.027,22.293,22.783,22.293,22.783Z" transform="translate(-1174.968 -459.845)" fill="#fff"/>
              <path id="Trazado_187591" data-name="Trazado 187591" d="M1255.966,523.811a1.521,1.521,0,1,1-1.521-1.522A1.522,1.522,0,0,1,1255.966,523.811Z" transform="translate(-1185.273 -458.636)" fill="#313656"/>
              <path id="Trazado_187592" data-name="Trazado 187592" d="M1268.492,548.766v3.769H1219.4v-3.769h1.341s-1.184-22.8,23.207-22.782c1.11,0,2.159.052,3.157.149-20.95,1.959-19.87,22.633-19.87,22.633Z" transform="translate(-1174.321 -459.843)" fill="#c6c5c4" opacity="0.58"/>
              <path id="Trazado_187593" data-name="Trazado 187593" d="M1207.427,566.4a1.712,1.712,0,1,1-1.712-1.712A1.712,1.712,0,0,1,1207.427,566.4Z" transform="translate(-1169.292 -472.487)" fill="#c6c5c4"/>
              <path id="Trazado_187594" data-name="Trazado 187594" d="M1212.512,582.178a1.712,1.712,0,1,1-1.712-1.712A1.713,1.713,0,0,1,1212.512,582.178Z" transform="translate(-1170.953 -477.641)" fill="#c6c5c4"/>
            </g>
            <g id="Grupo_180057" data-name="Grupo 180057" transform="translate(313.048 25.147)">
              <path id="Trazado_187595" data-name="Trazado 187595" d="M1365.477,694.587c2.932,15.817,4.6,61.856,1.6,68.862h-27.024l-2.108-34.431h-3.22l-5.682,34.431h-33.695s4.337-59.051,11.009-71.728S1365.477,694.587,1365.477,694.587Z" transform="translate(-1288.75 -537.505)" fill="#6f739e"/>
              <path id="Trazado_187596" data-name="Trazado 187596" d="M1314.85,728.584c-1.307,8.668-8.4,10.535-8.4,10.535" transform="translate(-1292.378 -551.172)" fill="none" stroke="#3c416d" stroke-miterlimit="10" stroke-width="1.026"/>
              <path id="Trazado_187597" data-name="Trazado 187597" d="M1305.883,730.657s-4.957,19.084-7.375,47.137" transform="translate(-1289.782 -551.85)" fill="none" stroke="#3c416d" stroke-miterlimit="10" stroke-width="1.026"/>
              <path id="Trazado_187598" data-name="Trazado 187598" d="M1302.1,729.9c8.047,6.22,33,9.828,33,9.828l20.6-4.561,14.129-14.749-40.081-3.933-26.378,5.272Z" transform="translate(-1290.955 -547.22)" fill="#3c416d" opacity="0.32" style="mix-blend-mode: multiply;isolation: isolate"/>
              <path id="Trazado_187599" data-name="Trazado 187599" d="M1366.005,674.524c-9.541-.939-47.032,6.621-69.97,0-.551-.164.5-4.975,1.832-10.225,1.55-6.1,3.478-12.8,3.7-13.443a6.149,6.149,0,0,0,.06-1.244,21.993,21.993,0,0,0-.3-2.726c-.655-4.193-2.3-10.68-4.1-17.449-2.6-9.823-5.519-20.25-6.212-25.181-5.63-23.728-9.756-41.52,23.631-41.155,7.284-.216,31.742,3.791,31.742,3.791,8.721,17.01,12.706,28.636,12.065,48.007.246,3.769.9,9.19,1.728,15.32.648,4.8,1.4,10.032,2.152,15.246.179,1.273.366,2.547.544,3.813.774,5.385,1.5,10.628,2.078,15.208C1365.461,668.424,1365.834,671.88,1366.005,674.524Z" transform="translate(-1286.09 -497.112)" fill="#6f739e"/>
              <path id="Trazado_187600" data-name="Trazado 187600" d="M1372.833,608.533c-1.025,7.247-14.509,9.871-17.469,10.342s-9.95,2.147-9.95,2.147l14.783,5.32,8.9-3.374,5.6-3.907Z" transform="translate(-1305.105 -511.956)" fill="#3c416d" opacity="0.32" style="mix-blend-mode: multiply;isolation: isolate"/>
              <path id="Trazado_187601" data-name="Trazado 187601" d="M1367.205,677.65c-9.6,1.66-42.213,6.725-58.784,2.122-.8-.224-1.534-.455-2.227-.7-.655-4.193-2.3-10.68-4.1-17.449,2.9,1.423,20.935,8.967,62.955.782C1365.7,667.209,1366.454,672.437,1367.205,677.65Z" transform="translate(-1290.955 -529.299)" fill="#a7acc6"/>
              <path id="Trazado_187602" data-name="Trazado 187602" d="M1351.014,640.161c-13.5.769-22.966,13.858-35.194,13.232s-16.29-3.193-16.29-3.193l-10.713-44.436,33.724,19.1,19.863,1.448,8.956,5.549Z" transform="translate(-1286.616 -511.051)" fill="#3c416d" opacity="0.32" style="mix-blend-mode: multiply;isolation: isolate"/>
              <path id="Trazado_187603" data-name="Trazado 187603" d="M1370.135,706.3c-14.754,2.019-45.476,5.414-62.1,1.378a36.032,36.032,0,0,1-5-1.563c1.549-6.1,3.478-12.8,3.7-13.443a6.158,6.158,0,0,0,.06-1.244c9.078,2.227,28.279,4.751,61.256-.335C1368.831,696.474,1369.561,701.717,1370.135,706.3Z" transform="translate(-1291.262 -538.924)" fill="#a7acc6"/>
              <path id="Trazado_187604" data-name="Trazado 187604" d="M1350.36,565.57c.954,8.656-4.858,18.922-4.858,18.922l-7.8-9.461-8.258,9.461s-9.124-11.51-10.956-21.605c0,0,10.99-.35,12.742.1S1350.36,565.57,1350.36,565.57Z" transform="translate(-1296.309 -497.002)" fill="#fffaf0"/>
              <path id="Trazado_187605" data-name="Trazado 187605" d="M1296.858,567.525c10.261-.09,16.848,27.275,18.484,33.815a26.3,26.3,0,0,0,6.132,11.037s21.051,2.044,21.256,3.066,1.226,9.606,1.226,9.606-20.438,10.832-32.293,6.949-21.664-30.249-24.526-40.877S1284.1,567.637,1296.858,567.525Z" transform="translate(-1285.549 -498.56)" fill="#6f739e"/>
              <g id="Grupo_180056" data-name="Grupo 180056" transform="translate(2.048 0)">
                <rect id="Rectángulo_45876" data-name="Rectángulo 45876" width="3.388" height="171.065" transform="translate(0 0.952) rotate(-16.328)" fill="#350347"/>
                <path id="Trazado_187606" data-name="Trazado 187606" d="M1383.508,739.422l-2.74.8-3.836-6.248.454,2.7.886,5.288-11.067,3.239-3.2-4.655-.306,4.282-8.3,2.428-2.4-2.7.924,3.135-6.629,1.944a62.334,62.334,0,0,1-4.14-14.135s19.766-15.067,30.17-15.3c2.338-.052,4.208.648,5.265,2.435C1384.372,732.384,1383.508,739.422,1383.508,739.422Z" transform="translate(-1306.416 -548.433)" fill="#ffc68f"/>
                <path id="Trazado_187607" data-name="Trazado 187607" d="M1378.272,741.963l-11.067,3.239-3.2-4.655-.306,4.282-8.3,2.428-2.4-2.7.924,3.135-6.629,1.944a62.337,62.337,0,0,1-4.14-14.135s19.766-15.067,30.17-15.3a4.785,4.785,0,0,1,2.5,4.573c-.253,2.331-2.577,3.88-4.573,4.774a56.449,56.449,0,0,1-5.823,1.907,68.025,68.025,0,0,0-9,3.88,9.679,9.679,0,0,0-3.656,2.561,3.332,3.332,0,0,0-.112,4.156,5.72,5.72,0,0,1,5.712-1.31,4.124,4.124,0,0,1-.812-2.778,5.04,5.04,0,0,0,4.789.261,1.634,1.634,0,0,1,2.093-1c.9,1.214,1.81,2.421,2.712,3.627a11.507,11.507,0,0,1,1.809-2,1.9,1.9,0,0,1-.365-2.949c-.089.566.626,1,1.185.864a2.694,2.694,0,0,0,1.333-1.065,8.726,8.726,0,0,0,1.6,3.738q.324-2.089.648-4.178c.231-.32.767-.09,1,.246s.4.759.775.879c.641.209,1.11-.6,1.288-1.251.321.514.64,1.02.961,1.534Z" transform="translate(-1306.416 -548.434)" fill="#ea4200" opacity="0.29"/>
                <path id="Trazado_187608" data-name="Trazado 187608" d="M1377.9,715.829l-36.111,10.579c-1.42-4.848-2.45-22.113,11.9-26.317S1376.476,710.981,1377.9,715.829Z" transform="translate(-1305.715 -541.626)" fill="#ff7b01"/>
                <path id="Trazado_187609" data-name="Trazado 187609" d="M1357.108,700.445c-10.042,8.1-3.566,23.255-3.566,23.255" transform="translate(-1309.137 -541.98)" fill="none" stroke="#ff4e00" stroke-miterlimit="10" stroke-width="1.106"/>
                <line id="Línea_1502" data-name="Línea 1502" x1="4.929" y1="19.843" transform="translate(48.81 158.465)" fill="none" stroke="#ff4e00" stroke-miterlimit="10" stroke-width="1.106"/>
                <path id="Trazado_187610" data-name="Trazado 187610" d="M1362.611,699.783c9.9,2.873,15.648,17.7,15.648,17.7" transform="translate(-1312.771 -541.764)" fill="none" stroke="#ff4e00" stroke-miterlimit="10" stroke-width="1.106"/>
                <rect id="Rectángulo_45877" data-name="Rectángulo 45877" width="41.919" height="3.623" transform="translate(33.442 184.254) rotate(-16.328)" fill="#ff4e00"/>
              </g>
              <path id="Trazado_187611" data-name="Trazado 187611" d="M1346.121,625c-2.935-3.7-7.4-6.779-9.316-7.026s-9.572,2.3-11.1,3.513-.894,3.641,0,4.534.765,1.914,1.531,2.808a11.975,11.975,0,0,1,1.72,3.7c.194.766,1.366,2.878,6.575,3.318l-.41-1.194s3.048,1.881,8.43-.249S1346.121,625,1346.121,625Z" transform="translate(-1298.364 -515.034)" fill="#ffc68f"/>
              <path id="Trazado_187612" data-name="Trazado 187612" d="M1366.944,568.783c7.082.787,11.608,3.559,16.526,13.583s9.247,28.125,7.28,38.749-3.345,10.427-9.05,9.64-29.118-9.247-29.118-9.247l2.164-15.149,22.428,3.935s-.59-13.772-3.541-24.789S1366.944,568.783,1366.944,568.783Z" transform="translate(-1307.446 -498.971)" fill="#6f739e"/>
              <path id="Trazado_187613" data-name="Trazado 187613" d="M1344.789,563.474c3.215,9.53-12.6,12.878-18.63-.36C1326.159,563.113,1339.062,561.476,1344.789,563.474Z" transform="translate(-1298.815 -496.912)" fill="#ffc68f"/>
              <ellipse id="Elipse_4900" data-name="Elipse 4900" cx="1.365" cy="1.82" rx="1.365" ry="1.82" transform="translate(40.31 86.516)" fill="#350347"/>
              <path id="Trazado_187614" data-name="Trazado 187614" d="M1351.812,612.438c0,1.005-.611,1.82-1.365,1.82s-1.365-.815-1.365-1.82.611-1.82,1.365-1.82S1351.812,611.433,1351.812,612.438Z" transform="translate(-1306.303 -512.637)" fill="#350347"/>
              <path id="Trazado_187615" data-name="Trazado 187615" d="M1326.638,629.357c1.483-1.351,4.29-1.262,4.29-1.262" transform="translate(-1298.971 -518.346)" fill="none" stroke="#e55d3e" stroke-linecap="round" stroke-miterlimit="10" stroke-width="0.954" opacity="0.37"/>
              <path id="Trazado_187616" data-name="Trazado 187616" d="M1328.8,633.429a8.366,8.366,0,0,1,3.154-1.4" transform="translate(-1299.679 -519.633)" fill="none" stroke="#e55d3e" stroke-linecap="round" stroke-miterlimit="10" stroke-width="0.954" opacity="0.37"/>
              <path id="Trazado_187617" data-name="Trazado 187617" d="M1331.5,638.545a4.237,4.237,0,0,1,2.611-2.259" transform="translate(-1300.559 -521.022)" fill="none" stroke="#e55d3e" stroke-linecap="round" stroke-miterlimit="10" stroke-width="0.954" opacity="0.37"/>
              <path id="Trazado_187618" data-name="Trazado 187618" d="M1364.853,624.242c3.08-.07,9.392-4.488,13.305-4.993s6.438,1.08,7.574,2.5,2.525,6.845,1.389,9.118-2.777.378-2.9,0a20.244,20.244,0,0,1,0-2.778s.281,3.951-1.311,4.311-2.223-3.048-2.223-3.048.378,2.273-1.263,2.4-3.222-3.157-3.222-3.157.172,1.263-.828,1.01-2.753-4-2.753-4Z" transform="translate(-1311.455 -515.425)" fill="#ffc68f"/>
              <path id="Trazado_187619" data-name="Trazado 187619" d="M1393.612,634.947c.01-1.644,0-3.293,0-3.293" transform="translate(-1320.849 -519.508)" fill="none" stroke="#e55d3e" stroke-linecap="round" stroke-miterlimit="10" stroke-width="0.954" opacity="0.37"/>
              <path id="Trazado_187620" data-name="Trazado 187620" d="M1388.416,633.894c0-1.223,0-2.24,0-2.24" transform="translate(-1319.151 -519.508)" fill="none" stroke="#e55d3e" stroke-linecap="round" stroke-miterlimit="10" stroke-width="0.954" opacity="0.37"/>
              <path id="Trazado_187621" data-name="Trazado 187621" d="M1381.535,632.54c-.188-.766-.346-1.3-.346-1.3" transform="translate(-1316.791 -519.374)" fill="none" stroke="#e55d3e" stroke-linecap="round" stroke-miterlimit="10" stroke-width="0.954" opacity="0.37"/>
              <path id="Trazado_187622" data-name="Trazado 187622" d="M1376.711,653.6c-8.693-1.572-24.129-8.049-24.129-8.049l.049-3.167" transform="translate(-1307.446 -523.014)" fill="none" stroke="#3c416d" stroke-miterlimit="10" stroke-width="1.026"/>
              <path id="Trazado_187623" data-name="Trazado 187623" d="M1381.285,593.591a75.634,75.634,0,0,1,4.672,17.212" transform="translate(-1316.823 -507.075)" fill="none" stroke="#3c416d" stroke-miterlimit="10" stroke-width="1.026"/>
            </g>
            <g id="Grupo_180058" data-name="Grupo 180058" transform="translate(330.624 51.644)">
              <rect id="Rectángulo_45878" data-name="Rectángulo 45878" width="12.79" height="10.252" transform="translate(13.702 31.942) rotate(-5.898)" fill="#ffc68f"/>
              <path id="Trazado_187624" data-name="Trazado 187624" d="M1332,551.259l.493,4.775a7.025,7.025,0,0,0,1.129.481,36.38,36.38,0,0,0,11.989,1.992l-.885-8.562Z" transform="translate(-1318.3 -519.315)" fill="#ee7e5f"/>
              <path id="Trazado_187625" data-name="Trazado 187625" d="M1359.624,512.77c2.829,18.752-7.779,33.532-30.938,26.007-5.532-1.8-8.846-10.8-8.846-10.8s-4.954-20.207.569-22.661,36,1.188,36.769.747S1359.624,512.77,1359.624,512.77Z" transform="translate(-1313.66 -504.454)" fill="#ffc68f"/>
              <path id="Trazado_187626" data-name="Trazado 187626" d="M1320.1,526.94c-1.815-5.4-5.045-7.712-7.168-6.127-2.5,1.866-1.578,13.723,4.9,12.343S1320.1,526.94,1320.1,526.94Z" transform="translate(-1311.653 -509.638)" fill="#ffc68f"/>
              <path id="Trazado_187627" data-name="Trazado 187627" d="M1361.8,525.511c.114,1.1.616,1.955,1.122,1.9s.823-.989.708-2.092-.616-1.955-1.121-1.9S1361.682,524.408,1361.8,525.511Z" transform="translate(-1328.025 -510.649)" fill="#313656"/>
              <path id="Trazado_187628" data-name="Trazado 187628" d="M1342.155,525.072c.114,1.1.616,1.955,1.122,1.9s.823-.989.709-2.092-.616-1.955-1.122-1.9S1342.041,523.969,1342.155,525.072Z" transform="translate(-1321.609 -510.505)" fill="#313656"/>
              <path id="Trazado_187629" data-name="Trazado 187629" d="M1354.8,530.125c.334,2.114,1.745,4.585.548,5.3s-3.022-.64-3.022-.64" transform="translate(-1324.939 -512.84)" fill="none" stroke="#e55d3e" stroke-linecap="round" stroke-miterlimit="10" stroke-width="1.003"/>
              <path id="Trazado_187630" data-name="Trazado 187630" d="M1350.2,543.076c-2.023.565-7.547-2.551-7.547-2.551" transform="translate(-1321.778 -516.237)" fill="none" stroke="#e55d3e" stroke-linecap="round" stroke-miterlimit="10" stroke-width="1.003"/>
              <path id="Trazado_187631" data-name="Trazado 187631" d="M1344.865,515.01a4.565,4.565,0,0,0-5.044-1.419C1338.763,514.162,1344.865,515.01,1344.865,515.01Z" transform="translate(-1320.814 -507.35)" fill="#313656"/>
              <path id="Trazado_187632" data-name="Trazado 187632" d="M1318.882,526.543c-.8-2.332-3.066-3.182-4.128-1.916a2.166,2.166,0,0,1,1.667.509,3.091,3.091,0,0,0-.173,4.434c2.073,2.416,3.533.918,3.533.918Z" transform="translate(-1312.666 -510.852)" fill="#ee7e5f"/>
            </g>
            <g id="Grupo_180059" data-name="Grupo 180059" transform="translate(403.648 81.801)">
              <path id="Trazado_187633" data-name="Trazado 187633" d="M1437.363,591.33l.894,8.649L1449.37,602l-1.218-11.788Z" transform="translate(-1425.742 -562.626)" fill="#ffc4cb"/>
              <path id="Trazado_187634" data-name="Trazado 187634" d="M1437.36,591.333l.419,4.049a5.911,5.911,0,0,0,.957.408,30.871,30.871,0,0,0,10.167,1.689l-.75-7.262Z" transform="translate(-1425.741 -562.627)" fill="#ee7e5f" opacity="0.26" style="mix-blend-mode: multiply;isolation: isolate"/>
              <path id="Trazado_187635" data-name="Trazado 187635" d="M1460.789,557.907c2.4,15.9-6.6,28.44-26.239,22.058-4.692-1.525-7.5-9.165-7.5-9.165s-4.2-17.138.482-19.219,29.071-1.955,29.722-2.328S1460.789,557.907,1460.789,557.907Z" transform="translate(-1421.806 -549.241)" fill="#ffc4cb"/>
              <path id="Trazado_187636" data-name="Trazado 187636" d="M1427.269,570.707c-1.54-4.581-4.28-6.541-6.08-5.2-2.12,1.582-1.338,11.638,4.156,10.468S1427.269,570.707,1427.269,570.707Z" transform="translate(-1420.104 -554.42)" fill="#ffc4cb"/>
              <path id="Trazado_187637" data-name="Trazado 187637" d="M1462.631,569.5c.1.935.522,1.658.951,1.613s.7-.838.6-1.773-.523-1.658-.951-1.614S1462.534,568.559,1462.631,569.5Z" transform="translate(-1433.99 -555.277)" fill="#313656"/>
              <path id="Trazado_187638" data-name="Trazado 187638" d="M1445.974,569.123c.1.936.522,1.658.951,1.614s.7-.838.6-1.774-.523-1.658-.951-1.613S1445.877,568.187,1445.974,569.123Z" transform="translate(-1428.548 -555.156)" fill="#313656"/>
              <path id="Trazado_187639" data-name="Trazado 187639" d="M1456.7,573.408c.283,1.793,1.48,3.889.465,4.5s-2.563-.543-2.563-.543" transform="translate(-1431.372 -557.136)" fill="none" stroke="#e55d3e" stroke-linecap="round" stroke-miterlimit="10" stroke-width="0.85"/>
              <path id="Trazado_187640" data-name="Trazado 187640" d="M1452.794,584.392c-1.716.48-6.4-2.164-6.4-2.164" transform="translate(-1428.692 -560.017)" fill="none" stroke="#e55d3e" stroke-linecap="round" stroke-miterlimit="10" stroke-width="0.85"/>
              <path id="Trazado_187641" data-name="Trazado 187641" d="M1448.272,560.588a3.872,3.872,0,0,0-4.278-1.2C1443.1,559.869,1448.272,560.588,1448.272,560.588Z" transform="translate(-1427.874 -552.48)" fill="#313656"/>
              <path id="Trazado_187642" data-name="Trazado 187642" d="M1426.235,570.37c-.681-1.978-2.6-2.7-3.5-1.625a1.838,1.838,0,0,1,1.414.432,2.622,2.622,0,0,0-.148,3.761c1.758,2.049,3,.778,3,.778Z" transform="translate(-1420.963 -555.45)" fill="#ee7e5f" opacity="0.26" style="mix-blend-mode: multiply;isolation: isolate"/>
            </g>
            <g id="Grupo_180063" data-name="Grupo 180063" transform="translate(126.58 7.838)">
              <path id="Trazado_187643" data-name="Trazado 187643" d="M1084.311,535.759a81.668,81.668,0,0,1,22.742,4.309s-15.081,38.54-41.413,36.386-24.177-7.181-22.263-14.363,7.182-22.741,7.182-22.741S1075.785,535.5,1084.311,535.759Z" transform="translate(-1019.633 -470.87)" fill="#602807"/>
              <path id="Trazado_187644" data-name="Trazado 187644" d="M1049.956,549.059c-2.654,15.788-3.839,20.2,10.044,21.9s20.029-17.217,25.681-20.5-8.588,25.786-12.938,29.479-18.848.341-22.787-.624-12.678-6.253-13.451-6.983,1.791-8.158,1.791-8.158Z" transform="translate(-1017.68 -475.219)" fill="#250530" opacity="0.3"/>
              <path id="Trazado_187645" data-name="Trazado 187645" d="M1103.317,563.579c-3.426,18.061-13.257,61.182-9.28,84.91,2.711,16.2,6.048,40.471,7.887,54.248.856,6.413,1.393,10.553,1.393,10.553h-37.581l-14.441-26.982V713.29h-34.847c-2.987-23.534.446-69.367.446-69.367s.544-2.592-.8-8.058.283-24.376.283-24.376l.924-1.743,8.3-15.67s0-8.192,2.25-23.758,9.831-29.351,9.831-29.351,2.667-2.4,5.571-1.118c0,0-2.249,8.319-4.32,19.573s0,9.183,13.324,11.477,18.009-2.063,21.688-14.024S1087.557,538,1087.557,538l11.767,2.369S1106.742,545.526,1103.317,563.579Z" transform="translate(-1010.776 -471.605)" fill="#fb9133"/>
              <path id="Trazado_187646" data-name="Trazado 187646" d="M1126.118,624.825c-6.426,25.028-5.523,62.234-2.514,74.173s10.231,42.656,10.231,42.656" transform="translate(-1045.426 -499.969)" fill="none" stroke="#dd3e00" stroke-miterlimit="10" stroke-width="1.106"/>
              <path id="Trazado_187647" data-name="Trazado 187647" d="M1103.317,745.879h-37.581L1051.295,718.9v26.982h-34.847c-2.987-23.534.446-69.367.446-69.367s.544-2.592-.8-8.058.283-24.376.283-24.376l.924-1.743c4.453-4.223,9.734-5.28,9.264-4.163-.655,1.572-7.991,35.734-7.991,35.734-2.979,27.065-3.761,61.145.722,67.341s23.386,1.482,23.386,1.482l5.66-39.51s16.667,41.669,29.247,41.23c9.5-.335,19.84-6.249,24.332-9.124C1102.78,741.738,1103.317,745.879,1103.317,745.879Z" transform="translate(-1010.776 -504.194)" fill="#ea4200" opacity="0.27" style="mix-blend-mode: multiply;isolation: isolate"/>
              <path id="Trazado_187648" data-name="Trazado 187648" d="M1032.5,643.559c-1.9,8.829,3.039,20.184,3.256,21.614s31.025.727,33.31-1.922,6.346-22.558,5.23-24.457-25.778-4.645-27.786-4.054S1032.5,643.559,1032.5,643.559Z" transform="translate(-1016.279 -503.181)" fill="#ff7b00"/>
              <path id="Trazado_187649" data-name="Trazado 187649" d="M1037.549,644.656c-1.524,7.1,2.445,16.238,2.62,17.389s24.96.584,26.8-1.547,5.105-18.148,4.207-19.676-20.739-3.738-22.354-3.262S1037.549,644.656,1037.549,644.656Z" transform="translate(-1017.955 -504.108)" fill="none" stroke="#ff5100" stroke-miterlimit="10" stroke-width="1.106"/>
              <path id="Trazado_187650" data-name="Trazado 187650" d="M1113.514,538.481c-4.878,3.585-13.87,17.065-13.935,20.292s8.651,2.858,8.651,2.858,14.846-22.522,13.774-22.637S1118.484,534.828,1113.514,538.481Z" transform="translate(-1038.331 -471.266)" fill="#ff7b00"/>
              <path id="Trazado_187651" data-name="Trazado 187651" d="M1119.318,568.576c-2.972,11.022-12.326,36.508-24.07,45.348h-.015a16.067,16.067,0,0,1-4.64,2.525c-13.89,4.55-37.827-8.141-37.827-8.141s.685-5.742,1.125-9.064c.141-1.072.253-1.891.313-2.182.075-.4,2.786-.916,6.39-1.438l.134-.022c7.373-1.065,18.373-2.13,18.373-2.13a30.862,30.862,0,0,0,7.18-12.929c1.914-7.664,9.629-39.711,21.65-39.607C1122.878,541.073,1122.67,556.124,1119.318,568.576Z" transform="translate(-1023.039 -472.566)" fill="#602807"/>
              <path id="Trazado_187652" data-name="Trazado 187652" d="M1095.233,639.232a16.07,16.07,0,0,1-4.64,2.525c-13.89,4.55-37.827-8.141-37.827-8.141s.685-5.742,1.125-9.064l6.7-3.619.015-.007.119-.015,25.575-2.5c-1.408,8.878-7.232,12.333-8.788,16.355S1090.228,640.937,1095.233,639.232Z" transform="translate(-1023.039 -497.873)" fill="#250530" opacity="0.3"/>
              <g id="Grupo_180060" data-name="Grupo 180060" transform="translate(35.784 80.341)">
                <path id="Rectángulo_45879" data-name="Rectángulo 45879" d="M0,0H54.958A3.845,3.845,0,0,1,58.8,3.845v0a3.844,3.844,0,0,1-3.844,3.844H0a0,0,0,0,1,0,0V0A0,0,0,0,1,0,0Z" transform="matrix(-0.484, 0.875, -0.875, -0.484, 35.18, 17.006)" fill="#98c6e9"/>
                <path id="Rectángulo_45880" data-name="Rectángulo 45880" d="M0,0H49.563a1.83,1.83,0,0,1,1.83,1.83v0a1.83,1.83,0,0,1-1.83,1.83H0a0,0,0,0,1,0,0V0A0,0,0,0,1,0,0Z" transform="translate(32.372 17.921) rotate(118.936)" fill="#76adce"/>
                <path id="Trazado_187653" data-name="Trazado 187653" d="M1116.964,574.234a10.491,10.491,0,1,1-10.167-15.52l-4.991,7.229,4.448,5.975,7.428.591,3.468-8.071A10.471,10.471,0,0,1,1116.964,574.234Z" transform="translate(-1073.367 -558.714)" fill="#98c6e9"/>
              </g>
              <path id="Trazado_187654" data-name="Trazado 187654" d="M1069.642,607.852c3.4-4.29,8.581-7.858,10.8-8.145s11.1,2.663,12.871,4.072,1.036,4.221,0,5.257-.887,2.219-1.775,3.254a13.874,13.874,0,0,0-1.994,4.29c-.225.888-5.4,3.255-7.622,3.847l.475-1.384s-3.534,2.18-9.771-.29S1069.642,607.852,1069.642,607.852Z" transform="translate(-1028.275 -491.758)" fill="#ffc68f"/>
              <path id="Trazado_187655" data-name="Trazado 187655" d="M1102.231,612.9c-1.719-1.567-4.973-1.463-4.973-1.463" transform="translate(-1037.573 -495.597)" fill="none" stroke="#e55d3e" stroke-linecap="round" stroke-miterlimit="10" stroke-width="1.106" opacity="0.37"/>
              <path id="Trazado_187656" data-name="Trazado 187656" d="M1100.359,617.624a9.7,9.7,0,0,0-3.656-1.617" transform="translate(-1037.392 -497.089)" fill="none" stroke="#e55d3e" stroke-linecap="round" stroke-miterlimit="10" stroke-width="1.106" opacity="0.37"/>
              <path id="Trazado_187657" data-name="Trazado 187657" d="M1097.54,623.554a4.913,4.913,0,0,0-3.027-2.619" transform="translate(-1036.676 -498.699)" fill="none" stroke="#e55d3e" stroke-linecap="round" stroke-miterlimit="10" stroke-width="1.106" opacity="0.37"/>
              <path id="Trazado_187658" data-name="Trazado 187658" d="M1036.019,542.609c-8.3.922-12.547,4.035-18.307,15.777s-10.83,32.941-8.526,45.383,3.917,12.213,10.6,11.291,34.1-10.83,34.1-10.83l-2.535-17.743-26.269,4.608s.692-16.13,4.148-29.034S1036.019,542.609,1036.019,542.609Z" transform="translate(-1008.618 -473.112)" fill="#602807"/>
              <path id="Trazado_187659" data-name="Trazado 187659" d="M1047.581,606.973c-3.57-.081-10.887-5.2-15.424-5.788s-7.464,1.252-8.781,2.894-2.927,7.935-1.61,10.57,3.22.439,3.366,0a23.373,23.373,0,0,0,0-3.22s-.326,4.579,1.52,5,2.578-3.534,2.578-3.534-.439,2.634,1.464,2.78,3.735-3.659,3.735-3.659-.2,1.464.96,1.171,3.191-4.633,3.191-4.633Z" transform="translate(-1012.752 -492.211)" fill="#ffc68f"/>
              <path id="Trazado_187660" data-name="Trazado 187660" d="M1073.442,537.434c-3.766,11.163,14.762,13.941,21.82-1.565C1095.262,535.869,1080.149,535.1,1073.442,537.434Z" transform="translate(-1029.63 -470.87)" fill="#ffc68f"/>
              <g id="Grupo_180062" data-name="Grupo 180062" transform="translate(14.098)">
                <path id="Trazado_187661" data-name="Trazado 187661" d="M1040.662,480.034c-3.171,6.584-.672,14.839,2.7,14.622s4.888-11.663,4.888-11.663l-2.064-5.325Z" transform="translate(-1032.706 -451.898)" fill="#602807"/>
                <g id="Grupo_180061" data-name="Grupo 180061" transform="translate(9.299 20.418)">
                  <rect id="Rectángulo_45881" data-name="Rectángulo 45881" width="14.108" height="11.31" transform="translate(24.021 35.261)" fill="#ffc68f"/>
                  <path id="Trazado_187662" data-name="Trazado 187662" d="M1093.149,522.091v5.3a7.679,7.679,0,0,1-1.184.655,40.113,40.113,0,0,1-12.929,3.545v-9.5Z" transform="translate(-1055.017 -486.827)" fill="#ee7e5f"/>
                  <path id="Trazado_187663" data-name="Trazado 187663" d="M1043.416,482.712c-.978,20.9,12.338,35.912,36.9,25.031,5.867-2.6,8.482-12.86,8.482-12.86s3.144-22.734-3.193-24.8-39.369,5.385-40.261,4.989S1043.416,482.712,1043.416,482.712Z" transform="translate(-1043.365 -469.719)" fill="#ffc68f"/>
                  <path id="Trazado_187664" data-name="Trazado 187664" d="M1105.538,493.5c1.38-6.133,4.662-9.033,7.17-7.535,2.954,1.765,3.286,14.879-3.978,14.1S1105.538,493.5,1105.538,493.5Z" transform="translate(-1063.304 -474.899)" fill="#ffc68f"/>
                  <path id="Trazado_187665" data-name="Trazado 187665" d="M1063.428,496.557c0,1.223-.455,2.215-1.016,2.215s-1.015-.992-1.015-2.215.455-2.215,1.015-2.215S1063.428,495.333,1063.428,496.557Z" transform="translate(-1049.256 -477.763)" fill="#313656"/>
                  <path id="Trazado_187666" data-name="Trazado 187666" d="M1084.929,493.849c0,1.223-.454,2.215-1.015,2.215s-1.015-.992-1.015-2.215.455-2.215,1.015-2.215S1084.929,492.625,1084.929,493.849Z" transform="translate(-1056.28 -476.878)" fill="#313656"/>
                  <path id="Trazado_187667" data-name="Trazado 187667" d="M1070.88,500.921c-.126,2.357-1.4,5.229,0,5.882s3.243-1.044,3.243-1.044" transform="translate(-1052.141 -479.912)" fill="none" stroke="#e55d3e" stroke-linecap="round" stroke-miterlimit="10" stroke-width="1.106"/>
                  <path id="Trazado_187669" data-name="Trazado 187669" d="M1079.039,483.142a5.035,5.035,0,0,1,5.375-2.128C1085.639,481.52,1079.039,483.142,1079.039,483.142Z" transform="translate(-1055.019 -473.353)" fill="#313656"/>
                  <path id="Trazado_187670" data-name="Trazado 187670" d="M1061.665,487.39c-3.154-2.128-5.025-1.824-5.616-.912s4.6.912,4.6.912" transform="translate(-1047.493 -474.966)" fill="#313656"/>
                  <path id="Trazado_187671" data-name="Trazado 187671" d="M1109.193,492.848c.616-2.65,3-3.839,4.313-2.571a2.391,2.391,0,0,0-1.772.747,3.41,3.41,0,0,1,.694,4.845c-2,2.887-3.774,1.408-3.774,1.408Z" transform="translate(-1064.693 -476.268)" fill="#ee7e5f"/>
                  <path id="Trazado_187696" data-name="Trazado 187696" d="M970.9,544.909s2.3,1.857,4.1,1.034,3.1-4.326,3.1-4.326" transform="translate(-950.694 -511.653)" fill="none" stroke="#e55d3e" stroke-linecap="round" stroke-miterlimit="10" stroke-width="0.996"/>
                </g>
                <path id="Trazado_187672" data-name="Trazado 187672" d="M1111.6,468.473c3.689,6.473-.065,11.066-.065,11.066a3.543,3.543,0,0,0-4.548,1.358c-1.681,2.722-1.68,6.1-4,5.513s-6.288-14.632-3.055-18.843S1111.6,468.473,1111.6,468.473Z" transform="translate(-1052.148 -448.056)" fill="#602807"/>
                <path id="Trazado_187673" data-name="Trazado 187673" d="M1081.567,468.876c-10.192-4.282-42.219-3.792-48.5,1.841s-3.033,10.22,1.217,10.22C1047.515,480.936,1075.543,473.159,1081.567,468.876Z" transform="translate(-1029.555 -448.095)" fill="#fd6d36"/>
                <path id="Trazado_187674" data-name="Trazado 187674" d="M1041.394,462.017c-.617-10.988,11.129-21.5,23.195-22.526s26.678,6.294,28.282,20.322C1092.87,459.813,1049.74,464.22,1041.394,462.017Z" transform="translate(-1033.414 -439.396)" fill="#fb9133"/>
                <path id="Trazado_187675" data-name="Trazado 187675" d="M1036.575,484.257" transform="translate(-1031.848 -454.051)" fill="none" stroke="#141413" stroke-miterlimit="10" stroke-width="1.106"/>
                <path id="Trazado_187676" data-name="Trazado 187676" d="M1049.535,466.279c-.5-5.977,3.8-14.842,7.975-17.631H1059s-6.713,8.666-7.391,17.631Z" transform="translate(-1036.069 -442.418)" fill="#fd6d36"/>
                <path id="Trazado_187677" data-name="Trazado 187677" d="M1064.452,466.279c-.5-5.977,3.8-14.842,7.975-17.631h1.488s-6.713,8.666-7.391,17.631Z" transform="translate(-1040.942 -442.418)" fill="#fd6d36"/>
              </g>
              <path id="Trazado_187678" data-name="Trazado 187678" d="M1044.976,541.383c-3.487,3.732-8.12,15.749-7.338,18.176.426,1.322,3.148,1.73,5.536,1.826a4.862,4.862,0,0,0,4.819-3.428c1.888-6.053,5.565-18.126,4.813-18.018C1051.8,540.083,1048.527,537.581,1044.976,541.383Z" transform="translate(-1018.069 -472.019)" fill="#ff7b00"/>
              <path id="Trazado_187679" data-name="Trazado 187679" d="M1045.682,564.546a1.185,1.185,0,1,1-1.184-1.185A1.184,1.184,0,0,1,1045.682,564.546Z" transform="translate(-1019.951 -479.891)" fill="#fb9133"/>
              <path id="Trazado_187680" data-name="Trazado 187680" d="M1108.459,568.065a1.185,1.185,0,1,1-1.184-1.185A1.185,1.185,0,0,1,1108.459,568.065Z" transform="translate(-1040.458 -481.041)" fill="#fb9133"/>
              <path id="Trazado_187681" data-name="Trazado 187681" d="M1027,619.383c-.011-1.906,0-3.817,0-3.817" transform="translate(-1014.621 -496.945)" fill="none" stroke="#e55d3e" stroke-linecap="round" stroke-miterlimit="10" stroke-width="1.106" opacity="0.37"/>
              <path id="Trazado_187682" data-name="Trazado 187682" d="M1033.026,618.163c.006-1.419,0-2.6,0-2.6" transform="translate(-1016.591 -496.945)" fill="none" stroke="#e55d3e" stroke-linecap="round" stroke-miterlimit="10" stroke-width="1.106" opacity="0.37"/>
              <path id="Trazado_187683" data-name="Trazado 187683" d="M1040.81,616.592c.217-.888.4-1.5.4-1.5" transform="translate(-1019.134 -496.789)" fill="none" stroke="#e55d3e" stroke-linecap="round" stroke-miterlimit="10" stroke-width="1.106" opacity="0.37"/>
            </g>
            <path id="Trazado_187684" data-name="Trazado 187684" d="M1339.722,488.532a72.5,72.5,0,0,0-19.64,14.642c-.953-.767-1.594-1.691-1.214-2.674C1319.695,498.371,1329.652,491.9,1339.722,488.532Z" transform="translate(-983.349 -447.609)" fill="#313656"/>
            <path id="Trazado_187685" data-name="Trazado 187685" d="M1355.953,504.231a2.842,2.842,0,0,1-.869-.174c-2.745-1.056-4.64-2.1-7.689-2.6a81.768,81.768,0,0,0-9.564-.963c-4.84-.207-10.361-.368-14.973,1.378-6.338,2.4-8.677,8.989-5.161,14.031s7.306,1.475,2.525-4.513a30.442,30.442,0,0,0,4.717,2.5,19.226,19.226,0,0,0,4.069,1.271,11.516,11.516,0,0,0,1.9.105,12.3,12.3,0,0,0,2.052.138,5.27,5.27,0,0,0,1.609-.611,4.4,4.4,0,0,0,1.026-.651,2.262,2.262,0,0,0,.311-2.836,21.473,21.473,0,0,0,2.067.91c.628.321,1.182.781,1.847,1.072,3.143,1.376,5.785.976,9.032.586,2.949-.354,5.388,1.426,8.349,1.743a9.565,9.565,0,0,0,6.656-1.548c1.182-.867,2.141-2.438,1.5-3.758a4.051,4.051,0,0,0-.945-1.129l-4.284-4a4.132,4.132,0,0,0-1.029-.778C1358.139,503.957,1357.005,504.292,1355.953,504.231Zm-23.48,3.953c.1.074,2.067,2.151,2.3,2.353C1334.517,510.343,1332.562,508.265,1332.473,508.184Z" transform="translate(-982.468 -451.477)" fill="#602807"/>
            <path id="Trazado_187686" data-name="Trazado 187686" d="M1362.953,504.514l-28.368-.559-9.823.38a16.013,16.013,0,0,1-4.036-2.137,72.493,72.493,0,0,1,19.64-14.642,43.677,43.677,0,0,1,7.023-1.757,22.843,22.843,0,0,1,16.244,3.8,21.282,21.282,0,0,1,1.839,1.355h.008a19.834,19.834,0,0,1,6.017,7.664C1373.938,504.872,1362.953,504.514,1362.953,504.514Z" transform="translate(-983.992 -446.632)" fill="#602807"/>
            <path id="Trazado_187687" data-name="Trazado 187687" d="M1353.743,487.433c.029.584-.6.959-1.14,1.174a21.2,21.2,0,0,1-4.109,1.167,20.465,20.465,0,0,1,6.439,3.528,5.2,5.2,0,0,1,1.586,1.844,2.124,2.124,0,0,1-.277,2.3,3.179,3.179,0,0,1-2.077.694,107.434,107.434,0,0,1-13.445.265,7.068,7.068,0,0,1,3.386,1.324,1.093,1.093,0,0,1,.54.766c.02.589-.744.824-1.331.871q-5,.4-10.016.475a2.5,2.5,0,0,1-1.443,2.456,6.213,6.213,0,0,1-2.973.5,27.137,27.137,0,0,1-6-.777c.553.687-.06,1.8-.908,2.049a3.828,3.828,0,0,1-2.554-.441c-1.392-.613-2.981-1.744-2.69-3.237a3.494,3.494,0,0,1,1.049-1.639,77.75,77.75,0,0,1,11.235-9.7,13.324,13.324,0,0,1,4.831-2.442,16.092,16.092,0,0,0,2.049-.417,10.083,10.083,0,0,0,2.2-1.3,15.694,15.694,0,0,1,8.379-2.8C1348.1,484.116,1353.643,485.42,1353.743,487.433Z" transform="translate(-982.677 -446.157)" fill="#21201f" opacity="0.38" style="mix-blend-mode: multiply;isolation: isolate"/>
            <path id="Trazado_187688" data-name="Trazado 187688" d="M1320.8,479.163c-.1-2.706-4.422-1.918-4.751.393s4.751,1.03,4.751,1.03Z" transform="translate(-982.46 -443.99)" fill="#ff7b00"/>
            <path id="Trazado_187689" data-name="Trazado 187689" d="M1361.031,487.908h-.007a20.32,20.32,0,0,0-1.676-1.236c1.438-4.774-2.39-6.956-9.458-5.891a41.129,41.129,0,0,0-11.722,4.037,65.766,65.766,0,0,0-17.882,13.331c-.1.112-.215.224-.312.335a70.394,70.394,0,0,0-8.312,10.658,24.332,24.332,0,0,1-2.13-3.627v-.007c-2.711-5.541-5.809-16.37,5.191-24.994,15.461-12.125,27.347-.574,27.347-.574a.026.026,0,0,1,.015-.007c.491-.141,12.3-3.485,16.631.007A6.662,6.662,0,0,1,1361.031,487.908Z" transform="translate(-979.494 -443.179)" fill="#fb9133"/>
            <path id="Trazado_187690" data-name="Trazado 187690" d="M1362.282,489.548h-.007a20.287,20.287,0,0,0-1.676-1.236c1.438-4.774-2.39-6.956-9.458-5.891a41.126,41.126,0,0,0-11.722,4.037,65.765,65.765,0,0,0-17.882,13.331c-.1.112-.216.224-.312.335a70.4,70.4,0,0,0-8.312,10.657,24.329,24.329,0,0,1-2.13-3.627v-.008c.127-1.244,6.941-8.974,15.588-15.774,5.332-4.193,11.365-8.036,16.951-9.794a.026.026,0,0,1,.015-.007c.492-.141,12.3-3.485,16.631.007A6.662,6.662,0,0,1,1362.282,489.548Z" transform="translate(-980.744 -444.82)" fill="#ff7b00"/>
            <path id="Trazado_187691" data-name="Trazado 187691" d="M1317.835,501.06c.172.469,1.006.424,2.138.112a70.4,70.4,0,0,0-8.312,10.658,24.337,24.337,0,0,1-2.13-3.627V508.2c-2.711-5.541-5.809-16.37,5.191-24.994-6.472,10.218-.141,15.536,2.509,14.3,1.207-.566,4.588-2.815,7.887-5.08,3.463-2.383,6.837-4.781,7.507-5.258C1331.152,488.3,1317.232,499.407,1317.835,501.06Z" transform="translate(-979.494 -445.867)" fill="#ea4200" opacity="0.34" style="mix-blend-mode: multiply;isolation: isolate"/>
            <path id="Trazado_187692" data-name="Trazado 187692" d="M1447.662,547.081c1.707,7.27,11.853,13.294,13.125,13s1.617-8.539-2.439-13a21.849,21.849,0,0,0-17.718-6.62c-6.372.8-14.745,6.648-15.893,10.414a22.781,22.781,0,0,0-.713,7.9s4.2,3.552,5.069,4.852,2.028-4.674,1.883-5.815S1443.927,559.363,1447.662,547.081Z" transform="translate(-1017.71 -464.53)" fill="#602807"/>
            <path id="Trazado_187693" data-name="Trazado 187693" d="M1429.066,527.83s13.091,6.65,18.394,6.895c0,0,6.855-4.515,7.993-6.895v-.72s-5.388-13.393-7.2-15.184l-10.5.8S1429.48,524.312,1429.066,527.83Z" transform="translate(-1019.383 -455.251)" fill="#ffe891"/>
            <path id="Trazado_187694" data-name="Trazado 187694" d="M1455.455,533.308v.722c-1.139,2.375-7.991,6.9-7.991,6.9-5.3-.246-18.4-6.9-18.4-6.9a10.828,10.828,0,0,1,1.162-3.128c3.321,1.624,12.891,6.122,17.234,6.323,0,0,5.079-3.351,7.216-5.8C1455.157,532.57,1455.455,533.308,1455.455,533.308Z" transform="translate(-1019.384 -461.45)" fill="#fede61"/>
            <path id="Trazado_187695" data-name="Trazado 187695" d="M1437.363,598.969c4.342,2.194,11.6.1,11.6.1l.129,3.147s-8.536.767-11.052-1.424Z" transform="translate(-1022.094 -483.685)" fill="#e8c025"/>
          </g>
        </g>
      </g>
    </g>
  </g>
</svg>
