<svg xmlns="http://www.w3.org/2000/svg" width="69.416" height="76.165" viewBox="0 0 69.416 76.165">
  <g id="heterogeneo" transform="translate(0 0)">
    <g id="Grupo_180974" data-name="Grupo 180974" transform="translate(3.76 3.626)">
      <path id="Trazado_189900" data-name="Trazado 189900" d="M40.25,34.435,38.193,38l-2.056-3.562H28.651A3.047,3.047,0,0,1,25.6,31.388V17.047A3.047,3.047,0,0,1,28.651,14H47.736a3.047,3.047,0,0,1,3.047,3.047V31.388a3.047,3.047,0,0,1-3.047,3.047H40.25Z" transform="translate(-25.604 -14)" fill="#fcc24c"/>
    </g>
    <g id="Grupo_180976" data-name="Grupo 180976" transform="translate(23.759 3.626)">
      <g id="Grupo_180975" data-name="Grupo 180975">
        <path id="Trazado_189901" data-name="Trazado 189901" d="M93.906,14H91.773a3.047,3.047,0,0,1,3.047,3.047V31.388a3.047,3.047,0,0,1-3.047,3.047h2.133a3.047,3.047,0,0,0,3.047-3.047V17.047A3.047,3.047,0,0,0,93.906,14Z" transform="translate(-91.773 -14)" fill="#dea42e"/>
      </g>
    </g>
    <g id="Grupo_180978" data-name="Grupo 180978" transform="translate(3.76 3.626)">
      <g id="Grupo_180977" data-name="Grupo 180977" transform="translate(0)">
        <path id="Trazado_189902" data-name="Trazado 189902" d="M28.651,14h2.133a3.047,3.047,0,0,0-3.047,3.047V31.388a3.047,3.047,0,0,0,3.047,3.047H28.651A3.047,3.047,0,0,1,25.6,31.388V17.047A3.047,3.047,0,0,1,28.651,14Z" transform="translate(-25.604 -14)" fill="#fce06a"/>
      </g>
    </g>
    <g id="Grupo_180979" data-name="Grupo 180979" transform="translate(3.155 3.022)">
      <path id="Trazado_189903" data-name="Trazado 189903" d="M36.8,37.206a.6.6,0,0,1-.523-.3l-1.882-3.26H27.255A3.656,3.656,0,0,1,23.6,29.993V15.651A3.656,3.656,0,0,1,27.255,12H46.34a3.656,3.656,0,0,1,3.652,3.651V29.992a3.656,3.656,0,0,1-3.652,3.651H39.2L37.321,36.9A.6.6,0,0,1,36.8,37.206Zm-9.542-24a2.445,2.445,0,0,0-2.443,2.442V29.992a2.445,2.445,0,0,0,2.443,2.442h7.486a.6.6,0,0,1,.523.3L36.8,35.392l1.533-2.655a.6.6,0,0,1,.523-.3H46.34a2.445,2.445,0,0,0,2.443-2.442V15.651a2.445,2.445,0,0,0-2.443-2.442Z" transform="translate(-23.603 -12)" fill="#690589"/>
    </g>
    <g id="Grupo_180980" data-name="Grupo 180980" transform="translate(40.478 3.626)">
      <path id="Trazado_189904" data-name="Trazado 189904" d="M161.735,34.435,159.679,38l-2.056-3.562h-7.486a3.047,3.047,0,0,1-3.047-3.047V17.047A3.047,3.047,0,0,1,150.136,14h19.085a3.047,3.047,0,0,1,3.047,3.047V31.388a3.047,3.047,0,0,1-3.047,3.047h-7.486Z" transform="translate(-147.089 -14)" fill="#fcc24c"/>
    </g>
    <g id="Grupo_180982" data-name="Grupo 180982" transform="translate(60.477 3.626)">
      <g id="Grupo_180981" data-name="Grupo 180981">
        <path id="Trazado_189905" data-name="Trazado 189905" d="M215.391,14h-2.133a3.047,3.047,0,0,1,3.047,3.047V31.388a3.047,3.047,0,0,1-3.047,3.047h2.133a3.047,3.047,0,0,0,3.047-3.047V17.047A3.047,3.047,0,0,0,215.391,14Z" transform="translate(-213.258 -14)" fill="#dea42e"/>
      </g>
    </g>
    <g id="Grupo_180984" data-name="Grupo 180984" transform="translate(40.478 3.626)">
      <g id="Grupo_180983" data-name="Grupo 180983">
        <path id="Trazado_189906" data-name="Trazado 189906" d="M150.136,14h2.133a3.047,3.047,0,0,0-3.047,3.047V31.388a3.047,3.047,0,0,0,3.047,3.047h-2.133a3.047,3.047,0,0,1-3.047-3.047V17.047A3.047,3.047,0,0,1,150.136,14Z" transform="translate(-147.089 -14)" fill="#fce06a"/>
      </g>
    </g>
    <g id="Grupo_180985" data-name="Grupo 180985" transform="translate(39.873 3.022)">
      <path id="Trazado_189907" data-name="Trazado 189907" d="M158.283,37.206a.6.6,0,0,1-.523-.3l-1.882-3.26H148.74a3.656,3.656,0,0,1-3.651-3.651V15.651A3.656,3.656,0,0,1,148.74,12h19.085a3.656,3.656,0,0,1,3.651,3.651V29.992a3.656,3.656,0,0,1-3.651,3.651h-7.137l-1.882,3.26a.6.6,0,0,1-.524.3Zm-9.543-24a2.445,2.445,0,0,0-2.442,2.442V29.992a2.445,2.445,0,0,0,2.442,2.442h7.486a.6.6,0,0,1,.523.3l1.533,2.655,1.533-2.655a.6.6,0,0,1,.523-.3h7.486a2.445,2.445,0,0,0,2.442-2.442V15.651a2.445,2.445,0,0,0-2.442-2.442Z" transform="translate(-145.089 -12)" fill="#690589"/>
    </g>
    <g id="Grupo_180986" data-name="Grupo 180986" transform="translate(37.322 53.355)">
      <path id="Trazado_189908" data-name="Trazado 189908" d="M148.548,185.782v-7.25h7.727v7.25h6.977a4.915,4.915,0,0,1,4.887,4.925v10.026h-31.49V190.667a4.9,4.9,0,0,1,4.913-4.887Z" transform="translate(-136.649 -178.532)" fill="#fcc24c"/>
    </g>
    <g id="Grupo_180987" data-name="Grupo 180987" transform="translate(49.221 53.355)">
      <path id="Trazado_189909" data-name="Trazado 189909" d="M176.018,184.028l3.828,4.761,3.9-4.761v-5.495h-7.727Z" transform="translate(-176.018 -178.533)" fill="#ff9f70"/>
    </g>
    <g id="Grupo_180989" data-name="Grupo 180989" transform="translate(62.208 60.605)">
      <g id="Grupo_180988" data-name="Grupo 180988">
        <path id="Trazado_189910" data-name="Trazado 189910" d="M220.7,202.521h-1.717a4.914,4.914,0,0,1,4.887,4.923v10.028h1.717V207.446a4.916,4.916,0,0,0-4.887-4.925Z" transform="translate(-218.987 -202.521)" fill="#dea42e"/>
      </g>
    </g>
    <g id="Grupo_180991" data-name="Grupo 180991" transform="translate(37.322 60.603)">
      <g id="Grupo_180990" data-name="Grupo 180990">
        <path id="Trazado_189911" data-name="Trazado 189911" d="M141.562,202.514l1.717,0a4.9,4.9,0,0,0-4.913,4.887v10.064h-1.717V207.4A4.9,4.9,0,0,1,141.562,202.514Z" transform="translate(-136.649 -202.514)" fill="#fce06a"/>
      </g>
    </g>
    <g id="Grupo_180992" data-name="Grupo 180992" transform="translate(42.797 70.314)">
      <path id="Trazado_189912" data-name="Trazado 189912" d="M155.367,240.318a.6.6,0,0,1-.6-.6v-4.467a.6.6,0,1,1,1.209,0v4.467A.6.6,0,0,1,155.367,240.318Z" transform="translate(-154.763 -234.642)" fill="#690589"/>
    </g>
    <g id="Grupo_180993" data-name="Grupo 180993" transform="translate(62.129 70.314)">
      <path id="Trazado_189913" data-name="Trazado 189913" d="M219.328,240.318a.6.6,0,0,1-.6-.6v-4.467a.6.6,0,1,1,1.209,0v4.467A.6.6,0,0,1,219.328,240.318Z" transform="translate(-218.724 -234.642)" fill="#690589"/>
    </g>
    <g id="Grupo_180994" data-name="Grupo 180994" transform="translate(36.718 52.75)">
      <path id="Trazado_189914" data-name="Trazado 189914" d="M166.743,199.943h-31.49a.6.6,0,0,1-.6-.6V189.272a5.508,5.508,0,0,1,5.51-5.492h.007l6.381,0v-6.646a.6.6,0,0,1,.6-.6h7.727a.6.6,0,0,1,.6.6v6.646h6.372a5.518,5.518,0,0,1,5.492,5.53v10.025A.6.6,0,0,1,166.743,199.943Zm-30.886-1.209h30.281v-9.422a4.307,4.307,0,0,0-4.284-4.321h-6.976a.6.6,0,0,1-.6-.6v-6.646h-6.518v6.646a.6.6,0,0,1-.6.6h0l-6.986,0h-.005a4.3,4.3,0,0,0-4.3,4.283Z" transform="translate(-134.649 -176.532)" fill="#690589"/>
    </g>
    <g id="Grupo_180995" data-name="Grupo 180995" transform="translate(53.049 58.85)">
      <path id="Trazado_189915" data-name="Trazado 189915" d="M192.581,196.713l-3.9,4.761,4.383,3.219,1.166-6.225Z" transform="translate(-188.682 -196.713)" fill="#526faa"/>
    </g>
    <g id="Grupo_180996" data-name="Grupo 180996" transform="translate(47.536 58.85)">
      <path id="Trazado_189916" data-name="Trazado 189916" d="M172.128,196.713l3.828,4.761-4.347,3.219-1.166-6.226Z" transform="translate(-170.443 -196.713)" fill="#526faa"/>
    </g>
    <g id="Grupo_180997" data-name="Grupo 180997" transform="translate(52.444 58.246)">
      <path id="Trazado_189917" data-name="Trazado 189917" d="M191.67,203.9a.6.6,0,0,1-.358-.117l-4.383-3.219a.6.6,0,0,1-.11-.87l3.9-4.761a.6.6,0,0,1,.447-.221.614.614,0,0,1,.461.19l1.65,1.755a.6.6,0,0,1,.154.525l-1.166,6.225a.6.6,0,0,1-.594.493Zm-3.512-3.934,3.095,2.273.933-4.978-.968-1.03Z" transform="translate(-186.682 -194.714)" fill="#690589"/>
    </g>
    <g id="Grupo_180998" data-name="Grupo 180998" transform="translate(46.932 58.245)">
      <path id="Trazado_189918" data-name="Trazado 189918" d="M170.214,203.9a.6.6,0,0,1-.594-.493l-1.166-6.226a.6.6,0,0,1,.158-.53L170.3,194.9a.6.6,0,0,1,.907.04l3.828,4.761a.6.6,0,0,1-.111.864l-4.347,3.219a.605.605,0,0,1-.36.119Zm-.514-6.636.931,4.97,3.065-2.27-3-3.735Z" transform="translate(-168.444 -194.713)" fill="#690589"/>
    </g>
    <g id="Grupo_180999" data-name="Grupo 180999" transform="translate(50.292 63.611)">
      <path id="Trazado_189919" data-name="Trazado 189919" d="M179.562,214.506l2.756,3.065,2.775-3.069-2.775-2.038Z" transform="translate(-179.562 -212.465)" fill="#f4efed"/>
    </g>
    <g id="Grupo_181000" data-name="Grupo 181000" transform="translate(50.292 68.718)">
      <path id="Trazado_189920" data-name="Trazado 189920" d="M179.562,236.2l2.756-6.838,2.775,6.842-2.775,0Z" transform="translate(-179.562 -229.361)" fill="#f4efed"/>
    </g>
    <g id="Grupo_181001" data-name="Grupo 181001" transform="translate(49.688 63.007)">
      <path id="Trazado_189921" data-name="Trazado 189921" d="M180.923,216.781h0a.605.605,0,0,1-.449-.2l-2.756-3.065a.6.6,0,0,1,.09-.89l2.756-2.041a.6.6,0,0,1,.718,0l2.775,2.038a.6.6,0,0,1,.091.893l-2.775,3.069A.6.6,0,0,1,180.923,216.781Zm-1.862-3.579,1.863,2.072L182.8,213.2l-1.876-1.378Z" transform="translate(-177.563 -210.465)" fill="#690589"/>
    </g>
    <g id="Grupo_181002" data-name="Grupo 181002" transform="translate(49.688 68.113)">
      <path id="Trazado_189922" data-name="Trazado 189922" d="M183.7,235.412h0l-5.531,0a.6.6,0,0,1-.56-.83l2.756-6.839a.606.606,0,0,1,.56-.379h0a.605.605,0,0,1,.56.378l2.775,6.842a.6.6,0,0,1-.561.832Zm-4.636-1.212,3.738,0-1.875-4.625Z" transform="translate(-177.562 -227.36)" fill="#690589"/>
    </g>
    <g id="Grupo_181003" data-name="Grupo 181003" transform="translate(0.604 53.355)">
      <path id="Trazado_189923" data-name="Trazado 189923" d="M27.062,185.782v-7.25h7.727v7.25h6.977a4.915,4.915,0,0,1,4.887,4.925v10.026H15.163V190.667a4.9,4.9,0,0,1,4.913-4.887Z" transform="translate(-15.163 -178.532)" fill="#f4efed"/>
    </g>
    <g id="Grupo_181004" data-name="Grupo 181004" transform="translate(12.503 53.355)">
      <path id="Trazado_189924" data-name="Trazado 189924" d="M54.532,184.028l3.828,4.761,3.9-4.761v-5.495H54.532Z" transform="translate(-54.532 -178.533)" fill="#ff9f70"/>
    </g>
    <g id="Grupo_181006" data-name="Grupo 181006" transform="translate(25.491 60.605)">
      <g id="Grupo_181005" data-name="Grupo 181005">
        <path id="Trazado_189925" data-name="Trazado 189925" d="M99.218,202.521H97.5a4.914,4.914,0,0,1,4.887,4.923v10.028h1.716V207.446a4.916,4.916,0,0,0-4.887-4.925Z" transform="translate(-97.502 -202.521)" fill="#d6d1cf"/>
      </g>
    </g>
    <g id="Grupo_181008" data-name="Grupo 181008" transform="translate(0.604 60.603)">
      <g id="Grupo_181007" data-name="Grupo 181007" transform="translate(0)">
        <path id="Trazado_189926" data-name="Trazado 189926" d="M20.076,202.514l1.717,0A4.9,4.9,0,0,0,16.88,207.4v10.064H15.163V207.4A4.9,4.9,0,0,1,20.076,202.514Z" transform="translate(-15.163 -202.514)" fill="#fff"/>
      </g>
    </g>
    <g id="Grupo_181009" data-name="Grupo 181009" transform="translate(6.079 70.314)">
      <path id="Trazado_189927" data-name="Trazado 189927" d="M33.881,240.318a.6.6,0,0,1-.6-.6v-4.467a.6.6,0,1,1,1.209,0v4.467A.6.6,0,0,1,33.881,240.318Z" transform="translate(-33.277 -234.642)" fill="#690589"/>
    </g>
    <g id="Grupo_181010" data-name="Grupo 181010" transform="translate(25.41 70.314)">
      <path id="Trazado_189928" data-name="Trazado 189928" d="M97.841,240.318a.6.6,0,0,1-.6-.6v-4.467a.6.6,0,1,1,1.209,0v4.467A.6.6,0,0,1,97.841,240.318Z" transform="translate(-97.237 -234.642)" fill="#690589"/>
    </g>
    <g id="Grupo_181011" data-name="Grupo 181011" transform="translate(0 52.75)">
      <path id="Trazado_189929" data-name="Trazado 189929" d="M45.258,199.943H13.768a.6.6,0,0,1-.6-.6V189.272a5.509,5.509,0,0,1,5.511-5.492h.007l6.381,0v-6.646a.6.6,0,0,1,.6-.6h7.727a.6.6,0,0,1,.6.6v6.646h6.372a5.517,5.517,0,0,1,5.491,5.53v10.025A.6.6,0,0,1,45.258,199.943Zm-30.885-1.209H44.654v-9.422a4.307,4.307,0,0,0-4.283-4.321H33.394a.6.6,0,0,1-.6-.6v-6.646H26.272v6.646a.6.6,0,0,1-.6.6l-6.986,0h-.006a4.3,4.3,0,0,0-4.3,4.283v9.461Z" transform="translate(-13.164 -176.532)" fill="#690589"/>
    </g>
    <g id="Grupo_181012" data-name="Grupo 181012" transform="translate(16.331 58.85)">
      <path id="Trazado_189930" data-name="Trazado 189930" d="M71.1,196.713l-3.9,4.761,4.383,3.219,1.166-6.225Z" transform="translate(-67.196 -196.713)" fill="#f4efed"/>
    </g>
    <g id="Grupo_181013" data-name="Grupo 181013" transform="translate(10.818 58.85)">
      <path id="Trazado_189931" data-name="Trazado 189931" d="M50.642,196.713l3.828,4.761-4.347,3.219-1.166-6.226Z" transform="translate(-48.957 -196.713)" fill="#f4efed"/>
    </g>
    <g id="Grupo_181014" data-name="Grupo 181014" transform="translate(15.726 58.246)">
      <path id="Trazado_189932" data-name="Trazado 189932" d="M70.184,203.9a.605.605,0,0,1-.358-.117l-4.383-3.219a.6.6,0,0,1-.11-.87l3.9-4.761a.6.6,0,0,1,.908-.031l1.65,1.755a.6.6,0,0,1,.154.525l-1.166,6.225a.6.6,0,0,1-.595.493Zm-3.512-3.934,3.095,2.273.932-4.978-.968-1.03Z" transform="translate(-65.196 -194.714)" fill="#690589"/>
    </g>
    <g id="Grupo_181015" data-name="Grupo 181015" transform="translate(10.214 58.246)">
      <path id="Trazado_189933" data-name="Trazado 189933" d="M48.728,203.9a.6.6,0,0,1-.594-.493l-1.166-6.226a.6.6,0,0,1,.158-.53l1.685-1.755a.6.6,0,0,1,.907.04l3.828,4.761a.6.6,0,0,1-.111.864l-4.347,3.219a.605.605,0,0,1-.36.119Zm-.514-6.636.931,4.97,3.065-2.27-3-3.735Z" transform="translate(-46.958 -194.713)" fill="#690589"/>
    </g>
    <g id="Grupo_181016" data-name="Grupo 181016" transform="translate(13.575 63.611)">
      <path id="Trazado_189934" data-name="Trazado 189934" d="M58.077,214.506l2.756,3.065,2.775-3.069-2.775-2.038Z" transform="translate(-58.077 -212.465)" fill="#526faa"/>
    </g>
    <g id="Grupo_181017" data-name="Grupo 181017" transform="translate(13.575 68.718)">
      <path id="Trazado_189935" data-name="Trazado 189935" d="M58.077,236.2l2.756-6.838,2.775,6.842-2.775,0Z" transform="translate(-58.077 -229.361)" fill="#526faa"/>
    </g>
    <g id="Grupo_181018" data-name="Grupo 181018" transform="translate(12.97 63.006)">
      <path id="Trazado_189936" data-name="Trazado 189936" d="M59.438,216.78h0a.6.6,0,0,1-.449-.2l-2.756-3.065a.6.6,0,0,1,.089-.89l2.756-2.041a.6.6,0,0,1,.718,0l2.775,2.038a.6.6,0,0,1,.091.893l-2.775,3.069a.6.6,0,0,1-.448.2ZM57.575,213.2l1.864,2.072,1.876-2.075-1.876-1.378Z" transform="translate(-56.077 -210.465)" fill="#690589"/>
    </g>
    <g id="Grupo_181019" data-name="Grupo 181019" transform="translate(12.97 68.113)">
      <path id="Trazado_189937" data-name="Trazado 189937" d="M62.212,235.412h0l-5.531,0a.6.6,0,0,1-.56-.83l2.756-6.839a.605.605,0,0,1,.56-.379h0a.605.605,0,0,1,.56.378l2.775,6.842a.6.6,0,0,1-.56.832ZM57.576,234.2l3.738,0-1.875-4.625Z" transform="translate(-56.076 -227.36)" fill="#690589"/>
    </g>
    <g id="Grupo_181020" data-name="Grupo 181020" transform="translate(43.834 35.33)">
      <path id="Trazado_189938" data-name="Trazado 189938" d="M167.426,118.9a9.233,9.233,0,0,0-9.233,9.233v4.239H176.66v-4.239A9.234,9.234,0,0,0,167.426,118.9Z" transform="translate(-158.193 -118.896)" fill="#fcc24c"/>
    </g>
    <g id="Grupo_181021" data-name="Grupo 181021" transform="translate(43.229 34.726)">
      <path id="Trazado_189939" data-name="Trazado 189939" d="M175.264,131.578H156.8a.6.6,0,0,1-.6-.6v-4.239a9.838,9.838,0,0,1,19.676,0v4.239A.6.6,0,0,1,175.264,131.578ZM157.4,130.369h17.258v-3.634a8.629,8.629,0,0,0-17.258,0Z" transform="translate(-156.192 -116.897)" fill="#690589"/>
    </g>
    <g id="Grupo_181022" data-name="Grupo 181022" transform="translate(42.277 46.237)">
      <path id="Trazado_189940" data-name="Trazado 189940" d="M156.155,154.983h-.548a2.565,2.565,0,0,0,0,5.131h.548Z" transform="translate(-153.042 -154.983)" fill="#ffbd8e"/>
    </g>
    <g id="Grupo_181023" data-name="Grupo 181023" transform="translate(60.744 46.237)">
      <path id="Trazado_189941" data-name="Trazado 189941" d="M214.69,154.983h-.548v5.131h.548a2.565,2.565,0,0,0,0-5.131Z" transform="translate(-214.142 -154.983)" fill="#e18152"/>
    </g>
    <g id="Grupo_181024" data-name="Grupo 181024" transform="translate(45.39 38.342)">
      <path id="Trazado_189942" data-name="Trazado 189942" d="M171.02,149.8a7.727,7.727,0,0,1-7.677-7.777v-5.384a7.678,7.678,0,1,1,15.354,0v5.384A7.727,7.727,0,0,1,171.02,149.8Z" transform="translate(-163.343 -128.86)" fill="#ff9f70"/>
    </g>
    <g id="Grupo_181025" data-name="Grupo 181025" transform="translate(52.195 38.342)">
      <path id="Trazado_189943" data-name="Trazado 189943" d="M186.729,128.86a7.621,7.621,0,0,0-.872.051,7.741,7.741,0,0,1,6.8,7.725v5.384a7.741,7.741,0,0,1-6.8,7.725,7.629,7.629,0,0,0,.872.051,7.727,7.727,0,0,0,7.677-7.777v-5.383A7.727,7.727,0,0,0,186.729,128.86Z" transform="translate(-185.857 -128.86)" fill="#e18152"/>
    </g>
    <g id="Grupo_181026" data-name="Grupo 181026" transform="translate(45.39 38.342)">
      <path id="Trazado_189944" data-name="Trazado 189944" d="M171.02,128.86a7.629,7.629,0,0,1,.872.051,7.741,7.741,0,0,0-6.8,7.725v5.384a7.741,7.741,0,0,0,6.8,7.725,7.629,7.629,0,0,1-.872.051,7.727,7.727,0,0,1-7.677-7.777v-5.383A7.727,7.727,0,0,1,171.02,128.86Z" transform="translate(-163.343 -128.86)" fill="#ffbd8e"/>
    </g>
    <g id="Grupo_181027" data-name="Grupo 181027" transform="translate(44.786 37.738)">
      <path id="Trazado_189945" data-name="Trazado 189945" d="M169.624,149.007a8.341,8.341,0,0,1-8.281-8.381v-5.384a8.282,8.282,0,1,1,16.563,0v5.384A8.34,8.34,0,0,1,169.624,149.007Zm0-20.937a7.131,7.131,0,0,0-7.072,7.172v5.384a7.073,7.073,0,1,0,14.145,0v-5.384a7.131,7.131,0,0,0-7.072-7.172Z" transform="translate(-161.343 -126.861)" fill="#690589"/>
    </g>
    <g id="Grupo_181028" data-name="Grupo 181028" transform="translate(41.673 45.633)">
      <path id="Trazado_189946" data-name="Trazado 189946" d="M154.76,159.324h-.548a3.17,3.17,0,0,1,0-6.34h.548a.6.6,0,0,1,.6.6v5.131a.6.6,0,0,1-.6.6Zm-.6-5.131a1.961,1.961,0,0,0,0,3.921Z" transform="translate(-151.042 -152.984)" fill="#690589"/>
    </g>
    <g id="Grupo_181029" data-name="Grupo 181029" transform="translate(60.14 45.633)">
      <path id="Trazado_189947" data-name="Trazado 189947" d="M213.295,159.323h-.548a.6.6,0,0,1-.6-.6v-5.131a.6.6,0,0,1,.6-.6h.548a3.17,3.17,0,0,1,0,6.34Zm.057-5.131v3.921a1.961,1.961,0,0,0,0-3.921Z" transform="translate(-212.142 -152.983)" fill="#690589"/>
    </g>
    <g id="Grupo_181030" data-name="Grupo 181030" transform="translate(7.116 35.33)">
      <path id="Trazado_189948" data-name="Trazado 189948" d="M45.941,118.9a9.233,9.233,0,0,0-9.234,9.233v4.239H55.174v-4.239A9.234,9.234,0,0,0,45.941,118.9Z" transform="translate(-36.707 -118.896)" fill="#fcc24c"/>
    </g>
    <g id="Grupo_181031" data-name="Grupo 181031" transform="translate(6.511 34.726)">
      <path id="Trazado_189949" data-name="Trazado 189949" d="M53.778,131.578H35.31a.6.6,0,0,1-.6-.6v-4.239a9.838,9.838,0,0,1,19.676,0v4.239A.6.6,0,0,1,53.778,131.578Zm-17.863-1.209H53.173v-3.634a8.629,8.629,0,0,0-17.258,0Z" transform="translate(-34.706 -116.897)" fill="#690589"/>
    </g>
    <g id="Grupo_181032" data-name="Grupo 181032" transform="translate(5.559 46.237)">
      <path id="Trazado_189950" data-name="Trazado 189950" d="M34.669,154.983h-.548a2.565,2.565,0,0,0,0,5.131h.548Z" transform="translate(-31.556 -154.983)" fill="#ffbd8e"/>
    </g>
    <g id="Grupo_181033" data-name="Grupo 181033" transform="translate(24.026 46.237)">
      <path id="Trazado_189951" data-name="Trazado 189951" d="M93.2,154.983h-.548v5.131H93.2a2.565,2.565,0,1,0,0-5.131Z" transform="translate(-92.657 -154.983)" fill="#e18152"/>
    </g>
    <g id="Grupo_181034" data-name="Grupo 181034" transform="translate(8.672 38.342)">
      <path id="Trazado_189952" data-name="Trazado 189952" d="M49.534,149.8a7.727,7.727,0,0,1-7.677-7.777v-5.384a7.678,7.678,0,1,1,15.354,0v5.384A7.727,7.727,0,0,1,49.534,149.8Z" transform="translate(-41.857 -128.86)" fill="#ff9f70"/>
    </g>
    <g id="Grupo_181035" data-name="Grupo 181035" transform="translate(15.477 38.342)">
      <path id="Trazado_189953" data-name="Trazado 189953" d="M65.243,128.86a7.625,7.625,0,0,0-.872.051,7.741,7.741,0,0,1,6.8,7.725v5.384a7.741,7.741,0,0,1-6.8,7.725,7.629,7.629,0,0,0,.872.051,7.727,7.727,0,0,0,7.677-7.777v-5.383A7.727,7.727,0,0,0,65.243,128.86Z" transform="translate(-64.371 -128.86)" fill="#e18152"/>
    </g>
    <g id="Grupo_181036" data-name="Grupo 181036" transform="translate(8.672 38.342)">
      <path id="Trazado_189954" data-name="Trazado 189954" d="M49.534,128.86a7.629,7.629,0,0,1,.872.051,7.741,7.741,0,0,0-6.8,7.725v5.384a7.741,7.741,0,0,0,6.8,7.725,7.629,7.629,0,0,1-.872.051,7.727,7.727,0,0,1-7.677-7.777v-5.383A7.727,7.727,0,0,1,49.534,128.86Z" transform="translate(-41.857 -128.86)" fill="#ffbd8e"/>
    </g>
    <g id="Grupo_181037" data-name="Grupo 181037" transform="translate(8.068 37.738)">
      <path id="Trazado_189955" data-name="Trazado 189955" d="M48.138,149.007a8.341,8.341,0,0,1-8.281-8.381v-5.384a8.282,8.282,0,1,1,16.563,0v5.384A8.341,8.341,0,0,1,48.138,149.007Zm0-20.937a7.131,7.131,0,0,0-7.072,7.172v5.384a7.073,7.073,0,1,0,14.145,0v-5.384a7.13,7.13,0,0,0-7.072-7.172Z" transform="translate(-39.857 -126.861)" fill="#690589"/>
    </g>
    <g id="Grupo_181038" data-name="Grupo 181038" transform="translate(4.954 45.633)">
      <path id="Trazado_189956" data-name="Trazado 189956" d="M33.274,159.324h-.548a3.17,3.17,0,0,1,0-6.34h.548a.6.6,0,0,1,.6.6v5.131a.6.6,0,0,1-.6.6Zm-.6-5.131a1.961,1.961,0,0,0,0,3.921Z" transform="translate(-29.556 -152.984)" fill="#690589"/>
    </g>
    <g id="Grupo_181039" data-name="Grupo 181039" transform="translate(23.422 45.633)">
      <path id="Trazado_189957" data-name="Trazado 189957" d="M91.809,159.323h-.548a.6.6,0,0,1-.6-.6v-5.131a.6.6,0,0,1,.6-.6h.548a3.17,3.17,0,0,1,0,6.34Zm.057-5.131v3.921a1.961,1.961,0,0,0,0-3.921Z" transform="translate(-90.657 -152.983)" fill="#690589"/>
    </g>
    <g id="Grupo_181040" data-name="Grupo 181040" transform="translate(16.349 49.668)">
      <path id="Trazado_189958" data-name="Trazado 189958" d="M81.131,174.788v-8.454h9.01v8.454h8.135a5.731,5.731,0,0,1,5.7,5.743v11.691H67.257V180.484a5.718,5.718,0,0,1,5.728-5.7Z" transform="translate(-67.257 -166.334)" fill="#526faa"/>
    </g>
    <g id="Grupo_181041" data-name="Grupo 181041" transform="translate(30.224 49.668)">
      <path id="Trazado_189959" data-name="Trazado 189959" d="M113.162,172.742l4.463,5.551,4.547-5.551v-6.407h-9.01Z" transform="translate(-113.162 -166.335)" fill="#ff9f70"/>
    </g>
    <g id="Grupo_181043" data-name="Grupo 181043" transform="translate(45.367 58.123)">
      <g id="Grupo_181042" data-name="Grupo 181042">
        <path id="Trazado_189960" data-name="Trazado 189960" d="M165.267,194.306h-2a5.729,5.729,0,0,1,5.7,5.74V211.74h2V200.049A5.731,5.731,0,0,0,165.267,194.306Z" transform="translate(-163.266 -194.306)" fill="#34518c"/>
      </g>
    </g>
    <g id="Grupo_181045" data-name="Grupo 181045" transform="translate(16.349 58.12)">
      <g id="Grupo_181044" data-name="Grupo 181044">
        <path id="Trazado_189961" data-name="Trazado 189961" d="M72.986,194.3l2,0a5.718,5.718,0,0,0-5.728,5.7v11.735h-2V200A5.718,5.718,0,0,1,72.986,194.3Z" transform="translate(-67.258 -194.298)" fill="#708dc8"/>
      </g>
    </g>
    <g id="Grupo_181046" data-name="Grupo 181046" transform="translate(22.833 69.543)">
      <path id="Trazado_189962" data-name="Trazado 189962" d="M89.314,238.51a.6.6,0,0,1-.6-.6V232.7a.6.6,0,0,1,1.209,0v5.209A.6.6,0,0,1,89.314,238.51Z" transform="translate(-88.71 -232.092)" fill="#690589"/>
    </g>
    <g id="Grupo_181047" data-name="Grupo 181047" transform="translate(45.374 69.543)">
      <path id="Trazado_189963" data-name="Trazado 189963" d="M163.894,238.51a.6.6,0,0,1-.6-.6V232.7a.6.6,0,0,1,1.209,0v5.209A.6.6,0,0,1,163.894,238.51Z" transform="translate(-163.29 -232.092)" fill="#690589"/>
    </g>
    <g id="Grupo_181048" data-name="Grupo 181048" transform="translate(15.745 49.064)">
      <path id="Trazado_189964" data-name="Trazado 189964" d="M102.58,191.431H65.861a.6.6,0,0,1-.6-.6V179.089a6.323,6.323,0,0,1,6.325-6.3h.008l7.541,0v-7.85a.6.6,0,0,1,.6-.6h9.01a.6.6,0,0,1,.6.6v7.85h7.531a6.333,6.333,0,0,1,6.3,6.348v11.69A.6.6,0,0,1,102.58,191.431Zm-36.114-1.209h35.509V179.136A5.122,5.122,0,0,0,96.88,174H88.746a.6.6,0,0,1-.6-.6v-7.85h-7.8v7.85a.6.6,0,0,1-.6.6h0l-8.146,0h-.007a5.114,5.114,0,0,0-5.117,5.095v11.132Z" transform="translate(-65.257 -164.334)" fill="#690589"/>
    </g>
    <g id="Grupo_181057" data-name="Grupo 181057" transform="translate(27.654 55.471)">
      <g id="Grupo_181049" data-name="Grupo 181049" transform="translate(7.032 0.605)">
        <path id="Trazado_189965" data-name="Trazado 189965" d="M132.475,187.534l-4.547,5.551,5.112,3.754,1.359-7.258Z" transform="translate(-127.928 -187.534)" fill="#f4efed"/>
      </g>
      <g id="Grupo_181050" data-name="Grupo 181050" transform="translate(0.605 0.605)">
        <path id="Trazado_189966" data-name="Trazado 189966" d="M108.627,187.534l4.463,5.551-5.068,3.754-1.359-7.259Z" transform="translate(-106.662 -187.534)" fill="#f4efed"/>
      </g>
      <g id="Grupo_181051" data-name="Grupo 181051" transform="translate(6.428 0)">
        <path id="Trazado_189967" data-name="Trazado 189967" d="M131.644,196.049a.6.6,0,0,1-.358-.117l-5.112-3.754a.6.6,0,0,1-.11-.87l4.547-5.551a.6.6,0,0,1,.908-.031l1.924,2.047a.6.6,0,0,1,.154.525l-1.359,7.258a.6.6,0,0,1-.594.493Zm-4.24-4.468,3.823,2.808,1.126-6.012-1.242-1.321Z" transform="translate(-125.928 -185.535)" fill="#690589"/>
      </g>
      <g id="Grupo_181052" data-name="Grupo 181052" transform="translate(0)">
        <path id="Trazado_189968" data-name="Trazado 189968" d="M106.626,196.048a.6.6,0,0,1-.594-.493l-1.359-7.259a.6.6,0,0,1,.158-.53l1.965-2.046a.613.613,0,0,1,.463-.185.6.6,0,0,1,.445.225l4.463,5.551a.6.6,0,0,1-.111.864l-5.068,3.754A.6.6,0,0,1,106.626,196.048Zm-.708-7.669,1.124,6,3.786-2.8-3.638-4.525Z" transform="translate(-104.662 -185.534)" fill="#690589"/>
      </g>
      <g id="Grupo_181053" data-name="Grupo 181053" transform="translate(3.818 6.156)">
        <path id="Trazado_189969" data-name="Trazado 189969" d="M117.295,208.281l3.214,3.574,3.236-3.578-3.236-2.376Z" transform="translate(-117.295 -205.901)" fill="#f4efed"/>
      </g>
      <g id="Grupo_181054" data-name="Grupo 181054" transform="translate(3.818 12.11)">
        <path id="Trazado_189970" data-name="Trazado 189970" d="M117.295,233.576l3.214-7.974,3.236,7.979-3.236,0Z" transform="translate(-117.295 -225.602)" fill="#f4efed"/>
      </g>
      <g id="Grupo_181055" data-name="Grupo 181055" transform="translate(3.214 5.551)">
        <path id="Trazado_189971" data-name="Trazado 189971" d="M119.115,211.064h0a.605.605,0,0,1-.449-.2l-3.214-3.574a.6.6,0,0,1,.09-.89l3.214-2.38a.6.6,0,0,1,.718,0l3.235,2.376a.6.6,0,0,1,.091.893l-3.235,3.578A.6.6,0,0,1,119.115,211.064Zm-2.32-4.088,2.321,2.581,2.337-2.584-2.336-1.716Z" transform="translate(-115.297 -203.901)" fill="#690589"/>
      </g>
      <g id="Grupo_181056" data-name="Grupo 181056" transform="translate(3.214 11.506)">
        <path id="Trazado_189972" data-name="Trazado 189972" d="M122.349,232.79h0l-6.45,0a.6.6,0,0,1-.56-.83l3.214-7.974a.6.6,0,0,1,.56-.378h0a.6.6,0,0,1,.56.377l3.235,7.979a.6.6,0,0,1-.56.831Zm-5.554-1.213,4.656,0-2.336-5.761Z" transform="translate(-115.295 -223.603)" fill="#690589"/>
      </g>
    </g>
    <g id="Grupo_181058" data-name="Grupo 181058" transform="translate(18.049 64.848)">
      <path id="Trazado_189973" data-name="Trazado 189973" d="M73.484,221.394a.6.6,0,0,1-.6-.6v-3.628a.6.6,0,1,1,1.209,0v3.628A.6.6,0,0,1,73.484,221.394Z" transform="translate(-72.88 -216.557)" fill="#690589"/>
    </g>
    <g id="Grupo_181059" data-name="Grupo 181059" transform="translate(24.137 28.651)">
      <path id="Trazado_189974" data-name="Trazado 189974" d="M93.023,113.128V102.5a5.7,5.7,0,0,1,5.7-5.7h9.721a3.9,3.9,0,0,1,3.9,3.9v1.417a1.83,1.83,0,0,1,1.815,1.83v9.178H93.023Z" transform="translate(-93.023 -96.798)" fill="#fcc24c"/>
    </g>
    <g id="Grupo_181060" data-name="Grupo 181060" transform="translate(38.191 28.651)">
      <path id="Trazado_189975" data-name="Trazado 189975" d="M144.8,102.119V100.7a3.9,3.9,0,0,0-3.9-3.9h-1.369a3.9,3.9,0,0,1,3.9,3.9v.512a1.132,1.132,0,0,0,.691,1.046,1.83,1.83,0,0,1,1.124,1.689v9.178h1.369v-9.178a1.831,1.831,0,0,0-1.815-1.83Z" transform="translate(-139.523 -96.797)" fill="#dea42e"/>
    </g>
    <g id="Grupo_181061" data-name="Grupo 181061" transform="translate(24.137 28.651)">
      <path id="Trazado_189976" data-name="Trazado 189976" d="M100.093,96.8H98.725a5.7,5.7,0,0,0-5.7,5.7v10.628h1.369V102.5A5.7,5.7,0,0,1,100.093,96.8Z" transform="translate(-93.023 -96.797)" fill="#fce06a"/>
    </g>
    <g id="Grupo_181062" data-name="Grupo 181062" transform="translate(23.532 28.047)">
      <path id="Trazado_189977" data-name="Trazado 189977" d="M112.771,112.336H91.627a.6.6,0,0,1-.6-.6V101.1A6.314,6.314,0,0,1,97.329,94.8h9.721a4.515,4.515,0,0,1,4.509,4.509v.893a2.444,2.444,0,0,1,1.815,2.354v9.178A.6.6,0,0,1,112.771,112.336Zm-20.539-1.209h19.934v-8.573a1.23,1.23,0,0,0-1.216-1.226.6.6,0,0,1-.6-.6V99.306a3.3,3.3,0,0,0-3.3-3.3H97.33a5.1,5.1,0,0,0-5.1,5.1v10.023Z" transform="translate(-91.023 -94.797)" fill="#690589"/>
    </g>
    <g id="Grupo_181063" data-name="Grupo 181063" transform="translate(22.126 41.369)">
      <path id="Trazado_189978" data-name="Trazado 189978" d="M90,138.875h-.639a2.991,2.991,0,0,0,0,5.983H90Z" transform="translate(-86.371 -138.875)" fill="#ffbd8e"/>
    </g>
    <g id="Grupo_181064" data-name="Grupo 181064" transform="translate(43.659 41.369)">
      <path id="Trazado_189979" data-name="Trazado 189979" d="M158.255,138.875h-.639v5.983h.639a2.991,2.991,0,0,0,0-5.983Z" transform="translate(-157.616 -138.875)" fill="#e18152"/>
    </g>
    <g id="Grupo_181065" data-name="Grupo 181065" transform="translate(25.757 32.163)">
      <path id="Trazado_189980" data-name="Trazado 189980" d="M107.335,132.828a9.01,9.01,0,0,1-8.952-9.068v-6.278a8.952,8.952,0,1,1,17.9,0v6.278A9.01,9.01,0,0,1,107.335,132.828Z" transform="translate(-98.383 -108.415)" fill="#ff9f70"/>
    </g>
    <g id="Grupo_181066" data-name="Grupo 181066" transform="translate(33.691 32.163)">
      <path id="Trazado_189981" data-name="Trazado 189981" d="M125.651,108.415a8.976,8.976,0,0,0-1.017.06,9.026,9.026,0,0,1,7.934,9.008v6.278a9.026,9.026,0,0,1-7.934,9.008,8.9,8.9,0,0,0,1.017.06,9.01,9.01,0,0,0,8.952-9.068v-6.278a9.01,9.01,0,0,0-8.952-9.068Z" transform="translate(-124.634 -108.415)" fill="#e18152"/>
    </g>
    <g id="Grupo_181067" data-name="Grupo 181067" transform="translate(25.757 32.163)">
      <path id="Trazado_189982" data-name="Trazado 189982" d="M107.335,108.415a8.967,8.967,0,0,1,1.017.06,9.026,9.026,0,0,0-7.934,9.008v6.278a9.026,9.026,0,0,0,7.934,9.008,8.9,8.9,0,0,1-1.017.06,9.01,9.01,0,0,1-8.952-9.068v-6.278A9.01,9.01,0,0,1,107.335,108.415Z" transform="translate(-98.383 -108.415)" fill="#ffbd8e"/>
    </g>
    <g id="Grupo_181068" data-name="Grupo 181068" transform="translate(25.152 31.558)">
      <path id="Trazado_189983" data-name="Trazado 189983" d="M105.939,132.037a9.626,9.626,0,0,1-9.556-9.672v-6.278a9.557,9.557,0,1,1,19.112,0v6.278A9.626,9.626,0,0,1,105.939,132.037Zm0-24.413a8.415,8.415,0,0,0-8.347,8.463v6.278a8.348,8.348,0,1,0,16.694,0v-6.278A8.415,8.415,0,0,0,105.939,107.624Z" transform="translate(-96.383 -106.415)" fill="#690589"/>
    </g>
    <g id="Grupo_181069" data-name="Grupo 181069" transform="translate(21.522 40.765)">
      <path id="Trazado_189984" data-name="Trazado 189984" d="M88.606,144.068h-.639a3.6,3.6,0,1,1,0-7.192h.639a.6.6,0,0,1,.6.6v5.983A.6.6,0,0,1,88.606,144.068Zm-.639-5.983a2.387,2.387,0,1,0,0,4.774H88v-4.774Z" transform="translate(-84.371 -136.876)" fill="#690589"/>
    </g>
    <g id="Grupo_181070" data-name="Grupo 181070" transform="translate(43.055 40.765)">
      <path id="Trazado_189985" data-name="Trazado 189985" d="M156.86,144.068h-.639a.6.6,0,0,1-.6-.6V137.48a.6.6,0,0,1,.6-.6h.639a3.6,3.6,0,1,1,0,7.192Zm-.034-1.209h.034a2.387,2.387,0,0,0,0-4.774h-.034Z" transform="translate(-155.617 -136.876)" fill="#690589"/>
    </g>
    <g id="Grupo_181071" data-name="Grupo 181071" transform="translate(22.119 0.604)">
      <path id="Trazado_189986" data-name="Trazado 189986" d="M100.992,24.435,98.936,28l-2.056-3.562H89.393a3.047,3.047,0,0,1-3.047-3.047V7.047A3.047,3.047,0,0,1,89.393,4h19.085a3.047,3.047,0,0,1,3.047,3.047V21.388a3.047,3.047,0,0,1-3.047,3.047h-7.486Z" transform="translate(-86.346 -4)" fill="#fcc24c"/>
    </g>
    <g id="Grupo_181073" data-name="Grupo 181073" transform="translate(42.118 0.604)">
      <g id="Grupo_181072" data-name="Grupo 181072" transform="translate(0 0)">
        <path id="Trazado_189987" data-name="Trazado 189987" d="M154.649,4h-2.133a3.047,3.047,0,0,1,3.047,3.047V21.388a3.047,3.047,0,0,1-3.047,3.047h2.133a3.047,3.047,0,0,0,3.047-3.047V7.047A3.047,3.047,0,0,0,154.649,4Z" transform="translate(-152.516 -4)" fill="#dea42e"/>
      </g>
    </g>
    <g id="Grupo_181075" data-name="Grupo 181075" transform="translate(22.119 0.604)">
      <g id="Grupo_181074" data-name="Grupo 181074" transform="translate(0 0)">
        <path id="Trazado_189988" data-name="Trazado 189988" d="M89.393,4h2.133a3.047,3.047,0,0,0-3.047,3.047V21.388a3.047,3.047,0,0,0,3.047,3.047H89.393a3.047,3.047,0,0,1-3.047-3.047V7.047A3.047,3.047,0,0,1,89.393,4Z" transform="translate(-86.346 -4)" fill="#fce06a"/>
      </g>
    </g>
    <g id="Grupo_181076" data-name="Grupo 181076" transform="translate(21.514 0)">
      <path id="Trazado_189989" data-name="Trazado 189989" d="M97.54,27.206a.6.6,0,0,1-.523-.3l-1.882-3.26H88a3.655,3.655,0,0,1-3.651-3.651V5.652A3.656,3.656,0,0,1,88,2h19.085a3.656,3.656,0,0,1,3.652,3.652V19.993a3.656,3.656,0,0,1-3.652,3.651H99.945L98.064,26.9A.6.6,0,0,1,97.54,27.206ZM88,3.209a2.445,2.445,0,0,0-2.442,2.443V19.993A2.445,2.445,0,0,0,88,22.435h7.486a.6.6,0,0,1,.523.3l1.533,2.655,1.533-2.655a.6.6,0,0,1,.523-.3h7.486a2.445,2.445,0,0,0,2.443-2.442V5.652a2.446,2.446,0,0,0-2.443-2.443Z" transform="translate(-84.346 -2)" fill="#690589"/>
    </g>
    <g id="Grupo_181077" data-name="Grupo 181077" transform="translate(31.202 6.333)">
      <path id="Trazado_189990" data-name="Trazado 189990" d="M123.276,24.1l-2.49,3.381,2.49,3.407a.711.711,0,0,1-.157,1,.735.735,0,0,1-.419.144.751.751,0,0,1-.59-.3l-2.2-3.027-2.214,3.027a.746.746,0,0,1-.577.3.677.677,0,0,1-.419-.144.714.714,0,0,1-.17-1l2.49-3.407-2.49-3.381a.712.712,0,0,1,.17-1,.68.68,0,0,1,1,.157l2.214,3.014,2.2-3.014a.7.7,0,0,1,1.009-.157A.71.71,0,0,1,123.276,24.1Z" transform="translate(-116.397 -22.954)" fill="#690589"/>
    </g>
    <g id="Grupo_181078" data-name="Grupo 181078" transform="translate(12.815 9.306)">
      <path id="Trazado_189991" data-name="Trazado 189991" d="M62.5,33.928l-2.686,3.682v3.538a.71.71,0,0,1-.721.721.727.727,0,0,1-.721-.721V37.61l-2.66-3.682a.689.689,0,0,1,.144-1,.7.7,0,0,1,1,.157l2.241,3.066,2.241-3.066a.718.718,0,0,1,1.166.838Z" transform="translate(-55.562 -32.791)" fill="#690589"/>
    </g>
    <g id="Grupo_181079" data-name="Grupo 181079" transform="translate(49.517 9.306)">
      <path id="Trazado_189992" data-name="Trazado 189992" d="M183.966,33.944l-4.822,6.564h4.219a.733.733,0,0,1,.734.734.721.721,0,0,1-.734.721h-5.647a.494.494,0,0,1-.131-.013.048.048,0,0,1-.039-.013c-.026,0-.052-.013-.092-.013-.013-.013-.026-.013-.039-.039a.221.221,0,0,1-.065-.026c-.026-.013-.039-.013-.053-.026v-.013c-.013,0-.026-.013-.039-.026a.282.282,0,0,1-.052-.066.177.177,0,0,1-.052-.039c-.013-.013-.026-.039-.039-.053-.013-.039-.026-.052-.026-.065s-.039-.039-.039-.066-.013-.052-.026-.079-.013-.026-.013-.052-.013-.066-.013-.092V41.23a.191.191,0,0,1,.013-.092v-.066c.013-.013.013-.039.026-.066a.553.553,0,0,0,.013-.066.071.071,0,0,0,.039-.052.279.279,0,0,0,.039-.066h.013l4.809-6.577h-4.232a.73.73,0,0,1-.721-.734.71.71,0,0,1,.721-.721h5.752c.013,0,.039.013.053.013.039,0,.052.013.079.013s.039.013.052.026c.039,0,.052.026.066.039s.039.026.066.039h.013c.026.013.026.026.039.039s.039.039.052.052.026.039.039.053a.1.1,0,0,1,.052.052.286.286,0,0,0,.039.066.1.1,0,0,0,.026.052.464.464,0,0,0,.013.079.073.073,0,0,1,.026.066.2.2,0,0,1,.013.079V33.6a.1.1,0,0,0-.013.052c0,.039-.026.052-.026.079a.59.59,0,0,0-.026.079c-.013.013-.013.026-.026.039a.273.273,0,0,1-.039.066Z" transform="translate(-176.996 -32.792)" fill="#690589"/>
    </g>
  </g>
</svg>
