<svg id="Grupo_982521" data-name="Grupo 982521" xmlns="http://www.w3.org/2000/svg" xmlns:xlink="http://www.w3.org/1999/xlink" width="1238.517" height="324.125" viewBox="0 0 1238.517 324.125">
  <defs>
    <clipPath id="clip-path">
      <rect id="Rectángulo_45714" data-name="Rectángulo 45714" width="1238.517" height="323.027" fill="#e5ebff" opacity="0.57"/>
    </clipPath>
    <clipPath id="clip-path-2">
      <rect id="Rectángulo_45764" data-name="Rectángulo 45764" width="1238.517" height="323.027" fill="#ffbfc1" opacity="0.57"/>
    </clipPath>
    <clipPath id="clip-path-3">
      <rect id="Rectángulo_45772" data-name="Rectángulo 45772" width="1238.517" height="323.027" fill="#e6ecff" opacity="0.57"/>
    </clipPath>
    <clipPath id="clip-path-4">
      <path id="Trazado_186631" data-name="Trazado 186631" d="M0,0H1238.517V324.124H0Z" fill="#e8e8e8" opacity="0.37"/>
    </clipPath>
    <clipPath id="clip-path-5">
      <rect id="Rectángulo_41289" data-name="Rectángulo 41289" width="405.975" height="259.245" fill="#6b8dfc"/>
    </clipPath>
  </defs>
  <g id="Grupo_982060" data-name="Grupo 982060" transform="translate(0)">
    <g id="Enmascarar_grupo_319" data-name="Enmascarar grupo 319" transform="translate(0 1.097)" opacity="0.57" clip-path="url(#clip-path)">
      <g id="Grupo_175720" data-name="Grupo 175720" transform="translate(717.943 0)">
        <g id="Grupo_175718" data-name="Grupo 175718" transform="translate(24.786 82.538)">
          <path id="Trazado_185972" data-name="Trazado 185972" d="M351.318,386.977s-33.369,15.461-36.788,69.381h18.78Z" transform="translate(-252.833 -277.265)" fill="#e5ebff"/>
          <g id="Grupo_175717" data-name="Grupo 175717" transform="translate(0 92.382)">
            <path id="Trazado_185973" data-name="Trazado 185973" d="M295.394,387.71c.385.728-15.745,14.037-40.677,10.557l-1.128-4.53s22.335,3.62,38.623-7.465Z" transform="translate(-248.726 -369.375)" fill="#e5ebff"/>
            <path id="Trazado_185974" data-name="Trazado 185974" d="M319.553,442.916l-16.991-73.569s-32.814,7.036-37.485-10.6l-5,2.359a27.361,27.361,0,0,0,22.138,13.7s-13.628,5.2-24.723-9.436l-5.95,4.184s9.147,11.447,30.27,7.694c0,0-21.139,2.933-30.768-4.679l-2.666,4.753s22.747,10.034,42.308,3.035l-6.755,63.905Z" transform="translate(-248.375 -358.746)" fill="#e5ebff"/>
          </g>
          <path id="Trazado_185975" data-name="Trazado 185975" d="M354.467,260.529l3.92,83.214,30.374-2.665L384.04,256.4Z" transform="translate(-255.524 -226.844)" fill="#e5ebff"/>
          <path id="Trazado_185976" data-name="Trazado 185976" d="M389.776,370.485l-35.055,2.925-25.872,76.509,92.219-.173S433.255,408.833,389.776,370.485Z" transform="translate(-253.798 -270.897)" fill="#e5ebff"/>
          <path id="Trazado_185977" data-name="Trazado 185977" d="M388.9,371.007l-16.049,79.185h52.753S431.516,379.61,388.9,371.007Z" transform="translate(-256.763 -271.098)" fill="#e5ebff"/>
          <path id="Trazado_185978" data-name="Trazado 185978" d="M350.729,389.675a39.916,39.916,0,0,0,36.682-19.7l-30.155-1.646Z" transform="translate(-255.272 -270.063)" fill="#e5ebff"/>
          <path id="Trazado_185979" data-name="Trazado 185979" d="M390.815,383.222l8.556,20.868h-9.653l-4.765,9.1,1.933-11.794h7.09Z" transform="translate(-257.578 -275.815)" fill="#e5ebff"/>
          <path id="Trazado_185980" data-name="Trazado 185980" d="M346.509,393.373l-11.094,16.508h6.314v4.993l2.786-7.251h-3.562Z" transform="translate(-254.24 -279.735)" fill="#e5ebff"/>
          <path id="Trazado_185981" data-name="Trazado 185981" d="M355.922,354.709l31.839-15.86V317.3l-30.053,22.047Z" transform="translate(-255.622 -250.36)" fill="#e5ebff"/>
          <path id="Trazado_185982" data-name="Trazado 185982" d="M377.912,233.424s30.665-4.885,35.461,19.842-28.5,33.874-28.5,33.874Z" transform="translate(-257.103 -217.822)" fill="#e5ebff"/>
          <path id="Trazado_185983" data-name="Trazado 185983" d="M315.928,241.326l-28,46.83,27.7-1.752.753,9.027s38.606,8.807,40.48-4.582c0,0-.018,15.794-40.477,16.259l.893,11.742s65.91,2.886,58.67-32.982-5.492-40.485-5.492-40.485l-54.526-4.058Z" transform="translate(-251.04 -221.024)" fill="#e5ebff"/>
          <path id="Trazado_185984" data-name="Trazado 185984" d="M333.518,276.887s-1.468,14.6-10.654,10.173c-3.355-1.616.457-11.94.457-11.94s.518,8.839,2.324,9.4C329,285.57,333.518,276.887,333.518,276.887Z" transform="translate(-253.301 -234.073)" fill="#e5ebff"/>
          <path id="Trazado_185985" data-name="Trazado 185985" d="M352.939,292.172c.474,2.444-2.152,4.678-5.863,4.991s-7.108-1.417-7.583-3.86,2.153-4.678,5.864-4.99S352.465,289.728,352.939,292.172Z" transform="translate(-254.511 -239.153)" fill="#e5ebff"/>
          <path id="Trazado_185986" data-name="Trazado 185986" d="M380.828,234.019l-85.761-6.861s.039-9.983,29.7-9.875l-15.477-5.573S368.519,195.295,380.828,234.019Z" transform="translate(-251.521 -208.254)" fill="#e5ebff"/>
          <path id="Trazado_185987" data-name="Trazado 185987" d="M385.276,261.3,381.7,240.942l-18.72-1.241S339.655,273.41,385.276,261.3Z" transform="translate(-255.696 -220.397)" fill="#e5ebff"/>
          <path id="Trazado_185988" data-name="Trazado 185988" d="M402.925,281.039c.63,3.254-2.866,6.226-7.807,6.642s-9.461-1.885-10.091-5.139,2.862-6.227,7.806-6.642S402.291,277.786,402.925,281.039Z" transform="translate(-257.578 -234.356)" fill="#e5ebff"/>
          <path id="Trazado_185989" data-name="Trazado 185989" d="M323.132,256.7l19.8.214s-1.956-5.044-19.534-5.053Z" transform="translate(-253.412 -225.091)" fill="#e5ebff"/>
          <path id="Trazado_185990" data-name="Trazado 185990" d="M287.781,416.524l22.885-1.1,12.583,51.919H285.722Z" transform="translate(-250.891 -288.249)" fill="#e5ebff"/>
          <path id="Trazado_185991" data-name="Trazado 185991" d="M282.729,409.972h29.748l2.976,5.644-29.934,1.219Z" transform="translate(-250.69 -286.144)" fill="#e5ebff"/>
          <path id="Trazado_185992" data-name="Trazado 185992" d="M401.257,377.149l68.406,37.1-10.919,38.316H425.822l12.768-31.848-30.615-13.463Z" transform="translate(-258.677 -273.47)" fill="#e5ebff"/>
          <path id="Trazado_185993" data-name="Trazado 185993" d="M438.836,438.318l-33.921-15.581,38.358,13.374-15.282,32.859-.225-4.424Z" transform="translate(-258.923 -291.073)" fill="#e5ebff"/>
          <path id="Trazado_185994" data-name="Trazado 185994" d="M384.952,237.469s24.025,6.536,23.938,21.779C408.89,259.248,417.01,236.9,384.952,237.469Z" transform="translate(-257.578 -219.531)" fill="#e5ebff"/>
          <path id="Trazado_185995" data-name="Trazado 185995" d="M300.442,231.138s7.279-4.257,24.078-3.418C324.52,227.72,313.042,220.449,300.442,231.138Z" transform="translate(-251.883 -214.838)" fill="#e5ebff"/>
          <path id="Trazado_185996" data-name="Trazado 185996" d="M303.805,274.355,287.93,300.91l27.7-1.752Z" transform="translate(-251.04 -233.778)" fill="#e5ebff" opacity="0.5"/>
          <path id="Trazado_185997" data-name="Trazado 185997" d="M399.317,282.994s-7.976-2.884-10.161,6.342C389.156,289.336,394.409,282.925,399.317,282.994Z" transform="translate(-257.861 -236.949)" fill="#e5ebff"/>
          <path id="Trazado_185998" data-name="Trazado 185998" d="M317.818,290.683s37.582,6.363,52.765-13.322-2.051-30.1-2.051-30.1l12.9-.318s29.846,77.08-63.609,79.7Z" transform="translate(-253.054 -223.192)" fill="#e5ebff"/>
          <path id="Trazado_185999" data-name="Trazado 185999" d="M314.12,323.3s29.425,3.014,39.964-4.748c0,0,2.91,22.015-38.754,19.188Z" transform="translate(-252.805 -250.843)" fill="#e5ebff"/>
          <path id="Trazado_186000" data-name="Trazado 186000" d="M321.483,350.532s40.4.475,57.28-21.838c0,0-5.434,25.6-57.28,27.815Z" transform="translate(-253.301 -254.76)" fill="#e5ebff"/>
        </g>
        <g id="Grupo_175719" data-name="Grupo 175719" transform="translate(0 0)">
          <path id="Trazado_186001" data-name="Trazado 186001" d="M300.769,74.468C248.947,76.8,221.8,91.81,221.8,113.2c0,12.662,8.488,23.832,26.765,30.883a27.027,27.027,0,0,0,7.206,13.864c18.13,18.793,34.937,20.633,34.937,20.633-11.558-8.486-15.825-18.4-16-28.256a208.546,208.546,0,0,0,26.067,1.611c91.529.347,120.7-10.152,120.7-36.331C421.473,88.359,399.976,70,300.769,74.468Z" transform="translate(-221.798 -73.798)" fill="#e5ebff"/>
        </g>
      </g>
      <rect id="Rectángulo_45713" data-name="Rectángulo 45713" width="1238.517" height="565.551" transform="translate(0 -0.027)" fill="#e5ebff"/>
      <g id="Grupo_175721" data-name="Grupo 175721" transform="translate(-14.885 -98.526)" opacity="0.254">
        <path id="Trazado_186003" data-name="Trazado 186003" d="M1011.781,2149.9c87.806-17.171,143.228-74.762,225.24-101.614,115.774-37.907,258.683-7.728,381.572-34.206,61.556-13.264,114.361-41.661,149.325-77.482H752.194v157.5a495.617,495.617,0,0,0,69.27,34.088C878.343,2150.573,948.251,2162.318,1011.781,2149.9Z" transform="translate(-752.194 -1936.593)" fill="#e5ebff" opacity="0.614"/>
        <path id="Trazado_186004" data-name="Trazado 186004" d="M16.253,0h1123.94c8.976,0,16.253,6.453,16.253,14.413V553.252c0,7.961-7.277,14.413-16.253,14.413H16.253C7.277,567.666,0,561.213,0,553.252V14.413C0,6.453,7.277,0,16.253,0Z" transform="translate(16.189 5.443)" fill="none"/>
      </g>
    </g>
    <g id="Enmascarar_grupo_327" data-name="Enmascarar grupo 327" transform="translate(0 1.097)" clip-path="url(#clip-path-2)">
      <g id="Grupo_176633" data-name="Grupo 176633" transform="translate(-667.907 62.341) rotate(30)" opacity="0.254">
        <path id="Trazado_186092" data-name="Trazado 186092" d="M686.495-102.94C602.971-69.434,537.891,1.33,457.019,44.1,342.855,104.48,222.287,97.327,104.745,146.816,45.868,171.606-9.14,210.934-50.063,255.034L863.592,78.244,905.24-88.9a237.757,237.757,0,0,0-53.295-24.119C806.7-126.884,746.925-127.181,686.495-102.94Z" transform="translate(0 0)" fill="#dddeff" opacity="0.614"/>
      </g>
    </g>
    <g id="Enmascarar_grupo_334" data-name="Enmascarar grupo 334" transform="translate(0 1.097)" clip-path="url(#clip-path-3)">
      <g id="Grupo_173646" data-name="Grupo 173646" transform="translate(-42.574 -86.318)">
        <path id="Trazado_178337" data-name="Trazado 178337" d="M40.3,0H1277.033c22.257,0,40.3,10.791,40.3,24.1V353.991c0,13.311-18.044,24.1-40.3,24.1H40.3c-22.258,0-40.3-10.791-40.3-24.1V24.1C0,10.791,18.043,0,40.3,0Z" transform="translate(64.102 50.498)" fill="#e1e8ff"/>
        <path id="Trazado_178348" data-name="Trazado 178348" d="M1380.9,23.45C1303.819,8.283,1220.842,0,1134.358,0,728.105,0,398.77,182.2,398.77,406.952a234.357,234.357,0,0,0,13.358,77.433H1380.9Z" transform="translate(14.681)" fill="#f7f9ff"/>
        <path id="Trazado_178349" data-name="Trazado 178349" d="M507.537,23.783c-59.506,80.352-194,136.407-350.4,136.407A623.1,623.1,0,0,1,41.579,149.572V23.783Z" transform="translate(-41.579 -6.22)" fill="#f0f4ff"/>
        <line id="Línea_1427" data-name="Línea 1427" y2="2.258" transform="translate(210.748 459.658)" fill="#1d2b5e"/>
      </g>
    </g>
    <g id="Grupo_177466" data-name="Grupo 177466" opacity="0.48" clip-path="url(#clip-path-4)">
      <g id="Grupo_177463" data-name="Grupo 177463" transform="translate(906.583 -260.315)">
        <g id="Grupo_177462" data-name="Grupo 177462" transform="translate(0 0)">
          <path id="Trazado_186627" data-name="Trazado 186627" d="M267.734,111.5c-12.466,45.56-49.526,95.592-87.182,107.875-43.487,15.16-75.9-4.118-118.225,6.578-21.089,3.277-43.72,18.974-65.548,27.813C-51.3,268.324-42.62,199.725-23.479,151.99,62.346-71.9,320.574-111.52,267.734,111.5Z" transform="matrix(0.602, 0.799, -0.799, 0.602, 255.478, 0)" fill="#e4e8f9"/>
          <path id="Trazado_186628" data-name="Trazado 186628" d="M-8.642,163.958c-1.1,39.563,13.011,75.789,35.194,75.861,25.421,1.011,50.591-27.373,76.157-30.256,13.157-3.393,24.8,4.574,37.306,6.253,28.553-.983,36.824-63.671,33.991-103.244C163.311-74.263,2.107-32.237-8.642,163.958Z" transform="translate(42.579 366.546) rotate(-99)" fill="#afb8ee" opacity="0.21" style="mix-blend-mode: multiply;isolation: isolate"/>
        </g>
      </g>
      <g id="Grupo_177465" data-name="Grupo 177465" transform="translate(-145.473 225.627)">
        <g id="Grupo_177464" data-name="Grupo 177464" transform="translate(0 0)">
          <path id="Trazado_186629" data-name="Trazado 186629" d="M193.211,80.467c-9,32.878-35.741,68.984-62.915,77.849-31.383,10.94-54.776-2.971-85.318,4.747-15.219,2.365-31.551,13.693-47.3,20.071-34.7,10.5-28.432-39-14.619-73.45C44.992-51.89,231.344-80.479,193.211,80.467Z" transform="matrix(-0.602, -0.799, 0.799, -0.602, 166.317, 264.519)" fill="#b9c3f1" opacity="0.4"/>
          <path id="Trazado_186630" data-name="Trazado 186630" d="M-6.236,118.321c-.794,28.551,9.39,54.694,25.4,54.745,18.345.729,36.509-19.754,54.959-21.834,9.495-2.449,17.895,3.3,26.922,4.512,20.605-.71,26.574-45.948,24.53-74.507C117.854-53.592,1.52-23.264-6.236,118.321Z" transform="translate(319.957 0) rotate(81)" fill="#dce2fd" opacity="0.32" style="mix-blend-mode: multiply;isolation: isolate"/>
        </g>
      </g>
    </g>
  </g>
  <g id="Grupo_982061" data-name="Grupo 982061" transform="translate(832.542 64.88)" opacity="0.12">
    <g id="Enmascarar_grupo_167" data-name="Enmascarar grupo 167" transform="translate(0 0)" clip-path="url(#clip-path-5)">
      <g id="Grupo_166176" data-name="Grupo 166176" transform="translate(67.709 41.107)">
        <path id="Unión_28" data-name="Unión 28" d="M175.19,371.966c-30.358-1.779-55.316-26.1-75.372-45.645-3.371-3.287-6.641-6.475-9.824-9.455C64.161,292.713,38.376,267.7,13.44,243.51l-3-2.9C1.27,231.712-2.01,220.473,1.2,208.968c3.5-12.544,14.5-23.151,27.368-26.407,11.719-2.958,23.143.328,32.135,9.277v-.005c18.188,18.085,38.008,36.895,60.164,57.088l-2.636-5.589c-7.446-15.8-15.144-32.131-22.145-48.5-7.031-16.438-13.635-34.028-16.818-51.271-3.515-19.042-2.952-37.689,5.544-54.222C94.706,70.076,109.25,58.994,128.039,56.4c40.9-5.625,91.885,31.5,119.452,57.677-7.446-21.116-12.583-43.25-10.447-66.375,1.82-19.718,11.209-34.761,26.434-42.363,17.291-8.635,39.984-6.71,60.717,5.15,37.359,21.372,67.233,57.469,93.952,93.289,12.057,16.165,5.3,31.985-6.732,40.495-14.554,10.29-37.391,10.55-50.431-6.814q-2.48-3.311-5.057-6.574c7.414,13.592,14.4,27.247,20.636,41.236l2.405,5.385c21.194,47.351,50.216,112.2,23.337,162.6-14.956,28.055-49.4,31.234-75.689,19.885-29.494-12.742-51.037-39.222-70.047-62.587-2.459-3.021-4.891-6.011-7.312-8.938-16.577-20.047-31.9-41.309-46.726-61.867-5.277-7.326-10.56-14.652-15.912-21.946l-1.525-2.082q-2.3-3.147-4.654-6.334c2.561,5.958,5.143,11.719,7.6,17.2,2.588,5.781,5.325,11.625,8.09,17.527,11.542,24.638,23.481,50.122,27.491,76.727,3.076,20.407-1.745,39.639-12.9,51.447-8.026,8.495-19.058,12.93-32.055,12.93C177.519,372.07,176.36,372.039,175.19,371.966Z" transform="translate(0 12.372)" fill="#5355a7" stroke="rgba(0,0,0,0)" stroke-miterlimit="10" stroke-width="1" opacity="0.412"/>
        <path id="Trazado_115699" data-name="Trazado 115699" d="M183.054,373.722c25.865,25.724,52.594,50.5,79.839,74.838-11.778-25.875-24.48-51.348-35.662-77.494-12.675-29.647-27.406-70.059-11.429-101.157,36.419-70.883,128.482-1.336,162.362,34.349,3.613,3.8,7.054,7.769,10.544,11.7-12.1-28.813-23-58.418-20.126-89.547,3.956-42.8,44.327-53.07,79.082-33.185,37.327,21.356,67.3,58.3,92.331,91.859,21.259,28.5-27.39,55.632-48.482,27.54a374.1,374.1,0,0,0-37.89-43.088q3.02,5.377,6.1,10.738c13.6,23.61,27.03,47.315,38.11,72.162,21.221,47.586,52.594,113.455,25.9,163.509-13.453,25.223-44.993,27.785-68.748,17.521-31.926-13.8-54.038-44.252-75.356-70.028-22.252-26.913-41.847-55.491-62.445-83.573-8.611-11.735-17.211-23.636-27.062-34.432-.225-.245-.467-.475-.692-.725l.247.762c5.47,16.53,12.508,32.392,19.627,48.3,13.254,29.585,30.342,60.729,35.2,92.928,4.295,28.468-7.57,60.375-42.8,58.309-33.112-1.941-59.654-32.945-81.793-53.649-26.815-25.077-53.147-50.654-79.485-76.2a30.556,30.556,0,0,1-6.393-8.723C121.61,380.607,158.688,349.492,183.054,373.722Z" transform="translate(-113.461 -178.242)" fill="#8284d2"/>
        <path id="Trazado_115700" data-name="Trazado 115700" d="M309.275,554.535c13,0,24.024-4.43,32.049-12.924,11.156-11.808,15.976-31.04,12.9-51.452-4-26.6-15.944-52.084-27.492-76.727-2.759-5.9-5.5-11.74-8.09-17.521-2.453-5.484-5.035-11.244-7.6-17.2,1.568,2.118,3.119,4.237,4.655,6.334l1.525,2.077c5.352,7.295,10.635,14.626,15.917,21.946,14.817,20.563,30.144,41.826,46.721,61.867q3.632,4.4,7.312,8.943c19.009,23.36,40.553,49.84,70.047,62.587,26.3,11.349,60.733,8.166,75.689-19.89,26.88-50.393-2.142-115.245-23.331-162.6l-2.41-5.38c-6.233-13.989-13.222-27.644-20.631-41.236q2.569,3.264,5.057,6.569c13.034,17.37,35.871,17.109,50.425,6.82,12.036-8.51,18.789-24.33,6.732-40.5-26.719-35.82-56.594-71.916-93.947-93.294-20.738-11.855-43.425-13.78-60.722-5.145-15.225,7.6-24.609,22.64-26.434,42.358-2.137,23.125,3,45.264,10.452,66.375-27.572-26.172-78.55-63.3-119.452-57.672-18.789,2.593-33.338,13.676-43.232,32.934-16.272,31.672-3.43,71.1,11.274,105.493,7,16.368,14.7,32.7,22.145,48.5l2.636,5.588c-22.155-20.188-41.975-39-60.164-57.082h0c-8.992-8.949-20.416-12.23-32.135-9.272-12.868,3.256-23.868,13.864-27.363,26.407-3.216,11.505.064,22.739,9.239,31.635l3,2.906c24.936,24.189,50.721,49.2,76.553,73.357,3.183,2.979,6.453,6.167,9.83,9.454,20.051,19.541,45.009,43.866,75.367,45.645C306.971,554.5,308.126,554.535,309.275,554.535Zm-15.4-210.594a5.172,5.172,0,0,0-2.6.678,5.014,5.014,0,0,0-2.539,5.922l.252.762c5.733,17.328,13.211,34.036,19.809,48.771,2.615,5.834,5.379,11.729,8.166,17.683,11.236,23.981,22.853,48.776,26.643,73.915,2.572,17.073-1.331,33.5-10.189,42.88-6.56,6.945-15.627,10.1-26.971,9.47-26.284-1.544-48.67-23.355-68.415-42.6-3.425-3.34-6.753-6.58-9.985-9.6-25.763-24.09-51.515-49.068-76.419-73.226l-2.99-2.906c-8.111-7.863-7.994-16.04-6.464-21.518,2.486-8.9,10.587-16.733,19.707-19.035,5.551-1.409,13.824-1.419,21.747,6.465h0c23.5,23.36,49.679,47.9,80.048,75.037a5.482,5.482,0,0,0,6.759.4,5.12,5.12,0,0,0,1.782-6.35c-4.45-9.783-9.035-19.5-13.614-29.23-7.408-15.711-15.064-31.959-21.994-48.16-13.775-32.214-25.929-68.911-11.585-96.826,8.342-16.232,19.836-25.15,35.136-27.263,38.132-5.244,91.762,34.683,118.48,62.822,2.845,3,5.589,6.11,8.337,9.215l2.083,2.358a5.457,5.457,0,0,0,6.866,1.038,5.146,5.146,0,0,0,2.169-6.423c-11.531-27.44-22.552-56.78-19.75-87.111,1.5-16.259,8.643-28.019,20.647-34.015,14.006-6.987,32.828-5.166,50.366,4.863,35.662,20.4,64.668,55.517,90.7,90.424,8.23,11.03,3.146,20.626-4.354,25.927-10.157,7.18-26.026,8.025-35.442-4.524a380.007,380.007,0,0,0-38.427-43.693,5.474,5.474,0,0,0-7.011-.5,5.12,5.12,0,0,0-1.5,6.679q3.036,5.408,6.131,10.785c13.77,23.908,27.024,47.383,37.869,71.692l2.41,5.4c20.33,45.431,48.171,107.653,23.648,153.632-11.912,22.342-40.107,24.523-61.8,15.158C434.509,521.23,414.726,496.91,395.6,473.4q-3.712-4.563-7.365-9.006c-16.357-19.775-31.577-40.892-46.3-61.314-5.293-7.347-10.592-14.7-15.96-22.019l-1.525-2.072c-8.079-11.025-16.433-22.426-25.892-32.788l-.483-.506A5.936,5.936,0,0,0,293.873,343.941Zm-106.4,34.009h0Z" transform="translate(-117.878 -182.469)" fill="#3c3fa7"/>
        <path id="Trazado_115701" data-name="Trazado 115701" d="M146.175,223.049c19.783,38.632,30.938,83.917,13.566,125.446-2.572,6.136-12.959,3.454-10.356-2.776,16.315-38.992,6.125-81.069-12.482-117.405C133.838,222.318,143.094,217.028,146.175,223.049Z" transform="translate(238.366 -22.512)" fill="#3c3fa7"/>
        <path id="Trazado_115702" data-name="Trazado 115702" d="M144.267,264.851c.091-.01.177-.036.263-.052.15-.287.29-.59.338-.673l.021-.031c.011-.042-.005-.016.011-.078.693-2.327,1.192-4.691,1.713-7.06q1.828-8.257,3.645-16.514a5.43,5.43,0,0,1,6.609-3.642,5.321,5.321,0,0,1,3.747,6.418l-4.123,18.674c-1.149,5.186-2.979,11.985-9.368,13.023-2.759.444-5.916-.7-6.6-3.647C139.93,268.749,141.309,265.331,144.267,264.851Z" transform="translate(223.97 45.817)" fill="#3c3fa7"/>
        <path id="Trazado_115703" data-name="Trazado 115703" d="M201.33,199.888c6.093-3.162,11.526,5.844,5.417,9.011-8.428,4.373-10.994,13.274-11.333,22.014a146.814,146.814,0,0,0,2.421,29.919,194.615,194.615,0,0,0,18.634,56.049c3.071,6-6.19,11.286-9.271,5.265a204.774,204.774,0,0,1-20.84-66.01C183.829,237.325,180.8,210.532,201.33,199.888Z" transform="translate(-69.447 -111.8)" fill="#3c3fa7"/>
      </g>
    </g>
  </g>
</svg>
