<svg id="Grupo_161959" data-name="Grupo 161959" xmlns="http://www.w3.org/2000/svg" width="75.99" height="118.923" viewBox="0 0 75.99 118.923">
  <path id="Trazado_117337" data-name="Trazado 117337" d="M1400.157,1068.177c-1.409,0-2.771-1.7-4.5-3.862l-.507-.632a.488.488,0,0,1-.081-.152.44.44,0,0,1-.007-.411c4.947-10.139,10.467-20.344,15.253-29.113a.875.875,0,0,0-.768-1.294.812.812,0,0,0-.132.011c-1.6.245-3.149.446-4.615.6h0c-.387,0-1.034-.934-1.344-1.383-.158-.228-.3-.436-.434-.6-1.13-1.4-2.121-2.694-3.027-3.956-.086-.12-.065-.152-.043-.187a.781.781,0,0,0,.084-.171,1.031,1.031,0,0,0,.153-.195c4.533-8.037,9.541-15.885,14.276-23.167a.874.874,0,0,0-.733-1.352.814.814,0,0,0-.131.011l-2.77.418c-.218.033-.474.089-.745.151a6.741,6.741,0,0,1-1.314.21.976.976,0,0,1-.265-.028c-.472-.128-1.165-1.127-1.579-1.724-.19-.275-.366-.527-.522-.72l-.172-.216c-.839-1.046-1.705-2.128-2.455-3.241-.1-.147-.062-.2-.018-.251,6.8-11.611,12.743-23.851,18.493-35.688q2.249-4.625,4.5-9.228a.409.409,0,0,1,.286-.123c12.42-.066,25.038-.477,37.242-.873l.169-.005a.213.213,0,0,1,.223.111,1.242,1.242,0,0,0,.141.183,62.6,62.6,0,0,0,4.306,5.461.4.4,0,0,1-.014.6c-5.732,6.829-11.13,14.139-16.35,21.209q-1.914,2.594-3.832,5.178a.874.874,0,0,0,.7,1.4.849.849,0,0,0,.089,0l7.7-.792a.9.9,0,0,0,.193-.042.541.541,0,0,0,.1.016c.054.063.192.177.224.216,1.652,1.946,3.125,3.819,4.5,5.726a.491.491,0,0,1-.147.412c-6.951,8.1-14.2,16.182-21.216,24l-.16.178a.875.875,0,0,0,.651,1.46c.028,0,7.948-.762,7.948-.762a.712.712,0,0,0,.131-.022.66.66,0,0,0,.113.025c.043.031.1.072.109.078l.029.027a72.235,72.235,0,0,1,4.568,5.813.418.418,0,0,1-.067.335c-8.352,7.51-17,14.989-25.355,22.221q-4.9,4.237-9.784,8.482l-16.5,14.349a4.293,4.293,0,0,1-2.605,1.318Z" transform="translate(-1394.139 -950.13)" fill="#fff"/>
  <path id="Trazado_117338" data-name="Trazado 117338" d="M1466.6,954.749a1.268,1.268,0,0,0,0-1.745,62.663,62.663,0,0,1-4.291-5.441c-.018-.026-.04-.044-.058-.067a1.076,1.076,0,0,0-1.007-.543c-12.456.4-24.921.811-37.385.878a1.221,1.221,0,0,0-1.065.611c-7.379,14.994-14.461,30.326-22.9,44.761a1.033,1.033,0,0,0-.021,1.282c.822,1.219,1.752,2.368,2.67,3.515.606.757,1.528,2.461,2.55,2.741a7.619,7.619,0,0,0,2.69-.312q1.384-.211,2.769-.418c-4.958,7.625-9.846,15.309-14.3,23.215a.92.92,0,0,0-.213.326.991.991,0,0,0,.071,1.166c.98,1.363,2,2.688,3.057,3.994.57.7,1.442,2.415,2.548,2.3,1.554-.161,3.109-.367,4.657-.6-5.256,9.631-10.465,19.3-15.272,29.149a1.255,1.255,0,0,0-.036,1.071,1.343,1.343,0,0,0,.228.424c3.182,3.95,4.982,6.673,8.867,3.287q8.243-7.181,16.494-14.35c11.735-10.21,23.583-20.31,35.15-30.711a1.221,1.221,0,0,0,.193-1.5,71.191,71.191,0,0,0-4.579-5.822c-.025-.036-.054-.066-.082-.1l-.016-.018c0-.005-.008-.005-.013-.01a1.594,1.594,0,0,0-.48-.318h-.009a.98.98,0,0,0-.566-.013q-3.931.376-7.864.757c7.189-8.01,14.379-16.02,21.388-24.188a1.24,1.24,0,0,0,.193-1.494c-1.439-1.991-2.955-3.908-4.545-5.779a.977.977,0,0,0-.5-.445.952.952,0,0,0-.1-.049l-.013,0a.966.966,0,0,0-.657,0q-3.85.4-7.7.792C1453.036,972.237,1459.5,963.2,1466.6,954.749Zm-27.709,24.74c.148.273.329.534.489.782.3.472.605.951.927,1.414-1.088.1-2.176.2-3.265.3Q1437.964,980.737,1438.886,979.489Zm2.479,2.1c-.419-.675-.936-1.3-1.407-1.943a6.161,6.161,0,0,0-.624-.763q.738-1,1.476-2.011c.355.661.825,1.3,1.165,1.908a18.113,18.113,0,0,0,1.242,2.562c-.022.027-.043.055-.063.083C1442.558,981.48,1441.961,981.529,1441.365,981.587Zm14.118-24.338c.3.83.746,1.652,1.029,2.385.325.846.47,2.023.886,2.923-.46.6-.917,1.209-1.377,1.812-.25-.53-.573-1.036-.749-1.383a22.165,22.165,0,0,0-1.509-3.511C1454.336,958.732,1454.906,957.987,1455.483,957.248Zm-2.436,3.157a22.087,22.087,0,0,0,1.076,2.576c.3.71.669,1.385.963,2.1.052.126.089.245.124.357q-.755.993-1.51,1.987c-.179-.493-.412-.974-.6-1.413a23.668,23.668,0,0,0-1.672-3.48C1451.962,961.819,1452.507,961.113,1453.048,960.406Zm-2.3,3.027c.208.631.537,1.248.788,1.817.37.84.787,1.646,1.1,2.513a7.112,7.112,0,0,1,.212.787c-.521.688-1.046,1.372-1.565,2.06a16.108,16.108,0,0,0-.843-1.772c-.447-.918-.9-2.059-1.471-3.034Q1449.853,964.615,1450.746,963.433Zm-2.513,3.355c.247.611.571,1.2.826,1.733a21.439,21.439,0,0,1,1.057,2.5c.112.331.162.578.253.8q-.9,1.193-1.794,2.389c-.415-.941-.834-1.88-1.3-2.8a21.182,21.182,0,0,0-1.044-1.91Q1447.231,968.141,1448.234,966.788Zm-2.634,3.562c.381.834.828,1.654,1.188,2.436a10.147,10.147,0,0,0,1.054,2.394q-.866,1.152-1.73,2.305a13.858,13.858,0,0,0-1.378-2.859,12.169,12.169,0,0,0-1.062-1.652Q1444.633,971.662,1445.6,970.35Zm-2.543,3.462c.27.455.57.9.8,1.324.592,1.081.958,2.255,1.5,3.35l-1.446,1.926a14.945,14.945,0,0,0-.95-1.741,11.245,11.245,0,0,0-1.629-2.514Q1442.194,974.984,1443.056,973.812Zm15.319-12.54c-.263-.87-.705-1.749-.965-2.405a12.112,12.112,0,0,0-1.194-2.542q.975-1.238,1.957-2.467c.218.67.545,1.326.809,1.928a22.476,22.476,0,0,1,.887,2.353c.1.318.142.614.219.895l-1.387,1.81C1458.591,960.985,1458.483,961.129,1458.375,961.272Zm2.094-10.221a17.6,17.6,0,0,0,.734,2.6,10.609,10.609,0,0,0,1.03,2.623c-.413.527-.831,1.05-1.24,1.581-.192-.594-.48-1.177-.674-1.644a18.01,18.01,0,0,0-1.5-3.155C1459.363,952.38,1459.919,951.718,1460.469,951.051Zm3.715,2.824a.5.5,0,0,0-.167.138c-.416.51-.817,1.033-1.226,1.55-.189-.737-.573-1.481-.8-2.132-.35-.978-.628-1.993-1.054-2.942.084-.1.166-.2.249-.3.674.909,1.36,1.807,2.074,2.691A6.891,6.891,0,0,0,1464.184,953.876Zm-41.222-.224q.971-1.958,1.935-3.919c-.125.255,12.342.356,13.833.321q9.921-.227,19.838-.558c-8.845,10.733-16.9,22.206-25.214,33.341a1.239,1.239,0,0,0,1.065,1.857c5.683-.461,11.356-1.055,17.027-1.644-9.065,10.489-18.364,20.781-27.651,31.071-.638.705-.286,2.254.872,2.106,6.031-.768,12.09-1.352,18.144-1.928-15.42,13.8-31.123,27.3-46.752,40.87,4.38-8.662,8.993-17.214,13.649-25.734l0-.006q2-3.656,3.993-7.311a1.247,1.247,0,0,0-1.393-1.812c-4.266.659-8.519,1.387-12.769,2.13,5.937-10.309,12.548-20.268,19.038-30.228a1.24,1.24,0,0,0-1.065-1.857c-4.764.5-9.51,1.159-14.242,1.9C1410.422,979.73,1416.571,966.559,1422.962,953.651Zm30.488,32.77c.468,1.183.89,2.409,1.381,3.581-.439.5-.881,1-1.32,1.508a14.041,14.041,0,0,0-2.083-4.685q.774-.891,1.547-1.783A10.591,10.591,0,0,0,1453.451,986.421Zm-3.51,6.43a21,21,0,0,0-1.209-2.922c.752-.859,1.5-1.725,2.245-2.585.357,1.748,1.41,3.361,1.662,5.16-.647.738-1.291,1.477-1.94,2.212C1450.493,994.053,1450.165,993.4,1449.941,992.851Zm-3.522,2.581a10.74,10.74,0,0,0,.938,3.052c-.462.521-.928,1.039-1.391,1.559a16.584,16.584,0,0,0-.707-1.966,30.684,30.684,0,0,0-1.244-2.806q.967-1.092,1.934-2.183A15.552,15.552,0,0,0,1446.419,995.432Zm-5.833,10.644c-.34-.88-.7-1.752-1.007-2.646-.251-.727-.422-1.588-.752-2.327q.888-.99,1.776-1.981a17.666,17.666,0,0,0,.73,2.215,8.5,8.5,0,0,0,1.176,2.583Q1441.547,1005,1440.585,1006.076Zm-10.727,5c.149.4.351.786.471,1.107a6.243,6.243,0,0,0,.345.867c-.968.106-1.934.224-2.9.338Zm.6-.665q1.207-1.339,2.415-2.678c.231.9.724,1.845.97,2.617.217.684.355,1.542.618,2.3q-1.446.148-2.89.3A6.952,6.952,0,0,0,1430.459,1010.413Zm4.274-.781a7.878,7.878,0,0,0-1.217-2.61q.994-1.106,1.986-2.214a15.235,15.235,0,0,0,.613,1.586c.439,1.076.805,2.211,1.254,3.288-.639.712-1.271,1.429-1.91,2.141C1435.267,1011.04,1434.942,1010.25,1434.733,1009.631Zm2.776-2.794a29.267,29.267,0,0,0-1.175-2.957q.842-.938,1.682-1.876c.129.6.345,1.192.512,1.714a23.592,23.592,0,0,0,1.265,3.245c-.527.589-1.05,1.181-1.577,1.769A15.1,15.1,0,0,0,1437.51,1006.837Zm4.815-5.425c-.408-.94-.742-1.943-1.217-2.86.722-.809,1.437-1.623,2.156-2.433.148.474.346.939.524,1.387a20.062,20.062,0,0,1,1.225,3.606q-.988,1.112-1.981,2.221A8.4,8.4,0,0,0,1442.324,1001.413Zm2.075,21.106c-.6-1.568-1.225-3.129-1.86-4.681.754-.674,1.515-1.342,2.268-2.017a14.6,14.6,0,0,0,.678,2.555,25.128,25.128,0,0,0,.753,2.53Q1445.32,1021.713,1444.4,1022.518Zm-5.564,4.87a28.206,28.206,0,0,1-1.187-2.693c-.207-.6-.394-1.289-.666-1.916.7-.623,1.4-1.25,2.1-1.872.275.861.666,1.733.94,2.506a12.143,12.143,0,0,0,.869,2.177Q1439.866,1026.491,1438.835,1027.389Zm-2.722,2.372a24.72,24.72,0,0,1-1.334-2.77c-.211-.536-.383-1.14-.627-1.7.7-.617,1.391-1.242,2.091-1.859.148.665.376,1.326.571,1.918a10.872,10.872,0,0,0,1.2,2.747Q1437.065,1028.933,1436.113,1029.761Zm-2.819,2.458c-.346-.928-.687-1.858-1.066-2.773a11.071,11.071,0,0,0-.827-1.744c.693-.608,1.389-1.21,2.081-1.817.167.712.429,1.424.633,2.059a8.013,8.013,0,0,0,1.231,2.485Zm-5.4,4.705c-.276-.64-.6-1.267-.874-1.9a15.78,15.78,0,0,0-1.194-2.452l1.868-1.634c.17.551.416,1.09.59,1.547a13.229,13.229,0,0,0,1.318,2.948Zm-27.517,23.954a20.948,20.948,0,0,0-.955-2.118c-.378-.739-.655-1.592-1.058-2.338q1.068-.927,2.137-1.853a16.564,16.564,0,0,0,.794,1.745c.391.808.7,1.881,1.2,2.718Q1401.442,1059.954,1400.382,1060.879Zm-3.1.154a11.51,11.51,0,0,0-1.331-2.515l1.735-1.506a10.834,10.834,0,0,0,.559,1.435c.456,1.034.978,2.036,1.376,3.091l-1.5,1.3C1397.9,1062.191,1397.515,1061.541,1397.284,1061.032Zm5.231-4.428a29.069,29.069,0,0,0-1.32-2.634q1.084-.94,2.169-1.881a17.514,17.514,0,0,0,.875,2.02,25.6,25.6,0,0,0,1.08,2.471l-1.941,1.689C1403.139,1057.684,1402.781,1057.117,1402.516,1056.6Zm2.783-2.594a17.884,17.884,0,0,0-1.22-2.54q1-.864,1.991-1.726a19.367,19.367,0,0,0,.763,1.948,24.072,24.072,0,0,0,1.1,2.618l-1.737,1.511C1405.928,1055.2,1405.582,1054.6,1405.3,1054.01Zm2.612-1.888c-.432-.926-.807-1.932-1.311-2.84q1.057-.914,2.112-1.83a16.783,16.783,0,0,0,.79,1.745c.356.76.7,1.523.98,2.314.062.171.1.321.136.46l-1.966,1.71C1408.438,1053.148,1408.149,1052.632,1407.91,1052.122Zm2.955-2.187a25.085,25.085,0,0,0-1.432-3.108l2.081-1.8a165.346,165.346,0,0,0,2.114,4.329q-1.079.939-2.157,1.876C1411.3,1050.763,1411.029,1050.3,1410.865,1049.935Zm2.4-3.028c-.4-.736-.746-1.609-1.2-2.361q1.085-.94,2.17-1.881c.18.448.4.884.593,1.29a19.323,19.323,0,0,0,1.459,3.084l-2.06,1.791A9.058,9.058,0,0,0,1413.265,1046.907Zm2.637-2.505c-.375-.714-.665-1.535-1.014-2.3l1.854-1.607a12.755,12.755,0,0,0,.608,1.531,23.581,23.581,0,0,0,1.314,2.948l-1.718,1.5A13.045,13.045,0,0,0,1415.9,1044.4Zm2.564-2c-.379-.792-.68-1.668-1.085-2.468l1.892-1.64c.137.432.333.854.508,1.267.451,1.059.847,2.2,1.378,3.234l-1.752,1.524C1419.152,1043.658,1418.756,1043.01,1418.466,1042.406Zm2.466-2.48c-.311-.691-.594-1.5-.993-2.206.692-.6,1.378-1.205,2.07-1.806.222.756.606,1.5.882,2.186.319.8.568,1.63.859,2.443l-1.878,1.639A17.3,17.3,0,0,0,1420.932,1039.926Zm2.935-2.1a13.224,13.224,0,0,0-1.122-2.559q1.3-1.136,2.6-2.275a17.031,17.031,0,0,0,.689,1.977,28.175,28.175,0,0,0,1.078,2.635q-1.267,1.1-2.533,2.208C1424.372,1039.144,1424.116,1038.482,1423.867,1037.829Zm5.281-5.579c-.23-.578-.415-1.316-.7-1.969.741-.649,1.486-1.3,2.226-1.946.195.636.5,1.267.724,1.833.363.927.7,1.866,1.026,2.806l-2.094,1.827C1430.014,1033.931,1429.471,1033.06,1429.148,1032.251Zm12.347-7.657c-.352-.71-.6-1.47-.881-2.209a12.794,12.794,0,0,0-.888-2.046q1.032-.915,2.061-1.831a40.687,40.687,0,0,0,1.829,4.7c-.65.569-1.3,1.14-1.947,1.709C1441.61,1024.809,1441.551,1024.7,1441.495,1024.593Zm-32.552,1.094a14.559,14.559,0,0,0-.734-1.527c-.1-.194-.2-.423-.311-.65q1.225-.2,2.452-.4Zm-5.316.858a17.715,17.715,0,0,0-1.352-2.088c.606-.1,1.211-.212,1.817-.315a10.838,10.838,0,0,0,.975,2.047,14.22,14.22,0,0,0,.912,1.8c-.472.072-.946.144-1.42.206A9.772,9.772,0,0,0,1403.627,1026.545Zm9.284-31.445c-.127-.535-.222-1.129-.366-1.7.835-.106,1.673-.2,2.51-.3q-.943,1.446-1.888,2.892C1413.081,995.673,1412.974,995.363,1412.911,995.1Zm-9.825-.336c.844-.134,1.687-.268,2.533-.4a16.952,16.952,0,0,0,.655,2.233c.153.458.235,1.011.374,1.525l-.74.112C1404.932,997.12,1403.976,995.962,1403.086,994.764Zm4.546,3.213a12.293,12.293,0,0,0-.428-1.239,17.01,17.01,0,0,0-1.095-2.442q1.192-.18,2.389-.349c.114.754.265,1.5.424,2.251a10.343,10.343,0,0,0,.346,1.53Zm2.749-.417c-.112-.559-.414-1.162-.53-1.617a10.425,10.425,0,0,0-.683-2.093c.807-.113,1.617-.217,2.425-.322a12.961,12.961,0,0,0,.224,1.516,5.812,5.812,0,0,0,.6,2.091c-.028.042-.056.086-.084.128C1411.684,997.361,1411.032,997.463,1410.38,997.561Zm-8.958,30.04c-.717-.86-1.4-1.744-2.08-2.635l1.75-.3c.385.744.964,1.436,1.39,2.115.249.4.481,1.036.78,1.586-.266.032-.53.071-.8.1C1401.364,1028.59,1402.18,1028.51,1401.422,1027.6Zm5.576.219a9.7,9.7,0,0,0-1.03-2.159,10.49,10.49,0,0,0-.934-1.683c.609-.1,1.22-.2,1.83-.3.1.317.25.63.348.9a9.039,9.039,0,0,0,.972,2.053.551.551,0,0,0,.159.149c-.161.3-.323.594-.486.891C1407.573,1027.728,1407.285,1027.771,1407,1027.82Zm-13.209,32.575,1.482-1.285c.286.7.776,1.429,1.032,2,.332.738.665,1.472.957,2.228.019.051.039.1.058.143C1395.919,1064.236,1394.921,1062.175,1393.789,1060.4Zm55.421-42.11q-.622.554-1.246,1.106c-.259.229-.52.456-.781.685-.176-.5-.411-1-.567-1.454a32.931,32.931,0,0,0-1.145-3.393c.286-.256.574-.508.861-.765.667.767,1.314,1.553,1.915,2.376A16.731,16.731,0,0,1,1449.209,1018.285Zm-1-20.755c-.147-.635-.432-1.268-.614-1.866a28.778,28.778,0,0,0-1.052-3.244c.532-.6,1.07-1.206,1.6-1.812a12.647,12.647,0,0,0,.717,2.056c.273.722.538,1.442.764,2.181.09.3.138.587.2.869-.068.076-.134.153-.2.229C1449.154,996.474,1448.678,997,1448.207,997.531Zm8.039-9.141c-.25.289-.506.575-.757.863a15.23,15.23,0,0,0-.757-1.964c-.319-.752-.614-1.511-.919-2.268a6.637,6.637,0,0,1-.219-.692c.268-.31.538-.616.8-.925.848,1.007,1.674,2.031,2.457,3.092C1457.876,987.836,1457.421,987.032,1456.246,988.39Zm-48.18.239a310.538,310.538,0,0,1,15.718-31.92c.036-.065.151-.02.123.052a274.578,274.578,0,0,1-15.559,31.985C1408.265,988.9,1408,988.793,1408.066,988.629Zm16.069-33.016a2.1,2.1,0,0,1,.306-1.205,1.311,1.311,0,0,1,.644-.787.137.137,0,0,1,.2.116c.013.6-.358,1.826-1.035,1.944A.1.1,0,0,1,1424.135,955.612Zm5.1,49.9c3.723-5.978,8.694-11.334,13.658-16.3.1-.1.238.046.15.149-4.6,5.386-9.088,10.854-13.656,16.264C1429.313,1005.71,1429.176,1005.6,1429.234,1005.509Zm14.315-17.024c.191-.652.667-1.446,1.387-1.564a.137.137,0,0,1,.166.166c-.11.677-.841,1.174-1.383,1.528A.116.116,0,0,1,1443.549,988.484Zm-35.6,53.536a146.908,146.908,0,0,1,17.733-15.646c.172-.127.361.142.222.287-5.434,5.649-11.822,10.455-17.776,15.537C1408,1042.3,1407.831,1042.138,1407.944,1042.02Zm18.982-16.288a.13.13,0,0,1-.125-.125c-.061-.663.912-1.261,1.475-1.374.1-.019.222.066.178.178C1428.249,1024.933,1427.557,1025.8,1426.926,1025.732Z" transform="translate(-1390.953 -946.953)"/>
</svg>
