<svg xmlns="http://www.w3.org/2000/svg" xmlns:xlink="http://www.w3.org/1999/xlink" width="1328" height="937" viewBox="0 0 1328 937">
  <defs>
    <clipPath id="clip-path">
      <rect id="Rect치ngulo_45644" data-name="Rect치ngulo 45644" width="1328" height="937" transform="translate(124 2021.913)" fill="#a6bbff"/>
    </clipPath>
  </defs>
  <g id="Enmascarar_grupo_308" data-name="Enmascarar grupo 308" transform="translate(-124 -2021.913)" clip-path="url(#clip-path)">
    <rect id="Rect치ngulo_45302" data-name="Rect치ngulo 45302" width="1328" height="937" transform="translate(124 2021.913)" fill="#a6bbff"/>
    <g id="Grupo_175493" data-name="Grupo 175493" transform="translate(108.039 2014.423)" opacity="0.254">
      <path id="Trazado_178656" data-name="Trazado 178656" d="M1124.182,2261.675c50.505-39.748,91.908-91.332,146.189-125.539,74.556-46.987,165.617-56.531,253.216-60.6s177.468-4.239,259.475-35.848c65.54-25.263,125.945-76.179,150.577-141.059H1765.392c-37.491,59.391-94.111,106.474-160.114,128.465-131.768,43.9-285-6.136-409.141,56.714-87.938,44.52-147.364,140-241.514,168.474-68.12,20.6-143.079,1.123-204.068-36-26.642-16.216-51.105-35.526-74.275-56.518v139.343C816.186,2372.586,998.853,2360.315,1124.182,2261.675Z" transform="translate(-676.28 -1898.632)" fill="#3c3fa7"/>
      <path id="Trazado_178657" data-name="Trazado 178657" d="M1030.536,2290.246c94.15-28.47,153.576-123.954,241.514-168.475,124.139-62.849,277.374-12.813,409.141-56.714,66-21.991,122.623-69.074,160.114-128.465H752.194V2197.73c23.169,20.992,47.633,40.3,74.275,56.517C887.457,2291.37,962.416,2310.842,1030.536,2290.246Z" transform="translate(-752.193 -1936.593)" fill="#dddeff" opacity="0.614"/>
      <path id="Trazado_182347" data-name="Trazado 182347" d="M17.427,0H1222.573C1232.2,0,1240,10.7,1240,23.9V917.283c0,13.2-7.8,23.9-17.427,23.9H17.427C7.8,941.18,0,930.481,0,917.283V23.9C0,10.7,7.8,0,17.427,0Z" transform="translate(17.359 9.025)" fill="none"/>
    </g>
    <g id="Grupo_175494" data-name="Grupo 175494" transform="translate(198.641 2515.046)" opacity="0.254">
      <path id="Trazado_178656-2" data-name="Trazado 178656" d="M1485.737,1983.239c-50.505,39.748-91.908,91.332-146.189,125.54-74.556,46.986-165.617,56.53-253.216,60.6s-177.468,4.239-259.475,35.847c-65.54,25.262-125.945,76.179-150.577,141.059H844.528c37.491-59.391,94.111-106.474,160.114-128.465,131.768-43.9,285,6.135,409.141-56.713,87.938-44.521,147.364-140.005,241.514-168.475,68.12-20.6,143.079-1.123,204.068,36,26.642,16.216,51.105,35.525,74.275,56.517V1945.8C1793.733,1872.328,1611.066,1884.6,1485.737,1983.239Z" transform="translate(-676.28 -1898.632)" fill="#3c3fa7"/>
      <path id="Trazado_178657-2" data-name="Trazado 178657" d="M1562.963,1944.962c-94.15,28.469-153.576,123.954-241.514,168.475-124.139,62.849-277.374,12.813-409.141,56.713-66,21.991-122.623,69.074-160.114,128.464H1841.306V2037.478c-23.169-20.992-47.633-40.3-74.275-56.517C1706.043,1943.839,1631.083,1924.365,1562.963,1944.962Z" transform="translate(-583.947 -1850.965)" fill="#dddeff" opacity="0.614"/>
    </g>
  </g>
</svg>
