<svg id="Grupo_180456" data-name="Grupo 180456" xmlns="http://www.w3.org/2000/svg" xmlns:xlink="http://www.w3.org/1999/xlink" width="90" height="90" viewBox="0 0 90 90">
  <defs>
    <clipPath id="clip-path">
      <rect id="Rectángulo_45060" data-name="Rectángulo 45060" width="61.719" height="60.754" fill="none"/>
    </clipPath>
  </defs>
  <circle id="Elipse_4780" data-name="Elipse 4780" cx="45" cy="45" r="45" fill="#c4d1ff"/>
  <g id="Grupo_174489" data-name="Grupo 174489" transform="translate(14.14 14)">
    <g id="Grupo_174489-2" data-name="Grupo 174489" clip-path="url(#clip-path)">
      <path id="Trazado_180674" data-name="Trazado 180674" d="M14.773,209.32h0" transform="translate(-12.473 -176.735)" fill="#731437"/>
      <path id="Trazado_180675" data-name="Trazado 180675" d="M123.446,348.536c-1.42.1-3.28.537-4.041,1.69-.061-.955-1.134-.744-1.063,0a13.046,13.046,0,0,1-.185,3.769c5.159,2.108,10.66.8,15.1-2.629.069-.393.222-.781-.005-1.042-.35-.42-1.042-.137-.967.666-1.831-1.563-5.7-2.657-8.842-2.456M128.628,354c-.008,0-.013.005-.02.007s.012-.005.02-.007" transform="translate(-99.764 -294.259)" fill="#d69c60"/>
      <path id="Trazado_180676" data-name="Trazado 180676" d="M33.14,0c-3.184.02-7.5,3.735-8.53,6.806-4.9-2.955-12.03.816-8.459,6.387-8.6,5.662-7.777,19.711-1.189,26.526a46.441,46.441,0,0,0,8.416,4.15C34.355,48,46.757,48.484,58.417,47.72c.422.807,7.132-1.825,6.147-6.364-.325-1.514-.87-.6.611-1.622,6.1-4.218,6.7-14.628.456-19.319,1.974-3.609-2.22-7.189-5.97-7.164-1.089.005-.606.406-1.112-1.164C55.734,3.271,45.035-1.6,36.423,2.836A3.443,3.443,0,0,0,34.394.211,3.4,3.4,0,0,0,33.14,0" transform="translate(-8.324 0.001)" fill="#4a2424"/>
      <path id="Trazado_180677" data-name="Trazado 180677" d="M44.306,67.93a9.051,9.051,0,0,1,1.473-.038.14.14,0,0,0,.135.12,42.628,42.628,0,0,1,7,.607c-1-.332,13.092,2.633,13.818,2.812A23.02,23.02,0,0,1,70.894,72.8a13.224,13.224,0,0,1,2.8,1.681,11.078,11.078,0,0,1,.816.749,11.308,11.308,0,0,1,.746.883c1.589,2.194,2.808,5.821,2,11.865a117.494,117.494,0,0,1-3.772,17.351c-12.005.163-24.232-1.342-34.636-7.143C36.186,92.566,34.941,85.955,36.678,80a22.7,22.7,0,0,1,.833-2.263,17.4,17.4,0,0,1,2.319-3.759l.015-.021h0a18.094,18.094,0,0,1,2.189-2.23c.2-.152-.3-.422-.116-.293-1.778-1.451-.872-2.253-.872-2.253a2.481,2.481,0,0,1,.366-.343,7,7,0,0,1,2.863-.907c.017,0,.061-.005.028,0M70.9,72.806c.022.009.006,0,0,0" transform="translate(-30.291 -57.311)" fill="#3d1d1d"/>
      <path id="Trazado_180678" data-name="Trazado 180678" d="M5.488,176.965c-2.212.013-4.511,1.906-5.264,4.454-1.185,3.954,2.577,9.4,5.5,9.352,1.421-.006,5.677-3.876,4.692-8.9-.48-2.442-2.462-4.93-4.923-4.909" transform="translate(0 -149.417)" fill="#d69c60"/>
      <path id="Trazado_180679" data-name="Trazado 180679" d="M20.782,188.57a4.667,4.667,0,0,1,.545-.036c3.013-.021,5.235,3.172,4.983,3.922a.53.53,0,0,1-.973.067c-.894-1.847-2.42-3.708-4.454-3.475a.244.244,0,1,1-.1-.478m2.69,1.371.022.021-.022-.021m.057.05h0" transform="translate(-17.382 -159.185)" fill="#4a2424"/>
      <path id="Trazado_180680" data-name="Trazado 180680" d="M45.314,63.5c-.152,0-.128.045-.276.045a.435.435,0,0,0-.288.058C36.691,68.853,37.2,77.653,34.026,87.435c-1.7,5.23-3.159,9.967.3,15.753,7.065,11.8,27.377,12.692,34.181,3.067,1.06-1.5-.324-.366,3.28-.388a9.309,9.309,0,0,0,7.774-3.929c2.941-4.712-1.334-11.309-7.083-8.781A22.05,22.05,0,0,0,75.39,86.97c2.144-7.447.151-14-6.817-17.7-7.034-3.737-16.236-1.929-23.11-5.729a.3.3,0,0,0-.149-.033" transform="translate(-27.204 -53.618)" fill="#e7ba8d"/>
      <path id="Trazado_180681" data-name="Trazado 180681" d="M99.784,63.459c-.649,0-2.366,1.557-2.831,2.006a26.988,26.988,0,0,0,4.482,7.163,24.751,24.751,0,0,0,10.406,7.133,20.979,20.979,0,0,0,5.294,1.089,21.607,21.607,0,0,0,4.591-.145c.084-.009.188.075.144.28a5.751,5.751,0,0,0-.073,2.5s0,0,0,0a2.464,2.464,0,0,0,.553,1.105h0a2.009,2.009,0,0,0,.893.55h0a2.969,2.969,0,0,0,.762.115.135.135,0,0,1,.092.059c.047.066-.34,1.759-.357,1.847a7.448,7.448,0,0,0-.051,3.254l0,0c.652,2.52,2.026,2.985,4.182,1.444,3.921-6.848,4.548-15.024-1.29-20.377-6.085-5.554-14.686-4.448-21.788-6.22a25.279,25.279,0,0,1-4.817-1.846.424.424,0,0,0-.188.045" transform="translate(-81.86 -53.542)" fill="#d69c60"/>
      <path id="Trazado_180682" data-name="Trazado 180682" d="M256.55,192.394v0Z" transform="translate(-216.613 -162.441)" fill="#d69c60"/>
      <path id="Trazado_180683" data-name="Trazado 180683" d="M258.192,196.8h0" transform="translate(-217.99 -166.151)" fill="#d69c60"/>
      <path id="Trazado_180684" data-name="Trazado 180684" d="M262.656,201.559c-.009,0-.016-.011-.024-.015.007,0,.015.011.024.015" transform="translate(-221.748 -170.169)" fill="#d69c60"/>
      <path id="Trazado_180685" data-name="Trazado 180685" d="M284.478,268.328a.411.411,0,0,1,.107-.014c.794-.007,1.252,4.663-2.149,7.3-.282.221-.546-.167-.33-.335a6.035,6.035,0,0,0,2.216-5.74c-.076-.511-.328-1.078.155-1.212m-.133,2.979c-.006.033-.007.042,0,0m-.429,1.621c0-.011,0-.006,0,0" transform="translate(-238.124 -226.545)" fill="#4a2424"/>
      <path id="Trazado_180686" data-name="Trazado 180686" d="M107.731,48.706A28.011,28.011,0,0,0,97.438,50.57a4.16,4.16,0,0,0-1.041.522.426.426,0,0,0-.406.578c3.464,9.257,13.871,15.594,23.955,14.931,4.262-.273,4.034-1.343,3.259.393-1.191,2.636-1.217,5.259,1.612,5.738-.508,1.293-1.137,2.482-1.526,3.721-.876,2.782.092,5.625,1.941,5.954,3.563.685,10.972-9.536,6.491-20.847-3.6-9.06-14.255-12.91-23.99-12.854" transform="translate(-81.024 -41.123)" fill="#4a2424"/>
      <path id="Trazado_180687" data-name="Trazado 180687" d="M112.224,193.652a.5.5,0,0,1,.062.006.168.168,0,0,1,.128.223,40.711,40.711,0,0,1-1.366,3.9c-.113.279-1.606,3.8-1.888,3.857a.2.2,0,0,1-.207-.076c-3.482-4.324-5.245,1.774-2.275,3.84a.405.405,0,0,1,.076.564c-.749.97-3.622-3.237-1.526-5.73,1.081-1.276,2.626-.832,3.879.831a40.656,40.656,0,0,0,3-7.308.148.148,0,0,1,.121-.105" transform="translate(-88.213 -163.505)" fill="#211010"/>
      <path id="Trazado_180688" data-name="Trazado 180688" d="M200.022,181.394c2.752-.519,6.838,3.177,5.613,5.014-1.571,2.354-8.2-2.029-6.607-4.421a1.476,1.476,0,0,1,.994-.593" transform="translate(-167.837 -153.115)" fill="#4a2424"/>
      <path id="Trazado_180689" data-name="Trazado 180689" d="M76.789,147.708c2.345-.442,4.745.443,4.794,1.781.089,2.654-7.34,2.935-7.438.269-.033-.907,1.055-1.749,2.644-2.049" transform="translate(-62.602 -124.617)" fill="#4a2424"/>
      <path id="Trazado_180690" data-name="Trazado 180690" d="M163.487,286.211c-.133,1.424,1.921,2.782,4.588,3.031s4.938-.7,5.071-2.127-1.921-2.781-4.588-3.031-4.938.7-5.071,2.126" transform="translate(-138.031 -239.827)" fill="#d69c60"/>
      <path id="Trazado_180691" data-name="Trazado 180691" d="M40.519,237.35c-.691,1.253.65,3.317,3,4.612s4.807,1.329,5.5.076-.65-3.317-3-4.612-4.807-1.329-5.5-.076" transform="translate(-34.058 -199.627)" fill="#d69c60"/>
      <path id="Trazado_180692" data-name="Trazado 180692" d="M180.531,250.276a1.522,1.522,0,1,0,1.949-1.318,1.68,1.68,0,0,0-1.949,1.318" transform="translate(-152.35 -210.158)" fill="#211010"/>
      <path id="Trazado_180693" data-name="Trazado 180693" d="M79.553,212.841a1.522,1.522,0,1,0,1.949-1.318,1.68,1.68,0,0,0-1.949,1.318" transform="translate(-67.091 -178.551)" fill="#211010"/>
      <path id="Trazado_180694" data-name="Trazado 180694" d="M108.766,303.525a2.973,2.973,0,0,1-2.665-2.243,18.564,18.564,0,0,1,6.6-.225c-.768,1.134-2.088,2.526-3.934,2.468" transform="translate(-89.584 -254.033)" fill="#d14f8e"/>
      <path id="Trazado_180695" data-name="Trazado 180695" d="M110.938,286.972a8.894,8.894,0,0,1-.789,1.417,18.564,18.564,0,0,0-6.6.225,8.439,8.439,0,0,1-.471-2.5c3.1-.882,7.86.856,7.86.856" transform="translate(-87.032 -241.365)" fill="#211010"/>
    </g>
  </g>
</svg>
