<svg xmlns="http://www.w3.org/2000/svg" xmlns:xlink="http://www.w3.org/1999/xlink" width="828" height="572" viewBox="0 0 828 572">
  <defs>
    <clipPath id="clip-path">
      <rect id="Rect치ngulo_41289" data-name="Rect치ngulo 41289" width="828" height="572" transform="translate(0 0)" fill="#6b8dfc"/>
    </clipPath>
  </defs>
  <g id="Grupo_964891" data-name="Grupo 964891" transform="translate(0 0)">
    <g id="Enmascarar_grupo_167" data-name="Enmascarar grupo 167" transform="translate(0 0)" clip-path="url(#clip-path)">
      <g id="Grupo_166176" data-name="Grupo 166176" transform="translate(137.228 89.251)">
        <path id="Uni칩n_28" data-name="Uni칩n 28" d="M357.572,822.582c-61.963-3.935-112.9-57.728-153.839-100.941-6.881-7.27-13.554-14.32-20.052-20.908C130.955,647.319,78.327,592,27.431,538.509l-6.114-6.416C2.592,512.419-4.1,487.564,2.449,462.122c7.144-27.739,29.595-51.2,55.86-58.4,23.919-6.542,47.236.726,65.589,20.516v-.011c37.124,39.993,77.577,81.591,122.8,126.246l-5.38-12.359c-15.2-34.939-30.911-71.056-45.2-107.265-14.351-36.353-27.83-75.252-34.326-113.382-7.174-42.111-6.026-83.347,11.317-119.908,20.193-42.59,49.877-67.1,88.227-72.834,83.482-12.439,187.543,69.66,243.808,127.55-15.2-46.7-25.684-95.646-21.322-146.785,3.714-43.6,22.878-76.871,53.953-93.683C573.067-7.289,619.384-3.031,661.7,23.2,737.952,70.46,798.928,150.285,853.462,229.5c24.61,35.747,10.826,70.733-13.74,89.552-29.705,22.755-76.317,23.332-102.932-15.069q-5.062-7.322-10.322-14.539c15.132,30.059,29.4,60.255,42.119,91.191l4.909,11.908c43.258,104.715,102.494,248.131,47.631,359.585C790.6,814.17,720.31,821.2,666.642,796.1c-60.2-28.178-104.17-86.737-142.969-138.408-5.018-6.681-9.982-13.293-14.924-19.765-33.835-44.333-65.118-91.354-95.371-136.816q-16.156-24.3-32.477-48.532l-3.112-4.6q-4.7-6.958-9.5-14.008c5.226,13.177,10.5,25.916,15.5,38.043,5.282,12.785,10.869,25.709,16.513,38.759,23.557,54.486,47.926,110.842,56.111,169.678,6.278,45.128-3.561,87.66-26.33,113.773-16.381,18.785-38.9,28.593-65.426,28.593C362.327,822.814,359.961,822.745,357.572,822.582Z" transform="translate(0 27.36)" fill="#5355a7" stroke="rgba(0,0,0,0)" stroke-miterlimit="10" stroke-width="1" opacity="0.412"/>
        <path id="Trazado_115699" data-name="Trazado 115699" d="M236.67,604.2c52.792,56.886,107.348,111.684,162.956,165.5-24.04-57.221-49.965-113.553-72.789-171.374-25.87-65.563-55.937-154.932-23.328-223.7,74.334-156.755,262.239-2.954,331.39,75.96,7.374,8.4,14.4,17.181,21.52,25.87-24.7-63.718-46.941-129.189-41.079-198.029,8.075-94.653,90.473-117.361,161.41-73.387,76.186,47.229,137.36,128.935,188.453,203.141,43.39,63.025-55.9,123.027-98.955,60.9a810.9,810.9,0,0,0-77.336-95.287q6.163,11.891,12.447,23.747c27.755,52.213,55.17,104.634,77.785,159.581,43.314,105.234,107.348,250.9,52.869,361.592-27.459,55.779-91.832,61.445-140.318,38.748C726.534,926.951,681.4,859.6,637.89,802.6,592.473,743.08,552.479,679.882,510.436,617.78c-17.575-25.951-35.129-52.271-55.235-76.144-.46-.542-.953-1.05-1.414-1.6l.5,1.685c11.165,36.555,25.53,71.633,40.059,106.8,27.053,65.425,61.93,134.3,71.836,205.506,8.766,62.956-15.45,133.516-87.351,128.946-67.584-4.293-121.757-72.856-166.944-118.642C257.16,808.875,203.415,752.311,149.659,695.817a67.6,67.6,0,0,1-13.049-19.291C111.258,619.426,186.937,550.615,236.67,604.2Z" transform="translate(-94.626 -171.905)" fill="#6b8dfc"/>
        <path id="Trazado_115700" data-name="Trazado 115700" d="M495.277,1005.273c26.527,0,49.034-9.8,65.414-28.582,22.769-26.112,32.609-68.644,26.33-113.784-8.174-58.825-32.543-115.181-56.112-169.679-5.632-13.05-11.22-25.962-16.513-38.747-5.007-12.127-10.278-24.866-15.5-38.043,3.2,4.685,6.366,9.37,9.5,14.008l3.112,4.592c10.924,16.132,21.706,32.344,32.488,48.532,30.242,45.475,61.525,92.495,95.361,136.816,4.942,6.485,9.905,13.1,14.924,19.778,38.8,51.659,82.771,110.219,142.97,138.408,53.679,25.1,123.959,18.058,154.485-43.986,54.863-111.442-4.372-254.858-47.62-359.584l-4.92-11.9c-12.721-30.936-26.987-61.133-42.108-91.191q5.243,7.217,10.322,14.527c26.6,38.413,73.216,37.836,102.921,15.081,24.566-18.82,38.35-53.805,13.741-89.553C929.533,332.755,868.556,252.93,792.316,205.655c-42.328-26.216-88.633-30.474-123.937-11.377-31.075,16.812-50.228,50.067-53.953,93.672-4.361,51.14,6.125,100.1,21.333,146.786C579.483,376.857,475.433,294.758,391.95,307.2c-38.35,5.734-68.044,30.243-88.238,72.833-33.211,70.041-7,157.228,23.01,233.292,14.288,36.2,30,72.325,45.2,107.253l5.38,12.358C332.08,688.29,291.626,646.692,254.5,606.7h0c-18.353-19.789-41.67-27.047-65.59-20.5-26.265,7.2-48.716,30.659-55.849,58.4-6.563,25.443.132,50.286,18.857,69.96l6.114,6.427c50.9,53.494,103.524,108.8,156.25,162.224,6.5,6.589,13.171,13.639,20.063,20.908,40.925,43.213,91.865,97.007,153.828,100.941C490.576,1005.2,492.932,1005.273,495.277,1005.273ZM463.84,539.554a9.931,9.931,0,0,0-5.3,1.5,11.458,11.458,0,0,0-5.183,13.1l.515,1.685c11.7,38.32,26.966,75.268,40.432,107.854,5.336,12.9,10.98,25.939,16.666,39.105,22.933,53.033,46.644,107.865,54.38,163.459,5.249,37.755-2.717,74.091-20.8,94.826-13.39,15.358-31.9,22.328-55.049,20.943-53.647-3.415-99.338-51.648-139.639-94.214-6.991-7.385-13.784-14.551-20.38-21.231C276.9,813.3,224.338,758.065,173.507,704.64l-6.1-6.427c-16.556-17.389-16.315-35.471-13.193-47.586,5.073-19.685,21.608-37.005,40.224-42.094,11.33-3.115,28.215-3.139,44.388,14.3h0c47.96,51.659,101.4,105.938,163.383,165.94a10.526,10.526,0,0,0,13.8.877,11.886,11.886,0,0,0,3.638-14.043c-9.083-21.635-18.441-43.132-27.787-64.64-15.121-34.744-30.746-70.675-44.892-106.5-28.116-71.24-52.923-152.393-23.646-214.126,17.027-35.9,40.487-55.617,71.715-60.29,77.829-11.6,187.292,76.7,241.826,138.927,5.807,6.635,11.406,13.512,17.017,20.378l4.251,5.215a10.535,10.535,0,0,0,14.014,2.3,11.868,11.868,0,0,0,4.427-14.2c-23.536-60.683-46.031-125.566-40.312-192.641,3.068-35.955,17.641-61.963,42.142-75.222,28.587-15.45,67-11.423,102.8,10.754,72.789,45.117,131.99,122.773,185.133,199.968,16.8,24.393,6.421,45.612-8.886,57.336-20.731,15.878-53.12,17.747-72.339-10a823.71,823.71,0,0,0-78.432-96.626,10.532,10.532,0,0,0-14.31-1.108,11.926,11.926,0,0,0-3.068,14.77q6.2,11.96,12.513,23.851c28.105,52.871,55.159,104.784,77.292,158.543l4.92,11.931c41.495,100.469,98.319,238.069,48.266,339.749-24.314,49.409-81.861,54.232-126.139,33.52-55.257-25.859-95.634-79.641-134.675-131.635q-7.577-10.091-15.033-19.916c-33.387-43.732-64.45-90.43-94.506-135.593q-16.206-24.37-32.576-48.694l-3.112-4.581c-16.491-24.382-33.54-49.594-52.847-72.509l-.986-1.12A11.669,11.669,0,0,0,463.84,539.554Zm-217.172,75.21h0Z" transform="translate(-104.625 -182.469)"/>
        <path id="Trazado_115701" data-name="Trazado 115701" d="M156.466,226.265c40.377,85.434,63.146,185.579,27.689,277.417-5.249,13.57-26.451,7.638-21.137-6.139,33.3-86.229,12.5-179.279-25.475-259.635C131.286,224.65,150.176,212.949,156.466,226.265Z" transform="translate(628.405 217.211)" fill="#3c3fa7"/>
        <path id="Trazado_115702" data-name="Trazado 115702" d="M148.308,299.082c.186-.023.361-.081.537-.115.307-.635.592-1.3.69-1.489l.044-.069c.022-.092-.011-.035.022-.173,1.414-5.146,2.433-10.373,3.5-15.612q3.731-18.26,7.44-36.52c1.205-5.908,8.076-9.9,13.488-8.054,5.906,2.008,8.941,7.858,7.648,14.193l-8.415,41.3c-2.345,11.47-6.081,26.5-19.12,28.8-5.632.981-12.075-1.557-13.478-8.065C139.454,307.7,142.271,300.143,148.308,299.082Z" transform="translate(603.286 387.944)" fill="#3c3fa7"/>
        <path id="Trazado_115703" data-name="Trazado 115703" d="M218.8,200.691c12.436-6.993,23.525,12.923,11.056,19.927-17.2,9.67-22.44,29.355-23.131,48.682-.789,21.958,1.556,44.54,4.942,66.163A455.708,455.708,0,0,0,249.7,459.414c6.267,13.258-12.634,24.958-18.923,11.643a480.367,480.367,0,0,1-42.536-145.978C183.079,283.482,176.9,224.23,218.8,200.691Z" transform="translate(50.381 -5.888)" fill="#3c3fa7"/>
      </g>
    </g>
  </g>
</svg>
