<svg xmlns="http://www.w3.org/2000/svg" width="76.534" height="69.239" viewBox="0 0 76.534 69.239">
  <g id="Grupo_175667" data-name="Grupo 175667" transform="translate(0 0)">
    <g id="Grupo_81065" data-name="Grupo 81065" transform="translate(2.228 2.229)" style="mix-blend-mode: overlay;isolation: isolate">
      <path id="Trazado_115015" data-name="Trazado 115015" d="M197.392,220.108c-4.528,4.633-9.206,9.1-13.975,13.479,2.062-4.661,4.284-9.248,6.242-13.958,2.219-5.34,4.8-12.618,2-18.219-6.375-12.766-22.49-.24-28.421,6.186-.632.685-1.235,1.4-1.846,2.107,2.119-5.189,4.027-10.521,3.523-16.128-.693-7.709-7.759-9.558-13.843-5.976-6.533,3.845-11.78,10.5-16.161,16.543-3.721,5.133,4.794,10.019,8.486,4.96a66.757,66.757,0,0,1,6.634-7.759q-.529.968-1.068,1.933a144.038,144.038,0,0,0-6.671,13c-3.714,8.569-9.206,20.434-4.534,29.447,2.355,4.543,7.877,5,12.034,3.156,5.589-2.485,9.459-7.97,13.191-12.612,3.9-4.847,7.326-9.994,10.932-15.052a73.237,73.237,0,0,1,4.737-6.2c.039-.045.081-.086.12-.131l-.043.136c-.958,2.977-2.189,5.834-3.436,8.7-2.319,5.329-5.311,10.938-6.161,16.737-.751,5.127,1.325,10.874,7.491,10.5,5.8-.35,10.443-5.933,14.319-9.662,4.693-4.516,9.3-9.122,13.913-13.723C209.669,222.766,202.148,215.243,197.392,220.108Z" transform="translate(-133.04 -184.901)" fill="#3c384f"/>
      <path id="Trazado_115016" data-name="Trazado 115016" d="M176.011,251.851a7.367,7.367,0,0,1-5.611-2.329c-1.953-2.127-2.8-5.59-2.258-9.266.7-4.792,2.792-9.381,4.812-13.819.484-1.063.963-2.115,1.416-3.157.429-.988.881-2.025,1.33-3.1q-.412.574-.815,1.141l-.267.375q-1.405,1.971-2.785,3.953c-2.595,3.7-5.277,7.532-8.179,11.142-.424.527-.849,1.066-1.28,1.61-3.328,4.208-7.1,8.977-12.262,11.272-4.6,2.044-10.631,1.472-13.249-3.581-4.705-9.077.375-20.757,4.085-29.285l.421-.97c1.091-2.519,2.315-4.979,3.612-7.427q-.451.588-.885,1.184a6.255,6.255,0,0,1-8.828,1.227,4.959,4.959,0,0,1-1.178-7.293c4.677-6.451,9.907-12.952,16.446-16.8,3.629-2.136,7.6-2.483,10.628-.927,2.665,1.369,4.309,4.078,4.627,7.63a28.781,28.781,0,0,1-1.829,11.954c4.825-4.715,13.75-11.4,20.91-10.388,3.289.467,5.835,2.463,7.567,5.932,2.849,5.7.6,12.806-1.973,19-1.225,2.949-2.573,5.89-3.876,8.736l-.461,1.006c3.878-3.637,7.348-7.024,10.531-10.282h0a5.646,5.646,0,0,1,5.625-1.671,6.924,6.924,0,0,1,4.791,4.756,5.7,5.7,0,0,1-1.618,5.7l-.524.522c-4.365,4.357-8.879,8.862-13.4,13.212-.557.537-1.13,1.111-1.72,1.7-3.511,3.519-7.88,7.9-13.194,8.221C176.414,251.846,176.211,251.851,176.011,251.851Zm2.7-37.928a.888.888,0,0,1,.455.121.914.914,0,0,1,.444,1.067l-.044.137c-1,3.122-2.313,6.13-3.468,8.784-.458,1.052-.942,2.113-1.429,3.185-1.966,4.319-4,8.785-4.663,13.313-.45,3.075.233,6.034,1.783,7.722a5.641,5.641,0,0,0,4.721,1.706c4.6-.278,8.52-4.206,11.977-7.673.6-.6,1.181-1.184,1.747-1.729,4.51-4.339,9.018-8.837,13.377-13.188l.523-.522a3.822,3.822,0,0,0,1.132-3.875,5.059,5.059,0,0,0-3.45-3.429A3.765,3.765,0,0,0,198,220.7h0c-4.113,4.207-8.7,8.628-14.012,13.513a.94.94,0,0,1-1.5-1.072c.779-1.762,1.582-3.513,2.384-5.263,1.3-2.831,2.637-5.757,3.849-8.675,2.412-5.8,4.539-12.411,2.028-17.438-1.459-2.924-3.471-4.53-6.15-4.91-6.675-.945-16.062,6.245-20.739,11.314-.5.539-.979,1.1-1.46,1.66l-.364.424a.94.94,0,0,1-1.582-.969c2.018-4.943,3.947-10.226,3.456-15.69-.263-2.927-1.513-5.045-3.614-6.125-2.451-1.259-5.746-.931-8.817.875-6.242,3.675-11.32,10-15.878,16.286a3.116,3.116,0,0,0,.762,4.67,4.348,4.348,0,0,0,6.2-.816,68.058,68.058,0,0,1,6.727-7.869.94.94,0,0,1,1.491,1.114q-.531.973-1.074,1.941a143.779,143.779,0,0,0-6.628,12.912l-.422.972c-3.56,8.182-8.433,19.388-4.14,27.67,2.085,4.023,7.021,4.416,10.818,2.729,4.739-2.106,8.2-6.485,11.55-10.72.433-.547.863-1.09,1.29-1.621,2.862-3.563,5.527-7.366,8.1-11.044q1.39-1.985,2.794-3.965l.267-.374a69.916,69.916,0,0,1,4.533-5.905l.084-.091A1.026,1.026,0,0,1,178.707,213.923Zm18.625,6.124h0Z" transform="translate(-132.979 -184.841)" fill="#3c384f"/>
      <path id="Trazado_115017" data-name="Trazado 115017" d="M142.543,223.243c-3.462,6.958-5.416,15.115-2.374,22.593.449,1.106,2.268.622,1.812-.5-2.855-7.022-1.071-14.6,2.185-21.145C144.7,223.113,143.082,222.159,142.543,223.243Z" transform="translate(-133.322 -187.126)" fill="#3c384f"/>
      <path id="Trazado_115018" data-name="Trazado 115018" d="M145.644,244.055c-.016,0-.031-.007-.046-.009-.026-.051-.05-.106-.058-.121l0-.006c0-.007,0,0,0-.013-.121-.42-.208-.845-.3-1.272q-.319-1.487-.638-2.974a.946.946,0,0,0-1.156-.656.962.962,0,0,0-.657,1.156q.361,1.682.723,3.364c.2.933.521,2.158,1.639,2.345a.963.963,0,0,0,1.156-.657A.95.95,0,0,0,145.644,244.055Z" transform="translate(-133.569 -188.103)" fill="#3c384f"/>
      <path id="Trazado_115019" data-name="Trazado 115019" d="M189.679,201.715c-1.067-.569-2.017,1.053-.948,1.623,1.475.787,1.925,2.391,1.984,3.966a27.179,27.179,0,0,1-.424,5.387,35.756,35.756,0,0,1-3.262,10.095c-.537,1.08,1.084,2.033,1.623.948a37.61,37.61,0,0,0,3.648-11.889C192.743,208.459,193.273,203.633,189.679,201.715Z" transform="translate(-136.231 -185.851)" fill="#3c384f"/>
    </g>
    <g id="Grupo_81068" data-name="Grupo 81068" transform="translate(0 0)">
      <g id="Grupo_81067" data-name="Grupo 81067">
        <g id="Grupo_81066" data-name="Grupo 81066">
          <path id="Trazado_115020" data-name="Trazado 115020" d="M195.021,217.737c-4.528,4.633-9.206,9.1-13.976,13.479,2.062-4.66,4.285-9.248,6.243-13.957,2.219-5.34,4.8-12.618,2-18.219-6.375-12.766-22.49-.241-28.421,6.186-.632.684-1.235,1.4-1.846,2.107,2.118-5.189,4.026-10.521,3.523-16.128-.693-7.709-7.759-9.558-13.843-5.977-6.534,3.846-11.78,10.5-16.162,16.544-3.721,5.133,4.795,10.019,8.487,4.96a66.833,66.833,0,0,1,6.633-7.76q-.529.968-1.068,1.934a144.162,144.162,0,0,0-6.671,13c-3.715,8.57-9.206,20.433-4.534,29.448,2.355,4.543,7.876,5,12.034,3.156,5.589-2.485,9.459-7.97,13.191-12.612,3.9-4.847,7.325-9.994,10.931-15.052a73.828,73.828,0,0,1,4.737-6.2c.039-.044.082-.086.121-.131l-.043.137c-.958,2.977-2.19,5.834-3.436,8.7-2.32,5.328-5.311,10.938-6.161,16.737-.752,5.127,1.325,10.874,7.492,10.5,5.8-.35,10.442-5.934,14.318-9.662,4.694-4.516,9.3-9.123,13.914-13.724C207.3,220.4,199.776,212.872,195.021,217.737Z" transform="translate(-130.669 -182.53)" fill="#fff"/>
          <path id="Trazado_115021" data-name="Trazado 115021" d="M173.639,249.479a7.364,7.364,0,0,1-5.61-2.328c-1.953-2.127-2.8-5.59-2.258-9.267.7-4.791,2.791-9.38,4.812-13.819.483-1.063.962-2.114,1.416-3.156.429-.988.881-2.025,1.33-3.1-.274.382-.546.763-.815,1.141l-.267.374c-.937,1.314-1.862,2.634-2.786,3.952-2.594,3.7-5.277,7.533-8.178,11.142-.424.528-.85,1.067-1.28,1.611-3.328,4.207-7.1,8.976-12.262,11.272-4.6,2.044-10.631,1.471-13.249-3.582-4.705-9.076.375-20.756,4.084-29.285l.422-.969c1.091-2.519,2.315-4.979,3.611-7.427q-.45.588-.885,1.183a6.253,6.253,0,0,1-8.827,1.228,4.959,4.959,0,0,1-1.178-7.293c4.677-6.451,9.907-12.952,16.445-16.8,3.63-2.135,7.6-2.482,10.629-.927,2.665,1.369,4.308,4.078,4.627,7.629a28.765,28.765,0,0,1-1.83,11.954c4.826-4.714,13.75-11.4,20.91-10.387,3.289.467,5.836,2.463,7.568,5.932,2.848,5.7.6,12.8-1.973,19-1.225,2.948-2.573,5.89-3.876,8.735l-.461,1.006c3.878-3.636,7.348-7.024,10.532-10.281h0a5.646,5.646,0,0,1,5.625-1.67,6.921,6.921,0,0,1,4.79,4.756,5.693,5.693,0,0,1-1.617,5.7l-.524.523c-4.365,4.357-8.879,8.861-13.4,13.212-.557.537-1.13,1.111-1.721,1.7-3.51,3.519-7.879,7.9-13.193,8.221C174.042,249.474,173.84,249.479,173.639,249.479Zm2.7-37.929a.885.885,0,0,1,.455.122.913.913,0,0,1,.444,1.067l-.044.137c-1,3.121-2.313,6.13-3.468,8.784-.458,1.051-.942,2.113-1.429,3.185-1.967,4.319-4,8.785-4.664,13.312-.45,3.075.233,6.034,1.784,7.723a5.643,5.643,0,0,0,4.721,1.706c4.6-.278,8.52-4.206,11.976-7.673.6-.6,1.182-1.185,1.748-1.729,4.51-4.339,9.018-8.837,13.377-13.188l.523-.523a3.82,3.82,0,0,0,1.131-3.875,5.056,5.056,0,0,0-3.45-3.428,3.764,3.764,0,0,0-3.807,1.164h0c-4.113,4.207-8.7,8.628-14.012,13.514a.94.94,0,0,1-1.5-1.072c.779-1.762,1.582-3.513,2.383-5.264,1.3-2.83,2.637-5.756,3.85-8.674,2.411-5.8,4.539-12.411,2.028-17.439-1.46-2.923-3.472-4.529-6.15-4.91-6.675-.944-16.063,6.246-20.74,11.314-.5.54-.978,1.1-1.459,1.66l-.365.425a.94.94,0,0,1-1.582-.97c2.019-4.942,3.948-10.226,3.457-15.689-.263-2.928-1.513-5.046-3.614-6.126-2.452-1.258-5.746-.93-8.817.876-6.243,3.674-11.32,10-15.878,16.286a3.114,3.114,0,0,0,.762,4.67,4.347,4.347,0,0,0,6.2-.815,67.889,67.889,0,0,1,6.727-7.869.939.939,0,0,1,1.49,1.113q-.531.974-1.073,1.942a143.781,143.781,0,0,0-6.629,12.912l-.422.972c-3.559,8.182-8.432,19.389-4.139,27.669,2.085,4.024,7.021,4.417,10.818,2.73,4.739-2.106,8.2-6.486,11.55-10.72q.65-.822,1.289-1.622c2.863-3.562,5.527-7.365,8.105-11.043.927-1.323,1.854-2.647,2.794-3.966l.267-.373a69.949,69.949,0,0,1,4.532-5.905l.085-.091A1.025,1.025,0,0,1,176.335,211.551Zm18.625,6.125h0Z" transform="translate(-130.608 -182.47)"/>
        </g>
        <path id="Trazado_115022" data-name="Trazado 115022" d="M140.172,220.872c-3.463,6.958-5.416,15.114-2.375,22.593.45,1.105,2.269.622,1.813-.5-2.856-7.023-1.072-14.6,2.185-21.145C142.332,220.741,140.711,219.788,140.172,220.872Z" transform="translate(-130.951 -184.755)"/>
        <path id="Trazado_115023" data-name="Trazado 115023" d="M143.273,241.684c-.016,0-.031-.007-.046-.009-.026-.052-.051-.106-.059-.121l0-.006c0-.008,0,0,0-.014-.121-.419-.209-.845-.3-1.271q-.32-1.487-.638-2.974a.947.947,0,0,0-1.157-.656.961.961,0,0,0-.656,1.156l.722,3.363c.2.934.522,2.159,1.64,2.346a.963.963,0,0,0,1.156-.657A.951.951,0,0,0,143.273,241.684Z" transform="translate(-131.198 -185.732)"/>
        <path id="Trazado_115024" data-name="Trazado 115024" d="M187.308,199.344c-1.067-.569-2.018,1.052-.948,1.623,1.475.787,1.925,2.391,1.984,3.965a27.189,27.189,0,0,1-.424,5.388,35.755,35.755,0,0,1-3.262,10.095c-.538,1.08,1.083,2.033,1.623.948a37.648,37.648,0,0,0,3.648-11.889C190.372,206.087,190.9,201.261,187.308,199.344Z" transform="translate(-133.86 -183.479)"/>
      </g>
    </g>
  </g>
</svg>
