<svg xmlns="http://www.w3.org/2000/svg" xmlns:xlink="http://www.w3.org/1999/xlink" width="387.35" height="206" viewBox="0 0 387.35 206">
  <defs>
    <clipPath id="clip-path">
      <path id="Trazado_192228" data-name="Trazado 192228" d="M0,0H387.35V206H0Z" transform="translate(0 0)" fill="#ffe891"/>
    </clipPath>
    <clipPath id="clip-path-2">
      <rect id="Rectángulo_337978" data-name="Rectángulo 337978" width="387.3" height="206" transform="translate(606.35 4079)" fill="#fff0b5"/>
    </clipPath>
  </defs>
  <g id="Grupo_964880" data-name="Grupo 964880" transform="translate(-2876.325 8580)">
    <rect id="Rectángulo_337901" data-name="Rectángulo 337901" width="387.3" height="206" transform="translate(2876.35 -8580)" fill="#fff0b5"/>
    <g id="Enmascarar_grupo_393" data-name="Enmascarar grupo 393" transform="translate(2876.325 -8580)" clip-path="url(#clip-path)">
      <path id="Trazado_192226" data-name="Trazado 192226" d="M204.883-45.307s43.663,31.632-5.352,72.453S132.741,5.578,92.1,80.855,46.425,188.269,20.434,166.8-34.08,89.421-13.9,27.146s3.927-112.753,87.77-101.6S190.561-49.579,196.023-54.944,204.883-45.307,204.883-45.307Z" transform="translate(7.156 -41.169)" fill="#ffe891"/>
      <path id="Trazado_192227" data-name="Trazado 192227" d="M-2.812,142.631S-46.475,111,2.541,70.179,69.33,91.746,109.974,16.469s45.671-107.414,71.662-85.941S236.151,7.9,215.972,70.179s-3.927,112.753-87.77,101.6S11.511,146.9,6.048,152.269-2.812,142.631-2.812,142.631Z" transform="translate(185.231 124.926)" fill="#ffe891"/>
    </g>
    <g id="Enmascarar_grupo_395" data-name="Enmascarar grupo 395" transform="translate(2270 -12659)" clip-path="url(#clip-path-2)">
      <g id="Grupo_964758" data-name="Grupo 964758" transform="translate(606.889 4078.979)" opacity="0.79">
        <g id="Grupo_964715" data-name="Grupo 964715" transform="translate(-0.064 7.921)">
          <g id="Grupo_964714" data-name="Grupo 964714">
            <g id="Grupo_964712" data-name="Grupo 964712" transform="translate(1.234)" opacity="0.53" style="mix-blend-mode: multiply;isolation: isolate">
              <rect id="Rectángulo_337919" data-name="Rectángulo 337919" width="25.626" height="10.378" transform="translate(330.637 12.821)" fill="none" stroke="#efbbae" stroke-miterlimit="10" stroke-width="0.361"/>
              <rect id="Rectángulo_337920" data-name="Rectángulo 337920" width="25.626" height="10.378" transform="translate(343.161)" fill="none" stroke="#efbbae" stroke-miterlimit="10" stroke-width="0.361"/>
              <rect id="Rectángulo_337921" data-name="Rectángulo 337921" width="25.626" height="10.378" transform="translate(358.19 13.018)" fill="none" stroke="#efbbae" stroke-miterlimit="10" stroke-width="0.361"/>
              <rect id="Rectángulo_337922" data-name="Rectángulo 337922" width="25.626" height="10.378" transform="translate(330.637 153.258)" fill="none" stroke="#efbbae" stroke-miterlimit="10" stroke-width="0.361"/>
              <rect id="Rectángulo_337923" data-name="Rectángulo 337923" width="25.626" height="10.378" transform="translate(343.161 140.437)" fill="none" stroke="#efbbae" stroke-miterlimit="10" stroke-width="0.361"/>
              <rect id="Rectángulo_337924" data-name="Rectángulo 337924" width="25.626" height="10.378" transform="translate(358.19 153.455)" fill="none" stroke="#efbbae" stroke-miterlimit="10" stroke-width="0.361"/>
              <rect id="Rectángulo_337925" data-name="Rectángulo 337925" width="25.626" height="10.378" transform="translate(305.525 48.259)" fill="none" stroke="#efbbae" stroke-miterlimit="10" stroke-width="0.361"/>
              <rect id="Rectángulo_337926" data-name="Rectángulo 337926" width="25.626" height="10.378" transform="translate(305.525 118.28)" fill="none" stroke="#efbbae" stroke-miterlimit="10" stroke-width="0.361"/>
              <rect id="Rectángulo_337927" data-name="Rectángulo 337927" width="25.626" height="10.378" transform="translate(333.527 89.285)" fill="none" stroke="#efbbae" stroke-miterlimit="10" stroke-width="0.361"/>
              <rect id="Rectángulo_337928" data-name="Rectángulo 337928" width="25.626" height="10.378" transform="translate(352.383 76.558)" fill="none" stroke="#efbbae" stroke-miterlimit="10" stroke-width="0.361"/>
              <g id="Grupo_964709" data-name="Grupo 964709" transform="translate(199.937)">
                <rect id="Rectángulo_337929" data-name="Rectángulo 337929" width="25.626" height="10.378" transform="translate(25.112 12.821)" fill="none" stroke="#efbbae" stroke-miterlimit="10" stroke-width="0.361"/>
                <rect id="Rectángulo_337930" data-name="Rectángulo 337930" width="25.626" height="10.378" transform="translate(37.637)" fill="none" stroke="#efbbae" stroke-miterlimit="10" stroke-width="0.361"/>
                <rect id="Rectángulo_337931" data-name="Rectángulo 337931" width="25.626" height="10.378" transform="translate(52.665 13.018)" fill="none" stroke="#efbbae" stroke-miterlimit="10" stroke-width="0.361"/>
                <rect id="Rectángulo_337932" data-name="Rectángulo 337932" width="25.626" height="10.378" transform="translate(25.112 153.258)" fill="none" stroke="#efbbae" stroke-miterlimit="10" stroke-width="0.361"/>
                <rect id="Rectángulo_337933" data-name="Rectángulo 337933" width="25.626" height="10.378" transform="translate(37.637 140.437)" fill="none" stroke="#efbbae" stroke-miterlimit="10" stroke-width="0.361"/>
                <rect id="Rectángulo_337934" data-name="Rectángulo 337934" width="25.626" height="10.378" transform="translate(52.665 153.455)" fill="none" stroke="#efbbae" stroke-miterlimit="10" stroke-width="0.361"/>
                <rect id="Rectángulo_337935" data-name="Rectángulo 337935" width="25.626" height="10.378" transform="translate(0 48.259)" fill="none" stroke="#efbbae" stroke-miterlimit="10" stroke-width="0.361"/>
                <rect id="Rectángulo_337936" data-name="Rectángulo 337936" width="25.626" height="10.378" transform="translate(0 118.28)" fill="none" stroke="#efbbae" stroke-miterlimit="10" stroke-width="0.361"/>
                <rect id="Rectángulo_337937" data-name="Rectángulo 337937" width="25.626" height="10.378" transform="translate(28.003 89.285)" fill="none" stroke="#efbbae" stroke-miterlimit="10" stroke-width="0.361"/>
                <rect id="Rectángulo_337938" data-name="Rectángulo 337938" width="25.626" height="10.378" transform="translate(46.858 76.558)" fill="none" stroke="#efbbae" stroke-miterlimit="10" stroke-width="0.361"/>
              </g>
              <g id="Grupo_964710" data-name="Grupo 964710" transform="translate(87.412)">
                <rect id="Rectángulo_337939" data-name="Rectángulo 337939" width="25.626" height="10.378" transform="translate(25.113 12.821)" fill="none" stroke="#efbbae" stroke-miterlimit="10" stroke-width="0.361"/>
                <rect id="Rectángulo_337940" data-name="Rectángulo 337940" width="25.626" height="10.378" transform="translate(37.637)" fill="none" stroke="#efbbae" stroke-miterlimit="10" stroke-width="0.361"/>
                <rect id="Rectángulo_337941" data-name="Rectángulo 337941" width="25.626" height="10.378" transform="translate(52.666 13.018)" fill="none" stroke="#efbbae" stroke-miterlimit="10" stroke-width="0.361"/>
                <rect id="Rectángulo_337942" data-name="Rectángulo 337942" width="25.626" height="10.378" transform="translate(25.113 153.258)" fill="none" stroke="#efbbae" stroke-miterlimit="10" stroke-width="0.361"/>
                <rect id="Rectángulo_337943" data-name="Rectángulo 337943" width="25.626" height="10.378" transform="translate(37.637 140.437)" fill="none" stroke="#efbbae" stroke-miterlimit="10" stroke-width="0.361"/>
                <rect id="Rectángulo_337944" data-name="Rectángulo 337944" width="25.626" height="10.378" transform="translate(52.666 153.455)" fill="none" stroke="#efbbae" stroke-miterlimit="10" stroke-width="0.361"/>
                <rect id="Rectángulo_337945" data-name="Rectángulo 337945" width="25.626" height="10.378" transform="translate(0 48.259)" fill="none" stroke="#efbbae" stroke-miterlimit="10" stroke-width="0.361"/>
                <rect id="Rectángulo_337946" data-name="Rectángulo 337946" width="25.626" height="10.378" transform="translate(0 118.28)" fill="none" stroke="#efbbae" stroke-miterlimit="10" stroke-width="0.361"/>
                <rect id="Rectángulo_337947" data-name="Rectángulo 337947" width="25.626" height="10.378" transform="translate(28.003 89.285)" fill="none" stroke="#efbbae" stroke-miterlimit="10" stroke-width="0.361"/>
                <rect id="Rectángulo_337948" data-name="Rectángulo 337948" width="25.626" height="10.378" transform="translate(46.858 76.558)" fill="none" stroke="#efbbae" stroke-miterlimit="10" stroke-width="0.361"/>
              </g>
              <g id="Grupo_964711" data-name="Grupo 964711">
                <rect id="Rectángulo_337949" data-name="Rectángulo 337949" width="25.626" height="10.378" transform="translate(0 12.821)" fill="none" stroke="#efbbae" stroke-miterlimit="10" stroke-width="0.361"/>
                <rect id="Rectángulo_337950" data-name="Rectángulo 337950" width="25.626" height="10.378" transform="translate(12.524)" fill="none" stroke="#efbbae" stroke-miterlimit="10" stroke-width="0.361"/>
                <rect id="Rectángulo_337951" data-name="Rectángulo 337951" width="25.626" height="10.378" transform="translate(27.553 13.018)" fill="none" stroke="#efbbae" stroke-miterlimit="10" stroke-width="0.361"/>
                <rect id="Rectángulo_337952" data-name="Rectángulo 337952" width="25.626" height="10.378" transform="translate(0 153.258)" fill="none" stroke="#efbbae" stroke-miterlimit="10" stroke-width="0.361"/>
                <rect id="Rectángulo_337953" data-name="Rectángulo 337953" width="25.626" height="10.378" transform="translate(12.524 140.437)" fill="none" stroke="#efbbae" stroke-miterlimit="10" stroke-width="0.361"/>
                <rect id="Rectángulo_337954" data-name="Rectángulo 337954" width="25.626" height="10.378" transform="translate(27.553 153.455)" fill="none" stroke="#efbbae" stroke-miterlimit="10" stroke-width="0.361"/>
                <rect id="Rectángulo_337955" data-name="Rectángulo 337955" width="25.626" height="10.378" transform="translate(2.89 89.285)" fill="none" stroke="#efbbae" stroke-miterlimit="10" stroke-width="0.361"/>
                <rect id="Rectángulo_337956" data-name="Rectángulo 337956" width="25.626" height="10.378" transform="translate(21.746 76.558)" fill="none" stroke="#efbbae" stroke-miterlimit="10" stroke-width="0.361"/>
              </g>
            </g>
            <g id="Grupo_964713" data-name="Grupo 964713" transform="translate(0 170.071)">
              <rect id="Rectángulo_337957" data-name="Rectángulo 337957" width="386.317" height="152.189" fill="#fff7da" stroke="#ffe891" stroke-width="1"/>
              <path id="Trazado_192361" data-name="Trazado 192361" d="M0,0H386.317V152.189H0Z" fill="#ffe891" stroke="#ffe891" stroke-width="1" opacity="0.17" style="mix-blend-mode: multiply;isolation: isolate"/>
              <path id="Trazado_192362" data-name="Trazado 192362" d="M0,0H386" transform="translate(0.345 8.169)" fill="none" stroke="#ffe891" stroke-width="0.5"/>
              <line id="Línea_1568" data-name="Línea 1568" y2="143.987" transform="translate(9.42 7.775)" fill="none" stroke="#ffe891" stroke-miterlimit="10" stroke-width="0.5"/>
              <line id="Línea_1569" data-name="Línea 1569" y2="143.987" transform="translate(19.464 7.775)" fill="none" stroke="#ffe891" stroke-miterlimit="10" stroke-width="0.5"/>
              <line id="Línea_1570" data-name="Línea 1570" y2="143.987" transform="translate(29.508 7.775)" fill="none" stroke="#ffe891" stroke-miterlimit="10" stroke-width="0.5"/>
              <line id="Línea_1571" data-name="Línea 1571" y2="143.987" transform="translate(39.552 7.775)" fill="none" stroke="#ffe891" stroke-miterlimit="10" stroke-width="0.5"/>
              <line id="Línea_1572" data-name="Línea 1572" y2="143.987" transform="translate(49.596 7.775)" fill="none" stroke="#ffe891" stroke-miterlimit="10" stroke-width="0.5"/>
              <line id="Línea_1573" data-name="Línea 1573" y2="143.987" transform="translate(59.641 7.775)" fill="none" stroke="#ffe891" stroke-miterlimit="10" stroke-width="0.5"/>
              <line id="Línea_1574" data-name="Línea 1574" y2="143.987" transform="translate(69.685 7.775)" fill="none" stroke="#ffe891" stroke-miterlimit="10" stroke-width="0.5"/>
              <line id="Línea_1575" data-name="Línea 1575" y2="143.987" transform="translate(79.729 7.775)" fill="none" stroke="#ffe891" stroke-miterlimit="10" stroke-width="0.5"/>
              <line id="Línea_1576" data-name="Línea 1576" y2="143.987" transform="translate(89.773 7.775)" fill="none" stroke="#ffe891" stroke-miterlimit="10" stroke-width="0.5"/>
              <line id="Línea_1577" data-name="Línea 1577" y2="143.987" transform="translate(99.818 7.775)" fill="none" stroke="#ffe891" stroke-miterlimit="10" stroke-width="0.5"/>
              <line id="Línea_1578" data-name="Línea 1578" y2="143.987" transform="translate(109.862 7.775)" fill="none" stroke="#ffe891" stroke-miterlimit="10" stroke-width="0.5"/>
              <line id="Línea_1579" data-name="Línea 1579" y2="143.987" transform="translate(119.906 7.775)" fill="none" stroke="#ffe891" stroke-miterlimit="10" stroke-width="0.5"/>
              <line id="Línea_1580" data-name="Línea 1580" y2="143.987" transform="translate(129.95 7.775)" fill="none" stroke="#ffe891" stroke-miterlimit="10" stroke-width="0.5"/>
              <line id="Línea_1581" data-name="Línea 1581" y2="143.987" transform="translate(139.995 7.775)" fill="none" stroke="#ffe891" stroke-miterlimit="10" stroke-width="0.5"/>
              <line id="Línea_1582" data-name="Línea 1582" y2="143.987" transform="translate(150.039 7.775)" fill="none" stroke="#ffe891" stroke-miterlimit="10" stroke-width="0.5"/>
              <line id="Línea_1583" data-name="Línea 1583" y2="143.987" transform="translate(160.083 7.775)" fill="none" stroke="#ffe891" stroke-miterlimit="10" stroke-width="0.5"/>
              <line id="Línea_1584" data-name="Línea 1584" y2="143.987" transform="translate(170.127 7.775)" fill="none" stroke="#ffe891" stroke-miterlimit="10" stroke-width="0.5"/>
              <line id="Línea_1585" data-name="Línea 1585" y2="143.987" transform="translate(180.172 7.775)" fill="none" stroke="#ffe891" stroke-miterlimit="10" stroke-width="0.5"/>
              <line id="Línea_1586" data-name="Línea 1586" y2="143.987" transform="translate(190.216 7.775)" fill="none" stroke="#ffe891" stroke-miterlimit="10" stroke-width="0.5"/>
              <line id="Línea_1587" data-name="Línea 1587" y2="143.987" transform="translate(200.26 7.775)" fill="none" stroke="#ffe891" stroke-miterlimit="10" stroke-width="0.5"/>
              <line id="Línea_1588" data-name="Línea 1588" y2="143.987" transform="translate(210.304 7.775)" fill="none" stroke="#ffe891" stroke-miterlimit="10" stroke-width="0.5"/>
              <line id="Línea_1589" data-name="Línea 1589" y2="143.987" transform="translate(220.349 7.775)" fill="none" stroke="#ffe891" stroke-miterlimit="10" stroke-width="0.5"/>
              <line id="Línea_1590" data-name="Línea 1590" y2="143.987" transform="translate(230.393 7.775)" fill="none" stroke="#ffe891" stroke-miterlimit="10" stroke-width="0.5"/>
              <line id="Línea_1591" data-name="Línea 1591" y2="143.987" transform="translate(240.437 7.775)" fill="none" stroke="#ffe891" stroke-miterlimit="10" stroke-width="0.5"/>
              <line id="Línea_1592" data-name="Línea 1592" y2="143.987" transform="translate(250.481 7.775)" fill="none" stroke="#ffe891" stroke-miterlimit="10" stroke-width="0.5"/>
              <line id="Línea_1593" data-name="Línea 1593" y2="143.987" transform="translate(260.526 7.775)" fill="none" stroke="#ffe891" stroke-miterlimit="10" stroke-width="0.5"/>
              <line id="Línea_1594" data-name="Línea 1594" y2="143.987" transform="translate(270.57 7.775)" fill="none" stroke="#ffe891" stroke-miterlimit="10" stroke-width="0.5"/>
              <line id="Línea_1595" data-name="Línea 1595" y2="143.987" transform="translate(280.614 7.775)" fill="none" stroke="#ffe891" stroke-miterlimit="10" stroke-width="0.5"/>
              <line id="Línea_1596" data-name="Línea 1596" y2="143.987" transform="translate(290.658 7.775)" fill="none" stroke="#ffe891" stroke-miterlimit="10" stroke-width="0.5"/>
              <line id="Línea_1597" data-name="Línea 1597" y2="143.987" transform="translate(300.702 7.775)" fill="none" stroke="#ffe891" stroke-miterlimit="10" stroke-width="0.5"/>
              <line id="Línea_1598" data-name="Línea 1598" y2="143.987" transform="translate(310.747 7.775)" fill="none" stroke="#ffe891" stroke-miterlimit="10" stroke-width="0.5"/>
              <line id="Línea_1599" data-name="Línea 1599" y2="143.987" transform="translate(320.791 7.775)" fill="none" stroke="#ffe891" stroke-miterlimit="10" stroke-width="0.5"/>
              <line id="Línea_1600" data-name="Línea 1600" y2="143.987" transform="translate(330.835 7.775)" fill="none" stroke="#ffe891" stroke-miterlimit="10" stroke-width="0.5"/>
              <line id="Línea_1601" data-name="Línea 1601" y2="143.987" transform="translate(340.879 7.775)" fill="none" stroke="#ffe891" stroke-miterlimit="10" stroke-width="0.5"/>
              <line id="Línea_1602" data-name="Línea 1602" y2="143.987" transform="translate(350.924 7.775)" fill="none" stroke="#ffe891" stroke-miterlimit="10" stroke-width="0.5"/>
              <line id="Línea_1603" data-name="Línea 1603" y2="143.987" transform="translate(360.968 7.775)" fill="none" stroke="#ffe891" stroke-miterlimit="10" stroke-width="0.5"/>
              <line id="Línea_1604" data-name="Línea 1604" y2="143.987" transform="translate(371.012 7.775)" fill="none" stroke="#ffe891" stroke-miterlimit="10" stroke-width="0.5"/>
              <line id="Línea_1605" data-name="Línea 1605" y2="143.987" transform="translate(381.056 7.775)" fill="none" stroke="#efbbae" stroke-miterlimit="10" stroke-width="0.5"/>
            </g>
          </g>
        </g>
        <g id="Grupo_964757" data-name="Grupo 964757" transform="translate(42.935 0.021)">
          <g id="Grupo_964751" data-name="Grupo 964751" transform="translate(0 55.01)">
            <g id="Grupo_964744" data-name="Grupo 964744" transform="translate(183.962 10.64)">
              <g id="Grupo_964729" data-name="Grupo 964729" transform="translate(0.789)">
                <rect id="Rectángulo_337959" data-name="Rectángulo 337959" width="133.862" height="6.312" transform="translate(0 20.677)" fill="#ffe891"/>
                <g id="Grupo_964728" data-name="Grupo 964728" transform="translate(5.391)">
                  <g id="Grupo_964717" data-name="Grupo 964717" transform="translate(99.103)">
                    <path id="Trazado_192295" data-name="Trazado 192295" d="M436.533,105h-.014a6.251,6.251,0,0,1-5.186-3.333,12.03,12.03,0,0,1-1.323-5.815,7.808,7.808,0,0,1,1.1-4.742,4.127,4.127,0,0,1,2.659-1.646,3.067,3.067,0,0,1,2.325.524l-.925,1.252A1.529,1.529,0,0,0,434.015,91a2.576,2.576,0,0,0-1.635,1.014,6.443,6.443,0,0,0-.813,3.806,10.583,10.583,0,0,0,1.122,5.081,4.682,4.682,0,0,0,3.836,2.543h.011a5.935,5.935,0,0,0,2.714-.817l.714,1.383A7.7,7.7,0,0,1,436.533,105Z" transform="translate(-430.006 -86.006)" fill="#fcf2ca"/>
                    <g id="Grupo_964716" data-name="Grupo 964716" transform="translate(4.26)">
                      <path id="Trazado_192296" data-name="Trazado 192296" d="M451.669,85l-.367,2.315-.328,2.05-.066.414-.426,2.651-.328,2.056-.289,1.784-.138.852v.008l-.328,2.05-.5,3.1v.023l-.321,2.026-.2,1.228-10.1.3-.032-.256-.31-2.3-.111-.821-.11-.814-.32-2.356v-.008l-.22-1.629-.31-2.3-.011-.093-.209-1.535-.321-2.38-.22-1.628-.15-1.116-.169-1.24-.212-1.629-.06-.434a3.286,3.286,0,0,0,.647.02c.14,0,.3,0,.49,0,.521-.008,1.19-.012,1.961-.028l.093,0c1.082-.016,2.365-.047,3.687-.079.848-.018,1.719-.044,2.559-.061l.4-.012c1.3-.031,2.543-.06,3.57-.091h.008c.6-.01,1.128-.026,1.556-.039.459-.006.809-.017,1-.022Z" transform="translate(-435.521 -85.001)" fill="#fcf2ca"/>
                    </g>
                    <path id="Trazado_192297" data-name="Trazado 192297" d="M450.831,85.161c.013.427-3.181.866-7.124.983s-7.157-.127-7.169-.555c0-.086.12-.167.351-.244,2.949-.026,10.827-.231,13.829-.313C450.789,85.069,450.829,85.115,450.831,85.161Z" transform="translate(-431.492 -85.008)" fill="#fcf2ca"/>
                  </g>
                  <g id="Grupo_964719" data-name="Grupo 964719" transform="translate(79.282)">
                    <path id="Trazado_192298" data-name="Trazado 192298" d="M410.876,105h-.013a6.252,6.252,0,0,1-5.187-3.333,12.047,12.047,0,0,1-1.323-5.815,7.814,7.814,0,0,1,1.1-4.742,4.127,4.127,0,0,1,2.658-1.646,3.067,3.067,0,0,1,2.325.524l-.925,1.252A1.528,1.528,0,0,0,408.359,91a2.578,2.578,0,0,0-1.636,1.014,6.437,6.437,0,0,0-.813,3.806,10.574,10.574,0,0,0,1.122,5.081,4.682,4.682,0,0,0,3.836,2.543h.011a5.937,5.937,0,0,0,2.715-.817l.713,1.383A7.693,7.693,0,0,1,410.876,105Z" transform="translate(-404.35 -86.006)" fill="#fcf2ca"/>
                    <g id="Grupo_964718" data-name="Grupo 964718" transform="translate(4.26)">
                      <path id="Trazado_192299" data-name="Trazado 192299" d="M426.012,85l-.366,2.315-.328,2.05-.066.414-.426,2.651-.328,2.056-.29,1.784-.138.852v.008l-.328,2.05-.5,3.1v.023l-.321,2.026-.2,1.228-10.1.3-.031-.256-.311-2.3-.11-.821-.111-.814-.319-2.356v-.008l-.219-1.629-.311-2.3-.011-.093L411,93.748l-.32-2.38-.22-1.628-.151-1.116-.169-1.24-.212-1.629-.059-.434a3.291,3.291,0,0,0,.647.02c.141,0,.3,0,.491,0,.521-.008,1.19-.012,1.961-.028l.093,0c1.082-.016,2.365-.047,3.687-.079.847-.018,1.719-.044,2.559-.061l.4-.012c1.3-.031,2.543-.06,3.569-.091h.008c.6-.01,1.128-.026,1.556-.039.459-.006.809-.017,1-.022Z" transform="translate(-409.864 -85.001)" fill="#fcf2ca"/>
                    </g>
                    <path id="Trazado_192300" data-name="Trazado 192300" d="M425.174,85.161c.013.427-3.18.866-7.123.983s-7.157-.127-7.17-.555c0-.086.12-.167.351-.244,2.95-.026,10.828-.231,13.829-.313C425.132,85.069,425.173,85.115,425.174,85.161Z" transform="translate(-405.835 -85.008)" fill="#fcf2ca"/>
                  </g>
                  <g id="Grupo_964721" data-name="Grupo 964721" transform="translate(59.462)">
                    <path id="Trazado_192301" data-name="Trazado 192301" d="M385.22,105h-.014a6.251,6.251,0,0,1-5.186-3.333,12.029,12.029,0,0,1-1.323-5.815,7.808,7.808,0,0,1,1.1-4.742,4.127,4.127,0,0,1,2.659-1.646,3.067,3.067,0,0,1,2.325.524l-.925,1.252A1.529,1.529,0,0,0,382.7,91a2.576,2.576,0,0,0-1.635,1.014,6.443,6.443,0,0,0-.813,3.806,10.582,10.582,0,0,0,1.122,5.081,4.681,4.681,0,0,0,3.836,2.543h.011a5.937,5.937,0,0,0,2.714-.817l.714,1.383A7.7,7.7,0,0,1,385.22,105Z" transform="translate(-378.693 -86.006)" fill="#fcf2ca"/>
                    <g id="Grupo_964720" data-name="Grupo 964720" transform="translate(4.26)">
                      <path id="Trazado_192302" data-name="Trazado 192302" d="M400.356,85l-.367,2.315-.327,2.05-.066.414-.426,2.651-.328,2.056-.289,1.784-.138.852v.008l-.328,2.05-.5,3.1v.023l-.321,2.026-.2,1.228-10.1.3-.032-.256-.31-2.3-.11-.821-.11-.814-.32-2.356v-.008l-.22-1.629-.311-2.3-.01-.093-.209-1.535-.321-2.38-.22-1.628-.15-1.116-.17-1.24-.212-1.629-.06-.434a3.3,3.3,0,0,0,.647.02c.141,0,.3,0,.491,0,.521-.008,1.19-.012,1.961-.028l.094,0c1.082-.016,2.365-.047,3.687-.079.848-.018,1.719-.044,2.559-.061l.4-.012c1.3-.031,2.543-.06,3.57-.091h.008c.6-.01,1.128-.026,1.555-.039.46-.006.81-.017,1-.022Z" transform="translate(-384.207 -85.001)" fill="#fcf2ca"/>
                    </g>
                    <path id="Trazado_192303" data-name="Trazado 192303" d="M399.518,85.161c.012.427-3.181.866-7.124.983s-7.157-.127-7.169-.555c0-.086.119-.167.351-.244,2.949-.026,10.827-.231,13.829-.313C399.476,85.069,399.516,85.115,399.518,85.161Z" transform="translate(-380.179 -85.008)" fill="#fcf2ca"/>
                  </g>
                  <g id="Grupo_964723" data-name="Grupo 964723" transform="translate(39.641)">
                    <path id="Trazado_192304" data-name="Trazado 192304" d="M359.563,105h-.013a6.251,6.251,0,0,1-5.187-3.333,12.047,12.047,0,0,1-1.323-5.815,7.813,7.813,0,0,1,1.1-4.742,4.129,4.129,0,0,1,2.659-1.646,3.067,3.067,0,0,1,2.325.524L358.2,91.24A1.528,1.528,0,0,0,357.046,91a2.578,2.578,0,0,0-1.636,1.014,6.437,6.437,0,0,0-.813,3.806,10.574,10.574,0,0,0,1.122,5.081,4.682,4.682,0,0,0,3.836,2.543h.011a5.937,5.937,0,0,0,2.715-.817l.713,1.383A7.693,7.693,0,0,1,359.563,105Z" transform="translate(-353.036 -86.006)" fill="#fcf2ca"/>
                    <g id="Grupo_964722" data-name="Grupo 964722" transform="translate(4.26)">
                      <path id="Trazado_192305" data-name="Trazado 192305" d="M374.7,85l-.366,2.315L374,89.365l-.065.414-.426,2.651-.328,2.056-.29,1.784-.138.852v.008l-.328,2.05-.5,3.1v.023l-.321,2.026-.2,1.228-10.1.3-.031-.256-.311-2.3-.11-.821-.111-.814-.32-2.356v-.008l-.22-1.629-.31-2.3-.011-.093-.209-1.535-.321-2.38-.219-1.628-.151-1.116-.169-1.24-.212-1.629-.06-.434a3.292,3.292,0,0,0,.647.02c.14,0,.3,0,.491,0,.521-.008,1.19-.012,1.96-.028l.093,0c1.082-.016,2.365-.047,3.687-.079.847-.018,1.719-.044,2.559-.061l.4-.012c1.3-.031,2.544-.06,3.57-.091h.008c.6-.01,1.128-.026,1.556-.039.459-.006.809-.017,1-.022Z" transform="translate(-358.551 -85.001)" fill="#fcf2ca"/>
                    </g>
                    <path id="Trazado_192306" data-name="Trazado 192306" d="M373.861,85.161c.013.427-3.181.866-7.123.983s-7.157-.127-7.17-.555c0-.086.12-.167.351-.244,2.949-.026,10.828-.231,13.829-.313C373.819,85.069,373.859,85.115,373.861,85.161Z" transform="translate(-354.522 -85.008)" fill="#fcf2ca"/>
                  </g>
                  <g id="Grupo_964725" data-name="Grupo 964725" transform="translate(19.821)">
                    <path id="Trazado_192307" data-name="Trazado 192307" d="M333.907,105h-.014a6.251,6.251,0,0,1-5.186-3.333,12.029,12.029,0,0,1-1.323-5.815,7.807,7.807,0,0,1,1.1-4.742,4.127,4.127,0,0,1,2.659-1.646,3.068,3.068,0,0,1,2.325.524l-.925,1.252A1.529,1.529,0,0,0,331.389,91a2.58,2.58,0,0,0-1.636,1.014,6.449,6.449,0,0,0-.813,3.806,10.584,10.584,0,0,0,1.122,5.081,4.681,4.681,0,0,0,3.835,2.543h.011a5.937,5.937,0,0,0,2.715-.817l.714,1.383A7.7,7.7,0,0,1,333.907,105Z" transform="translate(-327.38 -86.006)" fill="#fcf2ca"/>
                    <g id="Grupo_964724" data-name="Grupo 964724" transform="translate(4.26)">
                      <path id="Trazado_192308" data-name="Trazado 192308" d="M349.043,85l-.367,2.315-.328,2.05-.066.414-.426,2.651-.328,2.056-.289,1.784-.138.852v.008l-.328,2.05-.5,3.1v.023l-.321,2.026-.2,1.228-10.1.3-.031-.256-.31-2.3-.11-.821-.11-.814-.32-2.356v-.008l-.22-1.629-.311-2.3-.01-.093-.21-1.535-.32-2.38-.22-1.628-.15-1.116-.17-1.24-.212-1.629-.06-.434a3.3,3.3,0,0,0,.647.02c.141,0,.3,0,.491,0,.521-.008,1.19-.012,1.961-.028l.093,0c1.081-.016,2.365-.047,3.687-.079.848-.018,1.719-.044,2.559-.061l.4-.012c1.3-.031,2.543-.06,3.57-.091h.008c.6-.01,1.128-.026,1.555-.039.459-.006.809-.017,1-.022Z" transform="translate(-332.894 -85.001)" fill="#fcf2ca"/>
                    </g>
                    <path id="Trazado_192309" data-name="Trazado 192309" d="M348.2,85.161c.012.427-3.181.866-7.124.983s-7.157-.127-7.169-.555c0-.086.119-.167.351-.244,2.949-.026,10.827-.231,13.829-.313C348.163,85.069,348.2,85.115,348.2,85.161Z" transform="translate(-328.866 -85.008)" fill="#fcf2ca"/>
                  </g>
                  <g id="Grupo_964727" data-name="Grupo 964727">
                    <path id="Trazado_192310" data-name="Trazado 192310" d="M308.25,105h-.013a6.251,6.251,0,0,1-5.187-3.333,12.047,12.047,0,0,1-1.323-5.815,7.808,7.808,0,0,1,1.1-4.742,4.129,4.129,0,0,1,2.659-1.646,3.067,3.067,0,0,1,2.325.524l-.925,1.252A1.528,1.528,0,0,0,305.733,91a2.578,2.578,0,0,0-1.636,1.014,6.443,6.443,0,0,0-.813,3.806,10.582,10.582,0,0,0,1.122,5.081,4.682,4.682,0,0,0,3.836,2.543h.011a5.937,5.937,0,0,0,2.715-.817l.713,1.383A7.693,7.693,0,0,1,308.25,105Z" transform="translate(-301.723 -86.006)" fill="#fcf2ca"/>
                    <g id="Grupo_964726" data-name="Grupo 964726" transform="translate(4.26)">
                      <path id="Trazado_192311" data-name="Trazado 192311" d="M323.386,85l-.366,2.315-.328,2.05-.065.414L322.2,92.43l-.328,2.056-.289,1.784-.138.852v.008l-.328,2.05-.5,3.1v.023l-.321,2.026-.2,1.228-10.1.3-.031-.256-.311-2.3-.11-.821-.11-.814-.32-2.356v-.008l-.22-1.629-.31-2.3-.011-.093-.209-1.535-.321-2.38-.219-1.628-.151-1.116-.169-1.24-.212-1.629-.059-.434a3.286,3.286,0,0,0,.647.02c.14,0,.3,0,.491,0,.521-.008,1.19-.012,1.96-.028l.094,0c1.082-.016,2.365-.047,3.687-.079.847-.018,1.719-.044,2.559-.061l.4-.012c1.3-.031,2.543-.06,3.57-.091h.008c.6-.01,1.128-.026,1.556-.039.459-.006.809-.017,1-.022Z" transform="translate(-307.238 -85.001)" fill="#fcf2ca"/>
                    </g>
                    <path id="Trazado_192312" data-name="Trazado 192312" d="M322.548,85.161c.013.427-3.181.866-7.124.983s-7.156-.127-7.169-.555c0-.086.12-.167.351-.244,2.949-.026,10.827-.231,13.829-.313C322.506,85.069,322.546,85.115,322.548,85.161Z" transform="translate(-303.209 -85.008)" fill="#fcf2ca"/>
                  </g>
                </g>
              </g>
              <g id="Grupo_964743" data-name="Grupo 964743" transform="translate(0 40.5)">
                <rect id="Rectángulo_337960" data-name="Rectángulo 337960" width="133.862" height="6.312" transform="translate(0 20.94)" fill="#ffe891"/>
                <g id="Grupo_964742" data-name="Grupo 964742" transform="translate(6.18)">
                  <g id="Grupo_964731" data-name="Grupo 964731" transform="translate(99.103)">
                    <path id="Trazado_192313" data-name="Trazado 192313" d="M436.533,157.427h-.014a6.253,6.253,0,0,1-5.186-3.333,12.032,12.032,0,0,1-1.323-5.815,7.81,7.81,0,0,1,1.1-4.743,4.126,4.126,0,0,1,2.659-1.645,3.061,3.061,0,0,1,2.325.524l-.925,1.252a1.526,1.526,0,0,0-1.157-.239,2.575,2.575,0,0,0-1.635,1.014,6.444,6.444,0,0,0-.813,3.806,10.586,10.586,0,0,0,1.122,5.082,4.683,4.683,0,0,0,3.836,2.542h.011a5.942,5.942,0,0,0,2.714-.816l.714,1.383A7.715,7.715,0,0,1,436.533,157.427Z" transform="translate(-430.006 -138.431)" fill="#fcf2ca"/>
                    <g id="Grupo_964730" data-name="Grupo 964730" transform="translate(4.26)">
                      <path id="Trazado_192314" data-name="Trazado 192314" d="M451.669,137.426l-.367,2.315-.328,2.049-.066.415-.426,2.651-.328,2.056-.289,1.783-.138.853v.008l-.328,2.049-.5,3.1v.024l-.321,2.025-.2,1.228-10.1.3-.032-.256-.31-2.3-.111-.822-.11-.813-.32-2.357v-.008l-.22-1.628-.31-2.3-.011-.093-.209-1.535-.321-2.379-.22-1.628-.15-1.116-.169-1.241-.212-1.628-.06-.434a3.336,3.336,0,0,0,.647.019c.14,0,.3,0,.49,0,.521-.008,1.19-.012,1.961-.027l.093,0c1.082-.017,2.365-.048,3.687-.08.848-.017,1.719-.043,2.559-.061l.4-.012c1.3-.031,2.543-.061,3.57-.091h.008c.6-.01,1.128-.025,1.556-.039.459-.006.809-.016,1-.022Z" transform="translate(-435.521 -137.426)" fill="#fcf2ca"/>
                    </g>
                    <path id="Trazado_192315" data-name="Trazado 192315" d="M450.831,137.586c.013.428-3.181.866-7.124.984s-7.157-.128-7.169-.556c0-.085.12-.167.351-.243,2.949-.026,10.827-.231,13.829-.313C450.789,137.494,450.829,137.54,450.831,137.586Z" transform="translate(-431.492 -137.433)" fill="#fcf2ca"/>
                  </g>
                  <g id="Grupo_964733" data-name="Grupo 964733" transform="translate(79.282)">
                    <path id="Trazado_192316" data-name="Trazado 192316" d="M410.876,157.427h-.013a6.254,6.254,0,0,1-5.187-3.333,12.049,12.049,0,0,1-1.323-5.815,7.816,7.816,0,0,1,1.1-4.743,4.127,4.127,0,0,1,2.658-1.645,3.06,3.06,0,0,1,2.325.524l-.925,1.252a1.524,1.524,0,0,0-1.156-.239,2.577,2.577,0,0,0-1.636,1.014,6.438,6.438,0,0,0-.813,3.806,10.577,10.577,0,0,0,1.122,5.082,4.683,4.683,0,0,0,3.836,2.542h.011a5.944,5.944,0,0,0,2.715-.816l.713,1.383A7.712,7.712,0,0,1,410.876,157.427Z" transform="translate(-404.35 -138.431)" fill="#fcf2ca"/>
                    <g id="Grupo_964732" data-name="Grupo 964732" transform="translate(4.26)">
                      <path id="Trazado_192317" data-name="Trazado 192317" d="M426.012,137.426l-.366,2.315-.328,2.049-.066.415-.426,2.651-.328,2.056-.29,1.783-.138.853v.008l-.328,2.049-.5,3.1v.024l-.321,2.025-.2,1.228-10.1.3-.031-.256-.311-2.3-.11-.822-.111-.813-.319-2.357v-.008l-.219-1.628-.311-2.3-.011-.093L411,146.173l-.32-2.379-.22-1.628-.151-1.116-.169-1.241-.212-1.628-.059-.434a3.341,3.341,0,0,0,.647.019c.141,0,.3,0,.491,0,.521-.008,1.19-.012,1.961-.027l.093,0c1.082-.017,2.365-.048,3.687-.08.847-.017,1.719-.043,2.559-.061l.4-.012c1.3-.031,2.543-.061,3.569-.091h.008c.6-.01,1.128-.025,1.556-.039.459-.006.809-.016,1-.022Z" transform="translate(-409.864 -137.426)" fill="#fcf2ca"/>
                    </g>
                    <path id="Trazado_192318" data-name="Trazado 192318" d="M425.174,137.586c.013.428-3.18.866-7.123.984s-7.157-.128-7.17-.556c0-.085.12-.167.351-.243,2.95-.026,10.828-.231,13.829-.313C425.132,137.494,425.173,137.54,425.174,137.586Z" transform="translate(-405.835 -137.433)" fill="#fcf2ca"/>
                  </g>
                  <g id="Grupo_964735" data-name="Grupo 964735" transform="translate(59.462)">
                    <path id="Trazado_192319" data-name="Trazado 192319" d="M385.22,157.427h-.014a6.253,6.253,0,0,1-5.186-3.333,12.032,12.032,0,0,1-1.323-5.815,7.81,7.81,0,0,1,1.1-4.743,4.126,4.126,0,0,1,2.659-1.645,3.06,3.06,0,0,1,2.325.524l-.925,1.252a1.526,1.526,0,0,0-1.157-.239,2.575,2.575,0,0,0-1.635,1.014,6.444,6.444,0,0,0-.813,3.806,10.585,10.585,0,0,0,1.122,5.082,4.682,4.682,0,0,0,3.836,2.542h.011a5.944,5.944,0,0,0,2.714-.816l.714,1.383A7.715,7.715,0,0,1,385.22,157.427Z" transform="translate(-378.693 -138.431)" fill="#fcf2ca"/>
                    <g id="Grupo_964734" data-name="Grupo 964734" transform="translate(4.26)">
                      <path id="Trazado_192320" data-name="Trazado 192320" d="M400.356,137.426l-.367,2.315-.327,2.049-.066.415-.426,2.651-.328,2.056-.289,1.783-.138.853v.008l-.328,2.049-.5,3.1v.024l-.321,2.025-.2,1.228-10.1.3-.032-.256-.31-2.3-.11-.822-.11-.813-.32-2.357v-.008l-.22-1.628-.311-2.3-.01-.093-.209-1.535-.321-2.379-.22-1.628-.15-1.116-.17-1.241-.212-1.628-.06-.434a3.348,3.348,0,0,0,.647.019c.141,0,.3,0,.491,0,.521-.008,1.19-.012,1.961-.027l.094,0c1.082-.017,2.365-.048,3.687-.08.848-.017,1.719-.043,2.559-.061l.4-.012c1.3-.031,2.543-.061,3.57-.091h.008c.6-.01,1.128-.025,1.555-.039.46-.006.81-.016,1-.022Z" transform="translate(-384.207 -137.426)" fill="#fcf2ca"/>
                    </g>
                    <path id="Trazado_192321" data-name="Trazado 192321" d="M399.518,137.586c.012.428-3.181.866-7.124.984s-7.157-.128-7.169-.556c0-.085.119-.167.351-.243,2.949-.026,10.827-.231,13.829-.313C399.476,137.494,399.516,137.54,399.518,137.586Z" transform="translate(-380.179 -137.433)" fill="#fcf2ca"/>
                  </g>
                  <g id="Grupo_964737" data-name="Grupo 964737" transform="translate(39.641)">
                    <path id="Trazado_192322" data-name="Trazado 192322" d="M359.563,157.427h-.013a6.253,6.253,0,0,1-5.187-3.333,12.05,12.05,0,0,1-1.323-5.815,7.815,7.815,0,0,1,1.1-4.743,4.128,4.128,0,0,1,2.659-1.645,3.061,3.061,0,0,1,2.325.524l-.925,1.252a1.524,1.524,0,0,0-1.156-.239,2.577,2.577,0,0,0-1.636,1.014,6.438,6.438,0,0,0-.813,3.806,10.577,10.577,0,0,0,1.122,5.082,4.683,4.683,0,0,0,3.836,2.542h.011a5.944,5.944,0,0,0,2.715-.816l.713,1.383A7.712,7.712,0,0,1,359.563,157.427Z" transform="translate(-353.036 -138.431)" fill="#fcf2ca"/>
                    <g id="Grupo_964736" data-name="Grupo 964736" transform="translate(4.26)">
                      <path id="Trazado_192323" data-name="Trazado 192323" d="M374.7,137.426l-.366,2.315L374,141.79l-.065.415-.426,2.651-.328,2.056-.29,1.783-.138.853v.008l-.328,2.049-.5,3.1v.024l-.321,2.025-.2,1.228-10.1.3-.031-.256-.311-2.3-.11-.822-.111-.813-.32-2.357v-.008l-.22-1.628-.31-2.3-.011-.093-.209-1.535-.321-2.379-.219-1.628-.151-1.116-.169-1.241-.212-1.628-.06-.434a3.342,3.342,0,0,0,.647.019c.14,0,.3,0,.491,0,.521-.008,1.19-.012,1.96-.027l.093,0c1.082-.017,2.365-.048,3.687-.08.847-.017,1.719-.043,2.559-.061l.4-.012c1.3-.031,2.544-.061,3.57-.091h.008c.6-.01,1.128-.025,1.556-.039.459-.006.809-.016,1-.022Z" transform="translate(-358.551 -137.426)" fill="#fcf2ca"/>
                    </g>
                    <path id="Trazado_192324" data-name="Trazado 192324" d="M373.861,137.586c.013.428-3.181.866-7.123.984s-7.157-.128-7.17-.556c0-.085.12-.167.351-.243,2.949-.026,10.828-.231,13.829-.313C373.819,137.494,373.859,137.54,373.861,137.586Z" transform="translate(-354.522 -137.433)" fill="#fcf2ca"/>
                  </g>
                  <g id="Grupo_964739" data-name="Grupo 964739" transform="translate(19.821)">
                    <path id="Trazado_192325" data-name="Trazado 192325" d="M333.907,157.427h-.014a6.253,6.253,0,0,1-5.186-3.333,12.032,12.032,0,0,1-1.323-5.815,7.81,7.81,0,0,1,1.1-4.743,4.126,4.126,0,0,1,2.659-1.645,3.061,3.061,0,0,1,2.325.524l-.925,1.252a1.525,1.525,0,0,0-1.157-.239,2.579,2.579,0,0,0-1.636,1.014,6.45,6.45,0,0,0-.813,3.806,10.587,10.587,0,0,0,1.122,5.082,4.682,4.682,0,0,0,3.835,2.542h.011a5.944,5.944,0,0,0,2.715-.816l.714,1.383A7.718,7.718,0,0,1,333.907,157.427Z" transform="translate(-327.38 -138.431)" fill="#fcf2ca"/>
                    <g id="Grupo_964738" data-name="Grupo 964738" transform="translate(4.26)">
                      <path id="Trazado_192326" data-name="Trazado 192326" d="M349.043,137.426l-.367,2.315-.328,2.049-.066.415-.426,2.651-.328,2.056-.289,1.783-.138.853v.008l-.328,2.049-.5,3.1v.024l-.321,2.025-.2,1.228-10.1.3-.031-.256-.31-2.3-.11-.822-.11-.813-.32-2.357v-.008l-.22-1.628-.311-2.3-.01-.093-.21-1.535-.32-2.379-.22-1.628-.15-1.116-.17-1.241-.212-1.628-.06-.434a3.347,3.347,0,0,0,.647.019c.141,0,.3,0,.491,0,.521-.008,1.19-.012,1.961-.027l.093,0c1.081-.017,2.365-.048,3.687-.08.848-.017,1.719-.043,2.559-.061l.4-.012c1.3-.031,2.543-.061,3.57-.091h.008c.6-.01,1.128-.025,1.555-.039.459-.006.809-.016,1-.022Z" transform="translate(-332.894 -137.426)" fill="#fcf2ca"/>
                    </g>
                    <path id="Trazado_192327" data-name="Trazado 192327" d="M348.2,137.586c.012.428-3.181.866-7.124.984s-7.157-.128-7.169-.556c0-.085.119-.167.351-.243,2.949-.026,10.827-.231,13.829-.313C348.163,137.494,348.2,137.54,348.2,137.586Z" transform="translate(-328.866 -137.433)" fill="#fcf2ca"/>
                  </g>
                  <g id="Grupo_964741" data-name="Grupo 964741">
                    <path id="Trazado_192328" data-name="Trazado 192328" d="M308.25,157.427h-.013a6.253,6.253,0,0,1-5.187-3.333,12.049,12.049,0,0,1-1.323-5.815,7.81,7.81,0,0,1,1.1-4.743,4.128,4.128,0,0,1,2.659-1.645,3.061,3.061,0,0,1,2.325.524l-.925,1.252a1.524,1.524,0,0,0-1.156-.239,2.577,2.577,0,0,0-1.636,1.014,6.444,6.444,0,0,0-.813,3.806,10.585,10.585,0,0,0,1.122,5.082,4.683,4.683,0,0,0,3.836,2.542h.011a5.944,5.944,0,0,0,2.715-.816l.713,1.383A7.712,7.712,0,0,1,308.25,157.427Z" transform="translate(-301.723 -138.431)" fill="#fcf2ca"/>
                    <g id="Grupo_964740" data-name="Grupo 964740" transform="translate(4.26)">
                      <path id="Trazado_192329" data-name="Trazado 192329" d="M323.386,137.426l-.366,2.315-.328,2.049-.065.415-.427,2.651-.328,2.056-.289,1.783-.138.853v.008l-.328,2.049-.5,3.1v.024l-.321,2.025-.2,1.228-10.1.3-.031-.256-.311-2.3-.11-.822-.11-.813-.32-2.357v-.008l-.22-1.628-.31-2.3-.011-.093-.209-1.535-.321-2.379-.219-1.628-.151-1.116-.169-1.241-.212-1.628-.059-.434a3.336,3.336,0,0,0,.647.019c.14,0,.3,0,.491,0,.521-.008,1.19-.012,1.96-.027l.094,0c1.082-.017,2.365-.048,3.687-.08.847-.017,1.719-.043,2.559-.061l.4-.012c1.3-.031,2.543-.061,3.57-.091h.008c.6-.01,1.128-.025,1.556-.039.459-.006.809-.016,1-.022Z" transform="translate(-307.238 -137.426)" fill="#fcf2ca"/>
                    </g>
                    <path id="Trazado_192330" data-name="Trazado 192330" d="M322.548,137.586c.013.428-3.181.866-7.124.984s-7.156-.128-7.169-.556c0-.085.12-.167.351-.243,2.949-.026,10.827-.231,13.829-.313C322.506,137.494,322.546,137.54,322.548,137.586Z" transform="translate(-303.209 -137.433)" fill="#fcf2ca"/>
                  </g>
                </g>
              </g>
            </g>
            <g id="Grupo_964747" data-name="Grupo 964747">
              <path id="Trazado_192360" data-name="Trazado 192360" d="M0,0H62.066V79.686H0Z" fill="#f9df7f"/>
              <rect id="Rectángulo_337962" data-name="Rectángulo 337962" width="51.02" height="69.045" transform="translate(5.523 5.644)" fill="#ffefe6"/>
              <g id="Grupo_964745" data-name="Grupo 964745" transform="translate(20.136 10.162)">
                <path id="Trazado_192331" data-name="Trazado 192331" d="M83.782,89.276c0,.453.132.693.462.693.627,0,1.361-1.271,1.361-2.921,0-1.114-.47-2.029-1.567-2.029A1.644,1.644,0,0,0,82.3,86.884a1.9,1.9,0,0,0,.437,1.279c.09-.025.124.033.124.115,0,.215-.206.487-.4.487a.191.191,0,0,1-.124-.041,2.458,2.458,0,0,1-.684-1.791,2.354,2.354,0,0,1,2.4-2.55c1.534,0,2.2,1.271,2.2,2.6,0,2.343-1.163,3.622-2.071,3.622-.776,0-1.057-.494-1.057-1.369v-3.16a1.812,1.812,0,0,0-.032-.264c0-.083.1-.141.215-.141a.413.413,0,0,1,.462.363Z" transform="translate(-81.661 -84.383)" fill="#f4d9ce"/>
                <path id="Trazado_192332" data-name="Trazado 192332" d="M88.88,90.253a.769.769,0,0,0,.768.512c.644,0,.908-.536,1.007-1.04.074-.372.536-.206.5.083a1.576,1.576,0,0,1-1.6,1.5,1.51,1.51,0,0,1-1.46-1.634c0-1.048.627-1.832,1.262-1.832a.741.741,0,0,1,.742.833A1.693,1.693,0,0,1,88.88,90.253Zm-.1-.453a1.2,1.2,0,0,0,.677-1.114c0-.182-.066-.288-.173-.288-.4,0-.528.907-.511,1.254C88.774,89.7,88.781,89.75,88.781,89.8Z" transform="translate(-83.125 -85.17)" fill="#f4d9ce"/>
                <path id="Trazado_192333" data-name="Trazado 192333" d="M91.294,89.674c.083-.363.256-.834.4-1.271a.683.683,0,0,1-.131-.388c0-.28.478-.652.7-.652.2,0,.3.148.3.372a1.611,1.611,0,0,1-.2.561c.388.685.891.982.891,1.766a1.17,1.17,0,0,1-.041.3.869.869,0,0,0,.676-.594c.058-.156.116-.222.19-.222.14,0,.3.214.3.33a1.115,1.115,0,0,1-.38.636,1.863,1.863,0,0,1-1.105.4,1.21,1.21,0,0,1-.809.3,1.516,1.516,0,0,1-.907-.347c-.4-.388-.182-.825,0-.825.165,0,.915.479,1.328.479a.818.818,0,0,0,.182-.5,1.652,1.652,0,0,0-.594-1.163,7.906,7.906,0,0,0-.322,1C91.682,90.185,91.228,89.954,91.294,89.674Z" transform="translate(-83.774 -85.061)" fill="#f4d9ce"/>
                <path id="Trazado_192334" data-name="Trazado 192334" d="M94.7,89.674c.083-.363.256-.834.4-1.271a.684.684,0,0,1-.132-.388c0-.28.478-.652.7-.652.2,0,.3.148.3.372a1.591,1.591,0,0,1-.2.561c.388.685.892.982.892,1.766a1.206,1.206,0,0,1-.041.3.869.869,0,0,0,.676-.594c.058-.156.116-.222.19-.222.14,0,.3.214.3.33a1.113,1.113,0,0,1-.379.636,1.863,1.863,0,0,1-1.105.4,1.209,1.209,0,0,1-.809.3,1.52,1.52,0,0,1-.908-.347c-.4-.388-.182-.825,0-.825.165,0,.916.479,1.329.479a.822.822,0,0,0,.182-.5A1.655,1.655,0,0,0,95.5,88.84a7.909,7.909,0,0,0-.322,1C95.087,90.185,94.633,89.954,94.7,89.674Z" transform="translate(-84.549 -85.061)" fill="#f4d9ce"/>
                <path id="Trazado_192335" data-name="Trazado 192335" d="M98.86,90.253a.768.768,0,0,0,.767.512c.644,0,.908-.536,1.007-1.04.074-.372.536-.206.5.083a1.575,1.575,0,0,1-1.6,1.5,1.51,1.51,0,0,1-1.461-1.634c0-1.048.627-1.832,1.262-1.832a.742.742,0,0,1,.743.833A1.694,1.694,0,0,1,98.86,90.253Zm-.1-.453a1.2,1.2,0,0,0,.677-1.114c0-.182-.066-.288-.174-.288-.4,0-.528.907-.511,1.254C98.753,89.7,98.761,89.75,98.761,89.8Z" transform="translate(-85.395 -85.17)" fill="#f4d9ce"/>
                <path id="Trazado_192336" data-name="Trazado 192336" d="M102.261,90.264a5.364,5.364,0,0,1,.413-1.823h-.718a6.593,6.593,0,0,1-.206,1.518c-.107.347-.536.049-.462-.231a7.648,7.648,0,0,0,.132-1.435.609.609,0,0,1-.355-.528.392.392,0,0,1,.413-.38.522.522,0,0,1,.519.438,3.138,3.138,0,0,0,.438.032h.429c.1,0,.43.273.4.462a8.3,8.3,0,0,0-.372,1.9c0,.231.107.446.33.446.38,0,.52-.528.595-.892.032-.173.115-.247.2-.247a.363.363,0,0,1,.288.338c0,.025-.008.041-.008.058-.148.545-.47,1.287-1.18,1.287A.825.825,0,0,1,102.261,90.264Z" transform="translate(-86.075 -85.066)" fill="#f4d9ce"/>
                <path id="Trazado_192337" data-name="Trazado 192337" d="M104.408,86.512V85.119c0-.239-.083-.256-.083-.314s.149-.091.264-.091a.4.4,0,0,1,.446.363v1.444c.5,0,1.081-.008,1.642-.032.231-.248.157.544-.058.552-.66.017-1.146.017-1.584.017v2.615c0,.264.107.38.28.38.33,0,.478-.528.552-.892.033-.173.116-.247.2-.247a.363.363,0,0,1,.289.338.213.213,0,0,1-.008.058c-.141.545-.47,1.287-1.18,1.287-.445,0-.759-.264-.759-.916V87.058c-.363,0-.569-.017-.569-.017-.264,0-.413-.552-.173-.552C103.665,86.489,103.962,86.5,104.408,86.512Z" transform="translate(-86.639 -84.458)" fill="#f4d9ce"/>
                <path id="Trazado_192338" data-name="Trazado 192338" d="M106.482,89.674c.083-.363.256-.834.4-1.271a.684.684,0,0,1-.132-.388c0-.28.479-.652.7-.652.2,0,.3.148.3.372a1.592,1.592,0,0,1-.2.561c.389.685.891.982.891,1.766a1.206,1.206,0,0,1-.041.3.869.869,0,0,0,.676-.594c.058-.156.116-.222.19-.222.14,0,.3.214.3.33a1.115,1.115,0,0,1-.38.636,1.863,1.863,0,0,1-1.105.4,1.209,1.209,0,0,1-.809.3,1.52,1.52,0,0,1-.908-.347c-.4-.388-.182-.825,0-.825.165,0,.916.479,1.329.479a.822.822,0,0,0,.182-.5,1.652,1.652,0,0,0-.594-1.163,7.793,7.793,0,0,0-.321,1C106.87,90.185,106.416,89.954,106.482,89.674Z" transform="translate(-87.229 -85.061)" fill="#f4d9ce"/>
              </g>
              <g id="Grupo_964746" data-name="Grupo 964746" transform="translate(13.938 27.088)">
                <path id="Trazado_192339" data-name="Trazado 192339" d="M95.664,107.476H74.23a.592.592,0,0,1-.592-.592h0a.592.592,0,0,1,.592-.592H95.664a.592.592,0,0,1,.592.592h0A.592.592,0,0,1,95.664,107.476Z" transform="translate(-73.638 -106.292)" fill="#f4d9ce"/>
                <path id="Trazado_192340" data-name="Trazado 192340" d="M95.664,115.816H74.23a.591.591,0,0,1-.592-.591h0a.592.592,0,0,1,.592-.592H95.664a.592.592,0,0,1,.592.592h0A.591.591,0,0,1,95.664,115.816Z" transform="translate(-73.638 -108.189)" fill="#f4d9ce"/>
                <path id="Trazado_192341" data-name="Trazado 192341" d="M95.664,124.157H74.23a.592.592,0,0,1-.592-.592h0a.592.592,0,0,1,.592-.592H95.664a.592.592,0,0,1,.592.592h0A.592.592,0,0,1,95.664,124.157Z" transform="translate(-73.638 -110.086)" fill="#f4d9ce"/>
                <path id="Trazado_192342" data-name="Trazado 192342" d="M95.664,132.5H74.23a.592.592,0,0,1-.592-.592h0a.591.591,0,0,1,.592-.591H95.664a.591.591,0,0,1,.592.591h0A.592.592,0,0,1,95.664,132.5Z" transform="translate(-73.638 -111.984)" fill="#f4d9ce"/>
                <path id="Trazado_192343" data-name="Trazado 192343" d="M95.664,140.838H74.23a.592.592,0,0,1-.592-.592h0a.592.592,0,0,1,.592-.592H95.664a.592.592,0,0,1,.592.592h0A.592.592,0,0,1,95.664,140.838Z" transform="translate(-73.638 -113.881)" fill="#f4d9ce"/>
                <path id="Trazado_192344" data-name="Trazado 192344" d="M95.664,149.178H74.23a.592.592,0,0,1-.592-.592h0a.592.592,0,0,1,.592-.592H95.664a.592.592,0,0,1,.592.592h0A.592.592,0,0,1,95.664,149.178Z" transform="translate(-73.638 -115.778)" fill="#f4d9ce"/>
                <rect id="Rectángulo_337963" data-name="Rectángulo 337963" width="5.203" height="1.183" rx="0.367" transform="translate(29.192 0)" fill="#f4d9ce"/>
                <rect id="Rectángulo_337964" data-name="Rectángulo 337964" width="5.203" height="1.183" rx="0.367" transform="translate(29.192 6.443)" fill="#f4d9ce"/>
                <rect id="Rectángulo_337965" data-name="Rectángulo 337965" width="5.203" height="1.183" rx="0.367" transform="translate(29.192 12.887)" fill="#f4d9ce"/>
                <rect id="Rectángulo_337966" data-name="Rectángulo 337966" width="5.203" height="1.183" rx="0.367" transform="translate(29.192 19.33)" fill="#f4d9ce"/>
                <rect id="Rectángulo_337967" data-name="Rectángulo 337967" width="5.203" height="1.183" rx="0.367" transform="translate(29.192 25.773)" fill="#f4d9ce"/>
                <rect id="Rectángulo_337968" data-name="Rectángulo 337968" width="5.203" height="1.183" rx="0.367" transform="translate(29.192 32.216)" fill="#f4d9ce"/>
              </g>
            </g>
            <g id="Grupo_964750" data-name="Grupo 964750" transform="translate(79.151)">
              <rect id="Rectángulo_337969" data-name="Rectángulo 337969" width="62.066" height="79.686" transform="translate(0.303 0.323)" fill="#ffe891"/>
              <rect id="Rectángulo_337970" data-name="Rectángulo 337970" width="51.02" height="69.045" transform="translate(5.523 5.644)" fill="#fcf2ca"/>
              <g id="Grupo_964748" data-name="Grupo 964748" transform="translate(22.306 10.162)">
                <path id="Trazado_192345" data-name="Trazado 192345" d="M189.046,89.276c0,.453.132.693.463.693.627,0,1.361-1.271,1.361-2.921,0-1.114-.47-2.029-1.568-2.029a1.644,1.644,0,0,0-1.733,1.865,1.909,1.909,0,0,0,.437,1.279c.091-.025.124.033.124.115,0,.215-.206.487-.4.487a.191.191,0,0,1-.124-.041,2.461,2.461,0,0,1-.684-1.791,2.355,2.355,0,0,1,2.4-2.55c1.535,0,2.2,1.271,2.2,2.6,0,2.343-1.163,3.622-2.071,3.622-.776,0-1.056-.494-1.056-1.369v-3.16a1.772,1.772,0,0,0-.033-.264c0-.083.1-.141.215-.141a.413.413,0,0,1,.462.363Z" transform="translate(-186.925 -84.383)" fill="#f4d9ce"/>
                <path id="Trazado_192346" data-name="Trazado 192346" d="M194.483,90.264a5.346,5.346,0,0,1,.413-1.823h-.718a6.636,6.636,0,0,1-.206,1.518c-.107.347-.537.049-.462-.231a7.712,7.712,0,0,0,.132-1.435.607.607,0,0,1-.355-.528.392.392,0,0,1,.413-.38.523.523,0,0,1,.52.438,3.139,3.139,0,0,0,.438.032h.429c.1,0,.429.273.4.462a8.311,8.311,0,0,0-.371,1.9c0,.231.107.446.33.446.379,0,.52-.528.594-.892.033-.173.116-.247.2-.247a.363.363,0,0,1,.288.338c0,.025-.008.041-.008.058-.148.545-.47,1.287-1.18,1.287A.825.825,0,0,1,194.483,90.264Z" transform="translate(-188.372 -85.066)" fill="#f4d9ce"/>
                <path id="Trazado_192347" data-name="Trazado 192347" d="M196.809,86.094a.5.5,0,1,1,1,0,.5.5,0,1,1-1,0Zm.684,3.778c0,.075,0,.38.215.38.33,0,.479-.528.553-.892.1-.5.545-.115.478.149-.148.545-.47,1.287-1.18,1.287a.708.708,0,0,1-.693-.776v-2.2a1.773,1.773,0,0,0-.033-.264c0-.083.1-.14.215-.14a.4.4,0,0,1,.445.362Z" transform="translate(-189.173 -84.658)" fill="#f4d9ce"/>
                <path id="Trazado_192348" data-name="Trazado 192348" d="M198.72,88.331a1.774,1.774,0,0,0-.033-.264c0-.083.1-.14.215-.14a.4.4,0,0,1,.445.362v.372c.223-.462.52-.817.925-.817.553,0,.684.453.684.833v1.708c0,.075,0,.38.215.38.331,0,.478-.528.553-.892.033-.173.115-.247.2-.247a.363.363,0,0,1,.289.338.212.212,0,0,1-.009.058c-.14.545-.47,1.287-1.18,1.287a.709.709,0,0,1-.694-.776V88.859c0-.256-.016-.47-.173-.47-.239,0-.751.709-.809,1.361v1.205c0,.157.009.355-.23.355a.347.347,0,0,1-.4-.363Z" transform="translate(-189.6 -85.17)" fill="#f4d9ce"/>
                <path id="Trazado_192349" data-name="Trazado 192349" d="M202.559,85.332c0-.239-.082-.256-.082-.314s.148-.09.263-.09a.4.4,0,0,1,.446.363v2.574a1.363,1.363,0,0,1,.966-.684c.511,0,.734.429.734.892a1.752,1.752,0,0,1-.792,1.344c.083.355.264.685.586.685.379,0,.66-.52.734-.883.1-.5.545-.115.478.148-.148.446-.552,1.279-1.3,1.279-.652,0-1.082-.742-1.082-1.287,0-.256.768-.52.768-1.279,0-.206-.107-.346-.264-.346-.2,0-.569.263-.825,1.138v1.42c0,.157.008.355-.231.355a.347.347,0,0,1-.4-.363Z" transform="translate(-190.463 -84.507)" fill="#f4d9ce"/>
                <path id="Trazado_192350" data-name="Trazado 192350" d="M206.207,89.674c.083-.363.256-.834.4-1.271a.689.689,0,0,1-.131-.388c0-.28.478-.652.7-.652.2,0,.3.148.3.372a1.611,1.611,0,0,1-.2.561c.388.685.891.982.891,1.766a1.171,1.171,0,0,1-.041.3.869.869,0,0,0,.676-.594c.059-.156.116-.222.19-.222.141,0,.3.214.3.33a1.115,1.115,0,0,1-.38.636,1.863,1.863,0,0,1-1.105.4,1.21,1.21,0,0,1-.809.3,1.516,1.516,0,0,1-.907-.347c-.4-.388-.182-.825,0-.825.165,0,.915.479,1.328.479a.818.818,0,0,0,.182-.5,1.652,1.652,0,0,0-.594-1.163,7.913,7.913,0,0,0-.322,1C206.595,90.185,206.141,89.954,206.207,89.674Z" transform="translate(-191.233 -85.061)" fill="#f4d9ce"/>
              </g>
              <g id="Grupo_964749" data-name="Grupo 964749" transform="translate(13.938 27.088)">
                <path id="Trazado_192351" data-name="Trazado 192351" d="M198.12,107.476H176.686a.592.592,0,0,1-.592-.592h0a.592.592,0,0,1,.592-.592H198.12a.592.592,0,0,1,.592.592h0A.592.592,0,0,1,198.12,107.476Z" transform="translate(-176.094 -106.292)" fill="#f4d9ce"/>
                <path id="Trazado_192352" data-name="Trazado 192352" d="M198.12,115.816H176.686a.591.591,0,0,1-.592-.591h0a.592.592,0,0,1,.592-.592H198.12a.592.592,0,0,1,.592.592h0A.591.591,0,0,1,198.12,115.816Z" transform="translate(-176.094 -108.189)" fill="#f4d9ce"/>
                <path id="Trazado_192353" data-name="Trazado 192353" d="M198.12,124.157H176.686a.592.592,0,0,1-.592-.592h0a.592.592,0,0,1,.592-.592H198.12a.592.592,0,0,1,.592.592h0A.592.592,0,0,1,198.12,124.157Z" transform="translate(-176.094 -110.086)" fill="#f4d9ce"/>
                <path id="Trazado_192354" data-name="Trazado 192354" d="M198.12,132.5H176.686a.592.592,0,0,1-.592-.592h0a.591.591,0,0,1,.592-.591H198.12a.591.591,0,0,1,.592.591h0A.592.592,0,0,1,198.12,132.5Z" transform="translate(-176.094 -111.984)" fill="#f4d9ce"/>
                <path id="Trazado_192355" data-name="Trazado 192355" d="M198.12,140.838H176.686a.592.592,0,0,1-.592-.592h0a.592.592,0,0,1,.592-.592H198.12a.592.592,0,0,1,.592.592h0A.592.592,0,0,1,198.12,140.838Z" transform="translate(-176.094 -113.881)" fill="#f4d9ce"/>
                <path id="Trazado_192356" data-name="Trazado 192356" d="M198.12,149.178H176.686a.592.592,0,0,1-.592-.592h0a.592.592,0,0,1,.592-.592H198.12a.592.592,0,0,1,.592.592h0A.592.592,0,0,1,198.12,149.178Z" transform="translate(-176.094 -115.778)" fill="#f4d9ce"/>
                <rect id="Rectángulo_337971" data-name="Rectángulo 337971" width="5.203" height="1.183" rx="0.367" transform="translate(29.192 0)" fill="#f4d9ce"/>
                <rect id="Rectángulo_337972" data-name="Rectángulo 337972" width="5.203" height="1.183" rx="0.367" transform="translate(29.192 6.443)" fill="#f4d9ce"/>
                <rect id="Rectángulo_337973" data-name="Rectángulo 337973" width="5.203" height="1.183" rx="0.367" transform="translate(29.192 12.887)" fill="#f4d9ce"/>
                <rect id="Rectángulo_337974" data-name="Rectángulo 337974" width="5.203" height="1.183" rx="0.367" transform="translate(29.192 19.33)" fill="#f4d9ce"/>
                <rect id="Rectángulo_337975" data-name="Rectángulo 337975" width="5.203" height="1.183" rx="0.367" transform="translate(29.192 25.773)" fill="#f4d9ce"/>
                <rect id="Rectángulo_337976" data-name="Rectángulo 337976" width="5.203" height="1.183" rx="0.367" transform="translate(29.192 32.216)" fill="#f4d9ce"/>
              </g>
            </g>
          </g>
          <g id="Grupo_964756" data-name="Grupo 964756" transform="translate(37.229)">
            <g id="Grupo_964753" data-name="Grupo 964753">
              <path id="Trazado_192485" data-name="Trazado 192485" d="M0,0V46.286" transform="translate(31.033)" fill="none" stroke="#1f2835" stroke-width="1" opacity="0.39"/>
              <circle id="Elipse_4961" data-name="Elipse 4961" cx="8.416" cy="8.416" r="8.416" transform="translate(23.143 52.598)" fill="#ecb050"/>
              <g id="Grupo_964752" data-name="Grupo 964752" transform="translate(0 23.406)">
                <path id="Trazado_192357" data-name="Trazado 192357" d="M167.168,77.9H103.787a11.834,11.834,0,0,1,11.834-11.834h39.712A11.834,11.834,0,0,1,167.168,77.9Z" transform="translate(-103.787 -38.45)" fill="#ffe891"/>
                <path id="Trazado_192358" data-name="Trazado 192358" d="M152.725,60.037H129.319V42.022a11.7,11.7,0,0,1,11.7-11.7h0a11.7,11.7,0,0,1,11.7,11.7Z" transform="translate(-109.595 -30.319)" fill="#ffe891"/>
              </g>
            </g>
            <g id="Grupo_964755" data-name="Grupo 964755" transform="translate(162.528)">
              <line id="Línea_1607" data-name="Línea 1607" y2="46.286" transform="translate(31.033)" fill="none" stroke="#1f2835" stroke-miterlimit="10" stroke-width="1" opacity="0.39"/>
              <circle id="Elipse_4962" data-name="Elipse 4962" cx="8.416" cy="8.416" r="8.416" transform="translate(23.143 52.598)" fill="#ecb050"/>
              <g id="Grupo_964754" data-name="Grupo 964754" transform="translate(0 23.406)">
                <path id="Trazado_192359" data-name="Trazado 192359" d="M377.551,77.9H314.17A11.834,11.834,0,0,1,326,66.064h39.712A11.834,11.834,0,0,1,377.551,77.9Z" transform="translate(-314.17 -38.45)" fill="#ffe891"/>
                <path id="Rectángulo_337977" data-name="Rectángulo 337977" d="M11.7,0h0a11.7,11.7,0,0,1,11.7,11.7V29.718a0,0,0,0,1,0,0H0a0,0,0,0,1,0,0V11.7A11.7,11.7,0,0,1,11.7,0Z" transform="translate(19.724)" fill="#ffe891"/>
              </g>
            </g>
          </g>
        </g>
      </g>
    </g>
    <g id="Enmascarar_grupo_394" data-name="Enmascarar grupo 394" transform="translate(2270 -12659)" clip-path="url(#clip-path-2)">
      <g id="Grupo_964708" data-name="Grupo 964708" transform="translate(185.911 4123.183)">
        <g id="Grupo_964684" data-name="Grupo 964684" transform="translate(500 -32.01)">
          <g id="Grupo_964670" data-name="Grupo 964670" transform="translate(5.578)">
            <g id="Grupo_964663" data-name="Grupo 964663" transform="translate(0 46.712)">
              <path id="Trazado_192229" data-name="Trazado 192229" d="M532.92,73.8s9.073,23.9,4.729,26.71-27.093,5.112-27.093,15.592,80.257-4.09,80.257-4.09-5.367-10.479-14.824-10.224-19.681,4.345-19.425-20.192-22.748-7.412-22.748-7.412" transform="translate(-510.555 -68.375)" fill="#ffafa4" stroke="#351717" stroke-width="1"/>
              <path id="Trazado_192230" data-name="Trazado 192230" d="M577.742,93.961A45.04,45.04,0,0,1,576.515,81.6c.255-24.538-22.748-7.412-22.748-7.412l-.895-.384s2.146,5.654,3.851,11.785A43.867,43.867,0,0,0,577.742,93.961Z" transform="translate(-530.507 -68.375)" fill="#ea8d83" stroke="rgba(0,0,0,0)" stroke-width="1"/>
            </g>
            <g id="Grupo_964665" data-name="Grupo 964665" transform="translate(6.913)">
              <path id="Trazado_192231" data-name="Trazado 192231" d="M543.339,15.4c.341-.512,8.69-13.8,23.345-9.372,0,0,5.453,1.193,8.52,10.394s10.735,33.739,1.7,39.7-26.582-1.193-32.546-17.04S543.339,15.4,543.339,15.4Z" transform="translate(-532.019 8.16)" fill="#ffafa4" stroke="#351717" stroke-width="1"/>
              <g id="Grupo_964664" data-name="Grupo 964664">
                <path id="Trazado_192232" data-name="Trazado 192232" d="M539.47,4.272S541,13.729,541,15.135s-2.3,4.6-2.3,4.6l2.172,9.329-2.939.767s-1.79-7.668-4.729-7.285-1.023,4.473-1.023,4.473-9.712-15.08-8.434-23C524.8-2.479,533.081-4.8,533.081-4.8s2.94-13.291,23.643-15.208l-2.556,3.067a27.092,27.092,0,0,1,11.374-1.151c6.773.639,7.924-1.917,7.924-1.917S575-8.764,566.947-2.757a30.309,30.309,0,0,0,6.518-9.676S570.27.31,561.069,1.843,547.011-2.246,539.47,4.272Z" transform="translate(-523.636 20.01)" fill="#054b66" stroke="#351717" stroke-width="1"/>
                <path id="Trazado_192233" data-name="Trazado 192233" d="M526.031-2.145s5.112-3.706,9.329-1.662c0,0-1.917-6.773,13.419-15.719" transform="translate(-524.765 19.782)" fill="none" stroke="#351717" stroke-miterlimit="10" stroke-width="1.934"/>
                <path id="Trazado_192234" data-name="Trazado 192234" d="M602.5,1.753s-5.477,13.486-14.567,12.287" transform="translate(-553.952 7.93)" fill="none" stroke="#351717" stroke-miterlimit="10" stroke-width="1.934"/>
              </g>
              <g id="Grupo_964763" data-name="Grupo 964763" transform="translate(21.096 31.426)">
                <path id="Trazado_191899" data-name="Trazado 191899" d="M330.759,94.96c1.791-.366,3.866-1.014,4.79-2.729a2.753,2.753,0,0,0-.462-3.343c-.887-.825-2.242-.69-3.162-1.434a3.97,3.97,0,0,1-.854-1.562,17.311,17.311,0,0,1-.739-3.639.791.791,0,0,0-.724-.939c-.866.066-.717.877-.65,1.508a20.924,20.924,0,0,0,.618,3.05,4.409,4.409,0,0,0,3.893,3.726c1.187.35,1.237,1.3.668,2.249a4.878,4.878,0,0,1-2.106,1.321,12.709,12.709,0,0,1-1.359.363.835.835,0,0,0-.572.291A.716.716,0,0,0,330.759,94.96Z" transform="translate(-314.545 -76.292)" fill="#351717" fill-rule="evenodd"/>
                <path id="Trazado_191900" data-name="Trazado 191900" d="M343.614,87.947c2.363-.413,2.242-4.742-.031-5.2a2.362,2.362,0,0,0-2.717,2.307C340.953,86.394,342.084,88.213,343.614,87.947Z" transform="translate(-338.245 -76.018)" fill="#351717" fill-rule="evenodd"/>
                <path id="Trazado_192363" data-name="Trazado 192363" d="M342.236,85.337c1.181-.206,1.121-2.371-.016-2.6a1.181,1.181,0,0,0-1.358,1.153C340.905,84.561,341.471,85.47,342.236,85.337Z" transform="translate(-319.005 -76.018)" fill="#351717" fill-rule="evenodd"/>
                <path id="Trazado_191902" data-name="Trazado 191902" d="M340.517,80.063c1.75-.81,3.7-1.606,5.659-1.216.656.064,1.585.773,1.989-.078a.718.718,0,0,0-.379-.931c-2.632-1.123-5.535-.217-7.971.99a.71.71,0,0,0,.717,1.225Z" transform="translate(-339.464 -77.062)" fill="#351717" fill-rule="evenodd"/>
                <path id="Trazado_191903" data-name="Trazado 191903" d="M331.661,80.252a.843.843,0,0,0,.6-.884c-.227-1-2.137-1.552-3.021-1.854A8,8,0,0,0,325,77.3a.716.716,0,0,0-.5.873.759.759,0,0,0,1.029.459,6.1,6.1,0,0,1,1.5-.1,9.069,9.069,0,0,1,3.737,1.167A.715.715,0,0,0,331.661,80.252Z" transform="translate(-305.633 -77.105)" fill="#351717" fill-rule="evenodd"/>
                <path id="Trazado_191906" data-name="Trazado 191906" d="M328.151,86.913a2.146,2.146,0,0,0,1.821-1.832c.294-1.214-.359-3.281-1.923-2.882a2.074,2.074,0,0,0-1.7,1.7c-.217,1.21.4,2.947,1.8,3.018Zm-.008-2.07a1.488,1.488,0,0,1,.012-.724h.017A1.12,1.12,0,0,1,328.143,84.843Z" transform="translate(-305.585 -76.13)" fill="#351717" fill-rule="evenodd"/>
                <path id="Trazado_191936" data-name="Trazado 191936" d="M343.831,83.865c-.02-.767-.952-.794-1.524-.9-.682-.044-1.933-.426-2,.606.07,1.055,1.483.615,2.191.86C343.08,84.672,343.774,84.63,343.831,83.865Z" transform="translate(-336.085 -75.992)" fill="#351717" fill-rule="evenodd"/>
                <path id="Trazado_191937" data-name="Trazado 191937" d="M328.624,83.277a.723.723,0,0,0,0-1,1.2,1.2,0,0,0-.863-.257c-.4-.019-.8-.029-1.2-.042a.71.71,0,0,0,0,1.42c.437.016.876.019,1.313.05A.739.739,0,0,0,328.624,83.277Z" transform="translate(-303.846 -76.164)" fill="#351717" fill-rule="evenodd"/>
                <g id="Grupo_964762" data-name="Grupo 964762" transform="translate(6.832 18.717)">
                  <path id="Trazado_191803" data-name="Trazado 191803" d="M340.816,99.769l.009-.015c.762.092,1.841.2,2.27-.593a.6.6,0,0,0-.464-1.1c-2.163-.869-4.19-2.081-6.238-3.145a.641.641,0,0,0-.7.457c-.087.357.15.681.294.991a11.681,11.681,0,0,0,.962,1.525A5.881,5.881,0,0,0,339.29,99.7C339.757,99.9,340.447,100.351,340.816,99.769Z" transform="translate(-334.843 -93.822)" fill="#fff" fill-rule="evenodd"/>
                  <path id="Trazado_191904" data-name="Trazado 191904" d="M343.724,98.1c.15-.636-.484-.78-.942-.872a23.908,23.908,0,0,1-2.307-.632,30.29,30.29,0,0,1-5.091-2.692.6.6,0,0,0-.6,1.029,23.307,23.307,0,0,0,6.89,3.254c.428.108.868.183,1.287.318A.6.6,0,0,0,343.724,98.1Z" transform="translate(-333.957 -93.822)" fill="#351717" fill-rule="evenodd"/>
                  <path id="Trazado_191905" data-name="Trazado 191905" d="M341.1,100.685a6.974,6.974,0,0,0,2.735-1.605.6.6,0,0,0,.449-.577.624.624,0,0,0-.781-.6,14.449,14.449,0,0,0-1.438,1.042,4.231,4.231,0,0,1-2.033.714,4.483,4.483,0,0,1-4.478-3.2,10.335,10.335,0,0,1-.437-1.911.595.595,0,1,0-1.179.161,8.881,8.881,0,0,0,1.027,3.3A5.478,5.478,0,0,0,341.1,100.685Z" transform="translate(-333.93 -93.822)" fill="#351717" fill-rule="evenodd"/>
                </g>
                <ellipse id="Elipse_4976" data-name="Elipse 4976" cx="0.534" cy="0.696" rx="0.534" ry="0.696" transform="matrix(0.999, -0.038, 0.038, 0.999, 5.425, 8.657)" fill="#fff"/>
                <ellipse id="Elipse_4977" data-name="Elipse 4977" cx="0.534" cy="0.696" rx="0.534" ry="0.696" transform="matrix(0.999, -0.038, 0.038, 0.999, 22.588, 8.06)" fill="#fff"/>
              </g>
            </g>
            <g id="Grupo_964669" data-name="Grupo 964669" transform="translate(13.612 26.771)">
              <g id="Grupo_964668" data-name="Grupo 964668" transform="translate(0 15.618)">
                <path id="Trazado_192242" data-name="Trazado 192242" d="M545.063,69.948s-2.045-10.479-6.518-9.712-1.023,7.284,0,9.329S546.852,76.593,545.063,69.948Z" transform="translate(-536.31 -60.195)" fill="#ffafa4" stroke="#351717" stroke-width="1"/>
                <path id="Trazado_192243" data-name="Trazado 192243" d="M539.09,66.273s.089-3.389,2.059-2.691,3.223,6.778,3.223,6.778-2.954,2.293-.089,3.09" transform="translate(-537.621 -61.747)" fill="none" stroke="#ff8973" stroke-miterlimit="10" stroke-width="1"/>
              </g>
            </g>
          </g>
          <g id="Grupo_964678" data-name="Grupo 964678" transform="translate(0 72.461)">
            <g id="Grupo_964676" data-name="Grupo 964676">
              <g id="Grupo_964671" data-name="Grupo 964671" transform="translate(74.845 7.668)">
                <path id="Trazado_192244" data-name="Trazado 192244" d="M641.616,131.6s11.246,2.812,16.869,20.192,11.246,39.873,9.712,45.24-21.214,9.2-21.214,9.2Z" transform="translate(-641.616 -131.604)" fill="#fff" stroke="#351717" stroke-width="1"/>
                <path id="Trazado_192245" data-name="Trazado 192245" d="M661.161,168.618c-.148-.457-.3-.9-.458-1.337-4.2,7.763-8.55,15.485-13.413,22.848l2.368,32.93s19.681-3.834,21.214-9.2S666.784,186,661.161,168.618Z" transform="translate(-644.292 -148.425)" fill="#f2f6f7" stroke="#351717" stroke-width="1"/>
              </g>
              <g id="Grupo_964673" data-name="Grupo 964673" transform="translate(20.914)">
                <path id="Trazado_192246" data-name="Trazado 192246" d="M551.33,126.906l-11.757,3.067,36.55,44.218,8.946-45.752-9.2-2.045-6.9-2.045-1.17,6.963-4.453-6.452Z" transform="translate(-539.572 -120.516)" fill="#f2f6f7" stroke="#351717" stroke-width="1"/>
                <g id="Grupo_964672" data-name="Grupo 964672" transform="translate(5.623)">
                  <path id="Trazado_192247" data-name="Trazado 192247" d="M550.212,124.252l15.847,7.668,1.972-10.675L553.79,117.1Z" transform="translate(-550.212 -117.096)" fill="#fff" stroke="#351717" stroke-width="1"/>
                  <path id="Trazado_192248" data-name="Trazado 192248" d="M595.452,120.818l3.826,9.109L607.2,124.1l-3.834-6.523Z" transform="translate(-571.418 -117.324)" fill="#fff" stroke="#351717" stroke-width="1"/>
                  <path id="Trazado_192249" data-name="Trazado 192249" d="M592.221,124.35l-9.408,4.856-11.322-3.323.767,11.5,11.014-4.856,9.945,3.067Z" transform="translate(-560.245 -120.516)" fill="#01334c" stroke="#351717" stroke-width="1"/>
                </g>
              </g>
              <g id="Grupo_964675" data-name="Grupo 964675" transform="translate(0 7.668)">
                <path id="Trazado_192250" data-name="Trazado 192250" d="M528.531,132.594s-11.786,2.589-18.942,7.7c0,0,15.08,14.314,23,62.621s5.112,45.751,5.112,45.751l60.832-8.69s-12.292-96.249-19.96-108.518l-8.667.146-10.991,34.25Z" transform="translate(-504.521 -131.604)" fill="#01334c" stroke="#351717" stroke-width="1"/>
                <g id="Grupo_964674" data-name="Grupo 964674" transform="translate(0 8.69)">
                  <path id="Trazado_192251" data-name="Trazado 192251" d="M505.067,148.047s11.5,7.668,17.892,39.873l1.278,22.236,59.81,3.834s-67.988,22.236-76.934,12.78-7.1-62.893-6.645-69.011C500.978,150.859,505.067,148.047,505.067,148.047Z" transform="translate(-500 -148.047)" fill="#fff" stroke="#351717" stroke-width="1"/>
                  <path id="Trazado_192252" data-name="Trazado 192252" d="M554.382,266.113c4.277,5.05,8.515,10.134,12.8,15.179,20.585-4.466,42.506-11.634,42.506-11.634Z" transform="translate(-525.641 -203.714)" fill="#f2f6f7" stroke="#331819" stroke-width="1"/>
                </g>
              </g>
            </g>
            <g id="Grupo_964677" data-name="Grupo 964677" transform="translate(27.585 95.593)">
              <path id="Trazado_192253" data-name="Trazado 192253" d="M558.133,330.928l-5.939,72.191h28.539l-5.9-73.554Z" transform="translate(-552.194 -312.866)" fill="#01334c"/>
              <path id="Trazado_192254" data-name="Trazado 192254" d="M560.207,305.807s33.057.681,59.3-7.838c0,0,14.314,60.945,16.018,90.253h-64.41l-2.726-80.029-7.838-.341Z" transform="translate(-555.972 -297.969)" fill="#00d7cf"/>
            </g>
          </g>
          <g id="Grupo_964683" data-name="Grupo 964683" transform="translate(19.855 118.919)">
            <g id="Grupo_964679" data-name="Grupo 964679" transform="translate(0 16.545)">
              <ellipse id="Elipse_4958" data-name="Elipse 4958" cx="42.045" cy="9.457" rx="42.045" ry="9.457" transform="matrix(0.993, -0.114, 0.114, 0.993, 0, 9.583)" fill="#00d7cf" stroke="#331819" stroke-width="1"/>
              <path id="Trazado_192255" data-name="Trazado 192255" d="M621.228,255.279c.2,1.966-5.939,4.2-13.711,4.983s-14.232-.171-14.431-2.137,5.94-4.2,13.711-4.983S621.029,253.313,621.228,255.279Z" transform="translate(-563.742 -244.114)" fill="#01334c" opacity="0.1"/>
            </g>
            <g id="Grupo_964682" data-name="Grupo 964682" transform="translate(30.298)">
              <g id="Grupo_964680" data-name="Grupo 964680">
                <path id="Trazado_192256" data-name="Trazado 192256" d="M594.9,208.613c.139,1.376,4.446,2.067,9.619,1.544s9.254-2.063,9.115-3.438-4.446-2.067-9.619-1.544S594.759,207.237,594.9,208.613Z" transform="translate(-594.894 -204.999)" fill="none" stroke="#331819" stroke-miterlimit="10" stroke-width="1.516"/>
                <path id="Trazado_192257" data-name="Trazado 192257" d="M604.013,205.174c-5.173.523-9.254,2.063-9.115,3.438l2.515,24.87c.139,1.376,4.446,2.067,9.619,1.544s9.254-2.063,9.115-3.438l-2.515-24.87C613.492,205.342,609.186,204.651,604.013,205.174Z" transform="translate(-594.894 -204.999)" fill="none" stroke="#331819" stroke-miterlimit="10" stroke-width="1.516"/>
                <path id="Trazado_192258" data-name="Trazado 192258" d="M604.013,205.174c-5.173.523-9.254,2.063-9.115,3.438l2.515,24.87c.139,1.376,4.446,2.067,9.619,1.544s9.254-2.063,9.115-3.438l-2.515-24.87C613.492,205.342,609.186,204.651,604.013,205.174Z" transform="translate(-594.894 -204.999)" fill="#fff" stroke="#331819" stroke-width="1" opacity="0.5"/>
                <path id="Trazado_192259" data-name="Trazado 192259" d="M608.453,249.077c-5.173.523-9.254,2.062-9.115,3.438l.169,1.667c.139,1.376,4.446,2.067,9.619,1.544s9.254-2.063,9.115-3.438l-.169-1.667C617.932,249.245,613.626,248.554,608.453,249.077Z" transform="translate(-596.988 -225.699)" fill="#fff" stroke="#331819" stroke-width="1"/>
              </g>
              <g id="Grupo_964681" data-name="Grupo 964681" transform="translate(2.089 6.849)">
                <path id="Trazado_192260" data-name="Trazado 192260" d="M606.569,218.144c-4.38.443-7.835,1.746-7.717,2.911l1.739,17.2c.118,1.165,3.764,1.75,8.144,1.307s7.835-1.747,7.717-2.912l-1.739-17.2C614.6,218.286,610.949,217.7,606.569,218.144Z" transform="translate(-598.848 -217.977)" fill="#fd8" stroke="#331819" stroke-width="1"/>
                <path id="Trazado_192261" data-name="Trazado 192261" d="M606.569,218.144c-4.38.443-7.835,1.746-7.717,2.911l.612,6.051c.118,1.165,3.764,1.75,8.144,1.308s7.835-1.747,7.717-2.912l-.611-6.051C614.6,218.286,610.949,217.7,606.569,218.144Z" transform="translate(-598.848 -217.977)" fill="#fff" stroke="#331819" stroke-width="1"/>
                <path id="Trazado_192262" data-name="Trazado 192262" d="M614.772,219.394c.117,1.154-3.353,2.45-7.75,2.9s-8.055-.131-8.172-1.285,3.353-2.45,7.75-2.895S614.656,218.24,614.772,219.394Z" transform="translate(-598.848 -217.959)" fill="#01334c" stroke="#331819" stroke-width="1" opacity="0.05"/>
              </g>
            </g>
          </g>
        </g>
        <g id="Grupo_964707" data-name="Grupo 964707" transform="translate(546.423 0.46)">
          <g id="Grupo_964698" data-name="Grupo 964698" transform="translate(46.151)">
            <path id="Trazado_192263" data-name="Trazado 192263" d="M784.375,354.445s-6.342-53.908-1.057-54.965,65.006,0,66.592,6.871-10.57,75.577-10.57,75.577l-1.057,6.841H783.318Z" transform="translate(-725.164 -215.402)" fill="#01334c"/>
            <g id="Grupo_964697" data-name="Grupo 964697">
              <g id="Grupo_964685" data-name="Grupo 964685" transform="translate(0 131.465)">
                <path id="Trazado_192264" data-name="Trazado 192264" d="M721.158,401.79s-47.037,7.4-45.98,15.855a126.4,126.4,0,0,0,2.378,13.712H760.8s9.513-8.956,1.585-32.21S721.158,401.79,721.158,401.79Z" transform="translate(-675.161 -389.456)" fill="#01334c"/>
                <path id="Trazado_192265" data-name="Trazado 192265" d="M752.159,401.79s-47.037,7.4-45.98,15.855,2.246,13.712,2.246,13.712H791.8s9.513-8.956,1.586-32.21S752.159,401.79,752.159,401.79Z" transform="translate(-689.777 -389.456)" fill="#054b66"/>
              </g>
              <g id="Grupo_964690" data-name="Grupo 964690" transform="translate(43.438)">
                <g id="Grupo_964688" data-name="Grupo 964688">
                  <g id="Grupo_964686" data-name="Grupo 964686">
                    <path id="Trazado_192266" data-name="Trazado 192266" d="M802.171,151.141s.01-9.515-10.906-10.224c-13.121-.852-9.883,11.587-16.018,13.462s-11.587,6.475-8.008,16.017c3.911,10.43-7.327,10.394-5.623,19.425s25.218,15.336,35.783-1.022C804.419,177.93,802.171,151.141,802.171,151.141Z" transform="translate(-759.279 -140.787)" fill="#e0555c" stroke="#351717" stroke-width="1"/>
                  </g>
                  <g id="Grupo_964687" data-name="Grupo 964687" transform="translate(16.341 13.308)">
                    <path id="Trazado_192268" data-name="Trazado 192268" d="M816.262,237.857a18.993,18.993,0,0,1,1.721,12.439c-1.408,7.157,14.864.341,14.864.341l.626-19.084Z" transform="translate(-801.468 -196.848)" fill="#ea8d83"/>
                    <path id="Trazado_192269" data-name="Trazado 192269" d="M812.606,166.172s-13.291-3.323-21.47,12.78,2.3,32.716,16.869,30.16,21.489-22.446,14.569-34.25C818.23,167.45,812.606,166.172,812.606,166.172Z" transform="translate(-788.27 -165.888)" fill="#ffafa4" stroke="#482c26" stroke-width="1"/>
                  </g>
                </g>
                <g id="Grupo_964760" data-name="Grupo 964760" transform="translate(-308.907 -53.149)">
                  <path id="Trazado_191899-2" data-name="Trazado 191899" d="M334.046,94.96c-1.791-.366-3.866-1.014-4.79-2.729a2.753,2.753,0,0,1,.462-3.343c.887-.825,2.242-.69,3.162-1.434a3.97,3.97,0,0,0,.854-1.562,17.311,17.311,0,0,0,.739-3.639.791.791,0,0,1,.724-.939c.866.066.717.877.65,1.508a20.924,20.924,0,0,1-.618,3.05,4.409,4.409,0,0,1-3.893,3.726c-1.187.35-1.237,1.3-.668,2.249a4.878,4.878,0,0,0,2.106,1.321,12.709,12.709,0,0,0,1.359.363.835.835,0,0,1,.572.291A.716.716,0,0,1,334.046,94.96Z" transform="translate(0.854 0.813)" fill="#351717" fill-rule="evenodd"/>
                  <path id="Trazado_191900-2" data-name="Trazado 191900" d="M342.581,87.947c-2.363-.413-2.242-4.742.031-5.2a2.362,2.362,0,0,1,2.717,2.306C345.242,86.394,344.111,88.213,342.581,87.947Z" transform="translate(3.164 1.086)" fill="#351717" fill-rule="evenodd"/>
                  <path id="Trazado_192363-2" data-name="Trazado 192363" d="M341.719,85.337c-1.181-.206-1.121-2.371.016-2.6a1.181,1.181,0,0,1,1.358,1.153C343.05,84.561,342.484,85.47,341.719,85.337Z" transform="translate(-13.836 1.086)" fill="#351717" fill-rule="evenodd"/>
                  <path id="Trazado_191902-2" data-name="Trazado 191902" d="M347.166,80.063c-1.75-.81-3.7-1.606-5.659-1.216-.656.064-1.585.773-1.989-.078a.718.718,0,0,1,.379-.931c2.632-1.123,5.535-.217,7.971.99a.71.71,0,0,1-.717,1.225Z" transform="translate(2.894 0.043)" fill="#351717" fill-rule="evenodd"/>
                  <path id="Trazado_191903-2" data-name="Trazado 191903" d="M325.086,80.252a.843.843,0,0,1-.6-.884c.227-1,2.137-1.552,3.021-1.854a8,8,0,0,1,4.235-.212.716.716,0,0,1,.5.873.759.759,0,0,1-1.029.459,6.1,6.1,0,0,0-1.5-.1,9.069,9.069,0,0,0-3.737,1.167A.715.715,0,0,1,325.086,80.252Z" transform="translate(0)" fill="#351717" fill-rule="evenodd"/>
                  <path id="Trazado_191906-2" data-name="Trazado 191906" d="M328.195,86.913a2.146,2.146,0,0,1-1.821-1.832c-.294-1.214.359-3.281,1.923-2.882a2.074,2.074,0,0,1,1.7,1.7c.217,1.21-.4,2.947-1.8,3.018Zm.008-2.07a1.488,1.488,0,0,0-.012-.724h-.017A1.12,1.12,0,0,0,328.2,84.843Z" transform="translate(0.352 0.975)" fill="#351717" fill-rule="evenodd"/>
                  <path id="Trazado_191936-2" data-name="Trazado 191936" d="M340.309,83.865c.02-.767.952-.793,1.524-.9.682-.044,1.933-.426,2,.606-.07,1.055-1.483.615-2.191.86C341.061,84.672,340.366,84.63,340.309,83.865Z" transform="translate(3.058 1.113)" fill="#351717" fill-rule="evenodd"/>
                  <path id="Trazado_191937-2" data-name="Trazado 191937" d="M326.068,83.277a.723.723,0,0,1,0-1,1.2,1.2,0,0,1,.863-.257c.4-.019.8-.029,1.2-.042a.71.71,0,0,1,0,1.42c-.437.016-.876.019-1.313.05A.739.739,0,0,1,326.068,83.277Z" transform="translate(0.267 0.941)" fill="#351717" fill-rule="evenodd"/>
                  <g id="Grupo_964762-2" data-name="Grupo 964762" transform="translate(0 2)">
                    <path id="Trazado_191803-2" data-name="Trazado 191803" d="M338.308,99.769l-.009-.015c-.762.092-1.841.2-2.27-.593a.6.6,0,0,1,.464-1.1c2.163-.869,4.19-2.081,6.238-3.145a.641.641,0,0,1,.7.457c.087.357-.15.681-.294.991a11.68,11.68,0,0,1-.962,1.525,5.881,5.881,0,0,1-2.344,1.814C339.367,99.9,338.677,100.351,338.308,99.769Z" fill="#fff" fill-rule="evenodd"/>
                    <path id="Trazado_191904-2" data-name="Trazado 191904" d="M334.514,98.1c-.15-.636.484-.78.942-.872a23.908,23.908,0,0,0,2.307-.632,30.29,30.29,0,0,0,5.091-2.692.6.6,0,0,1,.6,1.029,23.307,23.307,0,0,1-6.89,3.254c-.428.108-.868.183-1.287.318A.6.6,0,0,1,334.514,98.1Z" fill="#351717" fill-rule="evenodd"/>
                    <path id="Trazado_191905-2" data-name="Trazado 191905" d="M337.114,100.685a6.974,6.974,0,0,1-2.735-1.6.6.6,0,0,1-.449-.577.624.624,0,0,1,.781-.6,14.45,14.45,0,0,1,1.438,1.042,4.231,4.231,0,0,0,2.033.714,4.483,4.483,0,0,0,4.478-3.2,10.334,10.334,0,0,0,.437-1.911.595.595,0,0,1,1.179.161,8.881,8.881,0,0,1-1.027,3.3A5.478,5.478,0,0,1,337.114,100.685Z" fill="#351717" fill-rule="evenodd"/>
                  </g>
                  <ellipse id="Elipse_4978" data-name="Elipse 4978" cx="0.534" cy="0.696" rx="0.534" ry="0.696" transform="matrix(0.999, -0.038, 0.038, 0.999, 327.253, 85.165)" fill="#fff"/>
                  <ellipse id="Elipse_4979" data-name="Elipse 4979" cx="0.534" cy="0.696" rx="0.534" ry="0.696" transform="matrix(0.999, -0.038, 0.038, 0.999, 344.568, 86.477)" fill="#fff"/>
                </g>
              </g>
              <g id="Grupo_964695" data-name="Grupo 964695" transform="translate(49.965 56.532)">
                <g id="Grupo_964691" data-name="Grupo 964691" transform="translate(2.57 40.158)">
                  <path id="Trazado_192276" data-name="Trazado 192276" d="M774.563,325.875l5.9,34.8,9.7,1.343-3.321-38.362Z" transform="translate(-774.563 -323.657)" fill="#ea8d83" stroke="#351717" stroke-width="1"/>
                </g>
                <g id="Grupo_964693" data-name="Grupo 964693">
                  <path id="Trazado_192277" data-name="Trazado 192277" d="M814.075,247.673s-13.291.766-22.492,2.811c0,0,3.578,7.668-1.79,8.946s-19.169-1.278-19.936,11.757a81.178,81.178,0,0,0,1.534,22.237l6.645,1.278s-1.278,9.457,3.578,15.336l1.023,15.336,39.617,9.713s19.169-53.164,11.5-70.289c-4.792-10.7-18.253-2.681-19.425-9.713A40.9,40.9,0,0,1,814.075,247.673Z" transform="translate(-769.7 -247.673)" fill="#00d7cf" stroke="#351717" stroke-width="1"/>
                  <g id="Grupo_964692" data-name="Grupo 964692" transform="translate(0.001 28.595)">
                    <path id="Trazado_192278" data-name="Trazado 192278" d="M778.548,308.966a69.577,69.577,0,0,1-8.845-7.188,77.058,77.058,0,0,0,1.689,17.156l6.2,1.193A85.459,85.459,0,0,1,778.548,308.966Z" transform="translate(-769.702 -301.778)" fill="#01334c" opacity="0.1"/>
                    <path id="Trazado_192279" data-name="Trazado 192279" d="M844.384,327.858c-1.016,1.977-4.771,7.838-4.771,7.838l-2.137-.18c-15.283,11.049-45.234,11.767-45.234,11.767l1.023,15.336,39.618,9.713s8.852-24.554,12.118-45.665C844.792,327.067,844.585,327.465,844.384,327.858Z" transform="translate(-780.33 -313.513)" fill="#01334c" opacity="0.1"/>
                  </g>
                </g>
                <g id="Grupo_964694" data-name="Grupo 964694" transform="translate(24.949 45.751)">
                  <path id="Trazado_192280" data-name="Trazado 192280" d="M840.582,338.357a53.791,53.791,0,0,1-13.2-4.117l-10.479,37.317s7.412,9.457,13.547,3.067S849.112,339.1,849.112,339.1l-.177-.043A46.172,46.172,0,0,1,840.582,338.357Z" transform="translate(-816.907 -334.24)" fill="#ffafa4" stroke="#351717" stroke-width="1"/>
                  <path id="Trazado_192281" data-name="Trazado 192281" d="M841.459,339.155a43.27,43.27,0,0,0,12.355,3.435c.84.073,1.679.119,2.519.154,1-2.25,1.6-3.648,1.6-3.648l-.177-.043a46.172,46.172,0,0,1-8.354-.7,53.793,53.793,0,0,1-13.2-4.117l-.588,2.093A40.063,40.063,0,0,0,841.459,339.155Z" transform="translate(-825.732 -334.24)" fill="#ea8d83" stroke="#351717" stroke-width="1"/>
                </g>
              </g>
              <g id="Grupo_964696" data-name="Grupo 964696" transform="translate(80.051 4.592)">
                <path id="Trazado_192282" data-name="Trazado 192282" d="M826.772,163.508s-1.363-9.2,4.26-11.587,18.573-4.771,20.448,1.363.852,14.484,6.645,15.336,9.372,1.533,4.942,8.69,2.144,4.574,5.793,8.008c2.9,2.726,2.727,10.905-6.3,14.995s-24.026,7.838-26.241,1.193,6.986-13.121,3.067-15.166-5.964-.511-2.9-8.008S828.135,174.754,826.772,163.508Z" transform="translate(-826.627 -149.396)" fill="#ff696a" stroke="#351717" stroke-width="1"/>
                <path id="Trazado_192283" data-name="Trazado 192283" d="M832.146,152.973" transform="translate(-826.636 -151.083)" fill="none" stroke="#351717" stroke-miterlimit="10" stroke-width="1.934"/>
                <path id="Trazado_192284" data-name="Trazado 192284" d="M846.213,151.525c5.178-1.489,11.065-1.731,12.5,2.482,2.109,6.178,1.715,14.847,7.061,15.3s8.658.895,5.075,8.585,2.254,4.552,5.809,7.821c1.961,1.8,2.74,6.429.35,10.717" transform="translate(-834.597 -150.954)" fill="none" stroke="#351717" stroke-miterlimit="10" stroke-width="1"/>
              </g>
            </g>
          </g>
          <g id="Grupo_964706" data-name="Grupo 964706" transform="translate(0 110.982)">
            <g id="Grupo_964701" data-name="Grupo 964701" transform="translate(0 20.662)">
              <g id="Grupo_964699" data-name="Grupo 964699" transform="translate(28.475 22.323)">
                <rect id="Rectángulo_337916" data-name="Rectángulo 337916" width="7.031" height="19.399" fill="#fff"/>
                <path id="Trazado_192285" data-name="Trazado 192285" d="M648.747,441.542v-9.509h-7.031v8.775C644.056,441.084,646.4,441.323,648.747,441.542Z" transform="translate(-641.716 -432.033)" fill="#01334c" opacity="0.3"/>
              </g>
              <g id="Grupo_964700" data-name="Grupo 964700" transform="translate(120.134 23.346)">
                <rect id="Rectángulo_337917" data-name="Rectángulo 337917" width="7.031" height="18.376" fill="#fff"/>
                <path id="Trazado_192286" data-name="Trazado 192286" d="M815.146,443.478v-9.509h7.031v8.775C819.837,443.02,817.493,443.259,815.146,443.478Z" transform="translate(-815.146 -433.969)" fill="#01334c" opacity="0.3"/>
              </g>
              <path id="Trazado_192287" data-name="Trazado 192287" d="M734.2,407.976c-14.207-3.346-38.791-5.559-66.742-5.559s-52.535,2.213-66.743,5.559H587.837v6.671c0,6.755,35.649,12.23,79.625,12.23s79.625-5.475,79.625-12.23v-6.671Z" transform="translate(-587.837 -395.746)" fill="#c43d4b" stroke="#351717" stroke-width="1"/>
              <ellipse id="Elipse_4959" data-name="Elipse 4959" cx="79.625" cy="12.231" rx="79.625" ry="12.231" fill="#ff696a" stroke="#351717" stroke-width="1"/>
            </g>
            <g id="Grupo_964705" data-name="Grupo 964705" transform="translate(68.413)">
              <path id="Trazado_192288" data-name="Trazado 192288" d="M745.568,402.785c0,1.976-6.332,3.578-14.143,3.578s-14.143-1.6-14.143-3.578,6.332-3.578,14.143-3.578S745.568,400.808,745.568,402.785Z" transform="translate(-717.282 -373.57)" fill="#c43d4b" stroke="#331a1a" stroke-width="1"/>
              <g id="Grupo_964704" data-name="Grupo 964704" transform="translate(3.664)">
                <g id="Grupo_964702" data-name="Grupo 964702">
                  <path id="Trazado_192289" data-name="Trazado 192289" d="M724.214,353.2c0,1.383,4.215,2.5,9.414,2.5s9.414-1.121,9.414-2.5-4.215-2.5-9.414-2.5S724.214,351.821,724.214,353.2Z" transform="translate(-724.214 -350.7)" fill="none" stroke="#351717" stroke-miterlimit="10" stroke-width="1.516"/>
                  <path id="Trazado_192290" data-name="Trazado 192290" d="M733.628,350.7c-5.2,0-9.414,1.121-9.414,2.5v25c0,1.383,4.215,2.5,9.414,2.5s9.414-1.121,9.414-2.5v-25C743.043,351.821,738.828,350.7,733.628,350.7Z" transform="translate(-724.214 -350.7)" fill="none" stroke="#351717" stroke-miterlimit="10" stroke-width="1.516"/>
                  <path id="Trazado_192291" data-name="Trazado 192291" d="M733.628,350.7c-5.2,0-9.414,1.121-9.414,2.5v25c0,1.383,4.215,2.5,9.414,2.5s9.414-1.121,9.414-2.5v-25C743.043,351.821,738.828,350.7,733.628,350.7Z" transform="translate(-724.214 -350.7)" fill="#fff" stroke="#351717" stroke-width="1" opacity="0.5"/>
                  <path id="Trazado_192292" data-name="Trazado 192292" d="M733.628,394.827c-5.2,0-9.414,1.121-9.414,2.5v1.676c0,1.383,4.215,2.5,9.414,2.5s9.414-1.121,9.414-2.5v-1.676C743.043,395.948,738.828,394.827,733.628,394.827Z" transform="translate(-724.214 -371.506)" fill="#fff" stroke="#351717" stroke-width="1"/>
                </g>
                <g id="Grupo_964703" data-name="Grupo 964703" transform="translate(1.443 6.863)">
                  <path id="Trazado_192293" data-name="Trazado 192293" d="M734.915,363.712c-4.4,0-7.971.949-7.971,2.12v17.284c0,1.171,3.568,2.12,7.971,2.12s7.971-.949,7.971-2.12V365.832C742.886,364.661,739.317,363.712,734.915,363.712Z" transform="translate(-726.944 -363.698)" fill="#fd8" stroke="#351717" stroke-width="1"/>
                  <path id="Trazado_192294" data-name="Trazado 192294" d="M734.915,363.712c-4.4,0-7.971.949-7.971,2.12v6.082c0,1.171,3.568,2.12,7.971,2.12s7.971-.949,7.971-2.12v-6.082C742.886,364.661,739.317,363.712,734.915,363.712Z" transform="translate(-726.944 -363.698)" fill="#fff" stroke="#351717" stroke-width="1"/>
                  <ellipse id="Elipse_4960" data-name="Elipse 4960" cx="8.002" cy="2.1" rx="8.002" ry="2.1" transform="translate(0.003)" fill="#01334c" stroke="#351717" stroke-width="1" opacity="0.05"/>
                </g>
              </g>
            </g>
          </g>
        </g>
      </g>
    </g>
  </g>
</svg>
