<svg xmlns="http://www.w3.org/2000/svg" xmlns:xlink="http://www.w3.org/1999/xlink" width="281" height="480" viewBox="0 0 281 480">
  <defs>
    <clipPath id="clip-path">
      <rect id="Rectángulo_338312" data-name="Rectángulo 338312" width="281" height="480" transform="translate(-7374 -9344)" fill="#fff" opacity="0.74"/>
    </clipPath>
    <clipPath id="clip-path-2">
      <path id="Trazado_599155" data-name="Trazado 599155" d="M170.255,507.192c-32.727-14.847-133.809-35.77-146.99-69.272-14.628-37.181.683-78.82.316-118.787-.292-31.661,56.617-61.347,48.566-91.964s-13.964-63.146-5.657-93.694c5.561-20.45,17.372-38.953,32.62-53.634C125.962,53.988,164.65,40,201.408,45.911s70.153,32.854,80.9,68.593c15.225,50.634,23.4,101.114,29.716,153.617,2.473,20.544,10.389,39.972,15.756,59.953,5.7,21.233-29.37,46.809-29.5,68.8-.2,33.7-8.719,69.66-33.8,92.1C239.191,511.616,201.549,521.39,170.255,507.192Z" transform="translate(-16.924 -44.565)" fill="#ffe891" opacity="0.38"/>
    </clipPath>
    <clipPath id="clip-path-3">
      <rect id="Rectángulo_338306" data-name="Rectángulo 338306" width="226.026" height="430.929" transform="translate(0 0)" fill="none"/>
    </clipPath>
    <clipPath id="clip-path-4">
      <rect id="Rectángulo_338310" data-name="Rectángulo 338310" width="91" height="91" transform="translate(0.244 0.283)" fill="#fff" stroke="#707070" stroke-width="1" opacity="0.76"/>
    </clipPath>
    <clipPath id="clip-path-5">
      <rect id="Rectángulo_338311" data-name="Rectángulo 338311" width="113" height="112" transform="translate(0.171 -0.081)" fill="#fff" stroke="#707070" stroke-width="1" opacity="0.76"/>
    </clipPath>
  </defs>
  <g id="Enmascarar_grupo_433" data-name="Enmascarar grupo 433" transform="translate(7374 9344)" clip-path="url(#clip-path)">
    <g id="Grupo_982664" data-name="Grupo 982664" transform="translate(-10.332 -11.479)">
      <g id="Grupo_982661" data-name="Grupo 982661" transform="translate(-7394 -9332.174)">
        <g id="Grupo_179982" data-name="Grupo 179982" transform="translate(45.55 0)">
          <g id="Grupo_166179" data-name="Grupo 166179" transform="translate(0 0)">
            <g id="Grupo_157493" data-name="Grupo 157493" transform="translate(0 0)">
              <path id="Trazado_114544" data-name="Trazado 114544" d="M166.286,507.192c-32.727-14.847-66.667-34.879-79.848-68.382-14.628-37.181.683-78.82.316-118.787-.292-31.661-10.525-62.238-18.576-92.854s-13.964-63.146-5.657-93.694c5.561-20.45,17.372-38.953,32.62-53.634C121.993,53.988,160.68,40,197.439,45.911s70.153,32.854,80.9,68.593c15.225,50.634-14.515,104.684-8.194,157.187,2.473,20.544,10.389,39.972,15.756,59.953a246.232,246.232,0,0,1,8.411,65.228c-.2,33.7-8.719,69.66-33.8,92.1C235.221,511.616,197.58,521.39,166.286,507.192Z" transform="translate(-58.504 -44.565)" fill="#ffe891"/>
            </g>
          </g>
          <g id="Grupo_982294" data-name="Grupo 982294" transform="translate(14.711 30.545)">
            <g id="Grupo_157493-2" data-name="Grupo 157493" transform="translate(0 0)">
              <path id="Trazado_114544-2" data-name="Trazado 114544" d="M153.988,454.408c-28.993-13.153-59.061-30.9-70.738-60.58-12.959-32.939.605-69.827.28-105.234-.259-28.049-9.324-55.137-16.456-82.259s-12.371-55.942-5.012-83c4.926-18.116,15.39-34.508,28.9-47.515,23.788-22.9,58.062-35.3,90.626-30.059s62.149,29.106,71.669,60.767C266.744,151.38,240.4,199.263,246,245.776c2.191,18.2,9.2,35.411,13.958,53.113a218.138,218.138,0,0,1,7.451,57.786c-.178,29.857-7.725,61.712-29.94,81.6C215.059,458.327,181.712,466.986,153.988,454.408Z" transform="translate(-58.504 -44.565)" fill="#fff0b5"/>
            </g>
          </g>
        </g>
        <g id="Enmascarar_grupo_427" data-name="Enmascarar grupo 427" transform="translate(0 0.001)" clip-path="url(#clip-path-2)">
          <g id="Grupo_982656" data-name="Grupo 982656" transform="translate(51.59 42.304)">
            <g id="Grupo_982657" data-name="Grupo 982657" transform="translate(0 0)" clip-path="url(#clip-path-3)">
              <path id="Trazado_599107" data-name="Trazado 599107" d="M270.785.006C248.4.125,235.05,7.764,226.815,18.76a39.326,39.326,0,0,0-4.429,5.419c-5.3,7.739-10.858,21.006-11.919,43.117-.425,8.856-4.94,16.53-9.173,24.065s-8.187,14.934-7.421,23.236a.122.122,0,1,0,.243-.022c-.758-8.213,3.159-15.562,7.39-23.094s8.774-15.241,9.2-24.173c1.06-22.075,6.6-35.293,11.877-42.991a40.689,40.689,0,0,1,3.121-4.012c-12.153,17.667-12.231,43.07-15.189,60.292-3.277,7.544-7.812,15.04-10.975,22.529-2.391,5.661-4,11.322-3.666,17s2.605,11.372,7.947,17.079l.179-.167c-5.31-5.673-7.554-11.3-7.882-16.927s1.262-11.248,3.645-16.892c3.024-7.16,7.323-14.344,10.569-21.6-.227,1.243-.469,2.444-.736,3.589-2.321,9.944-16.587,21.646-9.915,43.771,1.228,4.072,9.931,8.655,18.314,8.14-1.374-6.936.378-11.3,3.225-14.758-2.145,4.686-2.256,10.643.325,18.268l.23-.077c-2.689-7.944-2.436-14.018-.02-18.734-1.3,6.382-1.517,13.347,1.474,19.081,17.055,5.233,75.77,5.735,99.13-1.744,3.049-5.06,2.214-12.39.089-17.15,4.792,4.454,4.743,8.908,6.578,13.361,3.791.041,12.571-3.068,13.773-8.839,1.444-6.938.257-13.791-3.216-20.659a28.862,28.862,0,0,1,4.733,9.73,20.067,20.067,0,0,1-2.294,15.385l.211.122a20.331,20.331,0,0,0,2.32-15.566,30.2,30.2,0,0,0-5.686-11.029q-1.178-2.145-2.645-4.294c-3.915-5.732,2.1-11.378.822-18.089-2.119-11.144-10.635-19.382-13.361-42.962a43.768,43.768,0,0,0-10.653-24.336c8.341,7.812,12.074,18.644,13.356,32.471.737,7.948,4.493,14.1,7.863,19.472s6.34,9.958,5.589,14.781c-.758,4.87-2.169,9.049-2.278,13.062s1.1,7.858,5.572,12l.165-.178c-4.429-4.1-5.6-7.854-5.494-11.814s1.516-8.136,2.277-13.031c.769-4.942-2.254-9.579-5.623-14.949s-7.1-11.48-7.828-19.364C325.25,32.4,321.008,20.92,311.251,12.96,303.826,5.64,293.364.93,280.4.382q-5.064-.406-9.612-.376" transform="translate(-162.101 -0.004)" fill="#241c1c"/>
              <path id="Trazado_599108" data-name="Trazado 599108" d="M416.585,212.917H367.068v31.136l-.217,0a11.439,11.439,0,1,0,0,22.877l.217,0v7.31a33.942,33.942,0,0,0,20.74,31.345l-4.2,23.768c14.72,7.278,29.816,5.921,45.11,0l-4.655-23.8a33.941,33.941,0,0,0,20.654-31.309v-7.38a11.439,11.439,0,1,0,0-22.732V212.917Z" transform="translate(-297.314 -178.113)" fill="#f6bc9f"/>
              <path id="Trazado_599109" data-name="Trazado 599109" d="M552.531,779.642c12.557,3.865,24.756,4.326,36.451,0-13.567,7.419-25.313,5.3-36.451,0" transform="translate(-462.211 -652.198)" fill="#e67f69"/>
              <path id="Trazado_599110" data-name="Trazado 599110" d="M353.075,191.806c-.038-7.489,10.46-12.63,13.2-1.1,4.527-28.316,41.2-14.665,52.212-39.5,10.266,18.083,18.129,19.675,22.68,39.5,2.842-10.087,12.345-6.97,13.784,1.1,5.829-24.463-3-42.171-18.375-53.445H378.2c-19.679,4.685-27.848,28.542-25.124,53.445" transform="translate(-294.933 -115.744)" fill="#241c1c"/>
              <path id="Trazado_599111" data-name="Trazado 599111" d="M311.716,58.141q-.672.006-1.339.025c-12.449.351-23.624,4.015-32.754,13.229-10.434,10.531-18.19,28.284-22.206,56.573-1.221,8.6-6.354,16.714-10.348,25.1s-6.846,17.076-3.415,26.788a.192.192,0,1,0,.362-.128c-3.385-9.581-.582-18.136,3.4-26.5s9.144-16.5,10.382-25.213c4.01-28.243,11.749-45.912,22.1-56.357S301.213,57.973,315.772,58.6a.192.192,0,0,0,.016-.384q-2.057-.088-4.072-.072m10.224.323h-.011a.192.192,0,0,0,0,.383c11.634,1.093,19.009,5.259,24.3,12.88s8.491,18.725,11.663,33.665c3.076,14.491,11.367,24.944,9.444,42.528-1.964,9.633.734,18.658,7.013,27.171a.192.192,0,0,0,.31-.228c-6.237-8.456-8.891-17.356-6.943-26.883v-.018c1.938-17.719-6.4-28.26-9.451-42.65-3.175-14.953-6.372-26.1-11.723-33.8s-12.871-11.943-24.581-13.043h-.017m-5.583,8.759h-.013c-18.888,1.63-29.73,9.114-36.558,18.375s-9.656,20.283-12.591,29a.192.192,0,1,0,.365.122c2.943-8.735,5.764-19.706,12.536-28.89s17.481-16.6,36.282-18.219a.192.192,0,0,0-.02-.384m8.437.582a.193.193,0,0,0-.036.382c8.782,1.613,15.033,8.423,19.671,17.249s7.646,19.648,9.938,29.2a.192.192,0,1,0,.374-.09c-2.295-9.565-5.3-20.413-9.971-29.292s-11-15.808-19.943-17.449a.177.177,0,0,0-.033,0m-9.161,7.168h-.013a.192.192,0,0,0-.174.14c-1.642,5.761-4.11,9.333-7.119,11.8s-6.571,3.839-10.405,5.151c-7.667,2.625-16.417,5.033-23.766,15.674a.193.193,0,0,0,.317.219c7.283-10.546,15.89-12.9,23.574-15.529,3.842-1.315,7.453-2.7,10.524-5.217s5.588-6.176,7.247-11.995a.192.192,0,0,0-.132-.237.188.188,0,0,0-.052-.008m9.592,1.116a.193.193,0,0,0-.087.363c12.545,6.656,15.771,21.128,22.013,33.2a.192.192,0,1,0,.341-.177c-6.209-12.012-9.449-26.616-22.173-33.367a.194.194,0,0,0-.094-.023m-62.014,62.2h0a.192.192,0,0,0-.189.161c-1.372,8.526-6.091,14.8-9.821,21.263s-6.457,13.149-3.74,22.4a.193.193,0,0,0,.239.131.192.192,0,0,0,.13-.239c-2.684-9.137-.009-15.663,3.7-22.1s8.478-12.761,9.868-21.394a.193.193,0,0,0-.16-.221.17.17,0,0,0-.031,0m93.935,2.261a.192.192,0,0,0-.186.182,85.166,85.166,0,0,0,2.472,23.08.192.192,0,0,0,.373-.095,84.839,84.839,0,0,1-2.462-22.965.192.192,0,0,0-.18-.2h-.017m-9.04,15.417a.19.19,0,0,0-.162.09.192.192,0,0,0-.024.145c2.471,10.636,4.658,21.257,1.236,32.378a.193.193,0,0,0,.368.114c3.455-11.231,1.243-21.937-1.23-32.579a.192.192,0,0,0-.188-.148m-76.671,2.26h0a.192.192,0,0,0-.182.129c-6.393,18.148-.817,30.77-.817,30.77a.192.192,0,1,0,.352-.156s-5.524-12.456.827-30.486a.2.2,0,0,0-.18-.257" transform="translate(-200.869 -48.635)" fill="#483737"/>
              <path id="Trazado_599112" data-name="Trazado 599112" d="M636.224,445.252a.8.8,0,0,0-.8.954,18.206,18.206,0,0,1-1.943,11.265,12.247,12.247,0,0,0-1.489,4.165,5.06,5.06,0,0,0,.708,3.6,5.211,5.211,0,0,0,3.412,2.015,16.081,16.081,0,0,0,5.906-.177.8.8,0,1,0-.283-1.568,14.735,14.735,0,0,1-5.311.184,3.567,3.567,0,0,1-2.41-1.355,3.454,3.454,0,0,1-.442-2.483,10.826,10.826,0,0,1,1.307-3.611,19.854,19.854,0,0,0,2.108-12.345.8.8,0,0,0-.761-.638" transform="translate(-528.631 -372.469)" fill="#e67f69"/>
              <path id="Trazado_599113" data-name="Trazado 599113" d="M619.417,639.2c4.876-4.846,9.318-4.72,14.557.159a.626.626,0,0,1-.584.988A24.883,24.883,0,0,0,619.9,640.3a.623.623,0,0,1-.481-1.1" transform="translate(-517.982 -531.731)" fill="#f55"/>
              <path id="Trazado_599114" data-name="Trazado 599114" d="M528.75,433.786a4.55,4.55,0,1,1,4.55,4.55,4.55,4.55,0,0,1-4.55-4.55" transform="translate(-442.318 -359.071)" fill="#241c1c"/>
              <path id="Trazado_599115" data-name="Trazado 599115" d="M517.461,371.9a1.158,1.158,0,0,0-.832.683c-.173.41-.179.465-.36.57a4.027,4.027,0,0,1-2.161.145c-3.424-.356-8.7.749-12.943,2.874a1.158,1.158,0,0,0,1.038,2.07c3.809-1.909,9.046-2.915,11.665-2.643a5.761,5.761,0,0,0,3.564-.446,3.287,3.287,0,0,0,1.331-1.672,1.157,1.157,0,0,0-1.3-1.582" transform="translate(-418.707 -311.084)" fill="#241c1c"/>
              <path id="Trazado_599116" data-name="Trazado 599116" d="M759.636,433.786a4.55,4.55,0,1,0-4.55,4.55,4.55,4.55,0,0,0,4.55-4.55" transform="translate(-627.85 -359.071)" fill="#241c1c"/>
              <path id="Trazado_599117" data-name="Trazado 599117" d="M723.7,371.9a1.158,1.158,0,0,1,.832.683c.173.41.179.465.36.57a4.028,4.028,0,0,0,2.161.145c3.424-.356,8.7.749,12.943,2.874a1.158,1.158,0,0,1-1.037,2.07c-3.809-1.909-9.046-2.915-11.666-2.643a5.761,5.761,0,0,1-3.564-.446,3.288,3.288,0,0,1-1.331-1.672,1.157,1.157,0,0,1,1.3-1.582" transform="translate(-604.239 -311.084)" fill="#241c1c"/>
              <path id="Trazado_599118" data-name="Trazado 599118" d="M291.169,2179.656c-.043,0-.129.016-.129.016L136.375,2187.9c-3.953,1.2-8.107,9.635-6.234,21.4.366,2.3-1.724,5.07.525,6.8-5.468,13.039-13.052,20.813-14.1,37.417H313.6c-3.186-20.545-10.685-33-16.21-47.388,1.959-5.9-2.811-15.784-4.614-23.754-.4-1.772-.964-2.731-1.606-2.717m-.109,4.077c1.359,4.139,3.221,10.108,3.856,13.005-1.9-1.912-3.383-7.9-4.231-12.962-.028-.269.252-.337.375-.043m-155.211,8.8a33.6,33.6,0,0,1-.774,8.674c-.838,3.3-1.567,5.408-2.161,7.705-.091.26-.342.25-.389-.158-1.047-7.142-.266-12.757,2.391-16.568.481-.614.9-.5.932.347" transform="translate(-97.509 -1823.359)" fill="#241c1c"/>
              <path id="Trazado_599119" data-name="Trazado 599119" d="M362,2184.558h-.031a.216.216,0,0,0-.187.241,22.578,22.578,0,0,0,.6,3.041.216.216,0,1,0,.417-.111,22.219,22.219,0,0,1-.594-2.984.215.215,0,0,0-.21-.189m-153.668,7.232a.215.215,0,0,0-.215.19,35.381,35.381,0,0,1-.645,3.488.215.215,0,1,0,.42.095,35.875,35.875,0,0,0,.653-3.531.216.216,0,0,0-.188-.24l-.026,0m132.483,7.824a.218.218,0,0,0-.1.024.215.215,0,0,0-.093.29c5.134,9.911,8.321,20.281,10.808,31.741a1.115,1.115,0,0,1-.559,1.117,4.712,4.712,0,0,1-1.758.745,5.462,5.462,0,0,1-1.914.11,1.866,1.866,0,0,1-.65-.207.537.537,0,0,1-.274-.319h0a192.99,192.99,0,0,0-9.979-31.739.216.216,0,1,0-.4.165,190.09,190.09,0,0,1,8.112,24.113c-14.868,6.481-33.869,7.531-49.695,10.907-.988-7.316-2.709-13.344-1.4-20.76.832-3.017,12.789-2.967,17.91-6.815-5.655,2.48-16.883,2.429-18.608,4.856-3.087,5.406-1.373,11.99.157,20.584-17.969,1.537-37.383,3.309-61.52-2.3,2.009-9.011,3.773-16.909,6.077-25.741a.216.216,0,0,0-.418-.109c-2.73,10.467-4.678,19.515-7.2,30.789h0a.542.542,0,0,1-.274.32,1.865,1.865,0,0,1-.65.206,5.449,5.449,0,0,1-1.914-.11,4.72,4.72,0,0,1-1.758-.746,1.114,1.114,0,0,1-.559-1.117c.4-1.676.758-3.294,1.1-4.878a.22.22,0,0,0,.033-.053.217.217,0,0,0,.009-.146c1.909-9,3.1-16.765,6.912-25.757a.216.216,0,0,0-.114-.283.222.222,0,0,0-.09-.017h-.01a.216.216,0,0,0-.183.132c-3.812,8.99-5.017,16.745-6.9,25.671-6.229-2.7-16.256-7.07-20.583-13.327a.217.217,0,0,0-.072-.065,21.248,21.248,0,0,0,.791-3.474.215.215,0,0,0-.185-.241l-.025,0a.216.216,0,0,0-.216.187,20.772,20.772,0,0,1-2.008,6.415.215.215,0,1,0,.381.2,18.391,18.391,0,0,0,1.1-2.6c4.529,6.365,14.557,10.666,20.722,13.337-.333,1.563-.685,3.158-1.08,4.808l0,.009a1.575,1.575,0,0,0,.72,1.545,5.061,5.061,0,0,0,1.924.823,5.811,5.811,0,0,0,2.074.115,2.24,2.24,0,0,0,.8-.262.984.984,0,0,0,.471-.578l0-.01c.361-1.609.691-3.092,1.032-4.621,24.221,5.631,43.712,3.846,61.689,2.309a72.169,72.169,0,0,1,.879,23.193,55.756,55.756,0,0,0,1.041-21.055c15.759-3.366,34.771-4.405,49.748-10.913q.922,3.518,1.737,7.141l0,.01a.985.985,0,0,0,.471.578,2.237,2.237,0,0,0,.8.263,5.8,5.8,0,0,0,2.074-.115,5.059,5.059,0,0,0,1.924-.823,1.573,1.573,0,0,0,.721-1.544v0q-.869-4-1.868-7.84c7.426-3.53,15.025-7.346,18.533-15.337a9.8,9.8,0,0,0,.533,1.68.215.215,0,1,0,.4-.17c-1.133-2.639-.611-5.921-2.381-9.179a.215.215,0,0,0-.188-.112.211.211,0,0,0-.1.026.215.215,0,0,0-.087.292c1.222,2.25,1.287,4.556,1.679,6.717l-.007.016c-3.312,8.185-10.916,12.043-18.485,15.643A114.059,114.059,0,0,0,341,2199.731a.219.219,0,0,0-.186-.117m-43.071,18.807a3.526,3.526,0,0,0-2.759,1.469,6.078,6.078,0,0,0,0,7.1,3.325,3.325,0,0,0,5.519,0,6.078,6.078,0,0,0,0-7.1,3.526,3.526,0,0,0-2.759-1.469m55.307,5.135c4.237,10.517,7.533,25.53,16.617,34.2-6.983-10.5-11.276-22.679-16.617-34.2m-131.939,6.358c-3.676,9.669-7.106,19.461-12.093,28.474,6.287-7.421,10-17.272,12.093-28.474" transform="translate(-169.467 -1827.46)" fill="#483737"/>
              <path id="Trazado_599120" data-name="Trazado 599120" d="M130.923,904.982c-15.393,6.72-29.875,7.26-44.2,0-24.167,3.359-46.71,7.766-66.335,12.489C-1.622,914.314-1.759,982.2,1.589,1025.6c-.93,6.53,3.178,24.452,13.762,32.45,4.807,5.327,9.476,9.614,13.827,11.523,1.517,9.209-.092,16.952-.485,25.107-.316,6.554.422,22.126,12.96,29.485,42.024,29.542,128.353,9.4,136.326,1.715s13.878-9.116,17.839-13.723c5.863-6.816,12.124-10.786,6.947-24.358-.39-11.659-1.211-24.325,1.029-29.847,6.695-9.251,13.773-17.543,17.668-33.792,14.342-79.834-7.93-115.087-28.049-109.438-20.006-4.117-40.12-5.535-62.491-9.744" transform="translate(0 -757.05)" fill="#f60"/>
              <path id="Trazado_599121" data-name="Trazado 599121" d="M292.069,780.986c15.784,14.778,21.876,27.787,29.718,32.677,7.771-23.792,16.205-54.182,21.013-80.449,3.235-8.388,1.531-16.017-1.115-23.5,2.36-3.065,7.328-5.238,6.432-9.692-1.365-4.386-2.731-12.807-7.2-11.235-1.916-2.463-1.93-7.427-6.549-7.785-3.4-2.723-6.927-8.469-10.476-7.353-.223-5.766-6.225-7.366-9.265-4-1.255-.078-2.684.647-3.7,2.562-3.409,5.431-5.614,12.108-8.97,17.175-1.844,2.964-3.707,5.922-2.316,9.778,5.334,10.909,16.443,24.189,16.66,31.219,1.638,11.166-15.124,35.86-24.229,50.6" transform="translate(-244.326 -558.727)" fill="#f6bc9f"/>
              <path id="Trazado_599122" data-name="Trazado 599122" d="M386.648,701.719a.213.213,0,0,0-.08.015c-2.5,1-5.394,4.2-8.667,8.032a140.04,140.04,0,0,1-10.74,11.865.216.216,0,1,0,.293.316,140.037,140.037,0,0,0,10.774-11.9c3.268-3.83,6.191-6.992,8.5-7.911a.216.216,0,0,0-.079-.416" transform="translate(-307.085 -587.013)" fill="#e67f69"/>
              <path id="Trazado_599123" data-name="Trazado 599123" d="M428.935,677.251a.216.216,0,1,0,.013.431c1.373-.04,2.686.733,4.152,1.646a15.2,15.2,0,0,0,5.064,2.348.215.215,0,1,0,.084-.422,14.882,14.882,0,0,1-4.921-2.292c-1.47-.915-2.853-1.756-4.392-1.711" transform="translate(-358.644 -566.543)" fill="#e67f69"/>
              <path id="Trazado_599124" data-name="Trazado 599124" d="M465.155,746.7a7.537,7.537,0,0,0-3.489,1.218,49.616,49.616,0,0,0-4.154,2.779c-2.924,2.1-6.09,4.445-8.949,5.429a.215.215,0,0,0,.14.407c2.965-1.02,6.141-3.386,9.061-5.487a49.417,49.417,0,0,1,4.115-2.754,7.267,7.267,0,0,1,3.276-1.161.216.216,0,0,0,0-.431" transform="translate(-375.117 -624.645)" fill="#e67f69"/>
              <path id="Trazado_599125" data-name="Trazado 599125" d="M522.6,794.326a20.94,20.94,0,0,0-6.832,2.306,16.088,16.088,0,0,1-6.274,1.982.215.215,0,0,0,.009.431,16.358,16.358,0,0,0,6.449-2.023,20.642,20.642,0,0,1,6.689-2.267.216.216,0,1,0-.041-.429" transform="translate(-426.032 -664.481)" fill="#e67f69"/>
              <path id="Trazado_599126" data-name="Trazado 599126" d="M580.823,834.66a.215.215,0,0,0-.174.1c-.9,1.476-1.313,2.955-3.658,3.916a.216.216,0,0,0-.1.084,8.128,8.128,0,0,0-1.246,3.984.215.215,0,0,0,.059.161c1.556,1.631,1.977,4.2,3.007,6.394a.216.216,0,1,0,.391-.183c-.976-2.078-1.4-4.648-3.014-6.41a7.654,7.654,0,0,1,1.151-3.678c2.39-1.017,2.928-2.646,3.779-4.042a.215.215,0,0,0-.194-.327" transform="translate(-481.547 -698.223)" fill="#e67f69"/>
              <path id="Trazado_599127" data-name="Trazado 599127" d="M584.378,868.046a.216.216,0,0,0-.07.413,14.7,14.7,0,0,0,6.512,1.048.215.215,0,1,0,0-.43,14.237,14.237,0,0,1-6.345-1.014.217.217,0,0,0-.1-.017" transform="translate(-488.685 -726.151)" fill="#e67f69"/>
              <path id="Trazado_599128" data-name="Trazado 599128" d="M317.682,666.53a5.438,5.438,0,0,0-4.313,1.746c-1.325-.038-2.787.749-3.806,2.668l0,0c-3.425,5.462-5.631,12.131-8.958,17.156l0,0a21.885,21.885,0,0,0-2.394,4.6,7.953,7.953,0,0,0,.058,5.371l.009.023c2.679,5.478,6.793,11.527,10.261,17.084s6.272,10.642,6.376,14.042a.248.248,0,0,0,0,.026c.8,5.449-2.943,14.419-8.06,23.819s-11.582,19.255-16.137,26.631a.227.227,0,0,0,.038.285c15.757,14.752,21.8,27.746,29.753,32.7a.227.227,0,0,0,.336-.122c7.773-23.8,16.208-54.189,21.019-80.471,3.225-8.393,1.541-16.041-1.081-23.49,1.152-1.458,2.925-2.75,4.345-4.228,1.446-1.505,2.519-3.255,2.054-5.568,0-.008,0-.015-.006-.023a76.256,76.256,0,0,0-2.445-7.875,7.916,7.916,0,0,0-2.011-2.992,2.982,2.982,0,0,0-2.848-.556c-.866-1.177-1.363-2.948-2.177-4.529a5.267,5.267,0,0,0-4.377-3.2c-1.658-1.338-3.38-3.433-5.137-5.077a11.316,11.316,0,0,0-2.7-1.981,3.846,3.846,0,0,0-2.567-.329,5.877,5.877,0,0,0-3.685-5.4,5.452,5.452,0,0,0-1.545-.322m-.026.452a5,5,0,0,1,1.415.3,5.433,5.433,0,0,1,3.428,5.22.227.227,0,0,0,.295.207,3.3,3.3,0,0,1,2.491.284,10.952,10.952,0,0,1,2.582,1.9c1.734,1.621,3.465,3.741,5.194,5.128a.226.226,0,0,0,.124.049,4.731,4.731,0,0,1,4.1,2.981c.8,1.562,1.28,3.428,2.284,4.718a.227.227,0,0,0,.254.074,2.485,2.485,0,0,1,2.6.438,7.579,7.579,0,0,1,1.882,2.823,76.817,76.817,0,0,1,2.423,7.807c.429,2.139-.533,3.7-1.937,5.163s-3.242,2.771-4.454,4.343a.227.227,0,0,0-.034.215c2.64,7.467,4.326,15.022,1.117,23.342a.23.23,0,0,0-.012.041c-4.785,26.145-13.167,56.372-20.91,80.113-7.6-4.927-13.77-17.743-29.309-32.334,4.545-7.352,10.954-17.133,16.053-26.5,5.124-9.412,8.939-18.361,8.113-24.079-.113-3.63-2.97-8.7-6.444-14.265s-7.573-11.6-10.23-17.028a7.452,7.452,0,0,1-.051-5.068,21.581,21.581,0,0,1,2.344-4.5l0,0c3.379-5.1,5.583-11.778,8.97-17.174l.008-.014c.986-1.858,2.328-2.514,3.486-2.442a.226.226,0,0,0,.182-.075,4.981,4.981,0,0,1,4.028-1.661" transform="translate(-243.163 -557.568)" fill="#e67f69"/>
              <path id="Trazado_599129" data-name="Trazado 599129" d="M771.5,779.272c-11.357,12.413-21.018,30.145-28.861,35.036-7.771-23.792-19.723-58.536-24.53-84.8-3.235-8.388-1.531-16.016,1.115-23.5-2.36-3.065-7.328-5.238-6.432-9.691,1.364-4.386,2.731-12.807,7.2-11.236,1.916-2.463,1.93-7.427,6.549-7.785,3.4-2.723,6.927-8.469,10.476-7.353.223-5.766,6.225-7.366,9.265-4,1.255-.078,2.684.647,3.7,2.562,3.409,5.431,5.614,12.108,8.97,17.175,1.844,2.964,3.707,5.922,2.316,9.777-5.335,10.909-16.443,24.189-16.66,31.219-1.638,11.166,17.784,37.856,26.889,52.6" transform="translate(-596.183 -555.624)" fill="#f6bc9f"/>
              <path id="Trazado_599130" data-name="Trazado 599130" d="M860.457,698.012a.216.216,0,0,0-.085.416c2.308.919,5.231,4.081,8.5,7.911a140.016,140.016,0,0,0,10.775,11.9.215.215,0,1,0,.292-.316A140.021,140.021,0,0,1,869.2,706.059c-3.273-3.836-6.166-7.036-8.667-8.032a.213.213,0,0,0-.075-.015" transform="translate(-719.617 -583.912)" fill="#e67f69"/>
              <path id="Trazado_599131" data-name="Trazado 599131" d="M869.724,673.538c-1.54-.046-2.923.8-4.393,1.711a14.877,14.877,0,0,1-4.921,2.292.215.215,0,1,0,.084.422,15.2,15.2,0,0,0,5.065-2.349c1.466-.913,2.779-1.686,4.151-1.646a.216.216,0,1,0,.013-.431" transform="translate(-719.618 -563.437)" fill="#e67f69"/>
              <path id="Trazado_599132" data-name="Trazado 599132" d="M796.365,742.992a.215.215,0,1,0,0,.431,7.271,7.271,0,0,1,3.276,1.162,49.382,49.382,0,0,1,4.115,2.754c2.921,2.1,6.1,4.467,9.061,5.487a.215.215,0,0,0,.141-.407c-2.86-.984-6.026-3.326-8.95-5.43a49.617,49.617,0,0,0-4.154-2.779,7.536,7.536,0,0,0-3.489-1.218" transform="translate(-666.006 -621.539)" fill="#e67f69"/>
              <path id="Trazado_599133" data-name="Trazado 599133" d="M756.3,790.618a.216.216,0,0,0-.016.43,20.647,20.647,0,0,1,6.69,2.267,16.357,16.357,0,0,0,6.449,2.022.215.215,0,1,0,.008-.431,16.08,16.08,0,0,1-6.273-1.981,20.946,20.946,0,0,0-6.832-2.306H756.3" transform="translate(-632.496 -661.38)" fill="#e67f69"/>
              <path id="Trazado_599134" data-name="Trazado 599134" d="M739.782,830.947a.216.216,0,0,0-.174.327c.852,1.4,1.39,3.026,3.78,4.043A7.658,7.658,0,0,1,744.538,839c-1.612,1.762-2.038,4.332-3.013,6.409a.215.215,0,1,0,.39.183c1.03-2.193,1.45-4.762,3.007-6.393a.215.215,0,0,0,.059-.161,8.124,8.124,0,0,0-1.245-3.984.216.216,0,0,0-.1-.085c-2.345-.961-2.758-2.439-3.658-3.915a.215.215,0,0,0-.194-.1" transform="translate(-618.681 -695.117)" fill="#e67f69"/>
              <path id="Trazado_599135" data-name="Trazado 599135" d="M728.781,864.337a.216.216,0,0,0-.08.018,14.233,14.233,0,0,1-6.345,1.013.215.215,0,0,0,0,.431,14.707,14.707,0,0,0,6.513-1.049.215.215,0,0,0-.09-.413" transform="translate(-604.097 -723.048)" fill="#e67f69"/>
              <path id="Trazado_599136" data-name="Trazado 599136" d="M740.9,662.823a5.444,5.444,0,0,0-1.545.322,5.875,5.875,0,0,0-3.684,5.4,3.845,3.845,0,0,0-2.568.328,11.308,11.308,0,0,0-2.7,1.981c-1.758,1.644-3.48,3.739-5.139,5.077a5.266,5.266,0,0,0-4.376,3.2c-.814,1.581-1.31,3.353-2.176,4.529a2.983,2.983,0,0,0-2.848.556,7.921,7.921,0,0,0-2.012,2.993,76.138,76.138,0,0,0-2.445,7.875.22.22,0,0,0-.006.022c-.465,2.313.609,4.064,2.055,5.569,1.42,1.478,3.192,2.77,4.344,4.228-2.622,7.451-4.308,15.1-1.077,23.5,4.816,26.3,16.765,61.031,24.533,84.814a.227.227,0,0,0,.336.122c3.99-2.488,8.358-8.157,13.175-14.756s10.069-14.129,15.733-20.32a.227.227,0,0,0,.025-.272c-4.558-7.38-11.688-17.735-17.47-27.635a112.693,112.693,0,0,1-7.171-14.072c-1.726-4.286-2.615-8.024-2.216-10.739a.232.232,0,0,0,0-.025c.1-3.4,2.909-8.485,6.376-14.042s7.581-11.607,10.26-17.085a.209.209,0,0,0,.01-.023,7.953,7.953,0,0,0,.057-5.371,21.865,21.865,0,0,0-2.394-4.6l0-.006c-3.327-5.024-5.533-11.693-8.958-17.156l0,0c-1.02-1.919-2.482-2.707-3.807-2.668a5.438,5.438,0,0,0-4.312-1.745m.026.452a4.981,4.981,0,0,1,4.028,1.661.228.228,0,0,0,.183.074c1.158-.072,2.5.584,3.485,2.443l.008.014c3.388,5.4,5.591,12.074,8.972,17.179a21.582,21.582,0,0,1,2.345,4.5,7.452,7.452,0,0,1-.05,5.065c-2.656,5.428-6.759,11.468-10.231,17.032s-6.326,10.628-6.443,14.257c-.415,2.866.508,6.646,2.245,10.959a113.042,113.042,0,0,0,7.2,14.132c5.764,9.868,12.837,20.152,17.387,27.506-5.649,6.2-10.87,13.676-15.65,20.224-4.719,6.464-9.018,11.974-12.815,14.453-7.774-23.787-19.638-58.333-24.422-84.466a.212.212,0,0,0-.012-.041c-3.209-8.32-1.523-15.876,1.117-23.343a.227.227,0,0,0-.034-.214c-1.211-1.573-3.05-2.883-4.454-4.344s-2.366-3.023-1.936-5.162v0a76.73,76.73,0,0,1,2.422-7.806,7.574,7.574,0,0,1,1.883-2.822,2.484,2.484,0,0,1,2.6-.438.227.227,0,0,0,.254-.075c1-1.29,1.48-3.155,2.284-4.717a4.731,4.731,0,0,1,4.1-2.981.226.226,0,0,0,.125-.05c1.729-1.386,3.459-3.505,5.194-5.127a10.951,10.951,0,0,1,2.582-1.9,3.3,3.3,0,0,1,2.491-.283.227.227,0,0,0,.295-.208,5.432,5.432,0,0,1,3.428-5.22,5.006,5.006,0,0,1,1.415-.3" transform="translate(-595.027 -554.467)" fill="#e67f69"/>
              <path id="Trazado_599137" data-name="Trazado 599137" d="M178.505,1595.323c41.874,47.455,37.071-27.531,50.683-54.212a5.608,5.608,0,0,0,.665-2.611,9.849,9.849,0,0,0-1.618-5.037,8.541,8.541,0,0,1,.816,4.672,4.182,4.182,0,0,1-.575,1.193c-15.359,24.793-22.516,66.211-49.97,55.995" transform="translate(-149.326 -1282.797)" fill="#d45500"/>
              <path id="Trazado_599138" data-name="Trazado 599138" d="M233.125,1358.761c-1.981.248-8.672,9.762-11.518,13.148,3.09-4.891,10.194-14.775,11.518-13.148" transform="translate(-185.382 -1136.502)" fill="#d45500"/>
              <path id="Trazado_599139" data-name="Trazado 599139" d="M58.657,1487.939c-15.292-31.392,14.557-47.2,24.38-57.614-15.118,15.447-34.087,28.824-24.38,57.614" transform="translate(-45.488 -1196.517)" fill="#d45500"/>
              <path id="Trazado_599140" data-name="Trazado 599140" d="M9.724,1507.9c1.388-18.327,15.894-22.448,23.466-26.377-10.034,5.219-19.628,11.149-23.466,26.377" transform="translate(-8.134 -1239.347)" fill="#d45500"/>
              <path id="Trazado_599141" data-name="Trazado 599141" d="M124.756,981.382c18.712,9.707,21.552,31.834,30.876,48.887-8.729-17.805-10.2-42.619-30.876-48.887" transform="translate(-104.363 -820.961)" fill="#d45500"/>
              <path id="Trazado_599142" data-name="Trazado 599142" d="M76.9,1100.873c9.369,15.371,20.655,18.385,30.809,24.723-10.96-7.058-22.046-13.9-30.809-24.723" transform="translate(-64.328 -920.919)" fill="#d45500"/>
              <path id="Trazado_599143" data-name="Trazado 599143" d="M48.653,1290.827A153.132,153.132,0,0,0,80,1311.8Z" transform="translate(-40.7 -1079.822)" fill="#d45500"/>
              <path id="Trazado_599144" data-name="Trazado 599144" d="M475.318,1533.464l-1.448,4.269,2.016,1.255c.982-1.375.366-3.569-.568-5.524" transform="translate(-396.409 -1282.797)" fill="#d45500"/>
              <path id="Trazado_599145" data-name="Trazado 599145" d="M877.513,1555.724c-.319.91-2.06,4.139-.436,6.26,9.593,15.234,34.2,67.578,59.279,40.341-11.619,37.863-40.208,30.736-60.058-39.989-1.208-1.925-.441-5.257,1.216-6.612" transform="translate(-732.56 -1301.418)" fill="#d45500"/>
              <path id="Trazado_599146" data-name="Trazado 599146" d="M880.738,1555.724l1.5,4.378c-.577.3-1.227,1.139-2.194,1.657-1.02-1.79-.241-3.926.694-6.035" transform="translate(-735.785 -1301.418)" fill="#d45500"/>
              <path id="Trazado_599147" data-name="Trazado 599147" d="M1072.484,1363.74c1.477-4.771,10.2,11.522,18.46,15.739-8.469-3.059-15.62-17.471-18.46-15.739" transform="translate(-897.17 -1140.092)" fill="#d45500"/>
              <path id="Trazado_599148" data-name="Trazado 599148" d="M1215.833,1493.024c15.7,12.69,6.575,35.659.121,44.454,6.212-12.96,13.22-31.91-.121-44.454" transform="translate(-1017.087 -1248.967)" fill="#d45500"/>
              <path id="Trazado_599149" data-name="Trazado 599149" d="M1185.411,1462.419c2.085-.377,3.965.174,4.973,4.67-.524-4.651-2.336-5.787-4.973-4.67" transform="translate(-991.638 -1223.032)" fill="#d45500"/>
              <path id="Trazado_599150" data-name="Trazado 599150" d="M1256.815,1566.854c12.593,17.759,2.3,27.64-3.881,38.935,6.227-11.21,14.2-21.794,3.881-38.935" transform="translate(-1048.123 -1310.729)" fill="#d45500"/>
              <path id="Trazado_599151" data-name="Trazado 599151" d="M1192.831,1451.1c22.565,13.753,29.828,25.747,24.259,36.267,4.344-13.539-9.592-24.945-24.259-36.267" transform="translate(-997.845 -1213.897)" fill="#d45500"/>
              <path id="Trazado_599152" data-name="Trazado 599152" d="M1090.584,964.592c-10.821,16.2-17.29,43.841-18.1,65.972,2.393-20.361,8.5-47.309,18.1-65.972" transform="translate(-897.17 -806.915)" fill="#d45500"/>
              <path id="Trazado_599153" data-name="Trazado 599153" d="M1119.885,1089.743c-11.149,8.849-25,14.012-32.991,27.17,10.469-11.167,24.131-17.208,32.991-27.17" transform="translate(-909.225 -911.609)" fill="#d45500"/>
              <path id="Trazado_599154" data-name="Trazado 599154" d="M1157.657,1243.338c-7.413,7.563-15.384,14.743-27.9,18.8,10.038-5.158,19.147-11.711,27.9-18.8" transform="translate(-945.084 -1040.096)" fill="#d45500"/>
            </g>
          </g>
        </g>
        <g id="Grupo_982658" data-name="Grupo 982658" transform="translate(256.312 175.765)">
          <path id="Trazado_599158" data-name="Trazado 599158" d="M1593.538,945.968a11.677,11.677,0,0,0-2.836.611.5.5,0,1,0,.35.941,10.584,10.584,0,0,1,4.066-.551,4.241,4.241,0,0,1,2.682,1.161,5.38,5.38,0,0,1,1.3,3.838,2.91,2.91,0,0,0,1.83,2.749,11.219,11.219,0,0,0,3.452.58,11.571,11.571,0,0,1,3.264.538,2.273,2.273,0,0,1,1.582,2c.38,2.564.33,4.123.955,5.381a3.664,3.664,0,0,0,1.542,1.557,13.32,13.32,0,0,0,3,1.117,3.875,3.875,0,0,1,2.325,1.457,3.556,3.556,0,0,1,.53,2.175,25.5,25.5,0,0,1-1.239,5.175.5.5,0,1,0,.972.256,24.286,24.286,0,0,0,1.272-5.4,4.564,4.564,0,0,0-.7-2.773,4.923,4.923,0,0,0-2.89-1.86,12.646,12.646,0,0,1-2.768-1.021,2.547,2.547,0,0,1-1.14-1.132c-.451-.908-.471-2.455-.861-5.08a3.431,3.431,0,0,0-2.2-2.781,11.923,11.923,0,0,0-3.569-.608,11.066,11.066,0,0,1-3.135-.5,1.738,1.738,0,0,1-1.215-1.846,6.415,6.415,0,0,0-1.587-4.52,5.255,5.255,0,0,0-3.3-1.455,9.068,9.068,0,0,0-1.68,0" transform="translate(-1590.376 -936.997)" stroke="#000" stroke-width="1"/>
          <path id="Trazado_599159" data-name="Trazado 599159" d="M1642.758,895.576a11.672,11.672,0,0,0-2.836.611.5.5,0,0,0,.35.942,10.589,10.589,0,0,1,4.067-.551,4.24,4.24,0,0,1,2.682,1.16,5.382,5.382,0,0,1,1.3,3.839,2.91,2.91,0,0,0,1.831,2.749,11.226,11.226,0,0,0,3.452.579,11.572,11.572,0,0,1,3.264.538,2.274,2.274,0,0,1,1.581,2c.38,2.564.33,4.122.955,5.38a3.666,3.666,0,0,0,1.542,1.558,13.327,13.327,0,0,0,3,1.117,3.874,3.874,0,0,1,2.325,1.457,3.552,3.552,0,0,1,.53,2.174,25.474,25.474,0,0,1-1.239,5.175.5.5,0,1,0,.972.256,24.273,24.273,0,0,0,1.272-5.4,4.567,4.567,0,0,0-.7-2.774,4.922,4.922,0,0,0-2.89-1.86,12.644,12.644,0,0,1-2.768-1.021,2.544,2.544,0,0,1-1.139-1.131c-.451-.909-.471-2.455-.861-5.081a3.433,3.433,0,0,0-2.2-2.781,11.921,11.921,0,0,0-3.569-.608,11.06,11.06,0,0,1-3.135-.5,1.737,1.737,0,0,1-1.215-1.845,6.417,6.417,0,0,0-1.587-4.521,5.255,5.255,0,0,0-3.3-1.455,9.065,9.065,0,0,0-1.68,0" transform="translate(-1630.869 -895.538)" stroke="#000" stroke-width="1"/>
        </g>
        <g id="Grupo_982660" data-name="Grupo 982660" transform="translate(32.325 175.765)">
          <path id="Trazado_599158-2" data-name="Trazado 599158" d="M1615.425,945.968a11.677,11.677,0,0,1,2.836.611.5.5,0,1,1-.35.941,10.583,10.583,0,0,0-4.067-.551,4.24,4.24,0,0,0-2.682,1.161,5.38,5.38,0,0,0-1.3,3.838,2.91,2.91,0,0,1-1.83,2.749,11.22,11.22,0,0,1-3.452.58,11.571,11.571,0,0,0-3.264.538,2.273,2.273,0,0,0-1.582,2c-.38,2.564-.33,4.123-.955,5.381a3.664,3.664,0,0,1-1.542,1.557,13.323,13.323,0,0,1-3,1.117,3.875,3.875,0,0,0-2.325,1.457,3.556,3.556,0,0,0-.53,2.175,25.5,25.5,0,0,0,1.239,5.175.5.5,0,1,1-.972.256,24.286,24.286,0,0,1-1.272-5.4,4.564,4.564,0,0,1,.7-2.773,4.923,4.923,0,0,1,2.89-1.86,12.649,12.649,0,0,0,2.768-1.021,2.546,2.546,0,0,0,1.14-1.132c.451-.908.471-2.455.861-5.08a3.431,3.431,0,0,1,2.2-2.781,11.923,11.923,0,0,1,3.569-.608,11.067,11.067,0,0,0,3.135-.5,1.738,1.738,0,0,0,1.215-1.846,6.415,6.415,0,0,1,1.587-4.52,5.255,5.255,0,0,1,3.3-1.455,9.067,9.067,0,0,1,1.68,0" transform="translate(-1581.65 -936.997)" stroke="#000" stroke-width="1"/>
          <path id="Trazado_599159-2" data-name="Trazado 599159" d="M1664.644,895.576a11.672,11.672,0,0,1,2.836.611.5.5,0,0,1-.35.942,10.589,10.589,0,0,0-4.067-.551,4.241,4.241,0,0,0-2.682,1.16,5.383,5.383,0,0,0-1.3,3.839,2.91,2.91,0,0,1-1.831,2.749,11.226,11.226,0,0,1-3.452.579,11.572,11.572,0,0,0-3.264.538,2.275,2.275,0,0,0-1.581,2c-.38,2.564-.33,4.122-.955,5.38a3.666,3.666,0,0,1-1.542,1.558,13.326,13.326,0,0,1-3,1.117,3.876,3.876,0,0,0-2.325,1.457,3.554,3.554,0,0,0-.53,2.174,25.49,25.49,0,0,0,1.239,5.175.5.5,0,1,1-.972.256,24.28,24.28,0,0,1-1.272-5.4,4.567,4.567,0,0,1,.7-2.774,4.922,4.922,0,0,1,2.89-1.86,12.64,12.64,0,0,0,2.768-1.021,2.544,2.544,0,0,0,1.139-1.131c.451-.909.471-2.455.861-5.081a3.433,3.433,0,0,1,2.2-2.781,11.922,11.922,0,0,1,3.569-.608,11.06,11.06,0,0,0,3.135-.5,1.737,1.737,0,0,0,1.215-1.845,6.417,6.417,0,0,1,1.587-4.521,5.255,5.255,0,0,1,3.3-1.455,9.065,9.065,0,0,1,1.68,0" transform="translate(-1639.595 -895.538)" stroke="#000" stroke-width="1"/>
        </g>
        <g id="Enmascarar_grupo_431" data-name="Enmascarar grupo 431" transform="translate(220.244 36.89)" clip-path="url(#clip-path-4)">
          <path id="Trazado_599167" data-name="Trazado 599167" d="M1506.721,189.393c-2.821,24.818-10.864,21.946-21.073,7.586,9,22.6.476,24.346-16.521,16.015,25.624,19.353,8.225,18.4-4.72,19.556,32.613,4.905,18.476,12.534,6.069,20.061,25.627-11.831,24.064-1,17.7,13.824,15.635-17.643,19.181-7.6,21.073,6.238,1.7-18.166,10.189-17.82,21.747-9.1-7.032-13.217-10.408-23.785,13.149-14.835-18.383-11.929-8.128-16.6,4.889-20.567-12.756-.75-28.774.153-8.092-17.533-21.041,12.229-18.935-.914-17.2-13.655-14.746,23.94-15.606,7.359-17.027-7.586" transform="translate(-1460.405 -185.809)" fill="#fff"/>
          <path id="Trazado_599168" data-name="Trazado 599168" d="M42.6,0a.275.275,0,0,0-.279.244c-.7,6.189-1.735,10.643-3.026,13.6s-2.813,4.374-4.51,4.649-3.677-.6-5.882-2.474A46.641,46.641,0,0,1,21.743,7.7a.276.276,0,0,0-.48.262c2.245,5.635,3.39,9.962,3.588,13.123s-.535,5.116-2,6.156-3.763,1.2-6.776.554A50.429,50.429,0,0,1,5.119,23.627a.276.276,0,0,0-.288.468c6.395,4.83,10.1,8.394,11.83,10.991A6.08,6.08,0,0,1,17.9,38.264a2.469,2.469,0,0,1-.979,2c-1.288,1.084-3.843,1.7-6.878,2.07s-6.548.53-9.793.819a.276.276,0,0,0-.017.547c8.14,1.224,13.355,2.622,16.37,4.119A7.47,7.47,0,0,1,19.572,50.1a2.586,2.586,0,0,1,.358,2.3c-.466,1.6-2.329,3.409-4.873,5.247S9.307,61.372,6.2,63.256a.276.276,0,0,0,.258.486c6.393-2.951,11.084-4.482,14.39-4.893a9.723,9.723,0,0,1,3.955.171,3.74,3.74,0,0,1,2.155,1.538c.938,1.433.972,3.735.338,6.619a59.4,59.4,0,0,1-3.506,10.029.275.275,0,0,0,.459.291c3.9-4.4,7.035-7.056,9.543-8.352s4.339-1.246,5.79-.286,2.547,2.9,3.38,5.485a56.114,56.114,0,0,1,1.881,9.245.276.276,0,0,0,.547-.011,28.927,28.927,0,0,1,2.462-10.213,7.481,7.481,0,0,1,4.518-4.181c3.619-1.048,8.573,1.145,14.327,5.485a.276.276,0,0,0,.409-.35A67.925,67.925,0,0,1,62.9,65.207c-.929-2.684-1.242-4.916-.675-6.389a3.019,3.019,0,0,1,1.545-1.681,6.989,6.989,0,0,1,3.257-.563c2.827.06,7.015,1.067,12.89,3.3a.276.276,0,0,0,.248-.489c-4.579-2.971-7.359-5.487-8.741-7.607s-1.4-3.794-.5-5.288,2.778-2.809,5.26-3.981a67.589,67.589,0,0,1,8.8-3.2.276.276,0,0,0-.064-.538c-3.2-.188-6.586-.273-9.543-.568s-5.48-.818-6.9-1.8a2.8,2.8,0,0,1-1.284-1.819,4.608,4.608,0,0,1,.612-2.854c1.174-2.346,4.03-5.6,9.188-10.008a.276.276,0,0,0-.318-.448c-5.243,3.048-9.035,4.5-11.7,4.781s-4.167-.551-5.063-2.142S58.775,19.91,58.888,17.1s.569-6.016,1-9.2a.276.276,0,0,0-.508-.182c-3.679,5.972-6.5,9.4-8.609,10.938a4.084,4.084,0,0,1-2.628.993,2.505,2.505,0,0,1-1.818-1.161c-1.056-1.427-1.771-4.13-2.28-7.4s-.829-7.1-1.184-10.841A.276.276,0,0,0,42.6,0M42.544,2.67c.276,2.957.557,5.9.962,8.5.513,3.3,1.2,6.047,2.381,7.64A3.09,3.09,0,0,0,48.1,20.195a4.6,4.6,0,0,0,3-1.1c2.1-1.521,4.732-4.749,8.088-10.065-.38,2.78-.75,5.553-.85,8.043-.114,2.854.106,5.351,1.1,7.11s2.8,2.715,5.6,2.419c2.411-.254,5.647-1.462,9.842-3.724-4.029,3.618-6.481,6.437-7.565,8.6a5.131,5.131,0,0,0-.662,3.2,3.388,3.388,0,0,0,1.513,2.172c1.592,1.1,4.172,1.6,7.16,1.894,2.535.253,5.373.345,8.116.483a61.331,61.331,0,0,0-7.492,2.772c-2.527,1.193-4.5,2.535-5.5,4.2s-.944,3.638.514,5.873c1.258,1.929,3.621,4.107,7.189,6.586-4.854-1.724-8.517-2.585-11.112-2.64a7.492,7.492,0,0,0-3.514.621,3.618,3.618,0,0,0-1.812,1.977c-.655,1.7-.278,4.031.668,6.766a63.963,63.963,0,0,0,3.758,8.232c-5.421-3.936-10.189-6.044-13.919-4.964a8.07,8.07,0,0,0-4.856,4.461,26.737,26.737,0,0,0-2.281,8.5,49.959,49.959,0,0,0-1.593-7.438c-.852-2.64-1.975-4.7-3.6-5.776s-3.732-1.093-6.346.257c-2.38,1.23-5.252,3.653-8.7,7.4a55.259,55.259,0,0,0,3-8.766c.648-2.946.664-5.391-.416-7.04a4.332,4.332,0,0,0-2.457-1.763,10.219,10.219,0,0,0-4.182-.191A44.075,44.075,0,0,0,9.958,61.617c1.929-1.179,3.808-2.357,5.422-3.523,2.577-1.862,4.537-3.678,5.079-5.539a3.2,3.2,0,0,0-.428-2.76,7.937,7.937,0,0,0-3.179-2.467c-2.819-1.4-7.5-2.666-14.386-3.8,2.587-.192,5.256-.346,7.647-.64,3.067-.377,5.688-.953,7.165-2.195a3.079,3.079,0,0,0,1.175-2.426,6.559,6.559,0,0,0-1.334-3.482c-1.626-2.435-4.932-5.632-10.238-9.773a46.889,46.889,0,0,0,9.077,3.327c3.086.663,5.546.536,7.209-.644S25.6,24.312,25.4,21.05A42.738,42.738,0,0,0,22.407,9.46a43.673,43.673,0,0,0,6.135,6.972c2.263,1.926,4.385,2.913,6.327,2.6s3.6-1.932,4.927-4.972A45.114,45.114,0,0,0,42.544,2.67m212.6,24.577a.275.275,0,0,0-.279.244c-.7,6.189-1.735,10.643-3.026,13.6s-2.813,4.374-4.51,4.649-3.677-.6-5.882-2.474a46.64,46.64,0,0,1-7.157-8.312.276.276,0,0,0-.48.262c2.245,5.635,3.39,9.962,3.588,13.123s-.535,5.116-2,6.156-3.763,1.2-6.776.554a50.428,50.428,0,0,1-10.954-4.169.276.276,0,0,0-.288.468c6.395,4.83,10.1,8.394,11.83,10.991a6.08,6.08,0,0,1,1.241,3.179,2.469,2.469,0,0,1-.979,2c-1.288,1.084-3.843,1.7-6.878,2.07s-6.548.53-9.793.819a.276.276,0,0,0-.017.547c8.14,1.224,13.355,2.622,16.37,4.119a7.47,7.47,0,0,1,2.965,2.279,2.586,2.586,0,0,1,.358,2.3c-.466,1.6-2.329,3.409-4.873,5.247s-5.749,3.725-8.853,5.608a.276.276,0,0,0,.258.486c6.393-2.951,11.084-4.482,14.39-4.893a9.724,9.724,0,0,1,3.955.171,3.74,3.74,0,0,1,2.155,1.538c.938,1.433.972,3.735.338,6.619a59.4,59.4,0,0,1-3.506,10.029.275.275,0,0,0,.459.291c3.9-4.4,7.035-7.056,9.543-8.352s4.339-1.246,5.79-.286,2.547,2.9,3.38,5.485a56.115,56.115,0,0,1,1.881,9.245.276.276,0,0,0,.547-.011,28.927,28.927,0,0,1,2.462-10.213,7.481,7.481,0,0,1,4.518-4.181c3.619-1.048,8.573,1.145,14.327,5.485a.276.276,0,0,0,.409-.35,67.933,67.933,0,0,1-4.207-9.113c-.928-2.684-1.242-4.916-.675-6.389a3.019,3.019,0,0,1,1.545-1.681,6.989,6.989,0,0,1,3.257-.563c2.827.06,7.015,1.067,12.889,3.3a.276.276,0,0,0,.248-.489c-4.579-2.971-7.358-5.487-8.741-7.607s-1.4-3.794-.5-5.288,2.778-2.809,5.26-3.981a67.59,67.59,0,0,1,8.8-3.2.276.276,0,0,0-.064-.538c-3.2-.188-6.586-.273-9.543-.568s-5.48-.818-6.9-1.8a2.8,2.8,0,0,1-1.284-1.819,4.607,4.607,0,0,1,.612-2.854c1.174-2.346,4.03-5.6,9.188-10.008a.276.276,0,0,0-.318-.448c-5.243,3.048-9.035,4.5-11.7,4.781s-4.167-.551-5.063-2.142-1.138-4.005-1.025-6.817.569-6.016,1-9.2a.276.276,0,0,0-.508-.182c-3.679,5.972-6.5,9.4-8.609,10.938a4.083,4.083,0,0,1-2.628.993,2.505,2.505,0,0,1-1.818-1.161c-1.056-1.427-1.771-4.13-2.28-7.4s-.829-7.1-1.184-10.841a.276.276,0,0,0-.269-.249m-.053,2.673c.276,2.957.557,5.9.962,8.5.513,3.3,1.2,6.047,2.381,7.64a3.09,3.09,0,0,0,2.216,1.383,4.6,4.6,0,0,0,3-1.1c2.1-1.521,4.732-4.749,8.088-10.065-.38,2.78-.75,5.553-.85,8.043-.114,2.854.106,5.351,1.1,7.11s2.8,2.715,5.6,2.419c2.411-.254,5.647-1.462,9.842-3.724-4.029,3.618-6.481,6.437-7.565,8.6a5.131,5.131,0,0,0-.662,3.2,3.388,3.388,0,0,0,1.513,2.172c1.592,1.1,4.172,1.6,7.16,1.894,2.535.253,5.373.345,8.116.483a61.332,61.332,0,0,0-7.492,2.772c-2.527,1.193-4.5,2.535-5.5,4.2s-.944,3.638.514,5.873c1.258,1.929,3.621,4.107,7.189,6.586-4.854-1.724-8.517-2.585-11.112-2.64a7.49,7.49,0,0,0-3.514.621,3.617,3.617,0,0,0-1.812,1.976c-.655,1.7-.278,4.031.668,6.766a63.955,63.955,0,0,0,3.758,8.232c-5.421-3.936-10.188-6.044-13.919-4.964a8.07,8.07,0,0,0-4.856,4.461,26.736,26.736,0,0,0-2.281,8.5,49.957,49.957,0,0,0-1.593-7.438c-.852-2.64-1.975-4.7-3.6-5.776s-3.732-1.093-6.346.257c-2.38,1.23-5.252,3.653-8.7,7.4a55.253,55.253,0,0,0,3-8.766c.648-2.946.664-5.391-.415-7.04a4.331,4.331,0,0,0-2.457-1.763,10.218,10.218,0,0,0-4.182-.191A44.075,44.075,0,0,0,222.5,88.866c1.929-1.179,3.808-2.357,5.422-3.523,2.577-1.862,4.537-3.678,5.079-5.539a3.2,3.2,0,0,0-.428-2.76,7.936,7.936,0,0,0-3.179-2.467c-2.819-1.4-7.5-2.666-14.386-3.8,2.587-.192,5.256-.346,7.647-.64,3.067-.377,5.688-.953,7.165-2.195A3.079,3.079,0,0,0,231,65.511a6.559,6.559,0,0,0-1.334-3.482c-1.626-2.435-4.932-5.632-10.238-9.773a46.889,46.889,0,0,0,9.077,3.327c3.086.663,5.546.536,7.209-.644s2.437-3.379,2.233-6.641a42.737,42.737,0,0,0-2.993-11.591,43.673,43.673,0,0,0,6.135,6.972c2.263,1.926,4.385,2.913,6.327,2.6s3.6-1.932,4.927-4.972a45.113,45.113,0,0,0,2.747-11.388m-220.551.963c-.06,0-.12,0-.18,0a3.586,3.586,0,0,0-1.4.35,3.642,3.642,0,0,0-1.1.818,3.94,3.94,0,0,0-.712,1.184,3.516,3.516,0,0,0-.219,1.4q.014.3.057.608a4.534,4.534,0,0,0,.111.549l2.086,9.078,3.713-.174,1.174-9.23a3.6,3.6,0,0,0,.059-.557q.012-.341,0-.611a3.373,3.373,0,0,0-.363-1.375,3.522,3.522,0,0,0-2-1.824,3.511,3.511,0,0,0-1.222-.222m16.1.058a3.53,3.53,0,0,0-1.069.16,3.639,3.639,0,0,0-1.206.649,3.939,3.939,0,0,0-.877,1.067,3.515,3.515,0,0,0-.421,1.355q-.03.3-.033.61a4.484,4.484,0,0,0,.029.559l.735,9.285L51.5,45l2.512-8.959a3.6,3.6,0,0,0,.14-.542q.062-.336.089-.6a3.371,3.371,0,0,0-.157-1.413,3.519,3.519,0,0,0-1.714-2.1,3.515,3.515,0,0,0-1.355-.421q-.187-.019-.371-.019M35.232,45.736c-.06,0-.12,0-.18,0a3.438,3.438,0,0,0-1.4.364,3.639,3.639,0,0,0-1.1.818,3.939,3.939,0,0,0-.712,1.184A3.582,3.582,0,0,0,31.97,50.9a4,4,0,0,0,.818,1.1,3.637,3.637,0,0,0,1.169.712,3.438,3.438,0,0,0,1.431.231,3.373,3.373,0,0,0,1.375-.362,3.6,3.6,0,0,0,1.112-.819,3.64,3.64,0,0,0,.712-1.17,3.427,3.427,0,0,0-.131-2.792,3.522,3.522,0,0,0-2-1.824,3.372,3.372,0,0,0-1.223-.236m13.923,0a3.4,3.4,0,0,0-1.071.173,3.64,3.64,0,0,0-1.206.649A3.94,3.94,0,0,0,46,47.625a3.583,3.583,0,0,0-.279,2.781,3.994,3.994,0,0,0,.649,1.206,3.64,3.64,0,0,0,1.053.876,3.442,3.442,0,0,0,1.382.438,3.375,3.375,0,0,0,1.413-.157,3.6,3.6,0,0,0,1.22-.647,3.641,3.641,0,0,0,.876-1.053,3.424,3.424,0,0,0,.28-2.781,3.518,3.518,0,0,0-1.714-2.1,3.371,3.371,0,0,0-1.354-.436,3.629,3.629,0,0,0-.371-.019M247.084,58.243c-.06,0-.12,0-.18,0a4.207,4.207,0,0,0-1.4.289,3.674,3.674,0,0,0-1.1.676,3.206,3.206,0,0,0-.712.977,2.448,2.448,0,0,0-.219,1.158,4.626,4.626,0,0,0,.057.5,3.174,3.174,0,0,0,.111.453l2.086,7.5,3.713-.143,1.174-7.621a2.473,2.473,0,0,0,.059-.46q.012-.282,0-.5a2.414,2.414,0,0,0-.363-1.135,3.083,3.083,0,0,0-.819-.918,3.807,3.807,0,0,0-1.184-.588,4.181,4.181,0,0,0-1.222-.184m16.1-2.381a3.53,3.53,0,0,0-1.069.16,3.639,3.639,0,0,0-1.206.649,3.938,3.938,0,0,0-.877,1.067,3.514,3.514,0,0,0-.421,1.355q-.03.3-.033.61a4.516,4.516,0,0,0,.029.559l.735,9.285,3.7.372,2.512-8.959a3.6,3.6,0,0,0,.14-.542q.062-.336.089-.6a3.372,3.372,0,0,0-.157-1.413,3.521,3.521,0,0,0-1.714-2.1,3.516,3.516,0,0,0-1.355-.421q-.187-.019-.371-.019m-15.41,17.124c-.06,0-.12,0-.18,0a3.438,3.438,0,0,0-1.4.364,3.639,3.639,0,0,0-1.1.818,3.937,3.937,0,0,0-.712,1.184,3.582,3.582,0,0,0,.131,2.792,4,4,0,0,0,.818,1.1,3.639,3.639,0,0,0,1.169.712,3.44,3.44,0,0,0,1.431.231,3.373,3.373,0,0,0,1.375-.362,3.6,3.6,0,0,0,1.112-.819,3.639,3.639,0,0,0,.712-1.17A3.426,3.426,0,0,0,251,75.046a3.522,3.522,0,0,0-2-1.824,3.373,3.373,0,0,0-1.223-.236m13.923,0a3.38,3.38,0,0,0-1.071.173,3.642,3.642,0,0,0-1.206.649,3.939,3.939,0,0,0-.877,1.067,3.584,3.584,0,0,0-.279,2.781,3.99,3.99,0,0,0,.649,1.206,3.638,3.638,0,0,0,1.053.876,3.437,3.437,0,0,0,1.382.438,3.37,3.37,0,0,0,1.413-.157,3.6,3.6,0,0,0,1.22-.647,3.637,3.637,0,0,0,.876-1.053,3.424,3.424,0,0,0,.28-2.781,3.517,3.517,0,0,0-1.714-2.1A3.369,3.369,0,0,0,262.072,73a3.672,3.672,0,0,0-.371-.018" transform="translate(-208.821 -23.939)" stroke="#000" stroke-width="1"/>
        </g>
        <g id="Enmascarar_grupo_432" data-name="Enmascarar grupo 432" transform="translate(28.317 367.256)" clip-path="url(#clip-path-5)">
          <path id="Trazado_599169" data-name="Trazado 599169" d="M56.768,1.893C53.11,34.069,42.683,30.346,29.447,11.729c11.672,29.3.617,31.565-21.42,20.764,33.221,25.091,10.663,23.86-6.12,25.354C44.19,64.206,25.861,74.1,9.776,83.856c33.225-15.338,31.2-1.3,22.95,17.923C53,78.9,57.594,91.928,60.046,109.866c2.205-23.553,13.21-23.1,28.2-11.8C79.124,80.927,74.747,67.226,105.29,78.829c-23.833-15.466-10.537-21.52,6.339-26.665-16.538-.972-37.306.2-10.491-22.731-27.28,15.856-24.549-1.184-22.294-17.7C59.724,42.767,58.609,21.27,56.768,1.893" transform="translate(0.53 0.172)" fill="#f6f6f6" stroke="#000" stroke-width="1"/>
          <path id="Trazado_599170" data-name="Trazado 599170" d="M55.227,0a.357.357,0,0,0-.362.316c-.912,8.024-2.249,13.8-3.923,17.626s-3.647,5.671-5.847,6.027-4.768-.776-7.625-3.208A60.471,60.471,0,0,1,28.19,9.983a.357.357,0,0,0-.622.34c2.91,7.306,4.395,12.916,4.651,17.015s-.693,6.633-2.6,7.982-4.879,1.557-8.785.719a65.382,65.382,0,0,1-14.2-5.4.357.357,0,0,0-.373.606C14.555,37.5,19.353,42.122,21.6,45.489A7.883,7.883,0,0,1,23.21,49.61a3.2,3.2,0,0,1-1.269,2.6c-1.67,1.405-4.982,2.2-8.917,2.684s-8.489.687-12.7,1.062a.357.357,0,0,0-.021.71C10.86,58.249,17.621,60.062,21.53,62a9.685,9.685,0,0,1,3.845,2.955,3.353,3.353,0,0,1,.464,2.981c-.6,2.075-3.02,4.419-6.318,6.8S12.066,79.57,8.042,82.012a.357.357,0,0,0,.335.63c8.289-3.826,14.37-5.811,18.657-6.343a12.606,12.606,0,0,1,5.128.222,4.849,4.849,0,0,1,2.794,1.994c1.216,1.858,1.26,4.842.438,8.581a77.015,77.015,0,0,1-4.545,13,.357.357,0,0,0,.6.378c5.052-5.7,9.121-9.148,12.372-10.828s5.625-1.615,7.506-.371,3.3,3.762,4.383,7.112a72.75,72.75,0,0,1,2.438,11.986.357.357,0,0,0,.71-.015c.549-5.86,1.647-10.21,3.192-13.241S65.557,90.378,67.9,89.7C72.6,88.34,79.018,91.183,86.479,96.81a.357.357,0,0,0,.53-.453,88.066,88.066,0,0,1-5.455-11.815c-1.2-3.48-1.61-6.374-.875-8.283a3.914,3.914,0,0,1,2-2.179,9.061,9.061,0,0,1,4.222-.73c3.666.078,9.095,1.383,16.711,4.276a.357.357,0,0,0,.322-.635C98,73.138,94.4,69.877,92.6,67.128s-1.815-4.919-.652-6.856,3.6-3.642,6.82-5.161a87.629,87.629,0,0,1,11.413-4.144.357.357,0,0,0-.083-.7c-4.143-.244-8.539-.353-12.372-.737S90.624,48.471,88.78,47.2a3.628,3.628,0,0,1-1.664-2.358,5.974,5.974,0,0,1,.793-3.7c1.522-3.042,5.224-7.257,11.912-12.976a.357.357,0,0,0-.412-.58c-6.8,3.951-11.714,5.835-15.167,6.2s-5.4-.714-6.565-2.777S76.2,25.815,76.348,22.17s.737-7.8,1.3-11.931A.357.357,0,0,0,76.991,10C72.222,17.745,68.57,22.2,65.83,24.184a5.294,5.294,0,0,1-3.407,1.287,3.248,3.248,0,0,1-2.357-1.505c-1.37-1.85-2.3-5.354-2.955-9.59S56.036,5.168,55.576.321A.357.357,0,0,0,55.227,0m-.069,3.465c.358,3.833.722,7.653,1.247,11.023.665,4.275,1.557,7.839,3.087,9.905a4.006,4.006,0,0,0,2.873,1.792,5.958,5.958,0,0,0,3.885-1.421c2.718-1.971,6.135-6.157,10.486-13.049-.492,3.6-.972,7.2-1.1,10.428-.148,3.7.138,6.938,1.421,9.218s3.626,3.521,7.263,3.137c3.126-.33,7.322-1.9,12.76-4.828-5.224,4.691-8.4,8.346-9.808,11.156a6.653,6.653,0,0,0-.858,4.149,4.393,4.393,0,0,0,1.962,2.816c2.064,1.424,5.409,2.069,9.283,2.456,3.286.329,6.967.447,10.522.626a79.514,79.514,0,0,0-9.714,3.594c-3.277,1.547-5.835,3.287-7.127,5.439s-1.224,4.717.666,7.614c1.631,2.5,4.695,5.324,9.32,8.539-6.293-2.236-11.043-3.351-14.407-3.423a9.713,9.713,0,0,0-4.556.806A4.691,4.691,0,0,0,80.013,76c-.849,2.208-.361,5.227.866,8.773A82.93,82.93,0,0,0,85.75,95.448c-7.028-5.1-13.21-7.836-18.046-6.435-2.554.74-4.689,2.628-6.3,5.783a34.665,34.665,0,0,0-2.957,11.018,64.775,64.775,0,0,0-2.065-9.644c-1.1-3.422-2.56-6.094-4.669-7.489s-4.839-1.418-8.227.333c-3.086,1.595-6.809,4.736-11.282,9.6a71.643,71.643,0,0,0,3.886-11.365c.84-3.82.861-6.989-.539-9.127a5.616,5.616,0,0,0-3.186-2.286,13.248,13.248,0,0,0-5.422-.247c-3.505.435-8.14,1.839-14.037,4.3,2.5-1.528,4.937-3.055,7.029-4.568,3.341-2.414,5.883-4.769,6.585-7.181a4.15,4.15,0,0,0-.555-3.578,10.29,10.29,0,0,0-4.121-3.2c-3.655-1.814-9.729-3.456-18.652-4.933,3.354-.249,6.815-.449,9.915-.83,3.977-.489,7.375-1.235,9.29-2.846a3.991,3.991,0,0,0,1.524-3.146,8.5,8.5,0,0,0-1.73-4.515c-2.108-3.157-6.395-7.3-13.274-12.67a60.792,60.792,0,0,0,11.768,4.314c4,.859,7.19.7,9.347-.834s3.16-4.381,2.9-8.61q-.355-5.67-3.88-15.027A56.623,56.623,0,0,0,37.006,21.3c2.934,2.5,5.685,3.776,8.2,3.368s4.665-2.5,6.388-6.446Q53.83,13.12,55.158,3.463M330.794,35.327a.357.357,0,0,0-.362.316c-.912,8.024-2.249,13.8-3.923,17.626s-3.647,5.671-5.847,6.027-4.768-.776-7.625-3.208a60.47,60.47,0,0,1-9.279-10.777.357.357,0,0,0-.622.34c2.91,7.306,4.395,12.916,4.651,17.015s-.693,6.633-2.6,7.982-4.879,1.557-8.785.719a65.38,65.38,0,0,1-14.2-5.4.357.357,0,0,0-.373.606c8.291,6.262,13.09,10.882,15.338,14.25a7.883,7.883,0,0,1,1.608,4.121,3.2,3.2,0,0,1-1.269,2.6c-1.67,1.405-4.982,2.2-8.917,2.684s-8.489.687-12.7,1.062a.357.357,0,0,0-.021.71c10.554,1.587,17.314,3.4,21.224,5.341a9.685,9.685,0,0,1,3.845,2.955,3.353,3.353,0,0,1,.464,2.981c-.6,2.075-3.02,4.419-6.318,6.8s-7.454,4.829-11.478,7.271a.357.357,0,0,0,.335.63c8.289-3.826,14.37-5.811,18.657-6.343a12.606,12.606,0,0,1,5.128.222,4.849,4.849,0,0,1,2.794,1.994c1.216,1.858,1.26,4.842.438,8.581a77.019,77.019,0,0,1-4.545,13,.357.357,0,0,0,.6.378c5.052-5.7,9.121-9.148,12.372-10.828s5.625-1.615,7.506-.371,3.3,3.762,4.383,7.112a72.756,72.756,0,0,1,2.438,11.986.357.357,0,0,0,.71-.015c.549-5.86,1.647-10.21,3.192-13.241s3.511-4.741,5.858-5.421c4.693-1.359,11.115,1.484,18.575,7.111a.357.357,0,0,0,.53-.453,88.068,88.068,0,0,1-5.455-11.815c-1.2-3.48-1.61-6.374-.875-8.283a3.914,3.914,0,0,1,2-2.179,9.061,9.061,0,0,1,4.222-.73c3.666.078,9.095,1.383,16.711,4.276a.357.357,0,0,0,.322-.635c-5.937-3.852-9.54-7.114-11.333-9.862s-1.815-4.919-.652-6.856,3.6-3.642,6.82-5.161A87.629,87.629,0,0,1,385.752,86.3a.357.357,0,0,0-.083-.7c-4.143-.244-8.539-.353-12.372-.737s-7.105-1.061-8.949-2.332a3.628,3.628,0,0,1-1.664-2.358,5.973,5.973,0,0,1,.793-3.7C365,73.429,368.7,69.214,375.389,63.5a.357.357,0,0,0-.412-.58c-6.8,3.951-11.714,5.835-15.167,6.2s-5.4-.714-6.565-2.777-1.475-5.193-1.329-8.838.737-7.8,1.3-11.931a.357.357,0,0,0-.659-.236c-4.769,7.743-8.421,12.193-11.161,14.181A5.294,5.294,0,0,1,337.99,60.8a3.248,3.248,0,0,1-2.357-1.505c-1.37-1.85-2.3-5.354-2.955-9.59S331.6,40.5,331.143,35.65a.357.357,0,0,0-.349-.323m-.069,3.465c.358,3.833.722,7.653,1.247,11.023.665,4.275,1.557,7.839,3.087,9.905a4.006,4.006,0,0,0,2.873,1.792,5.958,5.958,0,0,0,3.885-1.421c2.718-1.971,6.135-6.157,10.486-13.049-.492,3.6-.972,7.2-1.1,10.428-.148,3.7.138,6.938,1.421,9.218s3.626,3.521,7.263,3.137c3.126-.33,7.322-1.9,12.76-4.828-5.224,4.691-8.4,8.346-9.808,11.156a6.653,6.653,0,0,0-.858,4.149,4.392,4.392,0,0,0,1.962,2.816c2.064,1.424,5.409,2.069,9.283,2.456,3.286.329,6.967.447,10.522.626a79.516,79.516,0,0,0-9.714,3.594c-3.277,1.547-5.835,3.287-7.127,5.439s-1.224,4.717.666,7.614c1.631,2.5,4.695,5.324,9.32,8.539-6.293-2.236-11.043-3.351-14.407-3.423a9.711,9.711,0,0,0-4.556.806,4.69,4.69,0,0,0-2.35,2.563c-.849,2.208-.361,5.227.866,8.773a82.916,82.916,0,0,0,4.872,10.673c-7.028-5.1-13.209-7.836-18.046-6.435-2.554.74-4.689,2.628-6.3,5.783a34.664,34.664,0,0,0-2.957,11.018,64.776,64.776,0,0,0-2.065-9.644c-1.1-3.422-2.56-6.094-4.669-7.489s-4.839-1.418-8.227.333c-3.086,1.595-6.809,4.736-11.282,9.6a71.632,71.632,0,0,0,3.886-11.365c.84-3.82.861-6.989-.539-9.127a5.616,5.616,0,0,0-3.186-2.286,13.248,13.248,0,0,0-5.422-.247c-3.505.435-8.14,1.839-14.037,4.3,2.5-1.528,4.937-3.055,7.029-4.568,3.341-2.414,5.883-4.769,6.585-7.181a4.15,4.15,0,0,0-.555-3.578,10.29,10.29,0,0,0-4.121-3.2c-3.655-1.815-9.729-3.456-18.651-4.933,3.354-.249,6.815-.449,9.915-.83,3.977-.489,7.375-1.235,9.29-2.846a3.992,3.992,0,0,0,1.524-3.146,8.5,8.5,0,0,0-1.73-4.515c-2.108-3.157-6.395-7.3-13.274-12.67a60.793,60.793,0,0,0,11.768,4.314c4,.859,7.19.7,9.347-.834s3.16-4.381,2.9-8.61q-.355-5.67-3.88-15.027a56.623,56.623,0,0,0,7.955,9.039c2.935,2.5,5.685,3.776,8.2,3.368s4.665-2.5,6.388-6.446q2.233-5.107,3.561-14.764M44.779,38.531c-.077,0-.155,0-.233.005a4.649,4.649,0,0,0-1.82.453A4.722,4.722,0,0,0,41.3,40.05a5.108,5.108,0,0,0-.923,1.535A4.559,4.559,0,0,0,40.1,43.4q.018.386.074.789a5.878,5.878,0,0,0,.144.711l2.7,11.77,4.814-.225L49.353,44.48a4.66,4.66,0,0,0,.077-.722q.016-.443,0-.792a4.373,4.373,0,0,0-.47-1.783,4.566,4.566,0,0,0-2.6-2.365,4.552,4.552,0,0,0-1.585-.288m20.879.075a4.577,4.577,0,0,0-1.386.207,4.718,4.718,0,0,0-1.564.841,5.106,5.106,0,0,0-1.137,1.383,4.557,4.557,0,0,0-.546,1.757q-.039.384-.043.79a5.815,5.815,0,0,0,.038.725l.953,12.039,4.8.482,3.257-11.616a4.66,4.66,0,0,0,.182-.7q.081-.436.116-.783a4.371,4.371,0,0,0-.2-1.832A4.563,4.563,0,0,0,67.9,39.178a4.558,4.558,0,0,0-1.757-.546q-.242-.024-.481-.025M45.679,59.3c-.078,0-.155,0-.233,0a4.457,4.457,0,0,0-1.819.472A4.718,4.718,0,0,0,42.2,60.835a5.107,5.107,0,0,0-.923,1.535,4.644,4.644,0,0,0,.169,3.62,5.181,5.181,0,0,0,1.061,1.424,4.715,4.715,0,0,0,1.516.923,4.458,4.458,0,0,0,1.856.3,4.373,4.373,0,0,0,1.783-.47A4.662,4.662,0,0,0,49.106,67.1a4.719,4.719,0,0,0,.924-1.516,4.443,4.443,0,0,0-.169-3.619,4.566,4.566,0,0,0-2.6-2.365,4.372,4.372,0,0,0-1.585-.306m18.051,0a4.409,4.409,0,0,0-1.388.224,4.719,4.719,0,0,0-1.564.841,5.109,5.109,0,0,0-1.137,1.383,4.646,4.646,0,0,0-.362,3.605,5.178,5.178,0,0,0,.841,1.564,4.719,4.719,0,0,0,1.365,1.136,4.462,4.462,0,0,0,1.792.568,4.376,4.376,0,0,0,1.832-.2,4.664,4.664,0,0,0,1.582-.839,4.721,4.721,0,0,0,1.135-1.365,4.44,4.44,0,0,0,.363-3.605,4.561,4.561,0,0,0-2.222-2.719,4.371,4.371,0,0,0-1.755-.565,4.706,4.706,0,0,0-.48-.024M320.346,78.532c-.077,0-.155,0-.233,0a5.454,5.454,0,0,0-1.82.374,4.762,4.762,0,0,0-1.423.876,4.155,4.155,0,0,0-.923,1.267,3.173,3.173,0,0,0-.283,1.5,5.993,5.993,0,0,0,.074.651,4.119,4.119,0,0,0,.144.587l2.7,9.718,4.814-.186,1.522-9.881a3.205,3.205,0,0,0,.077-.6q.016-.365,0-.654a3.13,3.13,0,0,0-.47-1.472,4,4,0,0,0-1.062-1.191,4.936,4.936,0,0,0-1.535-.762,5.42,5.42,0,0,0-1.585-.238m20.879-3.087a4.577,4.577,0,0,0-1.386.207,4.718,4.718,0,0,0-1.564.841,5.107,5.107,0,0,0-1.137,1.383,4.556,4.556,0,0,0-.546,1.757q-.039.384-.043.79a5.853,5.853,0,0,0,.038.725l.953,12.039,4.8.482,3.256-11.616a4.656,4.656,0,0,0,.182-.7q.081-.436.116-.783a4.37,4.37,0,0,0-.2-1.832,4.564,4.564,0,0,0-2.222-2.719,4.558,4.558,0,0,0-1.757-.546q-.243-.024-.481-.025M321.246,94.627c-.078,0-.155,0-.233,0a4.457,4.457,0,0,0-1.819.472,4.718,4.718,0,0,0-1.424,1.061,5.1,5.1,0,0,0-.923,1.535,4.644,4.644,0,0,0,.169,3.62,5.181,5.181,0,0,0,1.061,1.424,4.719,4.719,0,0,0,1.516.923,4.46,4.46,0,0,0,1.856.3,4.373,4.373,0,0,0,1.783-.47,4.665,4.665,0,0,0,1.442-1.062,4.72,4.72,0,0,0,.924-1.516,4.443,4.443,0,0,0-.169-3.619,4.567,4.567,0,0,0-2.6-2.365,4.372,4.372,0,0,0-1.585-.306m18.051,0a4.383,4.383,0,0,0-1.388.224,4.722,4.722,0,0,0-1.564.841,5.109,5.109,0,0,0-1.137,1.383,4.645,4.645,0,0,0-.362,3.605,5.172,5.172,0,0,0,.841,1.564,4.716,4.716,0,0,0,1.365,1.136,4.456,4.456,0,0,0,1.792.568,4.369,4.369,0,0,0,1.832-.2,4.664,4.664,0,0,0,1.582-.839,4.715,4.715,0,0,0,1.135-1.365,4.439,4.439,0,0,0,.363-3.605,4.56,4.56,0,0,0-2.222-2.719,4.369,4.369,0,0,0-1.755-.565,4.758,4.758,0,0,0-.481-.024" transform="translate(2.078 1.71)" stroke="#000" stroke-width="1"/>
        </g>
      </g>
    </g>
  </g>
</svg>
