<svg xmlns="http://www.w3.org/2000/svg" xmlns:xlink="http://www.w3.org/1999/xlink" width="929" height="593" viewBox="0 0 929 593">
  <defs>
    <clipPath id="clip-path">
      <rect id="Rect치ngulo_41289" data-name="Rect치ngulo 41289" width="929" height="593" transform="translate(399 -1)" fill="#6b8dfc"/>
    </clipPath>
  </defs>
  <g id="Grupo_173651" data-name="Grupo 173651" transform="translate(-579 -5249)">
    <g id="Enmascarar_grupo_167" data-name="Enmascarar grupo 167" transform="translate(180 5250)" clip-path="url(#clip-path)">
      <g id="Grupo_166176" data-name="Grupo 166176" transform="translate(552.622 91.794)">
        <path id="Uni칩n_28" data-name="Uni칩n 28" d="M401.368,852.192c-69.552-4.076-126.731-59.806-172.681-104.574-7.724-7.532-15.214-14.836-22.508-21.661C146.995,670.62,87.921,613.312,30.791,557.893l-6.863-6.647C2.909,530.864-4.605,505.115,2.749,478.756c8.019-28.738,33.219-53.041,62.7-60.5,26.849-6.778,53.021.753,73.622,21.254V439.5c41.67,41.433,87.079,84.528,137.838,130.79l-6.039-12.8c-17.059-36.2-34.7-73.613-50.735-111.126C204.03,408.7,188.9,368.4,181.608,328.9c-8.053-43.627-6.764-86.348,12.7-124.225,22.667-44.123,55.986-69.513,99.034-75.455,93.707-12.886,210.513,72.168,273.67,132.141-17.059-48.378-28.829-99.088-23.934-152.069,4.169-45.174,25.68-79.638,60.561-97.055,39.615-19.784,91.6-15.373,139.1,11.8C828.336,73,896.781,155.695,957.995,237.76c27.624,37.034,12.152,73.279-15.423,92.776-33.344,23.574-85.665,24.172-115.539-15.612q-5.682-7.586-11.586-15.062c16.986,31.141,33,62.424,47.278,94.474l5.511,12.336C916.792,515.157,983.282,663.735,921.7,779.2c-34.266,64.276-113.167,71.558-173.408,45.557-67.572-29.193-116.929-89.859-160.48-143.39-5.633-6.922-11.2-13.771-16.752-20.477-37.979-45.929-73.094-94.642-107.052-141.741-12.09-16.784-24.193-33.568-36.455-50.279l-3.494-4.77q-5.275-7.209-10.663-14.512c5.866,13.651,11.783,26.849,17.4,39.412,5.928,13.245,12.2,26.634,18.535,40.154,26.442,56.447,53.8,114.831,62.984,175.786,7.047,46.753-4,90.816-29.555,117.868-18.388,19.462-43.663,29.623-73.439,29.623C406.705,852.432,404.049,852.36,401.368,852.192Z" transform="translate(0 28.344)" fill="#5355a7" stroke="rgba(0,0,0,0)" stroke-miterlimit="10" stroke-width="1" opacity="0.412"/>
        <path id="Trazado_115699" data-name="Trazado 115699" d="M249.545,619.344c59.258,58.934,120.5,115.7,182.915,171.458-26.985-59.281-56.085-117.641-81.7-177.543C321.717,545.335,287.968,452.75,324.57,381.5c83.438-162.4,294.358-3.06,371.979,78.694,8.277,8.7,16.161,17.8,24.156,26.8-27.723-66.011-52.69-133.839-46.11-205.158,9.064-98.06,101.555-121.586,181.18-76.029,85.517,48.929,154.184,133.576,211.535,210.453,48.7,65.294-62.751,127.455-111.075,63.094a857.107,857.107,0,0,0-86.808-98.717q6.918,12.319,13.972,24.6c31.154,54.092,61.927,108.4,87.312,165.326,48.619,109.022,120.5,259.932,59.344,374.608-30.822,57.787-103.08,63.656-157.5,40.142-73.143-31.607-123.8-101.383-172.645-160.437-50.98-61.659-95.873-127.133-143.065-191.47-19.728-26.885-39.432-54.152-62-78.885-.517-.562-1.07-1.088-1.587-1.662l.566,1.745c12.533,37.871,28.657,74.211,44.966,110.648,30.367,67.78,69.515,139.134,80.634,212.9,9.839,65.222-17.342,138.322-98.05,133.588C445.509,1007.3,384.7,936.272,333.98,888.838c-61.435-57.452-121.763-116.051-182.1-174.579a70.006,70.006,0,0,1-14.647-19.986C108.773,635.119,193.721,563.831,249.545,619.344Z" transform="translate(-90.103 -171.489)" fill="#8284d2"/>
        <path id="Trazado_115700" data-name="Trazado 115700" d="M539.941,1034.89c29.776,0,55.039-10.149,73.426-29.61,25.558-27.052,36.6-71.115,29.555-117.88-9.175-60.942-36.529-119.327-62.985-175.786-6.322-13.52-12.594-26.9-18.535-40.142-5.62-12.564-11.537-25.761-17.4-39.413,3.592,4.853,7.146,9.707,10.664,14.512l3.493,4.758c12.262,16.712,24.365,33.508,36.467,50.279,33.946,47.112,69.06,95.825,107.04,141.741q8.32,10.077,16.751,20.49c43.552,53.519,92.909,114.186,160.481,143.39,60.254,26,139.142,18.708,173.407-45.569,61.583-115.454-4.907-264.032-53.452-372.528l-5.522-12.325c-14.279-32.049-30.293-63.333-47.266-94.474q5.885,7.477,11.586,15.05c29.862,39.8,82.183,39.2,115.527,15.624,27.575-19.5,43.047-55.742,15.424-92.777-61.214-82.065-129.659-164.764-215.237-213.74-47.512-27.16-99.489-31.571-139.117-11.787-34.881,17.417-56.38,51.869-60.561,97.044-4.9,52.981,6.875,103.7,23.946,152.069C634.461,383.854,517.667,298.8,423.959,311.687c-43.047,5.941-76.378,31.331-99.046,75.454-37.279,72.562-7.859,162.888,25.828,241.69,16.038,37.5,33.675,74.928,50.734,111.114l6.039,12.8C356.756,706.5,311.348,663.4,269.677,621.969h0c-20.6-20.5-46.774-28.021-73.623-21.243-29.482,7.459-54.682,31.762-62.69,60.5-7.367,26.359.148,52.1,21.167,72.478l6.863,6.659c57.13,55.419,116.2,112.716,175.387,168.063,7.293,6.826,14.784,14.13,22.52,21.661,45.938,44.768,103.117,100.5,172.669,104.575C534.665,1034.818,537.309,1034.89,539.941,1034.89ZM504.655,552.408a11.85,11.85,0,0,0-5.953,1.554c-4.957,2.845-7.589,8.248-5.818,13.568l.578,1.745c13.135,39.7,30.268,77.977,45.384,111.736,5.99,13.365,12.324,26.873,18.708,40.513,25.742,54.942,52.357,111.748,61.041,169.343,5.891,39.114-3.05,76.758-23.344,98.24-15.03,15.911-35.8,23.131-61.791,21.7-60.218-3.538-111.505-53.507-156.742-97.605-7.847-7.651-15.472-15.074-22.876-22-59.024-55.192-118.024-112.417-175.08-167.765l-6.851-6.658c-18.584-18.015-18.314-36.748-14.808-49.3,5.695-20.394,24.254-38.337,45.151-43.609,12.718-3.227,31.671-3.252,49.824,14.811h0C305.911,692.2,365.895,748.432,435.471,810.594a12.559,12.559,0,0,0,15.485.908,11.73,11.73,0,0,0,4.083-14.548c-10.2-22.414-20.7-44.685-31.191-66.967-16.973-35.994-34.512-73.219-50.39-110.337-31.56-73.8-59.405-157.879-26.542-221.834,19.113-37.189,45.446-57.619,80.5-62.46,87.362-12.014,210.231,79.459,271.445,143.928,6.519,6.873,12.8,14,19.1,21.111l4.772,5.4a12.5,12.5,0,0,0,15.731,2.379,11.79,11.79,0,0,0,4.969-14.716c-26.419-62.867-51.669-130.085-45.249-199.575,3.444-37.249,19.8-64.194,47.3-77.929,32.089-16.007,75.21-11.834,115.392,11.141,81.7,46.741,148.156,127.192,207.808,207.166,18.855,25.271,7.207,47.254-9.975,59.4-23.27,16.449-59.626,18.385-81.2-10.365a870.637,870.637,0,0,0-88.038-100.1,12.541,12.541,0,0,0-16.063-1.148,11.731,11.731,0,0,0-3.444,15.3q6.955,12.391,14.046,24.709c31.548,54.774,61.914,108.556,86.759,164.25l5.522,12.361c46.577,104.085,110.361,246.639,54.178,351.979-27.292,51.188-91.887,56.184-141.589,34.727C826.858,958.587,781.536,902.868,737.713,849q-8.5-10.454-16.875-20.633c-37.476-45.307-72.344-93.685-106.081-140.474-12.127-16.831-24.266-33.675-36.565-50.446L574.7,632.7c-18.51-25.259-37.648-51.379-59.319-75.12l-1.107-1.16A13.6,13.6,0,0,0,504.655,552.408ZM260.884,630.325h0Z" transform="translate(-101.442 -182.469)" fill="#3c3fa7"/>
        <path id="Trazado_115701" data-name="Trazado 115701" d="M158.937,226.476c45.323,88.509,70.881,192.259,31.08,287.4-5.892,14.058-29.691,7.913-23.725-6.36,37.378-89.333,14.033-185.732-28.6-268.981C130.673,224.8,151.877,212.681,158.937,226.476Z" transform="translate(722.065 232.963)" fill="#3c3fa7"/>
        <path id="Trazado_115702" data-name="Trazado 115702" d="M149.278,301.331c.209-.024.406-.083.6-.119.344-.657.664-1.351.775-1.542l.049-.072c.024-.1-.012-.036.024-.179,1.587-5.332,2.731-10.747,3.923-16.174q4.188-18.917,8.351-37.835c1.353-6.12,9.065-10.257,15.14-8.344a12.191,12.191,0,0,1,8.585,14.7l-9.446,42.784c-2.632,11.882-6.826,27.459-21.462,29.837-6.322,1.016-13.554-1.613-15.128-8.356C139.34,310.261,142.5,302.431,149.278,301.331Z" transform="translate(694.371 410.425)" fill="#3c3fa7"/>
        <path id="Trazado_115703" data-name="Trazado 115703" d="M222.994,200.744c13.96-7.244,26.406,13.389,12.41,20.645-19.31,10.018-25.189,30.411-25.964,50.435-.886,22.749,1.746,46.143,5.547,68.545A445.874,445.874,0,0,0,257.678,468.78c7.035,13.735-14.181,25.857-21.241,12.062A469.148,469.148,0,0,1,188.691,329.61C182.9,286.515,175.961,225.13,222.994,200.744Z" transform="translate(79.156 1.071)" fill="#3c3fa7"/>
      </g>
    </g>
  </g>
</svg>
