<svg id="Grupo_165632" data-name="Grupo 165632" xmlns="http://www.w3.org/2000/svg" width="69.527" height="62.899" viewBox="0 0 69.527 62.899">
  <g id="Grupo_81065" data-name="Grupo 81065" transform="translate(2.024 2.024)" style="mix-blend-mode: overlay;isolation: isolate">
    <path id="Trazado_115015" data-name="Trazado 115015" d="M191.587,216.97c-4.113,4.209-8.364,8.263-12.7,12.245,1.873-4.234,3.892-8.4,5.67-12.68,2.016-4.851,4.359-11.463,1.817-16.551-5.791-11.6-20.431-.218-25.819,5.62-.574.622-1.122,1.272-1.677,1.914,1.925-4.714,3.658-9.558,3.2-14.651-.629-7-7.049-8.683-12.576-5.429-5.935,3.493-10.7,9.538-14.682,15.028-3.381,4.663,4.355,9.1,7.709,4.506a60.643,60.643,0,0,1,6.026-7.049q-.48.88-.971,1.756a130.847,130.847,0,0,0-6.06,11.807c-3.374,7.785-8.364,18.563-4.119,26.751,2.139,4.127,7.156,4.546,10.932,2.867,5.077-2.257,8.593-7.24,11.983-11.457,3.539-4.4,6.655-9.079,9.931-13.674a66.54,66.54,0,0,1,4.3-5.633c.036-.041.073-.079.109-.119l-.039.124c-.87,2.7-1.988,5.3-3.121,7.9-2.107,4.841-4.825,9.937-5.6,15.2-.682,4.658,1.2,9.878,6.806,9.54,5.266-.318,9.487-5.39,13.008-8.778,4.263-4.1,8.451-8.287,12.639-12.466C202.74,219.385,195.908,212.551,191.587,216.97Z" transform="translate(-133.127 -184.987)" fill="#3c384f"/>
    <path id="Trazado_115016" data-name="Trazado 115016" d="M172.071,245.716a6.692,6.692,0,0,1-5.1-2.115c-1.774-1.932-2.541-5.079-2.051-8.417.638-4.353,2.536-8.522,4.372-12.554.44-.965.875-1.922,1.286-2.868.39-.9.8-1.84,1.208-2.815q-.374.521-.74,1.036l-.242.341q-1.277,1.79-2.53,3.591c-2.357,3.364-4.794,6.842-7.43,10.122-.385.479-.772.968-1.163,1.462-3.023,3.823-6.449,8.155-11.139,10.24-4.181,1.857-9.658,1.337-12.036-3.253-4.274-8.246.341-18.856,3.711-26.6L140.6,213c.991-2.289,2.1-4.523,3.282-6.747q-.41.534-.8,1.076a5.682,5.682,0,0,1-8.02,1.115,4.5,4.5,0,0,1-1.071-6.626c4.249-5.861,9-11.766,14.94-15.263,3.3-1.94,6.905-2.255,9.655-.843,2.421,1.244,3.914,3.705,4.2,6.931a26.146,26.146,0,0,1-1.661,10.86c4.384-4.283,12.491-10.357,19-9.437,2.988.424,5.3,2.238,6.874,5.388,2.588,5.182.546,11.633-1.793,17.26-1.113,2.679-2.337,5.351-3.521,7.936l-.419.914c3.523-3.3,6.675-6.381,9.567-9.34h0a5.13,5.13,0,0,1,5.11-1.518,6.29,6.29,0,0,1,4.352,4.321,5.176,5.176,0,0,1-1.47,5.177l-.476.475c-3.965,3.958-8.066,8.05-12.174,12-.506.487-1.026,1.009-1.562,1.547-3.189,3.2-7.158,7.177-11.986,7.468C172.437,245.711,172.253,245.716,172.071,245.716Zm2.449-34.456a.806.806,0,0,1,.413.11.83.83,0,0,1,.4.969l-.04.125c-.912,2.836-2.1,5.569-3.15,7.979-.416.955-.855,1.92-1.3,2.893-1.786,3.924-3.633,7.98-4.236,12.094-.409,2.793.212,5.482,1.619,7.015a5.125,5.125,0,0,0,4.289,1.549c4.18-.253,7.74-3.821,10.88-6.97.545-.546,1.073-1.076,1.587-1.571,4.1-3.941,8.192-8.028,12.152-11.981l.476-.475a3.472,3.472,0,0,0,1.029-3.521,4.6,4.6,0,0,0-3.134-3.115,3.42,3.42,0,0,0-3.459,1.058h0c-3.737,3.822-7.9,7.838-12.729,12.276a.854.854,0,0,1-1.358-.974c.708-1.6,1.437-3.191,2.166-4.782,1.177-2.571,2.4-5.23,3.5-7.88,2.191-5.271,4.123-11.275,1.842-15.841-1.326-2.657-3.154-4.116-5.587-4.461-6.064-.859-14.591,5.674-18.84,10.278-.453.49-.89,1-1.327,1.508l-.33.385a.854.854,0,0,1-1.437-.88c1.833-4.49,3.585-9.29,3.14-14.253-.239-2.659-1.374-4.583-3.283-5.564-2.226-1.144-5.22-.846-8.009.795-5.67,3.339-10.283,9.083-14.424,14.794a2.831,2.831,0,0,0,.692,4.243,3.95,3.95,0,0,0,5.636-.741,61.825,61.825,0,0,1,6.111-7.149.854.854,0,0,1,1.355,1.012q-.483.884-.976,1.764a130.616,130.616,0,0,0-6.021,11.73l-.383.883c-3.234,7.433-7.661,17.613-3.761,25.137,1.894,3.655,6.378,4.011,9.828,2.479,4.305-1.913,7.451-5.891,10.493-9.739.394-.5.784-.99,1.172-1.473,2.6-3.236,5.021-6.691,7.362-10.033q1.263-1.8,2.538-3.6l.242-.34a63.519,63.519,0,0,1,4.118-5.365l.076-.083A.932.932,0,0,1,174.52,211.26Zm16.92,5.563h0Z" transform="translate(-132.979 -184.841)" fill="#3c384f"/>
    <path id="Trazado_115017" data-name="Trazado 115017" d="M142.188,223.2c-3.145,6.321-4.92,13.731-2.156,20.524.408,1,2.06.565,1.646-.454-2.593-6.379-.973-13.264,1.985-19.209C144.15,223.081,142.678,222.214,142.188,223.2Z" transform="translate(-133.811 -190.389)" fill="#3c384f"/>
    <path id="Trazado_115018" data-name="Trazado 115018" d="M145.38,243.589c-.014,0-.028-.006-.042-.009-.024-.046-.045-.1-.053-.11l0-.005c0-.007,0,0,0-.012-.11-.382-.189-.767-.272-1.156q-.289-1.351-.58-2.7a.86.86,0,0,0-1.05-.6.874.874,0,0,0-.6,1.05q.328,1.528.656,3.056c.182.848.473,1.96,1.489,2.13a.874.874,0,0,0,1.05-.6A.863.863,0,0,0,145.38,243.589Z" transform="translate(-134.41 -192.76)" fill="#3c384f"/>
    <path id="Trazado_115019" data-name="Trazado 115019" d="M189.427,201.7c-.969-.517-1.832.956-.861,1.474a3.951,3.951,0,0,1,1.8,3.6,24.692,24.692,0,0,1-.385,4.894,32.482,32.482,0,0,1-2.963,9.17c-.487.981.984,1.847,1.474.861a34.167,34.167,0,0,0,3.314-10.8C192.21,207.831,192.691,203.447,189.427,201.7Z" transform="translate(-140.872 -187.292)" fill="#3c384f"/>
  </g>
  <g id="Grupo_81068" data-name="Grupo 81068" transform="translate(0 0)">
    <g id="Grupo_81067" data-name="Grupo 81067">
      <g id="Grupo_81066" data-name="Grupo 81066">
        <path id="Trazado_115020" data-name="Trazado 115020" d="M189.216,214.6c-4.113,4.209-8.364,8.263-12.7,12.244,1.873-4.233,3.893-8.4,5.671-12.679,2.016-4.851,4.358-11.463,1.817-16.551-5.791-11.6-20.431-.219-25.819,5.62-.575.621-1.122,1.271-1.677,1.914,1.924-4.714,3.657-9.558,3.2-14.651-.629-7-7.049-8.683-12.576-5.429-5.936,3.494-10.7,9.539-14.683,15.029-3.381,4.663,4.356,9.1,7.71,4.506a60.715,60.715,0,0,1,6.025-7.05q-.48.88-.97,1.757a130.962,130.962,0,0,0-6.06,11.807c-3.375,7.786-8.364,18.563-4.119,26.752,2.139,4.127,7.155,4.546,10.932,2.867,5.077-2.257,8.593-7.24,11.983-11.457,3.539-4.4,6.655-9.079,9.93-13.674a67.067,67.067,0,0,1,4.3-5.633c.036-.04.074-.078.11-.119l-.039.125c-.87,2.7-1.989,5.3-3.121,7.9-2.108,4.84-4.825,9.936-5.6,15.2-.683,4.658,1.2,9.878,6.806,9.54,5.266-.318,9.486-5.39,13.007-8.778,4.264-4.1,8.451-8.288,12.64-12.467C200.368,217.014,193.536,210.18,189.216,214.6Z" transform="translate(-130.756 -182.616)" fill="#f6f6f6"/>
        <path id="Trazado_115021" data-name="Trazado 115021" d="M169.7,243.344a6.69,6.69,0,0,1-5.1-2.115c-1.774-1.932-2.541-5.079-2.051-8.418.637-4.352,2.535-8.522,4.372-12.554.439-.966.874-1.921,1.286-2.867.39-.9.8-1.84,1.208-2.815-.249.347-.5.693-.74,1.036l-.242.34c-.851,1.193-1.691,2.393-2.531,3.591-2.356,3.364-4.793,6.843-7.43,10.122-.385.48-.772.969-1.163,1.463-3.023,3.822-6.449,8.154-11.139,10.24-4.182,1.857-9.658,1.336-12.036-3.254-4.274-8.245.341-18.855,3.71-26.6l.383-.88c.991-2.289,2.1-4.523,3.281-6.747q-.409.534-.8,1.075a5.681,5.681,0,0,1-8.019,1.116,4.5,4.5,0,0,1-1.071-6.626c4.249-5.861,9-11.766,14.94-15.264,3.3-1.94,6.905-2.255,9.656-.842,2.421,1.244,3.913,3.7,4.2,6.93a26.131,26.131,0,0,1-1.662,10.86c4.385-4.282,12.491-10.356,19-9.436,2.988.424,5.3,2.237,6.875,5.388,2.588,5.182.546,11.632-1.793,17.26-1.113,2.678-2.337,5.351-3.521,7.935l-.419.914c3.523-3.3,6.675-6.38,9.567-9.339h0a5.129,5.129,0,0,1,5.11-1.517,6.287,6.287,0,0,1,4.351,4.321,5.172,5.172,0,0,1-1.469,5.176l-.476.476c-3.965,3.958-8.066,8.049-12.174,12-.506.487-1.026,1.009-1.563,1.547-3.189,3.2-7.157,7.177-11.985,7.468C170.065,243.339,169.882,243.344,169.7,243.344Zm2.449-34.456a.8.8,0,0,1,.413.111.829.829,0,0,1,.4.969l-.04.125c-.912,2.835-2.1,5.569-3.15,7.979-.416.954-.855,1.919-1.3,2.893-1.787,3.924-3.634,7.98-4.237,12.093-.409,2.793.212,5.482,1.62,7.016a5.126,5.126,0,0,0,4.289,1.549c4.18-.253,7.74-3.821,10.879-6.97.545-.546,1.074-1.076,1.588-1.571,4.1-3.941,8.192-8.028,12.152-11.981l.476-.476a3.47,3.47,0,0,0,1.028-3.521,4.593,4.593,0,0,0-3.134-3.114,3.419,3.419,0,0,0-3.458,1.058h0c-3.737,3.822-7.9,7.838-12.729,12.277a.854.854,0,0,1-1.358-.974c.708-1.6,1.437-3.191,2.165-4.782,1.178-2.57,2.4-5.229,3.5-7.88,2.191-5.271,4.123-11.275,1.842-15.842-1.327-2.656-3.154-4.115-5.587-4.461-6.064-.858-14.592,5.674-18.841,10.278-.452.491-.889,1-1.326,1.508l-.331.386a.854.854,0,0,1-1.437-.881c1.834-4.49,3.586-9.29,3.141-14.252-.239-2.66-1.374-4.584-3.283-5.565-2.227-1.143-5.22-.845-8.009.8-5.671,3.338-10.283,9.083-14.424,14.794a2.829,2.829,0,0,0,.692,4.242,3.949,3.949,0,0,0,5.636-.74,61.67,61.67,0,0,1,6.111-7.149.853.853,0,0,1,1.354,1.011q-.483.885-.975,1.765a130.619,130.619,0,0,0-6.022,11.73l-.383.883c-3.233,7.433-7.66,17.613-3.76,25.136,1.894,3.656,6.378,4.012,9.828,2.48,4.305-1.913,7.451-5.892,10.493-9.739q.59-.747,1.171-1.473c2.6-3.235,5.021-6.69,7.363-10.032.842-1.2,1.684-2.4,2.538-3.6l.242-.339a63.541,63.541,0,0,1,4.117-5.365l.077-.083A.931.931,0,0,1,172.148,208.888Zm16.92,5.564h0Z" transform="translate(-130.608 -182.47)"/>
      </g>
      <path id="Trazado_115022" data-name="Trazado 115022" d="M139.817,220.829c-3.146,6.321-4.92,13.73-2.157,20.524.409,1,2.061.565,1.647-.454-2.594-6.38-.974-13.264,1.985-19.209C141.778,220.709,140.307,219.843,139.817,220.829Z" transform="translate(-131.44 -188.018)"/>
      <path id="Trazado_115023" data-name="Trazado 115023" d="M143.009,241.218c-.015,0-.028-.006-.042-.009-.024-.047-.046-.1-.054-.11l0-.005c0-.007,0,0,0-.013-.11-.381-.19-.767-.272-1.155q-.291-1.351-.58-2.7a.86.86,0,0,0-1.051-.6.873.873,0,0,0-.6,1.05l.656,3.055c.183.849.474,1.961,1.49,2.131a.875.875,0,0,0,1.05-.6A.864.864,0,0,0,143.009,241.218Z" transform="translate(-132.039 -190.389)"/>
      <path id="Trazado_115024" data-name="Trazado 115024" d="M187.056,199.333c-.969-.517-1.833.956-.861,1.474a3.953,3.953,0,0,1,1.8,3.6,24.7,24.7,0,0,1-.385,4.9,32.482,32.482,0,0,1-2.963,9.17c-.488.981.984,1.847,1.474.861a34.2,34.2,0,0,0,3.314-10.8C189.839,205.459,190.32,201.075,187.056,199.333Z" transform="translate(-138.501 -184.921)"/>
    </g>
  </g>
</svg>
